<?xml version="1.0" encoding="utf-8"?>
<!-- Generator: Adobe Illustrator 19.0.0, SVG Export Plug-In . SVG Version: 6.00 Build 0)  -->
<svg version="1.1" id="_x30_" xmlns="http://www.w3.org/2000/svg" xmlns:xlink="http://www.w3.org/1999/xlink" x="0px" y="0px"
	 viewBox="0 0 320.2 280.7" style="enable-background:new 0 0 320.2 280.7;" xml:space="preserve">
<style type="text/css">
	.st0{fill:#FFFFF7;}
	.st1{fill:#5454AC;}
	.st2{fill:#6666C4;}
	.st3{fill:#E78565;}
	.st4{fill:#817DEC;}
	.st5{opacity:0.6;fill:#B28A7C;}
	.st6{fill:url(#SVGID_1_);}
	.st7{fill:#2E2E70;}
	.st8{opacity:0.3;fill:#181019;}
	.st9{fill:#181019;}
	.st10{fill:#666673;}
	.st11{fill:#777784;}
	.st12{enable-background:new    ;}
	.st13{fill:#D1CCBF;}
	.st14{opacity:0.3;clip-path:url(#SVGID_3_);}
	.st15{fill:#8A18ED;}
	.st16{fill:#FFD03B;}
	.st17{fill:#E8A3D7;}
	.st18{fill:#E4DED2;}
	.st19{fill:#E467E8;}
	.st20{opacity:0.1;}
	.st21{fill:#FF9E7C;}
	.st22{fill:url(#SVGID_4_);}
	.st23{fill:#FCBE9F;}
	.st24{fill:#FFF8EF;}
	.st25{fill:#FFFBF3;}
	.st26{fill:#333372;}
	.st27{fill:#F1A782;}
	.st28{fill:#EEE8DE;}
	.st29{fill:#44448B;}
	.st30{fill:#30307A;}
</style>
<g id="_x31_">
	<g id="_x32__1_">
		<g id="_x31_4_1_">
			<g>
				<path class="st0" d="M146.6,68.3c0.1-0.2,0.4-0.3,0.6-0.3l4.9,0.6c0.3,0,0.5,0.3,0.6,0.5c0,0.2,0,0.3-0.1,0.5
					c-0.1,0.1-0.1,0.2-0.2,0.2l-1,0.6l166.3,96c-0.1,0.5-0.2,0.9-0.3,1.4L150,71.2l-1.6,0.9c-0.2,0.1-0.4,0.1-0.6,0
					c-0.2-0.1-0.3-0.2-0.4-0.4l-1-2.8C146.4,68.7,146.4,68.5,146.6,68.3z"/>
				<g>
					<path class="st1" d="M240.5,67c1.2,1.3,2.5,2.3,3.8,2.8l18.3,6.3c1.1,0.4,2.3,1.2,3.4,2.3l14.1,14.5c1.3,1.4,2.8,2.3,4.2,2.5
						l14.8,2.6c1.7,0.3,3.6,1.6,5,3.5l13.4,17.2v48.5L150.2,70.5V7.1l9.5,1.7c1.2,0.2,2.6,1,3.9,2.2l3.7,3.6c1.4,1.4,3,2.2,4.4,2.3
						l8,0.4c1.4,0.1,3.1,0.9,4.5,2.4l16.3,16.2c1,1,2.1,1.8,3.2,2.1l14.4,5c1.3,0.5,2.6,1.4,3.8,2.7"/>
					<path class="st2" d="M154.7,34.5l7.5,8c1.4,1.5,3,2.5,4.5,2.7l23.4,3.1c1.2,0.2,2.6,0.9,3.8,2l14.6,13.2c1,0.9,2,1.5,3,1.8
						l18.6,5.8c1.4,0.4,2.8,1.5,4,2.9l18.6,21.6c1,1.2,2.2,2.1,3.4,2.6l14.4,6.4c1,0.4,2,1.2,3,2.2l16.3,17c1.2,1.3,2.6,2.2,3.9,2.5
						l13.7,3.4v7.3V173L140.1,76.3V29.9l10.4,2C151.8,32.2,153.4,33.1,154.7,34.5z"/>
					<path class="st3" d="M142.7,49.2l8.3,7.4c1.2,1.1,2.6,1.8,3.8,2l8.3,1.1c1.3,0.2,2.7,0.9,4,2.2l11.2,10.6
						c1.4,1.3,2.9,2.1,4.2,2.2l13.6,1.2c1.5,0.1,3.4,1.2,4.9,2.9l24.8,27.9c1.5,1.7,3.3,2.8,4.8,2.9l10,1c1.5,0.2,3.1,1.1,4.6,2.7
						l17.9,19c1.5,1.6,3.2,2.6,4.7,2.7l10.5,0.7c1.3,0.1,2.7,0.8,4.1,2l13.7,12.4v29.4L128.6,83V44.5l10.9,2.9
						C140.5,47.6,141.7,48.3,142.7,49.2z"/>
					<path class="st0" d="M132,77.8l8.3,7.4c1.3,1.1,2.7,1.9,3.9,2l7.8,0.9c1.4,0.2,3.1,1.1,4.5,2.6l6.7,7.1
						c1.6,1.7,3.6,2.7,5.1,2.7l17.1-0.8c1.6-0.1,3.7,1.1,5.4,3l19.5,22.1c1.6,1.8,3.5,2.9,5,3l14.5,0.8c1.4,0.1,3.1,1,4.6,2.5
						l18.1,18.6c1.3,1.4,2.8,2.3,4.2,2.5l10.9,1.8c1.2,0.2,2.5,0.9,3.7,2l13.9,12.6v17.2L117.8,89.1V72.9l10.9,3
						C129.8,76.2,130.9,76.8,132,77.8z"/>
					<path class="st4" d="M121.9,98.7l5.8,4.1c1.8,1.3,3.5,2.2,5.3,2.8l6,2c2.2,0.7,4.5,2.1,6.7,3.9l5,4.2c2.1,1.8,4.4,3.1,6.5,3.8
						l16,5.6c2,0.7,4,1.8,6,3.4l18.2,14.2c2.3,1.8,4.8,3.1,7,3.7l11.1,3c2.4,0.7,5,2.1,7.5,4.1l16.2,13.2c2.4,1.9,4.9,3.3,7.2,4
						l6.2,1.8c3,0.9,6.2,2.9,9.1,5.7l11.8,11.4v3L106,96v-2.6l9.3,2.1C117.4,96,119.7,97.1,121.9,98.7z"/>
				</g>
				<g>
					<path class="st0" d="M265.9,196.5l51-29.4V81.1c0-0.4,0.3-0.7,0.7-0.7c0.4,0,0.7,0.3,0.7,0.7v86.3c0,0.2-0.1,0.5-0.3,0.6
						l-51.3,29.6c-0.1,0.1-0.2,0.1-0.3,0.1c-0.2,0-0.5-0.1-0.6-0.3C265.4,197.1,265.5,196.7,265.9,196.5z"/>
					<path class="st0" d="M315.1,80.3l2-2.3c0.2-0.2,0.4-0.3,0.6-0.2c0.2,0,0.4,0.2,0.5,0.4l2,4.5c0.1,0.3,0,0.6-0.2,0.8
						c-0.1,0.1-0.3,0.2-0.5,0.2c-0.1,0-0.2,0-0.3-0.1l-3.9-2.3c-0.2-0.1-0.3-0.3-0.3-0.5C314.9,80.7,315,80.5,315.1,80.3z"/>
					<path class="st0" d="M263.3,198.4l0.6-2.9c0-0.2,0.2-0.4,0.4-0.5c0.2-0.1,0.5-0.1,0.7,0.1l4,2.9c0.2,0.2,0.3,0.5,0.2,0.8
						c-0.1,0.2-0.2,0.3-0.3,0.4c-0.1,0.1-0.2,0.1-0.3,0.1l-4.5,0c-0.2,0-0.4-0.1-0.5-0.2C263.3,198.8,263.2,198.6,263.3,198.4z"/>
				</g>
			</g>
		</g>
		<g id="_x31_6_2_">
			<g id="_x31_6_3_">
				<g>
					<path class="st5" d="M252.3,199.9L96.7,110.1c-4-2.3-10.4-2.3-14.4,0L5.8,154.6c-3.9,2.3-3.9,6,0.1,8.3l155.6,89.8
						c4,2.3,10.4,2.3,14.3,0l76.6-44.5C256.3,205.9,256.3,202.2,252.3,199.9z"/>
					<g>
						<linearGradient id="SVGID_1_" gradientUnits="userSpaceOnUse" x1="2.8578" y1="197.8236" x2="255.3241" y2="197.8236">
							<stop  offset="0" style="stop-color:#CBC6B9"/>
							<stop  offset="1" style="stop-color:#E4DED2"/>
						</linearGradient>
						<path class="st6" d="M2.9,147.4l0,5.2c0,1.5,1,3,3,4.2l155.6,89.8c4,2.3,10.4,2.3,14.3,0l76.6-44.5c2-1.1,3-2.6,3-4.1l0-5.2
							L2.9,147.4z"/>
						<g>
							<path class="st7" d="M252.3,188.6c4,2.3,4,6,0,8.3l-76.6,44.5c-3.9,2.3-10.4,2.3-14.3,0L5.9,151.6c-4-2.3-4-6-0.1-8.3
								l76.6-44.5c4-2.3,10.4-2.3,14.4,0L252.3,188.6z"/>
						</g>
						<path class="st8" d="M90.6,97.1c-2.9-0.2-5.9,0.4-8.2,1.7L5.8,143.3c-3.9,2.3-3.9,6,0.1,8.3l84.7,48.9V97.1z"/>
						<polygon class="st9" points="24.7,132.3 39.1,132.3 70.2,114.3 70.2,105.9 						"/>
						<path class="st10" d="M220.7,219.5l-9.3,5.4c-0.7,0.4-1.3,0.2-1.3-0.6v-0.6c0-0.7,0.6-1.7,1.3-2.1l9.3-5.4
							c0.7-0.4,1.3-0.2,1.3,0.6v0.6C222.1,218.1,221.5,219.1,220.7,219.5z"/>
						<path class="st11" d="M221.3,219l-2.7-1.6l-7.2,4.2c-0.7,0.4-1.3,1.4-1.3,2.1v0.6c0,0.7,0.6,1,1.3,0.6l9.3-5.4
							C220.9,219.4,221.1,219.2,221.3,219z"/>
						<g>
							<g class="st12">
								<path class="st0" d="M39.7,172.6c-0.1-0.2-0.3-0.5-0.4-0.7c-0.1-0.2-0.3-0.3-0.5-0.4L28,165.4c-0.3-0.2-0.6-0.2-0.8-0.1
									l-0.9,0.5c0.2-0.1,0.5-0.1,0.8,0.1l10.8,6.2c0.2,0.1,0.3,0.2,0.5,0.4c0.2,0.2,0.3,0.4,0.4,0.7c0.1,0.3,0.2,0.6,0.2,0.8
									l0,1.4c0,0.3-0.1,0.6-0.3,0.7l0.9-0.5c0.2-0.1,0.3-0.4,0.3-0.7l0-1.4C39.9,173.2,39.8,172.9,39.7,172.6z"/>
								<path class="st13" d="M37.9,172.1l-10.8-6.2c-0.6-0.3-1.1-0.1-1.1,0.6l0,1.4c0,0.7,0.5,1.5,1.1,1.9l10.8,6.2
									c0.6,0.3,1.1,0.1,1.1-0.6l0-1.4C39,173.3,38.5,172.4,37.9,172.1z"/>
							</g>
							<g class="st12">
								<path class="st0" d="M57.7,183c-0.1-0.2-0.3-0.5-0.4-0.7c-0.1-0.2-0.3-0.3-0.5-0.4L46,175.8c-0.3-0.2-0.6-0.2-0.8-0.1
									l-0.9,0.5c0.2-0.1,0.5-0.1,0.8,0.1l10.8,6.2c0.2,0.1,0.3,0.2,0.5,0.4c0.2,0.2,0.3,0.4,0.4,0.7c0.1,0.3,0.2,0.6,0.2,0.8
									l0,1.4c0,0.3-0.1,0.6-0.3,0.7l0.9-0.5c0.2-0.1,0.3-0.4,0.3-0.7l0-1.4C57.9,183.6,57.8,183.3,57.7,183z"/>
								<path class="st13" d="M56,182.5l-10.8-6.2c-0.6-0.3-1.1-0.1-1.1,0.6l0,1.4c0,0.7,0.5,1.5,1.1,1.9l10.8,6.2
									c0.6,0.3,1.1,0.1,1.1-0.6l0-1.4C57,183.7,56.6,182.8,56,182.5z"/>
							</g>
						</g>
					</g>
				</g>
				<g>
					<defs>
						<path id="SVGID_2_" d="M252.3,188.6c4,2.3,4,6,0,8.3l-76.6,44.5c-3.9,2.3-10.4,2.3-14.3,0L5.9,151.6c-4-2.3-4-6-0.1-8.3
							l76.6-44.5c4-2.3,10.4-2.3,14.4,0L252.3,188.6z"/>
					</defs>
					<clipPath id="SVGID_3_">
						<use xlink:href="#SVGID_2_"  style="overflow:visible;"/>
					</clipPath>
					<g class="st14">
						<g>
							<path class="st1" d="M219,184.2v60.3c0,1.5,0.9,2.9,2.9,4.1c3.8,2.2,10.1,2.2,13.9,0c1.9-1.1,2.9-2.5,2.9-4v-60.3L219,184.2z
								"/>
							<path class="st15" d="M235.7,180.1c-1.5-0.9-3.3-1.4-5.4-1.6c-4.3-0.4-8.3,0.8-10.3,3c-2,2.2-1.2,4.8,1.8,6.6
								c2.3,1.3,5.3,1.9,8.5,1.6c3.2-0.3,5.7-1.4,7.2-3C239.5,184.5,238.8,181.9,235.7,180.1z"/>
						</g>
						<g>
							<path class="st1" d="M201,194.2V246c0,1.5,0.9,2.9,2.9,4.1c3.8,2.2,10.1,2.2,13.9,0c1.9-1.1,2.9-2.5,2.9-4v-51.8L201,194.2z"
								/>
							<path class="st16" d="M217.8,190.2c-1.5-0.9-3.3-1.4-5.4-1.6c-4.3-0.4-8.3,0.8-10.3,3c-2,2.2-1.2,4.8,1.8,6.6
								c2.3,1.3,5.3,1.9,8.5,1.6c3.2-0.3,5.7-1.4,7.2-3C221.6,194.6,220.9,192,217.8,190.2z"/>
						</g>
						<g>
							<path class="st3" d="M183.1,203.6v43.6c0,1.5,0.9,2.9,2.9,4.1c3.8,2.2,10.1,2.2,13.9,0c1.9-1.1,2.9-2.5,2.9-4v-43.6
								L183.1,203.6z"/>
							<path class="st15" d="M199.9,199.6c-1.5-0.9-3.3-1.4-5.4-1.6c-4.3-0.4-8.3,0.8-10.3,3c-2,2.2-1.2,4.8,1.8,6.6
								c2.3,1.3,5.3,1.9,8.5,1.6c3.2-0.3,5.7-1.4,7.2-3C203.7,203.9,202.9,201.3,199.9,199.6z"/>
						</g>
						<g>
							<path class="st3" d="M164.9,214.6v32.5c0,1.5,0.9,2.9,2.9,4.1c3.8,2.2,10.1,2.2,13.9,0c1.9-1.1,2.9-2.5,2.9-4v-32.5
								L164.9,214.6z"/>
							<path class="st17" d="M181.7,210.6c-1.5-0.9-3.3-1.4-5.4-1.6c-4.3-0.4-8.3,0.8-10.3,3c-2,2.2-1.2,4.8,1.8,6.6
								c2.3,1.3,5.3,1.9,8.5,1.6c3.2-0.3,5.7-1.4,7.2-3C185.5,214.9,184.7,212.4,181.7,210.6z"/>
						</g>
						<g>
							<path class="st18" d="M146.7,226v22.7c0,1.5,0.9,2.9,2.9,4.1c3.8,2.2,10.1,2.2,13.9,0c1.9-1.1,2.9-2.5,2.9-4v-22.7L146.7,226
								z"/>
							<path class="st19" d="M163.5,222c-1.5-0.9-3.3-1.4-5.4-1.6c-4.3-0.4-8.3,0.8-10.3,3c-2,2.2-1.2,4.8,1.8,6.6
								c2.3,1.3,5.3,1.9,8.5,1.6c3.2-0.3,5.7-1.4,7.2-3C167.3,226.3,166.5,223.7,163.5,222z"/>
						</g>
					</g>
				</g>
				<g class="st20">
					<g>
						<polygon class="st0" points="121.3,204.5 112.8,209.4 111,208.4 119.5,203.5 						"/>
						<polygon class="st0" points="129.3,199.9 123.8,203.1 121.9,202 127.5,198.8 						"/>
						<polygon class="st0" points="143.2,191.9 131.8,198.5 129.9,197.4 141.4,190.8 						"/>
						<polygon class="st0" points="158.8,182.9 145.7,190.4 143.9,189.4 157,181.8 						"/>
						<polygon class="st0" points="159.5,180.4 161.3,181.4 174.4,173.9 172.6,172.8 						"/>
						<polygon class="st0" points="182.3,169.3 176.9,172.4 175,171.4 180.5,168.2 						"/>
						<polygon class="st0" points="198.1,160.2 184.8,167.9 183,166.8 196.3,159.1 						"/>
						<polygon class="st0" points="131,204.7 117.8,212.3 115.9,211.2 129.2,203.6 						"/>
						<polygon class="st0" points="139,200 133.5,203.2 131.6,202.2 137.2,199 						"/>
						<polygon class="st0" points="148.2,194.7 141.5,198.6 139.6,197.6 146.4,193.7 						"/>
						<polygon class="st0" points="158.2,189 150.7,193.3 148.8,192.2 156.4,187.9 						"/>
						<polygon class="st0" points="158.8,186.5 160.7,187.5 172.7,180.6 170.9,179.5 						"/>
						<polygon class="st0" points="183.3,174.4 175.2,179.1 173.4,178.1 181.5,173.4 						"/>
						<polygon class="st0" points="203.1,163.1 185.8,173 184,172 201.2,162 						"/>
						<polygon class="st0" points="131.3,210.3 122.7,215.2 120.9,214.1 129.4,209.2 						"/>
						<polygon class="st0" points="139.2,205.6 133.7,208.8 131.9,207.8 137.4,204.6 						"/>
						<polygon class="st0" points="153.2,197.6 141.7,204.2 139.9,203.2 151.4,196.5 						"/>
						<polygon class="st0" points="168.8,188.6 155.6,196.2 153.8,195.1 166.9,187.5 						"/>
						<polygon class="st0" points="169.4,186.1 171.2,187.2 184.3,179.6 182.5,178.5 						"/>
						<polygon class="st0" points="192.3,175 186.8,178.2 185,177.1 190.4,174 						"/>
						<polygon class="st0" points="208,165.9 194.7,173.6 192.9,172.5 206.2,164.9 						"/>
						<polygon class="st0" points="140.9,210.4 127.7,218 125.9,217 139.1,209.3 						"/>
						<polygon class="st0" points="148.9,205.8 143.4,209 141.6,207.9 147.1,204.7 						"/>
						<polygon class="st0" points="158.2,200.5 151.4,204.4 149.6,203.3 156.3,199.4 						"/>
						<polygon class="st0" points="168.1,194.7 160.6,199 158.8,198 166.3,193.6 						"/>
						<polygon class="st0" points="168.8,192.2 170.6,193.3 182.7,186.3 180.9,185.2 						"/>
						<polygon class="st0" points="193.3,180.2 185.1,184.9 183.3,183.8 191.4,179.1 						"/>
						<polygon class="st0" points="213,168.8 195.7,178.8 193.9,177.7 211.2,167.7 						"/>
						<polygon class="st0" points="60,169.1 51.5,174 49.6,173 58.1,168 						"/>
						<polygon class="st0" points="68,164.5 62.4,167.7 60.6,166.6 66.1,163.4 						"/>
						<polygon class="st0" points="81.9,156.4 70.4,163.1 68.6,162 80.1,155.4 						"/>
						<polygon class="st0" points="97.5,147.4 84.4,155 82.5,154 95.7,146.4 						"/>
						<polygon class="st0" points="98.1,145 100,146 113.1,138.5 111.2,137.4 						"/>
						<polygon class="st0" points="121,133.9 115.5,137 113.7,136 119.2,132.8 						"/>
						<polygon class="st0" points="136.7,124.8 123.5,132.5 121.6,131.4 134.9,123.7 						"/>
						<polygon class="st0" points="69.7,169.3 56.4,176.9 54.6,175.8 67.8,168.2 						"/>
						<polygon class="st0" points="77.7,164.6 72.1,167.8 70.3,166.8 75.8,163.6 						"/>
						<polygon class="st0" points="86.9,159.3 80.1,163.2 78.3,162.2 85.1,158.3 						"/>
						<polygon class="st0" points="96.9,153.5 89.3,157.9 87.5,156.8 95,152.5 						"/>
						<polygon class="st0" points="97.5,151.1 99.3,152.1 111.4,145.1 109.6,144.1 						"/>
						<polygon class="st0" points="122,139 113.9,143.7 112,142.7 120.2,138 						"/>
						<polygon class="st0" points="141.7,127.6 124.5,137.6 122.6,136.6 139.9,126.6 						"/>
					</g>
					<g>
						<path class="st4" d="M102.7,181.5L76,179.1c0.9-3.4,3.4-6.1,7.6-8.6L102.7,181.5z"/>
						<path class="st0" d="M102.7,181.5l-12.2,13.9c-10.6-3.1-16.3-9.5-14.4-16.3L102.7,181.5z"/>
						<path class="st21" d="M102.7,181.5l19.1,11c-8.4,4.9-20.7,6-31.3,2.9L102.7,181.5z"/>
						<path class="st2" d="M102.7,181.5l26.6-2.4c1.4,5.1-1.2,9.8-7.6,13.4L102.7,181.5z"/>
						<path class="st2" d="M102.7,181.5l12.2-13.9c8,2.3,13,6.3,14.4,11.4L102.7,181.5z"/>
						<path class="st1" d="M102.7,181.5l-19.1-11c8.4-4.9,20.7-6,31.3-2.9L102.7,181.5z"/>
					</g>
					<g>
						<path class="st4" d="M149.6,154.4l9.1,14.7c-5.6,1.2-11,1.2-16.7,0.3L149.6,154.4z"/>
						<path class="st0" d="M149.6,154.4l26,4.4c-2.5,5-8.5,8.6-16.9,10.3L149.6,154.4z"/>
						<path class="st1" d="M149.6,154.4l-7.7,15c-14.4-2.4-22.6-11.2-18.3-19.4s19.3-13,33.7-10.6c5.7,1,10.2,2.7,13.8,5.5
							L149.6,154.4z"/>
						<path class="st21" d="M149.6,154.4l21.5-9.5c5.5,4.1,7.1,9,4.5,14L149.6,154.4z"/>
					</g>
				</g>
				<g>
					<g>
						<line class="st0" x1="24.7" y1="135.6" x2="24.7" y2="135.9"/>
					</g>
				</g>
				<g>
					<g>
						<polygon class="st0" points="121.3,182.9 112.8,187.8 111,186.7 119.5,181.8 						"/>
						<polygon class="st0" points="129.3,178.3 123.8,181.5 121.9,180.4 127.5,177.2 						"/>
						<polygon class="st0" points="143.2,170.2 131.8,176.8 129.9,175.8 141.4,169.2 						"/>
						<polygon class="st0" points="158.8,161.2 145.7,168.8 143.9,167.7 157,160.2 						"/>
						<polygon class="st0" points="159.5,158.7 161.3,159.8 174.4,152.2 172.6,151.2 						"/>
						<polygon class="st0" points="182.3,147.7 176.9,150.8 175,149.8 180.5,146.6 						"/>
						<polygon class="st0" points="198.1,138.6 184.8,146.2 183,145.2 196.3,137.5 						"/>
						<polygon class="st0" points="131,183 117.8,190.7 115.9,189.6 129.2,182 						"/>
						<polygon class="st0" points="139,178.4 133.5,181.6 131.6,180.6 137.2,177.4 						"/>
						<polygon class="st0" points="148.2,173.1 141.5,177 139.6,175.9 146.4,172 						"/>
						<polygon class="st0" points="158.2,167.3 150.7,171.7 148.8,170.6 156.4,166.3 						"/>
						<polygon class="st0" points="158.8,164.8 160.7,165.9 172.7,158.9 170.9,157.9 						"/>
						<polygon class="st0" points="183.3,152.8 175.2,157.5 173.4,156.4 181.5,151.8 						"/>
						<polygon class="st0" points="203.1,141.4 185.8,151.4 184,150.3 201.2,140.4 						"/>
						<polygon class="st0" points="131.3,188.6 122.7,193.5 120.9,192.5 129.4,187.6 						"/>
						<polygon class="st0" points="139.2,184 133.7,187.2 131.9,186.1 137.4,182.9 						"/>
						<polygon class="st0" points="153.2,176 141.7,182.6 139.9,181.5 151.4,174.9 						"/>
						<polygon class="st0" points="168.8,167 155.6,174.5 153.8,173.5 166.9,165.9 						"/>
						<polygon class="st0" points="169.4,164.5 171.2,165.5 184.3,158 182.5,156.9 						"/>
						<polygon class="st0" points="192.3,153.4 186.8,156.5 185,155.5 190.4,152.3 						"/>
						<polygon class="st0" points="208,144.3 194.7,152 192.9,150.9 206.2,143.2 						"/>
						<polygon class="st0" points="140.9,188.8 127.7,196.4 125.9,195.3 139.1,187.7 						"/>
						<polygon class="st0" points="148.9,184.2 143.4,187.3 141.6,186.3 147.1,183.1 						"/>
						<polygon class="st0" points="158.2,178.8 151.4,182.7 149.6,181.7 156.3,177.8 						"/>
						<polygon class="st0" points="168.1,173.1 160.6,177.4 158.8,176.3 166.3,172 						"/>
						<polygon class="st0" points="168.8,170.6 170.6,171.6 182.7,164.7 180.9,163.6 						"/>
						<polygon class="st0" points="193.3,158.5 185.1,163.2 183.3,162.2 191.4,157.5 						"/>
						<polygon class="st0" points="213,147.2 195.7,157.1 193.9,156.1 211.2,146.1 						"/>
						<polygon class="st0" points="60,147.5 51.5,152.4 49.6,151.3 58.1,146.4 						"/>
						<polygon class="st0" points="68,142.9 62.4,146 60.6,145 66.1,141.8 						"/>
						<polygon class="st0" points="81.9,134.8 70.4,141.4 68.6,140.4 80.1,133.7 						"/>
						<polygon class="st0" points="97.5,125.8 84.4,133.4 82.5,132.3 95.7,124.8 						"/>
						<polygon class="st0" points="98.1,123.3 100,124.4 113.1,116.8 111.2,115.8 						"/>
						<polygon class="st0" points="121,112.2 115.5,115.4 113.7,114.3 119.2,111.2 						"/>
						<polygon class="st0" points="136.7,103.1 123.5,110.8 121.6,109.8 134.9,102.1 						"/>
						<polygon class="st0" points="69.7,147.6 56.4,155.3 54.6,154.2 67.8,146.6 						"/>
						<polygon class="st0" points="77.7,143 72.1,146.2 70.3,145.1 75.8,141.9 						"/>
						<polygon class="st0" points="86.9,137.7 80.1,141.6 78.3,140.5 85.1,136.6 						"/>
						<polygon class="st0" points="96.9,131.9 89.3,136.3 87.5,135.2 95,130.9 						"/>
						<polygon class="st0" points="97.5,129.4 99.3,130.5 111.4,123.5 109.6,122.5 						"/>
						<polygon class="st0" points="122,117.4 113.9,122.1 112,121 120.2,116.3 						"/>
						<polygon class="st0" points="141.7,106 124.5,116 122.6,114.9 139.9,105 						"/>
					</g>
					<g>
						<path class="st4" d="M102.7,159.9L76,157.4c0.9-3.4,3.4-6.1,7.6-8.6L102.7,159.9z"/>
						<path class="st0" d="M102.7,159.9l-12.2,13.9c-10.6-3.1-16.3-9.5-14.4-16.3L102.7,159.9z"/>
						<path class="st21" d="M102.7,159.9l19.1,11c-8.4,4.9-20.7,6-31.3,2.9L102.7,159.9z"/>
						<path class="st2" d="M102.7,159.9l26.6-2.4c1.4,5.1-1.2,9.8-7.6,13.4L102.7,159.9z"/>
						<path class="st2" d="M102.7,159.9l12.2-13.9c8,2.3,13,6.3,14.4,11.4L102.7,159.9z"/>
						<path class="st1" d="M102.7,159.9l-19.1-11c8.4-4.9,20.7-6,31.3-2.9L102.7,159.9z"/>
					</g>
					<g>
						<path class="st4" d="M149.6,132.7l9.1,14.7c-5.6,1.2-11,1.2-16.7,0.3L149.6,132.7z"/>
						<path class="st0" d="M149.6,132.7l26,4.4c-2.5,5-8.5,8.6-16.9,10.3L149.6,132.7z"/>
						<path class="st1" d="M149.6,132.7l-7.7,15c-14.4-2.4-22.6-11.2-18.3-19.4s19.3-13,33.7-10.6c5.7,1,10.2,2.7,13.8,5.5
							L149.6,132.7z"/>
						<path class="st21" d="M149.6,132.7l21.5-9.5c5.5,4.1,7.1,9,4.5,14L149.6,132.7z"/>
					</g>
				</g>
				<g>
					<g>
						<path class="st1" d="M219,124.3v60.3c0,1.5,0.9,2.9,2.9,4.1c3.8,2.2,10.1,2.2,13.9,0c1.9-1.1,2.9-2.5,2.9-4v-60.3L219,124.3z"
							/>
						<path class="st4" d="M235.7,120.3c-1.5-0.9-3.3-1.4-5.4-1.6c-4.3-0.4-8.3,0.8-10.3,3c-2,2.2-1.2,4.8,1.8,6.6
							c2.3,1.3,5.3,1.9,8.5,1.6c3.2-0.3,5.7-1.4,7.2-3C239.5,124.6,238.8,122,235.7,120.3z"/>
					</g>
					<g>
						<path class="st1" d="M201,143.2v51.8c0,1.5,0.9,2.9,2.9,4.1c3.8,2.2,10.1,2.2,13.9,0c1.9-1.1,2.9-2.5,2.9-4v-51.8L201,143.2z"
							/>
						<path class="st4" d="M217.8,139.1c-1.5-0.9-3.3-1.4-5.4-1.6c-4.3-0.4-8.3,0.8-10.3,3c-2,2.2-1.2,4.8,1.8,6.6
							c2.3,1.3,5.3,1.9,8.5,1.6c3.2-0.3,5.7-1.4,7.2-3C221.6,143.5,220.9,140.9,217.8,139.1z"/>
					</g>
					<g>
						<path class="st3" d="M183.1,161.7v43.6c0,1.5,0.9,2.9,2.9,4.1c3.8,2.2,10.1,2.2,13.9,0c1.9-1.1,2.9-2.5,2.9-4v-43.6
							L183.1,161.7z"/>
						<path class="st21" d="M199.9,157.7c-1.5-0.9-3.3-1.4-5.4-1.6c-4.3-0.4-8.3,0.8-10.3,3c-2,2.2-1.2,4.8,1.8,6.6
							c2.3,1.3,5.3,1.9,8.5,1.6c3.2-0.3,5.7-1.4,7.2-3C203.7,162.1,202.9,159.5,199.9,157.7z"/>
					</g>
					<g>
						<path class="st3" d="M164.9,183.3v32.5c0,1.5,0.9,2.9,2.9,4.1c3.8,2.2,10.1,2.2,13.9,0c1.9-1.1,2.9-2.5,2.9-4v-32.5
							L164.9,183.3z"/>
						<path class="st21" d="M181.7,179.2c-1.5-0.9-3.3-1.4-5.4-1.6c-4.3-0.4-8.3,0.8-10.3,3c-2,2.2-1.2,4.8,1.8,6.6
							c2.3,1.3,5.3,1.9,8.5,1.6c3.2-0.3,5.7-1.4,7.2-3C185.5,183.6,184.7,181,181.7,179.2z"/>
					</g>
					<g>
						<path class="st18" d="M146.7,203.6v22.7c0,1.5,0.9,2.9,2.9,4.1c3.8,2.2,10.1,2.2,13.9,0c1.9-1.1,2.9-2.5,2.9-4v-22.7
							L146.7,203.6z"/>
						<path class="st0" d="M163.5,199.6c-1.5-0.9-3.3-1.4-5.4-1.6c-4.3-0.4-8.3,0.8-10.3,3c-2,2.2-1.2,4.8,1.8,6.6
							c2.3,1.3,5.3,1.9,8.5,1.6c3.2-0.3,5.7-1.4,7.2-3C167.3,203.9,166.5,201.3,163.5,199.6z"/>
					</g>
				</g>
			</g>
		</g>
	</g>
	<g>
		<g>
			<path class="st0" d="M150.5,7.1c0,0.1-0.1,0.2-0.2,0.2c-0.1,0-0.2-0.1-0.2-0.2"/>
		</g>
		<path class="st0" d="M149.2,7.7c0,0.7,0.5,0.9,1,0.6c0.6-0.3,1-1.1,1-1.8s-0.5-0.9-1-0.6C149.6,6.2,149.2,7.1,149.2,7.7z"/>
	</g>
	<g>
		<g>
			<g>
				<path class="st0" d="M210.2,81.2"/>
			</g>
		</g>
	</g>
	<g>
		<g>
			<linearGradient id="SVGID_4_" gradientUnits="userSpaceOnUse" x1="31.1283" y1="209.2697" x2="62.8861" y2="209.2697">
				<stop  offset="0" style="stop-color:#E48464"/>
				<stop  offset="0.9008" style="stop-color:#F18E6D"/>
				<stop  offset="1" style="stop-color:#F38F6E"/>
			</linearGradient>
			<path class="st22" d="M56.8,199.5l-13.3-0.1l-12.3-0.1V210c-0.1,5,6.1,7.9,11.4,8.8c0,0,0.9,0.2,0.9,0.2c4.6,0.6,9.5,0,13.3-1.7
				c0.9-0.4,1.7-0.8,2.5-1.4c2.4-1.7,3.5-3.7,3.6-5.7v-10.7L56.8,199.5z"/>
			<path class="st21" d="M58.2,192.8c-8.5-4.9-23.1-2.8-26.5,3.9c-1,2-0.9,3.8,0.3,5.7c0.8,1.4,2.1,2.5,3.7,3.5
				c1.8,1.1,4.1,1.8,6.8,2.3c5.1,0.9,10,0.3,14.2-1.5c2.8-1.2,4.6-2.7,5.5-4.7C64,198.6,62.2,195.1,58.2,192.8z"/>
		</g>
	</g>
	<g>
		<g>
			<path class="st23" d="M248.5,206.8c5.8-2.7,10.5-4.3,10.5-4.3s2.1-6.3,3.6-9.7c0.7,0.7,4.2,4.4,4.2,4.4c-1.3,3.6-3.2,6.9-4.2,8.4
				c-0.4,0.6-0.9,1-1.6,1.2c-3.1,1-10.7,2.8-12.1,3.1C247,210.6,246.8,207.6,248.5,206.8z"/>
			<path class="st24" d="M258.4,199.6c-0.2,0.9,7.2,4.2,7.9,2.2c1-3.2,3.9-12.4-1.4-12.6C261.9,189.2,259,196.7,258.4,199.6z"/>
			<g id="_x31_5_2_">
				<g>
					<g>
						<path class="st18" d="M259.5,257.1c0.6-0.6,1.9-1.5,3.2-2.3c0.8,0,1.8-0.1,2.7-0.2c1.7-0.2,3.8-0.6,5.2-1.7
							c0.1,0.3,0.1,0.7,0.1,1c0,0.7,0,1.1-0.7,1.6c-3.9,2.7-4.4,3.1-5.1,3.5c-0.8,0.5-1.9,1.1-4.1,0.7c-1.3-0.4-1.4-0.9-1.4-1.3
							C259.4,258.1,259.3,257.3,259.5,257.1z"/>
						<path class="st25" d="M259.7,256.6c0.7-0.6,2.7-2.2,3.8-3.1c0.6-0.5,1.1-0.9,1.4-1.6c0-0.1,0-0.1,0.1-0.1
							c0.4-1.1,3.4-1.5,4.9-0.9c0.7,0.3,0.9,1.4,0.9,2.4c0,0.7,0,1-0.8,1.5c-3.9,2.7-4.9,3.3-5.6,3.7c-0.7,0.4-1.4,0.7-3,0.5
							c-0.5-0.1-1.1-0.3-1.5-0.7C259.3,257.9,259.1,257.1,259.7,256.6z"/>
					</g>
					<g>
						<path class="st18" d="M282.3,273.6c-1.5,1.2-5.1,1.6-6-0.5c-0.4-1,1.2-7.2,1.3-9c0-0.5,0.1-1.4,0.1-1.4
							c0.1-0.2,0.7-0.3,0.9-0.4c0.9-0.4,2.4,0.1,3.4,0.1c0.5,0,0.7,3.3,0.7,3.6C282.9,268,283.4,272.7,282.3,273.6z"/>
						<path class="st25" d="M282.3,272.6c-1.5,1.2-5.1,1.6-6-0.5c-0.4-1,1-7.2,1.2-9c0-0.5,0.1-1.4,0.1-1.4c0.1-0.2,0.8-0.3,1-0.4
							c0.9-0.4,2.4,0.1,3.4,0.1c0.5,0,0.7,3.3,0.7,3.6C283,267,283.5,271.6,282.3,272.6z"/>
					</g>
					<path class="st26" d="M277,216.5c3.8,1.7,2.6,14.7,2.6,20.4c0,1.1,0,2.2,0.1,3.2c0.2,1.9,0.7,3.7,1.4,5.5
						c1.3,3.4,2,13.2,1.9,16.8c-0.1,2.2-6,1.7-6,0.5c-1.3-8.9-2.5-10.4-3.6-15.5c-0.2-0.9-0.3-1.8-0.6-2.6c-0.2-0.8-0.6-1.5-0.8-2.3
						c-0.5-1.6-0.7-3.1-1-4.7c-0.5-3.5-0.7-5.9-0.9-8.9l-0.5,9.2c0.3,1.1,0.5,2.7,0.7,3.8c0.3,2-0.1,4.4,0,6.5
						c0.1,1.7,0.3,3,0.3,3.3c-0.1,1.4-5.4,2.3-6.2,0.4c-0.3-4.7-0.7-5.5-1.5-10.8c-0.1-0.9-0.3-2.4-0.4-3.3c0-1.5-0.8-2.9-1.1-4.4
						c-0.8-4.2-1.2-17.8,1-18.3C266.1,214.4,273.7,215.1,277,216.5z"/>
				</g>
				<path class="st24" d="M261.2,217.4c0.3-4.1,1.5-7.8,1-13.9c-0.3-3.6-2.1-10.8,1-13.2c2.1-1.6,3.6-0.7,5.7-0.3
					c5.3,1,9.6,3,10.3,4.4c1.8,3.1-0.3,9.6-1.2,17c-0.1,0.7-0.1,1.4,0,2.1c0.1,1.4,0.3,3.7,0.8,5.7
					C279.5,222.3,260.8,222.9,261.2,217.4z"/>
				<g>
					<g>
						<g>
							<path class="st27" d="M266.8,189.2c2.3-0.3,4.6-1.3,6.6-2.2c-0.7,1.5-0.5,3.5-0.5,4.4c0,1.2-1.4,2.7-3.4,2.7
								c-2.5,0-3.3-1-3-2.2C266.8,191.1,266.8,190.2,266.8,189.2z"/>
						</g>
					</g>
				</g>
			</g>
			<path class="st23" d="M255.6,212.3c0.3-0.1,0.6,0,0.8-0.1c0.5,0,4.4-0.3,4.2-0.5c-0.6-0.1-1.6-0.5-1.8-1.1c0-0.1,0-0.3,0.1-0.4
				c0.1-0.1,0.3,0,0.5,0c1.2,0.5,2.7,0.2,4,0.7c0.4,0.2,0.7,0.3,1,0.4c3.2-0.7,10.5-2.2,10.5-2.2s-0.1-9.9,0.3-12.6
				c0.5-3.6,3.5-3.3,4-2.6c3.5,4.8,1.3,14.8,0.6,17.3c-0.7,2.5-13.6,3.1-15.2,3.3c-0.2,0-0.6,0.3-0.8,0.4c-0.2,0.1-0.5,0.2-0.7,0.3
				c-0.4,0.1-2.2,0.4-2.5,0.2c-0.8-0.4-1.7-2.2-1.7-2.2c-0.2-0.1-2.4-0.1-2.8-0.2c-0.2-0.1-0.4-0.1-0.5-0.3
				C255.2,212.5,255.4,212.4,255.6,212.3z"/>
			<g class="st12">
				<path class="st24" d="M254.7,215.4l-5.9-9.5c-0.1-0.1-0.3-0.3-0.5-0.5c-0.1-0.1-0.2-0.2-0.3-0.2l-8.2-4.8
					c-0.2-0.1-0.3-0.1-0.3-0.1l-0.2,0.3c0,0,0.1,0,0.3,0.1c0,0,8.3,4.8,8.3,4.8c0.1,0.1,0.2,0.1,0.3,0.2c0.2,0.2,0.4,0.4,0.5,0.5
					l5.9,9.5c0.1,0.1,0.1,0.2,0,0.2l0.2-0.3C254.8,215.5,254.8,215.5,254.7,215.4z"/>
				<path class="st28" d="M239.6,200.7l8.2,4.8c0.3,0.2,0.7,0.5,0.8,0.7l5.9,9.5c0.1,0.2,0,0.3-0.3,0.1L246,211
					c-0.3-0.2-0.7-0.5-0.8-0.7l-5.9-9.5C239.1,200.6,239.3,200.5,239.6,200.7z"/>
			</g>
			<path class="st23" d="M242.8,208.5c0.3,0.9,0.9,1.7,1.7,2.3c0.8,0.5,1.8,0.8,2.7,0.8c0,0,0.1,0,0.1,0c0,0,0.1-0.1,0.1-0.1
				c0-0.3-0.1-0.7-0.2-1c-0.4-0.9-0.9-1.8-1.7-2.5c-0.6-0.6-1.3-1-2.1-1.2c-0.1,0-0.4-0.2-0.5-0.1c-0.1,0.1-0.1,0.5-0.2,0.6
				C242.6,207.6,242.6,208.1,242.8,208.5z"/>
			<path class="st24" d="M273.8,205.3c0.2,0.9,8.3,1.2,8.1-0.8c-0.2-3.3-0.9-12.9-5.9-11.2C273.2,194.3,273.3,202.4,273.8,205.3z"/>
			<g>
				<path class="st23" d="M264.1,184.4c0-0.8,0.1-1.6,0.7-2c1-0.7,3.3-1.8,7.2,0.3c0.6,0.3,0.9,0.9,1.3,1.4c0.4,0.6,0.5,1,0.4,1.6
					c-0.1,1.3,0.1,1.8-1.8,3.9c-1.5,1.8-3.7,3.2-4.2,3.4c-0.6,0.3-1.3,0.4-1.9,0.2c-0.6-0.2-1.2-0.7-1.3-2.1
					C264.4,190.2,264.2,187.2,264.1,184.4z"/>
				<path class="st26" d="M271.2,186.7c-0.2,0.4-1,0.5-1.2-0.4c-0.3-1.1-1.3-1.3-2.1-1.4c-1.3,0-2.4-0.3-3.3-0.8
					c-0.2-0.1-0.3-0.2-0.5-0.4c0,0-0.4-0.5-0.1-1.7c0.2-0.6,1.2-3.1,3.8-3.8c1.2-0.3,2.6-0.2,3.8,0.2c4.7,1.5,3.2,7.4,2.6,8.5
					c-0.4,0.8-1.3,1.8-1.8,2.2c0.3-0.9,1.3-2.6,0.4-3.2c-0.3-0.2-0.8-0.2-1.1,0C271.4,186.2,271.3,186.4,271.2,186.7z"/>
			</g>
		</g>
	</g>
	<g>
		<g>
			<g>
				<g>
					<path class="st28" d="M73.1,232.9c-0.2,0.2-0.5,1.4-0.1,1.7c0.9,0.9,1.3,1.2,2.3,2.3c0.7,0.7,1.6,2.1,2.4,2.7
						c0.8,0.6,2.2,1.5,3.3,1.6c1.3,0.2,2.5-0.1,2.9-1.4c0.3-0.8-0.3-1.6-0.3-1.7c-0.6-0.6-3.2-1.4-4.4-2.5c-1.3-1.1-2.6-2.1-3.8-3.2
						C74.7,231.9,73.2,232.7,73.1,232.9z"/>
					<path class="st29" d="M73.4,233.6c-0.6-0.8,0.1-1.5,0.4-2.2c0.2-0.4,0.3-1.2,0.8-1.5c0.6-0.3,1.7,0.3,2.3,0.5
						c0.5,0.1,1.3,0.3,1.6,0.7c0.4,0.4,0.2,1.1,0.5,1.5c0.6,1.2,1.8,2,2.7,2.9c0.8,0.8,1.8,1.8,2.1,3c0.2,1-0.7,1.9-1.7,1.8
						c-1.6-0.1-3.2-1.2-4.4-2.2c-0.8-0.7-1.4-1.5-2.1-2.3C75,235,74.1,234.5,73.4,233.6z"/>
				</g>
				<g>
					<path class="st28" d="M81.3,233.6c0.4,0.6,1.1,1.1,1.6,1.2c2.9,0.4,6.6,0.7,8.2-0.6c1.4-1.2,2.2-3,1.7-4
						c-0.2-0.3-0.5-0.5-0.8-0.7c-0.7-0.4-1.5-0.4-2.2-0.1c-0.8,0.3-1.8,0.8-2.8,0.9c-1.6,0.1-3,1-4.5,1.5
						C81.7,232,81.2,233.4,81.3,233.6z"/>
					<path class="st29" d="M82.5,234.3c-1.5-0.4-1.2-0.9-1.8-1.3c-0.7-0.6-1.5-1.2-1.5-1.6c0-0.2,0-0.4,0-0.6c0.1-0.6,0.5-1,0.9-1.4
						c0.6-0.6,1.1-1,2-1.3c0.6-0.2,0.7,0.3,1.7,0.5c1.1,0.3,5.9-0.1,7.8,0.7c0.6,0.2,0.8,1,0.6,1.7c-0.2,0.8-0.7,1.7-1.3,2.3
						C89.1,235.1,83.1,234.4,82.5,234.3z"/>
				</g>
				<path class="st26" d="M84.1,211.4c-1.3-1.1-16.3-0.4-17.5,0.7c-0.5,0.6-1.1,5.9-1.6,6.6c1.7,1.5,0.8-0.2,2.5,1.3l9.7-0.6
					c-0.3,0.6-2,5.2-3.1,11c-0.5,1.4,4.4,3.3,5.2,2C81.1,228.9,87,213.9,84.1,211.4z"/>
				<path class="st26" d="M83.2,228.2c-1.2-1-11.1-9.1-12.1-9.5c-1-0.5-5.6-3.7-6.8-3.7c0.4-2,1-5.6,0.5-7.8
					c-4.1,0.1-9.8,4.6-9.8,4.6c-0.5,2.8-0.3,4.7,0.2,6.9c0.7,3.1,3.4,5.4,6.6,5.8c2.9,0.3,6.1,0.9,6.1,0.9c0.3,0,6.4,4.6,12.3,7.2
					C81.4,233.3,84.2,229.1,83.2,228.2z"/>
			</g>
			<g>
				<path class="st23" d="M66,189.3c0,0.5,0,1.1,0.1,1.6c0.3,3,1.3,8.1,2.4,10.9c1.9,0.3,3.5-0.2,4.1-2.5c-0.6-3.3-1-8.1-2.2-11.1
					C68.9,188.6,67.5,189,66,189.3z"/>
				<path class="st24" d="M65.8,197.1c0,0,3.2,1.7,7-1c-0.1-2.8-1.9-10.8-5.1-10.2C63.7,186.7,64.6,191.8,65.8,197.1z"/>
				<path class="st24" d="M70.5,195.3c0-1,0.4-4.5-0.5-7c-0.5-1.5-2.1-2.3-3.6-2c-2.2,0.4-3.7,0.8-6.2,2.2c-1.3,0.9-6.2,4.2-6.4,5.4
					c-0.1,0.8-0.6,1.5-0.5,2.3c0.2,3,1.3,9.4,1.4,18.5c1.4,2.3,6.9,2.4,9.5,1.8c4-1,5.3-2.6,5.6-5.2
					C69.9,211.2,70.6,198.7,70.5,195.3z"/>
				<g>
					<g class="st12">
						<path class="st24" d="M83.7,206.8l-0.3,0.3l-9,6l-1.3,0.5c0,0-5.6,0.3-5.6,0.3l0.1,0.3c0,0,0.1,0.1,0.2,0.1l5.4-0.3
							c0.3,0,0.9-0.2,1.3-0.5l9-6c0.2-0.1,0.3-0.3,0.3-0.3L83.7,206.8z"/>
						<path class="st29" d="M83.5,206.8l-5.4,0.3c-0.3,0-0.9,0.2-1.3,0.5l-9,6c-0.4,0.2-0.4,0.4,0,0.4l5.4-0.3
							c0.3,0,0.9-0.2,1.3-0.5l9-6C83.8,206.9,83.8,206.7,83.5,206.8z"/>
					</g>
					<path class="st23" d="M70.6,214.1c-0.5,0-0.9-0.1-1.3-0.5c-0.2-0.2-0.4-0.4-0.4-0.5c0.2-0.2,0.6-0.2,0.9-0.3
						c0.2-0.1,1.4-0.4,1.1-0.8c-0.1-0.1-0.3-0.1-0.5,0c-0.3,0-0.6,0.1-0.9,0.1c-0.3,0-0.6,0.1-1,0.1c-0.7,0.1-1.7,0.4-1.8,0.4
						l-6.5-4.1c-0.5-0.3-0.8-0.8-0.8-1.3c-0.3-3.4-0.2-11.7-1-13.2c-1-1.8-5.8-1.8-5.1,2.9c0.5,3.2,1.7,9.4,2.6,13.2
						c0.1,0.5,0.4,0.9,0.9,1.1c1.9,1,7.1,3.4,9.4,4.1c0.5,0.3,1.2,0.5,1.6,0.7c0.3,0.1,0.7,0.1,0.9,0c0.2-0.1,0.3-0.2,0.5-0.2
						c0.2,0,0.4,0,0.6-0.1c0.4-0.1,0.6-0.3,0.9-0.6c0.2-0.2,0.4-0.3,0.6-0.4c0.2-0.1,0.6-0.5,0.8-0.7L70.6,214.1z"/>
				</g>
				<path class="st23" d="M81.2,206.4c0.3-0.2,0.3-0.4,0.2-0.6c0-0.1-0.3-1.4-0.9-1.7c-0.2-0.1-3.3,0.2-3.3,0.2s-4.5-4.6-4.6-5
					l-2.2,2l-0.1,1.2c0.3,0.1,5.6,4.1,5.6,4.1c0.3,0.1,0.4,0.6,0.5,1c0.1,0.4,0,0.9,0.4,0.8c0.3,0,0.5-0.3,0.5-0.5
					c0.1-0.4,0-0.8,0.1-1.2c0-0.1,0-0.1,0.1-0.2c0.2-0.3,0.5-0.2,0.7-0.1c0.1,0,0.4,0.1,0.5,0.2c0.3,0.3,0.4,1.2,0.7,1.4
					c0.1,0.1,0.5,0.1,0.5-0.2c0.1,0.3,0.2,0.6,0.2,0.6c0.2,0.3,0.6,0.1,0.7-0.2c0.2,0.1,0.5-0.1,0.6-0.3c0.2-0.3,0.1-0.6,0-0.9
					C81.3,206.8,81.2,206.4,81.2,206.4z"/>
				<path class="st24" d="M53,202.8c0,0,2.9,2.2,7,0c0.3-2.8-0.2-11-3.5-10.8C52.5,192.2,52.7,197.3,53,202.8z"/>
				<g>
					<path class="st23" d="M65.8,186.7c-1,0.1-3,0.4-4.5,1.3c-1.8,1.1-2.8,1.8-2.4,2.3c1.4,2.1,3.9,4.3,6.3,3.2l0.1,0
						c1.7-0.8,2.6-2.8,1.9-4.5C66.8,187.9,66.3,187.4,65.8,186.7z"/>
					<path class="st27" d="M62.6,184.8l-2.4,4.8c0,0,0,0.7,0.9,1.7c1.4,1.6,2.8,1.7,3.6,1.6c0.5-0.1,1-0.5,1.1-1.1l0.1-0.5
						L62.6,184.8z"/>
					<path class="st23" d="M63.6,178.9c-2,0.9-3.3,2.4-2.6,6.3c0.6,2.9,3.2,5.8,5.6,7.2c0.6,0.4,2.3,0.7,2.7-0.6
						c0.4-1.1,1.3-4.4,1.1-7.1c-0.1-2.2-0.3-4.1-2.1-5.4C67.1,178.4,65.6,177.9,63.6,178.9z"/>
					<path class="st30" d="M64.4,186.3c0.3-0.6,0.2-1,0.8-1.4c1-0.6,4-1.8,5-1.5c0.1,0,0.1,0,0.1,0c0.2-0.2,0.4-0.6,0.3-0.9
						c-0.1-0.3-0.3-0.4-0.3-0.7c0-0.2,0.1-0.4,0.1-0.6c0-0.3-0.3-0.6-0.5-0.9c-0.2-0.4,0-0.9-0.2-1.3c-0.2-0.3-0.7-0.3-1-0.6
						c-0.5-0.4-0.2-0.5-1-0.4c-0.4,0-0.5-0.3-0.8-0.4c-0.3-0.1-0.6,0-0.9-0.1c-0.3-0.1-0.6-0.3-0.9-0.3c-0.4,0-0.7,0.3-1,0.4
						c-0.4,0.1-1,0-1.4,0.3c-0.3,0.2-0.5,0.6-0.9,0.8c-0.2,0.1-0.3,0.1-0.5,0.1c-0.4,0.2-0.4,0.7-0.6,1.1c-0.2,0.3-0.6,0.6-0.7,1
						c-0.2,0.5,0.1,1,0,1.5c-0.1,0.2-0.2,0.3-0.2,0.5c-0.1,0.4,0.2,0.7,0.3,1.1c0.2,0.8-0.3,1,0.6,2.4c0.1,0.2,0.8,1.4,1.1,1.4
						c0.3-0.1,0-1.3,0-1.7c0.1-0.6,0.7-0.9,1.1-0.5c0.3,0.3,0.3,0.9,0.8,1.1C64.2,186.6,64.4,186.5,64.4,186.3z"/>
				</g>
			</g>
		</g>
	</g>
</g>
</svg>
