<?xml version="1.0" encoding="utf-8"?>
<!-- Generator: Adobe Illustrator 19.0.0, SVG Export Plug-In . SVG Version: 6.00 Build 0)  -->
<svg version="1.1" id="_x30_" xmlns="http://www.w3.org/2000/svg" xmlns:xlink="http://www.w3.org/1999/xlink" x="0px" y="0px"
	 viewBox="0 0 76 68.6" style="enable-background:new 0 0 76 68.6;" xml:space="preserve">
<style type="text/css">
	.st0{fill:url(#SVGID_1_);}
	.st1{fill:url(#SVGID_2_);}
	.st2{fill:#3D3838;}
	.st3{fill:#191414;}
	.st4{fill:#272424;}
	.st5{opacity:0.1;fill:#CFD5D5;}
	.st6{opacity:0.2;fill:#CFD5D5;}
	.st7{clip-path:url(#SVGID_4_);fill:#9E6512;}
	.st8{opacity:0.95;fill:#F8F6FA;}
	.st9{fill:#788EFF;}
	.st10{opacity:0.5;fill:#4B4444;}
	.st11{opacity:0.6;fill:#C0B9C8;}
	.st12{fill:#DFD7E8;}
	.st13{fill:url(#SVGID_5_);}
	.st14{fill:#FFB92C;}
	.st15{fill:#F8F6FA;}
	.st16{fill:url(#SVGID_6_);}
	.st17{fill:#7A47C8;}
	.st18{fill:url(#SVGID_7_);}
	.st19{fill:#ED3E46;}
	.st20{fill:url(#SVGID_8_);}
	.st21{fill:#CB7BFF;}
	.st22{fill:url(#SVGID_9_);}
	.st23{fill:#47C6AE;}
	.st24{fill:url(#SVGID_10_);}
	.st25{fill:#90BF1D;}
	.st26{fill:url(#SVGID_11_);}
	.st27{fill:url(#SVGID_12_);}
	.st28{fill:url(#SVGID_13_);}
	.st29{fill:url(#SVGID_14_);}
	.st30{fill:url(#SVGID_15_);}
	.st31{fill:url(#SVGID_16_);}
	.st32{fill:#FFFFFF;}
	.st33{fill:#BCB9B5;}
</style>
<g id="_x33__1_">
	<g>
		<linearGradient id="SVGID_1_" gradientUnits="userSpaceOnUse" x1="1.5263" y1="52.1685" x2="74.5139" y2="52.1685">
			<stop  offset="0" style="stop-color:#242121"/>
			<stop  offset="1" style="stop-color:#322E2E"/>
		</linearGradient>
		<path class="st0" d="M74.5,51.2l-73-14l0,2c0,0.8,0.5,1.6,1.6,2.3l43.1,24.9c2.2,1.3,5.7,1.3,7.8,0l18.7-10.8
			c1.1-0.6,1.6-1.5,1.6-2.3L74.5,51.2z"/>
		<linearGradient id="SVGID_2_" gradientUnits="userSpaceOnUse" x1="40.2514" y1="23.9238" x2="33.7522" y2="80.7922">
			<stop  offset="0" style="stop-color:#5917FF"/>
			<stop  offset="0.1588" style="stop-color:#6D22F8"/>
			<stop  offset="0.4847" style="stop-color:#A13DE7"/>
			<stop  offset="0.9459" style="stop-color:#F569CA"/>
			<stop  offset="1" style="stop-color:#FF6EC7"/>
		</linearGradient>
		<path class="st1" d="M72.3,53.6L54.2,64c-1.5,0.8-3.2,1.2-4.9,0.9c-0.9-0.1-1.7-0.3-1.9-0.4L2.9,38.8c-0.8-0.5-1.8-1.6-0.6-3
			l19.1-11.2c1.5-0.9,3.6-1.4,5.3-1.2c0.7,0.1,1.7,0.3,2.1,0.5l44.4,25.5C75,50.4,74.1,52.6,72.3,53.6z"/>
		<path class="st2" d="M72.9,48.9L29.8,24c-2.2-1.3-5.7-1.3-7.8,0L3.2,34.9c-2.2,1.3-2.2,3.3,0,4.5l43.1,24.9c2.2,1.3,5.7,1.3,7.8,0
			l18.7-10.8C75,52.2,75.1,50.2,72.9,48.9z M46.6,63.7L2.8,38.4c-1-0.6-1-2.1,0-2.7L7.6,33c0.1,0,0.2-0.1,0.3-0.1l3.7-0.4
			c0.1,0,0.1,0,0.2-0.1l5.8-3.4c0.1,0,0.2-0.1,0.2-0.2l1.4-2.5c0-0.1,0.1-0.1,0.1-0.1l3-1.7c2.2-1.3,4.9-1.3,7.1,0l43.5,25.1
			c1.2,0.7,1.2,2.4,0,3.1L53.8,63.7C51.5,65,48.8,65,46.6,63.7z"/>
		<path class="st3" d="M15.9,28.3L12,30.5c-0.2,0.1-0.2,0.3-0.1,0.4c0.2,0.1,0.5,0.1,0.7,0l3.9-2.3c0.2-0.1,0.2-0.3,0.1-0.4
			C16.4,28.2,16.1,28.2,15.9,28.3z"/>
		<g>
			<g>
				<path class="st2" d="M10.9,44.7c0-0.1-0.1-0.2-0.2-0.3c-0.1-0.1-0.2-0.2-0.3-0.3l-3.6-2.1c-0.1-0.1-0.3-0.1-0.3,0l-0.4,0.2
					c0.1-0.1,0.2,0,0.3,0l3.6,2.1c0.1,0.1,0.2,0.1,0.3,0.3c0.1,0.1,0.1,0.2,0.2,0.3c0,0.1,0,0.2,0,0.3v0.2c0,0.2-0.1,0.3-0.1,0.3
					l0.4-0.2c0.1-0.1,0.1-0.2,0.1-0.3V45C10.9,44.9,10.9,44.8,10.9,44.7z"/>
				<path class="st4" d="M10.1,44.4l-3.6-2.1c-0.3-0.2-0.5,0-0.5,0.3v0.2c0,0.3,0.2,0.7,0.5,0.8l3.6,2.1c0.3,0.2,0.5,0,0.5-0.3v-0.2
					C10.6,44.9,10.3,44.5,10.1,44.4z"/>
			</g>
			<g>
				<path class="st2" d="M16.3,47.9c0-0.1-0.1-0.2-0.2-0.3c-0.1-0.1-0.2-0.2-0.3-0.3l-3.6-2.1c-0.1-0.1-0.3-0.1-0.3,0l-0.4,0.2
					c0.1-0.1,0.2,0,0.3,0l3.6,2.1c0.1,0.1,0.2,0.1,0.3,0.3c0.1,0.1,0.1,0.2,0.2,0.3c0,0.1,0,0.2,0,0.3v0.2c0,0.2-0.1,0.3-0.1,0.3
					l0.4-0.2c0.1-0.1,0.1-0.2,0.1-0.3v-0.2C16.4,48.1,16.4,48,16.3,47.9z"/>
				<path class="st4" d="M15.5,47.5L12,45.4c-0.3-0.2-0.5,0-0.5,0.3v0.2c0,0.3,0.2,0.7,0.5,0.8l3.6,2.1c0.3,0.2,0.5,0,0.5-0.3v-0.2
					C16,48,15.8,47.7,15.5,47.5z"/>
			</g>
		</g>
		<g>
			<g>
				<path class="st3" d="M11.3,31.9c-0.3,0.2-0.7,0.2-1,0c-0.3-0.2-0.3-0.4,0-0.6c0.3-0.2,0.7-0.2,1,0
					C11.5,31.5,11.5,31.8,11.3,31.9z"/>
			</g>
			<g>
				<path class="st5" d="M10.4,31.9c0.2,0.1,0.5,0.1,0.7,0c0.2-0.1,0.2-0.3,0-0.4c-0.2-0.1-0.5-0.1-0.7,0
					C10.2,31.6,10.3,31.7,10.4,31.9z"/>
				<path class="st5" d="M10.6,31.7c0.1,0.1,0.3,0.1,0.4,0c0.1-0.1,0.1-0.2,0-0.2c-0.1-0.1-0.3-0.1-0.4,0
					C10.5,31.6,10.5,31.7,10.6,31.7z"/>
				<path class="st6" d="M10.7,31.7c0,0,0.1,0,0.1,0s0-0.1,0-0.1C10.8,31.6,10.8,31.6,10.7,31.7C10.7,31.6,10.7,31.6,10.7,31.7z"/>
			</g>
		</g>
		<g>
			<g>
				<defs>
					<path id="SVGID_3_" d="M64.7,59.7l-2.5,1.5c-0.3,0.2-0.5,0.1-0.5-0.2c0-0.3,0.2-0.7,0.5-0.8l2.5-1.5c0.3-0.2,0.5-0.1,0.5,0.2
						C65.3,59.2,65,59.6,64.7,59.7z"/>
				</defs>
				<use xlink:href="#SVGID_3_"  style="overflow:visible;fill:#161515;"/>
				<clipPath id="SVGID_4_">
					<use xlink:href="#SVGID_3_"  style="overflow:visible;"/>
				</clipPath>
				<path class="st7" d="M61.2,60.1l-0.4,0.2l1.3,0.7l0.4-0.2L61.2,60.1z M62,59.7l-0.4,0.2l1.3,0.7l0.4-0.2L62,59.7z M62.8,59.2
					l-0.4,0.2l1.3,0.7L64,60L62.8,59.2z M63.6,58.8L63.2,59l1.3,0.7l0.4-0.2L63.6,58.8z"/>
			</g>
		</g>
	</g>
	<g>
		<polygon class="st8" points="75.4,44 50.1,58.6 3.8,31.8 29,17.2 		"/>
		<polygon class="st9" points="29.2,17.3 4,31.9 0.8,30.1 26.1,15.5 		"/>
	</g>
	<path class="st10" d="M74.4,51.7c0,0-0.1,0.3-0.5,0.8c-0.2,0.2-0.5,0.5-0.8,0.7c-0.4,0.2-0.8,0.5-1.3,0.8c-2,1.2-4.9,2.8-8.3,4.8
		c-1.7,1-3.6,2.1-5.6,3.2c-1,0.6-2,1.1-3,1.7c-0.5,0.3-1,0.6-1.6,0.8c-0.6,0.2-1.1,0.4-1.8,0.5c-1.2,0.2-2.5,0.1-3.7-0.2
		c-1.2-0.3-2.3-1.1-3.4-1.7c-2.3-1.3-4.5-2.6-6.8-4c-9.2-5.3-18.3-10.5-25.2-14.5c-3.4-2-6.3-3.6-8.3-4.8c-0.5-0.3-1-0.5-1.3-0.8
		c-0.4-0.3-0.6-0.5-0.8-0.8c-0.2-0.2-0.3-0.5-0.3-0.6c-0.1-0.1-0.1-0.2-0.1-0.2c0,0,0,0.1,0,0.2c0,0.2,0.1,0.4,0.3,0.7
		c0.2,0.3,0.4,0.6,0.8,0.8C3,39.5,3.5,39.7,4,40c2,1.2,4.9,2.8,8.3,4.8c6.9,4,16,9.3,25.2,14.6c2.3,1.3,4.6,2.6,6.8,3.9
		c1.1,0.6,2.2,1.4,3.5,1.7c1.3,0.3,2.6,0.4,3.8,0.2c0.6-0.1,1.2-0.2,1.8-0.5c0.6-0.2,1.1-0.6,1.6-0.9c1-0.6,2-1.2,3-1.8
		c2-1.1,3.8-2.2,5.5-3.2c3.4-2,6.3-3.6,8.3-4.8c0.5-0.3,1-0.5,1.3-0.8c0.4-0.3,0.7-0.5,0.8-0.8c0.2-0.3,0.3-0.5,0.3-0.6
		C74.4,51.8,74.5,51.7,74.4,51.7C74.5,51.7,74.5,51.7,74.4,51.7z"/>
	<g>
		<path class="st11" d="M46.5,48.7L42,51.4c-0.6,0.4-1.6,0.4-2.2,0l-4.6-2.6c-0.6-0.4-0.6-0.9,0-1.3l4.6-2.6c0.6-0.4,1.6-0.4,2.2,0
			l4.6,2.6C47.1,47.8,47.1,48.4,46.5,48.7z M19.5,31.8l-4.6-2.6c-0.6-0.4-1.6-0.4-2.2,0l-4.6,2.6c-0.6,0.4-0.6,0.9,0,1.3l4.6,2.6
			c0.6,0.4,1.6,0.4,2.2,0l4.6-2.6C20.1,32.8,20.1,32.2,19.5,31.8z M16.4,28.4L21,31c0.6,0.4,1.6,0.4,2.2,0l4.6-2.6
			c0.6-0.4,0.6-0.9,0-1.3l-4.6-2.6c-0.6-0.4-1.6-0.4-2.2,0l-4.6,2.6C15.8,27.4,15.8,28,16.4,28.4z M36.7,32.3l-4.6-2.6
			c-0.6-0.4-1.6-0.4-2.2,0l-4.6,2.6c-0.6,0.4-0.6,0.9,0,1.3l4.6,2.6c0.6,0.4,1.6,0.4,2.2,0l4.6-2.6C37.4,33.2,37.4,32.6,36.7,32.3z
			 M28.5,37l-4.6-2.6c-0.6-0.4-1.6-0.4-2.2,0L17.2,37c-0.6,0.4-0.6,0.9,0,1.3l4.6,2.6c0.6,0.4,1.6,0.4,2.2,0l4.6-2.6
			C29.1,38,29.1,37.4,28.5,37z M62.9,37.9l-4.6-2.6c-0.6-0.4-1.6-0.4-2.2,0l-4.5,2.6c-0.6,0.4-0.6,0.9,0,1.3l4.6,2.6
			c0.6,0.4,1.6,0.4,2.2,0l4.5-2.6C63.6,38.8,63.6,38.2,62.9,37.9z M24.6,23.6l4.6,2.6c0.6,0.4,1.6,0.4,2.2,0l4.5-2.6
			c0.6-0.4,0.6-0.9,0-1.3l-4.6-2.6c-0.6-0.4-1.6-0.4-2.2,0l-4.5,2.6C24,22.7,24,23.2,24.6,23.6z M37.5,42.2l-4.6-2.6
			c-0.6-0.4-1.6-0.4-2.2,0l-4.6,2.6c-0.6,0.4-0.6,0.9,0,1.3l4.6,2.6c0.6,0.4,1.6,0.4,2.2,0l4.6-2.6C38.2,43.2,38.1,42.6,37.5,42.2z
			 M34.4,38.8l4.6,2.6c0.6,0.4,1.6,0.4,2.2,0l4.6-2.6c0.6-0.4,0.6-0.9,0-1.3l-4.6-2.6c-0.6-0.4-1.6-0.4-2.2,0l-4.6,2.6
			C33.8,37.8,33.8,38.4,34.4,38.8z M42.6,34l4.6,2.6c0.6,0.4,1.6,0.4,2.2,0L54,34c0.6-0.4,0.6-0.9,0-1.3L49.4,30
			c-0.6-0.4-1.6-0.4-2.2,0l-4.5,2.6C42,33,42,33.6,42.6,34z M33.6,28.8l4.6,2.6c0.6,0.4,1.6,0.4,2.2,0l4.5-2.6
			c0.6-0.4,0.6-0.9,0-1.3l-4.6-2.6c-0.6-0.4-1.6-0.4-2.2,0l-4.5,2.6C33,27.8,33,28.4,33.6,28.8z M54.7,42.7L50.2,40
			c-0.6-0.4-1.6-0.4-2.2,0l-4.6,2.6c-0.6,0.4-0.6,0.9,0,1.3l4.6,2.6c0.6,0.4,1.6,0.4,2.2,0l4.6-2.6C55.4,43.6,55.4,43,54.7,42.7z"/>
		<g>
			<g>
				<path class="st12" d="M57.3,38.2c-0.1,0-0.1-0.1-0.1-0.1V11.2c0-0.1,0.1-0.1,0.1-0.1c0.1,0,0.1,0.1,0.1,0.1v26.9
					C57.4,38.2,57.3,38.2,57.3,38.2z"/>
			</g>
			<g>
				<path class="st12" d="M22.1,28c-0.1,0-0.1-0.1-0.1-0.1V14.8c0-0.1,0.1-0.1,0.1-0.1c0.1,0,0.1,0.1,0.1,0.1v13.1
					C22.2,27.9,22.1,28,22.1,28z"/>
			</g>
			<g>
				<path class="st12" d="M30.3,23.2c-0.1,0-0.1-0.1-0.1-0.1V6.2c0-0.1,0.1-0.1,0.1-0.1c0.1,0,0.1,0.1,0.1,0.1v16.9
					C30.4,23.2,30.4,23.2,30.3,23.2z"/>
			</g>
			<g>
				<path class="st12" d="M39.3,28.3c-0.1,0-0.1-0.1-0.1-0.1V11.4c0-0.1,0.1-0.1,0.1-0.1c0.1,0,0.1,0.1,0.1,0.1v16.9
					C39.5,28.3,39.4,28.3,39.3,28.3z"/>
			</g>
			<g>
				<path class="st12" d="M31.1,33.1C31,33.1,31,33,31,33v-6.8c0-0.1,0.1-0.1,0.1-0.1s0.1,0.1,0.1,0.1V33
					C31.2,33,31.2,33.1,31.1,33.1z"/>
			</g>
			<g>
				<path class="st12" d="M49,43.6c-0.1,0-0.1-0.1-0.1-0.1V28.2c0-0.1,0.1-0.1,0.1-0.1c0.1,0,0.1,0.1,0.1,0.1v15.3
					C49.1,43.5,49,43.6,49,43.6z"/>
			</g>
			<g>
				<path class="st12" d="M48.4,27.9c-0.1,0-0.1-0.1-0.1-0.1V15.9c0-0.1,0.1-0.1,0.1-0.1c0.1,0,0.1,0.1,0.1,0.1v11.9
					C48.5,27.8,48.4,27.9,48.4,27.9z"/>
			</g>
		</g>
		<g>
			<g>
				<linearGradient id="SVGID_5_" gradientUnits="userSpaceOnUse" x1="34.7022" y1="49.4608" x2="46.9939" y2="49.4608">
					<stop  offset="0" style="stop-color:#DFD7E8"/>
					<stop  offset="1" style="stop-color:#F2ECF3"/>
				</linearGradient>
				<path class="st13" d="M46.5,47.9L42,50.6c-0.6,0.4-1.6,0.4-2.2,0L35.2,48c-0.3-0.2-0.5-0.4-0.5-0.7l0,0.8c0,0.2,0.2,0.5,0.5,0.7
					l4.6,2.6c0.6,0.4,1.6,0.4,2.2,0l4.6-2.6c0.3-0.2,0.5-0.4,0.5-0.6l0-0.8C47,47.5,46.8,47.8,46.5,47.9z"/>
				<path class="st14" d="M46.5,46.7L41.9,44c-0.6-0.4-1.6-0.4-2.2,0l-4.6,2.6c-0.6,0.4-0.6,0.9,0,1.3l4.6,2.6
					c0.6,0.4,1.6,0.4,2.2,0l4.6-2.6C47.1,47.6,47.1,47,46.5,46.7z"/>
				<path class="st15" d="M41.9,46.7c-0.6-0.4-1.7-0.4-2.3,0c-0.6,0.4-0.6,1,0,1.3c0.6,0.4,1.7,0.4,2.3,0
					C42.6,47.6,42.6,47,41.9,46.7z"/>
				<path class="st15" d="M44.5,46.3l-2-1.2c-0.4-0.2-1.1-0.2-1.5,0l-0.8,0.5l-0.4-0.1c-0.2-0.1-0.5,0-0.7,0.1l-1.4,0.8
					c-0.2,0.1-0.2,0.3-0.1,0.4l0.2,0.2l-0.8,0.5c-0.4,0.2-0.4,0.6,0,0.9l2,1.2c0.4,0.2,1.1,0.2,1.5,0l3.9-2.3
					C45,47,44.9,46.6,44.5,46.3z M38.1,46.6l1.4-0.8l0.1,0l0.3,0.1l-1.6,1L38.1,46.6L38.1,46.6z M44.2,47l-3.9,2.3
					c-0.2,0.1-0.6,0.1-0.9,0l-2-1.2c-0.2-0.1-0.2-0.4,0-0.5l3.9-2.3c0.2-0.1,0.6-0.1,0.9,0l2,1.2C44.4,46.7,44.4,46.9,44.2,47z"/>
			</g>
			<g>
				<linearGradient id="SVGID_6_" gradientUnits="userSpaceOnUse" x1="7.699" y1="33.8703" x2="19.9918" y2="33.8703">
					<stop  offset="0" style="stop-color:#DFD7E8"/>
					<stop  offset="1" style="stop-color:#F2ECF3"/>
				</linearGradient>
				<path class="st16" d="M20,32.5l0-0.8c0,0.2-0.2,0.5-0.5,0.6L15,35c-0.6,0.4-1.6,0.4-2.2,0l-4.6-2.6c-0.3-0.2-0.5-0.4-0.5-0.7
					l0,0.8c0,0.2,0.2,0.5,0.5,0.7l4.6,2.6c0.6,0.4,1.6,0.4,2.2,0l4.6-2.6C19.8,32.9,20,32.7,20,32.5z"/>
				<path class="st17" d="M19.5,31.1l-4.6-2.6c-0.6-0.4-1.6-0.4-2.2,0l-4.6,2.6c-0.6,0.4-0.6,0.9,0,1.3l4.6,2.6
					c0.6,0.4,1.6,0.4,2.2,0l4.6-2.6C20.1,32,20.1,31.4,19.5,31.1z"/>
				<path class="st15" d="M16.8,31.2l-3.6-2.1c-0.1,0-0.1-0.1-0.2,0c0,0-0.1,0-0.1,0.1c0,0-2,2.1-2,2.1c-0.1,0.1,0,0.1,0,0.2
					l2.9,1.7c-0.2,0-0.4,0.1-0.6,0.2c-0.5,0.3-0.6,0.6-0.3,0.8c0.3,0.2,1,0.1,1.4-0.1c0.5-0.3,0.6-0.6,0.3-0.8l-2.8-1.6l1.7-1.8
					l2.4,1.4c-0.2,0-0.4,0.1-0.6,0.2c-0.5,0.3-0.6,0.6-0.2,0.8c0.3,0.2,1,0.1,1.4-0.1C17,31.8,17.1,31.4,16.8,31.2z"/>
			</g>
			<g>
				<linearGradient id="SVGID_7_" gradientUnits="userSpaceOnUse" x1="15.9117" y1="16.7598" x2="28.2029" y2="16.7598">
					<stop  offset="0" style="stop-color:#DFD7E8"/>
					<stop  offset="1" style="stop-color:#F2ECF3"/>
				</linearGradient>
				<path class="st18" d="M16.4,16l4.6,2.6c0.6,0.4,1.6,0.4,2.2,0l4.6-2.6c0.3-0.2,0.5-0.4,0.5-0.6l0-0.8c0,0.2-0.2,0.5-0.5,0.6
					l-4.6,2.6c-0.6,0.4-1.6,0.4-2.2,0l-4.6-2.6c-0.3-0.2-0.5-0.4-0.5-0.7l0,0.8C15.9,15.6,16.1,15.8,16.4,16z"/>
				<g>
					<path class="st19" d="M16.4,15.3l4.6,2.6c0.6,0.4,1.6,0.4,2.2,0l4.6-2.6c0.6-0.4,0.6-0.9,0-1.3l-4.6-2.6
						c-0.6-0.4-1.6-0.4-2.2,0L16.4,14C15.8,14.3,15.8,14.9,16.4,15.3z"/>
					<path class="st15" d="M24,13.4c-1.2-0.7-3-0.7-4.2,0c-1.2,0.7-1.1,1.8,0,2.4c1.2,0.7,3,0.7,4.2,0C25.2,15.1,25.2,14.1,24,13.4z
						 M22.7,15.6c-0.1,0.1-0.4,0.2-0.5,0.1l-2-1.2c-0.2-0.1-0.1-0.3,0.1-0.3l2.7-0.4c0.1,0,0.2,0,0.3,0c0.1,0,0.1,0.1,0.1,0.2
						L22.7,15.6z"/>
				</g>
			</g>
			<g>
				<linearGradient id="SVGID_8_" gradientUnits="userSpaceOnUse" x1="24.9132" y1="29.0802" x2="37.2045" y2="29.0802">
					<stop  offset="0" style="stop-color:#DFD7E8"/>
					<stop  offset="1" style="stop-color:#F2ECF3"/>
				</linearGradient>
				<path class="st20" d="M37.2,27.7l0-0.8c0,0.2-0.2,0.5-0.5,0.6l-4.6,2.6c-0.6,0.4-1.6,0.4-2.2,0l-4.6-2.6
					c-0.3-0.2-0.5-0.4-0.5-0.7l0,0.8c0,0.2,0.2,0.5,0.5,0.7L30,31c0.6,0.4,1.6,0.4,2.2,0l4.6-2.6C37,28.2,37.2,27.9,37.2,27.7z"/>
				<path class="st21" d="M36.7,26.3l-4.6-2.6c-0.6-0.4-1.6-0.4-2.2,0l-4.6,2.6c-0.6,0.4-0.6,0.9,0,1.3l4.6,2.6
					c0.6,0.4,1.6,0.4,2.2,0l4.6-2.6C37.4,27.2,37.4,26.6,36.7,26.3z"/>
				<path class="st15" d="M31.2,27.1c-0.2,0.1-0.6,0.1-0.8,0c-0.1-0.1-0.2-0.2-0.2-0.3l-2.1-0.3l0,0l0.1,0l2.1,0.3
					c0,0,0.1-0.1,0.1-0.1c0.1,0,0.2-0.1,0.3-0.1l0.2-0.9c0-0.1,0.1-0.1,0.2-0.1c0,0,0.1,0,0.1,0c0,0,0.1,0.1,0.1,0.1l-0.2,0.9
					c0.1,0,0.1,0,0.2,0.1C31.5,26.7,31.5,27,31.2,27.1z M29,25.9c0.1,0,0.2,0,0.2,0l0,0c0.1,0,0.1-0.1,0-0.1l-0.4-0.2
					c-0.1,0-0.2,0-0.2,0l0,0c-0.1,0-0.1,0.1,0,0.1L29,25.9z M32.7,27.8c-0.1,0-0.2,0-0.2,0l0,0c-0.1,0-0.1,0.1,0,0.1l0.4,0.2
					c0.1,0,0.2,0,0.2,0l0,0c0.1,0,0.1-0.1,0-0.1L32.7,27.8z M32.4,25.9c0.1,0,0.2,0,0.2,0l0.4-0.2c0.1,0,0.1-0.1,0-0.1l0,0
					c-0.1,0-0.2,0-0.2,0l-0.4,0.2C32.3,25.8,32.3,25.9,32.4,25.9L32.4,25.9z M29.2,27.8c-0.1,0-0.2,0-0.2,0L28.6,28
					c-0.1,0-0.1,0.1,0,0.1l0,0c0.1,0,0.2,0,0.2,0l0.4-0.2C29.3,27.9,29.3,27.8,29.2,27.8L29.2,27.8z M33.5,28.4
					c-1.5,0.9-3.9,0.9-5.3,0c-1.5-0.9-1.5-2.2,0-3.1c1.5-0.9,3.9-0.9,5.3,0C35,26.1,35,27.5,33.5,28.4z M33.2,25.4
					c-1.3-0.8-3.5-0.8-4.9,0c-1.3,0.8-1.3,2,0,2.8c1.3,0.8,3.5,0.8,4.8,0C34.6,27.5,34.6,26.2,33.2,25.4z"/>
			</g>
			<g>
				<linearGradient id="SVGID_9_" gradientUnits="userSpaceOnUse" x1="16.7006" y1="39.0673" x2="28.9933" y2="39.0673">
					<stop  offset="0" style="stop-color:#DFD7E8"/>
					<stop  offset="1" style="stop-color:#F2ECF3"/>
				</linearGradient>
				<path class="st22" d="M29,37.7l0-0.8c0,0.2-0.2,0.5-0.5,0.6L24,40.2c-0.6,0.4-1.6,0.4-2.2,0l-4.6-2.6c-0.3-0.2-0.5-0.4-0.5-0.7
					l0,0.8c0,0.2,0.2,0.5,0.5,0.7l4.6,2.6c0.6,0.4,1.6,0.4,2.2,0l4.6-2.6C28.8,38.1,29,37.9,29,37.7z"/>
				<path class="st23" d="M28.5,36.3l-4.6-2.6c-0.6-0.4-1.6-0.4-2.2,0l-4.6,2.6c-0.6,0.4-0.6,0.9,0,1.3l4.6,2.6
					c0.6,0.4,1.6,0.4,2.2,0l4.6-2.6C29.1,37.2,29.1,36.6,28.5,36.3z"/>
				<path class="st15" d="M25.3,37.4c-0.1,0-0.1,0-0.2,0l-1.1,0.7c-0.4,0.2-0.8,0.3-1.2,0.3c-0.4,0-0.9-0.1-1.2-0.3l-1-0.6
					c-0.4-0.2-0.6-0.5-0.6-0.7c0-0.3,0.2-0.5,0.5-0.7l1.2-0.7c0.2-0.1,0.5-0.2,0.8-0.2c0.3,0,0.5,0,0.8,0.2l1.3,0.8
					c0.3,0.2,0.3,0.4,0,0.6c-0.1,0-0.1,0.1-0.2,0l-1.8-1.1c-0.1,0-0.1,0-0.2,0l-1,0.6c-0.3,0.2-0.4,0.3-0.4,0.5
					c0,0.2,0.2,0.4,0.5,0.6l0.5,0.3c0.3,0.2,0.6,0.3,0.9,0.3c0.3,0,0.6-0.1,0.9-0.2c0.3-0.2,0.4-0.4,0.3-0.6c0,0,0.1,0,0.1,0
					c0.1,0.1,0.2,0.1,0.3,0.1c0.1,0,0.2,0,0.3-0.1l0.3-0.2c0.2-0.1,0.4-0.3,0.4-0.5c0-0.2-0.1-0.3-0.4-0.5l-1.4-0.8
					c-0.3-0.2-0.7-0.3-1.1-0.3c-0.4,0-0.8,0.1-1.1,0.3L20,35.9c-0.4,0.2-0.6,0.5-0.6,0.9c0,0.3,0.2,0.6,0.7,0.9l1.1,0.6
					c0.5,0.3,1,0.4,1.6,0.4c0.6,0,1.1-0.2,1.6-0.4l1.1-0.7c0.1,0,0.1-0.1,0-0.1L25.3,37.4z M23.3,37.3c-0.3,0.2-0.6,0.2-0.9,0
					L21.8,37c-0.3-0.2-0.3-0.4,0-0.5l0.5-0.3c0,0,0.1,0,0.1,0l0.8,0.5C23.6,36.9,23.6,37.1,23.3,37.3z"/>
			</g>
			<g>
				<linearGradient id="SVGID_10_" gradientUnits="userSpaceOnUse" x1="51.1285" y1="13.1524" x2="63.4178" y2="13.1524">
					<stop  offset="0" style="stop-color:#DFD7E8"/>
					<stop  offset="1" style="stop-color:#F2ECF3"/>
				</linearGradient>
				<path class="st24" d="M63,11.6l-4.5,2.6c-0.6,0.4-1.6,0.4-2.2,0l-4.6-2.6c-0.3-0.2-0.5-0.4-0.5-0.7l0,0.8c0,0.2,0.2,0.5,0.5,0.7
					l4.6,2.6c0.6,0.4,1.6,0.4,2.2,0l4.5-2.6c0.3-0.2,0.5-0.4,0.5-0.6l0-0.8C63.4,11.2,63.3,11.5,63,11.6z"/>
				<path class="st25" d="M62.9,10.3l-4.6-2.6c-0.6-0.4-1.6-0.4-2.2,0l-4.5,2.6c-0.6,0.4-0.6,0.9,0,1.3l4.6,2.6
					c0.6,0.4,1.6,0.4,2.2,0l4.5-2.6C63.6,11.3,63.6,10.7,62.9,10.3z"/>
				<path class="st15" d="M55.8,11.3c-0.5-0.3-0.5-0.7,0-1l0.8-0.5l-0.1-0.1c-0.4-0.2-1-0.2-1.3,0l-1.9,1.1c-0.4,0.2-0.4,0.6,0,0.8
					l1.1,0.6c0.4,0.2,1,0.2,1.3,0l0.9,0.5l0-1L55.8,11.3z"/>
				<path class="st15" d="M60.4,10.7c0.4-0.2,0.4-0.5,0-0.8l-1.1-0.6c-0.4-0.2-0.9-0.2-1.3,0l-1.9,1.1c-0.4,0.2-0.4,0.5,0,0.8
					l1.1,0.6c0.4,0.2,0.9,0.2,1.3,0l1-0.6l1.7,0L60.4,10.7z"/>
			</g>
			<g>
				<linearGradient id="SVGID_11_" gradientUnits="userSpaceOnUse" x1="24.1253" y1="7.1248" x2="36.4156" y2="7.1248">
					<stop  offset="0" style="stop-color:#DFD7E8"/>
					<stop  offset="1" style="stop-color:#F2ECF3"/>
				</linearGradient>
				<path class="st26" d="M24.6,6.4L29.2,9c0.6,0.4,1.6,0.4,2.2,0L36,6.4c0.3-0.2,0.5-0.4,0.5-0.6l0-0.8c0,0.2-0.2,0.5-0.5,0.6
					l-4.5,2.6c-0.6,0.4-1.6,0.4-2.2,0l-4.6-2.6c-0.3-0.2-0.5-0.4-0.5-0.7l0,0.8C24.1,6,24.3,6.2,24.6,6.4z"/>
				<path class="st14" d="M24.6,5.6l4.6,2.6c0.6,0.4,1.6,0.4,2.2,0L36,5.6c0.6-0.4,0.6-0.9,0-1.3l-4.6-2.6c-0.6-0.4-1.6-0.4-2.2,0
					l-4.5,2.6C24,4.7,24,5.3,24.6,5.6z"/>
				<path class="st15" d="M34.2,4.1l-2.9-1.7c-0.2-0.1-0.4-0.1-0.5,0l-4.9,2.8c-0.1,0-0.1,0.1-0.1,0.1c0,0.1,0.1,0.1,0.1,0.2
					l2.9,1.7c0.1,0,0.1,0.1,0.2,0.1l0.1,0c0.1,0,0.2,0,0.2-0.1l4.9-2.8C34.4,4.3,34.4,4.2,34.2,4.1z M28.9,6.9l-2.5-1.4l2.8-0.2
					L28.9,6.9z M26.6,5.2l4.2-2.4L30.3,5L26.6,5.2z M29.4,6.9l0.3-1.6l0.8-0.1l0.1,0l0.1-0.1l0.1-0.5l2.7-0.2L29.4,6.9z M30.9,4.4
					l0.3-1.7l2.5,1.5L30.9,4.4z"/>
			</g>
			<g>
				<linearGradient id="SVGID_12_" gradientUnits="userSpaceOnUse" x1="25.7007" y1="44.2645" x2="37.9949" y2="44.2645">
					<stop  offset="0" style="stop-color:#DFD7E8"/>
					<stop  offset="1" style="stop-color:#F2ECF3"/>
				</linearGradient>
				<path class="st27" d="M38,42.9l0-0.8c0,0.2-0.2,0.5-0.5,0.6L33,45.4c-0.6,0.4-1.6,0.4-2.2,0l-4.6-2.6c-0.3-0.2-0.5-0.4-0.5-0.7
					l0,0.8c0,0.2,0.2,0.5,0.5,0.7l4.6,2.6c0.6,0.4,1.6,0.4,2.2,0l4.6-2.6C37.8,43.3,38,43.1,38,42.9z"/>
				<path class="st9" d="M37.5,41.5l-4.6-2.6c-0.6-0.4-1.6-0.4-2.2,0l-4.6,2.6c-0.6,0.4-0.6,0.9,0,1.3l4.6,2.6
					c0.6,0.4,1.6,0.4,2.2,0l4.6-2.6C38.2,42.4,38.1,41.8,37.5,41.5z"/>
				<path class="st15" d="M32,40.9L31.8,41l0,0.1l0.1,0.2l0.1,0l0.2,0l0.1,0c0,0,0.1,0.1,0.1,0.1l0,0l-0.1,0.1l0,0.1l0.3,0.1l0.1,0
					l0.1-0.1l0.1,0c0.1,0,0.1,0,0.2,0l0.1,0l0.1,0.1l0.1,0l0.3-0.1l0.1-0.1l0-0.1l0,0c0.1,0,0.1,0,0.2-0.1l0.1,0l0.2,0l0.1,0
					l0.1-0.2l0-0.1l-0.2-0.1l0,0c0,0,0-0.1,0-0.1l0,0l0.2-0.1l0-0.1l-0.1-0.2l-0.1,0l-0.2,0l-0.1,0c0,0-0.1-0.1-0.1-0.1
					c0,0,0.1-0.2,0.1-0.2l0-0.1l-0.3-0.1l-0.1,0l-0.1,0.1l-0.1,0c-0.1,0-0.1,0-0.2,0l-0.1,0L33,40.1l-0.1,0l-0.3,0.1l-0.1,0.1l0,0.1
					l0,0c-0.1,0-0.1,0-0.2,0.1l-0.1,0l-0.2,0l-0.1,0l-0.1,0.2l0,0.1l0.2,0.1l0,0C32,40.8,32,40.8,32,40.9L32,40.9z M33,40.6
					c0.2,0,0.4,0,0.6,0.1c0.1,0,0.1,0.1,0.1,0.1c0.1,0.2-0.1,0.4-0.4,0.4c-0.2,0-0.4,0-0.6-0.1c-0.1,0-0.1-0.1-0.1-0.1
					C32.5,40.8,32.7,40.6,33,40.6z"/>
				<path class="st15" d="M35,42.7L35,42.7c0-0.1-0.1-0.1-0.1-0.2l0-0.1l0.2-0.1l0-0.1L35,42.1l-0.1,0l-0.3,0.1l-0.1,0
					c-0.1,0-0.1-0.1-0.2-0.1l0-0.1l0-0.2l-0.1-0.1L34,41.7l-0.1,0l-0.1,0.1l-0.1,0c-0.1,0-0.2,0-0.2,0l-0.1,0l-0.2-0.1l-0.1,0
					l-0.3,0.1l0,0.1l0.1,0.1l0,0.1c-0.1,0-0.1,0.1-0.2,0.1l-0.1,0l-0.3,0l-0.1,0L32,42.5l0,0.1l0.2,0.1l0.1,0c0,0,0,0.1,0,0.1l0,0.1
					l-0.2,0.1l0,0.1l0.2,0.2l0.1,0l0.3-0.1l0.1,0c0.1,0,0.1,0.1,0.2,0.1l0,0.1l0,0.2l0.1,0.1l0.4,0.1l0.1,0l0.1-0.1l0.1,0
					c0.1,0,0.2,0,0.2,0l0.1,0l0.2,0.1l0.1,0l0.3-0.1l0-0.1l-0.1-0.1l0-0.1c0.1,0,0.1-0.1,0.2-0.1l0.1,0l0.3,0l0.1,0l0.1-0.2
					l-0.1-0.1L35,42.7z M34,43c-0.3,0.1-0.6,0.1-0.8-0.1c0,0-0.1-0.1-0.1-0.1c-0.2-0.2-0.1-0.4,0.3-0.5c0.3-0.1,0.6-0.1,0.8,0.1
					c0,0,0.1,0.1,0.1,0.1C34.4,42.7,34.3,42.9,34,43z"/>
				<path class="st15" d="M31.6,42.2l0.3-0.1c0.1,0,0.1-0.1,0.1-0.1l-0.2-0.3l-0.1,0l-0.4,0l-0.1,0c-0.1-0.1-0.1-0.1-0.2-0.1l0-0.1
					l0.1-0.2c0,0,0-0.1,0-0.1c0,0-0.5-0.1-0.5-0.1c-0.1,0-0.1,0-0.2,0l-0.2,0.2l-0.1,0c-0.1,0-0.2,0-0.3,0l-0.1,0L29.5,41
					c-0.1,0-0.1,0-0.1,0l-0.5,0.1l-0.1,0.1l0.1,0.2l-0.1,0.1c-0.1,0-0.2,0.1-0.3,0.1l-0.1,0L28,41.5c-0.1,0-0.1,0-0.1,0l-0.2,0.3
					c0,0,0,0.1,0,0.1c0,0,0.3,0.1,0.3,0.1l0,0.1c0,0.1,0,0.1,0,0.2l-0.1,0.1l-0.3,0.1c-0.1,0-0.1,0.1-0.1,0.1l0.2,0.3l0.1,0l0.4,0
					l0.1,0c0.1,0.1,0.1,0.1,0.2,0.1l0,0.1l-0.1,0.2c0,0,0,0.1,0,0.1c0,0,0.5,0.1,0.5,0.1c0.1,0,0.1,0,0.2,0l0.2-0.2l0.1,0
					c0.1,0,0.2,0,0.3,0l0.1,0l0.2,0.2c0.1,0,0.1,0,0.1,0l0.5-0.1l0.1-0.1l-0.1-0.2l0.1-0.1c0.1,0,0.2-0.1,0.3-0.1l0.1,0l0.4,0.1
					c0.1,0,0.1,0,0.1,0l0.2-0.3c0,0,0-0.1,0-0.1c0,0-0.3-0.1-0.3-0.1l0-0.1C31.6,42.4,31.6,42.3,31.6,42.2L31.6,42.2z M30.1,42.8
					c-0.3,0.1-0.7,0-1-0.1c-0.1-0.1-0.2-0.1-0.2-0.2c-0.2-0.3,0.1-0.6,0.6-0.7c0.4-0.1,0.7,0,1,0.1c0.1,0.1,0.2,0.1,0.2,0.2
					C30.9,42.4,30.6,42.7,30.1,42.8z"/>
			</g>
			<g>
				<linearGradient id="SVGID_13_" gradientUnits="userSpaceOnUse" x1="33.9133" y1="35.6505" x2="46.206" y2="35.6505">
					<stop  offset="0" style="stop-color:#DFD7E8"/>
					<stop  offset="1" style="stop-color:#F2ECF3"/>
				</linearGradient>
				<path class="st28" d="M34.4,34.9l4.6,2.6c0.6,0.4,1.6,0.4,2.2,0l4.6-2.6c0.3-0.2,0.5-0.4,0.5-0.6l0-0.8c0,0.2-0.2,0.5-0.5,0.6
					l-4.6,2.6c-0.6,0.4-1.6,0.4-2.2,0l-4.6-2.6c-0.3-0.2-0.5-0.4-0.5-0.7l0,0.8C33.9,34.5,34.1,34.7,34.4,34.9z"/>
				<path class="st17" d="M34.4,34.1l4.6,2.6c0.6,0.4,1.6,0.4,2.2,0l4.6-2.6c0.6-0.4,0.6-0.9,0-1.3l-4.6-2.6c-0.6-0.4-1.6-0.4-2.2,0
					l-4.6,2.6C33.8,33.2,33.8,33.8,34.4,34.1z"/>
				<path class="st15" d="M39.2,35.2c0,0-0.2,0.2-0.2,0.2l-0.1,0l-0.1,0l0-0.1l0.2-0.1L39.2,35.2L39.2,35.2z M39.6,35.4L39.6,35.4
					l-0.3,0.1c0,0,0.1,0.1,0.1,0.1h0.1L39.6,35.4C39.6,35.5,39.6,35.4,39.6,35.4z M38.6,34.9L38.6,34.9L38.3,35c0,0,0.1,0.1,0.1,0.1
					h0.1L38.6,34.9C38.7,34.9,38.6,34.9,38.6,34.9z M40.2,35L40.2,35l-0.3,0.1c0,0,0.1,0.1,0.1,0.1l0.1,0L40.2,35
					C40.3,35.1,40.2,35,40.2,35z M38.1,34.6L38.1,34.6l-0.3,0.1l0,0.1l0.1,0l0.1,0L38.1,34.6C38.2,34.6,38.1,34.6,38.1,34.6z
					 M39.8,34.8L39.8,34.8l-0.3,0.1c0,0,0.1,0.1,0.1,0.1h0.1L39.8,34.8C39.8,34.8,39.8,34.8,39.8,34.8z M41.8,33.1L42,33
					c0,0-0.1-0.1-0.1-0.1h-0.1L41.7,33C41.7,33.1,41.7,33.1,41.8,33.1L41.8,33.1z M39,34.7L39,34.7l0.3-0.1c0,0-0.1-0.1-0.1-0.1
					h-0.1L39,34.7C39,34.7,39,34.7,39,34.7z M38.6,34.4L38.6,34.4l0.3-0.1c0,0-0.1-0.1-0.1-0.1l-0.1,0L38.6,34.4
					C38.5,34.4,38.6,34.4,38.6,34.4z M42.3,33.9L42.3,33.9L42,34c0,0,0.1,0.1,0.1,0.1h0.1L42.3,33.9L42.3,33.9L42.3,33.9z M39.2,34
					L39.2,34l0.3-0.1c0,0-0.1-0.1-0.1-0.1h-0.1L39.2,34L39.2,34L39.2,34z M40.3,34.4l-0.2,0.1l0,0.1l0.1,0l0.1,0l0.2-0.1
					C40.5,34.4,40.4,34.4,40.3,34.4L40.3,34.4z M40.9,34.6L40.9,34.6l-0.3,0.1c0,0,0.1,0.1,0.1,0.1h0.1L40.9,34.6L40.9,34.6
					L40.9,34.6z M40.5,33.7l-0.2,0.1c0,0,0.1,0.1,0.1,0.1l0.1,0l0.2-0.1C40.7,33.7,40.6,33.7,40.5,33.7L40.5,33.7z M41.6,34.3
					L41.6,34.3l-0.3,0.1c0,0,0.1,0.1,0.1,0.1l0.1,0L41.6,34.3C41.7,34.3,41.6,34.3,41.6,34.3z M42.5,33.2L42.5,33.2l-0.3,0.1
					c0,0,0.1,0.1,0.1,0.1h0.1L42.5,33.2C42.5,33.2,42.5,33.2,42.5,33.2z M44.6,33.1C44.6,33.1,44.6,33.2,44.6,33.1l-5,3
					c0,0-0.1,0-0.2,0l-2.8-1.6L35.7,34c0,0,0-0.1,0-0.1l0.1,0l-0.1-0.1c-0.1-0.1-0.1-0.2,0-0.2c0.1-0.1,0.3-0.1,0.4,0l0.1,0.1
					l0.3-0.1l-0.1-0.1c-0.1-0.1-0.1-0.2,0-0.2c0.1-0.1,0.3-0.1,0.4,0l0.1,0.1l0.3-0.1L36.9,33c-0.1-0.1-0.1-0.2,0-0.2
					c0.1-0.1,0.3-0.1,0.4,0l0.1,0.1l0.3-0.1l-0.1-0.1c-0.1-0.1-0.1-0.2,0-0.2c0.1-0.1,0.3-0.1,0.4,0l0.1,0.1l0.3-0.1l-0.1-0.1
					c-0.1-0.1-0.1-0.2,0-0.2c0.1-0.1,0.3-0.1,0.4,0l0.1,0.1L39,32l-0.1-0.1c-0.1-0.1-0.1-0.2,0-0.2c0.1-0.1,0.3-0.1,0.4,0l0.1,0.1
					l0.3-0.1l-0.1-0.1c-0.1-0.1-0.1-0.2,0-0.2c0.1-0.1,0.3-0.1,0.4,0l0.1,0.1l0.3-0.1l-0.1-0.1c-0.1-0.1-0.1-0.2,0-0.2
					c0.1-0.1,0.3-0.1,0.4,0l0.1,0.1l0.1,0c0,0,0.1,0,0.2,0l0.9,0.5L44.6,33.1z M40.6,31.3c0.1,0,0.2,0,0.2,0c0.1,0,0.1-0.1,0-0.1
					L40.4,31c-0.1,0-0.2,0-0.2,0c-0.1,0-0.1,0.1,0,0.1L40.6,31.3z M39.9,31.7c0.1,0,0.2,0,0.2,0c0.1,0,0.1-0.1,0-0.1l-0.4-0.2
					c-0.1,0-0.2,0-0.2,0c-0.1,0-0.1,0.1,0,0.1L39.9,31.7z M39.3,32.1c0.1,0,0.2,0,0.2,0c0.1,0,0.1-0.1,0-0.1l-0.4-0.2
					c-0.1,0-0.2,0-0.2,0c-0.1,0-0.1,0.1,0,0.1L39.3,32.1z M38.7,32.5c0.1,0,0.2,0,0.2,0c0.1,0,0.1-0.1,0-0.1l-0.4-0.2
					c-0.1,0-0.2,0-0.2,0c-0.1,0-0.1,0.1,0,0.1L38.7,32.5z M38,32.8c0.1,0,0.2,0,0.2,0c0.1,0,0.1-0.1,0-0.1l-0.4-0.2
					c-0.1,0-0.2,0-0.2,0c-0.1,0-0.1,0.1,0,0.1L38,32.8z M37.4,33.2c0.1,0,0.2,0,0.2,0c0.1,0,0.1-0.1,0-0.1l-0.4-0.2
					c-0.1,0-0.2,0-0.2,0c-0.1,0-0.1,0.1,0,0.1L37.4,33.2z M36.7,33.6c0.1,0,0.2,0,0.2,0c0.1,0,0.1-0.1,0-0.1l-0.4-0.2
					c-0.1,0-0.2,0-0.2,0c-0.1,0-0.1,0.1,0,0.1L36.7,33.6z M36.1,34c0.1,0,0.2,0,0.2,0c0.1,0,0.1-0.1,0-0.1l-0.4-0.2
					c-0.1,0-0.2,0-0.2,0c-0.1,0-0.1,0.1,0,0.1L36.1,34z M36.6,34.3l4.9-2.8L41,31.2c0,0.1,0,0.1-0.1,0.2c-0.1,0.1-0.3,0.1-0.4,0
					l-0.1-0.1l-0.3,0.1l0.1,0.1c0.1,0.1,0.1,0.2,0,0.2c-0.1,0.1-0.3,0.1-0.4,0l-0.1-0.1l-0.3,0.1l0.1,0.1c0.1,0.1,0.1,0.2,0,0.2
					c-0.1,0.1-0.3,0.1-0.4,0l-0.1-0.1l-0.3,0.1l0.1,0.1c0.1,0.1,0.1,0.2,0,0.2c-0.1,0.1-0.3,0.1-0.4,0l-0.1-0.1l-0.3,0.1l0.1,0.1
					c0.1,0.1,0.1,0.2,0,0.2c-0.1,0.1-0.3,0.1-0.4,0l-0.1-0.1L37.6,33l0.1,0.1c0.1,0.1,0.1,0.2,0,0.2c-0.1,0.1-0.3,0.1-0.4,0
					l-0.1-0.1l-0.3,0.1l0.1,0.1c0.1,0.1,0.1,0.2,0,0.2c-0.1,0.1-0.3,0.1-0.4,0l-0.1-0.1l-0.3,0.1l0.1,0.1c0.1,0.1,0.1,0.2,0,0.2
					c-0.1,0-0.2,0.1-0.3,0L36.6,34.3z M44.3,33.2l-2.7-1.5l-4.9,2.8l2.7,1.5L44.3,33.2z M40.6,33.2L40.6,33.2l0.3-0.1
					c0,0-0.1-0.1-0.1-0.1h-0.1L40.6,33.2L40.6,33.2L40.6,33.2z M40.8,32.6L40.8,32.6l0.3-0.1c0,0-0.1-0.1-0.1-0.1h-0.1L40.8,32.6
					C40.7,32.5,40.8,32.6,40.8,32.6z M42.9,33L42.9,33l0.3-0.1c0,0-0.1-0.1-0.1-0.1H43L42.9,33L42.9,33L42.9,33z M41.4,32.1
					C41.4,32.1,41.4,32.2,41.4,32.1l0.2,0.1l0.2-0.1l0-0.1l-0.1,0l-0.1,0L41.4,32.1z M41.6,32.7L41.6,32.7l-0.2,0l-0.2,0.1
					c0,0,0.1,0.1,0.1,0.1h0.1L41.6,32.7L41.6,32.7z M41.9,32.5L41.9,32.5l0.3-0.1c0,0-0.1-0.1-0.1-0.1h-0.1L41.9,32.5L41.9,32.5
					L41.9,32.5z M42.5,32.7l0.2-0.1l0-0.1l-0.1,0l-0.1,0l-0.2,0.1C42.3,32.7,42.4,32.7,42.5,32.7L42.5,32.7z M43.5,33.3l0.2-0.1
					l0-0.1l-0.1,0l-0.1,0l-0.2,0.1C43.3,33.3,43.4,33.3,43.5,33.3L43.5,33.3z M41.7,33.6l-0.2,0.1l0,0.1l0.1,0l0.1,0l0.2-0.1
					C41.9,33.6,41.8,33.6,41.7,33.6L41.7,33.6z M41.2,33.3L41,33.4c0,0,0.1,0.1,0.1,0.1h0.1l0.2-0.1l0-0.1L41.2,33.3L41.2,33.3z
					 M39.4,33.4L39.4,33.4l0.3-0.1c0,0-0.1-0.1-0.1-0.1h-0.1L39.4,33.4C39.3,33.3,39.4,33.4,39.4,33.4z M40.2,33l0.2-0.1l0-0.1
					l-0.1,0l-0.1,0L40,32.9C40,32.9,40.1,33,40.2,33L40.2,33z M42.9,33.5L42.9,33.5l-0.3,0.1c0,0,0.1,0.1,0.1,0.1l0.1,0L42.9,33.5
					C43,33.5,42.9,33.5,42.9,33.5z M39.9,33.6L39.9,33.6l0.3-0.1c0,0-0.1-0.1-0.1-0.1l-0.1,0L39.9,33.6
					C39.8,33.6,39.9,33.6,39.9,33.6z M39.9,34.1l-0.2,0.1c0,0,0.1,0.1,0.1,0.1h0.1l0.2-0.1l0-0.1L39.9,34.1L39.9,34.1z M41.1,34
					L41.1,34l-0.3,0.1c0,0,0.1,0.1,0.1,0.1H41L41.1,34C41.2,34,41.1,34,41.1,34z"/>
			</g>
			<g>
				<linearGradient id="SVGID_14_" gradientUnits="userSpaceOnUse" x1="42.1269" y1="19.3873" x2="54.4187" y2="19.3873">
					<stop  offset="0" style="stop-color:#DFD7E8"/>
					<stop  offset="1" style="stop-color:#F2ECF3"/>
				</linearGradient>
				<path class="st29" d="M42.1,17.2l0,0.8c0,0.2,0.2,0.5,0.5,0.7l4.6,2.6c0.6,0.4,1.6,0.4,2.2,0l4.5-2.6c0.3-0.2,0.5-0.4,0.5-0.6
					l0-0.8c0,0.2-0.2,0.5-0.5,0.6l-4.5,2.6c-0.6,0.4-1.6,0.4-2.2,0l-4.6-2.6C42.3,17.7,42.1,17.5,42.1,17.2z"/>
				<path class="st9" d="M42.6,17.9l4.6,2.6c0.6,0.4,1.6,0.4,2.2,0l4.5-2.6c0.6-0.4,0.6-0.9,0-1.3l-4.6-2.6c-0.6-0.4-1.6-0.4-2.2,0
					l-4.5,2.6C42,16.9,42,17.5,42.6,17.9z"/>
				<path class="st15" d="M52.2,16.5l-3.4-1.9c-0.1,0-0.2-0.1-0.3,0c0,0-0.2,0.1-0.5,0.3c-0.6,0.3-1.3,0.9-1.4,1.5
					c-1,0.1-2,0.5-2.6,0.8c-0.3,0.2-0.4,0.3-0.5,0.3c-0.1,0.1-0.1,0.1,0,0.2l3.4,1.9c0,0,0.1,0,0.2,0c0.1,0,0.1,0,0.2-0.1
					c0.2-0.1,1.3-0.7,2.9-1l0.1,0c0,0,0.1-0.1,0.1-0.1c0.6-1,1.6-1.6,1.8-1.7C52.2,16.6,52.2,16.6,52.2,16.5
					C52.2,16.5,52.2,16.5,52.2,16.5z M47.1,19.2L44,17.5c0.1,0,0.2-0.1,0.3-0.2c0.5-0.3,1.4-0.7,2.4-0.8l3,1.8
					C48.4,18.6,47.4,19,47.1,19.2z M50,18.1l-3-1.8c0.1-0.6,0.9-1.1,1.3-1.4c0.1-0.1,0.2-0.1,0.3-0.2l3.1,1.8
					C51.3,16.8,50.6,17.3,50,18.1z"/>
			</g>
			<g>
				<linearGradient id="SVGID_15_" gradientUnits="userSpaceOnUse" x1="33.1269" y1="13.246" x2="45.4172" y2="13.246">
					<stop  offset="0" style="stop-color:#DFD7E8"/>
					<stop  offset="1" style="stop-color:#F2ECF3"/>
				</linearGradient>
				<path class="st30" d="M33.1,11.1l0,0.8c0,0.2,0.2,0.5,0.5,0.7l4.6,2.6c0.6,0.4,1.6,0.4,2.2,0l4.5-2.6c0.3-0.2,0.5-0.4,0.5-0.6
					l0-0.8c0,0.2-0.2,0.5-0.5,0.6l-4.5,2.6c-0.6,0.4-1.6,0.4-2.2,0l-4.6-2.6C33.3,11.6,33.1,11.3,33.1,11.1z"/>
				<path class="st19" d="M33.6,11.7l4.6,2.6c0.6,0.4,1.6,0.4,2.2,0l4.5-2.6c0.6-0.4,0.6-0.9,0-1.3l-4.6-2.6c-0.6-0.4-1.6-0.4-2.2,0
					l-4.5,2.6C33,10.8,33,11.4,33.6,11.7z"/>
				<path class="st15" d="M41.2,12.2c0.6-0.4,1.2-0.6,1.3-0.5c0.1,0.1-0.3,0.4-0.9,0.8C41,12.8,40.4,13,40.3,13S40.6,12.6,41.2,12.2
					z M35.9,10.2c0.1-0.2,0.3-0.5,0.6-0.7c0.4-0.2,0.8-0.3,1.2-0.4c0.7-0.1,1.5,0.1,2,0.4c0.3,0.2,0.6,0.4,0.6,0.7l0.5,1.7
					c0,0.1-0.1,0.1-0.2,0.1l-2.9-0.3c-0.5-0.1-0.9-0.2-1.2-0.4C36,11.1,35.8,10.6,35.9,10.2z M37.1,11.1c0.6,0.3,1.6,0.3,2.2,0
					c0.6-0.4,0.6-0.9,0-1.3c-0.6-0.4-1.6-0.4-2.2,0C36.5,10.1,36.5,10.7,37.1,11.1z"/>
			</g>
			<g>
				<linearGradient id="SVGID_16_" gradientUnits="userSpaceOnUse" x1="42.9149" y1="29.7746" x2="55.2051" y2="29.7746">
					<stop  offset="0" style="stop-color:#DFD7E8"/>
					<stop  offset="1" style="stop-color:#F2ECF3"/>
				</linearGradient>
				<path class="st31" d="M54.7,28.3l-4.6,2.6c-0.6,0.4-1.6,0.4-2.2,0l-4.6-2.6c-0.3-0.2-0.5-0.4-0.5-0.7l0,0.8
					c0,0.2,0.2,0.5,0.5,0.7l4.6,2.6c0.6,0.4,1.6,0.4,2.2,0l4.6-2.6c0.3-0.2,0.5-0.4,0.5-0.6l0-0.8C55.2,27.9,55.1,28.1,54.7,28.3z"
					/>
				<path class="st25" d="M54.7,27l-4.6-2.6c-0.6-0.4-1.6-0.4-2.2,0L43.4,27c-0.6,0.4-0.6,0.9,0,1.3l4.6,2.6c0.6,0.4,1.6,0.4,2.2,0
					l4.6-2.6C55.4,27.9,55.4,27.3,54.7,27z"/>
				<path class="st15" d="M49.3,25.9c-0.2-0.1-0.5-0.2-0.8-0.2c0,0-0.1-0.1-0.1-0.1c-0.1-0.1-0.3-0.1-0.5-0.1l-0.4,0.1l-0.1,0.1
					l0.8,1.3l0.1,0l0.4-0.1c0.1,0,0.1,0,0.2-0.1c0.1,0,0.2,0,0.2,0c0,0,0,0,0,0c0.1,0.2,0.3,0.5,0.4,0.8c0.1,0.3,0.2,0.6,0.2,0.8
					c0,0.1-0.1,0.1-0.2,0.1c-0.1,0-0.1,0-0.2,0l-0.5,0l-0.1,0.1l0.1,1.4l0.1,0.1l0.5,0c0.3,0,0.5-0.1,0.5-0.3
					c0.3-0.1,0.6-0.4,0.7-0.8c0.1-0.4,0-0.8-0.2-1.3C50.3,26.8,49.9,26.2,49.3,25.9z"/>
			</g>
		</g>
		<path class="st32" d="M69.7,42.7l-2.6-1.5c-0.6-0.4-1.6-0.4-2.2,0L45.1,52.7c-0.6,0.4-0.6,0.9,0,1.3l2.6,1.5
			c0.6,0.4,1.6,0.4,2.2,0L69.7,44C70.3,43.6,70.3,43.1,69.7,42.7z"/>
		<path class="st33" d="M64.9,42.6c-0.9,0-1.6,0.4-1.6,0.9c0,0.5,0.7,0.9,1.6,0.9c0.8,0,1.4-0.3,1.5-0.7h2.1c0.1,0,0.2-0.1,0.2-0.1
			v-0.1c0-0.1-0.1-0.1-0.2-0.1h-2.1C66.3,43,65.6,42.6,64.9,42.6z M66.2,43.5c0,0.4-0.6,0.8-1.3,0.8c-0.7,0-1.3-0.3-1.3-0.8
			c0-0.4,0.6-0.8,1.3-0.8C65.6,42.8,66.2,43.1,66.2,43.5z"/>
	</g>
</g>
</svg>
