<?xml version="1.0" encoding="utf-8"?>
<!-- Generator: Adobe Illustrator 19.0.0, SVG Export Plug-In . SVG Version: 6.00 Build 0)  -->
<svg version="1.1" id="Layer_3" xmlns="http://www.w3.org/2000/svg" xmlns:xlink="http://www.w3.org/1999/xlink" x="0px" y="0px"
	 viewBox="0 0 74.8 86.5" style="enable-background:new 0 0 74.8 86.5;" xml:space="preserve">
<style type="text/css">
	.st0{fill:#EBF1FF;}
	.st1{fill:#D1DFFF;}
	.st2{filter:url(#Adobe_OpacityMaskFilter);}
	.st3{filter:url(#Adobe_OpacityMaskFilter_1_);}
	.st4{mask:url(#SVGID_1_);fill:url(#SVGID_2_);}
	.st5{fill:url(#SVGID_3_);}
	.st6{fill:#94E8FF;}
	.st7{enable-background:new    ;}
	.st8{fill:#51728F;}
	.st9{fill:#557695;}
	.st10{fill:#6993B9;}
	.st11{fill:#5F82A7;}
	.st12{fill:#77A7D2;}
	.st13{fill:#658DB1;}
	.st14{fill:#527190;}
	.st15{fill:#557494;}
	.st16{fill:#7FB0DE;}
	.st17{fill:#729CC7;}
	.st18{fill:#6288AC;}
	.st19{fill:#6891B6;}
</style>
<g>
	<g>
		<path class="st0" d="M30.4,83.4L12.6,73.1c-3-1.7-2.6-4.8,0.8-6.8l16-9.2c3.5-2,8.8-2.2,11.8-0.5l17.9,10.3c3,1.7,2.6,4.8-0.8,6.8
			l-16,9.2C38.8,84.9,33.5,85.2,30.4,83.4z"/>
		<polygon class="st0" points="10.6,66.5 10.6,70.2 61.1,69.8 61.1,66.1 		"/>
		<path class="st1" d="M30.4,79.6L12.6,69.3c-3-1.7-2.6-4.8,0.8-6.8l16-9.2c3.5-2,8.8-2.2,11.8-0.5l17.9,10.3c3,1.7,2.6,4.8-0.8,6.8
			l-16,9.2C38.8,81.2,33.5,81.4,30.4,79.6z"/>
		<g>
			<defs>
				<filter id="Adobe_OpacityMaskFilter" filterUnits="userSpaceOnUse" x="21" y="35.2" width="28.6" height="38.8">
					<feFlood  style="flood-color:white;flood-opacity:1" result="back"/>
					<feBlend  in="SourceGraphic" in2="back" mode="normal"/>
				</filter>
			</defs>
			<mask maskUnits="userSpaceOnUse" x="21" y="35.2" width="28.6" height="38.8" id="SVGID_1_">
				<g class="st2">
					<defs>
						<filter id="Adobe_OpacityMaskFilter_1_" filterUnits="userSpaceOnUse" x="21" y="35.2" width="28.6" height="38.8">
							<feFlood  style="flood-color:white;flood-opacity:1" result="back"/>
							<feBlend  in="SourceGraphic" in2="back" mode="normal"/>
						</filter>
					</defs>
					<mask maskUnits="userSpaceOnUse" x="21" y="35.2" width="28.6" height="38.8" id="SVGID_1_">
						<g class="st3">
						</g>
					</mask>
					<linearGradient id="SVGID_2_" gradientUnits="userSpaceOnUse" x1="35.2944" y1="65.9617" x2="35.2944" y2="35.5817">
						<stop  offset="0" style="stop-color:#CFCFCF"/>
						<stop  offset="0.1955" style="stop-color:#959595"/>
						<stop  offset="0.3954" style="stop-color:#606060"/>
						<stop  offset="0.5828" style="stop-color:#363636"/>
						<stop  offset="0.7518" style="stop-color:#191919"/>
						<stop  offset="0.8965" style="stop-color:#060606"/>
						<stop  offset="1" style="stop-color:#000000"/>
					</linearGradient>
					<path class="st4" d="M49.6,35.2H21v30.5h0c0,2.1,1.4,4.2,4.2,5.8c5.6,3.2,14.7,3.3,20.2,0c2.8-1.6,4.2-3.7,4.2-5.9h0V35.2z"/>
				</g>
			</mask>
			<linearGradient id="SVGID_3_" gradientUnits="userSpaceOnUse" x1="35.2944" y1="65.9617" x2="35.2944" y2="35.5817">
				<stop  offset="0" style="stop-color:#57D8FF"/>
				<stop  offset="0.5644" style="stop-color:#46D7FF"/>
				<stop  offset="1" style="stop-color:#40D6FF"/>
			</linearGradient>
			<path class="st5" d="M49.6,35.2H21v30.5h0c0,2.1,1.4,4.2,4.2,5.8c5.6,3.2,14.7,3.3,20.2,0c2.8-1.6,4.2-3.7,4.2-5.9h0V35.2z"/>
		</g>
		<g>
			<path class="st6" d="M47.4,67.9L47.4,67.9c-0.4,0-0.6-0.3-0.6-0.6v-4.1c0-0.4,0.3-0.6,0.6-0.6l0,0c0.4,0,0.6,0.3,0.6,0.6v4.1
				C48,67.6,47.7,67.9,47.4,67.9z"/>
			<path class="st6" d="M40.5,66L40.5,66c-0.4,0-0.6-0.3-0.6-0.6v-4.3c0-0.4,0.3-0.6,0.6-0.6l0,0c0.4,0,0.6,0.3,0.6,0.6v4.3
				C41.2,65.7,40.9,66,40.5,66z"/>
			<path class="st6" d="M34.9,69.5L34.9,69.5c-0.4,0-0.6-0.3-0.6-0.6V64c0-0.4,0.3-0.6,0.6-0.6l0,0c0.4,0,0.6,0.3,0.6,0.6v4.8
				C35.6,69.2,35.3,69.5,34.9,69.5z"/>
			<path class="st6" d="M26.6,69.5L26.6,69.5c-0.4,0-0.6-0.3-0.6-0.6V65c0-0.4,0.3-0.6,0.6-0.6l0,0c0.4,0,0.6,0.3,0.6,0.6v3.9
				C27.3,69.3,27,69.5,26.6,69.5z"/>
			<path class="st6" d="M40.5,71.4L40.5,71.4c-0.4,0-0.6-0.3-0.6-0.6v-2.6c0-0.4,0.3-0.6,0.6-0.6l0,0c0.4,0,0.6,0.3,0.6,0.6v2.6
				C41.2,71.1,40.9,71.4,40.5,71.4z"/>
			<path class="st6" d="M23,63.2L23,63.2c-0.4,0-0.6-0.3-0.6-0.6v-1.3c0-0.4,0.3-0.6,0.6-0.6l0,0c0.4,0,0.6,0.3,0.6,0.6v1.3
				C23.7,62.9,23.4,63.2,23,63.2z"/>
			<path class="st6" d="M31.2,72.8L31.2,72.8c-0.4,0-0.6-0.3-0.6-0.6v-2.6c0-0.4,0.3-0.6,0.6-0.6l0,0c0.4,0,0.6,0.3,0.6,0.6v2.6
				C31.9,72.5,31.6,72.8,31.2,72.8z"/>
		</g>
		<g>
			<g>
				<g>
					<g class="st7">
						<g>
							<polygon class="st8" points="23.8,31.1 26.9,35.2 17.1,24.7 18.7,25.3 							"/>
						</g>
						<g>
							<polygon class="st8" points="18.7,25.3 17.1,24.7 17.4,12.2 18.1,17.8 							"/>
						</g>
						<g>
							<polygon class="st9" points="18.1,17.8 17.4,12.2 20.1,8.6 22.1,15.4 							"/>
						</g>
						<g>
							<polygon class="st10" points="20.1,8.6 30.9,2.3 48.4,3 34.9,10.9 							"/>
						</g>
						<g>
							<polygon class="st11" points="22.1,15.4 20.1,8.6 34.9,10.9 32.8,19 							"/>
						</g>
						<g>
							<polygon class="st8" points="53,50.8 57.6,55.6 26.9,35.2 23.8,31.1 							"/>
						</g>
						<g>
							<polygon class="st12" points="34.9,10.9 48.4,3 62.5,13.4 48.9,21.2 							"/>
						</g>
						<g>
							<polygon class="st13" points="32.8,19 34.9,10.9 48.9,21.2 45.1,28.4 							"/>
						</g>
						<g>
							<polygon class="st14" points="57.1,50 65.6,54 57.6,55.6 53,50.8 							"/>
						</g>
						<g>
							<polygon class="st15" points="32.8,19 45.1,28.4 56.8,48.1 57.1,50 53,50.8 23.8,31.1 18.7,25.3 18.1,17.8 22.1,15.4 							
								"/>
						</g>
						<g>
							<polygon class="st16" points="48.9,21.2 62.5,13.4 72.6,40.4 64.4,45.2 							"/>
						</g>
						<g>
							<polygon class="st17" points="64.4,45.2 72.6,40.4 72,50.3 65.6,54 							"/>
						</g>
						<g>
							<polygon class="st18" points="56.8,48.1 64.4,45.2 65.6,54 57.1,50 							"/>
						</g>
						<g>
							<polygon class="st19" points="45.1,28.4 48.9,21.2 64.4,45.2 56.8,48.1 							"/>
						</g>
					</g>
				</g>
				<g>
					<polygon class="st6" points="66.4,53.5 65.9,50.6 70.2,48.1 70,41.9 67.1,36.8 67.6,36.5 70.6,41.7 70.8,48.4 66.6,50.9 
						66.9,53.4 					"/>
				</g>
				<g>
					<g class="st7">
						<g>
							<polygon class="st8" points="5.5,41.9 8.6,45.9 4.2,32.2 2.9,34.4 							"/>
						</g>
						<g>
							<polygon class="st8" points="2.9,34.4 4.2,32.2 4.5,19.7 2.4,26.9 							"/>
						</g>
						<g>
							<polygon class="st9" points="2.4,26.9 4.5,19.7 7,16.1 6.4,24.5 							"/>
						</g>
						<g>
							<polygon class="st10" points="7,16.1 18,9.8 30.1,13.8 16.5,21.6 							"/>
						</g>
						<g>
							<polygon class="st11" points="6.4,24.5 7,16.1 16.5,21.6 14.5,29.8 							"/>
						</g>
						<g>
							<polygon class="st8" points="41.9,57.3 46.5,62.1 31,57.2 8.6,45.9 5.5,41.9 30.2,53.9 							"/>
						</g>
						<g>
							<polygon class="st12" points="16.5,21.6 30.1,13.8 44.2,24.1 30.6,32 							"/>
						</g>
						<g>
							<polygon class="st13" points="14.5,29.8 16.5,21.6 30.6,32 26.8,39.2 							"/>
						</g>
						<g>
							<polygon class="st14" points="45.9,56.5 54.5,60.6 46.5,62.1 41.9,57.3 							"/>
						</g>
						<g>
							<polygon class="st15" points="14.5,29.8 26.8,39.2 45.7,54.7 45.9,56.5 41.9,57.3 30.2,53.9 5.5,41.9 2.9,34.4 2.4,26.9 
								6.4,24.5 							"/>
						</g>
						<g>
							<polygon class="st16" points="30.6,32 44.2,24.1 59.6,48.1 51.4,52.9 							"/>
						</g>
						<g>
							<polygon class="st17" points="51.4,52.9 59.6,48.1 60.9,56.9 54.5,60.6 							"/>
						</g>
						<g>
							<polygon class="st18" points="45.7,54.7 51.4,52.9 54.5,60.6 45.9,56.5 							"/>
						</g>
						<g>
							<polygon class="st19" points="26.8,39.2 30.6,32 51.4,52.9 45.7,54.7 							"/>
						</g>
					</g>
				</g>
			</g>
			<g>
				<polygon class="st6" points="55.1,56.9 53.4,51.4 56.8,49.4 50.2,40.6 53.6,38.6 53.9,39.1 51.1,40.8 57.7,49.6 54.1,51.7 
					55.6,56.7 				"/>
			</g>
			<g>
				<polygon class="st6" points="18.9,17.9 13.3,15.2 13.6,14.7 18.9,17.2 26.9,12.5 27.3,13 				"/>
			</g>
			<g>
				<polygon class="st6" points="6.7,32.8 6.5,31 7.5,24.9 9.9,26.4 11,22.1 11.6,22.3 10.3,27.4 7.9,25.9 7.1,31 7.3,32.8 				"/>
			</g>
			<g>
				<polygon class="st6" points="47.8,10.6 44.7,8.1 41.4,10 41.1,9.5 44.7,7.4 47.9,9.9 51.4,8 51.7,8.5 				"/>
			</g>
			<g>
				
					<rect x="25.2" y="7.5" transform="matrix(0.9877 0.1563 -0.1563 0.9877 1.5804 -4.5047)" class="st6" width="8.4" height="0.6"/>
			</g>
			<g>
				<polygon class="st6" points="61,33.5 57.8,28.7 66.3,23.7 66.6,24.2 58.7,28.9 61.5,33.2 				"/>
			</g>
			<g>
				<polygon class="st6" points="54.6,23.6 52,19.6 48,16.6 48.3,16.1 52.5,19.2 54.8,22.8 64,17.5 64.3,18 				"/>
			</g>
			<g>
				<polygon class="st6" points="8.3,46.4 8.2,42.3 12.9,44.9 12.9,40.9 13.5,40.9 13.5,45.9 8.8,43.3 8.9,46.3 				"/>
			</g>
			<g>
				<polygon class="st6" points="6.9,29.7 3.4,27.2 2.7,24.7 3.2,24.6 3.9,26.8 7.2,29.3 				"/>
			</g>
			<g>
				<polygon class="st6" points="19.8,30.6 17,28.5 17.3,28 19.5,29.6 20.9,24.9 28,21.1 33.6,25.2 40.2,21 40.5,21.5 33.6,25.9 
					28,21.8 21.4,25.3 				"/>
			</g>
			<g>
				<polygon class="st6" points="39.7,60.1 39.5,59.5 35.3,58.2 35,56.9 35.6,56.8 35.8,57.7 40,59.1 40.2,59.9 				"/>
			</g>
			<path class="st6" d="M14.1,41.4c0,0.6-0.4,0.8-0.9,0.5c-0.5-0.3-0.9-1-0.9-1.5s0.4-0.8,0.9-0.5C13.7,40.2,14.1,40.9,14.1,41.4z"
				/>
			<path class="st6" d="M7.9,33.3c0,0.6-0.4,0.8-0.9,0.5c-0.5-0.3-0.9-1-0.9-1.5s0.4-0.8,0.9-0.5C7.5,32.1,7.9,32.8,7.9,33.3z"/>
			<path class="st6" d="M24.4,50.1c0,0.6-0.4,0.8-0.9,0.5c-0.5-0.3-0.9-1-0.9-1.5c0-0.6,0.4-0.8,0.9-0.5
				C24,48.9,24.4,49.6,24.4,50.1z"/>
			<path class="st6" d="M38.6,52.8c-0.1,0.5-0.6,0.7-1.1,0.5c-0.5-0.3-0.8-0.9-0.7-1.4c0.1-0.5,0.6-0.7,1.1-0.5
				C38.4,51.7,38.7,52.3,38.6,52.8z"/>
			<path class="st6" d="M36.1,56.3c0,0.5-0.4,0.9-0.9,0.7c-0.5-0.2-0.9-0.7-0.9-1.3c0-0.5,0.4-0.9,0.9-0.7
				C35.6,55.2,36.1,55.8,36.1,56.3z"/>
			<path class="st6" d="M54.5,57.4c0.1,0.5,0.6,0.8,1.1,0.5c0.5-0.3,0.7-0.9,0.6-1.5s-0.6-0.8-1.1-0.5
				C54.6,56.2,54.4,56.9,54.5,57.4z"/>
			<g>
				<g>
					
						<rect x="39.1" y="37.1" transform="matrix(0.7071 0.7071 -0.7071 0.7071 39.2054 -19.9441)" class="st6" width="9.2" height="0.6"/>
				</g>
				<path class="st6" d="M46.1,41.1c0.3,0.4,0.9,0.6,1.4,0.3c0.5-0.3,0.6-0.8,0.3-1.3c-0.3-0.4-0.9-0.6-1.4-0.3
					C45.9,40.1,45.8,40.6,46.1,41.1z"/>
				<path class="st6" d="M39.6,34.6c0.3,0.4,0.9,0.6,1.4,0.3c0.5-0.3,0.6-0.8,0.3-1.3c-0.3-0.4-0.9-0.6-1.4-0.3S39.3,34.1,39.6,34.6
					z"/>
			</g>
			<path class="st6" d="M35.3,31.4c0.3,0.4,0.9,0.6,1.4,0.3c0.5-0.3,0.6-0.8,0.3-1.3c-0.3-0.4-0.9-0.6-1.4-0.3
				C35.1,30.4,35,30.9,35.3,31.4z"/>
			<path class="st6" d="M60.4,33.8c0.3,0.4,0.9,0.6,1.4,0.3c0.5-0.3,0.6-0.8,0.3-1.3c-0.3-0.4-0.9-0.6-1.4-0.3
				C60.2,32.8,60.1,33.3,60.4,33.8z"/>
			<path class="st6" d="M66.6,37.1c0.3,0.4,0.9,0.6,1.4,0.3c0.5-0.3,0.6-0.8,0.3-1.3c-0.3-0.4-0.9-0.6-1.4-0.3S66.2,36.7,66.6,37.1z
				"/>
			<path class="st6" d="M16.7,28.9L16.7,28.9c-0.4-0.3-0.5-0.7-0.3-1l0,0c0.2-0.5,0.8-0.6,1.2-0.3l0,0c0.3,0.2,0.4,0.6,0.3,1l0,0
				C17.7,29,17.1,29.2,16.7,28.9z"/>
			<path class="st6" d="M10.8,22.8L10.8,22.8c-0.3-0.2-0.4-0.5-0.3-0.8l0,0c0.1-0.5,0.8-0.8,1.2-0.5l0,0c0.3,0.2,0.4,0.5,0.3,0.8
				l0,0C11.9,22.9,11.3,23.2,10.8,22.8z"/>
			<path class="st6" d="M12.7,15.4c0.4,0.2,1.1,0.2,1.5-0.1c0.4-0.3,0.5-0.6,0.1-0.8c-0.4-0.2-1.1-0.2-1.5,0.1S12.2,15.2,12.7,15.4z
				"/>
			<path class="st6" d="M32.8,8.9c0.4,0.2,1.1,0.2,1.5-0.1c0.4-0.3,0.5-0.6,0.1-0.8c-0.4-0.2-1.1-0.2-1.5,0.1
				C32.4,8.4,32.4,8.7,32.8,8.9z"/>
			<path class="st6" d="M24.5,7.6c0.4,0.2,1.1,0.2,1.5-0.1c0.4-0.3,0.5-0.6,0.1-0.8c-0.4-0.2-1.1-0.2-1.5,0.1
				C24.1,7,24.1,7.4,24.5,7.6z"/>
			<path class="st6" d="M39.6,5.7c0.4,0.2,1.1,0.2,1.5-0.1c0.4-0.3,0.5-0.6,0.1-0.8c-0.4-0.2-1.1-0.2-1.5,0.1
				C39.3,5.1,39.2,5.5,39.6,5.7z"/>
			<path class="st6" d="M48.8,16.8c-0.4,0.2-1,0.2-1.4,0c-0.4-0.2-0.4-0.6,0-0.8c0.4-0.2,1-0.2,1.4,0C49.2,16.2,49.2,16.5,48.8,16.8
				z"/>
			<path class="st6" d="M42,10.1c-0.4,0.2-1,0.2-1.4,0c-0.4-0.2-0.4-0.6,0-0.8c0.4-0.2,1-0.2,1.4,0C42.3,9.5,42.4,9.9,42,10.1z"/>
			<path class="st6" d="M52.2,8.7c-0.4,0.2-1,0.2-1.4,0c-0.4-0.2-0.4-0.6,0-0.8c0.4-0.2,1-0.2,1.4,0C52.6,8.1,52.6,8.5,52.2,8.7z"/>
			<g>
				<polygon class="st6" points="40.4,5.5 33.3,4.9 37.5,2.3 37.8,2.8 35.2,4.5 40.5,4.9 				"/>
			</g>
			<g>
				<polygon class="st6" points="27.8,51.9 23.4,49.9 23.6,49.4 27.2,51 27.2,42.4 27.9,40.2 31.7,33.1 35.9,30.6 36.2,31.2 
					32.1,33.5 28.5,40.5 27.8,42.5 				"/>
			</g>
			<g>
				<polygon class="st6" points="37.5,52.7 34.6,51.9 32.4,51.1 32.5,46.6 27.3,42.7 27.7,42.2 33.1,46.3 33,50.7 34.8,51.3 
					37.7,52.1 				"/>
			</g>
		</g>
	</g>
</g>
</svg>
