<?xml version="1.0" encoding="utf-8"?>
<!-- Generator: Adobe Illustrator 19.0.0, SVG Export Plug-In . SVG Version: 6.00 Build 0)  -->
<svg version="1.1" xmlns="http://www.w3.org/2000/svg" xmlns:xlink="http://www.w3.org/1999/xlink" x="0px" y="0px"
	 viewBox="0 0 56 55.1" style="enable-background:new 0 0 56 55.1;" xml:space="preserve">
<style type="text/css">
	.st0{opacity:0.7;}
	.st1{fill:#05DCFF;}
	.st2{opacity:0.5;fill:#05DCFF;}
	.st3{opacity:0.5;}
	.st4{opacity:0;fill:#1F0159;}
	.st5{opacity:9.090900e-002;fill:#1D1568;}
	.st6{opacity:0.1818;fill:#1A2977;}
	.st7{opacity:0.2727;fill:#183D86;}
	.st8{opacity:0.3636;fill:#165195;}
	.st9{opacity:0.4545;fill:#1365A4;}
	.st10{opacity:0.5455;fill:#1178B4;}
	.st11{opacity:0.6364;fill:#0E8CC3;}
	.st12{opacity:0.7273;fill:#0CA0D2;}
	.st13{opacity:0.8182;fill:#0AB4E1;}
	.st14{opacity:0.9091;fill:#07C8F0;}
	.st15{fill:#FFBFA2;}
	.st16{fill:#FFBF99;}
	.st17{fill:#57B3FF;}
	.st18{enable-background:new    ;}
	.st19{clip-path:url(#SVGID_2_);enable-background:new    ;}
	.st20{fill:#EFF6FE;}
	.st21{clip-path:url(#SVGID_4_);enable-background:new    ;}
	.st22{fill:#CDDCFB;}
	.st23{fill:#98A4E0;}
	.st24{fill:#15D9FD;}
	.st25{opacity:0.3;fill:#47E0FF;}
	.st26{fill:#C6D5FA;}
	.st27{fill:#6E4CB3;}
	.st28{fill:#5E3E9E;}
	.st29{fill:#8763CD;}
	.st30{fill:#5798FF;}
	.st31{fill:#069AFF;}
	.st32{fill:#D6AF75;}
	.st33{fill:#F3A984;}
	.st34{fill:#BECEF9;}
	.st35{fill:#D6E3FC;}
	.st36{fill:#ECF5FE;}
	.st37{fill:#E6F1FE;}
	.st38{clip-path:url(#SVGID_6_);enable-background:new    ;}
	.st39{clip-path:url(#SVGID_8_);}
	.st40{fill:#D4E2FC;}
	.st41{clip-path:url(#SVGID_10_);}
	.st42{fill:#DAE8FD;}
	.st43{opacity:0.4;fill:url(#SVGID_11_);}
	.st44{fill:#F1F1F1;}
	.st45{opacity:0.4;fill:url(#SVGID_12_);}
	.st46{opacity:0.4;fill:url(#SVGID_13_);}
</style>
<g id="Layer_1">
</g>
<g id="Layer_2">
	<g id="_x30_2_x5F_man_x5F_statue_1_">
		<g id="grid_11_" class="st0">
			<g>
				<path class="st1" d="M35.1,54.4L35.1,54.4L16.3,43.5l18.9-10.9l0,0L54,43.5L35.1,54.4z M16.5,43.5l18.7,10.8l18.7-10.8
					L35.1,32.7L16.5,43.5z"/>
			</g>
			<g>
				
					<rect x="41.4" y="36.3" transform="matrix(0.5003 0.8659 -0.8659 0.5003 61.4828 -12.3082)" class="st1" width="0.1" height="21.7"/>
			</g>
			<g>
				
					<rect x="38.2" y="34.5" transform="matrix(0.4993 0.8664 -0.8664 0.4993 58.4141 -10.4799)" class="st1" width="0.1" height="21.7"/>
			</g>
			<g>
				
					<rect x="35.1" y="32.7" transform="matrix(0.5003 0.8659 -0.8659 0.5003 55.2261 -8.6947)" class="st1" width="0.1" height="21.7"/>
			</g>
			<g>
				
					<rect x="32" y="30.8" transform="matrix(0.5003 0.8659 -0.8659 0.5003 52.0977 -6.888)" class="st1" width="0.1" height="21.7"/>
			</g>
			<g>
				
					<rect x="28.8" y="29" transform="matrix(0.5003 0.8659 -0.8659 0.5003 48.9693 -5.0812)" class="st1" width="0.1" height="21.7"/>
			</g>
			<g>
				<rect x="30.6" y="39.8" transform="matrix(0.866 0.5 -0.5 0.866 25.4892 -15.3591)" class="st1" width="21.7" height="0.1"/>
			</g>
			<g>
				<rect x="27.4" y="41.6" transform="matrix(0.866 0.5 -0.5 0.866 25.9733 -13.5522)" class="st1" width="21.7" height="0.1"/>
			</g>
			<g>
				<rect x="24.3" y="43.5" transform="matrix(0.866 0.5 -0.5 0.866 26.4574 -11.7455)" class="st1" width="21.7" height="0.1"/>
			</g>
			<g>
				<rect x="21.2" y="45.3" transform="matrix(0.866 0.5 -0.5 0.866 26.9414 -9.9386)" class="st1" width="21.7" height="0.1"/>
			</g>
			<g>
				<rect x="18" y="47.1" transform="matrix(0.866 0.5 -0.5 0.866 27.4255 -8.1318)" class="st1" width="21.7" height="0.1"/>
			</g>
		</g>
		<g id="glow_7_">
			<path class="st2" d="M41,39.5c3.8,2.2,3.8,5.8,0,8.1c-3.8,2.2-9.9,2.2-13.6,0c-3.8-2.2-3.8-5.8,0-8.1
				C31.2,37.2,37.3,37.2,41,39.5z"/>
			<g class="st3">
				<path class="st4" d="M39.3,39.5c-3.8,1.4-8.8,1.1-12.1-0.9c-3.9-2.3-3.9-6,0-8.3c3.9-2.3,10.1-2.3,14,0c3.9,2.3,3.9,6,0,8.3
					C40.6,39,40,39.3,39.3,39.5"/>
				<path class="st5" d="M39.5,40.3c-3.8,1.4-8.9,1.2-12.2-0.8c-3.8-2.3-3.8-6,0-8.3c3.8-2.3,10.1-2.3,13.9,0
					c3.8,2.3,3.8,5.9,0.1,8.2C40.7,39.7,40.1,40,39.5,40.3"/>
				<path class="st6" d="M39.6,41c-3.8,1.5-9,1.3-12.4-0.7c-3.8-2.3-3.8-6,0-8.2c3.8-2.3,10.1-2.3,13.9,0c3.7,2.2,3.8,5.8,0.3,8
					C40.9,40.4,40.3,40.7,39.6,41"/>
				<path class="st7" d="M39.8,41.7c-3.8,1.6-9.1,1.4-12.5-0.6c-3.8-2.3-3.8-5.9,0-8.2c3.8-2.3,10-2.3,13.9,0
					c3.7,2.2,3.8,5.7,0.4,7.9C41,41.1,40.4,41.4,39.8,41.7"/>
				<path class="st8" d="M39.9,42.4c-3.8,1.7-9.2,1.5-12.6-0.6c-3.8-2.3-3.8-5.9,0-8.2c3.8-2.3,10-2.3,13.8,0
					c3.6,2.1,3.8,5.6,0.5,7.8C41.1,41.9,40.5,42.2,39.9,42.4"/>
				<path class="st9" d="M40.1,43.2c-3.8,1.8-9.3,1.6-12.8-0.5c-3.8-2.3-3.8-5.9,0-8.2c3.8-2.3,10-2.3,13.8,0
					c3.6,2.1,3.8,5.5,0.6,7.7C41.3,42.6,40.7,42.9,40.1,43.2"/>
				<path class="st10" d="M40.2,43.9c-3.8,1.8-9.4,1.7-12.9-0.4c-3.8-2.3-3.8-5.9,0-8.2c3.8-2.3,10-2.3,13.8,0
					c3.5,2.1,3.8,5.4,0.8,7.6C41.4,43.3,40.8,43.6,40.2,43.9"/>
				<path class="st11" d="M40.4,44.6c-3.8,1.9-9.5,1.8-13.1-0.3c-3.8-2.2-3.8-5.9,0-8.1c3.8-2.2,10-2.2,13.8,0
					c3.5,2,3.7,5.2,0.9,7.5C41.5,44,41,44.3,40.4,44.6"/>
				<path class="st12" d="M40.6,45.4c-3.8,2-9.6,1.9-13.2-0.2c-3.8-2.2-3.8-5.9,0-8.1c3.8-2.2,9.9-2.2,13.7,0c3.4,2,3.7,5.1,1,7.4
					C41.6,44.7,41.1,45.1,40.6,45.4"/>
				<path class="st13" d="M40.7,46.1c-3.8,2.1-9.7,2-13.3-0.2c-3.8-2.2-3.8-5.9,0-8.1c3.8-2.2,9.9-2.2,13.7,0c3.3,2,3.7,5,1.1,7.3
					C41.8,45.4,41.3,45.8,40.7,46.1"/>
				<path class="st14" d="M40.9,46.8c-3.8,2.1-9.8,2.1-13.5-0.1c-3.8-2.2-3.8-5.9,0-8.1c3.8-2.2,9.9-2.2,13.7,0
					c3.3,1.9,3.7,4.9,1.3,7.1C41.9,46.2,41.4,46.5,40.9,46.8"/>
				<path class="st1" d="M41,39.5c3.8,2.2,3.8,5.8,0,8.1c-3.8,2.2-9.9,2.2-13.6,0c-3.8-2.2-3.8-5.8,0-8.1
					C31.2,37.2,37.3,37.2,41,39.5z"/>
			</g>
		</g>
		<g id="man_36_">
			<path class="st15" d="M23.2,10.2c-0.1-0.1-0.3-0.3-0.4-0.2c-0.1,0.1-0.1,0.3-0.1,0.5c0,0.2,0,0.4,0.1,0.6
				c0.1,0.2,0.2,0.4,0.2,0.6c0,0.1,0,0.1,0,0.2c0.4,0.3,0.7,0.6,1.1,1c0.1-0.1,0.1-0.3,0.1-0.4C24.1,11.6,23.7,10.9,23.2,10.2z"/>
			<path class="st16" d="M13.4,10.5C13.4,10.5,13.3,10.5,13.4,10.5c-0.1-0.2,0-0.5,0-0.7c0.1-0.6-0.1-1.2,0-1.8
				c0-0.2,0.1-0.4,0.2-0.5c0.1-0.1,0.2-0.2,0.4-0.3c0,0,0.7-0.4,0.7-0.4c0.4,0.8,0.5,1.7,0.2,2.5L13.4,10.5z"/>
			<path class="st17" d="M12.1,10.2c-1.4,0.3-2.8,0.6-4.2,1.1c-0.6,0.2-1.2,0.4-1.7,0.9c-0.5,0.5-0.5,1.3-0.3,1.9
				c0.1,0.4,0.3,0.7,0.7,0.8C7,15,7.6,14.8,7.9,14.7c0.9-0.3,1.8-0.6,2.6-1c0.3-0.1,0.6-0.3,0.9-0.5c0.4-0.2,0.8-0.5,1.3-0.7
				C12.2,11.8,12,11,12.1,10.2z"/>
			<g>
				<g class="st18">
					<g class="st18">
						<defs>
							<path id="SVGID_1_" class="st18" d="M22.4,15l0.2-0.1c0.1-0.1,0.2-0.2,0.2-0.3l-0.2,0.1C22.5,14.8,22.4,15,22.4,15z"/>
						</defs>
						<use xlink:href="#SVGID_1_"  style="overflow:visible;fill:#EFF6FE;"/>
						<clipPath id="SVGID_2_">
							<use xlink:href="#SVGID_1_"  style="overflow:visible;"/>
						</clipPath>
						<g class="st19">
							<path class="st20" d="M22.4,15l0.2-0.1c0.1-0.1,0.2-0.2,0.2-0.3l-0.2,0.1C22.5,14.8,22.4,15,22.4,15L22.4,15z"/>
						</g>
					</g>
					<g>
						<polygon class="st20" points="22.5,14.7 22.7,14.5 22.8,9.6 22.5,9.8 						"/>
					</g>
					<g>
						<polygon class="st20" points="22,8.9 22.2,8.7 15.2,4.7 15,4.8 						"/>
					</g>
					<g class="st18">
						<defs>
							<path id="SVGID_3_" class="st18" d="M22.5,9.8l0.2-0.1c0-0.3-0.2-0.7-0.5-0.9L22,8.9C22.3,9,22.5,9.4,22.5,9.8z"/>
						</defs>
						<use xlink:href="#SVGID_3_"  style="overflow:visible;fill:#EFF6FE;"/>
						<clipPath id="SVGID_4_">
							<use xlink:href="#SVGID_3_"  style="overflow:visible;"/>
						</clipPath>
						<g class="st21">
							<path class="st20" d="M22.5,9.8l0.2-0.1c0-0.1,0-0.3-0.1-0.4l-0.2,0.1C22.5,9.5,22.5,9.6,22.5,9.8L22.5,9.8z"/>
							<path class="st20" d="M22.4,9.4l0.2-0.1c0-0.1-0.1-0.2-0.2-0.3l-0.2,0.1C22.3,9.2,22.4,9.3,22.4,9.4L22.4,9.4z"/>
							<path class="st20" d="M22.3,9.1L22.5,9c-0.1-0.1-0.2-0.2-0.3-0.2L22,8.9C22.1,8.9,22.2,9,22.3,9.1L22.3,9.1z"/>
						</g>
					</g>
					<g>
						<path class="st22" d="M15,4.8c-0.3-0.2-0.5,0-0.5,0.3l0,4.9c0,0.3,0.2,0.7,0.5,0.9l7,4.1c0.3,0.2,0.5,0,0.5-0.3l0-4.9
							c0-0.3-0.2-0.7-0.5-0.9L15,4.8z"/>
						<path class="st23" d="M14.7,10c0,0.2,0.2,0.5,0.4,0.7l7,4.1c0,0,0.1,0,0.1,0c0,0,0,0,0-0.1v0l0-4.9c0-0.2-0.2-0.5-0.4-0.7
							l-7-4l-0.1,0c0,0-0.1,0-0.1,0c0,0,0,0,0,0.1L14.7,10z"/>
						<path class="st24" d="M14.9,10c0,0.2,0.2,0.5,0.4,0.7l7,4l0-4.9c0-0.2-0.2-0.5-0.4-0.7l-7-4L14.9,10z"/>
					</g>
				</g>
				<path class="st20" d="M14.8,4.6l-0.2,0.1c0.1-0.1,0.2,0,0.4,0l0.2-0.1C15.1,4.6,14.9,4.6,14.8,4.6z"/>
				<polygon class="st25" points="20.5,8.3 22.2,11.1 22.2,12.2 19.2,7.6 				"/>
				<polygon class="st25" points="22.2,13.4 22.2,14.6 21.8,14.4 15.8,5.6 17.8,6.8 				"/>
			</g>
			<path class="st15" d="M22.9,11.9c0,0-0.1,0.1-0.1,0.1c-0.2,0.1-0.5,0.2-0.6,0c0-0.1,0-0.2,0-0.3c0-0.2,0.1-0.4,0.1-0.6
				c0-0.1,0-0.2-0.1-0.3c-0.1,0-0.1,0-0.2,0.1c-0.1,0.1-0.2,0.3-0.3,0.5c0,0.1-0.1,0.1-0.1,0.2c-0.3,0.6-0.5,1.1-0.7,1.7
				c-0.1,0.4-0.1,0.7-0.1,1c0,0.3,0.1,0.6,0.1,0.8c0.1,0.2,0.1,0.4,0.3,0.6c0.2,0.1,0.4-0.1,0.6-0.2c0.2-0.2,0.3-0.5,0.5-0.8
				c0.1-0.1,0.1-0.3,0.2-0.4c0.1-0.1,0.2-0.2,0.4-0.3c0.3-0.2,0.6-0.5,0.8-0.8c0.1-0.2,0.3-0.4,0.4-0.6
				C23.6,12.5,23.3,12.1,22.9,11.9C22.9,11.9,22.9,11.9,22.9,11.9z"/>
			<g id="man_37_">
				<g>
					<g>
						<g>
							<path class="st23" d="M6.9,48.8c0-0.1,0.1-0.2,0.4-0.2c0.3,0,0.6,0,0.9-0.1c0.4,0,0.8,0,1.2-0.1c0-0.3,0-0.6-0.1-0.9
								c0.4,0.1,0.6,0,1-0.2c0.5-0.2,0.9-0.3,1.4-0.5c0.2-0.1,0.4-0.1,0.6-0.1c0.5,0.1,0.8,1,0.7,1.4c-0.1,0.3-0.3,0.6-0.5,0.8
								c-0.4,0.3-0.9,0.5-1.4,0.6c-0.5,0.1-1,0.2-1.4,0.6C9.1,50.6,8.8,51,8,51.1c-0.7,0.1-1.3-0.4-1.3-1.1c0-0.3,0-0.5,0.1-0.8
								C6.8,49,6.8,48.9,6.9,48.8z"/>
							<path class="st26" d="M9,49.7c0-0.1,0-0.1,0-0.2c0-0.6,0.2-1.1,0.4-1.6c0.1-0.2,0.2-0.4,0.3-0.5c0.4-0.3,1,0,1.2,0.4
								c0.1,0.2,0.2,0.4,0.3,0.6c0.2,0.4,0.6,0.9,1.1,0.9c0.6,0,1.3-0.2,2-0.2c0.2,0,0.5,0,0.7,0.1c0.5,0.2,0.7,1.1,0.5,1.6
								c-0.1,0.3-0.4,0.5-0.7,0.7c-0.4,0.2-1,0.3-1.5,0.3c-0.5,0-1,0-1.5,0.2c-0.8,0.4-1.8,0.9-2.6,0.2c-0.2-0.2-0.3-0.5-0.4-0.8
								C8.8,50.7,9,50.2,9,49.7z"/>
						</g>
					</g>
				</g>
			</g>
			<path class="st27" d="M9.3,37.6l0.3-1.2C9.5,36.7,9.4,37.2,9.3,37.6z"/>
			<path class="st27" d="M4.5,27.7c-0.1,1-0.1,1.9-0.1,2.8c0.1,1,0.3,1.9,0.6,3.6c0.3,1.7,0.4,2,0.5,2.8c-0.1-0.1-0.6,5.9,1,11.3
				c0.1,0.3,0.2,0.7,0.5,0.9c0.2,0.1,0.3,0.1,0.5,0.2c0.2,0,0.4,0,0.5,0c0.2,0,0.4-0.1,0.5-0.3c0.1-0.2,0.2-0.4,0.3-0.6
				c0.1-0.4,0.1-0.8,0.1-1.2c0-1.9-0.1-3.7-0.1-5.6c0-1.1,0-2.2,0.2-3.2c0.3-1.2,0.6-2.5,0.8-3.7c0.2-1.2,0.1-2.4,0.4-3.6
				c0.2-0.9,0.4-2.3,0.4-3.6H4.5z"/>
			<path class="st28" d="M9.2,25c0,0.2-1.5,0.9-1.9,0.5c-0.1-0.1-0.2-0.3-0.4-0.5c-1.6,1.7-2,4.5-1.1,6.3c0.6,1.3,1.6,4.5,1.9,8.1
				c0.4,4,0.1,8.5,0.1,10.1c0.1,0,0.2,0,0.3,0c0.2,0,0.4-0.1,0.5-0.3c0.1-0.2,0.2-0.4,0.3-0.6c0.1-0.4,0.1-0.8,0.1-1.2
				c0-1.9-0.1-3.7-0.1-5.6c0-1.1,0-2.2,0.2-3.2c0.3-1.2,0.6-2.5,0.8-3.7c0.2-1.2,0.1-2.4,0.4-3.6C10.8,29.1,11,23.6,9.2,25z"/>
			<path class="st29" d="M10.1,25.9c0.2-0.1,1-0.5,1-0.8c0-0.2,0.4-0.3,0.5-0.3c0.2,0,0.4,0.1,0.6,0.2c0.4,0.3,0.7,0.7,0.9,1.2
				c0.2,0.6,0.3,1.3,0.3,2c0.1,2.1,0.1,4.1-0.2,6.2c-0.1,1-0.3,2.1-0.5,3.1c-0.1,0.5-0.2,1-0.3,1.5c-0.1,0.5-0.2,0.6-0.6,0.9
				c-0.9,0.6-2.5,0.5-3.1-0.5c-0.7-1.1-0.4-2.7-0.6-3.9c-0.3-1.8-1.5-3-2-4.7c-0.4-1.2-0.3-2.4-0.1-3.6c0.1-0.6,0.3-2,0.9-2.3
				C7,24.8,8.1,24.6,9,25.5C9.5,26,9.4,26.2,10.1,25.9z"/>
			<g>
				<g>
					<g>
						<g>
							<g>
								<path class="st17" d="M4.1,21.1c0-0.3-0.1-0.6-0.1-0.9c-0.3-1.5-0.7-2.9-0.9-4.4c-0.1-1.2-0.2-2.6,0.7-3.5
									C3.9,12.1,4,12,4.2,11.9c1.8-1,3.5,0.2,5.1,0.8c1.1,0.4,2.1,0.9,3.1,1.5c0.3,0.2,0.7,0.4,0.9,0.7c0.2,0.4,0.4,0.7,0.4,1.2
									c0,0.5-0.1,1-0.1,1.5c-0.5,2.8-0.7,5.7-0.3,8.6c0.1,1.2,0.3,4.6,0.3,4.6c-0.4,0.2-0.7,0.3-2.7,0.4c-4.1,0.1-6.4-1-6.6-1.2
									c-0.2-0.2-0.2-0.7-0.2-1c0-0.9,0-1.8,0-2.7C4.2,24.6,4.3,22.8,4.1,21.1z"/>
							</g>
						</g>
					</g>
				</g>
			</g>
			<g>
				<g>
					<g>
						<g>
							<g>
								<path class="st30" d="M13.8,16.1c0-0.4-0.2-0.8-0.4-1.2c-0.2-0.3-0.6-0.5-0.9-0.7c-0.2-0.1-0.4-0.3-0.6-0.4
									c-1.3,1.1-3.1,2.4-2.2,4c2.4,4.2,2.9,8.7,3,13.2c0.5-0.1,0.6-0.2,0.9-0.3c0,0-0.1-3.4-0.3-4.6c-0.3-2.9-0.1-5.8,0.3-8.6
									C13.7,17.1,13.8,16.6,13.8,16.1z"/>
							</g>
						</g>
					</g>
				</g>
			</g>
			<g>
				<g>
					<g>
						<g>
							<g>
								<path class="st31" d="M10.2,13.1c-0.3-0.1-0.6-0.3-0.9-0.3c-1.2-0.4-2.3-1.1-3.5-1.2c-0.6,0.9-0.1,1.9,0.7,2.3
									c1.1,0.5,2.5,0.5,3.5-0.2C10.3,13.5,10.4,13.2,10.2,13.1z"/>
							</g>
						</g>
					</g>
				</g>
			</g>
			<path class="st29" d="M12.4,40c-0.1,0.9-0.1,1.8-0.2,2.7c0,0.7-0.1,1.4-0.1,2.1c0,0.5-0.1,1.1-0.1,1.6c-0.1,3,0.2,3.7-1.2,4.1
				c-0.3,0.1-0.7,0.1-1,0c-0.9-0.2-1.1-1-1.2-2c-0.1-0.6-0.1-1.2-0.1-1.8c0-0.5,0-1,0-1.4c0-0.7,0-1.3,0-2c0-0.9,0-1.7,0-2.6
				c0-1.1-0.1-2.2-0.1-3.3c0-0.2,0.1-0.3,0.2-0.4c0.2-0.1,3.5,1.1,3.8,1.5C12.4,38.4,12.5,38.9,12.4,40z"/>
			<path class="st17" d="M13.1,14.6c-0.6-0.4-1.3-0.7-2-0.4c-0.3,0.1-0.5,0.3-0.7,0.6c-0.5,0.6-0.8,1.4-0.8,2.2c0,0.2,0,0.3,0.1,0.5
				c0.2,0.5,0.7,0.7,1.2,0.9c0.6,0.3,1.1,0.6,1.6,0.9c1.1,0.6,2.1,1.3,3.3,1.7c0.7,0.3,1.4,0.5,2.1,0.2c0.4-0.2,0.8-0.6,0.9-1.1
				c0.2-1.2-0.6-1.4-0.8-1.5C14.3,15.7,13,14.5,13.1,14.6z"/>
			<path class="st17" d="M21.9,13.8c0.2,0.1,0.6,0.4,0.6,0.7c0,0.2-0.3,0.6-0.4,0.8c-0.3,0.6-0.7,1.3-1,1.9
				c-0.2,0.3-0.3,0.6-0.5,0.8c-0.5,0.8-1,1.6-1.7,2.3c-0.2,0.3-0.6,0.7-1,0.8c-0.4,0.1-0.7-0.1-1-0.3c-0.5-0.4-0.9-1.1-0.8-1.8
				c0.1-0.7,0.6-1.2,1-1.7c1-1.1,2-2.2,3.1-3.2c0.2-0.2,0.4-0.4,0.6-0.5C21.2,13.6,21.5,13.7,21.9,13.8z"/>
			<path class="st16" d="M15.3,8.7C15.1,9.2,15,9.6,15,10.1c0,0.2,0,0.4-0.1,0.6c-0.1,0.3-0.4,0.6-0.7,0.8c-0.1,0.1-0.3,0.2-0.5,0.2
				c0-0.1,0.1-0.2,0-0.4c0-0.2-0.1-0.3-0.2-0.4c-0.1-0.1-0.2-0.1-0.3-0.2c-0.1-0.2,0-0.4,0.1-0.6c0.1-0.2,0.1-0.5,0.2-0.7
				c0-0.1,0.1-0.1,0.1-0.2c0.1,0,0.1-0.1,0.2-0.1c0.1,0,0.1,0.2,0.1,0.3c0,0,0,0,0,0.1c0,0,0.1,0,0.1-0.1c0.1-0.2,0.3-0.5,0.4-0.7
				c0.1-0.2,0.2-0.4,0.4-0.5c0,0,0.1,0,0.1,0c0,0,0,0,0,0c0.1,0,0.1,0.1,0.2,0.2C15.4,8.4,15.4,8.6,15.3,8.7z"/>
			<path class="st17" d="M13.8,10.8c-0.2-0.3-0.5-0.6-0.8-0.6c-0.3,0-0.5,0-0.8,0c-0.1,0-0.1,0-0.2,0c-0.1,0.8,0.1,1.6,0.5,2.3
				c0.2-0.1,0.4-0.2,0.6-0.3c0.2-0.1,0.6-0.3,0.7-0.5C14.1,11.4,13.9,11,13.8,10.8z"/>
			<path class="st15" d="M9.8,11.3c0.1-0.4,0.4-0.3,0.2-0.7c-0.1-0.3-0.4-0.6-0.6-0.9c-0.3-0.2-0.7-0.4-1-0.3C8.2,9.3,8.1,9.4,8,9.4
				c-0.3,0-0.7-0.1-1,0c-0.3,0-0.7,0.1-0.7,0.5c0,0.5,0,1-0.1,1.5c-0.1,0.3-0.2,0.5-0.2,0.8c0,0.6,0.4,1.1,0.9,1.3
				c0.6,0.3,1.3,0.3,2,0.2c0.3,0,0.8-0.1,1-0.4c0.1-0.2,0.1-0.6,0.1-0.8C9.8,12.1,9.7,11.7,9.8,11.3z"/>
			<g>
				<g>
					<path class="st15" d="M11.3,5.7c0.2,0.3,0.4,0.5,0.4,0.9c0.1,0.7-0.2,1.5,0,2.3c0.2,0.7-0.2,2.3-1.6,2.8
						c-0.7,0.2-2.1,0-2.6-0.3c-0.6-0.3-1-0.9-1.4-1.5C3.2,5.1,9.3,3.2,11.3,5.7z"/>
				</g>
				<path class="st32" d="M5.3,4.7c0.1-0.1,0.3-0.3,0.5-0.4c0.1,0,0.1-0.1,0.2-0.1c0,0,0.1-0.1,0.1-0.1c0.1-0.2,0.3-0.4,0.5-0.5
					c0.8-0.4,1.7-0.5,2.6-0.3c0.3,0,0.6,0.1,0.9,0.2c0.3,0.1,0.6,0.3,0.9,0.6c0.5,0.4,1,1.1,1,1.8c0,0.2-0.1,0.3-0.2,0.4
					c-0.1,0.1-0.1,0.2-0.2,0.3c-0.2,0.3-0.3,0.7-0.5,1C11.1,7.8,11,7.9,10.9,8c-0.3,0.2-0.6,0-0.9,0.1C9.8,8.1,9.7,8.3,9.6,8.4
					C9.5,8.6,9.4,8.8,9.4,8.9C9.3,9.2,9.3,9.4,9.3,9.7c0,0.3-0.1,0.6-0.3,0.8c-0.4,0.5-1.3,0.4-1.8,0.3c-0.2,0-0.4-0.1-0.6-0.2
					c-0.4-0.2-0.7-0.6-1-1C5.3,9.2,5.1,8.9,4.9,8.5C4.9,8.2,4.8,8,4.8,7.7C4.6,6.7,4.5,5.5,5.3,4.7z"/>
				<path class="st15" d="M9.6,7.8C9.1,7.7,8.9,8.4,9.3,9c0.1,0.2,0.3,0.3,0.5,0.4c1,0.9,1.3,0,1-0.3C10,8.4,10.4,7.8,9.6,7.8z"/>
				<path class="st33" d="M9.8,8.8C9.7,8.8,9.1,8.4,9.5,8.1c0.1-0.1,0.3,0,0.3,0.2c0,0.1,0,0.1,0,0.2c0,0,0,0.1,0,0.1
					c0.1,0.1,0.3,0.2,0.2,0.3C10,9.1,9.8,8.9,9.8,8.8z"/>
			</g>
		</g>
		<g id="statue_1_">
			<g>
				<g class="st18">
					<g>
						<polygon class="st34" points="41.4,35.9 41.4,44 34.1,48.2 34.1,40.1 						"/>
					</g>
					<g>
						<polygon class="st35" points="34.1,40.1 34.1,48.2 26.8,44 26.8,35.9 						"/>
					</g>
					<g>
						<polygon class="st36" points="41.4,35.9 34.1,40.1 26.8,35.9 34.1,31.7 						"/>
					</g>
				</g>
			</g>
			<g id="Themis_1_">
				<path class="st37" d="M35.1,16.3c-0.2-0.4-1.4-0.3-1.8,0.1c-0.2,0.3-0.3,0.9-0.3,1c-0.1,0.7,0.2,3.4,0.1,4
					c0,0.2-0.2,2.1-0.3,2.5c-0.1,0.3-0.2,0.9-0.3,1.2c0,0.2,0,0.4,0.1,0.5c0,0,0.1,0.1,0.1,0.1c0,0,0.1,0,0.2,0c0,0,0.1-0.1,0.1-0.1
					c0.1-0.4,0.4-1.2,0.5-1.2c0.2-0.1,0.3-0.3,0.5-1.8c0-0.3,0.3-1.6,0.4-1.8c0,0,0-0.1,0-0.1c0.1-0.2,0.1-0.4,0.2-0.6
					c0.1-0.2,0.1-0.5,0.2-0.7C34.8,19.1,35.2,16.6,35.1,16.3z"/>
				<g>
					<g>
						<g>
							<g class="st18">
								<g class="st18">
									<defs>
										<path id="SVGID_5_" class="st18" d="M29.5,34.7l0,1c0,0.7,0.4,1.4,1.3,1.9c1.8,1,4.7,1,6.5,0c0.9-0.5,1.4-1.2,1.4-1.9l0-1
											c0,0.7-0.5,1.4-1.4,1.9c-1.8,1-4.7,1-6.5,0C29.9,36.1,29.5,35.4,29.5,34.7z"/>
									</defs>
									<use xlink:href="#SVGID_5_"  style="overflow:visible;fill:#D6E3FC;"/>
									<clipPath id="SVGID_6_">
										<use xlink:href="#SVGID_5_"  style="overflow:visible;"/>
									</clipPath>
									<g class="st38">
										<path class="st26" d="M29.5,34.7l0,1c0,0.2,0,0.3,0.1,0.5l0-1C29.5,35,29.5,34.9,29.5,34.7L29.5,34.7z"/>
										<path class="st26" d="M29.6,35.2l0,1c0.1,0.4,0.4,0.7,0.8,1.1l0-1C29.9,35.9,29.7,35.6,29.6,35.2L29.6,35.2z"/>
										<path class="st35" d="M30.3,36.2l0,1c0.1,0.1,0.3,0.2,0.5,0.3c0.3,0.2,0.6,0.3,0.9,0.4l0-1c-0.3-0.1-0.6-0.3-0.9-0.4
											C30.6,36.5,30.5,36.4,30.3,36.2L30.3,36.2z"/>
										<path class="st26" d="M31.7,37l0,1c0.6,0.2,1.2,0.3,1.9,0.4l0-1C33,37.3,32.3,37.2,31.7,37L31.7,37z"/>
										<path class="st26" d="M33.6,37.3l0,1c0.5,0,1,0,1.5-0.1l0-1C34.7,37.3,34.1,37.4,33.6,37.3L33.6,37.3z"/>
										<path class="st34" d="M35.1,37.3l0,1c0.8-0.1,1.6-0.3,2.2-0.7c0.9-0.5,1.4-1.2,1.4-1.9l0-1c0,0.7-0.5,1.4-1.4,1.9
											C36.7,36.9,36,37.2,35.1,37.3L35.1,37.3z"/>
									</g>
								</g>
								<g>
									<path class="st20" d="M30.8,32.8c-1.8,1-1.8,2.7,0,3.8c1.8,1,4.7,1,6.5,0c1.8-1,1.8-2.7,0-3.8
										C35.6,31.7,32.7,31.7,30.8,32.8z"/>
								</g>
							</g>
						</g>
					</g>
					<path class="st22" d="M36.3,34.4l-0.1,0.1l-0.1,0v0l0.4-0.2L36.3,34.4z"/>
					<path class="st23" d="M32.4,24.5c-0.2,0.6-0.3,1.9-0.6,2.5c-0.1,0.3-0.2,0.1-0.2,0.4c0,0.3,0,0.7,0,1c0,0.7,0.2,1.5,0.4,2.2
						c0,0.1,0.1,0.2,0.1,0.3c0.1,0.1,0.2,0.2,0.3,0.2c0.1,0,0.2,0,0.3-0.1c0.2-0.1,0.4-0.3,0.7-0.4c0.3-0.1,0.7-0.2,1,0
						c0.3,0.2,0.5,0.4,0.7,0.7c0.1,0.1,0.2,0.2,0.3,0.2c0.1,0,0.3,0,0.4-0.1c0.1-0.1,0.1-0.2,0.1-0.3c0.1-0.4,0.1-0.9,0.1-1.3
						c0-0.7,0.1-1.4,0-2.1c-0.1-0.6-0.3-1.1-0.5-1.7c-0.1-0.2-0.1-0.4-0.1-0.6c-0.7-0.4-1.5-0.8-2.3-1c0,0.1-0.1,0.1-0.2,0.1
						L32.4,24.5z"/>
					<path class="st26" d="M37.8,15.3c0,0.2,0,0.4-0.2,0.4c0.1,0.3,0.1,0.6,0,0.9c0.1,0,0.1,0.1,0.1,0.1c0,0.2,0.1,0.3,0.1,0.5
						c0,0.2-0.1,0.3-0.3,0.4c-0.1,0-0.3,0-0.4-0.2c-0.1-0.1-0.1-0.3-0.1-0.4c0.1,0,0.1,0.1,0.1,0.1c0,0.1-0.1,0.1-0.2,0.1
						c-0.3,0-0.6-0.3-0.5-0.6c0.1,0,0.1,0.1,0.1,0.1c-0.3-0.1-0.5-0.2-0.6-0.5c0.1,0,0.1,0,0.2-0.1c-0.4-0.2-0.5-0.7-0.4-1.1
						c0-0.1,0.1-0.2,0.2-0.3c0.1,0,0.3,0,0.3,0.1c-0.4-0.1-0.8-0.5-0.9-0.9c0.4-0.1,1.7-0.8,1.6,0.1c0.5,0,0.3,0.4,0.4,0.7
						C37.5,15,37.8,15,37.8,15.3z"/>
					<g>
						<g>
							<g class="st18">
								<g>
									<g>
										<polygon class="st35" points="32.9,36.7 36.3,34.7 34,33.4 30.6,35.3 										"/>
									</g>
								</g>
								<g class="st18">
									<defs>
										<path id="SVGID_7_" class="st18" d="M33.1,36.7l3.3-1.9c0,0-0.1,0-0.1,0l-3.3,1.9C33,36.7,33,36.7,33.1,36.7z"/>
									</defs>
									<use xlink:href="#SVGID_7_"  style="overflow:visible;fill:#D6E3FC;"/>
									<clipPath id="SVGID_8_">
										<use xlink:href="#SVGID_7_"  style="overflow:visible;"/>
									</clipPath>
									<g class="st39">
										<path class="st35" d="M33.1,36.7l3.3-1.9c0,0-0.1,0-0.1,0l-3.3,1.9C33,36.7,33,36.7,33.1,36.7L33.1,36.7z"/>
									</g>
								</g>
								<g>
									<polygon class="st23" points="32.9,36.7 30.6,35.3 30.6,35.4 32.9,36.7 									"/>
								</g>
							</g>
						</g>
						<g>
							<g class="st18">
								<g>
									<polygon class="st26" points="30.9,34.7 30.9,35.4 33.1,36.7 33.1,36.1 									"/>
								</g>
								<g>
									<polygon class="st35" points="33.1,36.1 33.1,36.7 36,35 36,34.4 									"/>
								</g>
								<g>
									<polygon class="st35" points="30.9,34.7 33.1,36.1 36,34.4 33.7,33.1 									"/>
								</g>
							</g>
						</g>
						<g>
							<path class="st23" d="M33.1,36.6l0-0.2c0-0.1-0.1-0.3-0.2-0.3l-2.3-1.3l0-0.1l2.3,1.3c0.1,0.1,0.2,0.3,0.2,0.4L33.1,36.6
								c0.1,0.2-0.1,0.2-0.2,0.2l0-0.1C33,36.7,33.1,36.7,33.1,36.6z"/>
						</g>
						<g>
							<g>
								<g>
									<polygon class="st36" points="32.9,36 36.3,34.1 34,32.7 30.6,34.7 									"/>
								</g>
								<g>
									<g>
										<path class="st35" d="M34,33l-2.9,1.7l1.9,1.1l2.9-1.7L34,33z"/>
									</g>
								</g>
							</g>
							<path class="st40" d="M33.2,36.4l0,0.2c0,0.1,0,0.1-0.1,0.2l2.8-1.6l0.1-0.1l0.1-0.1l0.1-0.1l0.2-0.1c0,0,0.1-0.1,0.1-0.2
								l0-0.2c0-0.2-0.1-0.3-0.2-0.4L36,34.2l-0.1,0.1l-0.1,0.1l-0.1,0.1L32.9,36C33.1,36.1,33.2,36.3,33.2,36.4z"/>
						</g>
					</g>
					<g>
						<g>
							<g class="st18">
								<g>
									<g>
										<polygon class="st35" points="32.8,35.6 36.2,33.7 33.8,32.3 30.5,34.3 										"/>
									</g>
								</g>
								<g class="st18">
									<defs>
										<path id="SVGID_9_" class="st18" d="M32.9,35.6l3.3-1.9c0,0-0.1,0-0.1,0l-3.3,1.9C32.9,35.6,32.9,35.6,32.9,35.6z"/>
									</defs>
									<use xlink:href="#SVGID_9_"  style="overflow:visible;fill:#D6E3FC;"/>
									<clipPath id="SVGID_10_">
										<use xlink:href="#SVGID_9_"  style="overflow:visible;"/>
									</clipPath>
									<g class="st41">
										<path class="st35" d="M32.9,35.6l3.3-1.9c0,0-0.1,0-0.1,0l-3.3,1.9C32.9,35.6,32.9,35.6,32.9,35.6L32.9,35.6z"/>
									</g>
								</g>
								<g>
									<polygon class="st23" points="32.8,35.6 30.5,34.3 30.5,34.3 32.8,35.7 									"/>
								</g>
							</g>
						</g>
						<g>
							<g class="st18">
								<g>
									<polygon class="st26" points="30.7,33.7 30.8,34.3 33,35.6 33,35 									"/>
								</g>
								<g>
									<polygon class="st35" points="33,35 33,35.6 35.9,34 35.9,33.4 									"/>
								</g>
								<g>
									<polygon class="st35" points="30.7,33.7 33,35 35.9,33.4 33.6,32 									"/>
								</g>
							</g>
						</g>
						<g>
							<path class="st23" d="M33,35.5l0-0.2c0-0.1-0.1-0.3-0.2-0.3l-2.3-1.3l0-0.1l2.3,1.3c0.1,0.1,0.2,0.3,0.2,0.4L33,35.5
								c0.1,0.2-0.1,0.2-0.2,0.2l0-0.1C32.9,35.7,33,35.6,33,35.5z"/>
						</g>
						<g>
							<g>
								<g>
									<polygon class="st36" points="32.8,34.9 36.2,33 33.9,31.7 30.5,33.6 									"/>
								</g>
								<g>
									<g>
										<path class="st35" d="M30.9,33.6l3-1.7l0,0l2,1.1l-3,1.7l0,0L30.9,33.6z"/>
									</g>
								</g>
							</g>
							<path class="st40" d="M33.1,35.4l0,0.2c0,0.1,0,0.1-0.1,0.2l2.8-1.6l0.1-0.1L36,34l0.1-0.1l0.2-0.1c0,0,0.1-0.1,0.1-0.2
								l0-0.2c0-0.2-0.1-0.3-0.2-0.4l-0.3,0.2l-0.1,0.1l-0.1,0.1l-0.1,0.1l-2.7,1.6C32.9,35,33.1,35.2,33.1,35.4z"/>
						</g>
					</g>
					<g>
						<g>
							<path class="st26" d="M31.6,28c0.1,0.2,0.9,0,1,0.2c0.2-0.1,0.5-0.3,0.7-0.5c0.5-0.5,1.9-2.7,1.9-3.6c0-0.4-0.1-0.8-0.4-1
								c-0.1-0.1-0.2-0.2-0.2-0.2c-0.2-0.2,0-0.8-0.2-1.1c-0.3-0.4-0.8-0.2-0.9,0c-0.3,0.5-0.7,1.7-1,2.2c-0.1,0.3-0.8,2-1,2.7
								C31.5,27,31.2,27.5,31.6,28z"/>
							<path class="st34" d="M34.8,23.1c-0.1-0.1-0.2-0.2-0.2-0.2c-0.2-0.2,0-0.8-0.2-1.1c-0.3-0.4-0.8-0.2-0.9,0
								c-0.3,0.5-0.7,1.7-1,2.2c-0.1,0.2-0.4,1.1-0.7,1.8c0.6-0.4,1.3,0.2,1.5,0.7c0.1,0.3,0.2,0.6,0.2,0.9c0.6-0.8,1.6-2.5,1.6-3.3
								C35.2,23.7,35.1,23.3,34.8,23.1z"/>
							<path class="st37" d="M37.7,17.8c0-0.1,0-0.2,0-0.4c-0.1-0.6-0.7-1.1-1.5-1.4c-0.3-0.1-0.4-0.3-0.9-0.3c0,0-0.6,0-0.6,0
								c-0.2,0-0.5,0.1-0.7,0.2c0,0,0,0,0,0c0,0,0,0,0,0v0c-0.2,0.1-0.4,0.2-0.5,0.4c-0.1,0.1-0.1,0.3-0.1,0.5
								c0,0.2-0.1,0.4-0.2,0.6c-0.1,0.2-0.2,0.4-0.3,0.6c-0.1,0.2-0.1,0.5-0.1,0.7c0,0.4,0.2,0.7,0.3,1.1c0.2,0.6,0.2,1.2,0.1,1.8
								c0,0.2-0.1,0.5,0,0.7c0.1,0.2,0.2,0.4,0.4,0.5c0.2,0.2,0.5,0.3,0.7,0.5c0.1,0.2,0.2,0.4,0.4,0.5c0.3,0.3,0.7,0.5,1.1,0.4
								c0.2,0,0.3-0.1,0.4-0.2c0.2-0.2,0.4-0.4,0.5-0.6c0-0.1,0.1-0.2,0.1-0.3c0-0.2-0.1-0.3-0.1-0.5c-0.3-0.7-0.3-1.4-0.2-2.2
								C36.8,19.6,37.4,18.8,37.7,17.8z"/>
							<path class="st26" d="M35.1,28.8c0,1.3,0.3,2.9,0.3,4.2c0,0.4,0,1.4-0.1,1.7c0,0.2,0.4,0.7,0.6,0.6c0.1-0.1,0.3-0.6,0.3-0.7
								c0.1-0.7,0.5-1.4,0.7-2.1c0.2-0.7,0.1-1.8-0.1-2.6c-0.1-0.1-0.1-0.3-0.3-0.4L35.1,28.8z"/>
							<path class="st26" d="M36.6,29.9c-0.1-0.1-0.1-0.3-0.3-0.4l-1.3-0.7c0,1.1,0.2,2.4,0.3,3.6c0.5,0,1,0,1.4-0.1
								C36.9,31.6,36.9,30.6,36.6,29.9z"/>
							<path class="st34" d="M35.4,32.4c0,0.2,0,0.4,0,0.6c0,0.2,0,0.5,0,0.8c0.2-0.1,0.5,0,0.5,0.1c0.1,0.3,0.2,0.6,0.2,1
								c0-0.1,0.1-0.2,0.1-0.3c0.1-0.7,0.5-1.4,0.7-2.1c0,0,0-0.1,0-0.2C36.3,32.3,35.8,32.4,35.4,32.4z"/>
							<path class="st26" d="M35.3,34.6c0,0.4-0.2,0.7-0.4,1c-0.2,0.3-0.5,0.5-0.7,0.8c0,0.1-0.1,0.1-0.1,0.2c0,0.2,0.2,0.1,0.4,0.1
								c0.1,0,0.1,0,0.2,0c0.2,0,0.4,0,0.6-0.1c0.2-0.1,0.4-0.4,0.5-0.5c0.2-0.2,0.4-0.4,0.4-0.6c0-0.2-0.1-0.4-0.2-0.6
								c0-0.2,0.1-0.5,0-0.6c-0.1-0.1-0.2-0.1-0.3-0.1c-0.1,0-0.2,0.1-0.3,0.2L35.3,34.6z"/>
						</g>
					</g>
					<path class="st26" d="M31.6,28c0.3,0.5,1.1,1.8,1.3,2.3c0.3,0.5,0.5,1,0.8,1.5c0.2,0.3,0.4,0.6,0.7,0.6c0.1,0,0.1,0,0.2,0
						c0,0,0.1-0.1,0.1-0.2c0-0.3-0.1-0.7-0.2-1c-0.1-0.3-0.2-0.7-0.2-1.1c0-0.2,0-0.4-0.1-0.5c0-0.2,0-0.3,0-0.5c0,0,0,0,0,0
						c-0.1-0.5-0.3-0.9-0.5-1.4c-0.2-0.4-0.5-0.9-1-0.9c-0.3,0-0.6,0.1-0.7,0.4L31.6,28z"/>
					<path class="st26" d="M34.9,32.5c0,0.1,0,0.1,0,0.2c-0.1,0.1-0.2,0.2-0.3,0.2c-0.1,0-0.2,0-0.3-0.1c-0.2-0.1-0.5-0.1-0.7,0
						c-0.2,0.1-0.3,0.2-0.5,0.2c-0.1,0-0.2,0-0.3,0c-0.1,0-0.2,0-0.3,0c-0.1,0-0.2,0-0.3,0s-0.1-0.1-0.1-0.2c0-0.1,0.1-0.1,0.2-0.2
						c0.3-0.2,0.5-0.3,0.8-0.5c0.1-0.1,0.2-0.1,0.3-0.2c0.1-0.1,0.1-0.2,0.2-0.3c0.1-0.1,0.1-0.1,0.2-0.2c0.1-0.1,0.3-0.1,0.5-0.1
						c0.2,0,0.3,0.3,0.4,0.5C34.8,32,34.9,32.2,34.9,32.5C34.9,32.4,34.9,32.4,34.9,32.5z"/>
					<path class="st36" d="M38.7,25c0.1,0,0.3-0.1,0.3-0.3c0-1.5,0-2.5-0.1-3c0-0.1,0-0.2-0.1-0.3c-0.1-0.2-0.3-0.4-0.6-0.4
						c-0.4,0-0.5,0-0.5,0.3c0,0.5,0.6,2.5,0.5,3.5C38.3,25.1,38.6,24.9,38.7,25z"/>
					<path class="st36" d="M38.7,24c-0.1,0-0.1,0-0.2,0c0,0-0.1,0-0.1,0.1c0,0,0,0,0,0.1c0,0.1,0,0.2,0,0.4c0,0.1,0,0.1,0,0.2
						c0,0.1,0,0.1,0,0.2c-0.1,0.2-0.2,0.3-0.3,0.5c0,0.1,0,0.2,0,0.3c0,0.1,0,0.1,0,0.2c0,0.1,0.1,0.2,0.2,0.3
						c0.1,0,0.1-0.2,0.1-0.2c0,0,0-0.1,0-0.1c0,0,0-0.1,0.1-0.1c0,0,0,0,0,0c0.1,0.1,0.3,0.3,0.3,0.4c0,0,0,0.1-0.1,0.1
						c-0.1,0-0.1,0-0.2,0c-0.1,0-0.1,0.1-0.1,0.1c0,0.1,0.1,0.1,0.1,0.1c0.1,0,0.1,0.1,0.2,0c0,0,0.1-0.1,0.1-0.1
						c0.1,0,0.1,0.1,0.2,0.1c0.1,0,0.1-0.2,0.2-0.2c0,0,0,0,0.1,0c0.1,0,0-0.1,0.1-0.2c0,0,0,0,0.1,0c0,0,0.1-0.1,0.1-0.1
						c0-0.2,0.1-0.3,0.1-0.5c0-0.4-0.3-0.8-0.4-1.2c0-0.1,0-0.2-0.1-0.2C38.9,24.1,38.8,24,38.7,24L38.7,24z"/>
					<path class="st37" d="M36.8,18.6c0,0.1,0,0.1,0,0.2c0.1,0.5,0.3,1,0.5,1.5c0.2,0.4,0.5,1.5,0.7,1.9c0.1,0.2,0.1-0.3,0.2-0.2
						c0.1,0.1,0.3,0.1,0.5,0.1c0.2-0.1,0.3,0.2,0.3,0.1c0-0.4-0.1-1.3-0.2-1.7c-0.2-0.8-0.3-1.7-0.6-2.5c-0.1-0.3-0.3-0.6-0.6-0.7
						C36.9,16.8,36.8,18,36.8,18.6z"/>
					<path class="st37" d="M38.3,32.1c0-0.1-0.1-0.2-0.1-0.2c0-0.1-0.1-0.2-0.1-0.3C38,31,38,30.4,37.9,29.9
						c-0.1-1.4-0.2-2.9-0.4-4.3c0-0.4,0.1-1.9-0.9-3.2c-0.1-0.5-0.2-0.9-0.1-1.4c0.1-0.6,0.1-1.1-0.3-1.7c-0.3-0.3-0.6-0.6-1-0.8
						c-0.1,0-0.2-0.1-0.3-0.1c-0.2-0.1-0.4-0.2-0.5-0.3c-0.2-0.2-0.2-0.5-0.2-0.8c0-0.4-0.2-0.9-0.1-1.3c0,0-0.1,0-0.1,0
						c-0.2,0.1-0.4,0.2-0.5,0.4c-0.1,0.1-0.1,0.3-0.1,0.5c0,0.2-0.1,0.4-0.2,0.6c-0.1,0.2-0.2,0.4-0.3,0.6c-0.1,0.2-0.1,0.5-0.1,0.7
						c0,0.4,0.2,0.7,0.3,1.1c0.2,0.6,0.2,1.2,0.1,1.8c0,0.2-0.1,0.3-0.1,0.5c-0.4,1.1-1,2.2-1.3,3.3c0.4-0.2,0.8-0.2,1.2,0.1
						c0.4,0.3,0.5,0.8,0.7,1.2c0.1,0.5,0.2,0.9,0.3,1.4c0.1,0.5,0.4,0.9,0.6,1.3c0.2,0.4,0.3,0.9,0.3,1.4c0,0.6-0.1,1.3,0,1.9
						c0,0.1,0.1,0.3,0.1,0.4c0,0.1,0,0.1,0.1,0.2c0.2,0.1,0.6,0.1,0.8,0c0.3-0.1,0.6-0.3,0.9-0.6c0,0,0,0,0,0c0,0,0,0,0.1,0
						c0.2,0.1,0.4,0,0.6-0.1c0.1-0.1,0.2-0.1,0.3-0.2c0.1,0,0.1-0.1,0.2-0.1C38.3,32.5,38.3,32.2,38.3,32.1z"/>
					<path class="st26" d="M34.5,20.7c3.1,2,2.1,6,2.4,9.1c0.1,1.1,0.4,2,0.8,3c0.1,0,0.1-0.1,0.2-0.1c0.1,0,0.1-0.1,0.2-0.1
						c0.1-0.1,0.2-0.3,0.2-0.5c0-0.1-0.1-0.2-0.1-0.2c0-0.1-0.1-0.2-0.1-0.3C38,31,38,30.4,37.9,29.9c-0.1-1.4-0.2-2.9-0.4-4.3
						c0-0.4,0.1-1.9-0.9-3.2c-0.1-0.5-0.2-0.9-0.1-1.4c0-0.3,0-0.6,0-0.8c0,0.2-0.1,0.4-0.2,0.5C36,21.2,35.1,21,34.5,20.7z"/>
					<path class="st35" d="M37.8,32.8c-0.1,0-0.1,0.1-0.2,0.1C37.5,33,37.3,33,37.1,33c0,0-0.1,0-0.1,0c0,0,0,0-0.1,0c0,0,0,0,0,0
						c0,0,0,0,0,0c-0.3,0.2-0.5,0.5-0.9,0.6c-0.3,0.1-0.6,0-0.8,0c-0.1,0-0.1-0.1-0.1-0.2c0-0.1-0.1-0.3-0.1-0.4
						c-0.1-0.6,0-1.3,0-1.9c0-0.5-0.1-0.9-0.3-1.4c-0.2-0.4-0.4-0.9-0.6-1.3c-0.1-0.4-0.2-0.9-0.3-1.4c-0.1-0.5-0.3-0.9-0.7-1.2
						c-0.4-0.3-0.8-0.3-1.2-0.1c0.2-1.1,0.8-2.2,1.3-3.3c0-0.2,0-0.4,0.1-0.5c0,0,0-0.1,0-0.1c0-0.3,0-0.6,0-0.9c0-0.1,0-0.2,0-0.3
						c0-0.1,0-0.1,0-0.2c0-0.1,0-0.2-0.1-0.3c-0.1-0.4-0.3-0.7-0.3-1.1c0-0.2,0-0.5,0.1-0.7c0.1-0.2,0.2-0.4,0.3-0.6
						c0.1-0.2,0.1-0.4,0.2-0.6c0-0.2,0-0.4,0.1-0.5c0,0,0.1-0.1,0.1-0.1c0,0,0,0,0,0c0,0,0.1-0.1,0.1-0.1c0,0,0,0,0,0
						c0.1-0.1,0.1-0.1,0.2-0.1c0,0,0.1,0,0.1,0c-0.1,0.4,0,0.9,0.1,1.3c0,0.3,0,0.6,0.2,0.8c0.1,0.2,0.3,0.3,0.5,0.3
						c0.1,0,0.2,0.1,0.3,0.1c0.4,0.2,0.8,0.4,1,0.8c0.2,0.3,0.3,0.5,0.3,0.8c0,0.2-0.1,0.4-0.2,0.5c-0.4,0.5-1.2,0.3-1.8,0
						c3.1,2,2.1,6,2.4,9.1C37,30.9,37.4,31.9,37.8,32.8z"/>
					<path class="st26" d="M35.9,23.5c-0.3,0.5-1,0.3-1.5,0.2c-0.5-0.2-0.7-0.7-1-1.1c0,0,0,0,0,0c0.1,0.3,0.3,0.5,0.5,0.8
						c0.2,0.2,0.4,0.3,0.7,0.4C34.9,24,35.6,24.1,35.9,23.5C35.9,23.5,35.9,23.5,35.9,23.5z"/>
					<path class="st26" d="M33.8,22.1c-0.2-0.3-0.3-0.6-0.4-0.9c0-0.2,0-0.5-0.2-0.7c0-0.1,0-0.1,0-0.2c0.1,0.1,0.2,0.3,0.2,0.4
						c0,0.2,0,0.5,0.1,0.7C33.6,21.7,33.8,21.9,33.8,22.1C33.9,22.1,33.9,22.1,33.8,22.1z"/>
					<path class="st26" d="M33.8,22.6c-0.2-0.2-0.4-0.5-0.5-0.9c0,0,0-0.1,0-0.1c0-0.3,0-0.6,0-0.9c0.1,0.3,0,0.6,0.1,0.9
						C33.5,22,33.7,22.3,33.8,22.6C33.9,22.6,33.8,22.6,33.8,22.6z"/>
					<path class="st26" d="M37.1,33c0,0-0.1,0-0.1,0c0,0,0,0-0.1,0c0,0,0,0,0,0c0-0.1,0-0.2,0-0.4c0-0.3-0.1-0.5-0.2-0.8
						c-0.2-0.5-0.4-1-0.6-1.5c-0.4-0.9-0.5-1.9-0.1-2.9c0,0,0.1,0,0.1,0c-0.2,0.5-0.3,1.1-0.2,1.6c0.1,0.5,0.3,1,0.5,1.4
						c0.2,0.5,0.4,1,0.6,1.5C37,32.4,37.1,32.7,37.1,33z"/>
					<path class="st26" d="M34.7,28.7c-0.5-0.8-0.5-1.7-0.8-2.6c-0.1-0.3-0.3-0.6-0.6-0.9c-0.2-0.2-0.5-0.4-0.7-0.2c0,0,0,0,0,0
						c0.4-0.2,0.8,0.3,1,0.6c0.2,0.3,0.3,0.6,0.4,1C34.2,27.4,34.3,28.1,34.7,28.7C34.7,28.7,34.7,28.7,34.7,28.7z"/>
					<path class="st26" d="M34.9,28.6c0-0.5,0-1.1,0.1-1.6c0.1-0.5,0.2-1.1,0.3-1.6c0.1-0.4,0.1-0.8-0.2-1.1c0,0,0,0,0,0
						c0.3,0.4,0.1,1.1,0,1.6c-0.1,0.5-0.2,1-0.3,1.5c-0.1,0.9-0.1,2,0.4,2.8c0,0,0,0,0,0C35.1,29.7,35,29.2,34.9,28.6z"/>
					<path class="st26" d="M34.7,24.9c-0.4-0.3-0.6-0.5-0.9-0.9c-0.3-0.4-0.4-0.7-0.5-1.2c0,0,0,0,0,0c0,0.2,0.1,0.4,0.2,0.6
						c0.1,0.2,0.2,0.4,0.4,0.6C34.1,24.4,34.3,24.8,34.7,24.9C34.7,24.9,34.7,24.9,34.7,24.9z"/>
					<g>
						<path class="st42" d="M33.7,17.4c0,0,0,0.1,0,0.1C33.7,17.5,33.7,17.5,33.7,17.4C33.7,17.4,33.7,17.4,33.7,17.4z"/>
						<path class="st26" d="M33.9,18c-0.1-0.1-0.2-0.3-0.2-0.5C33.8,17.7,33.9,17.9,33.9,18z"/>
						<path class="st26" d="M36.2,19.6c-0.1-0.2-0.3-0.3-0.5-0.5c-0.3-0.1-0.5-0.2-0.8-0.3c-0.4-0.2-0.7-0.5-1-0.8
							c0.2,0.3,0.4,0.5,0.7,0.7c0.3,0.2,0.5,0.3,0.8,0.4C35.7,19.2,36,19.4,36.2,19.6C36.2,19.6,36.2,19.6,36.2,19.6z"/>
					</g>
					<path class="st26" d="M34.3,18.2c-0.2-0.3-0.4-0.6-0.4-0.9c0-0.4-0.1-0.7,0-1.1c0,0,0,0,0,0c0,0.3,0,0.7,0.1,1
						c0,0.2,0.1,0.4,0.2,0.6C34.1,17.9,34.2,18.1,34.3,18.2C34.3,18.2,34.3,18.3,34.3,18.2z"/>
					<path class="st26" d="M33.9,18.9c-0.3-0.3-0.5-0.7-0.5-1.2c0-0.2,0-0.5,0.1-0.7c0-0.2,0.1-0.5,0.2-0.7c0,0,0,0,0,0
						c0,0.2,0,0.4-0.1,0.5c-0.1,0.2-0.1,0.5-0.1,0.7c0,0.2,0,0.5,0.1,0.7C33.6,18.5,33.8,18.7,33.9,18.9
						C33.9,18.9,33.9,18.9,33.9,18.9z"/>
					<g>
						<path class="st35" d="M36.3,16.3c0,0.9-1.6,1-1.6,0.1c0-1.2,0.1-1.4,0.6-1.6c0.1-0.1,0.3-0.1,0.5-0.1c0.6,0,0.3,0.3,0.3,0.5
							C36.1,15.9,36.3,16,36.3,16.3z"/>
						<path class="st34" d="M36.3,16.3c0-0.3-0.2-0.4-0.2-1.1c0-0.2,0.2-0.5-0.3-0.5c-0.2,0-0.3,0-0.5,0.1c-0.5,0.2-0.6,0.3-0.6,1.5
							c0.5,0,0.9-0.6,1.3-0.3c0.1,0.1,0.2,0.2,0.3,0.4C36.3,16.4,36.3,16.4,36.3,16.3z"/>
						<path class="st37" d="M36.2,15.1c-0.1,0.2-0.3,0.4-0.4,0.5c0,0-0.1,0.1-0.1,0.1c-0.3,0.2-0.6,0.4-1,0.6
							c-0.3,0.1-0.5,0.1-0.6-0.2c-0.1-0.1-0.1-0.2-0.1-0.3c0-0.1-0.1-0.2-0.1-0.3c0-0.1-0.1-0.1-0.1-0.2c0-0.1,0-0.2,0-0.3
							c0-0.1,0.1-0.2,0.1-0.2c0,0,0,0,0,0c0.1-0.2,0.1-0.3,0-0.5c0-0.2-0.1-0.4,0-0.6c0-0.1,0.1-0.2,0.1-0.2c0-0.1,0.1-0.1,0.1-0.2
							c0.1-0.1,0.2-0.1,0.3-0.2c0.1-0.1,0.2-0.1,0.4-0.2c0.5-0.1,1.1,0,1.4,0.4C36.6,13.7,36.6,14.5,36.2,15.1z"/>
						<path class="st26" d="M36.8,13.9c0-0.7-0.3-0.9-0.5-1.1c-0.3-0.2-0.6-0.3-1-0.3c-0.4,0-0.7,0.1-1,0.3c0,0,0,0,0,0
							c-0.1,0.1-0.3,0.2-0.4,0.4c-0.1,0.1-0.2,0.4-0.1,0.5c0,0.1,0.2,0.1,0.2,0c0,0.1,0.1,0.1,0.2,0.1c0.1,0,0.2,0,0.2-0.1
							c0,0.1,0,0.1,0.1,0.2c0.1,0,0.1,0,0.2,0c0,0.1,0,0.2,0.1,0.2c0.1,0.1,0.1,0.1,0.2,0.1c0,0.1,0.1,0.2,0.2,0.2
							c0,0.1,0.1,0.2,0.1,0.3c0,0,0,0,0,0.1c0,0.1,0.2,0.1,0.2,0c0,0,0,0.1,0,0.1c0,0,0.1,0,0.1,0c0.1,0,0.2,0,0.3,0
							c0.1,0,0.2-0.1,0.3,0c0,0,0,0.1,0,0.1c0,0.1,0,0.3,0,0.3s0.1,0,0.1,0c0.1,0,0.2-0.2,0.2-0.2C36.7,14.7,36.8,14.3,36.8,13.9z"
							/>
						<path class="st36" d="M36.1,14.6c0.3,0,0.3,0.3,0.1,0.5c-0.1,0.1-0.1,0.1-0.2,0.2c-0.5,0.4-0.6,0-0.4-0.2
							C35.9,14.9,35.8,14.6,36.1,14.6z"/>
					</g>
				</g>
			</g>
		</g>
		<g id="virtual_text_1_">
			<g>
				<linearGradient id="SVGID_11_" gradientUnits="userSpaceOnUse" x1="27.166" y1="3.5656" x2="27.166" y2="17.7421">
					<stop  offset="0" style="stop-color:#1F0159"/>
					<stop  offset="0.173" style="stop-color:#1A2B79"/>
					<stop  offset="0.5799" style="stop-color:#0F8AC0"/>
					<stop  offset="0.8646" style="stop-color:#08C5EE"/>
					<stop  offset="1" style="stop-color:#05DCFF"/>
				</linearGradient>
				<polygon class="st43" points="31.4,6.6 22.9,1.7 22.9,6.4 31.4,11.4 				"/>
				<g>
					<g>
						<path class="st44" d="M23.8,4.1c0,0-0.1,0-0.2,0V4c0.1,0.1,0.2,0,0.2-0.1L23.9,4v1.5l-0.1-0.1V4.1z"/>
						<path class="st44" d="M24.3,4.8c0-0.1,0.1-0.1,0.2,0c0.2,0.1,0.2,0.3,0.2,0.5v0.3c0,0.2-0.1,0.3-0.3,0.2
							c-0.2-0.1-0.3-0.3-0.3-0.6V5.1l0.1,0.1v0.1c0,0.1,0,0.2,0.2,0.3c0.1,0.1,0.2,0,0.2-0.1V5.2c0-0.1,0-0.2-0.2-0.3
							c-0.1,0-0.1,0-0.1,0.1v0l-0.1-0.1l0-0.8l0.5,0.3v0.2l-0.4-0.2L24.3,4.8z"/>
						<path class="st44" d="M24.9,4.9c0-0.2,0.1-0.3,0.3-0.2c0.2,0.1,0.3,0.3,0.3,0.6l0,0.8c0,0.2-0.1,0.3-0.3,0.2
							c-0.2-0.1-0.3-0.3-0.3-0.6V4.9z M25,5.8c0,0.1,0.1,0.3,0.2,0.3c0.1,0.1,0.2,0,0.2-0.1l0-0.8c0-0.1,0-0.3-0.2-0.3
							c-0.1-0.1-0.2,0-0.2,0.1V5.8z"/>
						<path class="st44" d="M25.9,5.8L26.3,6v0.2l-0.4-0.2V5.8z"/>
						<path class="st44" d="M27,6c0,0-0.1,0-0.2,0V5.8c0.1,0.1,0.2,0,0.2-0.1l0.1,0.1v1.5L27,7.2V6z"/>
						<path class="st44" d="M27.3,6.3c0-0.2,0.1-0.3,0.3-0.2c0.2,0.1,0.3,0.3,0.3,0.6v0.8c0,0.2-0.1,0.3-0.3,0.2
							c-0.2-0.1-0.3-0.3-0.3-0.6V6.3z M27.5,7.2c0,0.1,0.1,0.3,0.2,0.3c0.1,0.1,0.2,0,0.2-0.1V6.5c0-0.1,0-0.3-0.2-0.3
							c-0.1-0.1-0.2,0-0.2,0.1V7.2z"/>
						<path class="st44" d="M28.1,6.7c0-0.2,0.1-0.3,0.3-0.2c0.2,0.1,0.3,0.3,0.3,0.6v0.8c0,0.2-0.1,0.3-0.3,0.2
							c-0.2-0.1-0.3-0.3-0.3-0.6V6.7z M28.2,7.6c0,0.1,0.1,0.3,0.2,0.3c0.1,0.1,0.2,0,0.2-0.1V7c0-0.1,0-0.3-0.2-0.3
							c-0.1-0.1-0.2,0-0.2,0.1L28.2,7.6z"/>
						<path class="st44" d="M29.4,7.1c0.2,0.1,0.3,0.3,0.3,0.5v0.1c0,0.2,0,0.2-0.2,0.2c0.1,0.1,0.2,0.3,0.2,0.4v0.1
							c0,0.2-0.1,0.3-0.3,0.2l-0.3-0.2V6.9L29.4,7.1z M29.4,8.5c0.1,0.1,0.2,0,0.2-0.1V8.2c0-0.2-0.1-0.3-0.2-0.3l-0.1-0.1v0.6
							L29.4,8.5z M29.4,7.7c0.1,0.1,0.2,0.1,0.2-0.1V7.6c0-0.1,0-0.2-0.1-0.3l-0.1-0.1v0.5L29.4,7.7z"/>
						<path class="st44" d="M30.4,8.1v0.1l-0.1-0.1V8c0-0.1,0-0.2-0.2-0.3C30,7.6,30,7.7,30,7.8v0.8c0,0.1,0,0.2,0.2,0.3
							c0.1,0.1,0.2,0,0.2-0.1V8.6l0.1,0.1v0.2c0,0.2-0.1,0.3-0.3,0.2c-0.2-0.1-0.3-0.3-0.3-0.6V7.7c0-0.2,0.1-0.3,0.3-0.2
							C30.3,7.6,30.4,7.9,30.4,8.1z"/>
					</g>
				</g>
			</g>
			<g>
				<linearGradient id="SVGID_12_" gradientUnits="userSpaceOnUse" x1="41.5694" y1="5.2077" x2="41.5694" y2="19.1137">
					<stop  offset="0" style="stop-color:#1F0159"/>
					<stop  offset="0.173" style="stop-color:#1A2B79"/>
					<stop  offset="0.5799" style="stop-color:#0F8AC0"/>
					<stop  offset="0.8646" style="stop-color:#08C5EE"/>
					<stop  offset="1" style="stop-color:#05DCFF"/>
				</linearGradient>
				<polygon class="st45" points="50,18 33.1,8.2 33.1,3.4 50,13.2 				"/>
				<g>
					<g>
						<path class="st44" d="M34.4,7.1l-0.1,0.3l-0.2-0.1l0.3-1.6l0.2,0.1L35,7.8l-0.2-0.1l-0.1-0.4L34.4,7.1z M34.4,6.9l0.3,0.2
							L34.6,6L34.4,6.9z"/>
						<path class="st44" d="M35.3,7.9l-0.1-0.1V6.1l0.2,0.1l0.3,1.4V6.5l0.1,0.1v1.7l-0.2-0.1l-0.4-1.6V7.9z"/>
						<path class="st44" d="M36.7,7.4v0.2l-0.2-0.1V7.3c0-0.2-0.1-0.3-0.2-0.3c-0.1-0.1-0.2,0-0.2,0.1V8c0,0.2,0.1,0.3,0.2,0.3
							c0.1,0.1,0.2,0,0.2-0.1V8l0.2,0.1v0.2c0,0.3-0.1,0.4-0.3,0.2C36.1,8.4,36,8.2,36,7.9V7c0-0.3,0.1-0.4,0.3-0.2
							C36.6,6.9,36.7,7.2,36.7,7.4z"/>
						<path class="st44" d="M37,7.2v1.7l-0.2-0.1V7.1L37,7.2z"/>
						<path class="st44" d="M37.7,8.4v0.2l-0.4-0.2v0.6l0.4,0.3v0.2L37.1,9V7.3l0.6,0.4v0.2l-0.4-0.3v0.6L37.7,8.4z"/>
						<path class="st44" d="M38.1,9.5l-0.1-0.1V7.7l0.2,0.1l0.3,1.4V8.1l0.1,0.1v1.7l-0.2-0.1l-0.4-1.6V9.5z"/>
						<path class="st44" d="M39,10.1V8.5l-0.3-0.2V8.2l0.7,0.4v0.2l-0.3-0.2v1.5L39,10.1z"/>
						<path class="st44" d="M40.5,9.7v0.1l-0.2-0.1V9.6c0-0.2-0.1-0.3-0.2-0.3c-0.1-0.1-0.2,0-0.2,0.1v0.9c0,0.2,0.1,0.3,0.2,0.3
							c0.1,0.1,0.2,0,0.2-0.1v-0.3L40.2,10V9.9l0.3,0.2v0.5c0,0.3-0.1,0.4-0.3,0.2c-0.2-0.1-0.3-0.4-0.3-0.6V9.3
							C39.9,9,40,8.9,40.2,9C40.4,9.2,40.5,9.4,40.5,9.7z"/>
						<path class="st44" d="M41,9.5c0.2,0.1,0.3,0.3,0.3,0.6v0.1c0,0.2-0.1,0.3-0.2,0.2c0.1,0.1,0.2,0.3,0.2,0.5v0.3
							c0,0.1,0,0.1,0,0.2l-0.2-0.1c0-0.1,0-0.1,0-0.2v-0.3c0-0.2-0.1-0.3-0.2-0.4l-0.1-0.1v0.7l-0.2-0.1V9.3L41,9.5z M41,10.3
							c0.1,0.1,0.2,0.1,0.2-0.1V10c0-0.2,0-0.3-0.2-0.3l-0.2-0.1v0.6L41,10.3z"/>
						<path class="st44" d="M42.1,10.9v0.2l-0.4-0.2v0.6l0.4,0.3v0.2l-0.6-0.4l0-1.7l0.6,0.4v0.2l-0.4-0.3v0.6L42.1,10.9z"/>
						<path class="st44" d="M42.8,11.3v0.2l-0.4-0.2l0,0.6l0.4,0.3v0.2L42.3,12v-1.7l0.6,0.4v0.2l-0.4-0.3v0.6L42.8,11.3z"/>
						<path class="st44" d="M43.3,11.8l-0.1,0.1v0.6l-0.2-0.1v-1.7l0.2,0.1v0.8l0.4-0.6l0.2,0.1l-0.4,0.6l0.4,1.2l-0.2-0.1
							L43.3,11.8z"/>
						<path class="st44" d="M44.9,12.2L44.9,12.2l-0.2,0v-0.1c0-0.2-0.1-0.3-0.2-0.3c-0.1-0.1-0.2,0-0.2,0.1c0,0.4,0.5,0.7,0.5,1.2
							c0,0.3-0.1,0.4-0.3,0.2c-0.2-0.1-0.3-0.4-0.3-0.6v-0.1l0.2,0.1v0.1c0,0.2,0.1,0.3,0.2,0.3c0.1,0.1,0.2,0,0.2-0.1
							c0-0.4-0.5-0.7-0.5-1.2c0-0.3,0.1-0.4,0.3-0.2C44.8,11.7,44.9,11.9,44.9,12.2z"/>
						<path class="st44" d="M45.3,13.7v-1.5L45,12v-0.2l0.7,0.4v0.2l-0.3-0.2l0,1.5L45.3,13.7z"/>
						<path class="st44" d="M45.9,13.7L45.8,14l-0.2-0.1l0.3-1.6l0.2,0.1l0.3,1.9l-0.2-0.1l-0.1-0.4L45.9,13.7z M45.9,13.6l0.3,0.2
							l-0.2-1.1L45.9,13.6z"/>
						<path class="st44" d="M46.8,14.6V13l-0.3-0.2v-0.2l0.7,0.4v0.2l-0.3-0.2v1.5L46.8,14.6z"/>
						<path class="st44" d="M47.5,14.6c0,0.2,0.1,0.3,0.2,0.3c0.1,0.1,0.2,0,0.2-0.1v-1.3l0.2,0.1v1.3c0,0.3-0.1,0.4-0.3,0.2
							c-0.2-0.1-0.3-0.4-0.3-0.6v-1.3l0.2,0.1V14.6z"/>
						<path class="st44" d="M48.7,14.7v0.2l-0.4-0.2v0.6l0.4,0.3v0.2l-0.6-0.4v-1.7l0.6,0.4v0.2l-0.4-0.3v0.6L48.7,14.7z"/>
					</g>
				</g>
			</g>
			<g>
				<linearGradient id="SVGID_13_" gradientUnits="userSpaceOnUse" x1="44.0227" y1="18.765" x2="44.0227" y2="29.1913">
					<stop  offset="0" style="stop-color:#1F0159"/>
					<stop  offset="0.173" style="stop-color:#1A2B79"/>
					<stop  offset="0.5799" style="stop-color:#0F8AC0"/>
					<stop  offset="0.8646" style="stop-color:#08C5EE"/>
					<stop  offset="1" style="stop-color:#05DCFF"/>
				</linearGradient>
				<polygon class="st46" points="47.7,21.6 40.4,17.4 40.4,20.3 47.7,24.5 				"/>
				<g>
					<g>
						<path class="st44" d="M42.2,20.7l-0.1-0.1l-0.2-1.3v1.2l-0.1-0.1v-1.5l0.2,0.1l0.2,1.3l0.2-1.1l0.2,0.1v1.5l-0.1-0.1v-1.2
							L42.2,20.7z"/>
						<path class="st44" d="M42.9,20.8L42.8,21L42.7,21l0.3-1.4l0.2,0.1l0.3,1.7l-0.1-0.1l-0.1-0.3L42.9,20.8z M42.9,20.6l0.3,0.2
							l-0.1-1L42.9,20.6z"/>
						<path class="st44" d="M43.8,20.1c0.2,0.1,0.3,0.3,0.3,0.5v0.1c0,0.2-0.1,0.2-0.2,0.2c0.1,0.1,0.2,0.3,0.2,0.4v0.2
							c0,0.1,0,0.1,0,0.2L44,21.7c0-0.1,0-0.1,0-0.2v-0.2c0-0.2-0.1-0.3-0.2-0.3l-0.1-0.1v0.7l-0.1-0.1v-1.5L43.8,20.1z M43.8,20.8
							c0.1,0.1,0.2,0.1,0.2-0.1v-0.1c0-0.1,0-0.2-0.2-0.3l-0.1-0.1l0,0.6L43.8,20.8z"/>
						<path class="st44" d="M44.6,20.5c0.2,0.1,0.3,0.3,0.3,0.5v0.1c0,0.2,0,0.2-0.2,0.2c0.1,0.1,0.2,0.3,0.2,0.4v0.1
							c0,0.2-0.1,0.3-0.3,0.2l-0.3-0.2v-1.5L44.6,20.5z M44.5,21.1c0.1,0.1,0.2,0.1,0.2-0.1v-0.1c0-0.1,0-0.2-0.1-0.3l-0.1-0.1v0.5
							L44.5,21.1z M44.6,21.9c0.1,0.1,0.2,0,0.2-0.1v-0.1c0-0.2-0.1-0.3-0.2-0.3l-0.1-0.1v0.6L44.6,21.9z"/>
						<path class="st44" d="M45,22.3l0-1.5l0.1,0.1v1.4l0.4,0.2v0.2L45,22.3z"/>
						<path class="st44" d="M46.1,22.1v0.2l-0.3-0.2v0.5l0.4,0.2V23l-0.5-0.3v-1.5l0.5,0.3v0.2l-0.4-0.2v0.5L46.1,22.1z"/>
					</g>
				</g>
			</g>
		</g>
	</g>
</g>
</svg>
