<?xml version="1.0" encoding="utf-8"?>
<!-- Generator: Adobe Illustrator 19.0.0, SVG Export Plug-In . SVG Version: 6.00 Build 0)  -->
<svg version="1.1" id="Layer_1" xmlns="http://www.w3.org/2000/svg" xmlns:xlink="http://www.w3.org/1999/xlink" x="0px" y="0px"
	 viewBox="0 0 128 111.2" style="enable-background:new 0 0 128 111.2;" xml:space="preserve">
<style type="text/css">
	.st0{fill:#C66BC6;}
	.st1{fill:#B456B7;}
	.st2{fill:#E79CE1;}
	.st3{fill:#D680D4;}
	.st4{fill:#FFC9B6;}
	.st5{fill:#672A5C;}
	.st6{fill:#BDD6E5;}
	.st7{fill:#FFB9A4;}
	.st8{fill:#954A83;}
	.st9{fill:#FFFFFF;}
	.st10{fill:#D63259;}
	.st11{fill:#E43C5D;}
	.st12{fill:#ED4069;}
	.st13{fill:#FF5A72;}
	.st14{fill:#A85699;}
	.st15{fill:#E9F1FF;}
	.st16{fill:#8EBCCE;}
	.st17{fill:#7F3371;}
	.st18{fill:#F8B505;}
	.st19{fill:#FED03D;}
</style>
<g>
	<g>
		<polygon class="st0" points="83.7,44.5 83.7,53.6 79.7,49.6 		"/>
		<g>
			<g>
				<path class="st0" d="M73.7,55.8C56.8,48.9,33,51.3,20.6,61s-8.8,23.1,8.1,30c16.9,6.8,40.7,4.5,53.1-5.2
					C94.2,76,90.6,62.6,73.7,55.8z M64.1,78.6c-5.1,4-15,5-22,2.2c-7-2.8-8.5-8.4-3.3-12.4c5.1-4,15-5,22-2.2
					C67.7,69,69.2,74.6,64.1,78.6z"/>
			</g>
			<g>
				<polygon class="st0" points="20.4,55.3 17.8,57.3 13.5,60.7 10.9,62.7 16.4,67.6 21.1,63.9 25.7,60.3 30.4,56.7 				"/>
				<polygon class="st0" points="91.4,84 88.8,86 84.5,89.4 81.9,91.4 71.9,90 76.6,86.4 81.2,82.8 85.9,79.1 				"/>
			</g>
			<g>
				<polygon class="st0" points="83.7,55.5 80.3,54.1 74.4,51.7 70.9,50.3 62.1,53.5 68.4,56.1 74.8,58.7 81.1,61.2 				"/>
				<polygon class="st0" points="31.4,96.4 28,94.9 22.1,92.6 18.6,91.2 21.2,85.5 27.6,88 33.9,90.6 40.2,93.1 				"/>
			</g>
			<g>
				<polygon class="st0" points="52.4,48 48.2,48.4 40.9,49.1 36.6,49.5 34.3,55.3 42.1,54.5 49.9,53.7 57.6,53 				"/>
				<polygon class="st0" points="65.7,97.2 61.4,97.6 54.2,98.3 49.9,98.7 44.7,93.7 52.5,92.9 60.2,92.2 68,91.4 				"/>
			</g>
			<g>
				<polygon class="st0" points="96,73.5 96,62.5 83.5,63.4 84.7,67.8 85.8,72.2 87,76.6 				"/>
				<polygon class="st0" points="8.8,82.1 8.1,79.7 7,75.6 6.4,73.2 8.1,68.6 15.3,70.1 16.5,74.5 17.7,78.9 18.8,83.3 				"/>
			</g>
		</g>
		<polygon class="st0" points="10.9,51.6 10.9,62.1 15.2,61.3 17.3,54.5 		"/>
		<polygon class="st1" points="88.8,64.9 88.8,76 96,73.5 96,62.5 		"/>
		<g>
			<g>
				<path class="st2" d="M73.7,44.7c-16.9-6.8-40.7-4.5-53.1,5.2s-8.8,23.1,8.1,30c16.9,6.8,40.7,4.5,53.1-5.2
					C94.2,65,90.6,51.6,73.7,44.7z M64.1,67.5c-5.1,4-15,5-22,2.2c-7-2.8-8.5-8.4-3.3-12.4c5.1-4,15-5,22-2.2
					C67.7,58,69.2,63.5,64.1,67.5z"/>
			</g>
			<g>
				<polygon class="st2" points="20.4,44.3 17.8,46.3 13.5,49.6 10.9,51.6 16.4,56.5 21.1,52.9 25.7,49.3 30.4,45.6 				"/>
				<polygon class="st2" points="91.4,73 88.8,75 84.5,78.4 81.9,80.4 71.9,79 76.6,75.4 81.2,71.7 85.9,68.1 				"/>
			</g>
			<g>
				<polygon class="st2" points="83.7,44.5 80.3,43.1 74.4,40.7 70.9,39.3 62.1,42.5 68.4,45.1 74.8,47.6 81.1,50.2 				"/>
				<polygon class="st2" points="31.4,85.3 28,83.9 22.1,81.5 18.6,80.1 21.2,74.4 27.6,77 33.9,79.6 40.2,82.1 				"/>
			</g>
			<g>
				<polygon class="st2" points="52.4,37 48.2,37.4 40.9,38.1 36.6,38.5 34.3,44.2 42.1,43.5 49.9,42.7 57.6,42 				"/>
				<polygon class="st2" points="65.7,86.1 61.4,86.6 54.2,87.3 49.9,87.7 44.7,82.7 52.5,81.9 60.2,81.2 68,80.4 				"/>
			</g>
			<g>
				<polygon class="st2" points="96,62.5 95.3,60.1 94.2,56 93.6,53.6 83.5,52.4 84.7,56.8 85.8,61.2 87,65.5 				"/>
				<polygon class="st2" points="8.8,71 8.1,68.6 7,64.6 6.4,62.1 15.3,59.1 16.5,63.5 17.7,67.9 18.8,72.2 				"/>
			</g>
		</g>
		<polygon class="st3" points="49.9,87.7 49.9,98.7 65.7,97.2 65.7,86.1 		"/>
		<polygon class="st3" points="81.9,80.4 81.9,91.4 91.4,84 91.4,73 		"/>
		<polygon class="st3" points="31.4,85.3 31.4,96.4 18.6,91.2 18.6,80.1 		"/>
		<polygon class="st3" points="8.8,71 8.8,82.1 6.4,73.2 6.4,62.1 		"/>
		<polygon class="st1" points="38.5,93.8 38.5,82.7 31.4,85.3 31.4,96.4 		"/>
		<polygon class="st1" points="16.9,72 16.9,83 8.8,82.1 8.8,71 		"/>
		<polygon class="st1" points="45.7,83.7 45.7,94.7 49.9,98.7 49.9,87.7 		"/>
		<polygon class="st1" points="65.7,86.1 67.5,81.5 67.5,92.5 65.7,97.2 		"/>
		<polygon class="st1" points="73.9,79.3 73.9,90.3 81.9,91.4 81.9,80.4 		"/>
	</g>
	<g>
		<path class="st4" d="M91.8,72c-1.1,2.5-2,6.1-2,6.1s-3.5,3.5-5.5,4.7c-2,1.2-3.1,2.6-3.6,3.8c-0.5,1.2,1.6,1.2,2.8,0.6
			c1.2-0.6,1.8-2.3,2.1-2.2s0.2,0.9,0.6,1.5c0.4,0.6,0.4-1.7,0.7-2.7c0.3-1,3.6-1.7,4.9-2.6c1.3-0.9,3.2-5.7,3.2-7.2
			C95,72.7,91.8,72,91.8,72z"/>
		<path class="st4" d="M113.7,90.9c0.2-0.1,1.4-1,1.9-2.2c0.5-1.2,2.2-2.1,3-0.9c0.8,1.2,1.3,1.7,1.8,2.5c1,1.5,1.5,2.3,0.4,3.7
			c-1.1,1.4-1.7,1.4-2.3,1c-0.6-0.4-0.4-1.8-0.6-1.9c-0.2-0.1-0.8-0.9-1.3-0.6C116.1,92.6,113.7,90.9,113.7,90.9z"/>
		<path class="st3" d="M114.3,90c-0.3-0.2-3.8,2.2-5.9,3.7c-2.1,1.6-4.6,5.6-4.1,6.8c0.5,1.2,3.6,2.9,6.5-0.2c3-3,6.1-7.3,6.1-7.3
			S116.5,91,114.3,90z"/>
		<path class="st4" d="M105.2,86.2c0.2-0.1,1.4-1,1.9-2.2c0.5-1.2,2.2-2.1,3-0.9c0.8,1.2,1.3,1.7,1.8,2.5c1,1.5,1.5,2.3,0.4,3.7
			c-1.1,1.4-1.7,1.4-2.3,1c-0.6-0.4-0.4-1.8-0.6-1.9s-0.8-0.9-1.3-0.6C107.6,88,105.2,86.2,105.2,86.2z"/>
		<path class="st1" d="M106.6,86.5c-0.3-0.2-4.2,1-6.7,1.9c-2.4,0.9-6.1,4-5.9,5.3c0.1,0.8-2.3,2-0.8,2.7c2.3,1.1,5.7-0.2,7.1-1
			c3.7-2,8-5.2,8-5.2S108.4,88.1,106.6,86.5z"/>
		<g>
			<path class="st5" d="M111.3,70.7c-2.4-1.1-3.7-4.8-3.9-7.2c-0.3-2.4,0.1-5.1-0.8-7.4c-0.7-1.8-2.1-2.7-4.1-2.6
				c-1,0-2,0.3-2.6,0.9c-0.5,0.4-0.8,1-0.7,1.6c0,0,0,0,0,0.1c0,0,0,0,0,0c0,0.1,0,0.1,0,0.2c0.1,0.2,0.2,0.4,0.4,0.6
				c0,0,0,0,0.1,0.1c0.3,0.3,0.8,0.5,1.2,0.4c0.7,0.1,1.5,0.2,1.9,0.5c0.9,0.8,0.6,2.8,0.8,3.9c0.1,1.1,0.2,3,0.5,4.1
				C104.7,68.8,107.6,71.7,111.3,70.7z"/>
			<path class="st3" d="M97.6,55.9c0,0,1.1-1.4,2.5-0.5c1.9,1.3,1.3,2.6,0.8,2.9C100.4,58.7,97.6,55.9,97.6,55.9z"/>
			<g>
				<path class="st1" d="M93.2,96.4c1.3,0.6,2.8,0.5,4.4-0.3c1-0.5,1.2-1.4,2-2.3c0.1-1.2,1.4-4.2,1.4-4.2s-0.4-5.4,0.6-7
					c-1-0.6-2.4-1.3-2.7-1.6c-4.2,3.6-6.5,8-7,12.5C91.8,94.5,92,95.8,93.2,96.4z"/>
				<path class="st3" d="M108.4,99.7c0.1-0.1,0.2-0.2,0.4-0.3c1.9-3.8,1.9-7.6,1-11.8c-0.2-1.2-0.8-4.1-2-4.8
					c-0.5-0.3-6.6-0.1-7.2-0.2c0,0,0,0,0,0c-0.5,1.9-1.2,4.4-1.3,5.4c-0.2,2.7,2,3.3,2,3.3s0.1,1.4,0.4,2.6c0.4,2,1.3,5.6,3.2,7.2
					C106.4,101.7,106.8,100.8,108.4,99.7z"/>
			</g>
			<path class="st6" d="M95.2,65.5c1.6-2,2.6-1.8,4.5-0.7c2.4,1.4,5,2.9,6.1,3.8c1.8,1.5,2.1,3.8,2.4,7.7c0,0.6,0.4,2.6,0.6,3.1
				c0.7,2.1,0.4,2.4-0.1,2.9c0.3,0.3,0.6,1.5,0,1.9c-2.8,1.6-8.9,1.9-11.1-2c-0.1-0.2,0.2-1.1,0.4-1.3c-0.4-0.3-0.8-0.9-0.8-1.4
				c-0.8-0.4-1.5-1.1-1.7-2.3c-1.6-0.4-3.4-1.3-2.9-3.3c0.3-1,1.1-3.2,1.4-4.3C94.5,67.4,94.7,66.1,95.2,65.5z"/>
			<path class="st7" d="M96.4,66.6c0.5-0.1,1.6-0.7,1.3-2.9c-0.1-0.6,2.7-2.3,2.6-2.2c0,2,0.3,4.2,1.2,5.3c-1.3,1.4-2.8,4.8-5,4.4
				C95.3,70.9,95.5,69.1,96.4,66.6z"/>
			<path class="st6" d="M95.4,65.9c0,0-0.4,2-0.7,2.8c-0.3,0.7-0.8,2.4-0.8,2.4s0.7-0.4,1.1-0.2c0.4,0.2,0.7,0.7,1.1,0.8
				c0.3,0.1,0.8,0,0.8,0l0.2-0.9c0,0-0.7-0.2-0.7-1.4c0-1.2,0.1-2.8,0.1-2.8L95.4,65.9z"/>
			<path class="st6" d="M100.6,65.1c0,0-0.6,1.4-1.2,2.5c-0.6,1.1-1.9,2.2-2.5,2.8c-1,0.8-0.6,2.1-0.6,2.1s0.4-0.8,0.8-0.7
				c0.5,0.1,0.9,0.5,1.5,1c0.4-0.6,1.4-1.3,2-2.4c0.6-1.1,1.7-3,1.3-4.3C101.6,64.8,100.6,65.1,100.6,65.1z"/>
			<path class="st4" d="M94.1,59.1c1.8-0.4,2.7-0.5,4.2,0.2c0.9,0.2,1.7,0.6,2.5,1.1c0.1,0,0.1,0.1,0.1,0.2
				c-0.4,2.3-1.2,4.8-3.8,5.8c-2.1,0.8-3.3-1.5-3.7-3.1C93,61.5,92.9,59.4,94.1,59.1z"/>
			<path class="st8" d="M99.7,56.8c-1.7-1.4-3.8-1.2-4.9-0.3c-1.2,1-2.2,2.5-1.6,4c0.6,0.1,1.4-0.4,1.8-0.7c0.7,0.8,1.9,1.7,3.5,1.5
				c0.3,1,0.9,3.1,1.8,3C101.9,60.8,102.4,59,99.7,56.8z"/>
			<path class="st4" d="M98,62.4c0,0,0.4-1.4,1.3-0.7c0.9,0.7-0.4,2.2-0.4,2.2L98,62.4z"/>
		</g>
		<path class="st4" d="M102.4,77.8c0,0.5,0.1,4.9,0.1,4.9s-2.2,2.1-3.1,3.4c-0.4,0.6-1.3,1.5-1.8,1.8c-0.5,0.4-1.3,0.5-1.6,0.7
			c-0.6,0.5-1.5,0.9-1.7,1c-0.2,0.1-0.1,0.7,0.5,0.6c0.6-0.1,1-0.3,1.2-0.3c0.2,0-0.7,1.6-1.2,2.1c-0.5,0.5-1.1,1-1.3,1.5
			c-0.2,0.5,0.9,1,1.9,0.7c1.1-0.3,2.3-1.6,2.7-2.7c0.4-1,0.5-1.2,1-1.7c0.2-0.2,2.7-2,3.9-2.9c1.2-0.8,2.6-2.2,2.8-3
			c0.1-0.6,0.5-2.1,0.8-3.1c0.3-1.1,0.5-2.6,0.5-2.6L102.4,77.8z"/>
		<g>
			<path class="st6" d="M103,69.1c-0.8,1.6-0.7,7.9-0.7,7.9s2.6,0.4,4.7,0.9c1.3-2.5,1.8-5.7,0.8-7.7
				C106.4,67.2,103.8,67.5,103,69.1z"/>
			<path class="st9" d="M102.4,77c0,0,1.1-0.3,2.4-0.1c1.3,0.2,2.5,0.6,2.5,0.6l-0.2,1.3c0,0-1.9-0.5-2.7-0.6
				c-0.8-0.1-1.8,0.1-1.8,0.1L102.4,77z"/>
		</g>
		<g>
			<path class="st6" d="M93.9,64.7c0,0-0.7,0.9-1.1,1.9c-0.4,1-0.7,2.3-0.8,3.2c-0.1,0.9,0,1.4,0,1.4s1.1,0.6,1.2,0.6
				c0.2-0.4,0.5-1.5,0.8-2.4c0.4-1.3,0.9-3.4,0.9-3.4S94.3,65.3,93.9,64.7z"/>
			<path class="st9" d="M92,71.2l-0.4,1.3l1.2,0.6l0.5-1.4C93.3,71.7,92.8,71.3,92,71.2z"/>
		</g>
	</g>
	<g>
		<polygon class="st10" points="50.6,36.6 50.6,41.9 48.2,39.6 		"/>
		<g>
			<g>
				<path class="st11" d="M44.7,43.2c-10-4-24-2.7-31.3,3.1C6.1,52,8.2,59.9,18.2,63.9c10,4,24,2.7,31.3-3.1
					C56.8,55.1,54.7,47.2,44.7,43.2z M39,56.7c-3,2.4-8.8,2.9-12.9,1.3c-4.1-1.7-5-4.9-2-7.3c3-2.4,8.8-2.9,12.9-1.3
					C41.2,51,42.1,54.3,39,56.7z"/>
			</g>
			<g>
				<polygon class="st11" points="13.3,42.9 11.8,44.1 9.2,46.1 7.7,47.3 11,50.2 13.7,48 16.4,45.9 19.2,43.7 				"/>
				<polygon class="st11" points="55.2,59.9 53.6,61 51.1,63 49.6,64.2 43.7,63.4 46.4,61.3 49.2,59.1 51.9,57 				"/>
			</g>
			<g>
				<polygon class="st11" points="50.6,43.1 48.6,42.3 45.1,40.8 43.1,40 37.9,41.9 41.6,43.4 45.3,44.9 49.1,46.4 				"/>
				<polygon class="st11" points="19.8,67.1 17.8,66.3 14.3,64.9 12.2,64.1 13.8,60.7 17.5,62.2 21.3,63.7 25,65.2 				"/>
			</g>
			<g>
				<polygon class="st11" points="32.2,38.6 29.7,38.9 25.4,39.3 22.9,39.5 21.5,42.9 26.1,42.5 30.7,42 35.2,41.6 				"/>
				<polygon class="st11" points="40,67.6 37.5,67.9 33.2,68.3 30.7,68.5 27.6,65.6 32.2,65.1 36.8,64.7 41.3,64.2 				"/>
			</g>
			<g>
				<polygon class="st11" points="57.8,53.7 57.8,47.2 50.5,47.7 51.2,50.3 51.9,52.9 52.6,55.5 				"/>
				<polygon class="st11" points="6.4,58.7 6.1,57.3 5.4,54.9 5,53.5 6.1,50.8 10.3,51.7 11,54.3 11.7,56.8 12.4,59.4 				"/>
			</g>
		</g>
		<polygon class="st12" points="7.7,40.8 7.7,47 10.2,46.5 11.5,42.5 		"/>
		<polygon class="st10" points="53.6,48.6 53.6,55.1 57.8,53.7 57.8,47.2 		"/>
		<g>
			<g>
				<path class="st13" d="M44.7,36.7c-10-4-24-2.7-31.3,3.1c-7.3,5.7-5.2,13.6,4.8,17.7c10,4,24,2.7,31.3-3.1
					C56.8,48.7,54.7,40.7,44.7,36.7z M39,50.2c-3,2.4-8.8,2.9-12.9,1.3c-4.1-1.7-5-4.9-2-7.3c3-2.4,8.8-2.9,12.9-1.3
					C41.2,44.5,42.1,47.8,39,50.2z"/>
			</g>
			<g>
				<polygon class="st13" points="13.3,36.4 11.8,37.6 9.2,39.6 7.7,40.8 11,43.7 13.7,41.5 16.4,39.4 19.2,37.3 				"/>
				<polygon class="st13" points="55.2,53.4 53.6,54.6 51.1,56.5 49.6,57.7 43.7,56.9 46.4,54.8 49.2,52.6 51.9,50.5 				"/>
			</g>
			<g>
				<polygon class="st13" points="50.6,36.6 48.6,35.8 45.1,34.4 43.1,33.5 37.9,35.4 41.6,36.9 45.3,38.4 49.1,39.9 				"/>
				<polygon class="st13" points="19.8,60.6 17.8,59.8 14.3,58.4 12.2,57.6 13.8,54.2 17.5,55.7 21.3,57.2 25,58.8 				"/>
			</g>
			<g>
				<polygon class="st13" points="32.2,32.1 29.7,32.4 25.4,32.8 22.9,33 21.5,36.4 26.1,36 30.7,35.5 35.2,35.1 				"/>
				<polygon class="st13" points="40,61.1 37.5,61.4 33.2,61.8 30.7,62 27.6,59.1 32.2,58.6 36.8,58.2 41.3,57.7 				"/>
			</g>
			<g>
				<polygon class="st13" points="57.8,47.2 57.5,45.8 56.8,43.4 56.4,41.9 50.5,41.2 51.2,43.8 51.9,46.4 52.6,49 				"/>
				<polygon class="st13" points="6.4,52.2 6.1,50.8 5.4,48.4 5,47 10.3,45.2 11,47.8 11.7,50.3 12.4,52.9 				"/>
			</g>
		</g>
		<polygon class="st12" points="30.7,62 30.7,68.5 40,67.6 40,61.1 		"/>
		<polygon class="st12" points="49.6,57.7 49.6,64.2 55.2,59.9 55.2,53.4 		"/>
		<polygon class="st12" points="19.8,60.6 19.8,67.1 12.2,64.1 12.2,57.6 		"/>
		<polygon class="st12" points="6.4,52.2 6.4,58.7 5,53.5 5,47 		"/>
		<polygon class="st10" points="24,65.6 24,59.1 19.8,60.6 19.8,67.1 		"/>
		<polygon class="st10" points="11.2,52.8 11.2,59.3 6.4,58.7 6.4,52.2 		"/>
		<polygon class="st10" points="28.2,59.7 28.2,66.2 30.7,68.5 30.7,62 		"/>
		<polygon class="st10" points="40,61.1 41.1,58.4 41.1,64.9 40,67.6 		"/>
		<polygon class="st10" points="44.8,57.1 44.8,63.6 49.6,64.2 49.6,57.7 		"/>
	</g>
	<g>
		<g>
			<path class="st5" d="M78.2,101.6l0.4,0.4c0.1-0.1,0.3-0.3,0.5-0.4l5.5-3.2c1.3-0.7,3.2-0.8,4.2-0.2l8.8,5.1
				c0.1,0,0.1,0.1,0.2,0.1l0.4-0.5c0,0,0.4,0.9,0.1,1.8c0,0,0,0,0,0c-0.1,0.4-0.5,0.7-1,1l-5.5,3.2c-1.3,0.7-3.2,0.8-4.2,0.2
				l-8.8-5.1c-0.3-0.2-0.5-0.4-0.6-0.6c0,0,0-0.1-0.1-0.1C77.8,102.4,78.2,101.6,78.2,101.6z"/>
			<path class="st8" d="M87.6,108.3l-8.8-5.1c-1.1-0.6-0.9-1.7,0.3-2.4l5.5-3.2c1.3-0.7,3.2-0.8,4.2-0.2l8.8,5.1
				c1.1,0.6,0.9,1.7-0.3,2.4l-5.5,3.2C90.6,108.8,88.7,108.9,87.6,108.3z"/>
		</g>
		<g>
			<g>
				<path class="st14" d="M87.8,97.9L87,97.5c-0.1,0-0.2,0-0.3,0l-0.4,0.2c-0.1,0-0.1,0.1,0,0.2l0.7,0.4c0.1,0,0.2,0,0.3,0l0.4-0.2
					C87.8,98,87.8,97.9,87.8,97.9z"/>
				<path class="st14" d="M90.6,99.5l-2.1-1.2c-0.1,0-0.2,0-0.3,0l-0.4,0.2c-0.1,0-0.1,0.1,0,0.2l2.1,1.2c0.1,0,0.2,0,0.3,0l0.4-0.2
					C90.6,99.6,90.6,99.5,90.6,99.5z"/>
				<path class="st14" d="M91.9,100.3l-0.7-0.4c-0.1,0-0.2,0-0.3,0l-0.4,0.2c-0.1,0-0.1,0.1,0,0.2l0.7,0.4c0.1,0,0.2,0,0.3,0
					l0.4-0.2C92,100.4,92,100.3,91.9,100.3z"/>
				<path class="st14" d="M85.6,99.1l-0.7-0.4c-0.1,0-0.2,0-0.3,0l-0.4,0.2c-0.1,0-0.1,0.1,0,0.2l0.7,0.4c0.1,0,0.2,0,0.3,0l0.4-0.2
					C85.7,99.2,85.7,99.1,85.6,99.1z"/>
				<path class="st14" d="M87,99.9l-0.7-0.4c-0.1,0-0.2,0-0.3,0l-0.4,0.2c-0.1,0-0.1,0.1,0,0.2l0.7,0.4c0.1,0,0.2,0,0.3,0l0.4-0.2
					C87.1,100,87.1,99.9,87,99.9z"/>
				<path class="st14" d="M88.4,100.7l-0.7-0.4c-0.1,0-0.2,0-0.3,0l-0.4,0.2c-0.1,0-0.1,0.1,0,0.2l0.7,0.4c0.1,0,0.2,0,0.3,0
					l0.4-0.2C88.5,100.8,88.5,100.8,88.4,100.7z"/>
				<path class="st14" d="M89.8,101.5l-0.7-0.4c-0.1,0-0.2,0-0.3,0l-0.4,0.2c-0.1,0-0.1,0.1,0,0.2l0.7,0.4c0.1,0,0.2,0,0.3,0
					l0.4-0.2C89.9,101.6,89.9,101.6,89.8,101.5z"/>
				<path class="st14" d="M84.6,99.7l-0.7-0.4c-0.1,0-0.2,0-0.3,0l-0.4,0.2c-0.1,0-0.1,0.1,0,0.2l0.7,0.4c0.1,0,0.2,0,0.3,0l0.4-0.2
					C84.7,99.8,84.7,99.8,84.6,99.7z"/>
				<path class="st14" d="M86,100.5l-0.7-0.4c-0.1,0-0.2,0-0.3,0l-0.4,0.2c-0.1,0-0.1,0.1,0,0.2l0.7,0.4c0.1,0,0.2,0,0.3,0l0.4-0.2
					C86,100.6,86,100.5,86,100.5z"/>
				<path class="st14" d="M87.4,101.3l-0.7-0.4c-0.1,0-0.2,0-0.3,0l-0.4,0.2c-0.1,0-0.1,0.1,0,0.2l0.7,0.4c0.1,0,0.2,0,0.3,0
					l0.4-0.2C87.5,101.4,87.5,101.4,87.4,101.3z"/>
				<path class="st14" d="M88.8,102.1l-0.7-0.4c-0.1,0-0.2,0-0.3,0l-0.4,0.2c-0.1,0-0.1,0.1,0,0.2l0.7,0.4c0.1,0,0.2,0,0.3,0
					l0.4-0.2C88.8,102.2,88.8,102.2,88.8,102.1z"/>
				<path class="st14" d="M83.3,100.5l-0.7-0.4c-0.1,0-0.2,0-0.3,0l-0.4,0.2c-0.1,0-0.1,0.1,0,0.2l0.7,0.4c0.1,0,0.2,0,0.3,0
					l0.4-0.2C83.3,100.6,83.3,100.5,83.3,100.5z"/>
				<path class="st14" d="M84.6,101.3l-0.7-0.4c-0.1,0-0.2,0-0.3,0l-0.4,0.2c-0.1,0-0.1,0.1,0,0.2l0.7,0.4c0.1,0,0.2,0,0.3,0
					l0.4-0.2C84.7,101.4,84.7,101.3,84.6,101.3z"/>
				<path class="st14" d="M86.1,102.1l-0.7-0.4c-0.1,0-0.2,0-0.3,0l-0.4,0.2c-0.1,0-0.1,0.1,0,0.2l0.7,0.4c0.1,0,0.2,0,0.3,0
					l0.4-0.2C86.1,102.2,86.1,102.1,86.1,102.1z"/>
				<path class="st14" d="M87.4,102.9l-0.7-0.4c-0.1,0-0.2,0-0.3,0l-0.4,0.2c-0.1,0-0.1,0.1,0,0.2l0.7,0.4c0.1,0,0.2,0,0.3,0
					l0.4-0.2C87.5,103,87.5,102.9,87.4,102.9z"/>
				<path class="st14" d="M86.7,98.5L86,98.1c-0.1,0-0.2,0-0.3,0l-0.4,0.2c-0.1,0-0.1,0.1,0,0.2l0.7,0.4c0.1,0,0.2,0,0.3,0l0.4-0.2
					C86.8,98.6,86.8,98.5,86.7,98.5z"/>
				<path class="st14" d="M88.1,99.3l-0.7-0.4c-0.1,0-0.2,0-0.3,0l-0.4,0.2c-0.1,0-0.1,0.1,0,0.2l0.7,0.4c0.1,0,0.2,0,0.3,0l0.4-0.2
					C88.1,99.4,88.1,99.3,88.1,99.3z"/>
				<path class="st14" d="M89.5,100.1l-0.7-0.4c-0.1,0-0.2,0-0.3,0l-0.4,0.2c-0.1,0-0.1,0.1,0,0.2l0.7,0.4c0.1,0,0.2,0,0.3,0
					l0.4-0.2C89.6,100.2,89.6,100.2,89.5,100.1z"/>
				<path class="st14" d="M90.9,100.9l-0.7-0.4c-0.1,0-0.2,0-0.3,0l-0.4,0.2c-0.1,0-0.1,0.1,0,0.2l0.7,0.4c0.1,0,0.2,0,0.3,0
					l0.4-0.2C90.9,101,90.9,100.9,90.9,100.9z"/>
				<path class="st14" d="M93.3,101.1l-0.7-0.4c-0.1,0-0.2,0-0.3,0l-0.4,0.2c-0.1,0-0.1,0.1,0,0.2l0.7,0.4c0.1,0,0.2,0,0.3,0
					l0.4-0.2C93.4,101.2,93.4,101.1,93.3,101.1z"/>
				<path class="st14" d="M91.2,102.3l-0.7-0.4c-0.1,0-0.2,0-0.3,0l-1.4,0.8c-0.1,0-0.1,0.1,0,0.2l0.7,0.4c0.1,0,0.2,0,0.3,0
					l1.4-0.8C91.3,102.4,91.3,102.4,91.2,102.3z"/>
				<path class="st14" d="M88.8,103.7l-0.7-0.4c-0.1,0-0.2,0-0.3,0l-0.4,0.2c-0.1,0-0.1,0.1,0,0.2l0.7,0.4c0.1,0,0.2,0,0.3,0
					l0.4-0.2C88.9,103.8,88.9,103.7,88.8,103.7z"/>
				<path class="st14" d="M92.3,101.7l-0.7-0.4c-0.1,0-0.2,0-0.3,0l-0.4,0.2c-0.1,0-0.1,0.1,0,0.2l0.7,0.4c0.1,0,0.2,0,0.3,0
					l0.4-0.2C92.3,101.8,92.3,101.8,92.3,101.7z"/>
			</g>
			<g>
				<path class="st14" d="M94.7,101.9l-0.7-0.4c-0.1,0-0.2,0-0.3,0l-0.4,0.2c-0.1,0-0.1,0.1,0,0.2l0.7,0.4c0.1,0,0.2,0,0.3,0
					l0.4-0.2C94.8,102,94.8,101.9,94.7,101.9z"/>
				<path class="st14" d="M97.5,103.5l-2.1-1.2c-0.1,0-0.2,0-0.3,0l-0.4,0.2c-0.1,0-0.1,0.1,0,0.2l2.1,1.2c0.1,0,0.2,0,0.3,0
					l0.4-0.2C97.6,103.6,97.6,103.6,97.5,103.5z"/>
				<path class="st14" d="M92.6,103.1l-0.7-0.4c-0.1,0-0.2,0-0.3,0l-0.4,0.2c-0.1,0-0.1,0.1,0,0.2l0.7,0.4c0.1,0,0.2,0,0.3,0
					l0.4-0.2C92.7,103.2,92.7,103.2,92.6,103.1z"/>
				<path class="st14" d="M94,103.9l-0.7-0.4c-0.1,0-0.2,0-0.3,0l-0.4,0.2c-0.1,0-0.1,0.1,0,0.2l0.7,0.4c0.1,0,0.2,0,0.3,0l0.4-0.2
					C94,104,94,104,94,103.9z"/>
				<path class="st14" d="M95.4,104.7l-0.7-0.4c-0.1,0-0.2,0-0.3,0l-0.4,0.2c-0.1,0-0.1,0.1,0,0.2l0.7,0.4c0.1,0,0.2,0,0.3,0
					l0.4-0.2C95.5,104.8,95.5,104.8,95.4,104.7z"/>
				<path class="st14" d="M91.5,103.7l-0.7-0.4c-0.1,0-0.2,0-0.3,0l-0.4,0.2c-0.1,0-0.1,0.1,0,0.2l0.7,0.4c0.1,0,0.2,0,0.3,0
					l0.4-0.2C91.6,103.8,91.6,103.8,91.5,103.7z"/>
				<path class="st14" d="M92.9,104.5l-0.7-0.4c-0.1,0-0.2,0-0.3,0l-0.4,0.2c-0.1,0-0.1,0.1,0,0.2l0.7,0.4c0.1,0,0.2,0,0.3,0
					l0.4-0.2C93,104.6,93,104.6,92.9,104.5z"/>
				<path class="st14" d="M94.3,105.3l-0.7-0.4c-0.1,0-0.2,0-0.3,0l-0.4,0.2c-0.1,0-0.1,0.1,0,0.2l0.7,0.4c0.1,0,0.2,0,0.3,0
					l0.4-0.2C94.4,105.5,94.4,105.4,94.3,105.3z"/>
				<path class="st14" d="M90.2,104.5l-0.7-0.4c-0.1,0-0.2,0-0.3,0l-0.4,0.2c-0.1,0-0.1,0.1,0,0.2l0.7,0.4c0.1,0,0.2,0,0.3,0
					l0.4-0.2C90.3,104.6,90.3,104.5,90.2,104.5z"/>
				<path class="st14" d="M91.6,105.3l-0.7-0.4c-0.1,0-0.2,0-0.3,0l-0.4,0.2c-0.1,0-0.1,0.1,0,0.2l0.7,0.4c0.1,0,0.2,0,0.3,0
					l0.4-0.2C91.6,105.4,91.7,105.3,91.6,105.3z"/>
				<path class="st14" d="M93,106.1l-0.7-0.4c-0.1,0-0.2,0-0.3,0l-0.4,0.2c-0.1,0-0.1,0.1,0,0.2l0.7,0.4c0.1,0,0.2,0,0.3,0l0.4-0.2
					C93.1,106.2,93.1,106.2,93,106.1z"/>
				<path class="st14" d="M87.7,104.3l-0.7-0.4c-0.1,0-0.2,0-0.3,0l-0.4,0.2c-0.1,0-0.1,0.1,0,0.2l0.7,0.4c0.1,0,0.2,0,0.3,0
					l0.4-0.2C87.7,104.5,87.8,104.4,87.7,104.3z"/>
				<path class="st14" d="M89.1,105.1l-0.7-0.4c-0.1,0-0.2,0-0.3,0l-0.4,0.2c-0.1,0-0.1,0.1,0,0.2l0.7,0.4c0.1,0,0.2,0,0.3,0
					l0.4-0.2C89.1,105.3,89.1,105.2,89.1,105.1z"/>
				<path class="st14" d="M90.4,105.9l-0.7-0.4c-0.1,0-0.2,0-0.3,0l-0.4,0.2c-0.1,0-0.1,0.1,0,0.2l0.7,0.4c0.1,0,0.2,0,0.3,0
					l0.4-0.2C90.5,106,90.5,106,90.4,105.9z"/>
				<path class="st14" d="M91.9,106.8l-0.7-0.4c-0.1,0-0.2,0-0.3,0l-0.4,0.2c-0.1,0-0.1,0.1,0,0.2l0.7,0.4c0.1,0,0.2,0,0.3,0
					l0.4-0.2C91.9,106.9,91.9,106.8,91.9,106.8z"/>
				<path class="st14" d="M93.7,102.5l-0.7-0.4c-0.1,0-0.2,0-0.3,0l-0.4,0.2c-0.1,0-0.1,0.1,0,0.2l0.7,0.4c0.1,0,0.2,0,0.3,0
					l0.4-0.2C93.7,102.6,93.7,102.6,93.7,102.5z"/>
				<path class="st14" d="M95,103.3l-0.7-0.4c-0.1,0-0.2,0-0.3,0l-0.4,0.2c-0.1,0-0.1,0.1,0,0.2l0.7,0.4c0.1,0,0.2,0,0.3,0l0.4-0.2
					C95.1,103.4,95.1,103.3,95,103.3z"/>
				<path class="st14" d="M96.4,104.1l-0.7-0.4c-0.1,0-0.2,0-0.3,0l-0.4,0.2c-0.1,0-0.1,0.1,0,0.2l0.7,0.4c0.1,0,0.2,0,0.3,0
					l0.4-0.2C96.5,104.2,96.5,104.2,96.4,104.1z"/>
			</g>
		</g>
		<g>
			<path class="st5" d="M72.9,91.8c0.3-0.6,1-0.7,1.1-0.7c0,0,0,0,0,0c0,0,0,0,0,0l0,0c0.2,0,0.5,0.1,0.8,0.2l10.4,6
				c0.6,0.4,1.2,1.2,1.5,2c0.1,0.3,2.1,5,2.7,6.6c0.2,0.6,0.3,1.1,0.3,1.4l0,0c0,0,0,0,0,0c0,0,0,0.1,0,0.1c-0.2,0.7-1,0.7-1,0.7
				l-0.1-0.6c0,0,0,0-0.1,0l-9.4-5.4c-0.9-0.5-1.7-1.8-2.3-3.1c0,0-2.2-4.7-2.9-6.2L73.7,93C73.7,93,72.7,92.2,72.9,91.8z"/>
			<path class="st8" d="M78.4,102.5l9.4,5.4c0.9,0.5,1.7,0.3,1-1.6c-0.6-1.6-2.6-6.2-2.7-6.6c-0.3-0.9-0.9-1.7-1.5-2l-10.4-6
				c-0.6-0.3-1.2-0.4-1.3,0.2c-0.1,0.2,0.1,0.6,0.2,0.8c0.1,0.2,3.1,6.6,3.1,6.6C76.7,100.7,77.5,102,78.4,102.5z"/>
		</g>
		<g>
			<polygon class="st6" points="85.4,107.5 86.9,108.3 86.4,107 84.9,106.1 			"/>
			<polygon class="st15" points="84.9,106.1 85.1,106 86.6,106.8 86.4,107 			"/>
			<polygon class="st16" points="86.9,108.3 87.2,108.2 86.6,106.8 86.4,107 			"/>
		</g>
		<g>
			<polygon class="st6" points="79.1,103.8 80.6,104.6 80,103.2 78.5,102.4 			"/>
			<polygon class="st15" points="78.5,102.4 78.8,102.3 80.2,103.1 80,103.2 			"/>
			<polygon class="st16" points="80.6,104.6 80.8,104.5 80.2,103.1 80,103.2 			"/>
		</g>
	</g>
	<g>
		<g>
			<path class="st17" d="M70,43l9.1,5.3c1.5,0.8,2.6-0.1,2.6-2V34.1c0-1.9-1.2-4.2-2.6-5.1L70,23.7c-1.5-0.8-2.6,0.1-2.6,2v12.2
				C67.4,39.9,68.5,42.2,70,43z"/>
			<path class="st17" d="M80.2,45.6c0.1,0.1,0.7,2.8,0.7,2.8l-3.3,1.9l-1.5-4L80.2,45.6z"/>
			<polygon class="st17" points="68.4,23.6 65,25.5 66.4,28 69.3,26.3 			"/>
			<path class="st8" d="M66.7,44.9l9.1,5.3c1.5,0.8,2.6-0.1,2.6-2V36c0-1.9-1.2-4.2-2.6-5.1l-9.1-5.3c-1.5-0.8-2.6,0.1-2.6,2v12.2
				C64.1,41.8,65.3,44,66.7,44.9z"/>
		</g>
		<g>
			<g>
				<path class="st9" d="M70.3,43.4c-2.7-2.4-4.3-6.8-3.7-9.8c0.6-3,3.3-3.6,6-1.2c2.7,2.4,4.3,6.8,3.7,9.8
					C75.6,45.2,73,45.8,70.3,43.4z M73.5,39.7c0.3-1.3-0.4-3.1-1.5-4c-1.1-1-2.2-0.8-2.5,0.5c-0.3,1.3,0.4,3.1,1.5,4
					C72.1,41.2,73.2,41,73.5,39.7z"/>
			</g>
			<g>
				<polygon class="st9" points="65.6,34.1 65.7,33.4 65.9,32.4 66.1,31.8 67.4,32.3 67.2,33.4 66.9,34.6 66.7,35.7 				"/>
				<polygon class="st9" points="76.8,44 76.9,43.4 77.1,42.4 77.3,41.7 76.2,40.1 75.9,41.2 75.7,42.4 75.5,43.5 				"/>
			</g>
			<g>
				<polygon class="st9" points="71.1,45.2 70.6,44.7 69.7,43.9 69.1,43.4 68.9,41.5 69.9,42.4 70.9,43.3 71.9,44.2 				"/>
				<polygon class="st9" points="73.8,32.4 73.2,31.9 72.3,31.1 71.7,30.6 71,31.6 72,32.5 73,33.4 74,34.3 				"/>
			</g>
			<g>
				<polygon class="st9" points="67.1,40.3 66.8,39.5 66.3,38.2 66,37.4 66.8,36.5 67.3,37.9 67.9,39.4 68.4,40.8 				"/>
				<polygon class="st9" points="76.9,38.4 76.6,37.6 76.1,36.3 75.8,35.5 74.4,35 75,36.4 75.5,37.9 76.1,39.3 				"/>
			</g>
			<g>
				<polygon class="st9" points="75.4,45.8 74.9,45.8 74.1,46 73.6,46.1 72.5,44.4 73.4,44.3 74.2,44.1 75.1,43.9 				"/>
				<polygon class="st9" points="69.3,29.7 68.8,29.8 68,30 67.5,30 67.7,31.9 68.6,31.7 69.5,31.5 70.4,31.4 				"/>
			</g>
		</g>
	</g>
	<g>
		<g>
			<path class="st11" d="M82.4,24.1l9.1,5.3c1.5,0.8,2.6-0.1,2.6-2V15.2c0-1.9-1.2-4.2-2.6-5.1l-9.1-5.3c-1.5-0.8-2.6,0.1-2.6,2V19
				C79.8,21,81,23.2,82.4,24.1z"/>
			<path class="st11" d="M92.6,26.7c0.1,0.1,0.7,2.8,0.7,2.8L90,31.4l-1.5-4L92.6,26.7z"/>
			<polygon class="st11" points="80.8,4.6 77.5,6.6 78.9,9 81.7,7.4 			"/>
			<path class="st13" d="M79.1,26l9.1,5.3c1.5,0.8,2.6-0.1,2.6-2V17.1c0-1.9-1.2-4.2-2.6-5.1l-9.1-5.3c-1.5-0.8-2.6,0.1-2.6,2v12.2
				C76.5,22.9,77.7,25.1,79.1,26z"/>
		</g>
		<g>
			<path class="st9" d="M89,21.9v-0.5c-0.4-1-0.9-1.2-0.9-3.2c0-0.7-0.3-2-2-3c-0.5-0.3-0.6-0.3-1.3-0.6v1.4c0.3,0.1,0.7,0.3,1,0.5
				c0.4,0.2,0.8,0.6,0.8,1.3c0,1.8,0.4,2.4,0.7,2.8V21c-0.6,0.3-0.7,0-0.7,2.1c0,0.7-0.4,0.6-0.9,0.4c-0.4-0.2-0.8-0.6-0.9-0.7v1.4
				c0.6,0.5,0.7,0.6,1.2,0.9c1.4,0.8,2.1,0.5,2.1-0.5C88.1,22.4,88.5,22.6,89,21.9z"/>
			<path class="st9" d="M81.5,21c-0.4-0.3-0.9-0.7-0.9-1.4c0-2.1-0.1-2-0.7-2.9v-0.5c0.3-0.2,0.7-0.2,0.7-2c0-0.7,0.3-0.7,0.8-0.4
				c0.3,0.2,0.7,0.5,1,0.7v-1.4c-0.7-0.5-0.8-0.6-1.3-0.9c-1.6-0.9-2-0.1-2,0.7c0,0,0,0,0,0c0,2-0.4,1.7-0.9,2.2v0.5
				c0.5,1.3,0.9,1.6,0.9,3.6c0,1,0.7,2.1,2.1,2.9c0.5,0.3,0.6,0.3,1.2,0.5v-1.4C82.3,21.3,81.9,21.2,81.5,21z"/>
		</g>
	</g>
	<g>
		<g>
			<path class="st18" d="M98.9,40.9l9.1,5.3c1.5,0.8,2.6-0.1,2.6-2V31.9c0-1.9-1.2-4.2-2.6-5.1l-9.1-5.3c-1.5-0.8-2.6,0.1-2.6,2
				v12.2C96.2,37.7,97.4,40,98.9,40.9z"/>
			<path class="st18" d="M109,43.5c0.1,0.1,0.7,2.8,0.7,2.8l-3.3,1.9l-1.5-4L109,43.5z"/>
			<polygon class="st18" points="97.2,21.4 93.9,23.3 95.3,25.8 98.1,24.1 			"/>
			<path class="st19" d="M95.6,42.7l9.1,5.3c1.5,0.8,2.6-0.1,2.6-2V33.8c0-1.9-1.2-4.2-2.6-5.1l-9.1-5.3c-1.5-0.8-2.6,0.1-2.6,2
				v12.2C92.9,39.6,94.1,41.9,95.6,42.7z"/>
		</g>
		<g>
			<path class="st9" d="M98.8,35.7l2.3,1.3v3.3c-0.1,0-0.3,0-0.5,0.1c-0.2,0-0.4,0-0.6-0.1c-0.2,0-0.5-0.1-0.8-0.2
				c-0.3-0.1-0.7-0.3-1-0.5c-0.6-0.3-1.1-0.7-1.5-1.2c-0.5-0.5-0.8-1-1.2-1.6c-0.3-0.6-0.6-1.3-0.7-2c-0.2-0.8-0.3-1.6-0.3-2.6
				c0-0.9,0.1-1.7,0.3-2.3c0.2-0.6,0.4-1,0.7-1.2c0.3-0.2,0.7-0.3,1.2-0.2c0.5,0.1,1,0.3,1.5,0.6c0.4,0.2,0.7,0.5,1,0.7
				c0.3,0.2,0.6,0.5,0.8,0.7c0.2,0.2,0.5,0.5,0.6,0.7c0.2,0.2,0.3,0.4,0.5,0.6v3.2l-2.3-1.3v-0.9c0-0.3-0.1-0.6-0.2-0.8
				c-0.1-0.2-0.3-0.4-0.5-0.5c-0.2-0.1-0.4-0.1-0.5-0.1c-0.1,0.1-0.2,0.3-0.2,0.6V36c0,0.3,0.1,0.6,0.2,0.8c0.1,0.2,0.3,0.4,0.5,0.5
				c0.2,0.1,0.4,0.1,0.5,0.1c0.1-0.1,0.2-0.3,0.2-0.6V35.7z"/>
			<path class="st9" d="M103.4,37v-2.1l1.6,0.9v2.1l1.6,0.9V41l-1.6-0.9v2.1l-1.6-0.9v-2.1l-1.6-0.9V36L103.4,37z"/>
		</g>
	</g>
</g>
</svg>
