<?xml version="1.0" encoding="utf-8"?>
<!-- Generator: Adobe Illustrator 19.0.0, SVG Export Plug-In . SVG Version: 6.00 Build 0)  -->
<svg version="1.1" id="Layer_1" xmlns="http://www.w3.org/2000/svg" xmlns:xlink="http://www.w3.org/1999/xlink" x="0px" y="0px"
	 viewBox="0 0 135.3 173.6" style="enable-background:new 0 0 135.3 173.6;" xml:space="preserve">
<style type="text/css">
	.st0{fill:#291C50;}
	.st1{fill:#F49090;}
	.st2{fill:#2E2D78;}
	.st3{fill:#F7A7A8;}
	.st4{fill:#263A78;}
	.st5{fill:#20285D;}
	.st6{fill:#354794;}
	.st7{opacity:0.2;fill:#EBF6F6;}
	.st8{fill:none;stroke:#EBF6F6;stroke-miterlimit:10;}
	.st9{fill:#64C5B7;}
	.st10{fill:#8ED2CD;}
	.st11{fill:#DDEDFA;}
	.st12{fill:#FFFFFF;}
	.st13{fill:#A9C9EA;}
	.st14{fill:#CAE0F4;}
	.st15{fill:#3B2D6D;}
	.st16{fill:#82A6D7;}
	.st17{fill:#F5FBFB;}
</style>
<g id="XMLID_42_">
	<g id="XMLID_41_">
		<g id="XMLID_2506_">
			<path id="XMLID_2574_" class="st0" d="M89.8,151.7c0,0,0.4,0.7,2.4-0.2c2-0.8,2.6-1.9,2.6-1.9s-0.5-4-1.8-3
				C91.8,147.7,89.8,151.7,89.8,151.7z"/>
			<path id="XMLID_2552_" class="st1" d="M94.9,137.6c0,2.1-0.1,3.7,0.7,4.9c0.8,1.1,0.9,1.9,0.9,1.9s-2.4,0.3-3.6,2
				c-1.2,1.7-1.2,3.3-2.3,3.6c-1.1,0.3-3-1-3-1s1.2,0,1.7-1.5c0.5-1.5,1.7-4.7,1.7-5.6c0-0.8,0-4.1,0-4.1L94.9,137.6z"/>
			<path id="XMLID_2508_" class="st2" d="M94.9,143c-1,0.1-2.6,1.2-3.2,2.4c-0.5,1.2-1.4,2.9-2.1,3.3c-0.7,0.4-1.9-0.2-2.9-0.2
				c-1,0-1.8,0.5-1.8,1.2c0,0,3.3,1.6,4.3,2c1,0.5,1.8,0.5,2.6-1.6c0.8-2,1.1-3.2,1.7-1.8c0.6,1.4,0.9,4.5,0.9,4.5s0.8,0.3,1.2-0.5
				c0,0,0-1.5,0.2-2.7c0.2-1.3,1.3-2.8,1.2-4.4C96.9,143.8,96,142.9,94.9,143z"/>
		</g>
		<g id="XMLID_2494_">
			<path id="XMLID_2495_" class="st1" d="M89.8,119.6L95,120c0,0,1.2,2.5,1.2,3.7c1.5,3.8-1.2,13.6-0.9,18c0,0-2.4,1.3-4.3,0.1
				c0,0-2-19-2.4-22.4L89.8,119.6z"/>
		</g>
		<g id="XMLID_381_">
			<path id="XMLID_2155_" class="st0" d="M79.2,156.7c0,0,0.4,0.7,2.4-0.2c2-0.8,2.6-1.9,2.6-1.9s-0.5-4-1.8-3
				C81.2,152.7,79.2,156.7,79.2,156.7z"/>
			<path id="XMLID_2123_" class="st3" d="M84.3,142.6c0,2.1-0.1,3.7,0.7,4.9c0.8,1.1,0.9,1.9,0.9,1.9s-2.4,0.3-3.6,2
				c-1.2,1.7-1.2,3.3-2.3,3.6c-1.1,0.3-3-1-3-1s1.2,0,1.7-1.5c0.5-1.5,1.7-4.7,1.7-5.6c0-0.8,0-4.1,0-4.1L84.3,142.6z"/>
			<path id="XMLID_386_" class="st2" d="M84.3,148c-1,0.1-2.6,1.2-3.2,2.4c-0.5,1.2-1.4,2.9-2.1,3.3c-0.7,0.4-1.9-0.2-2.9-0.2
				c-1,0-1.8,0.5-1.8,1.2c0,0,3.3,1.6,4.3,2c1,0.5,1.8,0.5,2.6-1.6c0.8-2,1.1-3.2,1.7-1.8c0.6,1.4,0.9,4.5,0.9,4.5s0.8,0.3,1.2-0.5
				c0,0,0-1.5,0.2-2.7c0.2-1.3,1.3-2.8,1.2-4.4C86.3,148.8,85.5,147.9,84.3,148z"/>
		</g>
		<path id="XMLID_376_" class="st3" d="M85.6,129.3c1.4,2.3-0.3,8.5-1,17.4c0,0-2,1.5-4.3,0.3c0,0-1.9-18.6-2.3-22"/>
	</g>
	<g id="XMLID_3354_">
		<g id="XMLID_3270_">
			<path id="XMLID_3347_" class="st4" d="M106.7,86.9L9.9,142.8l-3.3,1.9l-3.9-2.3c-0.5-0.3-0.9-1-0.9-1.5V60.4c0-0.3,0.1-0.7,0.3-1
				c0.2-0.3,0.4-0.6,0.7-0.8L101,2c0.5-0.3,1.3-0.3,1.7,0l3.9,2.3L106.7,86.9z"/>
			<path id="XMLID_3345_" class="st5" d="M9.9,63.9v78.8l-3.3,1.9l-3.9-2.3c-0.5-0.3-0.9-1-0.9-1.5V60.4c0-0.3,0.1-0.7,0.3-1
				L9.9,63.9z"/>
			<path id="XMLID_3269_" class="st6" d="M8.5,60.1l96.4-55.6c1.4-0.8,2.6-0.2,2.6,1.5v78.4c0,1.7-1.2,3.7-2.6,4.5L8.5,144.5
				c-1.4,0.8-2.6,0.2-2.6-1.5l0-78.4C5.9,62.9,7,60.9,8.5,60.1z"/>
		</g>
		<g id="XMLID_3273_">
			<path id="XMLID_3271_" class="st7" d="M24.8,60.1l96.4-55.6c1.4-0.8,2.6-0.2,2.6,1.5v78.4c0,1.7-1.2,3.7-2.6,4.5l-96.4,55.6
				c-1.4,0.8-2.6,0.2-2.6-1.5V64.6C22.2,62.9,23.3,60.9,24.8,60.1z"/>
			<path id="XMLID_3272_" class="st8" d="M24.8,60.1l96.4-55.6c1.4-0.8,2.6-0.2,2.6,1.5v78.4c0,1.7-1.2,3.7-2.6,4.5l-96.4,55.6
				c-1.4,0.8-2.6,0.2-2.6-1.5V64.6C22.2,62.9,23.3,60.9,24.8,60.1z"/>
		</g>
		<g id="XMLID_3344_">
			<path id="XMLID_3343_" class="st9" d="M44.4,72.2l0.8-0.4c2.2-1.3,4.6-1.2,6.3,0c0.9,0.6,3.3,1.9,3.3,1.9l1.3,7.2
				c1.4,3.6,5.3,5,8.6,3l0.1,0c3.3-1.9,6.3-6.6,6.6-10.5L74.4,48c0.3-3.9,3.1-8.5,6.3-10.3c1.8-1,3.7-1,5.3-0.2c1.3,0.7,4,2.3,4,2.3
				L92.8,55c1.3,3.6,4.8,5.2,7.8,3.5c1.6-0.9,3.3-0.9,4.7,0c1.1,0.7,3.3,2,3.3,2l2.8,15.2l-73.1,46.9l-4.1-2.3l3.4-37.6
				C38.1,78.8,41.1,74.1,44.4,72.2z"/>
			<path id="XMLID_3275_" class="st10" d="M48.5,74.5l0.8-0.4c3.3-1.9,7.2-0.7,8.5,2.8l2.4,6.3c1.4,3.6,5.3,5,8.6,3l0.1,0
				c3.3-1.9,6.3-6.6,6.6-10.5l3.1-25.4c0.6-4.8,3.1-8.5,6.3-10.3c3.2-1.9,6.9-0.4,8.2,3.2l3.8,14.2c1.3,3.6,4.8,5.2,7.8,3.5
				c3-1.7,6.2-0.1,7.2,3.7l3.7,13.5l-77.2,44.6L41.8,85C42.1,81.1,45.1,76.4,48.5,74.5z"/>
			<path id="XMLID_3284_" class="st9" d="M39,62.6c0,0.8,0.7,1,1.6,0.5l14.4-8.3c0.9-0.5,1.6-1.6,1.6-2.4c0-0.8-0.7-1-1.6-0.5
				l-14.4,8.3C39.7,60.7,39,61.8,39,62.6z"/>
			<path id="XMLID_3346_" class="st9" d="M39,68.5c0,0.8,0.7,1,1.6,0.5l14.4-8.3c0.9-0.5,1.6-1.6,1.6-2.4c0-0.8-0.7-1-1.6-0.5
				l-14.4,8.3C39.7,66.6,39,67.7,39,68.5z"/>
		</g>
	</g>
	<g id="XMLID_2633_">
		<path id="XMLID_3193_" class="st11" d="M133,132.2l-23.2-13.4c-1.4-0.8-3.8-0.8-5.2,0l-23.2,13.4c-1.4,0.8-1.4,2.2,0,3l23.2,13.4
			c1.4,0.8,3.8,0.8,5.2,0l23.2-13.4C134.5,134.3,134.5,133,133,132.2z"/>
		<g id="XMLID_2718_">
			<path id="XMLID_29_" class="st12" d="M107.2,119.1c0.8,0,1.6,0.2,2.1,0.5l23.2,13.4c0.4,0.2,0.6,0.5,0.6,0.6s-0.2,0.4-0.6,0.6
				l-23.2,13.4c-0.5,0.3-1.3,0.5-2.1,0.5c-0.8,0-1.6-0.2-2.1-0.5l-23.2-13.4c-0.4-0.2-0.6-0.5-0.6-0.6c0-0.1,0.2-0.4,0.6-0.6
				l23.2-13.4C105.6,119.3,106.4,119.1,107.2,119.1 M107.2,118.1c-0.9,0-1.9,0.2-2.6,0.6l-23.2,13.4c-1.4,0.8-1.4,2.2,0,3l23.2,13.4
				c0.7,0.4,1.7,0.6,2.6,0.6s1.9-0.2,2.6-0.6l23.2-13.4c1.4-0.8,1.4-2.2,0-3l-23.2-13.4C109.1,118.3,108.1,118.1,107.2,118.1
				L107.2,118.1z"/>
		</g>
		<path id="XMLID_2710_" class="st13" d="M134.1,157.1c0,0.6-0.4,1.1-1.1,1.5L109.8,172c-0.7,0.4-1.5,0.6-2.6,0.6v-23.5
			c1,0,1.9-0.2,2.6-0.6l23.2-13.4c0.6-0.3,1.1-0.8,1.1-1.5V157.1z"/>
		<path id="XMLID_2635_" class="st14" d="M80.3,157.1c0,0.6,0.4,1.1,1.1,1.5l23.2,13.4c0.7,0.4,1.5,0.6,2.6,0.6v-23.5
			c-1,0-1.9-0.2-2.6-0.6l-23.2-13.4c-0.6-0.3-1.1-0.8-1.1-1.5V157.1z"/>
	</g>
	<g id="XMLID_119_">
		<path id="XMLID_288_" class="st15" d="M111.8,80.9c-1.8-1.2-4.3-2-6.4-1.6c-1.4,0.3-2.5,1.1-3.4,2.2c-0.4,0.5-1.1,2-0.7,4
			c0.2,1,0.9,1.9,1.8,2c0.6,0.1,1.2-0.1,1.7-0.4c0.4-0.2,0.7-0.6,1.1-0.9c0.7-0.6,1.4-1.2,2.1-1.8c1.1-1,2.3-2.1,3.4-3.1
			C111.3,81.3,111.7,80.9,111.8,80.9z"/>
		<path id="XMLID_285_" class="st1" d="M95.1,114.7c2.4,0.9,18.2,7.1,18.2,7.1s-0.7,11.7-4.2,9.8l-16.2-9.8l-4.3-2.4
			C88.2,115.6,92.4,113.7,95.1,114.7z"/>
		<g id="XMLID_210_">
			<path id="XMLID_227_" class="st3" d="M78.1,125c-0.4-3.8,3.9-5.7,6.6-4.7c2.4,0.9,18.5,6.5,18.5,6.5l14.3-0.8
				c2.5,5.9-1.8,8.8-6.4,10.8c-4.6,2-8.9,2.3-12.4,0.4l-16.2-9.8l2.1-1.8c0,0,1.1,2.4,1.1,3.7"/>
		</g>
		<path id="XMLID_169_" class="st3" d="M102.6,86c0.5-3.4,3-6,6.5-5.8c3.8,0.2,6.6,3.4,6.4,7.2c-0.1,2.2-1.3,4.1-3,5.2
			c0,0-0.4,0.7-0.6,1c0,0,0.5,2.4,0.6,2.7c0.3,0.9,0.5,0.6,3.1,0.7c1.3,0,0.8,0.2,0.1,1.8c-0.6,1.4-3,2.9-5.2,3.1
			c-2.2,0.3-5.6-1.3-4.3-2.1s1.8-1,1.7-1.7c-0.2-0.9-0.4-1.7-0.6-2.2c-0.7,0.2-1.2,0.3-1.5,0.3c-1.4,0.1-2-0.9-2.7-2.5
			C102,91.1,102.3,87.7,102.6,86z"/>
		<path id="XMLID_162_" class="st1" d="M107.3,95.9c-0.7,0.2-1.2,0.3-1.5,0.3c-0.3,0-0.6,0-0.9-0.1c0.3-0.1,0.8-0.3,1.3-0.8
			c1.1-0.8,0.9-2.7,0.8-3.7l0.4,1l0.7,0.6l2.7,0.7l1.1-0.1c0.1,0.6,0.4,2.2,0.5,2.4c0.3,0.9,0.5,0.6,3.1,0.7c1.3,0,0.8,0.2,0.1,1.8
			c-0.4,0.9-1.4,1.8-2.7,2.4l-1.1,0.4c0,0-0.1,0-0.1,0l-5.2-2c1.1-0.7,1.6-0.9,1.5-1.5C107.8,97.2,107.5,96.4,107.3,95.9z"/>
		<path id="XMLID_161_" class="st16" d="M115.9,117.5c0.1,1.9,1.1,3.7,2.2,7.4c1.2,3.7,1.4,7.9-5.3,11.3c-6.7,3.3-11.1,2.8-14.4,1.1
			c-3.4-1.7-16-10-16-10c-1.5-2,4.2-10.7,15.7-11.5l8.1,3.2L115.9,117.5z"/>
		<path id="XMLID_157_" class="st17" d="M113.4,97c0.5,0.6,0.5,1.4-1.3,1.9c-2.5,0.6-4.1-0.3-4.1-0.3s-2.5,1.1-4.3,2.3
			c-4.2,2.9-5.2,8-1,9.8c0.3,1.9,0.6,6.8,0.7,8c3.6,2.5,10.9,1.7,12.6-1c0-0.9,0.2-2.4,0.3-2.7c1.7-6.4,3.1-8.1,2.6-12.9
			c-0.3-2.8-0.5-4.1-2-4.9C115.9,96.8,114,96.9,113.4,97z"/>
		<path id="XMLID_152_" class="st15" d="M113.3,92.8c1.6-1.6,2.1-3.2,2.2-5.4c0.2-3.8-2.7-7-6.4-7.2c-2.4-0.1-4.4,1-5.5,2.9
			c0,0,0.3,0.5,0.7,0.9c0,0-0.3,0.9,0.3,1.5c0.4,0.4,0.6,1,0.5,1.6c-0.1,0.6-0.1,1.4,0,2.1c0.1,1,1.1,1.4,1.1,1.4s0.1-1.7,0.6-2.4
			c0.6-0.9,1.5-0.9,2.3,0.1c0.5,0.6,0.5,2.2-0.1,3c-0.9,1.3-1.8,0.5-1.8,0.5c0.3,0.8,0.1,2,1.5,2.4c1.5,0.3,2.9-0.1,3.6-0.5
			C112.7,93.3,113.3,92.8,113.3,92.8z"/>
		<path id="XMLID_125_" class="st15" d="M112.8,81.6c1.8-0.5,3.4,2.2,4,5.9c0.6,3.7,0.7,6.3-0.5,7.7c-1.1,1.4-5.9,3.5-10.3,1.9
			c0,0,1.2-0.7,1-5.5c0,0,1.2,1.1,3.5,0.5c2.3-0.6,3.2-2.6,3-5.3C113.5,84.3,112.8,81.6,112.8,81.6z"/>
		<path id="XMLID_120_" class="st3" d="M78.9,100.2c0.4,0.8,0.9,1.4,1.3,2.6c0.4,1,0.5,1.4,1.2,2.2c0.7,0.8,2.9,2.1,6,3.8
			c3.1,1.6,5.6,1.6,7.5,1c4.1-1.4,6.3-5,9-7c1.8-1.4,3.6-0.7,3.9,0.6c0.2,1-0.7,3.9-3.9,6.8c-2.4,2.3-6.6,4.7-10.1,4.8
			c-2.2,0-4.9-0.7-6.7-1.6c-3-1.4-5.1-2.9-7.7-4.6c-0.7-0.5-1.4-0.6-2.8-1.4c-1.5-0.7-3-1.9-3.8-3.1c-0.8-1.2-0.8-1.7-0.7-1.9
			c0.2-0.3,0.6-0.2,1,0.3c0.4,0.5,1,1.4,2.1,2.1c0,0-0.9-1-1.4-1.7c-0.5-0.7-0.9-1.4-1.1-1.9c-0.3-0.7,0.3-1.6,0.8-1.1
			c0.4,0.5,0.6,1,1.4,1.9c0.7,0.9,1.4,1.4,1.4,1.4s-0.8-1.1-1.2-2.1c-0.5-1-0.5-1.6-0.4-1.9c0-0.3,0.5-0.7,1-0.1
			c0.4,0.6,0.6,1.5,1.6,2.6c0.7,0.7,1.3,1.2,1.3,1c0-0.2-0.4-0.6-0.6-1.5c-0.2-0.8,0.1-1.7,0.5-1.8C78.6,99.4,78.5,99.4,78.9,100.2z
			"/>
	</g>
</g>
</svg>
