<?xml version="1.0" encoding="utf-8"?>
<!-- Generator: Adobe Illustrator 19.0.0, SVG Export Plug-In . SVG Version: 6.00 Build 0)  -->
<svg version="1.1" id="Layer_1" xmlns="http://www.w3.org/2000/svg" xmlns:xlink="http://www.w3.org/1999/xlink" x="0px" y="0px"
	 viewBox="0 0 286 636" style="enable-background:new 0 0 286 636;" xml:space="preserve">
<style type="text/css">
	.st0{fill:#808080;}
	.st1{fill:#6A148A;}
	.st2{opacity:0.1;fill:#FFFFFF;}
	.st3{fill:#C44FFF;}
	.st4{fill:#333333;}
	.st5{fill:#666666;}
	.st6{fill:#1A1A1A;}
	.st7{fill:#141414;}
	.st8{opacity:0.2;fill:#FFFFFF;}
	.st9{fill:#E8CE72;}
	.st10{enable-background:new    ;}
	.st11{fill:#72E8C1;}
	.st12{fill:#E872C6;}
	.st13{fill:#8B72E8;}
	.st14{fill:#4D4D4D;}
	.st15{fill:url(#SVGID_1_);}
	.st16{opacity:0.1;}
	.st17{fill:url(#SVGID_2_);}
	.st18{fill:#E6E6E6;}
	.st19{opacity:0.7;}
	.st20{fill:#F2F2F2;}
	.st21{clip-path:url(#SVGID_4_);}
	.st22{fill:#48464F;}
	.st23{fill:#262626;}
	.st24{fill:#58595B;}
	.st25{fill:#353436;}
	.st26{fill:#414042;}
	.st27{opacity:0.25;}
	.st28{fill:#FFD2B3;}
	.st29{fill:#E6B49A;}
	.st30{fill:#D16411;}
	.st31{fill:url(#SVGID_5_);}
</style>
<g>
	<g>
		<g>
			<g>
				<g>
					<g>
						<path class="st0" d="M266.7,145.1c0-7.2-3.8-13.9-10.1-17.5L56.3,12.1l0,0c0,0,0,0,0,0c0,0,0,0,0,0c0,0,0,0,0,0c0,0,0,0,0,0
							c0,0,0,0,0,0c0,0,0,0,0,0c0,0,0,0-0.1,0c0,0-0.1,0-0.1,0c0,0,0,0,0.1,0C56.1,12.1,56,12,56,12c0,0,0,0-0.1,0c0,0,0,0,0,0l0,0
							c-0.1,0-0.2-0.1-0.3-0.1c0,0,0,0,0,0c0,0-0.1,0-0.1,0c0,0,0,0,0,0c0,0,0,0,0,0c0,0,0,0,0,0c0,0-0.1,0-0.1,0
							c-0.4-0.1-0.8-0.2-1.2-0.2c0,0-0.1,0-0.1,0c0,0-0.1,0-0.1,0c0,0,0,0,0,0c-0.1,0-0.2,0-0.3,0c0,0,0,0-0.1,0c0,0,0,0,0,0
							c0,0,0,0,0,0c-0.1,0-0.1,0-0.2,0c0,0,0,0-0.1,0l0,0v0c0,0,0,0,0,0c0,0,0,0,0,0c0,0-0.1,0-0.1,0l0,0l0,0c0,0,0,0,0,0
							c0,0,0,0,0,0c-0.1,0-0.2,0-0.3,0.1c-0.2,0-0.3,0.1-0.4,0.1l0,0l0,0c0,0,0,0,0,0c0,0-0.1,0-0.1,0.1c0,0,0,0,0,0
							c-0.1,0-0.1,0.1-0.2,0.1c0,0,0,0,0,0c0,0,0,0,0,0c0,0,0,0,0,0c-0.1,0-0.2,0.1-0.2,0.1l0,0c0,0,0,0,0,0c0,0,0,0,0,0
							c0,0,0,0,0,0c0,0,0,0,0,0l0,0c0,0,0,0,0,0c-0.1,0.1-0.2,0.1-0.3,0.2c0,0,0,0,0,0c0,0,0,0,0,0c0,0-0.1,0-0.1,0.1
							c-0.1,0-0.1,0.1-0.2,0.1c0,0,0,0,0,0l0.1-0.1l-0.1,0.1l0,0c0,0,0,0,0,0c0,0,0,0,0,0c0,0-0.1,0.1-0.1,0.1c0,0,0,0,0,0
							c0,0,0,0,0,0c0,0-0.1,0.1-0.2,0.2c0,0,0,0,0,0c0,0,0,0,0,0c-0.1,0.1-0.1,0.1-0.2,0.2c0,0,0,0,0,0c0,0,0,0,0,0
							c-0.1,0.1-0.2,0.3-0.3,0.4c0,0,0,0,0,0c0,0,0,0,0,0c0,0,0,0,0,0c0,0,0,0,0,0c0,0,0,0,0,0c0,0,0,0,0,0.1c0,0,0,0,0,0.1
							c-0.2,0.4-0.4,0.8-0.5,1.3c0,0,0,0.1,0,0.1c0,0,0,0,0,0.1c0,0.1,0,0.1,0,0.2c0,0,0,0,0,0c0,0,0,0.1,0,0.1c0,0,0,0,0,0
							c0,0.1,0,0.2,0,0.3c0,0,0,0,0,0c0,0,0,0,0,0c0,0.1,0,0.2,0,0.3c0,0,0,0,0,0l0,0l0,467.8c0,7.9,4.2,15.1,11,19l197.4,114
							c4,2.3,9-0.6,9-5.2L266.7,145.1z"/>
						<g>
							<g>
								<path d="M262.5,135c1.7,3,2.7,6.2,2.7,9l-0.5,461.6c0,3.1-1.1,5.4-3.1,6.6c-2,1.2-4.6,1-7.3-0.6L59.9,499.4
									c-2.5-1.4-4.8-3.9-6.5-6.8c-1.7-3-2.7-6.2-2.7-9.1l0.1-461c0-3.1,1.1-5.4,3.1-6.6c2-1.2,4.6-1,7.3,0.6L256,128.2
									C258.5,129.6,260.8,132,262.5,135C262.5,135,262.5,135,262.5,135z"/>
								<path class="st1" d="M254.9,610.6c4.7,2.7,8.6,0.5,8.6-4.9l0.5-461.6c0-5.4-3.8-12.1-8.6-14.8L60.7,17.5
									c-4.7-2.7-8.6-0.5-8.6,5l-0.1,461c0,5.4,3.9,12.1,8.6,14.8L254.9,610.6z"/>
								<path class="st2" d="M263.4,605.6c0,4.1-2.2,6.3-5.2,6.1C261.3,612,263.4,609.7,263.4,605.6l0.4-351l0,0L263.4,605.6z"/>
							</g>
							<path class="st3" d="M52.6,20.9c1.5-1.2,3.8-1.3,6.4,0.2l192.7,110.5c4.6,2.6,8.4,9.2,8.4,14.5l-0.5,457
								c0,4.3-2.4,6.5-5.8,5.9l0.1,0.1c4.6,2.7,8.4,0.5,8.4-4.8l0.5-460.1c0-5.3-3.8-11.8-8.4-14.5L60.6,18.5
								C56.8,16.3,53.6,17.5,52.6,20.9z"/>
							<path class="st3" d="M53.9,482.8c0,5.3,3.5,11.5,8.2,14.1l30,18.6l-30.9-17.8c-4.6-2.7-8.4-9.2-8.4-14.5l0.6-223.4
								L53.9,482.8z"/>
						</g>
						<g>
							<path class="st4" d="M55.9,6.9L55.9,6.9C56,6.8,55.9,6.8,55.9,6.9c-0.4,0.2-0.6,0.4-0.9,0.6c0,0,0,0,0,0c0,0,0,0,0,0
								c-0.1,0.1-0.2,0.1-0.3,0.2c-0.2,0.1-0.3,0.3-0.5,0.4c0,0,0,0,0,0l0.2-0.2L54.2,8l0,0c0,0,0,0,0,0c0,0,0,0-0.1,0.1
								c-0.1,0.1-0.3,0.2-0.4,0.3c0,0-0.1,0.1-0.1,0.1c0,0,0,0,0,0c-0.1,0.1-0.3,0.3-0.5,0.5c0,0,0,0-0.1,0.1c0,0,0,0,0,0
								c-0.2,0.2-0.4,0.4-0.5,0.5c0,0-0.1,0.1-0.1,0.2c0,0-0.1,0.1-0.1,0.1c-0.3,0.4-1.8,2.2-2.7,4.5c0.1-0.2,0.2-0.4,0.3-0.6
								c0,0,0,0,0-0.1c0,0,0,0,0-0.1c0,0,0,0,0,0c0,0,0,0,0,0c0,0,0,0,0,0c0,0,0,0,0,0c0,0,0,0,0,0c0.1-0.2,0.2-0.3,0.3-0.4
								c0,0,0,0,0,0c0,0,0,0,0,0c0-0.1,0.1-0.1,0.2-0.2c0,0,0,0,0,0c0,0,0,0,0,0c0.1-0.1,0.1-0.1,0.2-0.2c0,0,0,0,0,0c0,0,0,0,0,0
								c0,0,0.1-0.1,0.1-0.1c0,0,0,0,0,0c0,0,0,0,0,0l0.1-0.1l-0.1,0.1c0,0,0,0,0,0c0.1,0,0.1-0.1,0.2-0.1c0,0,0.1,0,0.1-0.1
								c0,0,0,0,0,0c0,0,0,0,0,0c0.1-0.1,0.2-0.1,0.3-0.2c0,0,0,0,0,0l0,0c0,0,0,0,0,0c0,0,0,0,0,0c0,0,0,0,0,0c0,0,0,0,0,0l0,0
								c0.1,0,0.2-0.1,0.2-0.1c0,0,0,0,0,0c0,0,0,0,0,0c0,0,0,0,0,0c0.1,0,0.1-0.1,0.2-0.1c0,0,0,0,0,0c0,0,0.1,0,0.1-0.1
								c0,0,0,0,0,0l0,0c0.1,0,0.2-0.1,0.4-0.1c0.1,0,0.2,0,0.3-0.1c0,0,0,0,0,0c0,0,0,0,0,0l0,0l0,0c0,0,0.1,0,0.1,0c0,0,0,0,0,0
								c0,0,0,0,0,0l0,0c0,0,0,0,0.1,0c0.1,0,0.1,0,0.2,0c0,0,0,0,0,0c0,0,0,0,0,0c0,0,0,0,0.1,0c0.1,0,0.2,0,0.3,0c0,0,0,0,0,0
								c0,0,0.1,0,0.1,0c0,0,0.1,0,0.1,0c0.4,0,0.8,0.1,1.2,0.2c0,0,0.1,0,0.1,0c0,0,0,0,0,0c0,0,0,0,0,0c0,0,0,0,0,0
								c0,0,0.1,0,0.1,0c0,0,0,0,0,0c0.1,0,0.2,0.1,0.3,0.1l0,0c0,0,0,0,0,0c0,0,0,0,0.1,0c0.1,0,0.1,0.1,0.2,0.1c0,0,0,0-0.1,0
								c0,0,0,0,0.1,0c0,0,0.1,0,0.1,0c0,0,0,0,0,0c0,0,0,0,0,0c0,0,0,0,0,0c0,0,0,0,0,0c0,0,0,0,0,0c0,0,0,0,0,0l0,0l200.4,115.4
								c6.2,3.6,10.1,10.3,10.1,17.5l0,19.4l0,2.7l-0.2,444.6c0,4.6-5,7.5-9,5.2c3.1,1.7,6.9,2.2,8.3,2.1c0.1,0,0.1,0,0.2,0
								c0,0,0,0,0,0c0,0,0,0,0,0c0.1,0,0.3,0,0.5,0c0,0,0,0,0,0c0.1,0,0.1,0,0.2,0c0.1,0,0.2,0,0.3,0c0,0,0.1,0,0.1,0l0,0
								c0,0,0,0,0,0c0,0,0.1,0,0.1,0c0.2,0,0.5-0.1,0.7-0.1c0.2,0,0.4-0.1,0.6-0.1c0,0,0,0,0,0c0,0,0,0,0,0c0.3-0.1,0.5-0.1,0.9-0.2
								l0,0c0,0,0,0,0,0c0.4-0.1,1-0.3,1.4-0.5c0,0,0.1,0,0.1,0c0,0,0.1,0,0.1-0.1c0.1,0,0.2-0.1,0.4-0.2l0.1,0c0,0,0.1,0,0.1-0.1
								c0.4-0.2,0.7-0.3,1.2-0.6c0,0,0,0,0,0c0,0,0.1,0,0.1,0c0,0,0,0,0,0c0,0,0,0,0,0c0,0,0.1,0,0.1-0.1c0,0,0,0,0,0
								c0.4-0.2,0.6-0.4,0.9-0.6c0,0,0,0,0,0c0,0,0,0,0,0c0.1-0.1,0.2-0.1,0.3-0.2c0.1-0.1,0.2-0.2,0.3-0.3c0,0,0,0,0,0l0.1,0
								c0,0,0.1-0.1,0.1-0.1c0,0,0.1-0.1,0.1-0.1c0.1-0.1,0.2-0.2,0.4-0.3c0.2-0.2,0.4-0.4,0.7-0.7c0,0,0,0,0.1-0.1c0,0,0,0,0,0
								c0.2-0.2,0.4-0.4,0.5-0.5c0,0,0.1-0.1,0.1-0.2c0,0,0-0.1,0.1-0.1c0.4-0.4,0.7-0.9,1-1.4c0.1-0.2,0.2-0.3,0.3-0.5
								c0-0.1,0.1-0.2,0.1-0.2c0.7-1.2,1.3-2.6,1.6-4c0-0.1,0.1-0.2,0.1-0.3c0,0,0-0.1,0-0.1c0,0,0-0.1,0-0.1c0-0.2,0.1-0.4,0.1-0.6
								l0,0c0,0,0,0,0-0.1c0-0.1,0-0.2,0-0.3c0-0.2,0-0.4,0.1-0.6l0,0c0,0,0,0,0,0c0-0.1,0-0.1,0-0.2c0,0,0-0.1,0-0.1
								c0,0,0-0.1,0-0.2c0-0.3,0-0.6,0-0.8c0,0,0,0,0,0c0,0,0,0,0,0c0,0,0,0,0,0l0,0l0.6-462.7c0-8.9-4.8-17.2-12.5-21.6L70.6,6.8
								l0,0c0,0,0,0,0,0c0,0,0,0,0,0c0,0,0,0,0,0c0,0,0,0,0,0c0,0,0,0,0,0c0,0,0,0,0,0c-0.1,0-0.2-0.1-0.2-0.1
								c-0.1,0-0.2-0.1-0.2-0.1c0.1,0,0.1,0.1,0.2,0.1c-0.2-0.1-0.4-0.2-0.6-0.3c-0.1,0-0.2-0.1-0.2-0.1c0,0,0,0,0,0l0,0
								c-0.2-0.1-0.5-0.2-0.9-0.4c0,0-0.1,0-0.1,0c-0.1,0-0.2-0.1-0.3-0.1c0,0-0.1,0-0.1,0c0,0,0,0,0,0c0,0-0.1,0-0.1,0
								c-0.1,0-0.3-0.1-0.4-0.1c-1.2-0.4-2.4-0.5-3.6-0.6c-0.1,0-0.2,0-0.3,0c-0.1,0-0.3,0-0.4,0c0,0-0.1,0-0.1,0
								c-0.3,0-0.5,0-0.8,0c-0.1,0-0.2,0-0.2,0c0,0-0.1,0-0.1,0c0,0,0,0-0.1,0c-0.2,0-0.4,0-0.6,0.1c-0.1,0-0.1,0-0.2,0l0,0v0
								c0,0,0,0,0,0c0,0,0,0,0,0c-0.1,0-0.2,0-0.4,0.1l-0.1,0l0,0c0,0-0.1,0-0.1,0c0,0-0.1,0-0.1,0c-0.3,0.1-0.6,0.1-0.8,0.2
								c-0.5,0.1-0.8,0.2-1.1,0.4l-0.1,0l0,0c0,0-0.1,0-0.1,0c-0.1,0.1-0.3,0.1-0.4,0.2c0,0-0.1,0-0.1,0c-0.2,0.1-0.4,0.2-0.6,0.3
								c0,0,0,0,0,0c0,0-0.1,0-0.1,0c0,0-0.1,0-0.1,0.1c-0.3,0.1-0.5,0.3-0.8,0.4l0,0c0,0,0,0-0.1,0c0,0,0,0,0,0c0,0,0,0,0,0
								C55.9,6.8,55.9,6.8,55.9,6.9z"/>
							<path class="st5" d="M55.9,6.9L56,6.8c0,0,0,0,0,0l0,0c0.3-0.1,0.5-0.3,0.8-0.4c0,0,0.1,0,0.1-0.1L57,6.2c0,0,0,0,0,0
								C57.2,6.1,57.4,6,57.6,6c0,0,0.1,0,0.1,0c0.1-0.1,0.3-0.1,0.4-0.2c0,0,0.1,0,0.1,0l0.1,0c0.3-0.1,0.6-0.2,1.1-0.4
								c0.3-0.1,0.5-0.1,0.8-0.2c0,0,0.1,0,0.1,0c0,0,0.1,0,0.1,0l0,0l0.1,0c0.1,0,0.2,0,0.3-0.1C62,5.1,63,5.4,64,6l200.8,115.3
								c4.1,2.4,7.5,5.8,9.8,9.8c2.3,4,3.6,8.6,3.6,13.3l-0.6,466.6c0,1-0.2,1.9-0.6,2.8c-0.1,0.1-0.2,0.2-0.3,0.3
								c0,0,0,0.1-0.1,0.1c0,0-0.1,0.1-0.1,0.1c-0.1,0.2-0.3,0.3-0.5,0.5c0,0,0,0,0,0c0,0,0,0-0.1,0.1c-0.3,0.3-0.5,0.5-0.7,0.7
								c-0.1,0.1-0.2,0.2-0.4,0.3c0,0-0.1,0.1-0.1,0.1l-0.1,0.1l-0.1,0c-0.1,0.1-0.2,0.2-0.3,0.2c-0.1,0.1-0.2,0.1-0.3,0.2l0,0
								c0,0,0,0,0,0c-0.3,0.2-0.5,0.3-0.9,0.6l-0.1,0.1c0,0,0,0,0,0l-0.1,0c-0.5,0.3-0.8,0.4-1.2,0.6c0,0-0.1,0-0.1,0.1l-0.1,0.1
								c-0.1,0-0.2,0.1-0.4,0.1c0,0-0.1,0-0.1,0.1c0,0-0.1,0-0.1,0c-0.2,0.1-0.4,0.2-0.7,0.2l0,0c0.1-0.1,0.2-0.1,0.4-0.2
								c2.2-1.3,3.6-3.7,3.6-6.2l0.6-467.6c0-8.3-4.4-16-11.6-20.1L60.5,8c-2-1.2-4.5-1.1-6.4,0.1c0,0,0,0,0.1-0.1l0,0l0,0
								c0.2-0.1,0.3-0.3,0.5-0.4c0.1-0.1,0.2-0.1,0.3-0.2c0,0,0,0,0,0C55.3,7.2,55.5,7.1,55.9,6.9z"/>
							<path class="st6" d="M64,6l200.8,115.3c4.1,2.4,7.5,5.8,9.8,9.8c2.3,4,3.6,8.6,3.6,13.3l-0.6,466.6c0,1-0.2,1.9-0.6,2.8
								c0.3-0.3,0.5-0.7,0.8-1.1c0.1-0.2,0.2-0.3,0.3-0.5c0-0.1,0.1-0.2,0.1-0.2c0.7-1.2,1.3-2.6,1.6-4c0-0.1,0.1-0.2,0.1-0.3
								c0,0,0-0.1,0-0.1c0,0,0-0.1,0-0.1c0-0.2,0.1-0.4,0.1-0.6l0,0c0,0,0,0,0-0.1c0-0.1,0-0.2,0-0.3c0-0.2,0-0.4,0.1-0.6l0,0
								c0,0,0,0,0,0c0-0.1,0-0.1,0-0.2c0,0,0-0.1,0-0.1c0,0,0-0.1,0-0.2c0-0.3,0-0.6,0-0.8c0,0,0,0,0,0c0,0,0,0,0,0c0,0,0,0,0,0l0,0
								l0.6-462.7c0-8.9-4.8-17.2-12.5-21.6L70.6,6.8l0,0c0,0,0,0,0,0c0,0,0,0,0,0c0,0,0,0,0,0c0,0,0,0,0,0c0,0,0,0,0,0c0,0,0,0,0,0
								c-0.1,0-0.2-0.1-0.2-0.1c-0.1,0-0.2-0.1-0.2-0.1c0.1,0,0.1,0.1,0.2,0.1c-0.2-0.1-0.4-0.2-0.6-0.3c-0.1,0-0.2-0.1-0.2-0.1
								c0,0,0,0,0,0l0,0c-0.2-0.1-0.5-0.2-0.9-0.4c0,0-0.1,0-0.1,0c-0.1,0-0.2-0.1-0.3-0.1c0,0-0.1,0-0.1,0c0,0,0,0,0,0
								c0,0-0.1,0-0.1,0c-0.1,0-0.3-0.1-0.4-0.1c-1.2-0.4-2.4-0.5-3.6-0.6c-0.1,0-0.2,0-0.3,0c-0.1,0-0.3,0-0.4,0c0,0-0.1,0-0.1,0
								c-0.3,0-0.5,0-0.8,0c-0.1,0-0.2,0-0.2,0c0,0-0.1,0-0.1,0c0,0,0,0-0.1,0c-0.2,0-0.4,0-0.6,0.1c-0.1,0-0.1,0-0.2,0l0,0v0
								c0,0,0,0,0,0c0,0,0,0,0,0c0,0-0.1,0-0.1,0C62,5.1,63,5.4,64,6z"/>
							<path class="st7" d="M277.7,583.8c1.6-0.9,2.4-2.2,2.5-3.4c0,0,0-0.1,0-0.1l0,2.6c0,0,0,0,0,0c0,0,0,0,0,0
								c0,1.2-0.8,2.5-2.4,3.4c-3.1,1.8-7.9,1.9-11.2,0.4v-2.6C269.9,585.7,274.7,585.6,277.7,583.8z"/>
							<path class="st7" d="M278.2,164.2c1.6-1,2.5-2.2,2.6-3.5c0,0,0-0.1,0-0.1l0,2.7c0,1.3-0.9,2.6-2.6,3.5
								c-3.1,1.8-8.1,2-11.5,0.4v-2.7C270.1,166.2,275,166,278.2,164.2z"/>
							<g>
								<g>
									<g>
										<path d="M237.6,110.2c-1.3-0.7-1.3-1.9,0-2.6c1.2-0.7,3.3-0.7,4.5,0c1.3,0.7,1.3,1.9,0,2.6
											C240.9,111,238.8,111,237.6,110.2z"/>
									</g>
									<g>
										<path d="M230.7,106.3c-1.3-0.7-1.3-1.9,0-2.6c1.2-0.7,3.3-0.7,4.5,0c1.3,0.7,1.3,1.9,0,2.6C234,107,231.9,107,230.7,106.3
											z"/>
									</g>
									<g>
										<path d="M223.8,102.3c-1.3-0.7-1.3-1.9,0-2.6c1.2-0.7,3.3-0.7,4.5,0c1.3,0.7,1.3,1.9,0,2.6
											C227.1,103,225.1,103,223.8,102.3z"/>
									</g>
									<g>
										<path d="M216.9,98.3c-1.3-0.7-1.3-1.9,0-2.6c1.2-0.7,3.3-0.7,4.5,0c1.3,0.7,1.3,1.9,0,2.6S218.2,99,216.9,98.3z"/>
									</g>
									<g>
										<path d="M210,94.3c-1.3-0.7-1.3-1.9,0-2.6c1.2-0.7,3.3-0.7,4.5,0s1.3,1.9,0,2.6C213.3,95.1,211.3,95.1,210,94.3z"/>
									</g>
									<g>
										<path d="M203.2,90.4c-1.3-0.7-1.3-1.9,0-2.6c1.2-0.7,3.3-0.7,4.5,0c1.3,0.7,1.3,1.9,0,2.6
											C206.4,91.1,204.4,91.1,203.2,90.4z"/>
									</g>
								</g>
								<g>
									<g>
										<path d="M114.1,39.2c-1.3-0.7-1.3-1.9,0-2.6s3.3-0.7,4.5,0c1.3,0.7,1.3,1.9,0,2.6C117.3,39.9,115.3,39.9,114.1,39.2z"/>
									</g>
									<g>
										<path d="M107.2,35.2c-1.3-0.7-1.3-1.9,0-2.6c1.2-0.7,3.3-0.7,4.5,0c1.3,0.7,1.3,1.9,0,2.6C110.5,36,108.4,36,107.2,35.2z"
											/>
									</g>
									<g>
										<path d="M100.3,31.3c-1.3-0.7-1.3-1.9,0-2.6c1.2-0.7,3.3-0.7,4.5,0c1.3,0.7,1.3,1.9,0,2.6C103.6,32,101.5,32,100.3,31.3z"
											/>
									</g>
									<g>
										<path d="M93.4,27.3c-1.3-0.7-1.3-1.9,0-2.6c1.2-0.7,3.3-0.7,4.5,0c1.3,0.7,1.3,1.9,0,2.6S94.7,28,93.4,27.3z"/>
									</g>
									<g>
										<path d="M86.5,23.3c-1.3-0.7-1.3-1.9,0-2.6c1.2-0.7,3.3-0.7,4.5,0c1.3,0.7,1.3,1.9,0,2.6C89.8,24,87.8,24,86.5,23.3z"/>
									</g>
									<g>
										<path d="M79.6,19.3c-1.3-0.7-1.3-1.9,0-2.6s3.3-0.7,4.5,0c1.3,0.7,1.3,1.9,0,2.6S80.9,20.1,79.6,19.3z"/>
									</g>
								</g>
							</g>
						</g>
						<g>
							<path class="st8" d="M280.7,140.2c-0.1-1.1-0.2-2.1-0.4-3.2c-1-5.3-3.7-10-7.6-13.6c-0.8-0.7-1.6-1.4-2.5-2
								c-0.6-0.5-1.3-0.9-2-1.3l-1.5-0.9l-9,5.2c1.1,0.7,2.2,1.4,3.2,2.2c5.7,4.7,9.1,11.7,9.1,19.3l0,0.3l0,4.1l10.6-6.1v-2.5
								C280.8,141.3,280.7,140.8,280.7,140.2z"/>
							<path class="st8" d="M270.1,146.1l0,0.3l10.6-6.1c-0.1-1.1-0.2-2.1-0.4-3.2c-1-5.3-3.7-10-7.6-13.6c-0.8-0.7-1.6-1.4-2.5-2
								l-9.2,5.3C266.7,131.5,270.1,138.5,270.1,146.1z"/>
							<path class="st2" d="M261,126.8c-1-0.8-2.1-1.6-3.2-2.2c0,0-0.1-0.1-0.1-0.1L59.9,11l0,0c0,0,0,0,0,0c0,0,0,0,0,0
								c0,0,0,0,0,0c0,0,0,0,0,0c0,0,0,0,0,0c0,0,0,0,0,0c-0.1,0-0.2-0.1-0.2-0.1c-0.1,0-0.2-0.1-0.2-0.1c0.1,0,0.1,0.1,0.2,0.1
								c-0.2-0.1-0.4-0.2-0.6-0.3c-0.1,0-0.2-0.1-0.2-0.1c0,0,0,0,0,0l0,0c-0.2-0.1-0.5-0.2-0.9-0.4c0,0-0.1,0-0.1,0
								c-0.1,0-0.2-0.1-0.3-0.1c0,0-0.1,0-0.1,0c0,0,0,0,0,0c0,0-0.1,0-0.1,0c-0.1,0-0.3-0.1-0.4-0.1c-2.7-0.7-4.2-0.1-4.3,0.1
								c0,0-0.1,0.1-0.1,0.2c0,0-0.1,0.1-0.1,0.1c-0.3,0.4-1.8,2.2-2.7,4.5c0.1-0.2,0.2-0.4,0.3-0.6c0,0,0,0,0-0.1c0,0,0,0,0-0.1
								c0,0,0,0,0,0c0,0,0,0,0,0c0,0,0,0,0,0c0,0,0,0,0,0c0,0,0,0,0,0c0.1-0.2,0.2-0.3,0.3-0.4c0,0,0,0,0,0c0,0,0,0,0,0
								c0-0.1,0.1-0.1,0.2-0.2c0,0,0,0,0,0c0,0,0,0,0,0c0.1-0.1,0.1-0.1,0.2-0.2c0,0,0,0,0,0c0,0,0,0,0,0c0,0,0.1-0.1,0.1-0.1
								c0,0,0,0,0,0c0,0,0,0,0,0l0.1-0.1l-0.1,0.1c0,0,0,0,0,0c0.1,0,0.1-0.1,0.2-0.1c0,0,0.1,0,0.1-0.1c0,0,0,0,0,0c0,0,0,0,0,0
								c0.1-0.1,0.2-0.1,0.3-0.2c0,0,0,0,0,0l0,0c0,0,0,0,0,0c0,0,0,0,0,0c0,0,0,0,0,0c0,0,0,0,0,0l0,0c0.1,0,0.2-0.1,0.2-0.1
								c0,0,0,0,0,0c0,0,0,0,0,0c0,0,0,0,0,0c0.1,0,0.1-0.1,0.2-0.1c0,0,0,0,0,0c0,0,0.1,0,0.1-0.1c0,0,0,0,0,0l0,0
								c0.1,0,0.2-0.1,0.4-0.1c0.1,0,0.2,0,0.3-0.1c0,0,0,0,0,0c0,0,0,0,0,0l0,0l0,0c0,0,0.1,0,0.1,0c0,0,0,0,0,0c0,0,0,0,0,0l0,0
								c0,0,0,0,0.1,0c0.1,0,0.1,0,0.2,0c0,0,0,0,0,0c0,0,0,0,0,0c0,0,0,0,0.1,0c0.1,0,0.2,0,0.3,0c0,0,0,0,0,0c0,0,0.1,0,0.1,0
								c0,0,0.1,0,0.1,0c0.4,0,0.8,0.1,1.2,0.2c0,0,0.1,0,0.1,0c0,0,0,0,0,0c0,0,0,0,0,0c0,0,0,0,0,0c0,0,0.1,0,0.1,0c0,0,0,0,0,0
								c0.1,0,0.2,0.1,0.3,0.1l0,0c0,0,0,0,0,0c0,0,0,0,0.1,0c0.1,0,0.1,0.1,0.2,0.1c0,0,0,0-0.1,0c0,0,0,0,0.1,0c0,0,0.1,0,0.1,0
								c0,0,0,0,0,0c0,0,0,0,0,0c0,0,0,0,0,0c0,0,0,0,0,0c0,0,0,0,0,0c0,0,0,0,0,0l0,0l198.3,114.3l0,0l2.1,1.2
								c0.5,0.3,1,0.6,1.4,0.9c0.4,0.3,0.8,0.6,1.2,0.9c0.1,0.1,0.1,0.1,0.2,0.2c0.4,0.3,0.7,0.6,1.1,1c0.4,0.4,0.9,0.9,1.3,1.3
								c0.1,0.1,0.1,0.2,0.2,0.2c0.4,0.5,0.8,0.9,1.1,1.4c0,0,0,0,0,0c0.4,0.5,0.7,1.1,1,1.7c0,0,0,0.1,0.1,0.1
								c0.3,0.5,0.5,1,0.8,1.6c0,0.1,0.1,0.1,0.1,0.2c0.2,0.5,0.4,1.1,0.6,1.7c0,0.1,0.1,0.2,0.1,0.3c0.2,0.5,0.3,1,0.4,1.5
								c0,0.1,0.1,0.2,0.1,0.3c0.1,0.6,0.2,1.1,0.3,1.7c0,0.2,0,0.3,0,0.5c0,0.5,0.1,1,0.1,1.5c0,0.1,0,0.3,0,0.4l0,19.4l0,0.2
								c0,0,0,0,0,0v2.7c0,0,0,0,0,0l-0.2,416.9c0,0,0,0,0,0v2.6c0,0,0,0,0,0l0,25c0,4.6-5,7.5-9,5.2c2.8,1.6,6.1,2.1,7.8,2.1
								c0,0,4.3-0.7,4.3-10.4c0-1.6,0-21.5,0-21.5c0,0,0,0,0,0l0-2.6c0,0,0,0,0,0l0.5-417c0,0,0,0,0,0l0-2.7c0,0,0,0,0,0.1
								c0,0,0,0,0,0l0-14.5l0-4.1l0-0.3C270.1,138.5,266.7,131.5,261,126.8z"/>
						</g>
					</g>
				</g>
				<g>
					<g>
						<path class="st9" d="M78.8,494.3c9.1,5.3,16.6,1,16.6-9.5c0-10.5-7.4-23.3-16.5-28.6c-9.2-5.3-16.6-1-16.6,9.5
							C62.3,476.2,69.7,489,78.8,494.3z"/>
					</g>
					<g class="st10">
						<g>
							<path class="st11" d="M125.4,521.2c9.2,5.3,16.6,1,16.6-9.5c0-10.5-7.4-23.3-16.5-28.6c-9.2-5.3-16.6-1-16.6,9.5
								C108.8,503.1,116.2,515.9,125.4,521.2z"/>
						</g>
						<g>
							<path class="st12" d="M171.9,548.1c9.2,5.3,16.6,1,16.6-9.5c0-10.5-7.4-23.3-16.5-28.6c-9.2-5.3-16.6-1-16.6,9.5
								C155.4,530,162.7,542.8,171.9,548.1z"/>
						</g>
						<g>
							<path class="st13" d="M218.4,574.9c9.1,5.3,16.6,1,16.6-9.5c0-10.5-7.4-23.3-16.5-28.6c-9.2-5.3-16.6-1-16.6,9.5
								C201.9,556.8,209.3,569.6,218.4,574.9z"/>
						</g>
					</g>
				</g>
			</g>
		</g>
		<g>
			<g>
				<path class="st6" d="M275.8,208.2c0-0.1,0-0.2,0.1-0.3c0,0,0,0,0,0c0-0.1,0.1-0.2,0.1-0.4c0,0,0,0,0,0c0.1-0.1,0.1-0.2,0.2-0.4
					c0,0,0,0,0,0c0.1-0.1,0.1-0.2,0.2-0.3c0,0,0,0,0,0c0.1-0.1,0.1-0.2,0.2-0.3c0,0,0,0,0.1-0.1c0,0,0.1-0.1,0.1-0.1
					c0.2-0.1,0.3-0.3,0.5-0.4c0.1-0.1,0.2-0.1,0.3-0.1c0,0,0,0,0.1,0c0.1,0,0.2,0,0.3-0.1c0,0,0,0,0,0c0.1,0,0.2,0,0.3,0
					c0,0,0,0,0,0c0.1,0,0.2,0,0.2,0.1l-1.2-0.7c0,0,0,0,0,0c0,0-0.1,0-0.1,0c0,0-0.1,0-0.1,0c0,0,0,0-0.1,0c0,0,0,0,0,0c0,0,0,0,0,0
					c0,0-0.1,0-0.1,0c0,0-0.1,0-0.1,0c0,0,0,0,0,0c0,0,0,0,0,0c0,0,0,0-0.1,0c0,0-0.1,0-0.1,0c0,0,0,0-0.1,0c0,0,0,0-0.1,0
					c0,0,0,0-0.1,0c-0.1,0-0.1,0.1-0.2,0.1c-0.2,0.1-0.3,0.2-0.5,0.4c0,0,0,0,0,0c0,0,0,0-0.1,0.1c0,0,0,0-0.1,0.1c0,0,0,0-0.1,0.1
					c0,0.1-0.1,0.1-0.1,0.2c0,0,0,0,0,0.1c0,0,0,0,0,0c0,0,0,0,0,0.1c0,0-0.1,0.1-0.1,0.1c0,0-0.1,0.1-0.1,0.1c0,0,0,0,0,0
					c0,0,0,0,0,0c0,0,0,0.1-0.1,0.1c0,0,0,0.1-0.1,0.1c0,0,0,0.1-0.1,0.1c0,0,0,0,0,0c0,0,0,0,0,0c0,0,0,0.1-0.1,0.1
					c0,0,0,0.1-0.1,0.1c0,0,0,0,0,0.1c0,0,0,0,0,0c0,0,0,0,0,0.1c0,0.1,0,0.1,0,0.2c0,0,0,0.1,0,0.1c0,0,0,0,0,0.1c0,0,0,0,0,0.1
					c0,0.1,0,0.2,0,0.3l0.1,31.1c0,0.5,0.2,0.8,0.5,1l1.2,0.7c-0.3-0.2-0.5-0.5-0.5-1l-0.1-31.1
					C275.7,208.5,275.7,208.4,275.8,208.2C275.8,208.2,275.8,208.2,275.8,208.2z"/>
				<g>
					<path class="st14" d="M277.3,205.9c0.9-0.5,1.6-0.1,1.6,0.9l0.1,31.1c0,1-0.7,2.2-1.6,2.7c-0.9,0.5-1.6,0.1-1.6-0.9l-0.1-31.1
						C275.7,207.6,276.4,206.4,277.3,205.9z"/>
				</g>
			</g>
			<g>
				<path class="st6" d="M275.8,249.3c0-0.1,0-0.2,0.1-0.3c0,0,0,0,0,0c0-0.1,0.1-0.2,0.1-0.4c0,0,0,0,0,0c0.1-0.1,0.1-0.2,0.2-0.4
					c0,0,0,0,0,0c0.1-0.1,0.1-0.2,0.2-0.3c0,0,0,0,0,0c0.1-0.1,0.1-0.2,0.2-0.3c0,0,0,0,0.1-0.1c0,0,0.1-0.1,0.1-0.1
					c0.2-0.1,0.3-0.3,0.5-0.4c0.1-0.1,0.2-0.1,0.3-0.1c0,0,0,0,0.1,0c0.1,0,0.2,0,0.3-0.1c0,0,0,0,0,0c0.1,0,0.2,0,0.3,0
					c0,0,0,0,0,0c0.1,0,0.2,0,0.2,0.1l-1.2-0.7c0,0,0,0,0,0c0,0-0.1,0-0.1,0c0,0-0.1,0-0.1,0c0,0,0,0-0.1,0c0,0,0,0,0,0c0,0,0,0,0,0
					c0,0-0.1,0-0.1,0c0,0-0.1,0-0.1,0c0,0,0,0,0,0c0,0,0,0,0,0c0,0,0,0-0.1,0c0,0-0.1,0-0.1,0c0,0,0,0-0.1,0c0,0,0,0-0.1,0
					c0,0,0,0-0.1,0c-0.1,0-0.1,0.1-0.2,0.1c-0.2,0.1-0.3,0.2-0.5,0.4c0,0,0,0,0,0c0,0,0,0-0.1,0.1c0,0,0,0-0.1,0.1c0,0,0,0-0.1,0.1
					c0,0.1-0.1,0.1-0.1,0.2c0,0,0,0,0,0.1c0,0,0,0,0,0c0,0,0,0,0,0.1c0,0-0.1,0.1-0.1,0.1c0,0-0.1,0.1-0.1,0.1c0,0,0,0,0,0
					c0,0,0,0,0,0c0,0,0,0.1-0.1,0.1c0,0,0,0.1-0.1,0.1c0,0,0,0.1-0.1,0.1c0,0,0,0,0,0c0,0,0,0,0,0c0,0,0,0.1-0.1,0.1
					c0,0,0,0.1-0.1,0.1c0,0,0,0,0,0.1c0,0,0,0,0,0c0,0,0,0,0,0.1c0,0.1,0,0.1,0,0.2c0,0,0,0.1,0,0.1c0,0,0,0,0,0.1c0,0,0,0,0,0.1
					c0,0.1,0,0.2,0,0.3l0.1,31.1c0,0.5,0.2,0.8,0.5,1l1.2,0.7c-0.3-0.2-0.5-0.5-0.5-1l-0.1-31.1
					C275.7,249.6,275.7,249.5,275.8,249.3C275.8,249.4,275.8,249.4,275.8,249.3z"/>
				<g>
					<path class="st14" d="M277.3,247c0.9-0.5,1.6-0.1,1.6,0.9l0.1,31.1c0,1-0.7,2.2-1.6,2.7c-0.9,0.5-1.6,0.1-1.6-0.9l-0.1-31.1
						C275.7,248.8,276.4,247.5,277.3,247z"/>
				</g>
			</g>
		</g>
	</g>
	<g>
		<g>
			<linearGradient id="SVGID_1_" gradientUnits="userSpaceOnUse" x1="55.6111" y1="377.0714" x2="86.9287" y2="377.0714">
				<stop  offset="0" style="stop-color:#FFE4D4"/>
				<stop  offset="3.176451e-002" style="stop-color:#FEE2D2"/>
				<stop  offset="0.6582" style="stop-color:#EDC7B1"/>
				<stop  offset="1" style="stop-color:#E7BDA4"/>
			</linearGradient>
			<path class="st15" d="M58.3,355.1c-0.4,5.9-2.1,14.8-2.4,18.3c-0.3,3.5-0.7,7.4,1.2,13.2c2,5.8,8.2,15.6,9.7,17
				c3.3,3,5.3,3.3,6.9,2.9c1.5-0.4,1.6-1.4,1.6-1.4s1.2,1,3.1,0.4c1.6-0.5,1.8-2,1.8-2s1.8,0.1,2.9-0.8c1.5-1.3,1-2.8,1-2.8
				s1.4,0.5,2.4-1.5c1-1.9-0.1-3.6-0.5-4.1c-0.9-1.2-4.7-7.9-4.8-11.9c-0.1-4.1,0.9-9.5,0.6-13.3c-0.3-3.8-1.4-8.4-3-11
				c-1.6-2.6,0.4-10.5-8.6-10.5C61.2,347.5,58.6,350.5,58.3,355.1z"/>
			<path class="st16" d="M85.6,392.8c0,0,0,5-5.8,8.5c-2.7,1.6-7.6,3.5-10.8,0.4c-1.7-1.7-3.7-6.7-5.2-10.9c-1.4-4-0.7-8.4,1.8-11.8
				c0,0,0.1-0.1,0.1-0.1c2.9-4,2.7-10,2.7-10L81,364c0.4,1.7,0.7,3.4,0.8,5c0.3,3.8-0.6,9.3-0.6,13.3
				C81.3,386.4,84.8,391.6,85.6,392.8z"/>
			<linearGradient id="SVGID_2_" gradientUnits="userSpaceOnUse" x1="66.4818" y1="373.4567" x2="91.9478" y2="373.4567">
				<stop  offset="0" style="stop-color:#F6D5C2"/>
				<stop  offset="1" style="stop-color:#FFE4D4"/>
			</linearGradient>
			<path class="st17" d="M79.4,359.2c0,0,6,8.2,6.8,10.8c0.8,2.6,4.7,13.5,5.7,15.8c0.9,2.3-5.6,3.1-7.3-0.7
				c-1.6-3.7-4.5-9.4-4.5-9.4s-11.7,0-13.6-12.8L79.4,359.2z"/>
		</g>
		<path class="st18" d="M57.4,246.5c-2.2,11-4.8,49.4-4.8,54.3c0,4.8,1.3,22.9,2,31c0.7,7.8,1.1,22.4,1.1,26.8
			c0,5.7,25.1,8.7,25.6-0.4c0.7-14,0.1-52.1,0.1-52.1s2.2-34.6,5.7-53.2c3.5-18.6,19.3-32.1,14.2-34c-5.2-1.9-21.4-2.8-32.2,6.5
			C62,231.3,58.9,238.8,57.4,246.5z"/>
	</g>
	<g class="st19">
		<g>
			<path class="st20" d="M108.3,194.6c0.3,0.2,0.6,0.1,0.6-0.2c3.3-10.3,10.8-16,20.5-16.1c0.3,0,0.5-0.4,0.3-0.9
				c-0.1-0.3-0.4-0.6-0.6-0.8c-0.1-0.1-0.2-0.1-0.3-0.1c-10,0.1-17.8,6-21.2,16.6c-0.1,0.3,0.1,0.9,0.4,1.2
				C108.2,194.5,108.3,194.6,108.3,194.6z"/>
		</g>
		<g>
			<path class="st20" d="M178.5,216.5c0.2,0.1,0.3,0.1,0.5,0.1c0.3-0.1,0.3-0.6,0-1.1c-7.7-13.9-18.6-26.1-30.8-33.1
				c-2.8-1.6-5.5-2.9-8.1-3.8c-0.4-0.1-0.6,0.1-0.5,0.6c0.1,0.4,0.3,0.8,0.7,1c0,0,0.1,0,0.1,0.1c2.5,0.9,5.2,2.1,7.8,3.7
				c11.8,6.8,22.3,18.6,29.8,32C178.1,216.2,178.3,216.4,178.5,216.5z"/>
		</g>
		<g>
			<path class="st20" d="M124.3,257.5c0.2,0.1,0.4,0.1,0.6,0c0.2-0.2,0.1-0.7-0.2-1.2c-10.6-14.7-17.6-32.8-17.5-48.9
				c0-2.1,0.1-4,0.4-5.9c0-0.4-0.2-0.9-0.6-1.2c-0.4-0.2-0.7-0.1-0.8,0.2c-0.2,1.9-0.4,4-0.4,6.1c0,16.6,7.1,35.4,18.1,50.5
				C124,257.3,124.1,257.4,124.3,257.5z"/>
		</g>
		<g>
			<path class="st20" d="M200.2,265c0.4,0.2,0.7,0.1,0.7-0.3c0-1,0.1-2.1,0.1-3.1c0-4.7-0.4-9.6-1.3-14.5c-0.1-0.4-0.3-0.8-0.6-0.9
				c0,0-0.1,0-0.1-0.1c-0.3-0.1-0.6,0.2-0.5,0.6c0.8,4.8,1.3,9.5,1.3,14.1c0,1,0,2-0.1,3C199.6,264.3,199.9,264.8,200.2,265z"/>
		</g>
		<g>
			<path class="st20" d="M127.6,275.4c0.3,0.1,0.5,0.1,0.6-0.1c0.1-0.3,0-0.8-0.3-1.2c-7.5-7.9-14-17.3-19.2-27.3
				c-0.1-0.2-0.3-0.4-0.5-0.5c-0.1-0.1-0.3-0.1-0.4-0.1c-0.3,0.1-0.3,0.6-0.1,1c5.3,10.2,12,19.9,19.7,28
				C127.4,275.3,127.5,275.3,127.6,275.4z"/>
		</g>
		<g>
			<path class="st20" d="M147.9,279.7c5.8,3.4,11.4,5.2,16.5,5.7c0.3,0,0.5-0.3,0.4-0.8c-0.1-0.4-0.4-0.7-0.6-0.8
				c-0.1-0.1-0.2-0.1-0.3-0.1c-4.9-0.4-10.3-2.2-16-5.5c-5.7-3.3-11.1-7.8-16-13c-0.1-0.1-0.2-0.2-0.3-0.2c-0.3-0.2-0.5-0.1-0.6,0.1
				c-0.1,0.3,0,0.9,0.4,1.2C136.5,271.7,142.1,276.3,147.9,279.7z"/>
		</g>
		<g>
			<path class="st20" d="M147.9,291.9c13.5,7.8,25.9,9.1,35.3,4.9c0.3-0.1,0.3-0.6,0.1-1c-0.1-0.2-0.3-0.4-0.5-0.5
				c-0.2-0.1-0.3-0.1-0.4-0.1c-9.2,4.1-21.2,2.9-34.4-4.8c-0.4-0.2-0.6,0-0.6,0.4C147.3,291.2,147.5,291.7,147.9,291.9z"/>
		</g>
		<g>
			<path class="st20" d="M187,294.3c0.2,0.1,0.4,0.1,0.5,0c5.8-4.1,10.1-10.9,12.1-19.8c0.1-0.4-0.1-0.9-0.5-1.2
				c0,0-0.1-0.1-0.1-0.1c-0.3-0.2-0.6-0.1-0.6,0.2c-2,8.7-6.2,15.3-11.8,19.3c-0.2,0.2-0.2,0.7,0,1.1
				C186.7,294.1,186.8,294.2,187,294.3z"/>
		</g>
		<g>
			<g>
				<path class="st20" d="M174.4,229.5c0.1,0.1,0.2,0.1,0.3,0.1c0.3,0,0.4-0.4,0.2-0.9c-2.4-6.2-5.7-12.2-9.7-17.5
					c-0.1-0.1-0.2-0.3-0.4-0.3c-0.2-0.1-0.4-0.1-0.5,0c-0.2,0.2-0.1,0.7,0.2,1.1c3.8,5.1,7,10.9,9.3,16.8
					C173.9,229.1,174.2,229.4,174.4,229.5z"/>
			</g>
			<g>
				<path class="st20" d="M117.8,214.3c0.4,0.2,0.6,0,0.6-0.4c0-9.4,3.4-16,8.8-19.1c5.4-3.1,12.8-2.6,21,2.1c1,0.6,2.1,1.2,3.1,1.9
					c0.4,0.2,0.7,0.1,0.7-0.3c0-0.4-0.2-0.9-0.6-1.2c-1-0.7-2.1-1.4-3.2-2c-8.5-4.9-16.3-5.4-21.9-2.2c-5.6,3.2-9.1,10.1-9.1,19.9
					C117.1,213.6,117.4,214.1,117.8,214.3z"/>
			</g>
			<g>
				<path class="st20" d="M143.6,263.8c0.3,0.2,0.6,0.1,0.6-0.3c0.1-0.4-0.2-0.9-0.5-1.2c-11.7-8.7-21.2-24.1-24.3-38.7
					c-0.1-0.4-0.3-0.7-0.6-0.9c-0.1,0-0.1-0.1-0.2-0.1c-0.3-0.1-0.5,0.2-0.5,0.7C121.4,238.6,131.3,254.6,143.6,263.8
					C143.6,263.7,143.6,263.7,143.6,263.8z"/>
			</g>
			<g>
				<path class="st20" d="M152,268.6C152,268.7,152,268.7,152,268.6c7.8,3.3,14.6,2.8,19.4-0.8c0.2-0.2,0.2-0.7-0.1-1.1
					c-0.1-0.2-0.3-0.3-0.4-0.4c-0.2-0.1-0.4-0.1-0.5,0c-4.7,3.5-11.2,3.9-18.5,0.8c-0.4-0.2-0.6,0.1-0.6,0.5
					C151.4,268,151.7,268.5,152,268.6z"/>
			</g>
			<g>
				<path class="st20" d="M175,263.3c0.2,0.1,0.5,0.1,0.6-0.1c2.2-3.6,3.4-8.4,3.5-14.3c0-0.2,0-0.4,0-0.6c0-0.4-0.3-0.9-0.6-1.1
					c-0.4-0.2-0.7,0-0.7,0.4c0,0.2,0,0.4,0,0.6c0,5.6-1.2,10.2-3.3,13.7c-0.2,0.3,0,0.8,0.3,1.2C174.8,263.1,174.9,263.2,175,263.3z
					"/>
			</g>
			<g>
				<path class="st20" d="M177.9,242.8c0,0,0.1,0,0.1,0.1c0.4,0.1,0.6-0.1,0.5-0.6c-0.4-3.1-1.2-6.3-2.2-9.5
					c-0.1-0.3-0.3-0.6-0.6-0.8c-0.1-0.1-0.2-0.1-0.3-0.1c-0.3,0-0.5,0.3-0.3,0.8c1,3,1.7,6.1,2.1,9.1
					C177.3,242.2,177.6,242.6,177.9,242.8z"/>
			</g>
		</g>
		<g>
			<g>
				<path class="st20" d="M157.6,215.3c0-0.1,0-0.2,0.1-0.2c0.1-0.2,0.4-0.1,0.6,0.2c2.8,3.5,5.3,7.6,7.1,11.8
					c0,0.1,0.1,0.2,0.1,0.3c0,0.2-0.1,0.3-0.2,0.3c-0.2,0-0.5-0.2-0.6-0.5c-1.7-4-4.1-7.9-6.8-11.3
					C157.7,215.7,157.6,215.5,157.6,215.3z"/>
			</g>
			<g>
				<path class="st20" d="M147.3,254.2c0-0.3,0.2-0.4,0.4-0.3c5.6,3.2,10.7,3.5,14.3,1.3c3.7-2.1,5.9-6.7,5.9-13.2
					c0-0.8,0-1.6-0.1-2.5c0-0.3,0.2-0.4,0.4-0.3c0.2,0.1,0.5,0.4,0.5,0.7c0.1,0.9,0.1,1.7,0.1,2.6c0,6.8-2.4,11.5-6.2,13.8
					c-3.8,2.2-9.1,2-15-1.4C147.5,254.8,147.3,254.5,147.3,254.2z"/>
			</g>
			<g>
				<path class="st20" d="M126.7,221.8c0-0.3,0.2-0.4,0.4-0.3c0.2,0.1,0.5,0.4,0.5,0.7c1.1,10,7,20.9,14.7,27.7
					c0.2,0.2,0.3,0.5,0.3,0.7c0,0,0,0.1,0,0.1c-0.1,0.2-0.3,0.3-0.5,0C134.1,243.7,128,232.3,126.7,221.8
					C126.7,221.9,126.7,221.8,126.7,221.8z"/>
			</g>
			<g>
				<path class="st20" d="M126.7,215.2C126.7,215.2,126.7,215.2,126.7,215.2c0.7-5.8,3.3-9.6,7.1-11.3c0.2-0.1,0.5,0.1,0.6,0.4
					c0.1,0.1,0.1,0.3,0.1,0.4c0,0.1-0.1,0.3-0.2,0.3c-3.7,1.6-6.2,5.3-6.8,10.7c0,0.3-0.3,0.3-0.5,0.2
					C126.9,215.8,126.7,215.5,126.7,215.2z"/>
			</g>
			<g>
				<path class="st20" d="M137.8,203.4c0-0.2,0.1-0.3,0.2-0.3c2.9-0.1,6.2,0.8,9.7,2.8c0.1,0.1,0.2,0.1,0.4,0.2
					c0.2,0.1,0.4,0.5,0.4,0.8c0,0.3-0.2,0.4-0.5,0.3c-0.1-0.1-0.2-0.1-0.4-0.2c-3.3-1.9-6.5-2.8-9.3-2.7c-0.2,0-0.5-0.2-0.6-0.6
					C137.8,203.5,137.8,203.4,137.8,203.4z"/>
			</g>
			<g>
				<path class="st20" d="M150.9,208.6C150.9,208.6,151,208.6,150.9,208.6c0.1-0.3,0.3-0.4,0.5-0.2c1.7,1.3,3.3,2.9,4.9,4.5
					c0.2,0.2,0.3,0.4,0.3,0.6c0,0.1,0,0.1,0,0.2c-0.1,0.2-0.4,0.2-0.6-0.1c-1.5-1.6-3-3.1-4.7-4.3
					C151.1,209.2,150.9,208.9,150.9,208.6z"/>
			</g>
		</g>
		<g>
			<path class="st20" d="M179.7,281.1c0.2,0.1,0.4,0.1,0.5,0c6.3-4.8,10.2-13.7,10.2-25.7c0-8.6-1.9-17.7-5.3-26.7
				c-0.1-0.3-0.4-0.6-0.6-0.7c-0.1-0.1-0.2-0.1-0.3-0.1c-0.3,0-0.4,0.4-0.3,0.9c3.3,8.7,5.1,17.5,5.1,25.8c0,11.7-3.7,20.2-9.9,24.9
				c-0.2,0.2-0.2,0.7,0.1,1.1C179.4,280.9,179.5,281.1,179.7,281.1z"/>
		</g>
		<g>
			<path class="st20" d="M99.6,181.4c0.3,0.1,0.5,0.1,0.6-0.1c3.8-8.7,10.4-14.3,18.8-16c8.3-1.8,18.4,0.2,29.3,6.5
				c1.5,0.9,3,1.8,4.5,2.8c0.4,0.2,0.7,0.1,0.7-0.3c0-0.4-0.2-0.9-0.6-1.1c-1.5-1-3.1-2-4.6-2.9c-11.1-6.4-21.5-8.4-30-6.6
				c-8.5,1.8-15.3,7.5-19.2,16.5c-0.1,0.3,0,0.8,0.4,1.2C99.4,181.3,99.5,181.4,99.6,181.4z"/>
		</g>
		<g>
			<path class="st20" d="M197.6,241c0.1,0,0.1,0.1,0.2,0.1c0.3,0.1,0.5-0.3,0.4-0.7c-4.7-18.7-15-37.7-28.3-52.2
				c-0.1-0.1-0.2-0.2-0.3-0.2c-0.2-0.1-0.5-0.1-0.6,0.1c-0.1,0.3,0,0.8,0.3,1.2c12.9,14.2,23,32.7,27.6,50.9
				C197.1,240.5,197.4,240.8,197.6,241z"/>
		</g>
		<g>
			<path class="st20" d="M104.9,241c0.1,0.1,0.3,0.1,0.4,0.1c0.3-0.1,0.4-0.5,0.2-0.9c-5.5-12.4-8.8-25.5-9-37.6
				c0-0.4-0.3-0.9-0.6-1.1c-0.4-0.2-0.7,0-0.6,0.4c0.2,12.4,3.6,25.8,9.2,38.5C104.5,240.7,104.7,240.9,104.9,241z"/>
		</g>
	</g>
	<g>
		<defs>
			<path id="SVGID_3_" d="M162.9,256c0.7-0.3,1.4-0.6,2-1c3.7-2.4,5.9-7.2,6-13.9c0-14-9.8-31.1-22-38.1c-7.8-4.5-14.6-3.8-18.6,0.9
				c-0.1,0.8-0.2,1.7-0.2,2.6c0,0.1,0,0.2,0,0.2c0,0.1,0,0.1,0,0.2c-0.1,1.2-0.2,2.4-0.2,3.7c-0.2,2.5-1.4,5.5-0.1,8.2
				c-0.4,0.3-1.1,0.8-2,1.3c-0.2-0.1-0.4-0.1-0.6-0.2c-4.1-1.3-5.7-0.4-6.8-0.1c-1.6,0.6-4.3,1.7-7.1,3.4
				c-6.8-2.9-12.4-4.7-12.4-4.7c-17.4-2.5-27.5,2.6-48.9,30c-22.4,28.6-26.8,80.6-31.2,93.2c-3.7,10.7-6.1,19.9-7.3,25.3
				c-0.6,2.5,0.4,5,2,7.1c0,1.8,0,3.5,0,5.2c0.3,62.7-1.3,76.3-1.3,96.4c0,0-8.7,73.8-8.7,103.1c0,1.1,0.2,2.2,0.7,3.2
				c0,2.7-0.2,7.8-0.3,10.5c0,0.1,0,0.2,0,0.2c0,0.2,0,0.5,0,0.7c0,0.1,0,0.2,0,0.3c-0.1,0.5,0.3,1.1,0.9,1.7
				c2.9,3.1,12.4,7.4,15.9,6.5c4.6-1.1,7.3-2.2,8.9-3c2-1,2.2-1.6,2.2-1.6l0.1-1.5l0.1-1.9c0,0,4.9,1.7,10.2,1.1
				c0.7-0.1,1.5-0.2,2.3-0.4c0.2,0,0.4-0.1,0.6-0.2c0.1,0,0.2,0,0.2-0.1c0.1,0,0.3-0.1,0.4-0.2c0.1,0,0.2-0.1,0.3-0.1
				c0.1-0.1,0.3-0.1,0.4-0.2c0.1,0,0.2-0.1,0.4-0.1c0.2-0.1,0.3-0.1,0.5-0.2c0.1-0.1,0.3-0.1,0.4-0.2c0.2-0.1,0.3-0.1,0.5-0.2
				c0.2-0.1,0.3-0.2,0.5-0.2c0.1-0.1,0.3-0.1,0.4-0.2c0.2-0.1,0.4-0.2,0.5-0.2c0.2-0.1,0.3-0.2,0.4-0.2c0.2-0.1,0.4-0.2,0.6-0.3
				c0.1-0.1,0.3-0.1,0.4-0.2c0.2-0.1,0.4-0.2,0.7-0.4c0.1,0,0.2-0.1,0.3-0.2c0.3-0.2,0.5-0.3,0.8-0.4c0,0,0,0,0,0
				c0.9-0.5,1.7-1,2.6-1.5c-0.1,6.4-0.1,12.5-0.1,18.3c0,1.1,0.2,2.3,0.7,3.4c0,2-0.1,8.5-0.4,11.7c0,0.1,0,0.2,0,0.2
				c0,0.2,0,0.5-0.1,0.7c0,0.1,0,0.2,0,0.3c0,0.5,0.3,1.1,0.9,1.7c2.9,3.1,12.4,7.4,15.9,6.5c4.6-1.1,7.3-2.2,8.9-3
				c2-1,2.2-1.6,2.2-1.6l0.1-1.5l0.1-1.9c0,0,3,1.1,6.9,1.2c0.7,0,1.4,0,2.2,0c1.1-0.1,2.3-0.2,3.4-0.5c0.2,0,0.4-0.1,0.6-0.2
				c0.1,0,0.1,0,0.2-0.1c0.1,0,0.3-0.1,0.4-0.2c0.1,0,0.2-0.1,0.3-0.1c0.2-0.1,0.3-0.1,0.4-0.2c0.1,0,0.2-0.1,0.4-0.2
				c0.2-0.1,0.3-0.1,0.5-0.2c0.1-0.1,0.3-0.1,0.4-0.2c0.2-0.1,0.3-0.1,0.5-0.2c0.2-0.1,0.3-0.1,0.4-0.2c0.2-0.1,0.3-0.1,0.5-0.2
				c0.2-0.1,0.3-0.2,0.5-0.2c0.2-0.1,0.3-0.2,0.5-0.2c0.2-0.1,0.4-0.2,0.6-0.3c0.1-0.1,0.3-0.1,0.4-0.2c0.2-0.1,0.4-0.2,0.7-0.3
				c0.1,0,0.2-0.1,0.3-0.2c0.2-0.1,0.5-0.3,0.8-0.4c0,0,0,0,0,0c1.7-1,3.5-2,5.3-3.2c0,0,0,0,0.1,0c0.3-0.2,0.7-0.4,1-0.7
				c0,0,0.1,0,0.1-0.1c0.3-0.2,0.6-0.5,0.9-0.7c0,0,0.1,0,0.1-0.1c0.3-0.2,0.6-0.5,0.9-0.7c0,0,0,0,0.1-0.1c0.3-0.2,0.6-0.5,0.9-0.8
				h0c2.5-2.2,4.7-4.5,5.8-6.7c0,0,0,0,0,0c0.1-0.3,0.2-0.5,0.4-0.8c0,0,0,0,0-0.1c0.1-0.3,0.2-0.5,0.2-0.8c0,0,0-0.1,0-0.1
				c0.1-0.2,0.1-0.5,0.2-0.8v-0.1c0-0.3,0.1-0.5,0-0.8v-0.1c0-1.1-0.3-2.2-1.1-3.2c-4.1-5.9-11.9-3.5-23.1-1.6
				c0.5-41.2,3.9-57.1,8.6-107.6c4.1-44.3,6.1-71.9,6.9-88.3c0.1-2.8,0.3-5.3,0.4-7.4c2.2-3.1,3.3-6.8,2.8-11.1
				c-1.3-11.1,0.2-19.2,2.5-26.5c-0.1,1.9-0.2,3.8-0.3,5.7l7.5,11.5l6.9-3.2c0-17-0.2-32.6-0.6-46.7c8.7-12.3,20.8-18.4,30.4-29.6
				c6.2-7.3,7.4-16.7,7-24.5C169.5,266.2,167,260.4,162.9,256z M57.3,567.9c-3.2,0.4-6.8,1.1-10.8,1.8c0.6-36.2,4.6-52.4,12.5-95.1
				c0.5,3.6,0.8,5.7,0.8,5.7S58.1,525,57.3,567.9z"/>
		</defs>
		<clipPath id="SVGID_4_">
			<use xlink:href="#SVGID_3_"  style="overflow:visible;"/>
		</clipPath>
		<g class="st21">
			<path class="st22" d="M126.2,233.7l-6-3.5l4.2,10.2c0,0-1.8,56.4-5.7,124.4l7.5,11.5l6.9-3.2c0-79.9-5.1-130.6-5.1-130.6l3.9-5.5
				L126.2,233.7z"/>
			<g>
				<g>
					<g>
						<g>
							<path class="st23" d="M6.1,580.4c0,0-0.1,10.8-0.5,13.6c-0.4,2.8,12.6,9.3,16.8,8.2c10.5-2.6,11.1-4.6,11.1-4.6l0.1-3.3
								c0,0,6.4,2.2,12.4,0.6s29.8-14.5,23.4-23.5c-5.8-8.2-18.8-0.2-38.6-0.1C12.3,571.5,7.9,575.5,6.1,580.4z"/>
							<path class="st24" d="M33.5,595.7c-0.3,0.5-2,2.4-11.1,4.7c-3.9,1-15.4-4.6-16.7-7.6c0,0.1,0,0.2,0,0.2c0,0.2,0,0.5-0.1,0.6
								c0,0.1,0,0.2,0,0.3c-0.3,2.7,12.6,9.3,16.8,8.2c10.5-2.6,11.1-4.6,11.1-4.6L33.5,595.7z"/>
							<path class="st24" d="M33.6,592.5c0,0,6.4,2.2,12.4,0.6c5.1-1.4,23.1-10.9,24.4-19.3c1.4,8.8-18.9,19.7-24.4,21.1
								c-6,1.6-12.4-0.6-12.4-0.6V592.5z"/>
						</g>
						<path class="st25" d="M15.3,368.2c0.6,72.5-1.2,86.5-1.2,107.7c0,0-8.7,73.8-8.7,103.1c0,5.5,4.6,10,21.6,10.3
							c6.4,0.1,19.4-3.9,19.4-9.6c0-46.3,4.4-60.3,14.3-114.3c9.9-54.2,9.8-74.4,9.8-94.4C70.5,320.9,15,325.8,15.3,368.2z"/>
					</g>
					<g>
						<g>
							<path class="st23" d="M57.6,610.7c0,0-0.1,10.8-0.5,13.6c-0.4,2.8,12.6,9.3,16.8,8.2c10.5-2.6,11.1-4.6,11.1-4.6l0.1-3.4
								c0,0,6.4,2.2,12.4,0.6c6-1.6,29.8-14.5,23.4-23.5c-5.8-8.2-18.8-0.2-38.6-0.1C63.8,601.7,59.4,605.7,57.6,610.7z"/>
							<path class="st24" d="M85.1,625.9c-0.3,0.5-2,2.4-11.1,4.7c-3.9,1-15.4-4.6-16.7-7.6c0,0.1,0,0.2,0,0.2c0,0.2,0,0.5-0.1,0.6
								c0,0.1,0,0.2,0,0.3c-0.3,2.7,12.6,9.3,16.8,8.2c10.5-2.6,11.1-4.6,11.1-4.6L85.1,625.9z"/>
							<path class="st24" d="M85.1,622.7c0,0,6.4,2.2,12.4,0.6c5.1-1.4,23.1-10.9,24.4-19.3c1.4,8.8-18.9,19.7-24.4,21.1
								c-6,1.6-12.4-0.6-12.4-0.6V622.7z"/>
						</g>
						<path class="st26" d="M44.6,375.7c4.6,24.6,15.1,104.6,15.1,104.6s-2.8,78.7-2.8,127.6c0,5.5,5.4,11.9,22.4,12.2
							c6.4,0.1,18.5-3.9,18.5-9.6c0-49.3,3.6-63.5,8.7-118.1c8.1-86.4,7.7-109.2,7.7-109.2C114.1,326.8,35.2,325.4,44.6,375.7z"/>
						<path class="st27" d="M87,619c5.4-1.6,10.8-4.6,10.8-8.5c0-49.3,3.6-63.5,8.7-118.1c8.1-86.4,7.7-109.2,7.7-109.2
							c0-16.3-6.6-28-15.8-35.2l5,52.5c0,0-8.6,98.2-10.7,117.3C91,531.2,88.4,586.9,87,619z"/>
					</g>
					<path class="st27" d="M113.5,402c-5.5,7.1-14,11-30.4,11c-9.8,0-22.2-4.2-34-9.9c-0.7-0.3-2.1-1-2.1-1s-23.1-14.3-31.5-22.3
						c0-3.7,0-7.5-0.1-11.5c-0.3-30.8,29-41.8,45-26.3c11.5-4.8,26.7-2.8,38,6.1v0c0.1,0.1,0.2,0.2,0.3,0.3c0.3,0.2,0.6,0.5,0.9,0.8
						c0.2,0.2,0.4,0.4,0.7,0.6c0.3,0.3,0.6,0.6,0.9,0.8c0.2,0.2,0.4,0.4,0.6,0.6c0.3,0.3,0.7,0.7,1,1.1c0.1,0.2,0.3,0.3,0.4,0.5
						c0.5,0.5,0.9,1,1.3,1.6c0.2,0.2,0.3,0.4,0.5,0.7c0.3,0.3,0.5,0.7,0.8,1c0.2,0.3,0.4,0.5,0.5,0.8c0.2,0.3,0.5,0.7,0.7,1
						c0.2,0.3,0.4,0.6,0.5,0.8c0.2,0.3,0.4,0.7,0.6,1.1c0.2,0.3,0.3,0.6,0.5,0.9c0.2,0.4,0.4,0.8,0.6,1.1c0.1,0.3,0.3,0.6,0.4,0.9
						c0.2,0.4,0.4,0.9,0.6,1.3c0.1,0.3,0.2,0.5,0.3,0.8c0.3,0.7,0.6,1.4,0.8,2.2c0.1,0.2,0.1,0.4,0.2,0.6c0.2,0.6,0.4,1.1,0.5,1.7
						c0.1,0.3,0.2,0.6,0.2,0.9c0.1,0.5,0.3,1,0.4,1.5c0.1,0.3,0.1,0.7,0.2,1c0.1,0.5,0.2,1,0.3,1.6c0.1,0.3,0.1,0.7,0.2,1
						c0.1,0.5,0.2,1.1,0.2,1.7c0,0.3,0.1,0.6,0.1,1c0.1,0.6,0.1,1.3,0.2,2c0,0.3,0,0.5,0,0.8c0,0.9,0.1,1.9,0.1,2.9
						C114.1,383.2,114.2,388.1,113.5,402z"/>
				</g>
				<g>
					<g>
						<g>
							<g>
								<path class="st28" d="M130.4,207.7c-1.2,16.6,2.1,30.1,11.5,41.7c9,11,18.9,8,23.9,5.1l22.1-14.3
									c13.4-7.8,19.2-40.2,9.4-52.7c-11.8-15-35.2-20.7-50-9.9C133.7,187.6,131.3,194.9,130.4,207.7z"/>
								<path class="st29" d="M157.7,257.1c-4.8,0.4-10.5-1.2-15.8-7.7c-7.2-8.8-10.7-18.7-11.6-30.2v0c0.5-0.4,1-0.7,1.5-1
									c2.7-1.2,8.7-2.8,15.7,0.8c8.4,4.2,7.2,10.5,6.5,14.7c-0.2,1.2-0.7,4.2-0.6,5.4C153.7,245.5,154.8,251.1,157.7,257.1z"/>
							</g>
							<path class="st28" d="M130.2,218.5c0,0-4.7,4.4-17.7,7.5c-23.9,5.6,20.6,44.3,30.5,29.2c6.9-10.5,5.8-11.2,15.9-22.3
								c4-4.4,1.8-14.8-6.9-19.9C146,209.6,138.2,211.6,130.2,218.5z"/>
						</g>
						<path class="st30" d="M132.7,222c15.8,9.5,25.5,10.3,30.1,10.8c7.8,0.7,5.8-1.3,10.3-8.5c2.2-3.4,7.4-5.4,9.7-1.9
							c2.3,3.5-3.2,8.3-4.8,9.6c-1.7,1.3-1.1,4.3,0.6,3.4c0.2-0.1,1.1-0.7,2.1-1.5c2.4-1.8,5.7-1.8,8.2,0c1.8,1.3,3.8,2.6,5.5,3
							c3.7,0.9,4.9-1.8,6.6-4.2c0,0,1.3-4.6,1.7-7.1c0.4-2.5,13.5-50.1-30.4-54.6c0,0-21.9-3.7-33.9,12.6c-7.5,10.2-7.8,15.8-8.5,27
							C129.5,214.2,127.1,218.6,132.7,222z"/>
						<path class="st18" d="M109.5,225.8c4-3,8.4-5,10.8-5.8c1.7-0.6,4.6-2.5,16.6,5.1c13.7,8.6,15.3,15.6,15.3,15.6
							c1.2,3.2,1,4.7,0.5,6.6l-1,2.9L109.5,225.8z"/>
					</g>
					<path class="st20" d="M100.8,218.7c0,0,15.5,5.1,26.8,11.7c11.2,6.6,29,20.5,29,20.5c7.7,4.5,12.8,12.5,13.3,21.4
						c0.5,7.9-0.7,17.3-7,24.5c-13.1,15.3-30.8,21-38.4,46.3c-3.9,13.1-10.2,23.2-7.9,42.5c2.3,19.3-28.9,27.6-46,20.6
						c-7.5-3.1-20.7-9.1-30.5-14.6c-9.8-5.5-19.2-11.7-23.4-15.9c-2.2-2.2-4-5.5-3.3-8.6c1.2-5.4,3.5-14.6,7.3-25.3
						c4.4-12.6,8.8-64.5,31.2-93.2C73.3,221.3,83.3,216.2,100.8,218.7z"/>
					<path class="st16" d="M162.9,296.8c-13.1,15.3-30.8,21-38.4,46.3c-3.9,13.1-10.2,23.2-7.9,42.5c2.3,19.3-28.9,27.6-46,20.6
						c-7.5-3.1,25.4-5.5,33.3-25.4c8.7-29,11.7-42.1,16.9-54.1c5.3-12,15-41.4,15-41.4l34.1-13.6c0,0.2,0,0.3,0,0.5
						C170.3,280.1,169.1,289.5,162.9,296.8z"/>
				</g>
			</g>
		</g>
	</g>
	<g>
		<linearGradient id="SVGID_5_" gradientUnits="userSpaceOnUse" x1="146.5189" y1="422.9823" x2="175.315" y2="422.9823">
			<stop  offset="0" style="stop-color:#FFE4D4"/>
			<stop  offset="3.176451e-002" style="stop-color:#FEE2D2"/>
			<stop  offset="0.6582" style="stop-color:#EDC7B1"/>
			<stop  offset="1" style="stop-color:#E7BDA4"/>
		</linearGradient>
		<path class="st31" d="M170.7,400.7c0.3,1.9,1.2,8.6,2.2,10.4c1,1.7,2.4,2.4,2.4,9.2c0,6.8,0,13.2,0,15.2c0,2-2.7,4-4.3,4.2
			c0,0-1.8,3.1-5.4,3.3c0,0-1.6,2.8-5.5,2.9c0,0-1.8,2.4-5,2.7c-2.5,0.2-5.3,0.4-7.2,0.5c-2.2,0-1.6-5.4,0.7-6c1.7-0.5,3-0.8,3-0.8
			l0.3-6c-1.9-2.3-1.8-20.6-1.4-22.5c0.6-2.7,0.7-4.2,0.7-6.7C151.3,397.2,169.5,393.6,170.7,400.7z"/>
		<path class="st20" d="M172.5,284.2c0,13.1-3,63.2-3,63.2s5.2,50.5,5.5,57c0.3,6.5-27.3,15.1-28.5,5.8c-1.2-9.3-6.9-45.1-7.8-54.1
			c-0.9-9-4.1-74.1-2.8-83.3c2.7-19.2,11.6-28.9,19.4-23C161.9,254.8,172.5,264.2,172.5,284.2z"/>
	</g>
</g>
</svg>
