<?xml version="1.0" encoding="utf-8"?>
<!-- Generator: Adobe Illustrator 19.0.0, SVG Export Plug-In . SVG Version: 6.00 Build 0)  -->
<svg version="1.1" id="Layer_1" xmlns="http://www.w3.org/2000/svg" xmlns:xlink="http://www.w3.org/1999/xlink" x="0px" y="0px"
	 viewBox="0 0 267 697" style="enable-background:new 0 0 267 697;" xml:space="preserve">
<style type="text/css">
	.st0{fill:#FFD2B0;}
	.st1{fill:#3CB4FF;}
	.st2{fill:#FFA587;}
	.st3{fill:none;}
	.st4{fill:#FF223A;}
	.st5{fill:#FFFFFF;}
</style>
<g>
	<g>
		<g id="XMLID_15_">
			<g>
				<g>
					<g>
						<g>
							<g>
								<g>
									<path class="st0" d="M253.8,476.3c-5.5,14.9-17.4,25-28.9,26.1c0,0,11.6-25.9,16-68.2c0.1,0,0.3,0,0.4,0.1
										C255,439,260.7,457.8,253.8,476.3z"/>
								</g>
							</g>
						</g>
					</g>
				</g>
				<g>
					<g>
						<g>
							<g>
								<g>
									<path class="st1" d="M242.6,406.2c0,9-0.6,18.4-1.7,28c-4.5,42.4-16,68.2-16,68.2c-8,22.1-18.3,42.4-30.4,57.9
										c-11.6,14.9-24.8,25.5-39,29.2c-6.3,1.6-12.7,2.5-19.4,2.5c-6.6,0-13.1-0.8-19.3-2.5c-14.2-3.7-27.4-14.2-39-29.2
										c-12.1-15.5-22.4-35.8-30.4-57.9c-11.6-1.1-23.4-11.3-28.9-26.1c-6.9-18.5-1.3-37.4,12.5-42c0.1,0,0.2,0,0.4-0.1
										c-1.1-9.6-1.7-19-1.7-28c0-82.6,47.7-113.3,106.4-113.3C194.9,292.9,242.6,323.6,242.6,406.2z"/>
								</g>
							</g>
						</g>
					</g>
				</g>
				<g>
					<g>
						<g>
							<g>
								<g>
									<path class="st0" d="M253.5,646.8c-35.3,26.8-75.2,41.9-117.4,41.9c-42.2,0-82.1-15.1-117.4-41.9
										c9.8-6.1,19.2-12.8,27.5-20.4c0.6-0.5,1.2-1,1.7-1.6c4.8-4.5,9.2-9.3,13.1-14.3c1-1.3,2-2.7,3-4.1c0.1-0.2,0.2-0.3,0.3-0.5
										c0.4-0.6,0.8-1.3,1.2-1.9c4.4-6.9,7.9-14.3,9.9-22.3c14.4,10.1,35.1,21.5,60.6,27.2c21.2,4.7,45.7,5.5,72.6-1.8
										C219.8,622.9,236.1,635.9,253.5,646.8z"/>
								</g>
							</g>
						</g>
					</g>
				</g>
				<g>
					<g>
						<g>
							<g>
								<g>
									<path class="st0" d="M18.5,476.3c5.5,14.9,17.4,25,28.9,26.1c0,0-11.6-25.9-16-68.2c-0.1,0-0.3,0-0.4,0.1
										C17.2,439,11.6,457.8,18.5,476.3z"/>
								</g>
							</g>
						</g>
					</g>
				</g>
			</g>
			<g>
				<g>
					<g>
						<g>
							<g>
								<g>
									<path class="st2" d="M208.7,607.1c-26.9,7.3-51.4,6.5-72.6,1.8c-25.5-5.7-46.2-17.1-60.6-27.2c0.4-1.5,0.7-3,1-4.5
										c0.1-0.7,0.3-1.4,0.4-2.1c0.1-0.6,0.2-1.2,0.3-1.9c0.1-0.7,0.2-1.3,0.3-2c0-0.6,0.1-1.1,0.1-1.7c0-0.5,0.1-0.9,0.1-1.4
										c0.1-0.8,0.1-1.6,0.1-2.4c0-1.8,0-3.6,0-5.4c11.6,14.9,24.8,25.5,39,29.2c6.3,1.6,12.7,2.5,19.3,2.5
										c6.6,0,13.1-0.8,19.4-2.5c14.2-3.7,27.4-14.3,39-29.2C193.7,578.2,199.3,593.7,208.7,607.1z"/>
								</g>
							</g>
						</g>
					</g>
				</g>
				<g>
					<g>
						<g>
							<g>
								<g>
									<path class="st3" d="M77.6,569.5c0,0.6-0.1,1.1-0.1,1.7L77.6,569.5z"/>
								</g>
							</g>
						</g>
					</g>
				</g>
			</g>
		</g>
	</g>
	<g>
		<g>
			<g>
				<g>
					<g>
						<g>
							<path class="st4" d="M63.8,352c-2.7,0-4.9-2.2-4.9-4.9V154.5c0-2.7,2.2-4.9,4.9-4.9c2.7,0,4.9,2.2,4.9,4.9v192.6
								C68.7,349.8,66.5,352,63.8,352z"/>
						</g>
					</g>
				</g>
			</g>
		</g>
		<g>
			<g>
				<g>
					<g>
						<g>
							<path class="st4" d="M136.1,321.9c-2.7,0-4.9-2.2-4.9-4.9V154.5c0-2.7,2.2-4.9,4.9-4.9c2.7,0,4.9,2.2,4.9,4.9V317
								C141,319.7,138.8,321.9,136.1,321.9z"/>
						</g>
					</g>
				</g>
			</g>
		</g>
		<g>
			<g>
				<g>
					<g>
						<g>
							<path class="st4" d="M208.4,352c-2.7,0-4.9-2.2-4.9-4.9V154.5c0-2.7,2.2-4.9,4.9-4.9c2.7,0,4.9,2.2,4.9,4.9v192.6
								C213.2,349.8,211.1,352,208.4,352z"/>
						</g>
					</g>
				</g>
			</g>
		</g>
		<g>
			<g>
				<g>
					<g>
						<g>
							<path class="st4" d="M67.9,159.3c-4.9,0-9-2.2-9-4.9c0-2.7,4-4.9,9-4.9"/>
						</g>
					</g>
				</g>
			</g>
		</g>
		<g>
			<g>
				<g>
					<g>
						<g>
							<circle class="st5" cx="136.1" cy="317" r="13.3"/>
						</g>
					</g>
				</g>
			</g>
		</g>
		<g>
			<g>
				<g>
					<g>
						<g>
							<circle class="st5" cx="208.4" cy="347.1" r="13.3"/>
						</g>
					</g>
				</g>
			</g>
		</g>
		<g>
			<g>
				<g>
					<g>
						<g>
							<circle class="st5" cx="63.8" cy="347.1" r="13.3"/>
						</g>
					</g>
				</g>
			</g>
		</g>
		<g>
			<g>
				<g>
					<g>
						<g>
							<path class="st4" d="M223.7,159.3H50.5c-2.7,0-4.9-2.2-4.9-4.9V15.6c0-2.7,2.2-4.9,4.9-4.9h173.1c2.7,0,4.9,2.2,4.9,4.9
								v138.9C228.5,157.2,226.4,159.3,223.7,159.3z"/>
						</g>
					</g>
				</g>
			</g>
		</g>
		<g>
			<g>
				<g>
					<g>
						<g>
							<rect x="63.1" y="26.1" class="st5" width="152.1" height="117.8"/>
						</g>
					</g>
				</g>
			</g>
		</g>
		<g>
			<g>
				<g>
					<g>
						<g>
							<g>
								<path class="st1" d="M215.1,91.4v5.1c-0.3,0-1.2,0.3-1.9,0.6c-1.8,0.6-4.1,1.3-6.4,1.3c-3.1,0-5.2-3.5-8.9-10.2
									c-1.3-2.3-3.3-5.9-4.5-7.3c-1.9,2.2-4.2,11.4-5.6,17c-3.2,12.8-5.1,19.5-9.7,19.5c-4.6,0-6.3-7.4-10.3-30.2
									c-1.4-8.1-3.5-19.6-5.2-24.3c-1.8,5.2-4,18.3-5.5,27.5c-4.4,26.7-6,33.4-10.5,33.4c-4.3,0-5.8-5.7-10.1-40.4
									c-1.6-12.4-3.8-30.2-5.9-36.8c-1.9,5.8-3.9,20.5-5.4,31.8c-4.1,30.5-5.8,38.1-10.5,38.1c-4.8,0-6.6-6.9-9.8-20
									c-1.5-6.3-4.3-18-6.6-18.9c-2,0-4.8,8.7-6.2,12.9c-2.5,7.9-4.5,14.2-9.3,14.2c-4.2,0-7.6-4.4-11.1-9.1
									c-2.8-3.6-6.3-8.2-8.8-8.2v-5.1c5,0,9,5.2,12.8,10.2c2.1,2.7,5.3,6.9,6.9,7.1c1.4-0.9,3.3-7,4.5-10.6
									c2.7-8.5,5.3-16.5,11.2-16.5c5.7,0,8.1,8.7,11.5,22.8c1.2,5.1,3,12.4,4.5,15.2c2-4.9,4.1-20.8,5.7-32.8
									c4.1-30.5,5.8-38.1,10.5-38.1c4.6,0,6.3,6.5,10.9,43.2c1.5,11.8,3.4,27.2,5.2,33.6c1.8-5.5,3.8-18.1,5.3-26.9
									c4.4-26.7,6-33.4,10.5-33.4c4.6,0,6.3,7.4,10.3,30.2c1.5,8.5,3.7,20.8,5.5,25c1.5-2.8,3.2-9.8,4.5-14.7
									c3.4-13.5,5.6-21.2,10.7-21.2c3.1,0,5.2,3.5,8.9,10.2c1.4,2.5,3.6,6.6,4.8,7.6c1.4-0.1,3.1-0.6,4.4-1.1
									C213,91.7,214.1,91.4,215.1,91.4z"/>
							</g>
						</g>
					</g>
				</g>
			</g>
		</g>
	</g>
	<g>
		<g>
			<g>
				<g>
					<g>
						<path class="st0" d="M229.3,443.7c0-67.5-41.7-96.3-93.2-96.3s-93.2,28.7-93.2,96.3c0,67.5,41.7,128.7,93.2,128.7
							S229.3,511.3,229.3,443.7z"/>
					</g>
				</g>
			</g>
		</g>
	</g>
</g>
</svg>
