<?xml version="1.0" encoding="utf-8"?>
<!-- Generator: Adobe Illustrator 19.0.0, SVG Export Plug-In . SVG Version: 6.00 Build 0)  -->
<svg version="1.1" id="Layer_2" xmlns="http://www.w3.org/2000/svg" xmlns:xlink="http://www.w3.org/1999/xlink" x="0px" y="0px"
	 viewBox="0 0 58.5 108.8" style="enable-background:new 0 0 58.5 108.8;" xml:space="preserve">
<style type="text/css">
	.st0{fill:#D3A590;}
	.st1{fill:#EAC6B5;}
	.st2{fill:#B7694E;}
	.st3{fill:#CC885A;}
	.st4{fill:#007C79;}
	.st5{fill:#2D2D2D;}
	.st6{fill:#28292B;}
	.st7{fill:#04A8A3;}
	.st8{fill:#C1D1E0;}
	.st9{fill:#3E9BF7;}
	.st10{fill:#8FA4BC;}
</style>
<g>
	<g>
		<path class="st0" d="M9.7,25.3c-0.8,1.8-5.4,8.4-3.1,12c0.7,1.1,2.9,0.5,4.2-1.5c1.4-2.2,1.9-6,2-6.2C13.1,29.1,9.7,25.3,9.7,25.3
			z"/>
		<path class="st0" d="M30.7,30.2c1.6,2.2,5,7.3,7.8,8.2c0.9,0.3,2.4-4.7,2.4-5c-0.1-0.3-3.3-6.2-4.5-7.9
			C35.2,23.7,30.7,30.2,30.7,30.2z"/>
		<g>
			<g>
				<path class="st0" d="M27.4,12.7l0.2,6.1l2,1.5c0,0-5.4,6-7.5,6.2c-2.1,0.1-3.4-4.5-3-5.8c0.4-1.3,2.6-9.3,2.6-9.3L27.4,12.7z"/>
				<g>
					<path class="st1" d="M17.1,18.9c0.1-0.4,2.5,0.3,2.8-1c0.7-2.8,1.5-6.5,1.5-6.5L25,12l-2,15C20.9,27,16.6,20.2,17.1,18.9z"/>
				</g>
			</g>
		</g>
		<g>
			<path class="st1" d="M20.7,7.6c0.5-2.8,1.5-5.1,5.8-4.4c5.3,0.9,4.2,3.9,3.7,7.3c-0.5,3.4-3.4,6.8-6.1,6.4
				c-2-0.3-3.4-2.7-3.7-5.3c-0.5-0.4-0.8-1.2-0.7-2C19.8,8.5,19.9,7.6,20.7,7.6z"/>
			<path class="st0" d="M27.6,8.6c-0.7,3.5-1.9,6.5-3.2,8.3c1.9,0.1,3.6-0.2,5-3.8c0.3,0,1.1-1,1.3-1.9c0.3-1.1,0.8-1.8,0-2
				c-0.1,0,0.1-0.3,0-0.3c0.4-2.4,0.3-4.3-2.6-5.3C28.1,5.1,27.9,6.8,27.6,8.6z"/>
			<g>
				<path class="st2" d="M28,3.3l0-0.3c0,0-1-0.9-0.8-0.8c0.1,0,0.6-0.3,0.7,0.4l-0.3-1L30,2.8c0,0,0.6,0,0.9,0.4
					c0.3,0.4,0.6,0.7,0.6,0.7s-0.2,0.4-0.1-0.2C31.9,4,32,5.4,31.7,6.4c0,0.3,0,0.6-0.1,1c-0.2,1.5-0.6,1.8-0.6,1.8l-0.7,0
					c0,0,0.8-2-0.3-3.2c-1.1-1.3-3.7-1.1-3.7-1.1L28,3.3z"/>
				<path class="st3" d="M21.1,3.7c0.6-0.8,1.1-1.5,1.8-1.7c0.5-0.6,2.1-1.1,2.2-1c0.1,0.1-0.6-0.1-0.6,0.6c0.5-0.6,0.2-0.3,1.6-0.2
					c0,0-0.3,0.1-0.5,0.6c0,0,0,0,0,0c0.3-0.8,2.1-0.3,1.9-0.1c-1.2,1.3,0.9-0.1,1,0.5c0.1,0-0.1,0-0.1,0c0.1-0.7,0.1-0.6,1.6-0.1
					c-0.6,0-0.7,0-0.3,0.5c0.6,1,0.3,2.1-0.6,2.6C28.7,5.8,26.3,5.2,25,5c-1,0.2-1.9,0.8-2.2,1.2c-0.4,0.5-0.8,1.9-0.8,1.9l-1.5-0.5
					L20,7.8C20,7.8,19.9,5.2,21.1,3.7z"/>
			</g>
		</g>
		<path class="st4" d="M33.7,21c1.6,0.1,2.6,2.3,3.5,4.4c1,2.1,2.6,4.6,2.5,4.7c-3.2,3.2-5.5,7.2-5.5,7.2l-3-5.2L33.7,21z"/>
		<g>
			<path d="M32.3,103c0.5,0.7,0.7,2.6-0.3,3.2c-2.2,1.4-5.4,0.3-6-1c-1-2-2.1-2-2.6-2.6c-0.9-1,0.3-2.8,0.3-2.8l4,5L32.3,103z"/>
			<path class="st5" d="M29.5,102.4c-0.3-1,0.6-4.8-1.2-4.9c-1.8-0.1-3.5,0-3.3,1.6c0.1,1.6,0.7,3.6,0.7,3.6L29.5,102.4z"/>
			<path class="st6" d="M23.8,101.8c1.4,0.7,2.6,3.7,5.5,4c3.3,0.4,4-1.8,2.3-3.8c-0.5-0.6-1.2-1.5-2.3-2.8c0,0,0,0.5-0.1,0.9
				c0,0.3,0.3-0.3-1.4-0.1c-0.7,0.1-3.4-1.5-4.3-2.2C23.1,98.1,22.6,101.2,23.8,101.8z"/>
			<path d="M26.7,102.6c0.8-0.1,2.1-0.6,2.8-0.5l0,0c0.2,0,0.3,0.1,0.3,0.2l0,0c0,0.1,0.1,0.2,0.2,0.1l0,0c0.1,0,0.2-0.1,0.1-0.2
				l0,0c-0.1-0.3-0.3-0.4-0.6-0.5l0,0c-0.6-0.1-1.7,0.2-2.4,0.4l0,0c0.5-0.6,1.5-0.7,2.6-0.8l0,0c0.1,0,0.1,0,0.1-0.1l0,0
				c0,0,0-0.1,0-0.2l0,0c-0.1-0.3-0.4-0.4-0.7-0.4l0,0c-0.9-0.1-2.4,0.4-3.3,0.3l0,0c0.6-1.2,1.9-1,3-0.9l0,0l0,0
				c0.1,0,0.2-0.1,0.2-0.2l0,0c0-0.1-0.1-0.2-0.2-0.2l0,0c-1.1-0.1-2.9-0.3-3.5,1.4l0,0c0,0,0,0.1,0,0.1l0,0c0,0,0.1,0.1,0.1,0.1
				l0,0c0,0,0.1,0,0.1,0l0,0c0.9,0.1,2.6-0.5,3.4-0.3l0,0c0,0,0,0,0,0l0,0c-1.1,0.1-2.1,0.3-2.6,1.3l0,0c0,0.1,0,0.1,0,0.2l0,0
				C26.5,102.6,26.6,102.6,26.7,102.6L26.7,102.6C26.6,102.6,26.6,102.6,26.7,102.6L26.7,102.6z"/>
		</g>
		<path d="M21.4,79.5l0.1-26.7l-0.3-7.4l8-5.6c0.7,1.6,3.2,7.7,3.3,10.6c0.2,9.1-1.3,23.5-1.5,23.9c-0.3,3.9-0.5,6.8-0.7,8.8
			c-0.4,4.1-0.3,11.7-0.1,14.6c0.2,3.8-8,4.8-9.1,3.3C19.3,98.6,21,81.8,21.4,79.5z"/>
		<g>
			<g>
				<path class="st6" d="M4.6,103.7c-0.6,0.7-1.8,3.2,0.5,3.9c2.8,0.9,4.1-0.2,5.1-1.1c1.2-1,2.5-0.7,3-1.3c0.9-1,0.3-3.4,0.3-3.4
					l-4.2,3.8L4.6,103.7z"/>
				<path d="M7.1,103.3c0.5-1,0.3-4.8,2-4.7c1.8,0.2,3.4,0.6,3,2.2c-0.4,1.5-1.4,3.4-1.4,3.4L7.1,103.3z"/>
				<path d="M12.8,100.2c-0.6-0.1-3,1.9-3.6,1.8c-1.7-0.2-1-1.1-1-1.4c0-0.4-0.6-0.8-0.6-0.8c-0.8,2.3-1.5,2.6-2.3,3.2
					c-2.1,1.5-1.1,4.7,2.9,3.7c2.2-0.5,1.8-1.8,4.7-2.2C14.2,104.3,13.8,100.7,12.8,100.2z"/>
				<path class="st6" d="M9.2,104c-0.8-0.2-2-0.9-2.7-0.9l0,0c-0.2,0-0.3,0-0.3,0.1l0,0c0,0.1-0.1,0.1-0.2,0.1l0,0
					c-0.1,0-0.1-0.1-0.1-0.2l0,0c0.1-0.3,0.4-0.4,0.7-0.4l0,0c0.6,0,1.6,0.5,2.3,0.8l0,0c-0.4-0.7-1.4-0.9-2.4-1.2l0,0
					c-0.1,0-0.1,0-0.1-0.1l0,0c0-0.1,0-0.1,0-0.2l0,0c0.1-0.3,0.4-0.3,0.7-0.3l0,0c0.9,0,2.4,0.8,3.2,0.8l0,0
					c-0.4-1.2-1.8-1.3-2.9-1.4l0,0l0,0c-0.1,0-0.2-0.1-0.2-0.2l0,0c0-0.1,0.1-0.2,0.2-0.2l0,0c1.1,0.1,2.9,0.1,3.2,1.9l0,0
					c0,0,0,0.1,0,0.1l0,0c0,0-0.1,0.1-0.1,0.1l0,0c0,0-0.1,0-0.1,0l0,0c-0.9,0-2.5-0.8-3.3-0.9l0,0c0,0,0,0,0,0l0,0
					c1,0.3,2,0.6,2.4,1.6l0,0c0,0.1,0,0.1,0,0.2l0,0C9.3,104,9.3,104,9.2,104L9.2,104C9.2,104,9.2,104,9.2,104L9.2,104z"/>
			</g>
		</g>
		<path d="M6.4,96.8c0.2-1,3.3-18.9,3.4-20c0-1.8,0.9-7,1.2-15.1c0.3-6.8,1.6-14.4,2.5-16.8l9.6-2.1c0,0,1.9,7.4,0.6,15.4
			c-0.1,0.6-1.3,1.7-1.4,2.3c-1.1,6.3-3.1,15.8-3.6,19c-0.5,2.8-2,14.9-3,21.5c-0.1,0.9-0.8,2.7-1.5,2.1c-2-2.4-5.8-3.6-6.8-3
			c0-0.1-0.2,0.1-0.2,0c-0.3,0.2-0.4,0.6-0.8,0.4C5.5,100.2,5.9,99.2,6.4,96.8z"/>
		<g>
			<path class="st6" d="M7.5,100.5c0-0.1-0.2,0.1-0.2,0c-0.3,0.2-0.4,0.6-0.8,0.4c-1-0.4-0.6-1.5-0.1-3.8c0.2-1,3.4-18.9,3.4-20
				c0-1.8,0.9-11.6,1.2-19.7c0.3-6.8,1.6-9.7,2.5-12.2l2.1-0.4c0.1,0.1,0.2,0.1,0.2,0.1c-1.7,6.6-3.1,29.5-4,33.2
				c-0.8,3.3-3.4,16-2.1,22C8.8,100,8,100.2,7.5,100.5z"/>
		</g>
		<path class="st4" d="M23.3,20.4c3.3,0.2,4.9-1.6,4.9-1.6s3.1,1.9,6,2.4c1,0.2-0.7,3-1,3.7c-1.1,2.2-0.8,7.4-1,8.1
			c-0.3,1.5,0.3,10.5,0.8,17.7c0.1,1.5-10.5,0.2-13-0.3C18.9,50.6,22,20.3,23.3,20.4z"/>
		<path class="st7" d="M23.7,31.3c0.8-5.4,0.4-10.9,0.3-10.9c-3.3-0.3-5.4-2.7-5.4-2.7s-1.5,0.6-5,1.2c-2.1,0.4-1.7,1-1.8,2.3
			c-0.4,3.4,1.8,10.8,1.5,7.5c-0.2-1.5-0.9,15-2.1,21.1c-0.1,0.7,8.6,1.1,11.4,1.1C23,51,23,36.3,23.7,31.3z"/>
		<g>
			<path class="st7" d="M13.2,19.5c-0.9-1.1-2.5,0.7-3.9,3.3C7.9,25.6,5.5,33,5.5,33l4.5,1.6c0,0,3.2-4.3,3.8-5.7
				C14.5,27.5,14.2,20.7,13.2,19.5z"/>
			<g>
				<g>
					<path class="st4" d="M7.2,33.4c1.6-4.7,5.7-14,6.2-12.9c0.5,1,0.6,7.1,0,9.2c0,0.2-0.1,0.3-0.1,0.5c-0.5,2.3-1.3,5.2-1.3,5.2
						L7.2,33.4z"/>
				</g>
			</g>
		</g>
		<path class="st6" d="M25.1,1.3c-0.3,0.3-0.6,0.3-0.9,0.3c-0.4,0-2.2,0.3-3,1.1c-0.7,0.7-1.8,3-2.1,4.4C19.7,7.3,20,7.3,20,7.3
			s0.9-3,2-3.9c1.4-1.1,3.5-1,3.9-1L25.1,1.3z"/>
		<g>
			<path d="M18.5,11.4c0,0.6,0.5,1.1,1.1,1.1l0,0c0.6,0,1.1-0.5,1.1-1.1V7.2c0-0.6-0.5-1.1-1.1-1.1l0,0c-0.6,0-1.1,0.5-1.1,1.1V11.4
				z"/>
			<ellipse class="st6" cx="18.8" cy="9.3" rx="0.9" ry="2.7"/>
		</g>
		<path d="M27.9,1.7c0.3,0.3,0.6,0.3,1,0.4c0.2,0.1,1.7,0.8,2.5,1.6c0.7,0.7,1,4,0.6,5c-0.5,0.1-0.8-0.4-0.8-0.4s0.4-3.2-0.7-4.1
			c-1.4-1.1-2.9-1.4-3.2-1.4L27.9,1.7z"/>
		<g>
			<g>
				<path d="M19.8,9.1c-0.3,1.4,0.7,2.8,2.2,3.1l7.6,1.5c1.5,0.3,3-0.6,3.3-2.1l0.3-1.3c0.3-1.4-0.7-2.8-2.2-3.1l-7.6-1.5
					c-1.5-0.3-3,0.6-3.3,2.1L19.8,9.1z"/>
				<path class="st6" d="M21.3,9c-0.2,1.2,0.6,2.5,1.8,2.7l6.2,1.2c1.3,0.2,2.5-0.6,2.7-1.8l0.2-1.1c0.2-1.2-0.6-2.4-1.8-2.7L24.2,6
					c-1.3-0.2-2.5,0.6-2.7,1.8L21.3,9z"/>
			</g>
			<path d="M25.1,1.2L25,1.4c0,0,0.9,0.5,0.8,2c-0.1,1.4-0.6,2.7-0.6,2.7s3.5,0.8,3.7,0.8c0.2,0,0.5-0.5,0.5-0.7
				C29,5.2,28.2,2.3,27.5,2C26.9,1.7,25.1,1.2,25.1,1.2z"/>
			<path class="st6" d="M29.2,6.5c-0.4-0.6-2.3-0.8-3.4-0.8c0,0,1.4-4.1-0.7-4.5c0,0,2.1,0.2,2.7,0.3C30.4,2.2,29.4,7,29.2,6.5z"/>
		</g>
		<g>
			<path class="st0" d="M50.7,27.3c-1.1,1.5-5.3,8.4-8.7,10.5c-2.3,1.4-3.8,0.6-4,0.3c-0.2-0.3-0.5-1.7-0.7-2.7
				c-0.2-1,1.6-2.6,2.8-3.6c1.1-1,8-6.1,8-6.1L50.7,27.3z"/>
			<g>
				<path d="M44.9,27.4c0.3-0.4,1.5-1.1,1.7-1.6c0.2-0.5,0.1-1.7,0-2.5c-0.1-0.8,0.1-1.7-0.2-2.1c-0.3-0.4-0.1-1.1,0.7-0.7
					c0.8,0.3,1,2.2,1.2,2c0.2-0.1,1.4-0.9,1.6-1.4c0.2-0.5,2.1-3.9,2.4-3.9c0.3,0,0.8,0.2,0.2,1.6c-0.6,1.4-1.2,2.4-0.9,2.3
					c0.5-0.2,3.1-3.7,3.6-3.5c0.6,0.3,0.7,0.7,0.1,1.3c-0.6,0.6-2.8,3.5-2.5,3.5c0.4,0,2.9-3.2,3.7-2.9c0.4,0.2,0.5,0.5,0.2,1
					c-0.4,0.4-2.4,2.6-2.5,3.1c-0.1,0.4,1.7-1.2,2.3-1.4c0.6-0.2,1.3,0.3,0.5,1c-0.8,0.6-2,1.8-2.8,2.7c-0.8,1-2.6,2.5-3.6,2.9
					c0,0-1.4,1.8-1.5,2.2c-1.6-0.4-3.3-1.5-3.6-2.7C45.1,27.4,44.9,27.4,44.9,27.4z"/>
				<g>
					<ellipse transform="matrix(-0.93 -0.3676 0.3676 -0.93 94.3842 54.2336)" class="st8" cx="52.4" cy="18.1" rx="0.4" ry="0.6"/>
					
						<ellipse transform="matrix(-0.9299 -0.3679 0.3679 -0.9299 94.373 54.2481)" class="st9" cx="52.4" cy="18.1" rx="0.3" ry="0.4"/>
				</g>
				<g>
					<path class="st8" d="M54.6,18.2c-0.2,0.2-0.2,0.6,0,0.7c0.2,0.2,0.5,0.1,0.7-0.2c0.2-0.2,0.2-0.6,0-0.7
						C55.2,17.9,54.8,18,54.6,18.2z"/>
					<ellipse transform="matrix(-0.7838 -0.621 0.621 -0.7838 86.6375 67.1789)" class="st9" cx="55" cy="18.5" rx="0.4" ry="0.4"/>
				</g>
				<g>
					
						<ellipse transform="matrix(-0.7836 -0.6212 0.6212 -0.7836 87.5087 71.3716)" class="st8" cx="56.2" cy="20.4" rx="0.4" ry="0.6"/>
					
						<ellipse transform="matrix(-0.7842 -0.6205 0.6205 -0.7842 87.5587 71.3406)" class="st9" cx="56.2" cy="20.4" rx="0.3" ry="0.4"/>
				</g>
				<g>
					
						<ellipse transform="matrix(-0.5559 -0.8312 0.8312 -0.5559 69.1565 82.7096)" class="st8" cx="56.7" cy="22.9" rx="0.4" ry="0.5"/>
					<path class="st9" d="M56.5,22.6c-0.2,0.1-0.2,0.3-0.2,0.4c0.1,0.1,0.3,0.1,0.5,0c0.2-0.1,0.2-0.3,0.2-0.4
						C56.9,22.5,56.7,22.5,56.5,22.6z"/>
				</g>
				<path class="st10" d="M48.3,23c-0.5-0.7-0.6-2-0.9-2.1c-0.3-0.1-0.6,0-0.5,0.6c0.2,0.7-0.1,1.5,0.5,3.2c0.2,0.4,0.7-0.1,0.8-0.8
					C48.5,23.1,48.3,23,48.3,23z"/>
				<path class="st10" d="M52.1,20c-0.2,0.2-1.2-0.2-1.3-0.4c-0.4,0.6-0.6,1.2-0.6,1.2s1.3,0.5,1.5,0.3C51.8,20.9,52.1,20,52.1,20z"
					/>
				<path class="st10" d="M53.8,21.3c-0.1,0-1.2-0.8-1.2-1.1c-0.4,0.4-0.9,0.9-0.9,0.9s0.7,1.3,1.2,1.3
					C53.1,22.4,53.8,21.3,53.8,21.3z"/>
				<path class="st10" d="M55.1,22.6c-0.1,0-1.2-0.8-1.1-1.1c-0.4,0.4-1,0.9-1,0.9s0.8,1.3,1.3,1.3C54.4,23.7,55.1,22.6,55.1,22.6z"
					/>
				<path class="st10" d="M55.7,24.5c-0.2,0-0.7-1.1-0.6-1.3c-0.7,0.5-0.9,0.6-0.9,0.6s0.2,1.3,0.7,1.5
					C55.1,25.3,55.7,24.5,55.7,24.5z"/>
				<g>
					<path class="st8" d="M46.8,21.3c0.2,0.3,0.4,0.4,0.6,0.3c0.2-0.1,0.2-0.4,0.1-0.7c-0.2-0.3-0.4-0.4-0.6-0.3
						C46.7,20.8,46.6,21.1,46.8,21.3z"/>
					
						<ellipse transform="matrix(-0.8614 0.5079 -0.5079 -0.8614 98.4931 15.3909)" class="st9" cx="47.1" cy="21.1" rx="0.3" ry="0.4"/>
				</g>
				<g>
					
						<ellipse transform="matrix(-0.987 -0.1608 0.1608 -0.987 96.6449 57.2047)" class="st8" cx="50.6" cy="24.7" rx="1.4" ry="1.5"/>
					
						<ellipse transform="matrix(-0.9869 -0.1612 0.1612 -0.9869 96.6314 57.2236)" class="st9" cx="50.6" cy="24.7" rx="1.2" ry="1.3"/>
				</g>
			</g>
		</g>
		<g>
			<path class="st0" d="M7,20.1c-0.5,1.8-3,10.1-1.9,14c1.1,3.9,2.2,3.6,2.5,3.7c0.4,0,1.6-0.6,2.4-1.3c1.3-1.1,1.3-3.4,1.3-4.9
				C11.2,30,9.9,21,9.9,21L7,20.1z"/>
			<g>
				<path d="M10.9,22.8c0-0.5-0.3-1.9-0.1-2.3c0.2-0.5,1.2-1.3,1.8-1.8c0.6-0.4,1.1-1.3,1.6-1.3c0.5,0,0.8-0.7,0-1
					c-0.8-0.3-2.2,0.8-2.3,0.6c-0.1-0.3-0.4-1.7-0.1-2.1c0.2-0.5,1.3-4.2,1-4.4c-0.2-0.2-0.7-0.4-1.3,1.1c-0.5,1.5-0.8,2.5-1,2.2
					c-0.2-0.4,0.4-4.8-0.1-5c-0.6-0.2-1,0-1,0.9c0,0.9-0.5,4.5-0.7,4.3C8.3,13.5,8.8,9.5,8,9.2C7.6,9,7.2,9.2,7.2,9.8
					c-0.1,0.6-0.2,3.6-0.4,4c-0.2,0.4-0.4-2-0.7-2.6c-0.3-0.6-1.2-0.7-1,0.3c0.2,1,0.2,2.7,0.1,3.9C5.1,16.6,5.3,19,5.7,20
					c0,0-0.3,2.2-0.5,2.6c1.4,0.9,3.4,1.2,4.4,0.6C10.7,22.7,10.9,22.8,10.9,22.8z"/>
				<g>
					<ellipse transform="matrix(0.9191 0.3939 -0.3939 0.9191 5.2949 -3.8755)" class="st8" cx="12.1" cy="11" rx="0.4" ry="0.6"/>
					<ellipse transform="matrix(0.9185 0.3954 -0.3954 0.9185 5.319 -3.8868)" class="st9" cx="12.1" cy="11" rx="0.3" ry="0.4"/>
				</g>
				<g>
					<ellipse transform="matrix(0.9939 0.1107 -0.1107 0.9939 1.097 -1.0417)" class="st8" cx="9.9" cy="9.4" rx="0.5" ry="0.6"/>
					<ellipse transform="matrix(0.9938 0.1108 -0.1108 0.9938 1.0981 -1.0426)" class="st9" cx="9.9" cy="9.4" rx="0.4" ry="0.4"/>
				</g>
				<g>
					<path class="st8" d="M8.2,10c0,0.3-0.2,0.5-0.5,0.5c-0.2,0-0.4-0.3-0.4-0.6c0-0.3,0.2-0.5,0.5-0.5C8,9.4,8.2,9.6,8.2,10z"/>
					<path class="st9" d="M8.1,9.9c0,0.2-0.2,0.4-0.4,0.4c-0.2,0-0.3-0.2-0.3-0.5c0-0.2,0.2-0.4,0.4-0.4C8,9.5,8.1,9.7,8.1,9.9z"/>
				</g>
				<g>
					<ellipse transform="matrix(0.9793 -0.2022 0.2022 0.9793 -2.1677 1.3815)" class="st8" cx="5.7" cy="11.3" rx="0.4" ry="0.5"/>
					<ellipse transform="matrix(0.9801 -0.1986 0.1986 0.9801 -2.1307 1.3523)" class="st9" cx="5.7" cy="11.3" rx="0.3" ry="0.4"/>
				</g>
				<path class="st10" d="M11.5,17.3c0.8-0.1,1.8-1,2.1-0.9c0.3,0.1,0.5,0.4-0.1,0.8c-0.6,0.4-1,1.1-2.6,1.9c-0.4,0.2-0.4-0.5,0-1.2
					C11.3,17.2,11.5,17.3,11.5,17.3z"/>
				<path class="st10" d="M11,12.5c0,0.3,1,0.7,1.2,0.6c-0.1,0.7-0.4,1.3-0.4,1.3s-1.3-0.6-1.3-0.8C10.5,13.3,11,12.5,11,12.5z"/>
				<path class="st10" d="M8.9,12.2c0.1,0.1,1.4,0.3,1.6,0.1c0,0.6,0,1.3,0,1.3s-1.4,0.4-1.8,0C8.6,13.4,8.9,12.2,8.9,12.2z"/>
				<path class="st10" d="M7,12.2c0.1,0.1,1.4,0.3,1.5,0c0,0.5,0.1,1.3,0.1,1.3s-1.4,0.4-1.8,0C6.7,13.5,7,12.2,7,12.2z"/>
				<path class="st10" d="M5.2,13.1c0.2,0.1,1.3-0.2,1.4-0.5c0.2,0.9,0.2,1,0.2,1s-1.1,0.8-1.6,0.6C5.1,14.2,5.2,13.1,5.2,13.1z"/>
				<g>
					<path class="st8" d="M13.8,17.2c-0.3,0.1-0.6,0-0.7-0.3c-0.1-0.2,0.1-0.5,0.4-0.5c0.3-0.1,0.6,0,0.7,0.3
						C14.3,16.8,14.1,17.1,13.8,17.2z"/>
					<ellipse transform="matrix(0.252 0.9677 -0.9677 0.252 26.4464 -0.6948)" class="st9" cx="13.7" cy="16.8" rx="0.3" ry="0.4"/>
				</g>
				<g>
					<path class="st8" d="M9.9,17.7c-0.5,0.7-1.4,0.9-2.1,0.4C7.2,17.6,7,16.7,7.5,16c0.5-0.7,1.4-0.9,2.1-0.4
						C10.2,16.1,10.3,17,9.9,17.7z"/>
					<ellipse transform="matrix(0.8146 0.58 -0.58 0.8146 11.3739 -1.9176)" class="st9" cx="8.7" cy="16.8" rx="1.2" ry="1.3"/>
				</g>
			</g>
		</g>
	</g>
</g>
</svg>
