<?xml version="1.0" encoding="utf-8"?>
<!-- Generator: Adobe Illustrator 19.0.0, SVG Export Plug-In . SVG Version: 6.00 Build 0)  -->
<svg version="1.1" xmlns="http://www.w3.org/2000/svg" xmlns:xlink="http://www.w3.org/1999/xlink" x="0px" y="0px"
	 viewBox="0 0 39 62.6" style="enable-background:new 0 0 39 62.6;" xml:space="preserve">
<style type="text/css">
	.st0{fill:#13B7FD;}
	.st1{fill:#05DCFF;}
	.st2{fill:#1499FC;}
	.st3{fill:#FFBFA2;}
	.st4{fill:#98A4E0;}
	.st5{fill:#C6D5FA;}
	.st6{fill:#6E4CB3;}
	.st7{fill:#5E3E9E;}
	.st8{fill:#8763CD;}
	.st9{fill:#15D9FD;}
	.st10{enable-background:new    ;}
	.st11{clip-path:url(#SVGID_2_);enable-background:new    ;}
	.st12{fill:#7F89A6;}
	.st13{fill:#CDDCFB;}
	.st14{fill:#ECF5FE;}
	.st15{fill:#D12E75;}
	.st16{fill:#37404A;}
	.st17{fill:#F3A984;}
</style>
<g id="Layer_1">
</g>
<g id="Layer_2">
	<g id="_x32_0_x5F_man_x5F_gamer_x5F_pet_1_">
		<g id="pet_1_">
			<g>
				<path class="st0" d="M24.4,17.5c-0.6,0.4-1.2,0.9-1.8,1.4c-0.2,0.2-0.4,0.4-0.5,0.7c0,0,0,0.1,0,0.1c0,0,0,0.1,0.1,0.1
					c0.3,0.2,0.8,0.1,1.1-0.1c0.5-0.2,1-0.5,1.4-0.9L24.4,17.5z"/>
				<path class="st0" d="M30.4,17.5c-0.1-1.3,2-1.3,2.3-1.4c2.7-0.5,1-2.3,0.9-2.9c-0.5-2.9,2.3-2.4,2.4-4.1c0-0.4-0.1-0.9-0.4-1.2
					c-1-0.9-3.7,0-4.2,0.1c-0.7,0.1-1.4,0-2-0.3c-2.6-1.3-2-4.7-1.1-5.3c2.5-1.7,3.1,1.9,1.9,1.5C29.8,4,30,3.6,29.6,3.6
					c-1,0.1-0.5,1.1,0.3,1c0.3,0,0.5-0.2,0.8-0.3c0.6-0.2,4.4-1.3,5.7,0.8c0.6,0.9,1.3,2,1.4,3.2c0.1,1.2-1,1.7-1.3,2.8
					c-0.4,1.5,2.3,2.8,1.1,6.4c-1.2,3.5-6.7,4.6-7.9,1.6c0,0,0.1-1-0.1-1.4L30.4,17.5z"/>
				<path class="st1" d="M31.6,17.1c0,2.4-1.9,4.3-4.3,4.3c-0.9,0-1.8-0.3-2.5-0.8c-1.1-0.8-1.8-2-1.8-3.5c0-0.1,0-0.3,0-0.4
					c0-0.1,0-0.3,0.1-0.4c0.4-2,2.1-3.5,4.2-3.5c0.5,0,0.9,0.1,1.4,0.2C30.4,13.6,31.6,15.2,31.6,17.1z"/>
				<path class="st1" d="M28.8,20.3c0.2,0,0.4,0.1,0.6,0.3c0.1,0.2,0.2,0.4,0.3,0.6c0.3,0.7,0.6,1.5,0.5,2.3c0,0.2-0.1,0.4-0.3,0.4
					c-0.2,0.1-0.3,0-0.5-0.1c-0.6-0.5-1.1-1.2-1.2-1.9c-0.1-0.3-0.2-0.5-0.1-0.8C28.2,20.8,28.5,20.3,28.8,20.3z"/>
				<path class="st2" d="M24.4,18.9l-0.2,0.3c-0.1,0.1,0,0.3,0.1,0.4l0.4,0.2c0.2,0.1,0.4-0.1,0.4-0.3l-0.2-0.5
					C24.8,18.7,24.5,18.7,24.4,18.9z"/>
				<g>
					<path class="st0" d="M31.6,13.9c0-0.1-0.1-0.4-0.1-0.5c0-0.2-1.5,0.4-1.6,0.5c-0.6,0.2-1.1,0.5-1.4,0.8
						c1.2,0.5,2.1,1.6,2.5,2.8c0.2-0.4,0.7-1.2,0.8-2.4C31.7,14.8,31.7,14.3,31.6,13.9z"/>
					<path class="st1" d="M31.5,13.7c0-0.1,0-0.2,0-0.2c0-0.2-1.6,0.2-1.8,0.2c-0.8,0.3-1.4,0.7-1.7,0.9c1.3,0.5,2.2,1.4,2.7,2.7
						c0.2-0.4,0.7-1.2,0.8-2.3C31.6,14.5,31.5,14.1,31.5,13.7z"/>
					<path class="st0" d="M30.5,16.7c0.2-0.3,0.5-0.9,0.6-1.7c0-0.3,0-0.6-0.1-0.9c0-0.1,0-0.1,0-0.2c0-0.1-1.2,0.1-1.3,0.2
						c-0.6,0.2-0.9,0.5-1.2,0.6C29.4,15.2,30.1,15.9,30.5,16.7z"/>
				</g>
				<path class="st0" d="M37.4,11.5c0-0.2,0-0.4,0.2-0.6c0.2-0.2,0.5-0.4,0.6-0.7C38,10.4,38,10.7,38.1,11c0,0.1,0.1,0.1,0.1,0.2
					C38.4,11.7,37.5,12.3,37.4,11.5z"/>
				<path class="st0" d="M31.2,2.5c-0.2-0.1-0.4-0.2-0.5-0.4c-0.1-0.2,0-0.4,0.2-0.5c0.1-0.1,0.2-0.2,0.3-0.2c0,0.2,0.1,0.4,0.2,0.5
					c0.1,0.1,0.3,0.2,0.5,0.4C32,2.5,32.1,2.7,32.1,3c0,0.2-0.4,0.8-0.6,0.4c-0.1-0.1,0-0.3,0-0.5C31.4,2.8,31.4,2.6,31.2,2.5z"/>
				<path class="st0" d="M28.1,7.3c-0.2-0.1-0.5-1.1-0.6-1c-0.2,0.1-0.1,0.4,0,0.5C27.6,7,27.9,7.2,28.1,7.3z"/>
				<g>
					<path class="st0" d="M27.3,14.1c0,0-0.1,0-0.2,0c-0.3-0.1-1-1.1-1.8-0.9c-0.7,0.2-1,0.6-1,0.6c-0.1-0.8,0.4-2,0.6-2.7
						C26.7,11.5,27,13,27.3,14.1z"/>
				</g>
				<g>
					<path class="st1" d="M27.1,14.1c0,0-0.9-0.5-2-0.3c-0.7,0.2-0.9,0.4-0.9,0.4c-0.1-0.8,0-2.1,0.7-3C26.6,11.8,26.9,13,27.1,14.1
						z"/>
				</g>
				<g>
					<path class="st0" d="M25,11.8c-0.4,0.6-0.5,1.6-0.5,2.3c0.1,0,0.4-0.1,0.6-0.2c0.6-0.1,1.1-0.1,1.5,0
						C26.3,13,26.2,12.3,25,11.8z"/>
				</g>
				<path class="st2" d="M28.4,18.9c-0.3-0.6-0.7-1-1.4-1c-0.4,0-1.2,0.3-1.2,0.8c0,0,0,0,0,0c0.2-0.1,0.2-0.2,0.4-0.3
					c0.2-0.2,0.5-0.2,0.8-0.2c0.3,0,0.6,0.1,0.8,0.2c0.2,0.2,0.3,0.4,0.4,0.6C28.1,19.3,28.5,19.1,28.4,18.9z"/>
				<path class="st2" d="M24.1,17.6c0,0.2-0.3,0.2-0.3,0c0-0.3-0.2-0.6-0.4-0.8c-0.1-0.1-0.1-0.1-0.2-0.2c0-0.1,0-0.3,0.1-0.4
					C23.7,16.5,24.1,17.1,24.1,17.6z"/>
			</g>
		</g>
		<g id="man_2_">
			<path class="st3" d="M23,19.4c-0.1-0.1-0.2-0.1-0.2,0c-0.1,0-0.1,0.1-0.2,0.1c-0.6,0.4-1.4,1-1.9,1.5l0,0
				c-0.1,0.1-0.2,0.1-0.2,0.2c0,0,0,0,0,0c-0.2,0-0.5,0.1-0.7,0.2c-0.1,0.1-0.2,0.2-0.3,0.4c-0.1,0.2-0.3,1-0.3,1.2
				c0,0.1,0.1,0.3,0.2,0.3c0,0,0,0,0,0l0,0c0.2,0.2,0.3,0.3,0.4,0.5c0.1,0.2,0.2,0.2,0.4,0.2c0.8-0.7,1.7-1,2.3-1.9
				c0.1-0.1,0.2-0.2,0.1-0.4s-0.1-0.3-0.3-0.2c0.1-0.1,0.1-0.3,0-0.4c-0.1-0.1-0.2-0.2-0.4-0.1c0-0.1,0-0.2-0.1-0.3
				c0,0-0.1-0.1-0.2-0.1c0.4-0.3,0.7-0.5,1-0.9c0.1-0.1,0.3-0.3,0.3-0.4C23,19.4,23,19.4,23,19.4z"/>
			<g id="man_3_">
				<g>
					<g>
						<g>
							<path class="st4" d="M5.1,57.8c0-0.1,0.1-0.2,0.4-0.2c0.3,0,0.6,0,0.9-0.1c0.4,0,0.8,0,1.2-0.1c0-0.3,0-0.6-0.1-0.9
								c0.4,0.1,0.6,0,1-0.2c0.5-0.2,0.9-0.3,1.4-0.5c0.2-0.1,0.4-0.1,0.6-0.1c0.5,0.1,0.8,1,0.7,1.4c-0.1,0.3-0.3,0.6-0.5,0.8
								c-0.4,0.3-0.9,0.5-1.4,0.6c-0.5,0.1-1,0.2-1.4,0.6c-0.5,0.4-0.9,0.9-1.6,0.9C5.6,60.2,5,59.7,4.9,59c0-0.3,0-0.5,0.1-0.8
								C5,58,5.1,57.9,5.1,57.8z"/>
							<path class="st5" d="M7.3,58.7c0-0.1,0-0.1,0-0.2c0-0.6,0.2-1.1,0.4-1.6c0.1-0.2,0.2-0.4,0.3-0.5c0.4-0.3,1,0,1.2,0.4
								c0.1,0.2,0.2,0.4,0.3,0.6c0.2,0.4,0.6,0.9,1.1,0.9c0.6,0,1.3-0.2,2-0.2c0.2,0,0.5,0,0.7,0.1c0.5,0.2,0.7,1.1,0.5,1.6
								c-0.1,0.3-0.4,0.5-0.7,0.7c-0.4,0.2-1,0.3-1.5,0.3c-0.5,0-1,0-1.5,0.2c-0.8,0.4-1.8,0.9-2.6,0.2c-0.2-0.2-0.3-0.5-0.4-0.8
								C7.1,59.7,7.3,59.2,7.3,58.7z"/>
						</g>
					</g>
				</g>
			</g>
			<path class="st6" d="M5.5,34.5c0.4,0.4,1.9-0.3,1.9-0.5c1.8-1.4,1.6,4.1,1.1,6.3c-0.3,1.2-0.2,2.4-0.4,3.6
				c-0.2,1.3-0.5,2.7-0.8,3.9c-0.1,0.3-0.2,0.6-0.4,0.8c-0.4,0.4-1.1,0.4-1.7,0.3c-0.5-0.1-1.1-0.2-1.3-0.7
				c-0.2-0.3-0.2-0.6-0.1-0.9c0-0.8,0-1.7-0.2-2.5C3.4,43.9,3.2,43,3,42.1c-0.2-0.8-0.3-1.5-0.4-2.3c-0.1-1.4,0-2.9,0.2-4.3
				c0.1-0.7-0.1-2.1,0.9-2.3C4.7,33.1,5.3,34.3,5.5,34.5z"/>
			<path class="st6" d="M5.1,34c-0.3-0.4-0.8-0.8-1.4-0.7c-1,0.1-0.8,1.5-0.9,2.3c-0.2,1.4-0.3,2.8-0.2,4.3c0.1,0.8,0.2,1.6,0.4,2.3
				c0.2,0.9,0.4,1.8,0.5,2.7c0.2,0.8,0.2,1.7,0.2,2.5c0,0.3,0,0.7,0.1,0.9c0.3,0.5,0.8,0.6,1.3,0.7C5.4,49,5.7,49,5.9,49
				c0-3-0.5-6-1.9-8.7C3.1,38.4,3.6,35.7,5.1,34z"/>
			<path class="st7" d="M7.4,34c0,0.2-1.5,0.9-1.9,0.5c-0.1-0.1-0.2-0.3-0.4-0.5c-1.6,1.7-2,4.5-1.1,6.3C5.4,43,5.9,46,5.9,49
				c0.4,0,0.8-0.1,1.1-0.4c0.2-0.2,0.3-0.5,0.4-0.8c0.4-1.3,0.7-2.6,0.8-3.9c0.2-1.2,0.1-2.4,0.4-3.6C9,38.1,9.2,32.6,7.4,34z"/>
			<path class="st6" d="M7.5,46.6l0.3-1.2C7.7,45.8,7.6,46.2,7.5,46.6z"/>
			<path class="st6" d="M7.1,47.4C6.8,47,6,47,5.8,47.1c-0.2,0.1-1.6-0.7-2.1-1.1c0,0,0,0.4,0,0.4c0,0.1,0,0.3,0,0.4
				c0,0.3,0,0.6,0,0.9c0,0.6,0,1.1,0,1.7c0,1.1,0.1,2.2,0.2,3.3c0.1,1.1,0.3,2.2,0.6,3.3c0.1,0.4,0.2,0.8,0.3,1.3
				c0.1,0.3,0.2,0.7,0.5,0.9c0.2,0.1,0.3,0.1,0.5,0.2c0.2,0,0.4,0,0.5,0c0.2,0,0.4-0.1,0.5-0.3C7,58,7.1,57.8,7.2,57.6
				c0.1-0.4,0.1-0.8,0.1-1.2c0-1.9-0.1-3.7-0.1-5.6c0-1.4,0.1-2.9,0.3-4.3L7.1,47.4z"/>
			<path class="st7" d="M7.5,46.6l-0.4,0.8c-0.1-0.1-0.2-0.2-0.3-0.3c-0.3-0.2-0.9-0.1-1,0c0.4,3.8,0.1,7.6,0.2,11.4
				c0.1,0,0.2,0,0.3,0c0.2,0,0.4-0.1,0.5-0.3C7,58,7.1,57.8,7.2,57.6c0.1-0.4,0.1-0.8,0.1-1.2c0-1.9-0.1-3.7-0.1-5.6
				C7.2,49.4,7.3,48,7.5,46.6z"/>
			<path class="st8" d="M8.3,34.9c0.2-0.1,1-0.5,1-0.8c0-0.2,0.4-0.3,0.5-0.3c0.2,0,0.4,0.1,0.6,0.2c0.4,0.3,0.7,0.7,0.9,1.2
				c0.2,0.6,0.3,1.3,0.3,2c0.1,2.1,0.1,4.1-0.2,6.2c-0.1,1-0.3,2.1-0.5,3.1c-0.1,0.5-0.2,1-0.3,1.5c-0.1,0.5-0.2,0.6-0.6,0.9
				c-0.9,0.6-2.5,0.5-3.1-0.5c-0.7-1.1-0.4-2.7-0.6-3.9c-0.3-1.8-1.5-3-2-4.7C4,38.7,4,37.6,4.2,36.3c0.1-0.6,0.3-2,0.9-2.3
				c0.2-0.1,1.2-0.3,2.1,0.5C7.7,35,7.7,35.2,8.3,34.9z"/>
			<g>
				<g>
					<g>
						<g>
							<g>
								<g>
									<path class="st9" d="M2.3,30.1c0-0.3-0.1-0.6-0.1-0.9c-0.3-1.5-0.7-2.9-0.9-4.4c-0.1-1.2-0.2-2.6,0.7-3.5
										c0.1-0.1,0.3-0.3,0.5-0.4c1.8-1,3.5,0.2,5.1,0.8c1.1,0.4,2.1,0.9,3.1,1.5c0.3,0.2,0.7,0.4,0.9,0.7c0.2,0.4,0.4,0.7,0.4,1.2
										c0,0.5-0.1,1-0.1,1.5c-0.5,2.8-0.7,5.7-0.3,8.6c0.1,1.2,0.3,4.6,0.3,4.6c-0.4,0.2-0.7,0.3-2.7,0.4c-4.1,0.1-6.4-1-6.6-1.2
										c-0.2-0.2-0.2-0.7-0.2-1c0-0.9,0-1.8,0-2.7C2.5,33.6,2.5,31.8,2.3,30.1z"/>
								</g>
							</g>
						</g>
					</g>
				</g>
			</g>
			<g>
				<g>
					<g>
						<g>
							<g>
								<path class="st0" d="M12,25.2c0-0.4-0.2-0.8-0.4-1.2c-0.2-0.3-0.6-0.5-0.9-0.7c-0.2-0.1-0.4-0.3-0.6-0.4
									c-1.3,1.1-3.1,2.4-2.2,4c2.4,4.2,2.9,8.7,3,13.2c0.5-0.1,0.6-0.2,0.9-0.3c0,0-0.1-3.4-0.3-4.6c-0.3-2.9-0.1-5.8,0.3-8.6
									C11.9,26.2,12,25.7,12,25.2z"/>
							</g>
						</g>
					</g>
				</g>
			</g>
			<g>
				<g>
					<g>
						<g>
							<g>
								<path class="st0" d="M8.4,22.1c-0.3-0.1-0.6-0.3-0.9-0.3c-1.2-0.4-2.3-1.1-3.5-1.2c-0.6,0.9-0.1,1.9,0.7,2.3
									c1.1,0.5,2.5,0.5,3.5-0.2C8.5,22.5,8.6,22.3,8.4,22.1z"/>
							</g>
						</g>
					</g>
				</g>
			</g>
			<path class="st8" d="M10.6,49c-0.1,0.9-0.1,1.8-0.2,2.7c0,0.7-0.1,1.4-0.1,2.1c0,0.5-0.1,1.1-0.1,1.6c-0.1,3,0.2,3.7-1.2,4.1
				c-0.3,0.1-0.7,0.1-1,0c-0.9-0.2-1.1-1-1.2-2c-0.1-0.6-0.1-1.2-0.1-1.8c0-0.5,0-1,0-1.4c0-0.7,0-1.3,0-2c0-0.9,0-1.7,0-2.6
				c0-1.1-0.1-2.2-0.1-3.3c0-0.2,0.1-0.3,0.2-0.4c0.2-0.1,3.5,1.1,3.8,1.5C10.6,47.5,10.7,47.9,10.6,49z"/>
			<path class="st9" d="M11.3,23.6c-0.6-0.4-1.3-0.7-2-0.4c-0.3,0.1-0.5,0.4-0.7,0.6c-0.5,0.6-0.8,1.4-0.8,2.2c0,0.2,0,0.3,0.1,0.5
				c0.2,0.5,0.7,0.7,1.2,0.9c0.6,0.3,1.1,0.6,1.6,0.9c1.1,0.6,2.1,1.3,3.3,1.7c0.7,0.3,1.4,0.5,2.1,0.2c0.4-0.2,0.8-0.6,0.9-1.1
				c0.2-1.2-0.6-1.4-0.8-1.5C12.5,24.7,11.2,23.6,11.3,23.6z"/>
			<path class="st9" d="M20.1,22.9c0.2,0.1,0.6,0.4,0.6,0.7c0,0.2-0.3,0.6-0.4,0.8c-0.3,0.6-0.7,1.3-1,1.9c-0.2,0.3-0.3,0.6-0.5,0.8
				c-0.5,0.8-1,1.6-1.7,2.3c-0.2,0.3-0.6,0.7-1,0.8c-0.4,0.1-0.7-0.1-1-0.3c-0.5-0.4-0.9-1.1-0.8-1.8c0.1-0.7,0.6-1.2,1-1.7
				c1-1.1,2-2.2,3.1-3.2c0.2-0.2,0.4-0.4,0.6-0.5C19.4,22.6,19.8,22.7,20.1,22.9z"/>
			<path class="st3" d="M8,20.3c0.1-0.4,0.4-0.3,0.2-0.7c-0.1-0.3-0.4-0.6-0.6-0.9c-0.3-0.2-0.7-0.4-1-0.3c-0.1,0-0.2,0.1-0.3,0.1
				c-0.3,0-0.7-0.1-1,0c-0.3,0-0.7,0.1-0.7,0.5c0,0.5,0,1-0.1,1.5c-0.1,0.3-0.2,0.5-0.2,0.8c0,0.6,0.4,1.1,0.9,1.3
				c0.6,0.3,1.3,0.3,2,0.2c0.3,0,0.8-0.1,1-0.4c0.1-0.2,0.1-0.6,0.1-0.8C8,21.1,8,20.7,8,20.3z"/>
			<g>
				<g>
					<g class="st10">
						<g class="st10">
							<defs>
								<path id="SVGID_1_" class="st10" d="M7.3,13.7l-1.4,0.8c0.1-0.1,0.2-0.1,0.4,0l1.4-0.8C7.5,13.7,7.4,13.6,7.3,13.7z"/>
							</defs>
							<clipPath id="SVGID_2_">
								<use xlink:href="#SVGID_1_"  style="overflow:visible;"/>
							</clipPath>
							<g class="st11">
								<path class="st12" d="M6.2,14.6l1.4-0.8c-0.2-0.1-0.3-0.1-0.4,0l-1.4,0.8C5.9,14.5,6.1,14.5,6.2,14.6L6.2,14.6z"/>
							</g>
						</g>
					</g>
				</g>
				<g>
					<g>
						<path class="st3" d="M9.5,14.7c0.2,0.3,0.4,0.5,0.4,0.9c0.1,0.7-0.2,1.5,0,2.3c0.2,0.7-0.2,2.3-1.6,2.8
							c-0.7,0.2-2.1,0-2.6-0.3c-0.6-0.3-1-0.9-1.4-1.5C1.4,14.2,7.5,12.2,9.5,14.7z"/>
					</g>
				</g>
				<path class="st13" d="M9.1,16.2l1.4-0.8c0.3,0.2,0.5,0.6,0.5,0.9c0,0.2,0,0.4,0,0.5c0,0.1,0,0.3,0,0.4c0,0.2-0.1,0.3-0.2,0.4
					c-0.1,0.1-0.2,0.2-0.4,0.3c0,0-0.1,0.1-0.1,0.1c0,0-0.1,0-0.2,0.1c-0.1,0-0.2,0-0.3,0c-0.1,0-0.2-0.1-0.2-0.2c0-0.1,0-0.2,0-0.3
					c0-0.2,0-0.3,0-0.5C9.6,16.8,9.4,16.3,9.1,16.2z"/>
				<g>
					<polygon class="st14" points="9.1,16.2 10.5,15.3 7.5,13.6 6.1,14.4 					"/>
				</g>
				<path class="st15" d="M3,16.8c0,0.1,0,0.3,0.1,0.4c0,0.1,0,0.2,0.1,0.3c0,0.1,0.1,0.2,0.1,0.3c0.1,0.3,0.3,0.6,0.5,0.9
					c0.3,0.4,0.6,0.8,1,1c0.2,0.1,0.4,0.1,0.6,0.2C6,19.9,6.8,20,7.2,19.5c0.2-0.2,0.3-0.5,0.3-0.8c0-0.3,0-0.5,0.1-0.8
					c0-0.1,0-0.1,0.1-0.2c0-0.1,0.1-0.2,0.1-0.3c0.1-0.2,0.2-0.3,0.4-0.3C8.5,17,8.8,17.2,9.1,17c0.1-0.1,0.2-0.2,0.3-0.4
					c0.1-0.1,0.1-0.3,0.2-0.5c0.1-0.2,0.2-0.4,0.3-0.6c0.1-0.1,0.1-0.2,0.2-0.3c0.1-0.1,0.2-0.3,0.2-0.4c0-0.7-0.5-1.4-1-1.8
					c-0.3-0.2-0.5-0.4-0.9-0.6c-0.3-0.1-0.6-0.2-0.9-0.2c-0.9-0.1-1.9-0.1-2.6,0.3c-0.2,0.1-0.4,0.3-0.5,0.5c0,0,0,0.1-0.1,0.1
					c0,0.1-0.1,0.1-0.2,0.1c-0.2,0.1-0.4,0.2-0.5,0.4C2.8,14.5,2.9,15.8,3,16.8z"/>
				<path class="st16" d="M3.1,17.2c0,0.1,0,0.2,0.1,0.3c0,0.1,0.1,0.2,0.1,0.3c1.5,0.3,3,0.4,4.4,0c0.6-0.1,1.2-0.3,1.7-0.6
					c0.2-0.1,0.4-0.2,0.5-0.3c0.1-0.1,0.2-0.4,0.2-0.5C10,16,9.8,16,9.5,16.2c-0.4,0.2-1,0.5-2,0.8C6.8,17.2,4.8,17.3,3.1,17.2z"/>
				<path class="st3" d="M7.9,16.8c-0.6,0-0.7,0.7-0.3,1.2c0.1,0.2,0.3,0.3,0.5,0.4c1,0.9,1.3,0,1-0.3C8.2,17.4,8.6,16.9,7.9,16.8z"
					/>
				<path class="st17" d="M8,17.9c-0.1-0.1-0.7-0.5-0.3-0.7c0.1-0.1,0.3,0,0.3,0.2c0,0.1,0,0.1,0,0.2c0,0,0,0.1,0,0.1
					c0.1,0.1,0.3,0.2,0.2,0.3C8.3,18.1,8.1,17.9,8,17.9z"/>
			</g>
		</g>
	</g>
</g>
</svg>
