<?xml version="1.0" encoding="utf-8"?>
<!-- Generator: Adobe Illustrator 19.0.0, SVG Export Plug-In . SVG Version: 6.00 Build 0)  -->
<svg version="1.1" id="Layer_2" xmlns="http://www.w3.org/2000/svg" xmlns:xlink="http://www.w3.org/1999/xlink" x="0px" y="0px"
	 viewBox="0 0 94 96.5" style="enable-background:new 0 0 94 96.5;" xml:space="preserve">
<style type="text/css">
	.st0{fill:#6A7B9B;}
	.st1{fill:#8FA4BC;}
	.st2{fill:#28292B;}
	.st3{fill:#EAC6B5;}
	.st4{fill:#04A8A3;}
	.st5{fill:#007C79;}
	.st6{fill:#DBAB9C;}
	.st7{fill:#5E2014;}
	.st8{fill:#300901;}
	.st9{fill:#1E1E1E;}
</style>
<g>
	<g>
		<polygon class="st0" points="66.1,22.7 73.5,19.3 79.5,25.4 77.3,27.3 70.4,26.4 66.5,27.4 		"/>
		<path class="st0" d="M32.1,24.5c-1.1,0-7.1-1.6-7.1-1.6l-9.1,5.4l2.7,3.7l7.5-3.9l7.1-0.1L32.1,24.5z"/>
		<g>
			<path class="st0" d="M51.2,40c0,0.6-0.5,1.1-1.1,1.1h-3.5c-0.6,0-1.1-0.5-1.1-1.1v-7.6c0-0.6,0.5-1.1,1.1-1.1h3.5
				c0.6,0,1.1,0.5,1.1,1.1V40z"/>
			<g>
				<g>
					<g>
						<polygon class="st0" points="21.3,78.5 31.1,69.2 65,69.2 75.8,78.6 64.9,85.4 25.2,85.4 						"/>
						<path class="st1" d="M75.8,92.7c0,0.8-5.8,2.8-7.5,2.8H28.4c-2.4,0-6.3-1.9-7.5-2.8v-14c0.4-0.4,5.1,1,7.5,1h39.9
							c2,0,7.5-1.4,7.5-1V92.7z"/>
						<polygon class="st1" points="27.2,79.5 34.5,69.2 62.6,69.2 68.4,79.6 						"/>
					</g>
					<polygon class="st0" points="31.1,69.2 33.5,70.5 63.4,70.5 65,69.2 60.3,66.4 35.8,66.4 					"/>
				</g>
				<g>
					<polygon class="st1" points="58.9,68.7 37.8,68.7 40.1,41.9 56.7,41.9 					"/>
					<polygon class="st0" points="42.3,40.1 40.1,41.9 56.7,41.9 54.7,40.1 					"/>
				</g>
			</g>
		</g>
		<g>
			<path class="st0" d="M67.5,29.7c0,0.6-0.6,1.1-1.3,1.1H31.3c-0.7,0-1.3-0.5-1.3-1.1v-8.4c0-0.6,0.6-1.1,1.3-1.1h34.9
				c0.7,0,1.3,0.5,1.3,1.1V29.7z"/>
			<path d="M64.9,26.1c0,0.5-0.5,1-1.1,1H33.8c-0.6,0-1.1-0.4-1.1-1v-7.8c0-0.5,0.5-1,1.1-1h29.9c0.6,0,1.1,0.4,1.1,1V26.1z"/>
		</g>
		<g>
			<path class="st2" d="M58.3,36.5c0,0.2,0,0.4,0,0.6c0.4,5.8-5.4,10.3-11.1,10.3c-5.7,0-10.2-3.9-9.5-10.3c0.1-1.2,0.3-2.4,0.7-3.4
				c-1.5,1.8-2.5,4.1-2.5,6.7c0,6,5.2,10.8,11.6,10.8c6.4,0,11.6-4.8,11.6-10.8C59,39,58.8,37.7,58.3,36.5z"/>
			<path class="st2" d="M47.5,27.4c-7.8,0-14.1,5.3-14.1,11.9s6.3,11.9,14.1,11.9s14.1-5.3,14.1-11.9S55.3,27.4,47.5,27.4z
				 M47.5,49.1c-5.7,0-10.4-3.9-10.4-8.7c0-4.8,4.6-8.7,10.4-8.7c5.7,0,10.4,3.9,10.4,8.7C57.8,45.2,53.2,49.1,47.5,49.1z"/>
			<path d="M47.8,25c-9.1,0-15.6,6.2-15.6,13.9c0,7.7,6.5,13.9,15.6,13.9c9.1,0,15.7-6,15.7-13.6C63.4,31.5,56.9,25,47.8,25z
				 M47.8,51c-7,0-12.8-4.8-12.8-10.7s5.7-10.7,12.8-10.7c7,0,12.8,4.8,12.8,10.7S54.8,51,47.8,51z"/>
			<path d="M47.8,25.8c-9.1,0-15,5.3-15,13c0,7.7,5.8,13.4,14.9,13.4c9.1,0,14.9-5.7,14.9-13.4C62.7,31.1,56.9,25.8,47.8,25.8z
				 M47.8,50.3c-7,0-12.8-4.8-12.8-10.7c0-5.9,5.7-10.7,12.8-10.7c7,0,12.8,4.8,12.8,10.7C60.5,45.5,54.8,50.3,47.8,50.3z"/>
			<g>
				<ellipse cx="47.5" cy="40.2" rx="2.4" ry="2.1"/>
				<path d="M47.5,38.2c1.3-2.5-0.5-5.2-1.2-5.7c1.7-0.7,6.5-1,7.7-0.1c1.2,0.9-3.2,6.7-4.6,7.5C47.9,40.7,47.5,38.2,47.5,38.2z"/>
				<path d="M46.4,38.9c0-1.3-2.2-6.8-3.6-6.8c-1.4,0-5.8,3.8-5.8,6c0,1.2,4.2-1.2,8.8,2.6C46.6,40.6,46.4,38.9,46.4,38.9z"/>
				<path d="M45.9,40.8c-0.8-0.5-6.8-0.5-8.2,2.9c0.4,2,4,4.8,6.1,5.1c0,0-0.3-6.4,3.2-6.9C50.3,41.3,45.9,40.8,45.9,40.8z"/>
				<path d="M47.3,41.4c-0.7,0.6-2.4,6,0.9,7.9c3.4,0.3,7.5-2.2,8.2-4c0,0-7.4-1.3-7.3-4.4C49.3,37.8,47.3,41.4,47.3,41.4z"/>
				<path d="M49.5,41.3c0.5,0.8,6,3.3,8.8,0.7c1-2.9-0.1-6.1-1.9-7c0,0-3.7,5.3-7.1,4.6C46,38.9,49.5,41.3,49.5,41.3z"/>
			</g>
			<g>
				<path class="st2" d="M36.7,42.5v-4.4c-0.1,0.5-0.2,0.9-0.3,1.4v1.6C36.4,41.6,36.5,42.1,36.7,42.5z"/>
				<path class="st2" d="M39.9,47.3V33.4c-0.1,0.1-0.2,0.1-0.3,0.2v13.5C39.7,47.1,39.8,47.2,39.9,47.3z"/>
				<path class="st2" d="M39.1,46.6V34.1c-0.1,0.1-0.2,0.2-0.3,0.3v11.9C38.9,46.4,39,46.5,39.1,46.6z"/>
				<path class="st2" d="M40.7,47.9V32.8c-0.1,0.1-0.2,0.1-0.3,0.2v14.7C40.5,47.8,40.6,47.8,40.7,47.9z"/>
				<path class="st2" d="M38.3,45.7V35c-0.1,0.1-0.2,0.3-0.3,0.4v10C38.1,45.4,38.2,45.6,38.3,45.7z"/>
				<path class="st2" d="M37.5,44.5v-8.3c-0.1,0.2-0.2,0.3-0.3,0.5V44C37.3,44.1,37.4,44.3,37.5,44.5z"/>
				<path class="st2" d="M47.8,49.9c0.1,0,0.1,0,0.2,0V30.7c-0.1,0-0.1,0-0.2,0c0,0-0.1,0-0.1,0L47.8,49.9
					C47.7,49.9,47.8,49.9,47.8,49.9z"/>
				<path class="st2" d="M41.5,48.4V32.3c-0.1,0.1-0.2,0.1-0.3,0.2v15.8C41.3,48.3,41.4,48.3,41.5,48.4z"/>
				<path class="st2" d="M54.5,48.1V32.5c-0.1-0.1-0.2-0.1-0.3-0.2v16C54.3,48.3,54.4,48.2,54.5,48.1z"/>
				<path class="st2" d="M52.8,49V31.7c-0.1,0-0.2-0.1-0.3-0.1v17.5C52.7,49,52.8,49,52.8,49z"/>
				<path class="st2" d="M55.3,47.6V33c-0.1-0.1-0.2-0.1-0.3-0.2v15C55.1,47.7,55.2,47.7,55.3,47.6z"/>
				<path class="st2" d="M52,49.3V31.4c-0.1,0-0.2-0.1-0.3-0.1v18C51.9,49.3,51.9,49.3,52,49.3z"/>
				<path class="st2" d="M57.7,45.2v-9.7c-0.1-0.1-0.2-0.3-0.3-0.4v10.4C57.5,45.4,57.6,45.3,57.7,45.2z"/>
				<path class="st2" d="M59.2,40.3c0-0.6-0.1-1.2-0.2-1.8v3.6C59.2,41.5,59.2,40.9,59.2,40.3z"/>
				<path class="st2" d="M58.5,43.7v-6.8c-0.1-0.2-0.2-0.4-0.3-0.6v7.9C58.3,44.1,58.4,43.9,58.5,43.7z"/>
				<path class="st2" d="M56.1,47V33.7c-0.1-0.1-0.2-0.2-0.3-0.2v13.8C55.9,47.1,56,47,56.1,47z"/>
				<path class="st2" d="M51.2,49.5V31.1c-0.1,0-0.2,0-0.3-0.1v18.5C51,49.5,51.1,49.5,51.2,49.5z"/>
				<path class="st2" d="M56.9,46.2V34.5c-0.1-0.1-0.2-0.2-0.3-0.3v12.3C56.7,46.4,56.8,46.3,56.9,46.2z"/>
				<path class="st2" d="M53.6,48.6V32.1c-0.1,0-0.2-0.1-0.3-0.1v16.8C53.5,48.7,53.6,48.6,53.6,48.6z"/>
				<path class="st2" d="M50.4,49.7V31c-0.1,0-0.2,0-0.3-0.1v18.8C50.2,49.7,50.3,49.7,50.4,49.7z"/>
				<path class="st2" d="M43.9,49.4V31.3c-0.1,0-0.2,0.1-0.3,0.1v17.9C43.8,49.3,43.9,49.3,43.9,49.4z"/>
				<path class="st2" d="M43.1,49.1V31.5c-0.1,0-0.2,0.1-0.3,0.1V49C43,49,43,49.1,43.1,49.1z"/>
				<path class="st2" d="M45.6,49.8V30.9c-0.1,0-0.2,0-0.3,0.1v18.8C45.4,49.7,45.5,49.7,45.6,49.8z"/>
				<path class="st2" d="M42.3,48.8V31.9c-0.1,0-0.2,0.1-0.3,0.1v16.6C42.1,48.7,42.2,48.7,42.3,48.8z"/>
				<path class="st2" d="M44.8,49.6V31c-0.1,0-0.2,0-0.3,0.1v18.4C44.6,49.6,44.7,49.6,44.8,49.6z"/>
				<path class="st2" d="M48.8,49.9V30.7c-0.1,0-0.2,0-0.3,0v19.2C48.6,49.9,48.7,49.9,48.8,49.9z"/>
				<path class="st2" d="M49.6,49.8v-19c-0.1,0-0.2,0-0.3,0v19.1C49.4,49.8,49.5,49.8,49.6,49.8z"/>
				<path class="st2" d="M47.2,49.9V30.7c-0.1,0-0.2,0-0.3,0v19.2C47,49.9,47.1,49.9,47.2,49.9z"/>
				<path class="st2" d="M46.4,49.9V30.8c-0.1,0-0.2,0-0.3,0v19C46.2,49.8,46.3,49.9,46.4,49.9z"/>
			</g>
			<g>
				<path class="st2" d="M47.7,25.6c-2.3,0-4.2,0.6-6,1.2c0.5,1,0.7,1.8,0.9,2.7c1.5-0.6,3.2-0.9,5-0.9c5,0,9.1,2.1,11.6,5.6
					c0.5-0.8,1-1.4,1.7-2.1C58.1,28.3,54,25.6,47.7,25.6z"/>
			</g>
		</g>
		<g>
			<g>
				<path class="st0" d="M24.5,29.7c0.7,0.5,0.8,2.1,0.1,2.3L6.7,37c-0.6,0.2-1.5-0.2-1.9-0.8l-3.3-5.3c-0.3-0.4-0.4-1.8,0.1-2
					l14.9-3.2c0.5-0.1,1.3,0,1.8,0.4L24.5,29.7z"/>
				<path class="st1" d="M24.4,29.5c0.7,0.5,0.7,1.1,0.1,1.3l-17.9,5C5.9,36,5,35.7,4.6,35.1l-3.3-5.3c-0.3-0.4-0.1-0.9,0.4-1
					l14.5-4.1c0.5-0.1,1.3,0,1.8,0.4L24.4,29.5z"/>
			</g>
			<polygon points="8.2,27.3 8.1,29.1 11.8,29.7 9.9,27.5 			"/>
			<path class="st3" d="M16.2,27.6c0,0,0.4,1.9-0.9,2.8c-1.3,0.8-1.5,2.5-1.9,1.6c-0.2-0.4,1-2,0.2-2.1c-0.9-0.1-2.9,0.3-3.8,1.3
				c-1,1.1-1.1,1.5-1.3,1.4c-0.5-0.3-0.1-0.7,0.5-1.7c0.1-0.2,1.2-1,1.2-1s-0.8,0.3-1.5,0.9c-0.7,0.7-1.2,1.7-1.4,1.3
				c-0.3-0.5,0.5-1.5,0.9-2c0.2-0.2,1.4-1.1,1.4-1.1S9,29.4,8.3,30c-0.7,0.5-1.5,1.4-1.6,1c-0.1-0.4,0.7-1.4,1.3-1.8
				c0.6-0.4,1.7-1.1,1.7-1.1S7.3,30.2,7,29.8c-0.3-0.4,1-1.5,1.7-1.9c0.8-0.4,1.1-0.6,2.3-0.9c1.4-0.4,1.6-0.4,2.4-0.8
				C14.1,25.9,16.2,27.6,16.2,27.6z"/>
			<polygon points="10.6,30.9 10.4,33.1 13.2,32.1 13.7,29.8 12.1,29 			"/>
			<polygon class="st2" points="8.2,27.3 10.6,31.1 13.7,29.8 10.4,26.5 			"/>
		</g>
		<g>
			<g>
				<path class="st0" d="M71,28.2c-0.4,0.5,0.1,2.4,0.7,2.4l18.5-1.2c0.7,0,1.3-0.5,1.5-1l1.2-4.1c0.1-0.3-0.3-2.1-0.8-2.1l-15,1.6
					c-0.5,0-1.2,0.3-1.5,0.7L71,28.2z"/>
				<path class="st1" d="M71,28.1c-0.4,0.5-0.3,0.9,0.4,0.8l18.5-1.2c0.7,0,1.3-0.5,1.5-1l1.2-4.1c0.1-0.3-0.3-0.6-0.8-0.5l-15,1
					c-0.5,0-1.2,0.3-1.5,0.7L71,28.1z"/>
			</g>
			<polygon points="85.8,21.6 86.3,23 82.8,25.1 83.5,22.2 			"/>
			<path class="st3" d="M77.9,24.9c0,0,0.6,1.7,2.1,1.9c1.5,0.2,2.1,0.8,2.1,0.1c0-0.3-1.7-1-0.9-1.3c0.8-0.2,2.7-0.3,3.9,0.1
				c1.3,0.4,1.7,0.5,1.9,0.4c0.3-0.3-0.2-0.5-1.1-0.9c-0.2-0.1-1.2-0.6-1.2-0.6s0.6,0.2,1.5,0.4c0.9,0.3,1.8,0.8,1.8,0.5
				c0.1-0.4-1.2-1.1-1.7-1.3c-0.3-0.1-1.6-0.4-1.6-0.4s0.6,0.2,1.6,0.4c0.8,0.1,2,0.7,1.9,0.4c-0.1-0.3-1.1-1-1.8-1.1
				c-0.7-0.1-2-0.3-2-0.3s3,1.1,3.1,0.7c0.1-0.3-1.5-1.1-2.3-1.1c-0.9-0.1-1.3-0.1-2.4,0C81.1,23,80.9,23,80.1,23
				C79.2,22.9,77.9,24.9,77.9,24.9z"/>
			<polygon points="84.4,25.4 85.1,26.8 82.1,27 81.1,25.7 82.3,24.8 			"/>
			<polygon class="st2" points="85.8,21.5 84.4,25.5 81.1,25.7 83.1,21.7 			"/>
		</g>
		<path class="st4" d="M46.6,17.5c0.8,0.4,2.2-5.4,3-7.4c0.6-1.6-2.7-2.5-1.6-2.5l5.6,0.2c1.6,0.2,3.3,0,5.8,1.9
			c0,0,12.3,3.2,13.3,3.5c1.3,0.4,8.9,9.1,7.9,9.9c-1.1,0.8-1.2,3.3-1.9,4.4c-4.9-2-8.1-8-8.9-8l-1.3-0.6c-2.9-0.2-6.3,1.3-7.7,2.3
			c-1.7,1.3-2.6,2.2-4.3,2.2c-1.7,0-10.8,0.8-11.4,0.1C44.2,22.9,45.7,17.1,46.6,17.5z"/>
		<path class="st5" d="M50.3,17.4c-0.8,0.4-3.9-5.1-4.7-7c-0.6-1.6-1.9-1.3-3-1.4l1-1c-2.1,0.7-7.5,1-10.1,2.9
			c0,0-11.2,4.7-12.3,4.7c-1.1,0-9.4,9.2-8.3,10c1.1,0.8,3.6,2.3,4.3,3.5c4-4.5,6.5-7.3,7.3-7.3c0,0,8.4-0.5,9.8,0.6
			c1.7,1.3,2.1,1.9,3.7,1.9c1.7,0,13-0.2,15.8-0.8C54.7,23.2,51.1,17,50.3,17.4z"/>
		<path class="st6" d="M49.7,10.4c0.5,0.7,2.3,4.6,2.8,4.6c-0.1,1-1.9,3.5-3.7,4.3c-1.9,0.8-4.3,0.6-4.8,0.1
			c-0.5-0.5,0.1-2.4,0.1-2.4L49.7,10.4z"/>
		<path d="M43.3,13.3L43.3,13.3L43.3,13.3L43.3,13.3C43.3,13.3,43.3,13.3,43.3,13.3L43.3,13.3z"/>
		<g>
			<path class="st3" d="M48.4,7c-1.6-2.9-3.5-5-7.6-2.7c-1.3,0.7-2.1,1.4-2.6,2.2c-1.6,1.7,5,13.3,9.3,12.5c0.1,0,0.9-0.5,1-0.6
				c2.8-2,2.5-4.1,1.8-7.1c0.4-0.6,0.4-1.5,0-2.4C49.6,7.6,49.2,6.6,48.4,7z"/>
			<g>
				<path class="st6" d="M39.2,13.5c0,0,0.9,0.5,1.2,1.3c1,2.6,3.9,5.3,6.7,4.2c0,0,0,0,0.1,0C43.3,18,40,14.1,38,7.4l0.2-1.1
					c0,0,0,0,0,0C36.5,8.1,38,11.2,39.2,13.5z"/>
			</g>
			<path class="st7" d="M48.5,1.2c-1.6-1.2-4.5-1.5-6.2-0.6c-1.7,0.9-2.2,3.3-2.2,3.3s0.9-0.1,2,0.1c-0.4,0.8-1,3.7-1,3.7
				c0.9-0.9,4.3-2.3,5-1.3c0.6,0.8,1.2,3,1.8,3.4c0.3,0.2,0.7-0.1,0.7-0.1s-0.4-1.1-0.1-2.3c1.1,4.6,2.6,6.2,2.6,6.2
				c0.9-1.3,0.2-1.6,0-3.3C51,8.7,51.7,3.5,48.5,1.2z"/>
			<path class="st8" d="M39.7,9.4c-1.1,1.2-2.7-0.8-3.2-0.2c-0.5,0.6-1-1.6-0.2-2c0,0-0.3-1.2,1.5-0.6c-0.9-0.6-2,0.2-1.9,0
				C36,6.3,36.5,3.7,38,3.4c-0.1-0.7-1.2,0.4-0.1-0.7C39,1.7,43-0.8,46.3,0.4c0.3,0.1-1.5,0.1-2.4,2.6c-0.2,0.7-0.1,1.7-0.1,3.2
				C43.8,7.6,39.7,9.4,39.7,9.4z"/>
			<path class="st3" d="M47.7,8.1c0.2-0.7,0.7-1.8,1.5-1c0.7,0.9,1.8,4.2,0.4,4C48.5,11,47.7,8.1,47.7,8.1z"/>
			<path class="st3" d="M40.2,12.2c0.5,1.7,0.8,4.1,0.9,4.3c0.5,0.9,1.4-0.3,2.1-0.8C43.8,15.4,40.2,12.2,40.2,12.2z"/>
			<g>
				<path d="M45.7,8.4c1.9-1.8,4,1.9,1.8,4.2L45.7,8.4z"/>
				<path class="st9" d="M46,8.9c1.4-1.3,2.9,1.4,1.3,3.1L46,8.9z"/>
			</g>
			<path d="M46.5,9.3c0.7-0.4,3.4-6.3,2.9-7.4c1.3,0.4,1.3,2.3,1.3,2.3s-1.1,4.4-3.2,6.4C47.2,11,46.5,9.3,46.5,9.3z"/>
			<path d="M41,6.6c-0.8-5.6,2.2-6.5,3.4-6.6L42,0.2c-1.1,0.5-3.2,0.6-3.5,6.2c-0.1,0.9,0.3,3.4,0.7,3.7c0.2,0.2,2.2-0.3,2.6-0.6
				C41.8,9.2,41.5,8.5,41,6.6z"/>
			<path d="M47,15.8c0.6-0.1,0.9-3.3,1-3.5c0-0.3-1.5-4.2-1.7-4.3c-0.2-0.1-1,2.2-1.2,2.5C44.8,10.8,47,15.8,47,15.8z"/>
			<path class="st9" d="M35.6,13.8l2-3.7c0,0,0.2,0.4,0.4,0.4c0.9,0.1,2.4,0.8,6-1.5c0.5-0.3,2-1.2,2.2-0.9l-0.8,2.7
				c1,0.9,1.8,4.5,1.6,5c-0.2,0.6-8.4,2.4-9.6,2.4c-1.2,0-2.1-3.3-2.1-3.3C35.4,14.5,35.4,14.2,35.6,13.8z"/>
			<path d="M39.5,11.9c0.1-0.9-0.2-3,0.2-3.1c0.4-0.2,1.1-0.5,1.1-0.5S41,9.9,42.1,11C42.2,11.1,39.5,11.9,39.5,11.9z"/>
			<g>
				<path d="M36,14.1c-0.3,0.7,1.1,3.9,1.5,4c0.7,0.1,7.8-1.3,8.9-2c0,0-1.3-4.7-1.8-4.7C38.6,14.2,36.2,13.5,36,14.1z"/>
			</g>
		</g>
	</g>
</g>
</svg>
