<?xml version="1.0" encoding="utf-8"?>
<!-- Generator: Adobe Illustrator 19.0.0, SVG Export Plug-In . SVG Version: 6.00 Build 0)  -->
<svg version="1.1" id="Layer_2" xmlns="http://www.w3.org/2000/svg" xmlns:xlink="http://www.w3.org/1999/xlink" x="0px" y="0px"
	 viewBox="0 0 117.3 111" style="enable-background:new 0 0 117.3 111;" xml:space="preserve">
<style type="text/css">
	.st0{fill:#28292B;}
	.st1{fill:#D3A590;}
	.st2{fill:#8FA4BC;}
	.st3{fill:#300901;}
	.st4{fill:#6A7B9B;}
	.st5{fill:#EAC6B5;}
	.st6{fill:#B7694E;}
	.st7{fill:#657D96;}
	.st8{fill:#141B54;}
	.st9{fill:#234099;}
	.st10{fill:#0074DD;}
</style>
<g>
	<g>
		<g>
			<path class="st0" d="M64.3,27.1l3.5-1c0,0,7,21.8,6.9,23.3c-0.1,1.5-3.7,1.5-3.7,1.5L64.3,27.1z"/>
			<path d="M64.7,27C63.8,26,62,33.6,62,33.6s5.7,17.2,6.8,17.5c1.2,0.3,3,0.1,3.1-0.5C72.2,49.3,66.4,29,64.7,27z"/>
		</g>
		<path d="M66.2,12c-0.3,1.5-2.4,12.6-2.5,13.2c-0.1,0.6,3.9,2.8,3.9,2.8l0.9-0.6c0,0-3.9-1.9-3.9-2.7c0-0.7,2.6-12.1,2.6-12.1
			L66.2,12z"/>
		<path class="st1" d="M99,26.9c0.2-0.9,0-1.5,0.5-2.3c0.5-0.8,1-0.7,1.1-0.9c0.7-1,0.8-0.8,0.8-0.8s0.6,0,0,1.2
			c-0.3,0.5-0.5,0.6-0.5,0.9c0,0.2,1,1.5,0.8,2.1c-0.2,0.6-0.9,1.4-1.3,1.2C100,28.2,99,26.9,99,26.9z"/>
		<path class="st1" d="M92.7,29.2c-1.4-0.2-9.1-3-9.7-3.2C82.5,26,81.9,32,81.9,32s8.7,2.6,10,2.1C93.1,33.5,92.7,29.2,92.7,29.2z"
			/>
		<path class="st2" d="M78.8,23.9c3.4,0.7,9.8,3.6,11.4,4c-1.3,3.1-2.6,7.2-2.6,7.2s-8.9-4.3-9.1-6.9C78.2,25.6,78.8,23.9,78.8,23.9
			z"/>
		<path class="st1" d="M102.2,28.3c-0.5,0.4-2.5,1.8-3.2,2.2c-2.6,1.7-5,3-6.7,3.4c-1.8,0.4-2.8-1.4-2.7-1.9c0.1-0.5,1-3.1,1-3.1
			s5.2-1.9,8.8-3.1C100.4,25.5,102.2,28.3,102.2,28.3z"/>
		<g>
			<path d="M65,101.5c0,1.5-0.5,5.8,0.2,7.7c0.2,0.7,1.9,0.2,3.1,0.3c0.5,0.1,2-0.2,2.9,0.1c3,0.8,6.3-0.2,6.9-0.6
				c0.5-0.4,0.8-2.5-0.9-3.4c-1.3-0.8-5.3-0.6-5.8-1.5c-0.5-0.9-0.6-3.7-0.6-3.7L65,101.5z"/>
			<path d="M87.8,59c0,0-2.2,6.9-5.3,14.9c-0.8,2.2-4.7,13.2-6,14.4c-1.3,1.2-4.2,16.3-4.2,16.3s-3,2.5-8.4,3.8
				c-1.5,0.4,1.8-21.4,5.5-24.7c2.7-11.2,6.8-26.2,8.9-28.3C80.3,53.2,87.8,59,87.8,59z"/>
			<path class="st0" d="M85,73.5c-3.1,4.6-5.4,11.2-6.5,12.5c-1.2,1.3-1.2,1.2-1.9,2.9c-0.8,1.7-3.2,16-3.2,16s-0.8-0.1-3,0.7
				c-1.4,0.5,1.9-19.2,10.7-33.1C83.5,68.6,85,73.5,85,73.5z"/>
		</g>
		<g>
			<path d="M93.3,101.8c0,1.5,0.5,5.9,1.2,7.9c0.2,0.7,1.3,0.4,2.4,0.3c0.8-0.1,2.4-0.5,3.3-0.3c3,0.7,6.5-0.5,7-0.8
				c0.5-0.4,0.4-2.8-1.3-3.7c-1.3-0.7-5.6-0.2-6.1-1.1c-0.5-0.9-0.5-3.6-0.5-3.6L93.3,101.8z"/>
			<path d="M85,45.8c1.8,4.9,3.4,6.8,4.3,11.3c0,0,3.6,23.7,5.5,28c1.9,4.2,6.2,19.7,6.2,19.7s-5.4,4.1-7.3,4.1
				c-1.9,0-7.8-20.5-8.2-22c-2.7-10.4-4.9-21.1-8.7-24.7c-3.3-3.2-3.5-7-1.6-11.7C77,45.7,85,45.8,85,45.8z"/>
			<path class="st0" d="M88.3,47.4c0.7,3.4,1.3,7,1.5,8.6c0.3,1.6,4.3,17.4,5.7,22.5c0.3,1,0.2,4.7,0.6,5.9
				c2.1,7.5,6.3,19.7,6.3,19.7s-2.8,2.4-3.4,1.8c-0.6-0.6-6.2-12.7-7.4-22c-0.7-5.6-4.6-24.3-5.7-26.7c-1.1-2.4-2.4-8.1-1.6-9.4
				C84.9,46.6,88.3,47.4,88.3,47.4z"/>
		</g>
		<g>
			<path class="st1" d="M71.1,15.6c0.1,1.2-0.3,2.8-0.7,4.8c-0.8,3.9-0.9,4.1-0.9,4.1l6.4,1.4c0,0,0.9-5.7,2.1-6.9
				C79.2,17.8,71.1,15.6,71.1,15.6z"/>
			<path class="st1" d="M81.7,13.9c-0.4-0.5-1-2.3-1.2-2.7c0,0,0,0,0,0c0.4-1.2,0.4-3.2-0.8-4.8c-0.1-0.1-0.6,0.1-0.9-0.1
				C76.3,3.8,67.6,4.9,67.8,10c0.4,9.5,9.3,9.4,11.4,9.2c0.4,0,1.1-0.4,1.1-2.2c0.3-0.8,0.4-1.4,0.5-2.1c0.6-0.2,1-0.6,1-1
				C81.7,14,81.7,13.9,81.7,13.9z"/>
			<path class="st3" d="M68.7,6.4c0.8-0.9,1-2.5,3.9-2.5c2.5,0,5.5-0.3,6.9,1.6C80.8,7.2,82,7,82,7s0.5,1.1-0.9,1.8
				c-0.6,0.3-3.3-0.5-4,0.7c-0.6,1-1.7,1.7-1.7,1.7s-2.7,0.5-2.7,1.3c0,0.3-1.7,2.4-1.2,3.6c0.6,1.5-1.2,3-1.2,3s-1-2.4-2.5-5.8
				C66.1,9.2,67.6,7.6,68.7,6.4z"/>
			<path class="st1" d="M74.9,11.5c0-2.2-2-0.8-1.9-0.2c0,0.7-0.3,2.6,0.8,3C75,14.8,74.9,11.5,74.9,11.5z"/>
		</g>
		<path class="st4" d="M72.5,21.9c-1.9-0.7-2.8-0.4-2.8-0.4c-0.5,0.9-1.6,2.1-1.9,2.9c-1.4,4.3-0.3,7.5,3.1,13.3
			c1,1.7,1.5,4,1.8,6.2c0,0.3,0.8,0.7,0.8,1.1c0.1,1,0.1,1.8,0.1,2.6c0,0.3-0.4,1.3-0.4,1.6c0,1.7-0.8,2.8-0.7,2.8
			c6.7,1.1,17.1-0.9,17-1.4c-2.3-9.9-4.4-22.5-10.7-26.8C77.9,23.2,76.3,23.2,72.5,21.9z"/>
		<path class="st5" d="M85.7,26.6c-0.1-0.4,1.1-2.9,1.2-3.2c0.1-0.3,0.2-0.5,0.5,0.2c0.3,0.7-0.3,3.2-0.7,3.4
			C86.4,27.1,85.7,26.6,85.7,26.6z"/>
		<g>
			<path class="st0" d="M71.8,15c0.4-0.4,0.9-4.3,5.6-4.1c2.2,0.1-0.4-2.8-3-2.5c-2.6,0.3-4.6,2.8-4.1,4.9C71,15.4,71.8,15,71.8,15z
				"/>
			<g>
				<circle cx="74.5" cy="12.4" r="2.8"/>
				<circle class="st0" cx="74.5" cy="12.4" r="1.8"/>
			</g>
			<path d="M68.6,6.7c-0.6,1.5,0.2,2.2,0.1,2.7c-0.1,0.5,5.2-1.3,7.6-2.6l1.1,1.3l-0.7,1.6c0,0-4.3-1.8-5.5,2.5c0,1.2,1,2.7,1.6,2.9
				c-2.4,1.8-3.6,2-3.6,2s-2.9-0.4-3.1-4.4c-0.2-4,1.9-7.3,2.5-6.8C69,6.3,68.6,6.7,68.6,6.7z"/>
			<path class="st0" d="M75.9,9.4c0.6,0.3,1.6,1.2,2,4.3c0,0.2,0.5,0.7,0.9,0.7c0,0,5.4-0.9,5.5-1.4c0.1-0.4-0.1-4.7-0.7-5.4
				c-0.6-0.6-3.1-2.6-3.5-2.6c-0.4,0-1.9,0.4-1.7,1.4c0.2,1,0.1,1.6-0.8,2C76.8,8.9,75.9,9.4,75.9,9.4z"/>
			<path d="M75.4,7.5l1.4-2.2c0,0,0.4-1.6,2.3-1.1C79.6,4.6,80,4.9,80,4.9s-1.7,0.2-1.7,1c1.1,1,0.1,1.9,0.1,1.9l-2.1,1.1L75.4,7.5z
				"/>
			<path d="M83.8,8.2l-0.3-0.5l-0.9,0.5c0,0-0.7,0.2-1.1,0.1c-0.7-0.1-2.8-1.2-3.4-1.6c0,0-2.6,3.1-2.3,2.7c0.4-0.4,5.8-0.3,5.8-0.3
				l1.2-0.3L83.8,8.2z"/>
		</g>
		<g>
			<g>
				<path class="st0" d="M114.5,15.1c0,0.2-0.1,0.4-0.3,0.5l-26.3,4.7c-0.2,0-0.4-0.1-0.5-0.3l0,0c0-0.2,0.1-0.4,0.3-0.5l26.3-4.7
					C114.3,14.7,114.5,14.9,114.5,15.1L114.5,15.1z"/>
				<g>
					<path d="M89.1,33.2c-0.1,0.5,0,0.8-0.3,0.8l-2.8-0.6c-0.4,0-0.6-0.5-0.6-1l1.7-8.3c0.1-0.5,0.4-1,0.8-0.9l1.9,0.2
						c0.4,0,0.6,0.5,0.6,1L89.1,33.2z"/>
				</g>
				<path d="M91.6,23.5c-0.2,0.2-0.4,0.6-0.4,1.1c0,0.7-0.1,1.2-1.7,1.4c-0.9,0.1-1.3,0.2-1.5,0.2l0.1,0.5c0,0,0,0.1,1.8-0.2
					c1.9-0.3,1.9-1,1.9-1.7c0-0.8,0.2-1.1,0.6-1.4L91.6,23.5z"/>
				<path d="M115.4,17.8c0.1,0.5-0.6,1-1.1,1.1l-29.1,5.6c-0.6,0.1-1.3,0.3-1.4-0.2l0.8-2.6c0.3-0.7,0.3-1,0.9-1.1l28.6-5.1
					c0.6-0.1,0.9,0.2,1,0.7L115.4,17.8z"/>
				<path class="st0" d="M114.1,19.4c0.1,0.4-0.1,0.8-0.4,0.8l-29.4,5.3c-0.3,0.1-0.6-0.2-0.7-0.6l0,0c-0.1-0.4,0.1-0.8,0.4-0.8
					l29.4-5.3C113.7,18.7,114.1,19,114.1,19.4L114.1,19.4z"/>
				<g>
					<path class="st0" d="M114.7,16.9c0.1,0.6-0.2,1.2-0.8,1.3l-16.4,2.8c-0.6,0.1-1.1-0.3-1.2-0.9l0,0c-0.1-0.6,0.2-1.2,0.8-1.3
						l16.4-2.8C114.1,15.9,114.6,16.3,114.7,16.9L114.7,16.9z"/>
					<path d="M114.2,17.8c0-0.1-0.1-0.1-0.1-0.1l-16.9,2.9c-0.1,0-0.1,0.1-0.1,0.2l0,0c0,0.1,0.1,0.1,0.1,0.1l16.9-2.9
						C114.2,17.9,114.2,17.8,114.2,17.8L114.2,17.8z"/>
					<path d="M114,16.5c0-0.1-0.1-0.1-0.1-0.1L97,19.3c-0.1,0-0.1,0.1-0.1,0.2l0,0c0,0.1,0.1,0.1,0.1,0.1l16.9-2.9
						C114,16.7,114,16.6,114,16.5L114,16.5z"/>
					<path d="M114.4,17c0-0.1-0.1-0.1-0.1-0.1l-17.6,3c-0.1,0-0.1,0.1-0.1,0.2l0,0c0,0.1,0.1,0.1,0.1,0.1l17.6-3
						C114.4,17.2,114.5,17.1,114.4,17L114.4,17z"/>
				</g>
			</g>
			<path d="M104.9,21.6c-1,0.8-1.9,2.3-1.6,3.6c0.3,1.3,0.4,3.8,0.2,3.9c-0.6,0.4-3.3,1.8-3.3,0.7c0-3,0.6-7.5,1.1-7.7
				C101.8,22,104.9,21.6,104.9,21.6z"/>
			<path d="M92.9,23.8h-1c0.3,2.9,0.5,9.2-0.1,9.3c-0.6,0.1-2.9-0.5-4.5-0.8c0,0.7-0.5,1.2-0.4,1.3c0.6,0.2,5.7,1.1,6.5,1
				C94.1,34.5,92.9,23.8,92.9,23.8z"/>
		</g>
		<g>
			<path class="st5" d="M103.7,23.3c0.1,0.2,0.8,0.7,0.3,1c-0.3,0.2-2.3,0.7-2.5,0.2c-0.2-0.4,0-0.4,0.5-0.7
				C102.5,23.6,103.7,23.3,103.7,23.3z"/>
			<path class="st5" d="M104,24.3c0.2,0.1,0.7,0.9,0.3,1.1c-0.4,0.3-2.3,0.7-2.7,0.2c-0.3-0.5,0.1-0.7,0.7-1
				C103,24.4,104,24.3,104,24.3z"/>
			<path class="st5" d="M104.3,25.4c0.2,0.6,0.2,0.9-0.2,1.1c-0.4,0.2-1.8,0.5-2.1,0.1c-0.3-0.4,0.1-0.7,0.9-0.9
				C103.8,25.5,104.3,25.4,104.3,25.4z"/>
			<path class="st5" d="M104.1,26.5c0.1,0.2,0.3,0.5-0.1,0.8c-0.5,0.2-1.7,0.3-1.7,0c0-0.3,0.3-0.6,0.8-0.6
				C103.5,26.5,104.1,26.5,104.1,26.5z"/>
		</g>
		<path class="st1" d="M99.5,24.7c0,0,0.9-1.5,1.5-1.5c0.5,0,1.9-0.4,2.2-0.3c0.3,0.2-0.1,0.6-0.8,0.8c-0.8,0.3-1.6,0.7-2,1.3
			C100.1,25.4,99.5,24.7,99.5,24.7z"/>
		<path d="M66.2,26.3c0.7-1,2.4-3.6,4.5-3.6c2.1,0,6.2,3,8.3,4.9c1.8,1.7,3.1-0.2,3.1-0.2s4.6,5.7,6.6,15.8l0.6,2.5L73.6,48
			l-0.3-3.1c0,0,9.3-1.2,9.8-2.5c0.4-1.3-3.9-10.5-6.4-13.2c-2.5-2.7-4.7-4.8-6.6-4.3c-1.9,0.4-3.7,2.8-3.7,2.8L66.2,26.3z"/>
		<path class="st5" d="M91,25.3c0.2-0.2-0.2-0.6-0.3-0.7c-0.2,0-0.9,0.1-0.9,0.1s-1.2,0.5-2.1,0.7c-0.6,0.1-1.2-0.3-1.3-0.2
			c-0.2,0.2-0.9,1.5-1.2,2.4c-0.2,0.2-5.4,5-6.5,6c-2.3-1.7-4.4-5.6-5.7-5.9c-1.2-0.2-3.7,3.5-3.7,3.5s4.6,9.1,9.5,8.8
			c0.9-0.1,4.6-2.5,8.7-8.9c0.6-0.2,1.2-0.6,1.4-0.6c1.2-0.4,1.8-0.7,2-1.3c0.2-0.6-0.2-0.5-0.1-0.7c0.4-0.7-0.2-1.1-0.1-1.2
			c0.6-0.7-0.2-1.5-0.2-1.5c0,0,0,0,0-0.1C90.7,25.6,90.9,25.4,91,25.3z"/>
		<path class="st2" d="M67.9,25.2c1.6-1,4.3-0.6,5.6,0.9c1.4,1.5,4.3,5.6,5.2,6.3c-1,2.5-6.7,6.5-6.7,6.5s-3.7-4.8-5.1-7.7
			C64.8,26.5,67.9,25.2,67.9,25.2z"/>
	</g>
	<g>
		<g>
			<path d="M19.4,19.9l-0.4,1.7c-0.1,0.3,0.1,0.6,0.4,0.7l9.3,2.4c0.3,0.1,0.6-0.1,0.7-0.4l0.4-1.7c0.1-0.3-0.1-0.6-0.4-0.7L20,19.5
				C19.7,19.5,19.4,19.6,19.4,19.9z M19.9,20.7c0.1-0.2,0.3-0.4,0.6-0.3l8,2.1c0.2,0.1,0.4,0.3,0.3,0.6l-0.3,1.2
				c-0.1,0.2-0.3,0.4-0.6,0.3l-8-2.1c-0.2-0.1-0.4-0.3-0.3-0.6L19.9,20.7z"/>
			<path d="M26.8,23.7c-0.1,0.4,0.1,0.7,0.3,0.8l1,0.2c0.3,0.1,0.5-0.2,0.6-0.6l0.3-1.2c0.1-0.4-0.1-0.7-0.3-0.8l-1-0.2
				c-0.3-0.1-0.5,0.2-0.6,0.6L26.8,23.7z"/>
		</g>
		<path class="st6" d="M46.9,9.7c0.5-1,4.2-3.7,6.4-0.4c2.2,3.4-3,11.2,0.4,14.8c-7.5,1.6-5.5-5.3-5.5-8c0-2.6,2.3-5.3,1.6-5.9
			c-0.7-0.6-1.9,0.4-1.9,0.4L46.9,9.7z"/>
		<g>
			<g>
				<path class="st7" d="M28.4,104.5c0.1,0.7,0.1,2.2-1.2,2.3c-1.5,0-2.4-0.5-4.1,0.1c-1.7,0.7-4.7,0.6-5.5-0.2
					c-0.8-0.8-0.7-2-0.7-2L28.4,104.5z"/>
				<path class="st2" d="M28.9,97.3c0,1-1.1,4.9-0.8,5.8c0.7,2,0.4,2.9-2.3,2.5c-2.4-0.4-4.6,1.5-7.6,0.4c-0.7-0.3-1.9-0.9-1.1-1.7
					c0.9-1,5.2,0.7,8.5-6.6C25.9,96.9,28.9,97.3,28.9,97.3z"/>
			</g>
			<g>
				<path class="st8" d="M30.7,47.6c-0.1,13.3-5.2,34.2-4,38.5c0.7,2.3-3.7,12.8-4.8,15.5c3.1,1.9,9.4,3.2,9.4,3.2
					s3.1-11.6,3.6-21.8c1.5-3.5,6.1-23,7.6-25.6c1.5-2.6-5.1-5.5-5.1-5.5L30.7,47.6z"/>
				<g>
					<path class="st9" d="M26.1,84.6c-0.3-4,3.6-19.9,4.3-32.8l1.8,0.9c-0.3,2.9-4.7,28.9-4.4,30.8c0.3,1.9,0.1,4.2-0.2,5.8
						c-0.3,1.3-2,8.1-3.8,13.3c-0.7-0.2-1.4-0.5-2.1-0.9C22.9,98.9,26.3,87.8,26.1,84.6z"/>
				</g>
			</g>
			<g>
				<path class="st7" d="M58.7,106.3c0.1,0.7,0.2,2.2-1.1,2.3c-1.5,0.1-2.4-0.4-4.1,0.3c-1.7,0.7-4.6,0.8-5.5,0
					c-0.8-0.7-0.8-2-0.8-2L58.7,106.3z"/>
				<path class="st2" d="M57.3,99.2c0,1,0.8,4.8,1.1,5.8c0.7,2,0.5,2.9-2.2,2.6c-2.4-0.3-4.5,1.7-7.6,0.7c-0.7-0.2-1.9-0.8-1.2-1.7
					c0.9-1,3.6,0.6,6.5-6.8C54.3,99,57.3,99.2,57.3,99.2z"/>
			</g>
			<g>
				<path class="st8" d="M31.2,47c-0.7,10.9,11.9,33.8,13.4,35.7c1.4,2,6.6,18.3,6.1,21.1c3.5,1.2,8.2-0.4,8.2-0.4
					S55,84.9,51.7,80.9c-1.7-3.2-6.1-16.8-5.5-19.7C47.8,54.6,42,48,42,48L31.2,47z"/>
				<g>
					<path class="st9" d="M49.2,104.7c0.5-2.9-4.7-19.6-6.1-21.6c-0.8-1.1-4.6-10.4-8.2-18.4c-1.1-3.3-1.1-3.7-1.7-5.7
						c0,0,3.8,7.2,8,15.9c2.1,4.5,4.9,6.8,6.7,11.7c1.8,5,6.2,14.8,6.7,17.7C53.6,104.3,50.1,105,49.2,104.7z"/>
				</g>
			</g>
		</g>
		<path class="st5" d="M38.1,19.9c2.5,2.3,2.3,6.9-1.3,8.7c-0.4,0.2-0.6,2.7-1,3c-1.1,0.9,0.6-0.2,2.8-0.9c1.9-0.6,7.5-2.3,8.7-2.4
			c-1.6-2.7-2.7-7.7-1.1-11.5C47.3,14.2,38.1,19.9,38.1,19.9z"/>
		<g>
			<path class="st5" d="M47.9,17.7c1.2-4.2-0.7-8-4.1-8.9c-3.3-1-5.9,1.2-7.1,5.4c-0.2,0.8-0.4,1.6-0.5,2.4
				c-0.2,0.4-0.5,0.8-0.8,1.2c-0.1,0.3,0.3,0.6,0.8,0.8c0.2,2.3-0.1,3.7,3.3,4.6C42.8,24.1,46.7,21.9,47.9,17.7z"/>
			<path class="st6" d="M37.4,11.6c0.1-0.8,1-2.8,1.8-2.7c0.8,0.1,4-1.2,5.5-0.6c2.2,0.8,4.5,2.8,4.7,5.4c0.4,6-2,6.8-3.1,7.7
				c-1.2,0.8-1.2,0.8-1.2,0.8l-0.7-2c0,0,1.5-2,0.3-3.3c-0.6-0.6-1.6,1-1.6,1s0.9-1.3,0.1-3.5c-0.8-2.2-2.8-1.8-4.2-1.9
				C37.5,12.3,37.4,11.6,37.4,11.6z"/>
		</g>
		<path class="st1" d="M16.8,27.5c-0.6-0.8-0.3-1.2-0.7-1.9c-0.2-0.4-0.8-0.6-1-0.6c-1.2-0.6-1.1-0.7-0.6,0.3
			c0.2,0.4,0.6,0.3,0.5,0.4c0,0.2-1,1.2-0.8,1.7c0.2,0.5,0.6,1.2,1,1.1C15.7,28.5,16.8,27.5,16.8,27.5z"/>
		<path class="st1" d="M16.1,26.6c2.7,1.3,8.3,2.7,8.3,2.7s12-0.8,13.4-1.6c0,0,1.2,4.4-1.3,5.1c-2.5,0.7-11,1-11.9,1.2
			c-0.6,0.1-1-0.2-1-0.2c-1.5-0.3-3.7-1.8-6-3.1c-0.4-0.2-2.4-1.6-3.2-2.1C14.4,28.5,15.3,26.2,16.1,26.6z"/>
		<g>
			<g>
				<path class="st0" d="M4.4,17.8c0,0.2,0.1,0.4,0.2,0.4l21.6,5.6c0.2,0,0.4-0.1,0.4-0.2l0,0c0-0.2-0.1-0.4-0.2-0.4L4.9,17.5
					C4.7,17.5,4.5,17.6,4.4,17.8L4.4,17.8z"/>
				<g>
					<path d="M24.5,34.5c0,0.5-0.1,0.7,0.2,0.7l2.4-0.4c0.3,0,0.6-0.4,0.5-0.8l-0.9-7c0-0.5-0.3-0.8-0.6-0.8l-1.6,0
						c-0.3,0-0.6,0.4-0.5,0.8L24.5,34.5z"/>
				</g>
				<path d="M22.3,26.1c0.3,0.2,0.5,0.6,0.4,1.2c-0.1,0.6-0.1,1.2,1.5,1.6c1.5,0.4,1.5,0.3,1.5,0.3l0.1-0.4c-0.2,0-0.5-0.1-1.2-0.3
					c-1.4-0.3-1.4-0.7-1.3-1.3c0.1-0.5-0.1-0.8-0.2-1L22.3,26.1z"/>
				<path d="M3.6,19.9c-0.1,0.4,0.4,0.9,0.9,1l23.8,6.5c0.5,0.1,1,0.7,1.1,0.3l1.5-2c0.2-0.5-0.2-0.8-0.6-1L4.8,18.1
					C4.3,18,4,18.3,3.9,18.7L3.6,19.9z"/>
				<path class="st0" d="M5.5,21.6c-0.1,0.3,0,0.6,0.3,0.7l23.1,6c0.2,0.1,0.5-0.1,0.6-0.5l0,0c0.1-0.3,0-0.6-0.3-0.7l-23.1-6
					C5.8,21.1,5.6,21.3,5.5,21.6L5.5,21.6z"/>
				<g>
					<path class="st0" d="M4.2,19.3c-0.1,0.5,0.1,1,0.6,1.1l13.4,3.4c0.5,0.1,0.9-0.2,1.1-0.7l0,0c0.1-0.5-0.1-1-0.6-1.1L5.2,18.6
						C4.8,18.5,4.3,18.8,4.2,19.3L4.2,19.3z"/>
					<path d="M4.5,20c0-0.1,0.1-0.1,0.1-0.1l13.9,3.5c0.1,0,0.1,0.1,0.1,0.2l0,0c0,0.1-0.1,0.1-0.1,0.1L4.6,20.2
						C4.5,20.1,4.5,20.1,4.5,20L4.5,20z"/>
					<path d="M4.8,19c0-0.1,0.1-0.1,0.1-0.1l13.9,3.5c0.1,0,0.1,0.1,0.1,0.2l0,0c0,0.1-0.1,0.1-0.1,0.1L4.8,19.1
						C4.8,19.1,4.8,19,4.8,19L4.8,19z"/>
					<path d="M4.4,19.4c0-0.1,0.1-0.1,0.1-0.1l14.4,3.7C19,23,19,23,19,23.1l0,0c0,0.1-0.1,0.1-0.1,0.1L4.4,19.5
						C4.4,19.5,4.4,19.5,4.4,19.4L4.4,19.4z"/>
				</g>
			</g>
			<path d="M12,23.8c0.8,0.7,1.4,2,1.1,3.1c-0.4,1.1-0.6,3.1-0.4,3.2c0.4,0.4,2.7,1.7,2.7,0.8c0.2-2.5,0-6.2-0.4-6.4
				C14.5,24.3,12,23.8,12,23.8z"/>
			<path d="M20.8,35.3c0.6,0.1,5-0.3,5.4-0.4c0.1,0-0.3-0.5-0.3-1.1c-1.4,0.2-3.3,0.5-3.8,0.4c-0.5-0.1,0.1-5.3,0.5-7.7l-0.8-0.1
				C21.9,26.4,20.1,35.2,20.8,35.3z"/>
		</g>
		<g>
			<path class="st5" d="M12.8,25c-0.1,0.1-0.7,0.6-0.3,0.8c0.2,0.1,1.8,0.7,2,0.3c0.2-0.4,0-0.3-0.4-0.6C13.6,25.3,12.8,25,12.8,25z
				"/>
			<path class="st5" d="M12.4,25.7c-0.2,0.1-0.6,0.7-0.3,0.9c0.3,0.2,1.9,0.7,2.2,0.4c0.3-0.4-0.1-0.6-0.5-0.8
				C13.3,25.9,12.4,25.7,12.4,25.7z"/>
			<path class="st5" d="M12.1,26.7c-0.2,0.5-0.2,0.7,0.1,0.9c0.3,0.2,1.4,0.5,1.7,0.2c0.3-0.3-0.1-0.6-0.7-0.8
				C12.5,26.8,12.1,26.7,12.1,26.7z"/>
			<path class="st5" d="M12.2,27.5c-0.1,0.2-0.3,0.4,0,0.6c0.4,0.2,1.3,0.3,1.4,0.1c0.1-0.2-0.2-0.5-0.6-0.6
				C12.7,27.6,12.2,27.5,12.2,27.5z"/>
		</g>
		<path class="st1" d="M16.2,26.5c0,0-0.7-1.3-1.1-1.3c-0.4,0-1.5-0.5-1.7-0.4c-0.3,0.1,0,0.5,0.6,0.7c0.6,0.3,1.3,0.7,1.5,1.2
			C15.6,27,16.2,26.5,16.2,26.5z"/>
		<g>
			<path class="st0" d="M51.8,30.4l-3.5-1.3c0,0-5.9,21.2-5.7,22.6c0.2,1.4,3.6,1.3,3.6,1.3L51.8,30.4z"/>
			<path d="M51.4,30.4c0.8-1,2.8,6.1,2.8,6.1s-4.3,17-5.4,17.3c-1.1,0.3-3.5-0.5-3.6-1C45,51.5,49.8,32.3,51.4,30.4z"/>
		</g>
		<path d="M50.2,15.8c0.2,1.4,1.4,11.3,1.5,11.9c0.1,0.6-2.2,2-2.2,2l-1.8,0.1c0,0,3.3-1.9,3.3-2.6c0-0.7-1.6-10.9-1.6-10.9
			L50.2,15.8z"/>
		<g>
			<path class="st0" d="M45.5,19.1c-0.3-0.3-0.8-4-5.3-3.8c-2,0.1,0.4-2.6,2.8-2.4c2.4,0.2,4.3,2.6,3.8,4.6
				C46.3,19.5,45.5,19.1,45.5,19.1z"/>
			<g>
				<circle cx="43" cy="16.7" r="2.6"/>
				<circle class="st0" cx="43" cy="16.7" r="1.7"/>
			</g>
			<path d="M48.5,11.3c0.5,1.4-0.2,2-0.1,2.5c0.1,0.5-4.9-1.2-7.1-2.4l-1,1.2l0.7,1.5c0,0,4-1.7,5.1,2.3c0,1.1-0.9,2.5-1.5,2.7
				c2.2,1.7,3.4,1.9,3.4,1.9s2.7-0.4,2.9-4.1c0.2-3.7-1.8-6.8-2.4-6.3C48.2,11,48.5,11.3,48.5,11.3z"/>
			<path class="st0" d="M41.7,13.9c-0.6,0.3-1.5,1.1-1.9,4.1c0,0.2-0.4,0.6-0.9,0.6c0,0-5-0.9-5.1-1.3c-0.1-0.4,0.1-4.4,0.7-5
				c0.6-0.6,2.9-2.5,3.3-2.5c0.4,0,1.8,0.4,1.5,1.3c-0.2,0.9-0.1,1.5,0.7,1.9C40.9,13.4,41.7,13.9,41.7,13.9z"/>
			<path d="M42.2,12.1L40.8,10c0,0-0.4-1.5-2.2-1c-0.4,0.4-0.8,0.7-0.8,0.7s1.6,0.2,1.6,1c-1.1,0.9-0.1,1.8-0.1,1.8l2,1L42.2,12.1z"
				/>
			<path d="M34.3,12.7l0.3-0.5l0.8,0.4c0,0,0.6,0.1,1,0.1c0.6-0.1,2.6-1.1,3.2-1.5c0,0,2.5,2.9,2.1,2.5c-0.3-0.3-5.4-0.3-5.4-0.3
				l-1.1-0.3L34.3,12.7z"/>
		</g>
		<path class="st10" d="M38.3,26.9c-2.4,1.9-6,4.3-6.5,6.7c-0.5,2.4,0,1.2,0,3.4c0,2.2-1.6,13.9-2.3,19.2c0,0,4.5,0.3,7.8,0.5
			c3.4,0.2,7.9,0,9.3-0.3c0.2,0-0.9-3-1.3-5.1c-0.5-2.2-2.6-2.9-0.2-9.1c2.4-6.3,4.4-11.2,3.4-13.4c-0.9-1.9-2.1-3.7-2.1-3.7
			s-3.8,3.4-6.8,3.6C36.7,28.9,38.3,26.9,38.3,26.9z"/>
		<path d="M49.8,29.8c-0.7-1-1.3-2.9-3.3-2.9c-1.9,0-5.8,2.6-7.7,4.3c-1.6,1.5-5.2-1-5.2-1s-3,1.4-2.5,7.7c0.2,2.1-1,4.6-1,7.7
			l-0.6,4.6l16.6,2.4l-0.9-5c0,0-9-2.2-9.4-3.5c-0.4-1.2,3.3-8.9,5.7-11.4c2.3-2.5,3.9-4.4,5.7-4c1.8,0.4,3.2,2.4,3.2,2.4L49.8,29.8
			z"/>
		<path class="st5" d="M28.5,30.2c-1.3-1.8-2.1-2.1-2.4-2.4c-0.3-0.3-2.2-0.1-2.2-0.1s-0.5,0.4,0,0.5c0.9,0.2,1.2,0.3,1.2,0.3
			s-0.4-0.1-0.9,0c-0.4,0-0.6,0.5-0.8,0.9c-0.3,0.4-0.3,0.8,0.2,0.5c0.2-0.1,0.5-0.5,0.7-0.5c0.6,0.1,0.5,0.1,0.5,0.1
			s-0.2-0.2-0.7,0c-0.5,0.2-0.7,0.6-0.8,1c-0.1,0.3,0.4,0.1,0.7-0.1c0.3-0.3,1.1,0.1,1.1,0.1s-0.8-0.3-1.3,0.1
			C23.3,31,23.5,31,23.9,31c0.4-0.1,0.3,0.1,0.8,0.4c1.6,1,1.1,0.3,2,1c0.8,0.6,6.4,8.6,8.8,9.2c2.4,0.6,3.2-3.1,2-4.2
			C35.4,35.6,28.5,30.2,28.5,30.2z"/>
		<path class="st5" d="M45.7,28.8c-2.1-0.3-10.3,7.9-11.2,9.3c-1,1.3,0.3,3.2,1.2,3.6c0.9,0.4,6.1-2.3,9.9-5.7
			C51.5,30.7,46.7,29,45.7,28.8z"/>
		<g>
			<rect x="24" y="24.3" transform="matrix(-0.9661 -0.258 0.258 -0.9661 44.5875 55.9439)" class="st0" width="4" height="1.4"/>
			<rect x="24.2" y="24.6" transform="matrix(-0.9662 -0.258 0.258 -0.9662 44.4245 55.8531)" width="3.4" height="0.9"/>
		</g>
	</g>
</g>
</svg>
