<?xml version="1.0" encoding="utf-8"?>
<!-- Generator: Adobe Illustrator 19.0.0, SVG Export Plug-In . SVG Version: 6.00 Build 0)  -->
<svg version="1.1" id="Layer" xmlns="http://www.w3.org/2000/svg" xmlns:xlink="http://www.w3.org/1999/xlink" x="0px" y="0px"
	 viewBox="0 0 126.7 140.3" style="enable-background:new 0 0 126.7 140.3;" xml:space="preserve">
<style type="text/css">
	.st0{fill:#356FCC;}
	.st1{fill:#2C5BA8;}
	.st2{fill:#285399;}
	.st3{fill:#3166BD;}
	.st4{fill:#428BFF;}
	.st5{fill:#7DAAF0;}
	.st6{enable-background:new    ;}
	.st7{fill:#FF7F00;}
	.st8{fill:#FF9D00;}
	.st9{fill:#FFCC32;}
	.st10{fill:#FFE432;}
	.st11{fill:#FFEE7D;}
	.st12{fill:#404040;}
	.st13{fill:#262626;}
	.st14{fill:#808080;}
	.st15{fill:#404B5C;}
	.st16{fill:#E6E6E6;}
	.st17{fill:#4D4D4D;}
	.st18{fill:#B3B3B3;}
	.st19{fill:#FFF5B0;}
	.st20{fill:#FFBB00;}
	.st21{fill:#FF6200;}
	.st22{fill:#CCCCCC;}
	.st23{fill:#254D8F;}
	.st24{fill:#002F7A;}
	.st25{fill:#7DAFFF;}
	.st26{fill:#184FA8;}
	.st27{fill:#F2F2F2;}
	.st28{fill:#333333;}
</style>
<g>
	<g>
		<g>
			<g>
				<path class="st0" d="M76.5,64.9c0,2.4-1.6,4.7-4.8,6.5c-6.2,3.4-15.9,3.3-21.9-0.2c-2.9-1.7-4.3-4-4.3-6.2l0.1,41.2
					c0,2.2,1.4,4.4,4.3,6.2c5.9,3.6,15.7,3.7,21.9,0.2c3.2-1.8,4.8-4.1,4.8-6.5L76.5,64.9z"/>
				<rect x="48" y="75.5" class="st1" width="25.8" height="29.1"/>
				<g>
					<path class="st2" d="M70,99.3c5,2.9,5.1,7.6,0.1,10.5c-5,2.9-13.2,2.9-18.2,0c-5-2.9-5.1-7.6-0.1-10.6
						C56.8,96.4,64.9,96.4,70,99.3z"/>
				</g>
				<g>
					<path class="st3" d="M70,80.3c-5,2.9-13.2,2.9-18.2,0c-4.3-2.5-5-6.3-2-9.1c0,0,0,0,0,0c5.9,3.6,15.7,3.7,21.9,0.2
						c0.1,0,0.2-0.1,0.2-0.1C74.9,74.2,74.3,77.9,70,80.3z"/>
				</g>
				<path class="st4" d="M73.4,58.7c-0.2-0.1-0.3-0.3-0.5-0.4c-0.1-0.1-0.3-0.2-0.4-0.3l0,0c-0.7-0.5-1.4-1-2.1-1.5l0.8,0.6
					c0.6,0.6,0.9,1.1,1,1.6c0.2,1.9-0.9,3.8-3.4,5.1c-4.5,2.5-11.6,2.4-15.9-0.2c-2.3-1.4-3.3-3.2-3.1-4.9c0.1-0.6,0.5-1.1,0.8-1.5
					c-0.2,0.1,0.2-0.2,0.7-0.6c-0.6,0.4-1.2,0.9-1.8,1.3c-0.3,0.2-0.6,0.5-0.9,0.7c-2,1.8-3,3.8-3.1,6.3c0,2.2,1.4,4.4,4.3,6.2
					c0,0,0,0,0,0c5.9,3.6,15.7,3.7,21.9,0.2c0.1,0,0.2-0.1,0.2-0.1c3-1.8,4.5-4.1,4.5-6.3C76.5,61.9,74.7,59.8,73.4,58.7z"/>
				<path class="st0" d="M71.6,49c0.1,1.7-1,3.4-3.2,4.7c-4.2,2.3-10.9,2.3-14.9-0.2c-2.1-1.2-3-2.9-2.9-4.5l-0.6,10
					c-0.1,1.7,0.9,3.4,3.1,4.7c4.3,2.6,11.4,2.7,15.9,0.2c2.4-1.3,3.6-3.2,3.4-5L71.6,49z"/>
				<g>
					<path class="st4" d="M53.4,53.5c-4-2.4-3.9-6.3,0.3-8.7c4.2-2.3,10.9-2.3,14.9,0.2c4,2.4,3.9,6.3-0.3,8.7
						C64.1,56,57.4,55.9,53.4,53.5z"/>
				</g>
			</g>
			<path class="st0" d="M72,71.3c-0.1,0-0.2,0.1-0.2,0.1c-6.2,3.4-15.9,3.3-21.9-0.2c0,0,0,0,0,0c0.5-0.5,1.2-1,1.9-1.4
				c5-2.9,13.2-2.9,18.2,0C70.8,70.3,71.5,70.8,72,71.3z"/>
			<g>
				<path class="st5" d="M60.9,103.3L60.9,103.3c1.4,0,2.5-1.1,2.5-2.5V49h-5.1v51.9C58.4,102.2,59.5,103.3,60.9,103.3z"/>
				<g>
					<g class="st6">
						<g>
							<path class="st7" d="M73.8,34.7l0,16.5c0,1.9-1.3,3.8-3.7,5.2c-5,2.9-13.2,2.9-18.2,0C49.2,54.9,48,53,48,51.1l0-16.5
								c0,1.9,1.3,3.8,3.8,5.3c5,2.9,13.2,2.9,18.2,0C72.5,38.5,73.8,36.6,73.8,34.7z"/>
						</g>
						<path class="st8" d="M60.9,42.1v16.5c-3.3,0-6.6-0.7-9.1-2.2c-1.2-0.7-2.1-1.4-2.7-2.3V37.6c0.6,0.8,1.5,1.6,2.7,2.3
							C54.3,41.4,57.6,42.1,60.9,42.1z"/>
						<path class="st9" d="M56.4,41.6v16.5c-1.7-0.4-3.3-0.9-4.6-1.7c-0.2-0.1-0.3-0.2-0.5-0.3V39.6c0.2,0.1,0.4,0.2,0.5,0.3
							C53.2,40.7,54.8,41.3,56.4,41.6z"/>
						<g>
							<path class="st10" d="M70,29.4c5,2.9,5.1,7.6,0.1,10.5c-5,2.9-13.2,2.9-18.2,0c-5-2.9-5.1-7.6-0.1-10.6
								C56.8,26.5,64.9,26.5,70,29.4z"/>
						</g>
						<path class="st11" d="M70,39C65,42,56.9,42,51.8,39c-2.3-1.4-3.6-3.1-3.8-4.9c-0.2,2.1,1,4.2,3.8,5.8c5,2.9,13.2,2.9,18.2,0
							c2.7-1.6,3.9-3.6,3.7-5.7C73.6,36,72.3,37.7,70,39z"/>
					</g>
				</g>
				<g>
					<path class="st12" d="M67.6,37.4c-1.2,0.7-2.6,1.1-4,1.3c-0.3,0.1-0.6,0.1-0.8,0.1h0c-0.2,0-0.5,0-0.7,0.1c0,0,0,0-0.1,0
						c-2.7,0.1-5.5-0.4-7.5-1.6c-2.5-1.5-3.2-3.6-2.1-5.5c0.9-1.5,1.8-3,2.6-4.6l0,0c0,0,0,0,0-0.1c0,0,0-0.1,0-0.1
						c0,0.6,0.3,1.2,0.8,1.8c0.2,0.2,0.5,0.5,0.9,0.7c0,0,0,0,0,0c0.4,0.2,0.9,0.5,1.4,0.6c2.3,0.8,5.3,0.6,7.3-0.5
						c1.3-0.7,1.9-1.7,1.9-2.6c0,0.1,0,0.1,0,0.2c0,0,0,0,0,0l0,0c0.9,1.5,1.8,3,2.7,4.5C71.1,33.7,70.3,35.9,67.6,37.4z"/>
					<path class="st12" d="M64.6,6c-1.4-0.8-3.8-1.3-6.2-0.4c-0.8,0.3-1.6,0.9-2.1,1.5c-0.7,1-0.8,1.7-0.9,2.4
						c0,0.8,0.5,1.7,1.6,2.3c2.2,1.3,5.8,1.3,8,0.1c1.2-0.7,1.8-1.6,1.7-2.4C66.6,8,65.9,6.9,64.6,6z"/>
					<path class="st13" d="M67.2,27c0,1-0.6,1.9-1.9,2.7c-2,1.1-5,1.3-7.3,0.5c-0.5-0.2-1-0.4-1.4-0.6c-0.4-0.2-0.7-0.5-0.9-0.7
						c-0.6-0.6-0.8-1.2-0.8-1.8l0.4-17.5c0,0.5,0.2,1.1,0.7,1.6c0.2,0.2,0.5,0.5,0.9,0.7c0.4,0.2,0.9,0.5,1.4,0.6
						c2.1,0.7,4.8,0.5,6.6-0.5c1.2-0.6,1.7-1.5,1.7-2.4L67.2,27z"/>
				</g>
				<path class="st14" d="M63.3,8.3C62.1,9,60.2,9,59,8.3c-1.2-0.7-1.2-1.8,0-2.5c1.2-0.7,3.2-0.7,4.4,0C64.5,6.4,64.5,7.6,63.3,8.3
					z"/>
			</g>
			<g>
				<path class="st15" d="M61.9,76.8v33.3c-4.3,0.1-8.6-0.8-11.9-2.7c-2.9-1.7-4.3-4-4.3-6.2l-0.1-36.5c0-0.3,0-0.6,0.1-0.9l0,4.1
					c0,2.2,1.4,4.4,4.3,6.2C53.2,76.1,57.6,77,61.9,76.8z"/>
				<path class="st15" d="M57.2,76.6v33.3c-2.7-0.4-5.1-1.2-7.2-2.4c-0.5-0.3-1-0.6-1.4-1V73.2c0.4,0.3,0.9,0.7,1.4,1
					C52,75.4,54.5,76.2,57.2,76.6z"/>
			</g>
		</g>
		<g>
			<g>
				<g class="st6">
					<g>
						<path class="st16" d="M110.3,105.3l9.4-5.5c1.2-0.7,1.9-2.1,1.9-4.2c0-4.1-2.9-9.2-6.5-11.2c-1.8-1-3.4-1.1-4.6-0.5l-9.4,5.5
							c1.2-0.7,2.8-0.6,4.6,0.5c3.6,2.1,6.5,7.1,6.5,11.2C112.2,103.2,111.5,104.7,110.3,105.3z"/>
					</g>
					<path class="st17" d="M110.8,87.6c-0.8,0.5-2.1,0.5-2.9,0c-0.8-0.5-0.8-1.2,0-1.7c0.8-0.5,2.1-0.5,2.9,0
						C111.6,86.4,111.6,87.1,110.8,87.6z"/>
					<path class="st18" d="M110.3,105.3l9.4-5.5c1.2-0.7,1.9-2.1,1.9-4.2c0-2.1-0.7-4.4-1.9-6.4l-9.4,5.4c1.2,2,1.9,4.3,1.9,6.4
						C112.2,103.2,111.5,104.7,110.3,105.3z"/>
					<g>
						<path class="st7" d="M105.7,104.9c3.6,2.1,6.5,0.4,6.5-3.7c0-4.1-2.9-9.2-6.5-11.2c-3.6-2.1-6.5-0.4-6.5,3.7
							C99.2,97.8,102.1,102.8,105.7,104.9z"/>
					</g>
				</g>
			</g>
			<g>
				<g class="st6">
					<g>
						<path class="st10" d="M97.6,119.6l14.8-8.6c1.8-1.1,3-3.3,3-6.6c0-6.5-4.5-14.4-10.2-17.6c-2.8-1.6-5.4-1.8-7.3-0.7l-14.8,8.6
							c1.9-1.1,4.4-0.9,7.3,0.7c5.6,3.3,10.2,11.2,10.2,17.6C100.6,116.3,99.4,118.6,97.6,119.6z"/>
					</g>
					<path class="st11" d="M94.8,99.2l14.8-8.6c-1.4-1.5-2.9-2.9-4.5-3.8c-1.3-0.7-2.4-1.2-3.6-1.3l-14.9,8.6
						c1.1,0.2,2.4,0.6,3.6,1.3C92,96.4,93.5,97.7,94.8,99.2z"/>
					<path class="st19" d="M92.5,96.9l14.8-8.6c-0.7-0.6-1.4-1.1-2.2-1.5c-0.3-0.2-0.6-0.3-0.9-0.5l-14.8,8.6c0.3,0.1,0.6,0.3,1,0.5
						C91.1,95.9,91.8,96.4,92.5,96.9z"/>
					<path class="st20" d="M97.6,119.6l14.8-8.6c1.8-1.1,3-3.3,3-6.6c0-3.2-1.1-6.8-3-10L97.6,103c1.9,3.2,3,6.8,3,10.1
						C100.6,116.3,99.4,118.6,97.6,119.6z"/>
					<g>
						<path class="st7" d="M90.3,118.9c5.6,3.3,10.2,0.6,10.3-5.8c0-6.5-4.5-14.4-10.2-17.6c-5.6-3.3-10.2-0.6-10.2,5.8
							C80.1,107.8,84.7,115.7,90.3,118.9z"/>
					</g>
					<g>
						<path class="st21" d="M96.9,111c0,4.2-3,5.8-6.6,3.8c-1.3-0.8-2.5-1.9-3.5-3.3c-0.9-1.2-1.6-2.5-2.2-3.9
							c-0.5-1.4-0.8-2.9-0.8-4.2c0-4.2,3-5.8,6.6-3.8c1.2,0.7,2.2,1.6,3.2,2.8c0.9,1.1,1.7,2.4,2.3,3.8
							C96.5,107.8,96.9,109.4,96.9,111z"/>
					</g>
				</g>
			</g>
			<g>
				<g class="st6">
					<path class="st22" d="M95.8,106.2l-9.1,5.3L46,135.2c0,0-0.1,0-0.1,0.1c0.1,0,0.1-0.1,0.2-0.1c0,0,0,0,0.1-0.1
						c0-0.1,0.1-0.1,0.1-0.2c0-0.1,0.1-0.2,0.1-0.3c0-0.1,0-0.2,0-0.3c0-1-0.7-2.2-1.6-2.7c-0.3-0.2-0.6-0.2-0.9-0.2
						c0,0-0.1,0-0.1,0c0,0,0,0-0.1,0l0,0l40.9-23.8l8.9-5.2C94.5,103.5,95.3,104.9,95.8,106.2z"/>
					<g>
						<path class="st18" d="M44.8,131.5c0.9,0.5,1.6,1.7,1.6,2.7c0,1-0.7,1.4-1.6,0.9c-0.9-0.5-1.6-1.7-1.6-2.7
							C43.2,131.4,43.9,131,44.8,131.5z"/>
					</g>
				</g>
			</g>
		</g>
		<g>
			<g>
				<g class="st6">
					<g>
						<path class="st0" d="M37.9,82.2l-0.1,38.1c0,2.4-1.6,4.8-4.7,6.6c-6.3,3.7-16.6,3.7-22.9,0c-3.2-1.8-4.8-4.3-4.8-6.7l0.1-38.1
							c0,2.4,1.6,4.8,4.8,6.7c6.3,3.7,16.6,3.7,22.9,0C36.3,86.9,37.9,84.5,37.9,82.2z"/>
					</g>
					<rect x="7.7" y="96.3" class="st23" width="28.1" height="22.8"/>
					<g>
						<path class="st24" d="M31.6,113.3c5.5,3.2,5.5,8.3,0.1,11.5c-5.5,3.2-14.3,3.2-19.8,0c-5.5-3.2-5.5-8.3-0.1-11.5
							C17.2,110.1,26.1,110.1,31.6,113.3z"/>
					</g>
					<g>
						<path class="st4" d="M33.2,88.7c-0.9,0.5-1.8,1-2.9,1.3c-5.3,1.9-12,1.9-17.3,0c-1-0.4-1.9-0.8-2.8-1.3
							c-6.3-3.7-6.4-9.6-0.1-13.3c6.3-3.6,16.6-3.6,22.9,0C39.5,79.1,39.5,85.1,33.2,88.7z"/>
					</g>
					<g>
						<path class="st2" d="M31.6,102.2c-5.5,3.2-14.3,3.2-19.8,0c-5.5-3.2-5.5-8.3-0.1-11.5c0.4-0.2,0.9-0.5,1.3-0.7
							c5.3,1.9,12,1.9,17.3,0c0.4,0.2,0.9,0.4,1.3,0.6C37.1,93.9,37.1,99,31.6,102.2z"/>
						<path class="st0" d="M30.3,90.1c-5.3,1.9-12,1.9-17.3,0C18.1,87.7,25.3,87.7,30.3,90.1z"/>
					</g>
				</g>
			</g>
			<g>
				<g class="st6">
					<g>
						<path class="st0" d="M34.6,73.5l0,5.6c0,1.9-1.3,3.8-3.7,5.2c-5,2.9-13.2,2.9-18.2,0C10,82.9,8.8,81,8.8,79.1l0-5.6
							c0,1.9,1.3,3.8,3.8,5.3c5,2.9,13.2,2.9,18.2,0C33.3,77.3,34.6,75.4,34.6,73.5z"/>
					</g>
					<g>
						<path class="st25" d="M30.8,68.2c5,2.9,5.1,7.6,0.1,10.5c-5,2.9-13.2,2.9-18.2,0c-5-2.9-5.1-7.6-0.1-10.6
							C17.6,65.3,25.7,65.3,30.8,68.2z"/>
					</g>
					<g>
						<path class="st26" d="M28.9,69.3c4,2.3,4,6.1,0,8.4c-4,2.3-10.5,2.3-14.5,0c-4-2.3-4.1-6.1,0-8.4
							C18.4,66.9,24.9,66.9,28.9,69.3z"/>
					</g>
					<path class="st0" d="M14.4,71.9c4-2.3,10.5-2.3,14.5,0c1.4,0.8,2.4,1.8,2.8,2.9c0.7-1.9-0.2-4-2.8-5.5c-4-2.3-10.5-2.3-14.5,0
						c-2.6,1.5-3.5,3.6-2.7,5.5C12.1,73.7,13,72.7,14.4,71.9z"/>
				</g>
			</g>
			<path class="st27" d="M31.2,97.8v23.5c-6.3,2.7-15.2,2.4-21-1c-3.2-1.8-4.8-4.3-4.8-6.7l0-23.1c0.2,2.3,1.8,4.5,4.8,6.2
				C16,100.1,24.9,100.4,31.2,97.8z"/>
			<g>
				<path class="st28" d="M18.3,118.2v1.8c0,0.3-0.2,0.5-0.5,0.4c-2.8-0.4-5.4-1.2-7.6-2.5c-3.2-1.8-4.8-4.3-4.8-6.7v-2.7
					c0,2.4,1.6,4.8,4.8,6.6c2.2,1.3,4.9,2.1,7.7,2.5C18.1,117.8,18.3,118,18.3,118.2z"/>
				<path class="st28" d="M24,113.8v1.5c0,0.3-0.2,0.5-0.5,0.5c-4.7,0.3-9.7-0.6-13.3-2.7c-3.2-1.8-4.8-4.3-4.8-6.7v-2.7
					c0,2.4,1.6,4.8,4.8,6.6c3.6,2.1,8.4,3,13,2.7C23.7,113.1,24,113.4,24,113.8z"/>
				<path class="st28" d="M21.1,108.6v1.9c0,0.2-0.2,0.4-0.4,0.4c-3.8-0.1-7.5-1-10.4-2.7c-3.2-1.8-4.8-4.3-4.8-6.7v-2.7
					c0,2.4,1.6,4.8,4.8,6.6c2.9,1.7,6.6,2.6,10.4,2.7C20.9,108.2,21.1,108.4,21.1,108.6z"/>
				<path class="st28" d="M19.5,103.6v1.9c0,0.2-0.2,0.4-0.4,0.3c-3.2-0.3-6.3-1.2-8.8-2.6c-3.2-1.8-4.8-4.3-4.8-6.7V94
					c0,2.4,1.6,4.8,4.8,6.6c2.5,1.4,5.6,2.3,8.8,2.6C19.3,103.2,19.5,103.4,19.5,103.6z"/>
			</g>
			<g>
				<path class="st15" d="M21.6,91.5v38.1c-4.1,0-8.3-0.9-11.4-2.8c-1.5-0.9-2.6-1.8-3.4-2.8V85.8c0.8,1.1,1.9,2.1,3.4,2.9
					C13.4,90.5,17.5,91.5,21.6,91.5z"/>
				<path class="st15" d="M16,90.9V129c-2.1-0.4-4.1-1.2-5.8-2.2c-0.2-0.1-0.4-0.3-0.6-0.4V88.3c0.2,0.1,0.4,0.3,0.7,0.4
					C12,89.7,13.9,90.4,16,90.9z"/>
			</g>
			<path class="st15" d="M21.7,80.9v5.6c-3.3,0-6.6-0.7-9.1-2.2c-1.2-0.7-2.1-1.4-2.7-2.3v-5.7c0.6,0.8,1.5,1.6,2.7,2.3
				C15.1,80.2,18.4,80.9,21.7,80.9z"/>
			<path class="st15" d="M17.2,80.5v5.6c-1.7-0.4-3.3-0.9-4.6-1.7c-0.2-0.1-0.3-0.2-0.5-0.3v-5.6c0.2,0.1,0.4,0.2,0.5,0.3
				C14,79.5,15.5,80.1,17.2,80.5z"/>
		</g>
	</g>
</g>
</svg>
