<?xml version="1.0" encoding="utf-8"?>
<!-- Generator: Adobe Illustrator 19.0.0, SVG Export Plug-In . SVG Version: 6.00 Build 0)  -->
<svg version="1.1" id="Layer_1" xmlns="http://www.w3.org/2000/svg" xmlns:xlink="http://www.w3.org/1999/xlink" x="0px" y="0px"
	 viewBox="0 0 96.9 72" style="enable-background:new 0 0 96.9 72;" xml:space="preserve">
<style type="text/css">
	.st0{opacity:0.6;}
	.st1{fill:#65C6E5;}
	.st2{opacity:0.4;}
	.st3{fill:#574943;}
	.st4{fill:#362C29;}
	.st5{fill:#0A0808;}
	.st6{fill:#211A1A;}
	.st7{fill:#544540;}
	.st8{fill:#FA5C52;}
	.st9{fill:#8A1C14;}
	.st10{fill:#D1D1D1;}
	.st11{fill:#FFFFFF;}
	.st12{fill:#A39C95;}
	.st13{fill:#C84030;}
	.st14{fill:#AB281F;}
	.st15{fill:#FBE979;}
	.st16{fill:#E0DEDC;}
	.st17{fill:#F4EFE9;}
	.st18{fill:#E3BD5E;}
	.st19{fill:#685750;}
	.st20{opacity:0.3;fill:#65C6E5;}
	.st21{fill:#F0C6B4;}
	.st22{fill:#C7A495;}
	.st23{fill:#E2D5C5;}
	.st24{fill:#856848;}
	.st25{fill:#AB9D67;}
	.st26{fill:#C3C270;}
	.st27{opacity:0.5;}
	.st28{fill:#29617D;}
	.st29{fill:#4290B8;}
	.st30{fill:#17435C;}
	.st31{fill:#AC8854;}
	.st32{fill:#CC934C;}
</style>
<g>
	<g>
		<g>
			<g>
				<g>
					<g class="st0">
						<path class="st1" d="M68.2,23.2l1.2,0.7l0.3-0.1l-1.5-0.9l-0.7,0.4c0,0-0.1,0-0.1,0c0,0-0.1,0-0.1,0L67,23.5v0.4L68.2,23.2z"
							/>
						<polygon class="st1" points="29.1,49.7 29.1,49.7 29.1,49.7 						"/>
						<polygon class="st1" points="67.6,24.9 67.8,24.9 67,24.4 67,24.8 67.4,25 						"/>
						<path class="st1" d="M38.7,53.3l0.6-0.4c0,0,0,0,0,0l0-0.4l-1,0.6l-1.5-0.9l1.7-1l0.8,0.5v-0.4L38.9,51l0.5-0.3v-0.2l-0.2-0.1
							l-0.6,0.3L37.1,50l-0.4,0.2l1.4,0.8l-1.7,1l-1.5-0.9l-0.4,0.2l1.5,0.9l-1.7,1l-1.5-0.9l1.6-0.9l-1.9,1l1.9,1.1l0.6,0.2
							l-0.3-0.2l1.7-1l1.5,0.9L36.7,54l0.5,0.1l1.1-0.6l1.5,0.9l-0.6,0.3l0.3,0.1l1.4-0.8l-0.2-0.1l-0.6,0.3L38.7,53.3z"/>
						<polygon class="st1" points="70.5,29.3 70.7,29.4 70.5,29.2 						"/>
						<path class="st1" d="M95,31.8c-0.2-0.3-0.5-0.4-0.8-0.2L93,32.3l-1.4-0.8l0.8-0.5c0.1,0,0.1-0.2,0.1-0.2
							c0-0.1-0.2-0.1-0.2-0.1l-1,0.6l-1.5-0.9l0.8-0.5c0.1,0,0.1-0.2,0.1-0.2c0-0.1-0.2-0.1-0.2-0.1l-1,0.6l-1.5-0.9l0.8-0.5
							c0.1,0,0.1-0.2,0.1-0.2c-0.1-0.1-0.2-0.1-0.2-0.1l-1,0.6l-1.5-0.9l0.8-0.5c0.1,0,0.1-0.2,0.1-0.2c0-0.1-0.2-0.1-0.2-0.1
							l-1,0.6L84,27.1l0.8-0.5c0.1,0,0.1-0.2,0.1-0.2c0-0.1-0.2-0.1-0.2-0.1l-1,0.6L82.1,26l0.8-0.5c0.1,0,0.1-0.2,0.1-0.2
							c0-0.1-0.2-0.1-0.2-0.1l-1,0.6l-1.5-0.9l0.8-0.5c0.1,0,0.1-0.2,0.1-0.2c0-0.1-0.2-0.1-0.2-0.1l-1,0.6l-1.5-0.9l0.8-0.5
							c0.1,0,0.1-0.2,0.1-0.2c0-0.1-0.2-0.1-0.2-0.1l-0.6,0.3l-0.3,0.7l1.4,0.8l-1.7,1l-0.4-0.2L77.3,26l0.2,0.1l-0.4,0.2L77,26.5
							c0,0,0,0-0.1,0.1l-1.2,0.7l3.5,2c0.1,0,0.1,0.1,0.1,0.1v0.5l0.3-0.2l1.5,0.9l-1.7,1l-0.2-0.1v0.6l0.2-0.1l1.5,0.9l-1.7,1
							l-0.4-0.3l-0.2,0.3l0.3,0.2l-0.5,0.3L77.9,35l1.3-0.7l1.5,0.9l-1.7,1l-1.3-0.8l-0.2,0.3l1.1,0.6l-1.7,1l-0.7-0.4l-0.4,0.2
							l0.7,0.4l-1.7,1l-0.7-0.4c0,0,0,0,0,0c0,0-0.1,0-0.1,0l-3.9-2.2L69.9,36l0.9,0.5l-1.7,1L68.2,37l-0.4,0.2l0.9,0.5l-1.7,1
							l-0.9-0.5l-0.4,0.2l0.9,0.5l-1.7,1l-0.9-0.5l-0.4,0.2l0.9,0.5l-1.7,1L62,40.6l-0.4,0.2l0.9,0.5l-1.7,1l-0.9-0.5L59.6,42
							l0.9,0.5l-1.7,1l-0.9-0.5l-0.4,0.2l0.9,0.5l-1.7,1l-0.9-0.5l-0.4,0.2l0.9,0.5l-1.7,1L53.1,45l0.5-0.3l-0.4-0.2l-0.5,0.3
							L52,44.3l-0.6,0l1,0.6l-1.7,1l-1.5-0.9l1-0.6l-0.8,0.1l-0.6,0.3l-0.4-0.3l-0.6,0l0.7,0.4l-1.3,0.8l0.4,0.2l1.3-0.8l1.5,0.9
							L48.9,47v0.7l1.3,0.7l-1.3,0.7v0.4l1.6-0.9l1.5,0.9l-1.7,1l-1.4-0.8v0.4l1.1,0.6l-1.7,1l-0.2-0.1l-0.5,0.9l0.7-0.4l1.5,0.9
							l-1.7,1l-1-0.6l-0.2,0.3l0.8,0.5l-1.7,1l-0.7-0.4L45,54.9l0.7,0.4l-1.7,1l-1.5-0.9l0.6-0.3l-0.4-0.2l-0.6,0.3l0,0v0.1
							c0,0,0,0.1,0,0.1l-0.2,0.4l0.3-0.2l1.5,0.9l-1.7,1l-1.2-0.7L40.4,57l1.2,0.7l-1.7,1L38.7,58l-0.4,0.2l1.2,0.7l-1.7,1l-1.2-0.7
							l0,0c0,0-0.1,0-0.1,0c0,0-0.1,0-0.1,0l-0.8-0.4c0,0-0.1-0.1-0.1-0.1v0l-1.2-0.7l1.1-0.7l-0.4-0.2L34,57.7l-1.5-0.9l1.1-0.7
							L33.3,56l-1.1,0.7l-1.5-0.9l1.1-0.7l-0.4-0.2l-1.1,0.7l-1.5-0.9l1.1-0.7l-0.4-0.2l-1.1,0.7l-1.5-0.9l1.1-0.7l-0.4-0.2
							l-1.1,0.7L25,52.5l1.1-0.7l-0.4-0.2l-1.1,0.7l-1.5-0.9l1.1-0.7L24,50.6l-1.2,0.7c0,0-0.1,0-0.1,0c0,0-0.1,0-0.1,0l-0.8-0.4
							c-0.1,0-0.1-0.1-0.1-0.1v0l-0.6-0.4l0.6-0.4v-0.1c0,0,0-0.1,0-0.1l0.2-0.3l-1.2,0.7l-1.5-0.9l1.7-1l1.3,0.7l0.1-0.1
							c0,0,0,0,0.1-0.1l0.1-0.1L21.4,48l1.7-1l1.2,0.7l0.4-0.2l-1.2-0.7l1.7-1l1.2,0.7l0.4-0.2l-1.2-0.7l1.6-0.9v-0.5l-1.5-0.9
							l1.5-0.9c0,0,0,0,0,0c0,0,0,0,0,0l0,0l1.2-2l-26,15c-0.3,0.2-0.4,0.5-0.2,0.8c0.1,0.2,0.3,0.3,0.5,0.3c0.1,0,0.2,0,0.3-0.1
							l1.7-1l1.6,0.9l-1.3,0.8c-0.1,0-0.1,0.2-0.1,0.2c0,0.1,0.1,0.1,0.2,0.1c0,0,0.1,0,0.1,0l1.5-0.9l1.5,0.9l-1.3,0.7
							c-0.1,0-0.1,0.2-0.1,0.2c0,0.1,0.1,0.1,0.2,0.1c0,0,0.1,0,0.1,0l1.5-0.9l1.5,0.9l-1.3,0.7c-0.1,0-0.1,0.2-0.1,0.2
							c0,0.1,0.1,0.1,0.2,0.1c0,0,0.1,0,0.1,0l1.5-0.9l1.5,0.9l-1.3,0.7c-0.1,0-0.1,0.2-0.1,0.2c0,0.1,0.1,0.1,0.2,0.1
							c0,0,0.1,0,0.1,0l1.5-0.9l1.5,0.9l-1.3,0.7c-0.1,0-0.1,0.2-0.1,0.2c0,0.1,0.1,0.1,0.2,0.1c0,0,0.1,0,0.1,0l1.5-0.9l1.5,0.9
							l-1.3,0.7c-0.1,0-0.1,0.2-0.1,0.2c0,0.1,0.1,0.1,0.2,0.1c0,0,0.1,0,0.1,0L16,62l1.5,0.9l-1.3,0.7c-0.1,0-0.1,0.2-0.1,0.2
							c0,0.1,0.1,0.1,0.2,0.1c0,0,0.1,0,0.1,0l1.5-0.9l1.5,0.9l-1.3,0.8c-0.1,0-0.1,0.2-0.1,0.2c0,0.1,0.1,0.1,0.2,0.1
							c0,0,0.1,0,0.1,0l1.5-0.9l1.5,0.9L20,65.8c-0.1,0-0.1,0.2-0.1,0.2c0,0.1,0.1,0.1,0.2,0.1c0,0,0.1,0,0.1,0l1.5-0.9l1.5,0.9
							l-1.3,0.7c-0.1,0-0.1,0.2-0.1,0.2c0,0.1,0.1,0.1,0.2,0.1c0,0,0.1,0,0.1,0l1.5-0.9l1.5,0.9L23.8,68c-0.1,0-0.1,0.2-0.1,0.2
							c0,0.1,0.1,0.1,0.2,0.1c0,0,0.1,0,0.1,0l1.5-0.9l1.5,0.9l-1.3,0.7c-0.1,0-0.1,0.2-0.1,0.2c0,0.1,0.1,0.1,0.2,0.1
							c0,0,0.1,0,0.1,0l1.5-0.9l1.4,0.8L27.7,70c-0.3,0.2-0.4,0.5-0.2,0.8c0.1,0.2,0.3,0.3,0.5,0.3c0.1,0,0.2,0,0.3-0.1l66.5-38.4
							C95.1,32.5,95.2,32.1,95,31.8z M90.9,31.5l-1.7,1l-1.5-0.9l1.7-1L90.9,31.5z M83.3,31.5l-1.5-0.9l1.7-1l1.5,0.9L83.3,31.5z
							 M85.4,30.7l1.5,0.9l-1.7,1l-1.5-0.9L85.4,30.7z M84.9,32.8l-1.7,1l-1.5-0.9l1.7-1L84.9,32.8z M84.7,35L83,36l-1.5-0.9l1.7-1
							L84.7,35z M83.5,33.9l1.7-1l1.5,0.9l-1.7,1L83.5,33.9z M85.6,32.8l1.7-1l1.5,0.9l-1.7,1L85.6,32.8z M89,30.4l-1.7,1l-1.5-0.9
							l1.7-1L89,30.4z M87.1,29.3l-1.7,1l-1.5-0.9l1.7-1L87.1,29.3z M85.2,28.2l-1.7,1L82,28.3l1.7-1L85.2,28.2z M83.3,27.1l-1.7,1
							l-1.5-0.9l1.7-1L83.3,27.1z M79.9,25.1l1.5,0.9l-1.7,1l-1.5-0.9L79.9,25.1z M76.1,27.3l1.7-1l1.5,0.9l-1.7,1L76.1,27.3z
							 M78,28.4l1.7-1l1.5,0.9l-1.7,1L78,28.4z M79.9,29.5l1.7-1l1.5,0.9l-1.7,1L79.9,29.5z M79.7,31.8l1.7-1l1.5,0.9l-1.7,1
							L79.7,31.8z M79.6,34l1.7-1l1.5,0.9l-1.7,1L79.6,34z M81.1,35.3l1.5,0.9l-1.7,1l-1.5-0.9L81.1,35.3z M79,36.5l1.5,0.9l-1.7,1
							l-1.5-0.9L79,36.5z M77,37.7l1.5,0.9l-1.7,1l-1.5-0.9L77,37.7z M76.4,39.8l-1.7,1l-1.5-0.9l1.7-1L76.4,39.8z M52.6,51.8l1.7-1
							l1.5,0.9l-1.7,1L52.6,51.8z M53.8,52.9l-1.7,1L50.5,53l1.7-1L53.8,52.9z M70.4,41.1l-1.7,1l-1.5-0.9l1.7-1L70.4,41.1z
							 M69.3,40l1.7-1l1.5,0.9l-1.7,1L69.3,40z M68.4,42.3l-1.7,1l-1.5-0.9l1.7-1L68.4,42.3z M66.3,43.5l-1.7,1l-1.5-0.9l1.7-1
							L66.3,43.5z M64.2,44.7l-1.7,1L61,44.8l1.7-1L64.2,44.7z M62.2,45.8l-1.7,1L59,45.9l1.7-1L62.2,45.8z M60.1,47l-1.7,1
							l-1.5-0.9l1.7-1L60.1,47z M58.1,48.2l-1.7,1l-1.5-0.9l1.7-1L58.1,48.2z M56,49.4l-1.7,1l-1.5-0.9l1.7-1L56,49.4z M54.7,50.6
							l1.7-1l1.5,0.9l-1.7,1L54.7,50.6z M56.7,49.4l1.7-1l1.5,0.9l-1.7,1L56.7,49.4z M58.8,48.2l1.7-1l1.5,0.9l-1.7,1L58.8,48.2z
							 M60.8,47l1.7-1l1.5,0.9l-1.7,1L60.8,47z M62.9,45.8l1.7-1l1.5,0.9l-1.7,1L62.9,45.8z M65,44.7l1.7-1l1.5,0.9l-1.7,1L65,44.7z
							 M67,43.5l1.7-1l1.5,0.9l-1.7,1L67,43.5z M69.1,42.3l1.7-1l1.5,0.9l-1.7,1L69.1,42.3z M71.1,41.1l1.7-1l1.5,0.9l-1.7,1
							L71.1,41.1z M74.5,38.7l-1.7,1l-1.5-0.9l1.7-1L74.5,38.7z M71.1,36.7l1.5,0.9l-1.7,1l-1.5-0.9L71.1,36.7z M69.1,37.9l1.5,0.9
							l-1.7,1l-1.5-0.9L69.1,37.9z M67,39.1l1.5,0.9l-1.7,1l-1.5-0.9L67,39.1z M65,40.3l1.5,0.9l-1.7,1l-1.5-0.9L65,40.3z
							 M62.9,41.5l1.5,0.9l-1.7,1l-1.5-0.9L62.9,41.5z M60.8,42.7l1.5,0.9l-1.7,1l-1.5-0.9L60.8,42.7z M58.8,43.9l1.5,0.9l-1.7,1
							l-1.5-0.9L58.8,43.9z M56.7,45.1l1.5,0.9l-1.7,1L55,46L56.7,45.1z M56.2,47.1l-1.7,1l-1.5-0.9l1.7-1L56.2,47.1z M52.8,45.2
							l1.5,0.9l-1.7,1l-1.5-0.9L52.8,45.2z M49,47.3l1.7-1l1.5,0.9l-1.7,1L49,47.3z M50.9,48.4l1.7-1l1.5,0.9l-1.7,1L50.9,48.4z
							 M52.4,49.7l1.5,0.9l-1.7,1l-1.5-0.9L52.4,49.7z M48.6,51.9l1.7-1l1.5,0.9l-1.7,1L48.6,51.9z M50.2,53.2l1.5,0.9l-1.7,1
							l-1.5-0.9L50.2,53.2z M48.1,54.4l1.5,0.9l-1.7,1l-1.5-0.9L48.1,54.4z M46.1,55.6l1.5,0.9l-1.7,1l-1.5-0.9L46.1,55.6z M44,56.8
							l1.5,0.9l-1.7,1l-1.5-0.9L44,56.8z M41.9,57.9l1.5,0.9l-1.7,1l-1.5-0.9L41.9,57.9z M39.9,59.1l1.5,0.9l-1.7,1l-1.5-0.9
							L39.9,59.1z M39.3,61.2l-1.7,1l-1.5-0.9l1.7-1L39.3,61.2z M27.9,61.3l-1.5-0.9l1.7-1l1.5,0.9L27.9,61.3z M29.9,60.5l1.5,0.9
							l-1.7,1l-1.5-0.9L29.9,60.5z M26,60.2l-1.5-0.9l1.7-1l1.5,0.9L26,60.2z M24.1,59.1l-1.5-0.9l1.7-1l1.5,0.9L24.1,59.1z
							 M22.2,58l-1.5-0.9l1.7-1l1.5,0.9L22.2,58z M20.3,57l-1.5-0.9l1.7-1L22,56L20.3,57z M18.4,55.9L16.9,55l1.7-1l1.5,0.9
							L18.4,55.9z M16.5,54.8L15,53.9l1.7-1l1.5,0.9L16.5,54.8z M16.2,55l-1.7,1L13,55.1l1.7-1L16.2,55z M16.5,55.2l1.5,0.9l-1.7,1
							l-1.5-0.9L16.5,55.2z M18.4,56.3l1.5,0.9l-1.7,1l-1.5-0.9L18.4,56.3z M20.3,57.4l1.5,0.9l-1.7,1l-1.5-0.9L20.3,57.4z
							 M22.2,58.5l1.5,0.9l-1.7,1l-1.5-0.9L22.2,58.5z M24.1,59.5l1.5,0.9l-1.7,1l-1.5-0.9L24.1,59.5z M26,60.6l1.5,0.9l-1.7,1
							l-1.5-0.9L26,60.6z M27.9,61.7l1.5,0.9l-1.7,1l-1.5-0.9L27.9,61.7z M29.7,62.8l1.5,0.9l-1.7,1L28,63.8L29.7,62.8z M30.1,62.6
							l1.7-1l1.5,0.9l-1.7,1L30.1,62.6z M32.2,61.4l1.7-1l1.5,0.9l-1.7,1L32.2,61.4z M31.8,61.2l-1.5-0.9l1.7-1l1.5,0.9L31.8,61.2z
							 M29.9,60.1l-1.5-0.9l1.7-1l1.5,0.9L29.9,60.1z M28,59l-1.5-0.9l1.7-1l1.5,0.9L28,59z M26.1,57.9l-1.5-0.9l1.7-1l1.5,0.9
							L26.1,57.9z M24.3,56.8L22.7,56l1.7-1l1.5,0.9L24.3,56.8z M22.4,55.8l-1.5-0.9l1.7-1l1.5,0.9L22.4,55.8z M20.5,54.7L19,53.8
							l1.7-1l1.5,0.9L20.5,54.7z M18.6,53.6l-1.5-0.9l1.7-1l1.5,0.9L18.6,53.6z M16.7,52.5l-1.5-0.9l1.7-1l1.5,0.9L16.7,52.5z
							 M16.4,52.7l-1.7,1l-1.5-0.9l1.7-1L16.4,52.7z M14.3,53.9l-1.7,1L11.1,54l1.7-1L14.3,53.9z M12.2,55.1l-1.7,1L9,55.2l1.7-1
							L12.2,55.1z M12.6,55.3l1.5,0.9l-1.7,1l-1.5-0.9L12.6,55.3z M14.5,56.4l1.5,0.9l-1.7,1l-1.5-0.9L14.5,56.4z M16.4,57.5
							l1.5,0.9l-1.7,1l-1.5-0.9L16.4,57.5z M18.3,58.6l1.5,0.9l-1.7,1l-1.5-0.9L18.3,58.6z M20.1,59.6l1.5,0.9l-1.7,1l-1.5-0.9
							L20.1,59.6z M22,60.7l1.5,0.9l-1.7,1l-1.5-0.9L22,60.7z M23.9,61.8l1.5,0.9l-1.7,1l-1.5-0.9L23.9,61.8z M25.8,62.9l1.5,0.9
							l-1.7,1l-1.5-0.9L25.8,62.9z M27.7,64l1.5,0.9l-1.7,1L26,65L27.7,64z M29.6,65.1l1.5,0.9l-1.7,1l-1.5-0.9L29.6,65.1z
							 M29.9,64.9l1.7-1l1.5,0.9l-1.7,1L29.9,64.9z M32,63.7l1.7-1l1.5,0.9l-1.7,1L32,63.7z M34,62.5l1.7-1l1.5,0.9l-1.7,1L34,62.5z
							 M35.9,59.2l1.5,0.9l-1.7,1l-1.5-0.9L35.9,59.2z M35.6,59l-1.7,1l-1.5-0.9l1.7-1L35.6,59z M33.7,57.9l-1.7,1L30.5,58l1.7-1
							L33.7,57.9z M31.8,56.9l-1.7,1L28.6,57l1.7-1L31.8,56.9z M29.9,55.8l-1.7,1l-1.5-0.9l1.7-1L29.9,55.8z M28,54.7l-1.7,1
							l-1.5-0.9l1.7-1L28,54.7z M26.1,53.6l-1.7,1l-1.5-0.9l1.7-1L26.1,53.6z M22.7,51.6l1.5,0.9l-1.7,1L21,52.6L22.7,51.6z
							 M22.4,51.4l-1.7,1l-1.5-0.9l1.7-1L22.4,51.4z M20.5,50.3l-1.7,1l-1.5-0.9l1.7-1L20.5,50.3z M25.3,43.6l1.6,0.9l-1.7,1
							l-1.6-0.9L25.3,43.6z M23.2,44.7l1.6,0.9l-1.7,1l-1.6-0.9L23.2,44.7z M21.1,45.9l1.6,0.9l-1.7,1l-1.6-0.9L21.1,45.9z
							 M19.1,47.1l1.6,0.9L19,49l-1.6-0.9L19.1,47.1z M17,48.3l1.6,0.9l-1.7,1l-1.6-0.9L17,48.3z M14.9,49.5l1.6,0.9l-1.7,1
							l-1.6-0.9L14.9,49.5z M12.9,50.7l1.6,0.9l-1.7,1l-1.6-0.9L12.9,50.7z M10.8,51.9l1.6,0.9l-1.7,1l-1.6-0.9L10.8,51.9z
							 M8.8,53.1l1.6,0.9l-1.7,1l-1.6-0.9L8.8,53.1z M5,55.2l1.7-1l1.6,0.9l-1.7,1L5,55.2z M7,56.4l1.7-1l1.5,0.9l-1.7,1L7,56.4z
							 M8.8,57.5l1.7-1l1.5,0.9l-1.7,1L8.8,57.5z M10.7,58.5l1.7-1l1.5,0.9l-1.7,1L10.7,58.5z M12.6,59.6l1.7-1l1.5,0.9l-1.7,1
							L12.6,59.6z M14.5,60.7l1.7-1l1.5,0.9l-1.7,1L14.5,60.7z M16.4,61.8l1.7-1l1.5,0.9l-1.7,1L16.4,61.8z M18.3,62.9l1.7-1
							l1.5,0.9l-1.7,1L18.3,62.9z M20.1,64l1.7-1l1.5,0.9l-1.7,1L20.1,64z M22,65.1l1.7-1l1.5,0.9l-1.7,1L22,65.1z M23.9,66.2l1.7-1
							l1.5,0.9l-1.7,1L23.9,66.2z M25.8,67.3l1.7-1l1.5,0.9l-1.7,1L25.8,67.3z M29.1,69.2l-1.5-0.8l1.7-1l1.4,0.8L29.1,69.2z
							 M31.2,68l-1.4-0.8l1.7-1l1.4,0.8L31.2,68z M33.3,66.8L31.8,66l1.7-1l1.5,0.8L33.3,66.8z M35.3,65.6l-1.4-0.8l1.7-1l1.5,0.8
							L35.3,65.6z M37.4,64.4l-1.4-0.8l1.7-1l1.4,0.8L37.4,64.4z M39.4,63.2L38,62.4l1.7-1l1.4,0.8L39.4,63.2z M41.5,62l-1.4-0.8
							l1.7-1l1.4,0.8L41.5,62z M43.6,60.9L42.1,60l1.7-1l1.4,0.8L43.6,60.9z M45.6,59.7l-1.4-0.8l1.7-1l1.4,0.8L45.6,59.7z
							 M47.7,58.5l-1.4-0.8l1.7-1l1.4,0.8L47.7,58.5z M49.7,57.3l-1.4-0.8l1.7-1l1.4,0.8L49.7,57.3z M51.8,56.1l-1.4-0.8l1.7-1
							l1.4,0.8L51.8,56.1z M53.9,54.9l-1.4-0.8l1.7-1l1.4,0.8L53.9,54.9z M55.9,53.7l-1.4-0.8l1.7-1l1.4,0.8L55.9,53.7z M58,52.5
							l-1.4-0.8l1.7-1l1.4,0.8L58,52.5z M60,51.3l-1.4-0.8l1.7-1l1.4,0.8L60,51.3z M62.1,50.1l-1.4-0.8l1.7-1l1.4,0.8L62.1,50.1z
							 M64.2,49l-1.4-0.8l1.7-1l1.4,0.8L64.2,49z M66.2,47.8l-1.5-0.8l1.7-1l1.4,0.8L66.2,47.8z M68.3,46.6l-1.4-0.8l1.7-1l1.5,0.8
							L68.3,46.6z M70.4,45.4l-1.4-0.8l1.7-1l1.4,0.8L70.4,45.4z M72.4,44.2L71,43.4l1.7-1l1.4,0.8L72.4,44.2z M74.5,43L73,42.2
							l1.7-1l1.4,0.8L74.5,43z M76.5,41.8L75.1,41l1.7-1l1.4,0.8L76.5,41.8z M78.6,40.6l-1.4-0.8l1.7-1l1.4,0.8L78.6,40.6z
							 M80.7,39.4l-1.4-0.8l1.7-1l1.4,0.8L80.7,39.4z M82.7,38.2l-1.4-0.8l1.7-1l1.4,0.8L82.7,38.2z M84.8,37.1l-1.4-0.8l1.7-1
							l1.4,0.8L84.8,37.1z M86.8,35.9L85.4,35l1.7-1l1.4,0.8L86.8,35.9z M88.9,34.7l-1.4-0.8l1.7-1l1.4,0.8L88.9,34.7z M91,33.5
							l-1.5-0.8l1.7-1l1.4,0.8L91,33.5z"/>
						<path class="st1" d="M73.8,26.5L73.6,26l-1.7-1l-0.3,0.1l0,0l-1.7,1l0,0l-0.3,0.2l0.3,0.3l0,0l1.5,0.9L71,27.7l0.3,0.3
							l0.6-0.3l0.7,0.4l0.4-0.2l-0.7-0.4L73.8,26.5z M70.3,26.3l1.7-1l1.5,0.9l-1.7,1L70.3,26.3z"/>
						<path class="st1" d="M34.2,38.4l1.3-0.8l1.6,0.9l-1.3,0.8l0.4,0.2l1.3-0.8l1.5,0.9l-1.7,1l-0.6-0.4l0,0.4l0.3,0.2L36.7,41
							l0,0.4l0.6-0.4l0.2,0.1l0.3-0.2l-0.2-0.1l1.7-1l0.1,0.1l0.3-0.2l-0.1-0.1l1.7-1l0,0l0.8-0.5l0.1-0.1l0.1-0.4l-1,0.6l-1.5-0.9
							l1.7-1l1,0.6l0.1-0.4L42,36.1l0.9-0.5l0.1-0.5l-1.3,0.8L40,35l1.7-1l1.3,0.8l0.1-0.3c0,0,0-0.1,0-0.1l-1.1-0.6l1.7-1l0.5,0.3
							l0.2-0.3l-0.4-0.2l1.7-1l0.2,0.1l0.4-0.2l-0.2-0.1l1.7-1l0.4,0.2l0.5-0.1l-0.5-0.3l1.7-1l1.1,0.6l0.5-0.1l-1.2-0.7l1.7-1
							l1.2,0.7l0.4-0.2l-1.2-0.7l1.7-1l1.3,0.8l0.4-0.2l-1.4-0.8l1.7-1l1.3,0.7V26l-0.9-0.5l0.9-0.5v0c0,0,0,0,0,0c0,0,0,0,0,0
							l1.2-2.1L33.1,37.7L34.2,38.4z M41.1,38.4l-1.7,1l-1.5-0.9l1.7-1L41.1,38.4z M39.7,35.2l1.6,0.9l-1.7,1L38,36.2L39.7,35.2z
							 M37.6,36.4l1.6,0.9l-1.7,1l-1.6-0.9L37.6,36.4z"/>
						<path class="st1" d="M28.2,48.5l0.8-0.4l0.7,0.4l0.3-0.3l-0.6-0.4l0.6-0.4l-0.4-0.2l-0.6,0.4l-0.6-0.3v0.1c0,0,0,0.1,0,0.1
							l-0.1,0.1l0.3,0.2l-0.6,0.4L28.2,48.5z"/>
						<path class="st1" d="M66.1,21.8L66,21.4l-1.2-0.7l0.7-0.4L65,19.2c0,0,0,0,0,0l-1.7,1L66.1,21.8z"/>
					</g>
					<g>
						<g class="st2">
							<g>
								<g>
									<polygon class="st3" points="64.8,21.2 62.5,19.9 59.6,21.5 62,24.1 									"/>
									<g>
										<polygon class="st4" points="61.7,22.7 61.3,22.5 64.1,20.8 64.6,21.1 										"/>
										<polygon class="st4" points="61,22.3 60.6,22.1 63.4,20.4 63.9,20.7 										"/>
										<polygon class="st4" points="60.3,21.9 59.9,21.7 62.7,20 63.2,20.3 										"/>
									</g>
									<polygon class="st4" points="62,22.9 59.6,21.5 57.6,25 59.9,29.7 									"/>
									<g>
										
											<rect x="60.3" y="22.3" transform="matrix(0.8651 0.5015 -0.5015 0.8651 20.3718 -27.0512)" class="st5" width="0.5" height="4"/>
										
											<rect x="59.6" y="21.9" transform="matrix(0.8664 0.4993 -0.4993 0.8664 19.9441 -26.6533)" class="st5" width="0.5" height="4"/>
										
											<rect x="58.9" y="21.5" transform="matrix(0.8667 0.4989 -0.4989 0.8667 19.6253 -26.3387)" class="st5" width="0.5" height="4"/>
									</g>
									<polygon class="st6" points="59.9,26.4 57.6,25 57.6,28.3 59.9,29.7 									"/>
									<g>
										<polygon points="59.7,29.5 59.3,29.3 59.3,26 59.7,26.2 										"/>
										<polygon points="59,29.1 58.6,28.9 58.6,25.6 59,25.8 										"/>
										<polygon points="58.3,28.7 57.9,28.5 57.9,25.2 58.3,25.4 										"/>
									</g>
									<polygon class="st5" points="62,30.8 59.9,29.7 59.9,26.4 62,22.9 64.8,21.2 66.8,22.4 66.8,25.7 64.8,29.2 									"/>
									<polygon class="st4" points="62.6,28.8 64.2,27.8 65.3,25.8 65.3,24 65.1,23.8 65.1,25.7 63.9,27.7 62.3,28.6 									"/>
									<polygon class="st6" points="62.3,28.6 63.9,27.7 65.1,25.7 65.1,23.8 64.2,23.3 62.9,24 62.4,24.6 61.4,26.2 61.4,28.1 
																			"/>
									<polygon class="st4" points="62,27.7 61.9,27.7 61.9,27.5 62,27.4 62.1,27.3 62.2,27.3 62.2,27.5 62.1,27.6 									"/>
									<polygon class="st5" points="64.5,25.2 64.4,25.2 64.4,25 64.5,24.9 64.6,24.8 64.7,24.9 64.7,25 64.6,25.2 									"/>
									<polygon class="st4" points="63.5,27.3 63.4,27.2 63.4,27.1 63.5,27 63.6,26.9 63.7,26.9 63.7,27.1 63.6,27.2 									"/>
									<polygon class="st5" points="63.5,24.4 63.4,24.4 63.4,24.2 63.5,24.1 63.6,24 63.7,24 63.7,24.2 63.6,24.3 									"/>
									<polygon class="st5" points="62,25.7 61.9,25.7 61.9,25.5 62,25.4 62.1,25.3 62.2,25.4 62.2,25.5 62.1,25.7 									"/>
									<g>
										<polygon class="st4" points="62.9,26.6 62.6,26.4 62.6,25.9 62.9,25.4 63.3,25.1 63.6,25.3 63.7,25.8 63.3,26.4 
																					"/>
										<polygon class="st5" points="63.2,26.8 62.9,26.6 62.9,26.1 63.2,25.5 63.6,25.3 63.9,25.5 63.9,26 63.6,26.5 										
											"/>
									</g>
								</g>
								<g>
									<polygon class="st3" points="34.5,38.7 32.2,37.4 29.3,39 31.7,41.5 									"/>
									<g>
										<polygon class="st4" points="31.4,40.2 31,40 33.9,38.3 34.3,38.6 										"/>
										<polygon class="st4" points="30.7,39.8 30.3,39.6 33.2,37.9 33.6,38.2 										"/>
										<polygon class="st4" points="30,39.4 29.6,39.2 32.5,37.5 32.9,37.8 										"/>
									</g>
									<polygon class="st4" points="31.7,40.4 29.3,39 27.3,42.5 29.7,47.2 									"/>
									<g>
										
											<rect x="30" y="39.8" transform="matrix(0.8652 0.5014 -0.5014 0.8652 25.0503 -9.5)" class="st5" width="0.5" height="4"/>
										
											<rect x="29.3" y="39.4" transform="matrix(0.8664 0.4993 -0.4993 0.8664 24.6284 -9.1915)" class="st5" width="0.5" height="4"/>
										
											<rect x="28.6" y="39" transform="matrix(0.8663 0.4996 -0.4996 0.8663 24.3498 -8.8975)" class="st5" width="0.5" height="4"/>
									</g>
									<polygon class="st6" points="29.7,43.9 27.3,42.5 27.3,45.8 29.7,47.2 									"/>
									<g>
										<polygon points="29.4,47 29,46.8 29,43.5 29.4,43.7 										"/>
										<polygon points="28.7,46.6 28.3,46.4 28.3,43.1 28.7,43.3 										"/>
										<polygon points="28,46.2 27.6,46 27.6,42.7 28,42.9 										"/>
									</g>
									<polygon class="st5" points="31.7,48.3 29.7,47.2 29.7,43.9 31.7,40.4 34.5,38.7 36.5,39.9 36.5,43.2 34.5,46.7 									
										"/>
									<polygon class="st4" points="32.3,46.2 33.9,45.3 35.1,43.3 35.1,41.5 34.8,41.3 34.8,43.2 33.6,45.2 32,46.1 									"/>
									<polygon class="st6" points="32,46.1 33.6,45.2 34.8,43.2 34.8,41.3 33.9,40.8 32.6,41.5 32.1,42.1 31.1,43.7 31.1,45.6 
																			"/>
									<polygon class="st5" points="31.7,45.2 31.6,45.1 31.6,45 31.7,44.9 31.8,44.8 31.9,44.8 31.9,45 31.8,45.1 									"/>
									<polygon class="st5" points="34.2,42.7 34.1,42.7 34.1,42.5 34.2,42.4 34.3,42.3 34.4,42.4 34.4,42.5 34.3,42.7 									
										"/>
									<polygon class="st5" points="33.2,44.8 33.1,44.7 33.1,44.6 33.2,44.5 33.3,44.4 33.4,44.4 33.4,44.6 33.3,44.7 									
										"/>
									<polygon class="st5" points="33.2,41.9 33.1,41.8 33.1,41.7 33.2,41.6 33.3,41.5 33.4,41.5 33.4,41.7 33.3,41.8 									
										"/>
									<polygon class="st5" points="31.7,43.2 31.6,43.2 31.6,43 31.7,42.9 31.8,42.8 31.9,42.9 31.9,43 31.8,43.1 									"/>
									<g>
										<polygon class="st4" points="32.6,44.1 32.3,43.9 32.3,43.4 32.6,42.9 33.1,42.6 33.3,42.8 33.4,43.3 33.1,43.9 
																					"/>
										<polygon class="st5" points="32.9,44.3 32.6,44.1 32.6,43.6 32.9,43 33.3,42.8 33.6,42.9 33.6,43.5 33.3,44 										"/>
									</g>
								</g>
							</g>
							<g>
								<polygon class="st4" points="63.3,25.2 63,29.3 62.4,28.9 62.4,25.1 								"/>
								<polygon class="st5" points="65,28.1 63,29.3 63,25.5 63.7,24.7 65,24.3 								"/>
								<polygon class="st3" points="65,24.3 63,25.5 62.4,25.1 64.4,23.9 								"/>
							</g>
							<g>
								<polygon class="st4" points="63.1,26.1 63.3,25.7 66,27 65.5,27.8 								"/>
								<polygon class="st5" points="65.7,27.9 66,27.8 66.2,27.4 66.2,27.1 66,27 65.7,27.1 65.5,27.5 65.5,27.8 								"/>
								<polygon class="st7" points="66.1,27.4 66.1,27.2 66,27.1 65.8,27.2 65.6,27.5 65.6,27.7 65.8,27.8 66,27.7 								"/>
								<polygon class="st6" points="63.1,26.4 63.1,26.1 65.5,27.5 65.5,27.8 								"/>
								<polygon class="st3" points="63.6,25.6 63.3,25.7 65.7,27.1 66,27 								"/>
							</g>
							<g>
								<polygon class="st8" points="65.7,18.3 65.2,19.2 66.7,22.7 66.9,22.8 69,21.9 69.5,21 71.6,15.1 71.4,15 								"/>
								<polygon class="st9" points="66,18.4 65.4,19.3 66.9,22.8 67.4,23.1 69.3,22.1 69.8,21.2 72.1,15.4 71.6,15.1 								"/>
							</g>
							<g>
								<g>
									<g>
										<polygon class="st8" points="22.5,48.9 22,49.8 22,50.7 22.2,50.8 27.4,48.2 27.9,47.3 27.6,46.3 27.4,46.1 										"/>
										<polygon class="st9" points="22.7,49.1 22.2,50 22.2,50.8 22.7,51.1 27.6,48.3 28.2,47.4 28.2,46.6 27.6,46.3 										
											"/>
									</g>
									<g>
										<polygon class="st10" points="23.3,49.6 32.2,52.3 32.2,52.7 30.1,53.9 23.3,50 										"/>
										<polygon class="st11" points="27.1,47.4 29.9,51 32.2,52.3 30.1,53.5 23.3,49.6 										"/>
									</g>
								</g>
								<g>
									<polygon class="st10" points="40.6,55.7 40.6,55.2 39.5,55.4 34.4,54 30.1,53.5 30.1,53.9 36.8,57.8 									"/>
									<polygon class="st11" points="40.6,55.2 34.4,53.6 32.2,52.3 30.1,53.5 36.8,57.4 									"/>
								</g>
							</g>
							<g>
								<polygon class="st5" points="39.1,47.3 32.1,45.3 32.1,45.7 36,49.1 42,51.4 44,50.2 44,49.8 								"/>
								<polygon class="st3" points="39.1,47 34.1,44.1 32.1,45.3 36,48.7 42,51 44,49.8 								"/>
							</g>
							<g>
								<g>
									<polygon class="st4" points="33,41.7 32.7,45.6 32.1,45.3 32.1,41.6 									"/>
									<polygon class="st5" points="34.7,44.5 32.7,45.6 32.7,41.9 33.4,41.2 34.7,40.7 									"/>
									<polygon class="st3" points="34.7,40.7 32.7,41.9 32.1,41.6 34.1,40.4 									"/>
								</g>
								<g>
									<g>
										<polygon class="st4" points="33,44.1 33.1,43.9 34.1,47.2 33.8,47.6 										"/>
										<polygon class="st5" points="33.9,47.7 34.1,47.6 34.2,47.4 34.2,47.2 34.1,47.2 33.9,47.3 33.8,47.5 33.8,47.6 
																					"/>
										<polygon class="st5" points="34,47.4 34.2,47.2 33.3,43.9 33.2,43.8 33.2,44 										"/>
										<polygon class="st7" points="34.1,47.4 34.1,47.3 34,47.3 33.9,47.3 33.8,47.5 33.8,47.6 33.9,47.6 34,47.6 										"/>
										<polygon class="st6" points="33,44.3 33,44.1 33.8,47.5 33.8,47.6 										"/>
										<polygon class="st3" points="33.2,43.8 33.1,43.9 33.9,47.3 34.1,47.2 										"/>
									</g>
									<g>
										<polygon class="st4" points="33.4,43.3 33.6,42.9 36.3,44.1 35.8,45 										"/>
										<polygon class="st5" points="36,45.1 36.3,44.9 36.5,44.6 36.5,44.2 36.3,44.1 36,44.3 35.8,44.7 35.8,45 										"/>
										<polygon class="st7" points="36.4,44.6 36.4,44.4 36.2,44.3 36,44.4 35.9,44.6 35.9,44.9 36,45 36.2,44.8 										"/>
										<polygon class="st6" points="33.4,43.6 33.4,43.3 35.8,44.7 35.8,45 										"/>
										<polygon class="st3" points="33.9,42.7 33.6,42.9 36,44.3 36.3,44.1 										"/>
									</g>
									<g>
										<polygon class="st4" points="33.8,42.5 33.9,42.3 38.4,42.1 38.1,42.6 										"/>
										<polygon class="st5" points="33.9,42.7 38.2,42.6 38.2,42.4 35.8,42.5 34.1,42.6 33.8,42.6 										"/>
										<polygon class="st5" points="38.2,42.6 38.4,42.5 38.5,42.3 38.5,42.2 38.4,42.1 38.2,42.2 38.1,42.4 38.1,42.6 
																					"/>
										<polygon class="st7" points="38.4,42.3 38.4,42.2 38.3,42.2 38.2,42.2 38.1,42.4 38.1,42.5 38.2,42.5 38.3,42.5 
																					"/>
										<polygon class="st6" points="33.8,42.6 33.8,42.5 38.1,42.4 38.1,42.6 										"/>
										<polygon class="st3" points="34.1,42.2 33.9,42.3 38.2,42.2 38.4,42.1 										"/>
									</g>
									<g>
										<polygon class="st4" points="33,42.9 33.1,42.7 34.1,45.2 33.8,45.6 										"/>
										<polygon class="st5" points="33.9,45.7 34.1,45.6 34.2,45.4 34.2,45.2 34.1,45.2 33.9,45.2 33.8,45.4 33.8,45.6 
																					"/>
										<polygon class="st5" points="34,45.4 34.2,45.2 33.3,42.7 33.2,42.6 33.2,42.9 										"/>
										<polygon class="st7" points="34.1,45.4 34.1,45.3 34,45.2 33.9,45.3 33.8,45.4 33.8,45.5 33.9,45.6 34,45.5 										"/>
										<polygon class="st6" points="33,43.1 33,42.9 33.8,45.4 33.8,45.6 										"/>
										<polygon class="st3" points="33.2,42.6 33.1,42.7 33.9,45.2 34.1,45.2 										"/>
									</g>
								</g>
							</g>
							<g>
								<polygon class="st5" points="74.3,33.5 62.4,28.9 62.4,29.3 66.3,32.8 72.3,35 74.3,33.9 								"/>
								<polygon class="st3" points="69.4,30.6 64.4,27.8 62.4,28.9 66.3,32.4 72.3,34.6 74.3,33.5 								"/>
							</g>
							<g>
								<polygon class="st5" points="32.4,52.8 31,53.7 30.6,52.8 31,52.4 32.4,51.5 								"/>
								<polygon class="st4" points="31,53.7 29.7,53 29.7,51.7 31,52.4 								"/>
							</g>
							<polygon class="st3" points="74.9,26.5 71.9,24.8 70.6,24 67.6,22.3 69.4,21.3 72.4,23 73.7,23.7 76.8,25.5 							"/>
							<g>
								<polygon class="st3" points="68.4,22.4 67.6,22.3 67.6,21.8 68.6,21.7 								"/>
								<polygon class="st12" points="70.6,23.5 67.6,21.8 69.4,20.8 72.4,22.5 								"/>
							</g>
							<g>
								<g>
									<polygon class="st4" points="69.4,29.7 69.6,29.4 72.3,30.6 71.8,31.5 									"/>
									<polygon class="st5" points="72,31.6 72.3,31.4 72.5,31.1 72.5,30.7 72.3,30.6 72,30.8 71.8,31.1 71.8,31.5 									"/>
									<polygon class="st7" points="72.4,31.1 72.4,30.8 72.3,30.7 72.1,30.9 71.9,31.1 71.9,31.3 72.1,31.4 72.3,31.3 									
										"/>
									<polygon class="st6" points="69.4,30.1 69.4,29.7 71.8,31.1 71.8,31.5 									"/>
									<polygon class="st3" points="69.9,29.2 69.6,29.4 72,30.8 72.3,30.6 									"/>
								</g>
								<g>
									<polygon class="st5" points="64.4,26 68.2,26.3 68.2,26.1 67.7,26 64.4,25.7 64.2,25.9 									"/>
									<polygon class="st4" points="64.2,25.5 64.4,25.2 68.5,25.3 68,26.2 									"/>
									<polygon class="st5" points="68.2,26.3 68.5,26.2 68.7,25.8 68.7,25.5 68.5,25.3 68.2,25.5 68,25.9 68,26.2 									"/>
									<polygon class="st7" points="68.6,25.8 68.6,25.6 68.4,25.5 68.2,25.6 68.1,25.9 68.1,26.1 68.2,26.2 68.4,26.1 									
										"/>
									<polygon class="st6" points="64.2,25.9 64.2,25.5 68,25.9 68,26.2 									"/>
									<polygon class="st3" points="64.7,25 64.4,25.2 68.2,25.5 68.5,25.3 									"/>
								</g>
								<g>
									<polygon class="st4" points="68,25.9 68.2,25.5 72.3,29.4 71.8,30.3 									"/>
									<polygon class="st5" points="72.3,29.8 72.5,29.6 68.7,25.5 68.5,25.3 68.5,25.6 									"/>
									<polygon class="st5" points="72,30.4 72.3,30.2 72.5,29.9 72.5,29.6 72.3,29.4 72,29.6 71.8,30 71.8,30.3 									"/>
									<polygon class="st7" points="72.4,29.9 72.4,29.7 72.3,29.6 72.1,29.7 71.9,29.9 71.9,30.2 72.1,30.3 72.3,30.1 									
										"/>
									<polygon class="st6" points="68,26.2 68,25.9 71.8,30 71.8,30.3 									"/>
									<polygon class="st3" points="68.5,25.3 68.2,25.5 72,29.6 72.3,29.4 									"/>
								</g>
								<g>
									<polygon class="st4" points="72.6,30.5 72.3,34.6 71.7,34.3 71.7,30.4 									"/>
									<polygon class="st5" points="74.3,33.5 72.3,34.6 72.3,30.8 72.9,30 74.3,29.6 									"/>
									<polygon class="st3" points="74.3,29.6 72.3,30.8 71.7,30.4 73.7,29.3 									"/>
								</g>
							</g>
							<g>
								<g>
									<polygon class="st5" points="67.7,30.4 63.6,28 60.5,29.4 59.2,28.7 43.6,37.7 42.7,37.7 42.7,38.2 48.5,41.5 									"/>
									<polygon class="st3" points="67.7,29.9 63.6,27.5 60.5,29 59.2,28.2 42.7,37.7 48.5,41.1 									"/>
								</g>
								<g>
									<polygon class="st9" points="60.5,32.1 65.1,29.6 67.7,30.4 53.9,35.7 45.6,40.5 43.3,39.2 45,37.3 47.8,35.7 									"/>
									<polygon class="st13" points="45.6,40.5 43.3,39.2 43.3,34.5 44.9,35 45.6,35.9 									"/>
									<polygon class="st8" points="60.5,27.5 65.1,24.9 67.7,25.7 53.9,31.1 45.6,35.9 42.3,38.9 43.3,34.5 45,32.6 47.8,31 
																			"/>
								</g>
								<g>
									<polygon class="st9" points="42.3,41.7 29.5,48.8 31.3,52.9 46.2,45.1 48.7,41.6 51.4,43.2 59.7,38.4 69,26.5 73.7,23.7 
										73.7,23.1 67.5,26 53.9,33.9 45.6,38.7 									"/>
									<polygon class="st14" points="51.4,43.2 46.2,45.1 46.2,40.5 48.6,38.7 51.4,38.6 									"/>
									<polygon class="st13" points="31.3,52.9 28.8,51.5 29.5,48.8 31.6,48.6 32,50.2 									"/>
									<polygon class="st8" points="42.3,38.3 37.2,41.5 29.5,48.8 32,50.2 40.5,43.4 46.2,40.5 51.4,38.6 59.7,33.8 69,25.8 
										73.7,23.1 72.4,22.4 67.7,25.1 53.9,30.5 45.6,35.3 42.5,38.1 									"/>
									<polygon class="st15" points="42,41.3 40.9,40.7 39.4,40.7 38.3,41.3 38.3,42.2 39.4,42.8 40.9,42.8 42,42.2 									"/>
								</g>
								<g>
									<polygon class="st9" points="53.7,35.5 53.7,35.8 53.2,36.1 49.6,36.7 45.4,38.7 44.3,38.1 44.3,37.8 50.5,34 51,34 
																			"/>
									<polygon class="st5" points="51.9,36.1 49.7,38 47.2,39.4 46.6,39.4 45.4,38.7 50.5,35.5 51,35.5 									"/>
									<polygon class="st3" points="50,34.3 49.7,38 53.2,36.1 52.4,34.6 									"/>
								</g>
								<g>
									<polygon class="st10" points="62.9,27.8 60.1,26.1 60.5,25.8 65.5,27.2 65.5,27.5 									"/>
									<polygon class="st16" points="65.5,27.5 58.8,32.8 54.6,35.2 53.4,30.6 60.5,26 									"/>
									<polygon class="st17" points="54.6,35.2 51.6,33.4 52.2,29.6 53.8,29.7 54,30.6 									"/>
									<polygon class="st0" points="54,32.2 53.8,30.7 52.4,29.9 52.2,31.2 									"/>
									<polygon class="st11" points="54,30.6 56.5,29.2 60.5,26 60.5,25.8 60.2,25.8 54.7,28.1 52.2,29.6 									"/>
								</g>
								<g>
									<polygon class="st8" points="50.9,32.1 52.1,31.4 53.4,32.2 52.3,33.4 									"/>
									<polygon class="st14" points="52.3,32.9 53.4,32.2 54.4,33.9 53.3,36.1 									"/>
									<polygon class="st9" points="53.3,34.5 54.4,33.9 54.4,35.5 53.3,36.1 									"/>
									<polygon class="st13" points="53.3,36.1 53.3,34.5 52.3,32.9 50.9,32.1 50,32.6 50,34.2 									"/>
								</g>
								<g>
									<polygon class="st5" points="69.1,36.3 54.3,44.9 51.4,43.2 51.4,42.7 52,42.8 59.7,38.4 71.9,32.3 71.9,32.8 69.4,34.6 
																			"/>
									<polygon class="st3" points="69.1,35.8 54.3,44.4 51.4,42.7 59.7,37.9 67.7,29.9 71.9,32.3 69.4,34.1 									"/>
								</g>
								<g>
									<polygon class="st9" points="65.9,34.1 70.4,31.5 70.4,28 65.7,30 59.7,36.7 51.4,42.7 53.7,42.9 57,43.1 59.8,41.5 
										62.8,35.2 									"/>
									<polygon class="st18" points="58.9,38.8 57.9,39.4 57.2,40.7 57.2,41.8 57.9,42.2 58.9,41.7 59.6,40.4 59.6,39.3 									
										"/>
									<polygon class="st14" points="65.9,34.1 59.8,41.5 59.8,38 61.8,34.3 65.9,30.6 									"/>
									<polygon class="st14" points="57,43.1 53.7,44.1 53.4,40.4 55.3,39.7 57,39.6 									"/>
									<polygon class="st9" points="53.6,43.9 46,44.4 46,41.3 53.6,40.8 									"/>
									<polygon class="st8" points="53.5,43.8 46.5,44.4 46.2,44.2 51.8,40.9 53.5,40.9 									"/>
									<polygon class="st13" points="53,39.7 46.2,41.1 46.2,41.6 53.4,41.1 53.4,43.7 46.2,44.2 46.2,44.6 53.7,44.1 53.7,40.6 
																			"/>
									<polygon class="st8" points="65.9,30.6 70.4,28 69,26.5 59.7,34.4 51.4,39.2 46.2,41.1 53.7,40.6 57,39.6 59.8,38 
																			"/>
								</g>
							</g>
							<g>
								<polygon class="st4" points="76.8,25.5 74.9,26.5 74.9,26.1 75.6,25.3 76.8,25 								"/>
								<polygon class="st3" points="73,24.1 71.9,24.3 71.9,24.8 73.2,24.9 								"/>
								<polygon class="st12" points="73.7,23.2 76.8,25 74.9,26.1 71.9,24.3 								"/>
							</g>
							<g>
								<g>
									<g>
										<polygon class="st13" points="74.1,24.3 66.7,20 66.7,19.7 76,22.2 77.1,22.2 77.1,22.5 										"/>
										<polygon class="st8" points="74.1,23.9 66.7,19.7 69.8,17.9 77.1,22.2 										"/>
									</g>
								</g>
								<g>
									<polygon class="st10" points="76.8,22.1 69.4,17.9 69.4,17.6 78.1,21 78.1,21.3 									"/>
									<polygon class="st11" points="76.8,21.8 69.4,17.6 70.8,16.8 78.1,21 									"/>
								</g>
								<g>
									<polygon class="st8" points="73.3,22.6 72.8,23.6 74.3,27.1 74.5,27.2 76.6,26.3 77.1,25.4 79.2,19.5 79,19.4 									"/>
									<polygon class="st9" points="73.5,22.8 73,23.7 74.5,27.2 75,27.5 76.8,26.4 77.4,25.5 79.7,19.8 79.2,19.5 									"/>
								</g>
							</g>
							<g>
								<g>
									<g>
										<polygon class="st4" points="39.5,46.8 39.7,46.4 42.4,47.7 41.9,48.5 										"/>
										<polygon class="st5" points="42.1,48.6 42.4,48.5 42.6,48.1 42.6,47.8 42.4,47.7 42.1,47.8 41.9,48.2 41.9,48.5 
																					"/>
										<polygon class="st7" points="42.5,48.1 42.5,47.9 42.4,47.8 42.2,47.9 42,48.2 42,48.4 42.2,48.5 42.4,48.4 										"/>
										<polygon class="st6" points="39.5,47.1 39.5,46.8 41.9,48.2 41.9,48.5 										"/>
										<polygon class="st3" points="40,46.3 39.7,46.4 42.1,47.8 42.4,47.7 										"/>
									</g>
									<g>
										<polygon class="st4" points="36.8,47.1 36.9,47 41.9,47.7 41.7,48.1 										"/>
										<polygon class="st5" points="36.9,47.4 41.8,48.2 41.8,48 36.9,47.3 36.8,47.3 										"/>
										<polygon class="st5" points="41.8,48.2 41.9,48.1 42,47.9 42,47.7 41.9,47.7 41.8,47.8 41.7,47.9 41.7,48.1 										"/>
										<polygon class="st7" points="42,47.9 42,47.8 41.9,47.7 41.8,47.8 41.7,47.9 41.7,48.1 41.8,48.1 41.9,48 										"/>
										<polygon class="st6" points="36.8,47.3 36.8,47.1 41.7,47.9 41.7,48.1 										"/>
										<polygon class="st3" points="37,46.9 36.9,47 41.8,47.8 41.9,47.7 										"/>
									</g>
									<g>
										<polygon class="st4" points="36.8,49.2 36.9,49 41.9,48.2 41.7,48.7 										"/>
										<polygon class="st5" points="36.9,49.4 41.8,48.8 41.8,48.6 36.9,49.3 36.8,49.4 										"/>
										<polygon class="st5" points="41.8,48.8 41.9,48.7 42,48.5 42,48.3 41.9,48.2 41.8,48.3 41.7,48.5 41.7,48.7 										"/>
										<polygon class="st7" points="42,48.5 42,48.4 41.9,48.3 41.8,48.4 41.7,48.5 41.7,48.6 41.8,48.7 41.9,48.6 										"/>
										<polygon class="st6" points="36.8,49.4 36.8,49.2 41.7,48.5 41.7,48.7 										"/>
										<polygon class="st3" points="37,48.9 36.9,49 41.8,48.3 41.9,48.2 										"/>
									</g>
									<g>
										<polygon class="st5" points="41.8,44.3 42.6,47.3 42.8,47.2 41.9,44.2 41.8,44.1 										"/>
										<polygon class="st4" points="41.6,44.4 41.7,44.2 42.7,47.1 42.4,47.6 										"/>
										<polygon class="st5" points="42.5,47.7 42.7,47.6 42.8,47.4 42.8,47.2 42.7,47.1 42.5,47.2 42.4,47.4 42.4,47.6 
																					"/>
										<polygon class="st7" points="42.7,47.4 42.7,47.3 42.6,47.2 42.5,47.3 42.5,47.4 42.5,47.5 42.5,47.6 42.6,47.5 
																					"/>
										<polygon class="st6" points="41.6,44.6 41.6,44.4 42.4,47.4 42.4,47.6 										"/>
										<polygon class="st3" points="41.8,44.1 41.7,44.2 42.5,47.2 42.7,47.1 										"/>
									</g>
								</g>
								<g>
									<polygon class="st4" points="42.3,46.9 42,51 41.4,50.6 41.4,46.8 									"/>
									<polygon class="st5" points="44,49.8 42,51 42,47.1 42.6,46.4 44,46 									"/>
									<polygon class="st3" points="44,46 42,47.1 41.4,46.8 43.4,45.6 									"/>
								</g>
							</g>
							<g>
								<polygon class="st19" points="46.7,45.8 44.4,44.4 41.5,46.1 43.9,48.6 								"/>
								<g>
									<polygon class="st4" points="43.6,47.3 43.2,47 46,45.4 46.5,45.6 									"/>
									<polygon class="st4" points="42.9,46.9 42.5,46.6 45.3,45 45.8,45.2 									"/>
									<polygon class="st4" points="42.2,46.4 41.8,46.2 44.6,44.6 45.1,44.8 									"/>
								</g>
								<polygon class="st4" points="43.9,47.4 41.5,46.1 39.5,49.6 41.8,54.2 								"/>
								<g>
									
										<rect x="42.1" y="46.9" transform="matrix(0.8658 0.5003 -0.5003 0.8658 30.1467 -14.6419)" class="st5" width="0.5" height="4"/>
									
										<rect x="41.4" y="46.5" transform="matrix(0.8667 0.4989 -0.4989 0.8667 29.746 -14.3257)" class="st5" width="0.5" height="4"/>
									
										<rect x="40.7" y="46.1" transform="matrix(0.8663 0.4996 -0.4996 0.8663 29.4983 -14.0383)" class="st5" width="0.5" height="4"/>
								</g>
								<polygon class="st6" points="41.8,50.9 39.5,49.6 39.5,52.9 41.8,54.2 								"/>
								<g>
									<polygon points="41.6,54.1 41.2,53.8 41.2,50.5 41.6,50.8 									"/>
									<polygon points="40.9,53.7 40.5,53.4 40.5,50.1 40.9,50.4 									"/>
									<polygon points="40.2,53.3 39.8,53 39.8,49.7 40.2,50 									"/>
								</g>
								<polygon class="st5" points="43.9,55.4 41.8,54.2 41.8,50.9 43.9,47.4 46.7,45.8 48.7,46.9 48.7,50.2 46.7,53.7 								"/>
								<path class="st3" d="M47.2,48.5l-1.2-0.7l-1.6,0.9l-1.2,2v1.9l1.2,0.7l1.6-0.9l1.1-2V48.5z"/>
								<polygon class="st4" points="47,50.3 45.9,52.2 44.5,53 43.6,52.5 43.6,51.8 44.4,51.3 45.4,49.4 45.4,48.5 46.1,48.1 
									47,48.6 								"/>
								<polygon class="st5" points="45.4,48.5 45.4,49.4 44.4,51.3 43.6,51.8 43.6,50.8 43.7,50.5 44.2,50.1 44.5,49.2 44.6,49 
																	"/>
								<g>
									<polygon class="st4" points="43.8,50.6 43.7,50.5 44.5,49.2 44.5,49.2 44.5,49.8 44.2,50.3 									"/>
								</g>
								<path class="st17" d="M42.4,53.6v-2.8l1.6-2.9l2.4-1.4l1.8,1v2.8l-1.6,2.9l-2.4,1.4L42.4,53.6z M47.9,50.3l0-2.5l-1.5-0.8
									l-2.2,1.3l-1.6,2.7v2.5l1.5,0.8l2.2-1.3L47.9,50.3z"/>
							</g>
							<g>
								<polygon class="st19" points="77,28.3 74.7,26.9 71.8,28.6 74.2,31.1 								"/>
								<g>
									<polygon class="st4" points="73.9,29.8 73.5,29.5 76.4,27.9 76.8,28.1 									"/>
									<polygon class="st4" points="73.2,29.4 72.8,29.1 75.7,27.5 76.1,27.7 									"/>
									<polygon class="st4" points="72.5,29 72.1,28.7 74.9,27.1 75.4,27.3 									"/>
								</g>
								<polygon class="st4" points="74.2,29.9 71.8,28.6 69.8,32.1 72.1,36.7 								"/>
								<g>
									
										<rect x="72.4" y="29.4" transform="matrix(0.8677 0.4972 -0.4972 0.8677 25.2342 -31.9774)" class="st5" width="0.5" height="4"/>
									
										<rect x="71.7" y="29" transform="matrix(0.8657 0.5005 -0.5005 0.8657 25.1797 -31.8616)" class="st5" width="0.5" height="4"/>
									
										<rect x="71" y="28.6" transform="matrix(0.8662 0.4997 -0.4997 0.8662 24.8251 -31.5214)" class="st5" width="0.5" height="4"/>
								</g>
								<polygon class="st6" points="72.1,33.4 69.8,32.1 69.8,35.4 72.1,36.7 								"/>
								<g>
									<polygon points="71.9,36.6 71.5,36.3 71.5,33 71.9,33.3 									"/>
									<polygon points="71.2,36.2 70.8,35.9 70.8,32.6 71.2,32.9 									"/>
									<polygon points="70.5,35.8 70.1,35.5 70.1,32.2 70.5,32.5 									"/>
								</g>
								<polygon class="st5" points="74.2,37.9 72.1,36.7 72.1,33.4 74.2,29.9 77,28.3 79,29.4 79,32.7 77,36.3 								"/>
								<path class="st3" d="M77.6,31l-1.2-0.7l-1.6,0.9l-1.1,2v1.9l1.1,0.7l1.6-0.9l1.2-2V31z"/>
								<polygon class="st4" points="77.3,32.8 76.2,34.7 74.8,35.6 73.9,35 73.9,34.3 74.7,33.8 75.7,31.9 75.7,31 76.4,30.6 
									77.3,31.2 								"/>
								<polygon class="st5" points="75.7,31 75.7,31.9 74.7,33.8 73.9,34.3 73.9,33.4 74,33.1 74.5,32.6 74.8,31.7 74.9,31.5 
																	"/>
								<g>
									<polygon class="st4" points="74.1,33.1 74,33.1 74.8,31.7 74.8,31.8 74.8,32.3 74.5,32.8 									"/>
								</g>
								<path class="st17" d="M72.7,36.1v-2.8l1.6-2.9l2.4-1.4l1.8,1l0,2.8l-1.6,2.9l-2.4,1.4L72.7,36.1z M78.2,32.8l0-2.5l-1.5-0.8
									l-2.2,1.3L73,33.4l0,2.5l1.5,0.8l2.2-1.2L78.2,32.8z"/>
							</g>
							<g>
								<polygon class="st8" points="36.3,56.9 35.8,57.8 35.8,58.7 36,58.8 41.2,56.1 41.7,55.2 41.4,54.2 41.2,54.1 								"/>
								<polygon class="st9" points="36.5,57 36,57.9 36,58.8 36.5,59.1 41.4,56.3 41.9,55.4 41.9,54.5 41.4,54.2 								"/>
							</g>
							<g>
								<polygon class="st5" points="69.4,34.6 70,34.9 70.7,34.9 70.7,35.3 69.1,36.3 69.1,36.1 								"/>
								<polygon class="st3" points="69.4,34.1 70.7,34.9 69.1,35.8 68.8,35 								"/>
							</g>
						</g>
						<g>
							<path class="st1" d="M43.4,50.8v1.7c0,0.1,0,0.1,0.1,0.1l0.9,0.5c0,0,0.1,0,0.1,0c0,0,0.1,0,0.1,0l1.4-0.8c0,0,0,0,0.1-0.1
								l1.1-1.9c0,0,0-0.1,0-0.1l0-1.7c0-0.1,0-0.1-0.1-0.1L46.2,48c-0.1,0-0.1,0-0.2,0l-0.6,0.4c0,0,0,0,0,0l-0.8,0.4
								c0,0,0,0-0.1,0.1L43.4,50.8C43.4,50.8,43.4,50.8,43.4,50.8z M43.7,50.9l1-1.8l0.5-0.3l0,0.6l-1,1.8l-0.5,0.3V50.9z
								 M43.7,51.9l0.7-0.4c0,0,0,0,0.1-0.1l1.1-1.9c0,0,0-0.1,0-0.1l0-0.8l0.5-0.3l0.8,0.4l0,1.5l-1,1.8l-1.3,0.8l-0.8-0.4V51.9z"
								/>
							<path class="st1" d="M73.7,33.4V35c0,0.1,0,0.1,0.1,0.1l0.9,0.5c0,0,0.1,0,0.1,0c0,0,0.1,0,0.1,0l1.5-0.8c0,0,0,0,0.1-0.1
								l1.1-1.9c0,0,0-0.1,0-0.1v-1.7c0-0.1,0-0.1-0.1-0.1l-0.9-0.5c-0.1,0-0.1,0-0.2,0l-1.5,0.8c0,0,0,0-0.1,0.1L73.7,33.4
								C73.7,33.3,73.7,33.3,73.7,33.4z M74,33.4l1-1.8l0.5-0.3v0.6l-1,1.8L74,34V33.4z M74,34.4l0.7-0.4c0,0,0,0,0.1-0.1l1.1-1.9
								c0,0,0-0.1,0-0.1v-0.8l0.5-0.3l0.8,0.4l0,1.5l-1,1.8l-1.3,0.8L74,34.9V34.4z"/>
							<path class="st1" d="M77,26.5l0.5-0.9c0,0,0,0,0,0l2.4-5.7c0-0.1,0-0.2-0.1-0.2L79,19.2c-0.1,0-0.1,0-0.2,0l-1.7,1l-5.5-3.2
								l0.6-1.6c0-0.1,0-0.2-0.1-0.2L71.7,15l-0.2-0.1c-0.1,0-0.1,0-0.2,0l-5.7,3.3c0,0,0,0-0.1,0.1l-0.5,0.9c0,0,0,0.1,0,0.1
								l1.1,2.6l-3.6-2.1c0,0-0.1,0-0.2,0l-2.8,1.6c-0.1,0-0.1,0-0.1,0.1c0,0,0,0,0,0.1l-2,3.4c0,0,0,0,0,0c0,0,0,0,0,0c0,0,0,0,0,0
								c0,0,0,0,0,0c0,0,0,0,0,0c0,0,0,0,0,0l0,1.8L54.6,28c0,0,0,0,0,0l-2.5,1.4c0,0,0,0,0,0c0,0,0,0,0,0c0,0,0,0,0,0l0,0
								c0,0,0,0,0,0c0,0,0,0,0,0c0,0,0,0,0,0c0,0,0,0,0,0l0,0.1l-4.3,1.2c0,0,0,0,0,0l-2.8,1.6c0,0,0,0,0,0l-1.7,1.9c0,0,0,0,0,0.1
								L42.4,38l-0.1,0.1l-5.1,3.3c0,0,0,0,0,0c0,0,0,0,0,0c0,0,0,0,0,0l-0.4,0.4l0-1.9c0-0.1,0-0.1-0.1-0.1l-4.4-2.5
								c0,0-0.1,0-0.2,0l-2.9,1.6c0,0,0,0,0,0c0,0,0,0,0,0c0,0,0,0,0,0c0,0,0,0,0,0l0,0l-2,3.5l0,0l0,0c0,0,0,0,0,0c0,0,0,0,0,0
								c0,0,0,0,0,0c0,0,0,0,0,0v3.3c0,0.1,0,0.1,0.1,0.1l0.1,0l-4.9,2.8c0,0,0,0-0.1,0.1l-0.5,0.9c0,0,0,0.1,0,0.1v0.9
								c0,0.1,0,0.1,0.1,0.1l0.8,0.4c0,0,0.1,0,0.1,0c0,0,0.1,0,0.1,0l1.2-0.7l11.8,6.8l-0.2,0.3c0,0,0,0.1,0,0.1v0.9
								c0,0.1,0,0.1,0.1,0.1l0.8,0.4c0,0,0.1,0,0.1,0c0,0,0.1,0,0.1,0l4.9-2.8c0,0,0,0,0.1-0.1l0.5-0.9c0,0,0-0.1,0-0.1v-0.8l1.7,1
								c0,0,0.1,0,0.1,0c0,0,0.1,0,0.1,0l2.9-1.7c0,0,0,0,0.1-0.1l2-3.5c0,0,0-0.1,0-0.1l0-3.3c0-0.1,0-0.1-0.1-0.1l-2-1.2
								c0,0,0,0,0,0l-2.3-1.3c-0.1,0-0.1,0-0.2,0l-1.9,1.1l-0.3-1.2c0,0,0-0.1-0.1-0.1L41.9,44c0,0-0.1,0-0.2,0l-0.2,0.1
								c0,0,0,0-0.1,0.1l-0.1,0.2c0,0,0,0.1,0,0.1v0.2c0,0,0,0,0,0l0.3,1.2l-0.3,0.2c0,0,0,0,0,0c0,0,0,0,0,0c0,0,0,0,0,0
								c0,0,0,0,0,0l0,0L41,46.7l-0.9-0.5c-0.1,0-0.1,0-0.2,0l-0.3,0.2c0,0,0,0-0.1,0.1l-0.2,0.4c0,0,0,0.1,0,0.1v0.3l-2.3-0.4
								c0,0-0.1,0-0.1,0l-0.2,0.1c0,0,0,0-0.1,0.1l-0.1,0.2c0,0,0,0.1,0,0.1v0.2c0,0.1,0,0.1,0.1,0.1l0.1,0.1c0,0,0,0,0.1,0l3.2,0.5
								l-0.8,0.4L37,48.7c0,0,0,0-0.1,0l-0.2,0.1c0,0,0,0-0.1,0.1l-0.1,0.2c0,0,0,0.1,0,0.1v0.2c0,0.1,0,0.1,0.1,0.1l0.1,0.1
								c0,0,0.1,0,0.1,0c0,0,0,0,0,0l0.4-0.1l-5.8,3l0.6-2.3l8.5-6.7l5.7-2.9l5.2-1.9c0,0,0,0,0,0l8.3-4.8c0,0,0,0,0,0l9.3-7.9
								l2.6-1.5v0.2l-2.4,1.4c0,0,0,0,0,0l-0.4,0.2l0,0l0,0c0,0,0,0,0,0c0,0,0,0,0,0l-9.3,7.9l-8.3,4.8l-5.2,1.9c0,0,0,0,0,0
								c0,0,0,0,0,0c0,0,0,0,0,0c0,0,0,0,0,0c0,0,0,0,0,0c0,0,0,0,0,0c0,0,0,0,0,0c0,0,0,0,0,0c0,0,0,0,0,0c0,0,0,0,0,0c0,0,0,0,0,0
								c0,0,0,0,0,0c0,0,0,0,0,0c0,0,0,0,0,0v0.5c0,0,0,0.1,0.1,0.1c0,0,0.1,0,0.1,0l4.5-0.3l-4.6,2.6c0,0,0,0,0,0c0,0,0,0,0,0
								c0,0,0,0,0,0c0,0,0,0,0,0c0,0,0,0,0,0c0,0,0,0,0,0c0,0,0,0,0,0c0,0,0,0,0,0c0,0,0,0,0,0c0,0,0,0,0,0c0,0,0,0,0,0c0,0,0,0,0,0
								v0.4c0,0,0,0.1,0.1,0.1c0,0,0.1,0,0.1,0c0,0,0,0,0,0l6.7-0.5l1.2,0.7c0,0,0,0,0,0c0,0,0,0,0,0c0,0,0,0,0,0c0,0,0,0,0,0
								c0,0,0,0,0,0c0,0,0,0,0,0c0,0,0,0,0,0c0,0,0,0,0,0l15.9-9.2l3.9,2.2c0,0,0.1,0,0.1,0c0,0,0.1,0,0.1,0l2.9-1.7
								c0,0,0,0,0.1-0.1l2-3.5c0,0,0-0.1,0-0.1l0-3.3c0-0.1,0-0.1-0.1-0.1l-3.5-2L77,26.5C76.9,26.6,77,26.5,77,26.5z M76.8,20.4
								L75.7,21l-6-3.5l1.1-0.6L76.8,20.4z M73.3,25.3l0.1,0.2L72,24.7v-0.1L73.3,25.3z M72.2,24.3l0.6-0.3l0.4,0.9L72.2,24.3z
								 M73.2,22.6l-0.3,0.5l-5.8-3.4l2.6-1.5l5.5,3.2L73.2,22.6C73.2,22.5,73.2,22.5,73.2,22.6z M67.8,22.2v-0.1l2.4,1.4l-0.1,0.1
								L67.8,22.2z M69.7,23.7l-2.1,1.2l-0.3,0.1l-0.3,0l0-2l0.4,0.2c0,0,0.1,0,0.1,0c0,0,0.1,0,0.1,0l0.7-0.4L69.7,23.7z
								 M67.9,21.8l0.8-0.5l2.6,1.5l-0.8,0.5L67.9,21.8z M65.6,19.3l0.5-0.8l5.5-3.2l0.3,0.2l-0.6,1.4l-0.5-0.3c0,0-0.1,0-0.2,0
								l-1.4,0.8c0,0,0,0,0,0c0,0,0,0,0,0c0,0,0,0,0,0c0,0,0,0,0,0c0,0,0,0,0,0c0,0,0,0,0,0c0,0,0,0,0,0c0,0,0,0,0,0v0.3
								c0,0.1,0,0.1,0.1,0.1l-2.7,1.5c0,0,0,0,0,0c0,0,0,0,0,0c0,0,0,0,0,0c0,0,0,0,0,0c0,0,0,0,0,0v0c0,0,0,0,0,0c0,0,0,0,0,0V20
								c0,0.1,0,0.1,0.1,0.1l1.7,1l-0.9,0.5c0,0,0,0,0,0c0,0,0,0,0,0c0,0,0,0,0,0c0,0,0,0,0,0c0,0,0,0,0,0c0,0,0,0,0,0c0,0,0,0,0,0
								c0,0,0,0,0,0v0.5c0,0.1,0,0.1,0.1,0.1l0.4,0.2l-0.5,0.3L67,22.7L65.6,19.3z M66.3,22.3l0.2,0.5c0,0,0,0.1,0.1,0.1l0.1,0.1
								l0,2.2l-0.9-0.1l-0.2-0.1l0-0.9c0-0.1,0-0.1-0.1-0.1l-1.1-0.7c-0.1,0-0.1,0-0.2,0l-1.3,0.7c0,0,0,0,0,0l-0.5,0.5c0,0,0,0,0,0
								l-0.8,1.4l-0.9-0.2c0,0,0,0,0,0l0,0l1.5-2.6l2.8-1.6L66.3,22.3z M50.1,34.1l0-1.4l0.8-0.5l1.3,0.7l0.9,1.6v1.3L50.1,34.1z
								 M52.9,36.1l-3,1.6l0.3-3.2L52.9,36.1z M52.5,32.9l0.9-0.5l0.8,1.4l-0.9,0.5L52.5,32.9z M53.6,32.2l0.3,0.2c0,0,0.1,0,0.1,0
								c0,0,0,0,0,0c0,0,0,0,0.1,0l0.1,0.8L53.6,32.2z M53.5,34.6l0.8-0.5v1.2l-0.8,0.5V34.6z M54.2,30.7l2.3-1.3l2.1,3.3l-3.8,2.2
								l-0.2-1.1l0,0L54.2,30.7z M56.7,29.2l3.8-3l4.6,1.4l-6.3,5L56.7,29.2z M61.8,26l0.5-0.9v1L61.8,26z M62.7,25.1l1.7-1l0.3,0.2
								l-1.7,1L62.7,25.1z M62.9,25.6V26l-0.3,0.2v-0.7L62.9,25.6z M63.2,25.6l1.7-1v0.2l-1.7,0.9V25.6z M64.5,23.8
								c-0.1,0-0.1,0-0.2,0l-2,1.2l0.2-0.3l0.5-0.5l1.2-0.7l1,0.6v0.2c0,0,0,0,0,0c0,0,0,0,0,0c0,0,0,0,0,0c0,0,0,0,0,0L64.5,23.8z
								 M62.9,26.3l2.2-1.2l1.2,0.4l-2.7,1L62.9,26.3z M62.5,20.1l2,1.2L62,22.7l-2-1.2L62.5,20.1z M59.7,21.8l2,1.2l-1.6,2.7
								c0,0,0,0,0,0l-0.6,0.3L57.8,25L59.7,21.8z M59.1,26.1l-1.4,0.6v-1.3L59.1,26.1z M54.8,28.3l2.9-1.2l0,0l2.6-1.1l0,0L56.4,29
								L54,30.4l-1.5-0.9L54.8,28.3z M52.5,30.2l1.1,0.7l0.1,1l-1.4-0.8L52.5,30.2z M52.1,31.6l1.1,0.6l-0.8,0.5l-1.1-0.6L52.1,31.6
								z M43.4,34.6l1.7-1.9l2.8-1.6L52,30l-0.2,1.4l-0.9,0.5l-1,0.6c0,0-0.1,0.1-0.1,0.1v0l-4.3,2.5c0,0,0,0,0,0l-2.7,2.5
								L43.4,34.6z M45.4,38.5L44.5,38v-0.1l5.3-3.3l-0.1,1.2L45.4,38.5z M49.7,36.2l-0.2,1.7l-2.4,1.3h-0.5l-0.9-0.5L49.7,36.2z
								 M36.4,40l0,2l-1.2,0l0-0.5c0-0.1,0-0.1-0.1-0.1l-0.2-0.1v-0.4c0,0,0-0.1,0-0.1c0,0,0,0,0,0c0,0,0,0,0,0l0,0c0,0,0,0-0.1-0.1
								l-0.6-0.4c0,0-0.1,0-0.2,0l-2,1.2c0,0,0,0,0,0c0,0,0,0,0,0c0,0,0,0,0,0c0,0,0,0,0,0l0,0c0,0,0,0,0,0c0,0,0,0,0,0c0,0,0,0,0,0
								c0,0,0,0,0,0c0,0,0,0,0,0V42L31,43.6c0,0,0,0.1,0,0.1v1.9c0,0.1,0,0.1,0.1,0.1l0.9,0.5l-1.3,1.3l-0.8-0.5v-3.2l2-3.4l2.7-1.6
								L36.4,40z M34,42.5L34,42.5l0.1-0.1l0.1,0l2.1,0L36,42.5L34,42.5z M35.6,42.8l-0.4,0.4v-0.4L35.6,42.8z M33.8,43.7l-0.2-0.6
								l0-0.1l0.2-0.1l1,0.6L34.4,44L33.8,43.7z M34.1,44.2L34.1,44.2L34,44.1L34.1,44.2z M32,45.4l0.5,0.3L32.2,46l-0.9-0.5v-1.7
								l0.6-1.1v2.6C31.9,45.3,32,45.4,32,45.4z M32.3,45.2v-3.3l0.3,0.2v3.3L32.3,45.2z M32.4,41.6l1.7-1l0.3,0.2l-1.7,1L32.4,41.6
								z M32.9,43.3l0.1,0.4l0,0c0,0,0,0-0.1,0.1L32.9,44V43.3z M32.9,44.6l0.2,0.7l-0.2,0.2V44.6z M33,42.6
								C33,42.6,33,42.6,33,42.6l-0.1,0.2V42l1.7-1v1l-0.5,0c0,0-0.1,0-0.1,0l-0.2,0.1c0,0,0,0-0.1,0.1l-0.1,0.2c0,0,0,0.1,0,0.1
								l0,0.2c0,0,0,0,0,0l-0.1,0.1l0-0.1c0,0,0-0.1-0.1-0.1l-0.1-0.1c-0.1,0-0.1,0-0.2,0L33,42.6z M33.1,44.2L33.1,44.2l0.3,0.8
								L33.3,45l-0.2-0.7V44.2z M33.4,43.8L33.4,43.8l-0.2-0.7V43l0.1-0.1l0,0l0.6,1.7l-0.1,0.1L33.4,43.8z M34.4,42.8l0.2,0V43
								L34.4,42.8z M28.7,51.6l0.8,0.5V53c0,0,0,0,0,0l-5.9-3.4l3.4-2l2,2.5l-0.4,1.3C28.6,51.5,28.7,51.6,28.7,51.6z M27.9,48.2
								l0.4-0.7c0,0,0-0.1,0-0.1v-0.8l2.1,1.2l-1,0.9c0,0,0,0,0,0c0,0,0,0,0,0c0,0,0,0,0,0c0,0,0,0,0,0c0,0,0,0,0,0c0,0,0,0,0,0
								l-0.3,1L27.9,48.2z M32.2,37.5l2,1.2l-2.5,1.5l-2-1.2L32.2,37.5z M29.4,39.2l2.1,1.2l-1.9,3.2l-2.1-1.2L29.4,39.2z
								 M27.5,42.8l2,1.2v2.9l-2-1.2V42.8z M22.7,51l-0.6-0.3v-0.7l0.5-0.8l4.8-2.8l0.6,0.3v0.7l-0.3,0.5l-0.5-0.6
								c0-0.1-0.1-0.1-0.2,0l-3.8,2.2c0,0,0,0,0,0c0,0,0,0,0,0c0,0,0,0,0,0c0,0,0,0,0,0c0,0,0,0,0,0c0,0,0,0,0,0c0,0,0,0,0,0
								c0,0,0,0,0,0V50c0,0.1,0,0.1,0.1,0.1l0.4,0.3L22.7,51z M23.5,49.9L23.5,49.9L36,57.1l0,0.1L23.5,49.9z M29.9,52.9v-0.6
								l0.9,0.5v0.6L29.9,52.9z M41.8,55.3l-0.5,0.8l-4.8,2.7l-0.6-0.3v-0.7l0.2-0.4l0,0l0,0l0.2-0.4v0l0,0l0.1-0.1l4.8-2.8l0.6,0.3
								V55.3z M39.7,49.9l2,1.2v2.9l-2-1.2l0-2.7c0,0,0,0,0,0V49.9z M48.6,47l0,3.2l-2,3.4l-2.7,1.6L42,54.1V51l2-3.4l2.7-1.6
								L48.6,47z M44.4,44.6l2,1.2l-2.5,1.5l-2-1.2L44.4,44.6z M41.7,44.5v-0.1l0.1-0.1l0,0l0.3,1.2L42,45.6L41.7,44.5z M39.8,46.6
								l0.2-0.1l0.8,0.5l-0.2,0.3l-0.7-0.1L39.7,47l0-0.2L39.8,46.6z M36.9,47.2L36.9,47.2l0.1-0.2l0.1,0l2.7,0.4c0,0,0,0,0.1,0
								c0,0,0,0,0,0l0.6,0.1l-0.1,0.2L36.9,47.2z M40.6,48C40.6,48,40.6,48,40.6,48l0.3-0.5c0,0,0,0,0,0l0.3-0.6l0,0l0,0l0.4-0.7
								l2,1.2l-1.9,3.2l-2-1.2L40.6,48z M36.9,49.2L36.9,49.2l0.1-0.1l0.1,0l2.7-0.3l-0.1,0.1L36.9,49.2z M39.3,49.8l-1.1-0.4
								l1.2-0.2l-0.2,0.3c0,0,0,0,0,0c0,0,0,0,0,0c0,0,0,0,0,0c0,0,0,0,0,0c0,0,0,0,0,0V49.8z M39.3,50.1L39.3,50.1l-1.5-0.5l0,0
								L39.3,50.1z M37.4,49.8l1.9,0.7l0,2.3c0,0.1,0,0.1,0.1,0.1l1.6,0.9l-1.4,0.8l-5.1-1.4l-1.9-1.1L37.4,49.8z M32.6,52.8v-0.1
								l1.7,1c0,0,0,0,0,0l4.8,1.3l-3,1.7c0,0,0,0,0,0l-5.1-3c0,0,0,0,0,0l1.5-0.9C32.6,52.9,32.6,52.9,32.6,52.8z M32.3,52.5v0.2
								l-1.2,0.7V53l0,0l0,0l0,0c0,0,0,0,0,0c0,0,0,0,0,0c0,0,0,0,0,0l0,0l0,0h0c0,0,0,0,0,0c0,0,0,0,0,0c0,0,0,0,0,0c0,0,0,0,0,0
								c0,0,0,0,0,0L32.3,52.5z M31.2,52.6L29,51.4l0.6-2.3l2.2,1.2L31.2,52.6z M32,50l-2.2-1.2l1-0.9l0,0l4.5-4.3l2-1.9l3,1.7
								L32,50z M68.9,25.7C68.9,25.7,68.9,25.7,68.9,25.7l-9.3,7.9l-8.3,4.8l-5.2,1.9c0,0,0,0,0,0l-5.6,2.9l-3-1.7l4.9-3.1
								c0,0,0,0,0,0l3.2-3l4.1-2.4l0,1.2l-5.5,3.4c0,0-0.1,0.1-0.1,0.1v0.3c0,0.1,0,0.1,0.1,0.1l1,0.6c0,0,0,0,0,0l1.2,0.7
								c0,0,0.1,0,0.1,0h0.6c0,0,0.1,0,0.1,0l6-3.2c0,0,0,0,0,0c0,0,0,0,0,0c0,0,0,0,0,0c0,0,0,0,0,0l0,0l0,0c0,0,0.1,0,0.1,0
								l1.1-0.7c0.1,0,0.1-0.1,0.1-0.1v-0.1c0,0,0,0,0,0l0,0l0,0l0,0c0,0,0,0,0,0c0,0,0,0,0,0c0,0,0,0,0,0c0,0,0,0,0,0c0,0,0,0,0,0
								l0,0l0,0l4.2-2.4c0,0,0,0,0,0c0,0,0,0,0,0c0,0,0,0,0,0c0,0,0,0,0,0l6.7-5.3c0,0,0,0,0,0c0,0,0,0,0,0c0,0,0,0,0,0c0,0,0,0,0,0
								c0,0,0,0,0,0c0,0,0,0,0,0v0v0l0-0.3c0-0.1,0-0.2-0.1-0.2l-1.4-0.4l3.2-1.2l0,0l0.4-0.1c0,0,0,0,0,0l2.4-1.4c0,0,0,0,0,0
								l1.5-0.8l0.8,0.5l0.2,0.1L68.9,25.7z M71.9,25l1.7,1l0.5,1.1l-2.3,1.4c0,0,0,0,0,0c0,0,0,0,0,0l-2.1-2.2L71.9,25z M69.4,26.4
								l2.2,2.3l-0.4,0.6l-0.6-0.7V28c0,0,0,0,0,0c0,0,0,0,0,0c0,0,0,0,0,0c0,0,0,0,0,0c0,0,0,0,0,0c0,0,0,0,0,0c0,0,0,0,0,0
								c0,0,0,0,0,0l-1.3-1.4L69.4,26.4z M70.5,29.4v-0.2l0.4,0.5L70.5,29.4z M70.9,29.9l-0.3,0.5v-0.7L70.9,29.9z M69.4,34.3l1,0.6
								L61,40.3l5.1-6.1l3.6-2.1l0,1.7L69.3,34c0,0-0.1,0.1-0.1,0.1C69.3,34.2,69.3,34.2,69.4,34.3z M66.1,33.8v-3.1l4.1-2.5V31
								l-0.3,0.5L66.1,33.8z M51.4,41.4l1.8-0.1v2.3L46.9,44L51.4,41.4z M53,43.9l-6.6,0.5v-0.1l7-0.5c0.1,0,0.2-0.1,0.2-0.2v-2.6
								c0,0,0-0.1-0.1-0.1c0,0-0.1,0-0.1,0l-7,0.5v-0.1l7.2-0.5v3.2L53,43.9C53,43.9,53,43.9,53,43.9z M54.1,44.6l-0.6-0.3l0.1,0
								L54.1,44.6L54.1,44.6z M54.3,44.2l-0.2-0.1l0.7-0.2L54.3,44.2z M54.4,44.6L54.4,44.6l1.7-1.1l0.3-0.1L54.4,44.6z M56.9,42.9
								L56,43.2c0,0,0,0,0,0l-2.1,0.6v-3.2l3-0.9V42.9z M59.7,41.4l-2.5,1.4v-3.1l2.5-1.4V41.4z M57,39.4l-3.3,1l-6.3,0.4l4.1-1.5
								c0,0,0,0,0,0l8.3-4.8c0,0,0,0,0,0l9.2-7.8l1.2,1.2l-4.3,2.5c0,0,0,0,0,0c0,0,0,0,0,0c0,0,0,0,0,0l-6.1,7.3L57,39.4z M60,38
								l5.8-7v3L60,41V38z M60.2,41.2l0.1-0.2l10.2-5.9v0.1L60.2,41.2z M72,36.4l-1.4-0.8l0.3-0.2c0.1,0,0.1-0.1,0.1-0.1v-0.5
								c0,0,0,0,0,0c0,0,0,0,0,0c0,0,0,0,0,0c0,0,0,0,0,0c0,0,0,0,0,0c0,0,0,0,0,0c0,0,0,0,0,0c0,0,0,0,0,0L70,34.2l0-1.9l2,1.2
								L72,36.4z M70,32l0.7-1.2h0l0,0l0.5-0.9c0,0,0,0,0,0h0l0.7-1.2l2,1.2l-1.9,3.2L70,32z M78.9,29.5l0,3.2l-2,3.4l-2.7,1.6
								l-1.9-1.1l0-3.2l2-3.4l2.8-1.6L78.9,29.5z M76.7,28.3l-2.5,1.5l-2-1.2l2.5-1.5L76.7,28.3z M75.3,27.1l-0.6-0.3
								c-0.1,0-0.1,0-0.2,0l-0.1,0.1l-1.3-3.1l0.5-0.8l5.5-3.2l0.3,0.2l-2.3,5.6l-0.5,0.9L75.3,27.1z"/>
						</g>
					</g>
				</g>
				<polygon class="st1" points="32.1,57.4 25.6,53.7 22.1,55.7 19.7,54.3 16.4,62.7 31,60.8 28.6,59.5 				"/>
				<g>
					<g>
						<path class="st11" d="M30.4,33.8c-0.1,0-0.1,0-0.1-0.1c0-0.1,0-0.2,0.1-0.2l10.3-5.9c0.1,0,0.2,0,0.2,0.1c0,0.1,0,0.2-0.1,0.2
							L30.4,33.8C30.5,33.8,30.4,33.8,30.4,33.8z"/>
						<path class="st11" d="M40.7,27.8c-0.1,0-0.2-0.1-0.2-0.2v-8.3c0-0.1,0.1-0.2,0.2-0.2c0.1,0,0.2,0.1,0.2,0.2v8.3
							C40.9,27.8,40.8,27.8,40.7,27.8z"/>
						<path class="st11" d="M30.4,36c-0.1,0-0.2-0.1-0.2-0.2v-2.2c0-0.1,0.1-0.2,0.2-0.2c0.1,0,0.2,0.1,0.2,0.2v2.2
							C30.6,35.9,30.5,36,30.4,36z"/>
						<polygon class="st11" points="30.1,35.7 29.6,36.5 29.6,37.3 30.1,37.5 30.7,37.2 31.2,36.3 31.2,35.6 30.7,35.3 						"/>
						<polygon class="st11" points="40.4,18.6 39.9,19.5 39.9,20.2 40.4,20.5 41,20.1 41.5,19.3 41.5,18.5 41,18.2 						"/>
					</g>
					<g>
						<g>
							<polygon class="st20" points="38.6,25.7 37.3,27.9 27,33.9 27,23.2 38.6,16.5 							"/>
							<path class="st1" d="M38.8,16.1l-12,7v11.2l10.7-6.2l1.3-2.3V16.1z M38.6,25.7l-1.3,2.2l-10.3,6V23.2l11.6-6.7V25.7z"/>
						</g>
						<g>
							<g>
								<polygon class="st11" points="28,30.8 31.1,29.1 31.1,29 28,30.8 								"/>
								<polygon class="st11" points="30.4,27.4 30.9,27.1 30.9,29.1 30.4,29.4 								"/>
								<g>
									<path class="st11" d="M36.8,21.8C36.8,21.7,36.8,21.7,36.8,21.8L35.5,21c0,0,0,0,0,0l-1.4-0.8c0,0-0.1,0-0.1,0l-1.8,1
										c0,0,0,0,0,0c0,0,0,0,0,0c0,0,0,0,0,0c0,0,0,0,0,0c0,0,0,0,0,0L31,23.4l0,0v0c0,0,0,0,0,0c0,0,0,0,0,0c0,0,0,0,0,0
										c0,0,0,0,0,0v2c0,0,0,0.1,0,0.1l2.7,1.5c0,0,0,0,0,0s0,0,0,0l1.8-1c0,0,0,0,0,0l1.2-2.1c0,0,0,0,0,0V21.8z M34,20.3
										l1.3,0.7L33.7,22l-1.3-0.7L34,20.3z M32.4,26.1l-1.3-0.7l0-1.9l1.3,0.7V26.1z M31.1,23.4l1.2-2l1.3,0.8l-1.2,2L31.1,23.4z
										 M35.4,25.9l-1.7,1l-1.2-0.7v-2l1.2-2.1l1.7-1l1.2,0.7l0,2L35.4,25.9z"/>
									<path class="st11" d="M35.7,22.8l-0.6-0.3c0,0-0.1,0-0.1,0l-0.4,0.2c0,0,0,0,0,0L34.1,23c0,0,0,0,0,0l-0.7,1.2c0,0,0,0,0,0
										v1c0,0,0,0.1,0,0.1l0.6,0.3c0,0,0,0,0,0c0,0,0,0,0,0l0.9-0.5c0,0,0,0,0,0l0.7-1.2c0,0,0,0,0,0L35.7,22.8
										C35.7,22.8,35.7,22.8,35.7,22.8z M33.6,24.2l0.6-1.1l0.4-0.2l0,0.4L34,24.4l-0.4,0.2V24.2z M34.9,25l-0.8,0.5l-0.5-0.3
										v-0.4l0.5-0.3c0,0,0,0,0,0l0.7-1.2c0,0,0,0,0,0l0-0.5l0.3-0.2l0.5,0.3l0,1L34.9,25z"/>
								</g>
								<polygon class="st11" points="29.7,28.3 30.2,28 30.2,29.5 29.7,29.8 								"/>
								<polygon class="st11" points="29,26.7 29.5,26.4 29.5,29.9 29,30.2 								"/>
								<polygon class="st11" points="28.3,29.7 28.8,29.4 28.8,30.3 28.3,30.6 								"/>
							</g>
							<polygon class="st11" points="37.6,25.6 37.6,18.5 37.8,18.4 37.8,25.7 27.7,31.5 27.7,31.4 							"/>
						</g>
					</g>
				</g>
				<g>
					<g>
						<path class="st11" d="M52.4,21.1c-0.1,0-0.1,0-0.1-0.1c0-0.1,0-0.2,0.1-0.2l14.8-8.5c0.1,0,0.2,0,0.2,0.1c0,0.1,0,0.2-0.1,0.2
							L52.4,21.1C52.4,21.1,52.4,21.1,52.4,21.1z"/>
						<path class="st11" d="M67.1,14.8c-0.1,0-0.2-0.1-0.2-0.2v-2.2c0-0.1,0.1-0.2,0.2-0.2c0.1,0,0.2,0.1,0.2,0.2v2.2
							C67.3,14.8,67.2,14.8,67.1,14.8z"/>
						<polygon class="st11" points="66.8,14.5 66.3,15.3 66.3,16.1 66.8,16.4 67.5,16 67.9,15.1 67.9,14.4 67.5,14.1 						"/>
						<polygon class="st11" points="52,20.2 51.5,21.1 51.5,21.8 52,22.1 52.7,21.7 53.2,20.9 53.2,20.1 52.7,19.8 						"/>
					</g>
					<g>
						<g>
							<polygon class="st20" points="65.5,10.2 64.3,12.4 53.9,18.4 53.9,7.7 65.5,1 							"/>
							<path class="st1" d="M65.8,0.6l-12,7v11.2l10.7-6.2l1.3-2.3V0.6z M65.5,10.2l-1.3,2.2l-10.3,6V7.7L65.5,1V10.2z"/>
						</g>
						<g>
							<g>
								<polygon class="st11" points="55,15.5 58,13.7 58,13.6 55,15.4 								"/>
								<polygon class="st11" points="57.4,12 57.9,11.7 57.9,13.7 57.4,14 								"/>
								<polygon class="st11" points="56.6,12.9 57.2,12.6 57.2,14.1 56.6,14.5 								"/>
								<polygon class="st11" points="55.9,11.3 56.4,11 56.4,14.6 55.9,14.9 								"/>
								<path class="st11" d="M63.7,4.4l-0.5-0.3h0l0,0l-0.4-0.2c0,0-0.1,0-0.1,0l-5,2.9c0,0,0,0,0,0l-0.5,0.8c0,0,0,0.1,0,0.1
									l1.3,3.1c0,0,0,0,0,0l0.4,0.2l0.5,0.3c0,0,0,0,0,0c0,0,0,0,0,0l1.6-0.9c0,0,0,0,0,0l0.5-0.8c0,0,0,0,0,0l2.1-5.1
									C63.7,4.5,63.7,4.5,63.7,4.4z M58.7,10.8l-1.3-3L57.8,7l5-2.9l0.2,0.1L58,7.1c0,0,0,0,0,0l-0.5,0.8c0,0,0,0.1,0,0.1
									L58.7,10.8L58.7,10.8z M61.4,9.6L61,10.4l-1.6,0.9L59,11l-1.3-3l0.4-0.7l5-2.9l0.3,0.2L61.4,9.6z"/>
								<polygon class="st11" points="55.2,14.3 55.7,14 55.7,15 55.2,15.3 								"/>
							</g>
							<polygon class="st11" points="64.6,10.3 64.6,3.1 64.7,3 64.7,10.3 54.7,16.1 54.7,16 							"/>
						</g>
					</g>
				</g>
				<g>
					<g>
						<g>
							<polygon class="st20" points="21.3,36.6 20,38.8 9.7,44.8 9.7,37.8 21.3,31.1 							"/>
							<path class="st1" d="M21.5,30.7l-12,7v7.5l10.7-6.2l1.3-2.3V30.7z M21.3,36.6L20,38.8l-10.3,6v-7l11.6-6.7V36.6z"/>
						</g>
						<g>
							<g>
								<polygon class="st11" points="13.3,40.4 10.9,41.8 10.9,41.9 13.3,40.5 								"/>
								<polygon class="st11" points="12.5,39.3 13.1,39 13.1,40.6 12.5,40.9 								"/>
								<polygon class="st11" points="11.8,37.7 12.3,37.4 12.3,41 11.8,41.3 								"/>
								<path class="st11" d="M19.1,34.4l-0.4-0.2l-4.6,2.6l0,0l-0.5,0.9v0.8l0.4,0.3l0.5,0.3l4.6-2.6l0,0l0.5-0.9v-0.8L19.1,34.4z
									 M14,37.9v0.7l-0.3-0.2v-0.8l0.5-0.8l4.5-2.6l0.3,0.2L14.6,37l0,0L14,37.9z M19.6,35.5l-0.5,0.8l-4.5,2.6l-0.4-0.2v-0.8
									l0.5-0.8l4.5-2.6l0.4,0.2V35.5z"/>
								<polygon class="st11" points="11.1,40.8 11.6,40.4 11.6,41.4 11.1,41.7 								"/>
							</g>
							<polygon class="st11" points="20.5,36.7 20.5,33.3 20.6,33.2 20.6,36.8 10.6,42.6 10.6,42.4 							"/>
						</g>
					</g>
					<g>
						<path class="st11" d="M8.4,47.2c-0.1,0-0.1,0-0.1-0.1c0-0.1,0-0.2,0.1-0.2l14.8-8.5c0.1,0,0.2,0,0.2,0.1c0,0.1,0,0.2-0.1,0.2
							L8.4,47.2C8.5,47.2,8.4,47.2,8.4,47.2z"/>
						<path class="st11" d="M23.2,46.2c-0.1,0-0.2-0.1-0.2-0.2v-7.5c0-0.1,0.1-0.2,0.2-0.2c0.1,0,0.2,0.1,0.2,0.2V46
							C23.3,46.1,23.3,46.2,23.2,46.2z"/>
						<polygon class="st11" points="22.8,45.8 22.4,46.6 22.4,47.4 22.8,47.7 23.5,47.3 24,46.5 24,45.7 23.5,45.4 						"/>
						<polygon class="st11" points="8.1,46.3 7.6,47.1 7.6,47.9 8.1,48.1 8.7,47.8 9.2,46.9 9.2,46.1 8.7,45.9 						"/>
					</g>
				</g>
			</g>
			<g>
				<polygon class="st21" points="72,41.6 72.6,42.6 72.1,42.9 70.6,44.7 70.4,45.6 71,46 73.6,44.5 74.2,43.6 74.6,42.7 73.9,40.9 
					72.5,40.8 				"/>
				<polygon class="st22" points="72.6,42.6 73.3,43.2 73,43.2 				"/>
				<polygon class="st17" points="71.9,36.9 71,37 70.4,37.6 70.5,39 71.7,41.7 72.6,41.8 73.7,41.3 74,40.6 73.1,38 72.6,37.2 				
					"/>
				<polygon class="st23" points="71.8,63.3 71.8,63.4 71.5,63.9 70.7,63.9 70.3,63.1 70.2,62.5 69.5,61.7 69.4,61 69.4,60.8 
					70.5,61.9 				"/>
				<polygon class="st24" points="71.7,62.1 71.8,63.3 71.5,63.7 70.7,63.7 70.3,62.9 70.2,62.4 69.5,61.6 69.4,60.8 69.5,60.6 
					70,60.5 				"/>
				<polygon class="st25" points="71.5,48.5 71.5,54.9 72.1,56.7 72.1,61.8 71.6,62.5 70.5,62.5 69.9,61.7 69.3,55.9 68.1,52.1 
					68.1,49.7 				"/>
				<polygon class="st23" points="66,65.6 62.9,65.3 62.9,65.4 63.7,66 66.1,66.1 66.4,66.3 67.5,66.4 68,66.1 68,65.9 				"/>
				<polygon class="st24" points="65.5,64 64.3,64.4 63,64.4 62.9,65.3 63.7,65.8 66.1,65.9 66.4,66.1 67.5,66.2 68,65.9 68,64.5 
									"/>
				<polygon class="st26" points="70.7,45.1 71.7,48.4 71.2,49.4 68.8,50.9 67.8,56.9 68.2,58.7 68.2,64.4 67.3,64.9 66.1,64.9 
					65.3,64 64.8,56.2 64.8,46.9 65.3,45.5 				"/>
				<polygon class="st5" points="70.4,44.3 70.7,45.1 70.2,45.7 67.9,46.7 65.5,46.7 65,46.2 64.9,45 				"/>
				<polygon class="st11" points="70.6,37.2 71.8,37.2 72.6,38.3 72.6,39.8 71.8,42 70.8,43.6 70.8,44.1 69.9,45.1 67.8,46 65.6,46 
					65,45.5 64.7,44.7 65,42.1 65,40.8 65.3,40 65.9,39.2 67.3,38.3 				"/>
				<polygon class="st21" points="67.5,36.6 67.8,37.8 68.3,38 69.8,37.5 70.1,36.8 70,35.9 69.4,35.1 67.5,35.6 				"/>
				<polygon class="st21" points="63.2,38.1 61.5,37.4 60.8,36.6 57.7,34.9 56.9,33.5 55.5,32.1 55.3,32.4 56.1,33.5 55.6,33.5 
					55.2,34.5 55.5,34.9 55.8,34.9 56.7,35.7 57,35.7 59.5,38.5 60.4,39 61.9,39.9 63.1,39.7 63.6,38.9 				"/>
				<polygon class="st21" points="67.1,32.6 66.7,32.9 66.3,33.6 66.3,34.2 66.4,34.6 66.3,35 66.6,36.2 67,36.6 67.5,36.6 
					68.1,36.1 68.6,34.5 68.4,32.4 				"/>
				<polygon class="st4" points="67.6,33.4 67.6,33 67.1,32.6 67.5,32 68.5,32 69.5,32.3 70.3,33 70.6,33.7 70.7,34.7 70.3,35.5 
					69.8,36.1 69.1,36.4 68.4,36.3 68.1,36.1 67.8,35.6 67.4,35 67.2,35 67.1,35.3 66.8,35.2 66.8,34.5 66.7,33.8 67.3,33.7 				"/>
				<polygon class="st17" points="66.6,41 66.1,41.9 65.2,42.3 61.9,40.1 61.9,39.1 62.4,38.3 63.4,38.1 65.7,39.5 66.4,40.2 				
					"/>
				<polygon class="st17" points="70.6,37.2 69.8,38 68.4,38.3 67.3,38.3 67.3,37.4 68.3,37.5 69.6,37.2 70.3,36.6 				"/>
			</g>
			<g>
				<polygon class="st21" points="75.8,27.7 76.2,27.1 77,26.6 77.6,26.7 77.3,27 77.1,27 77,27.1 77.7,27.2 77.7,27.5 77.1,27.5 
					76.9,27.7 77.8,27.7 77.6,28 77.3,28.1 77.6,28.3 77.5,28.5 76.8,28.6 76.3,28.3 				"/>
				<g class="st27">
					<polygon class="st28" points="81.6,22.6 81.6,27.4 76.7,30.2 76.7,25.4 					"/>
					<g>
						<g>
							<g>
								<path class="st11" d="M81.1,23.6V24l-0.3,0.5l-0.2,0.1v-0.2l0.1-0.1l0.2-0.3v-0.3L81.1,23.6z"/>
								<polygon class="st11" points="81.1,23.6 80.8,23.4 80.4,23.6 80.4,23.8 80.7,23.7 80.9,23.8 								"/>
								<polygon class="st11" points="80.6,24.4 80.4,24.5 80.3,24.4 80.3,24.1 80.4,23.8 80.4,23.6 80.1,24.1 80.1,24.6 80.4,24.8 
									80.6,24.7 								"/>
								<path class="st11" d="M80.4,24.1v0.2l0.1,0.1l0.1-0.1l0.1-0.2v-0.2l-0.1-0.1l-0.1,0.1L80.4,24.1z"/>
							</g>
							<g>
								<path class="st11" d="M78.6,25l0.3-0.5l0.4-0.2l0.1,0.1l-0.2,0.3l-0.1,0L79,24.7L78.8,25L78.6,25z"/>
								<polygon class="st11" points="78.6,25 78.6,25.5 78.9,25.6 79,25.3 78.8,25.2 78.8,25 								"/>
								<polygon class="st11" points="79.3,24.6 79.4,24.6 79.4,24.9 79.3,25.2 79,25.3 78.9,25.6 79.3,25.4 79.6,24.9 79.6,24.4 
									79.5,24.3 								"/>
								<path class="st11" d="M79.2,25.1l0.1-0.2v-0.2l-0.1-0.1l-0.1,0.1L79,24.9v0.2l0.1,0.1L79.2,25.1z"/>
							</g>
							<g>
								<path class="st11" d="M77.9,25l0.3,0.2v0.5L78.1,26l-0.2-0.1l0.1-0.1v-0.3l-0.2-0.1L77.9,25z"/>
								<polygon class="st11" points="77.9,25 77.5,25.3 77.2,25.8 77.4,25.8 77.6,25.5 77.8,25.3 								"/>
								<polygon class="st11" points="77.9,25.9 77.8,26 77.6,26.2 77.4,26.1 77.4,25.8 77.2,25.8 77.2,26.3 77.5,26.5 77.9,26.2 
									78.1,26 78.1,25.8 								"/>
								<path class="st11" d="M77.5,25.9l0.1,0.1l0.1-0.1l0.1-0.2v-0.2l-0.1-0.1l-0.1,0.1l-0.1,0.2V25.9z"/>
							</g>
						</g>
						<g>
							<polygon class="st11" points="77.2,29.5 81.1,27.2 81.1,27.2 77.2,29.4 							"/>
							<polygon class="st11" points="80.2,25.9 80.9,25.5 80.9,27.3 80.2,27.7 							"/>
							<polygon class="st11" points="79.3,27.5 80,27.1 80,27.8 79.3,28.2 							"/>
							<polygon class="st11" points="78.4,26.5 79.1,26.1 79.1,28.4 78.4,28.7 							"/>
							<polygon class="st11" points="77.5,28.4 78.2,28 78.2,28.9 77.5,29.3 							"/>
						</g>
					</g>
					<polygon class="st29" points="76.6,25.3 76.7,25.4 81.6,22.6 81.4,22.6 					"/>
					<polygon class="st30" points="76.6,30.1 76.7,30.2 76.7,25.4 76.6,25.3 					"/>
					<polygon class="st28" points="81.6,22.1 81.6,22.5 76.7,25.3 76.7,24.9 					"/>
					<polygon class="st29" points="76.6,24.8 76.7,24.9 81.6,22.1 81.4,22 					"/>
					<polygon class="st30" points="76.6,25.2 76.7,25.3 76.7,24.9 76.6,24.8 					"/>
				</g>
				<polygon class="st21" points="82.7,31.8 81.4,30.3 80.6,30.5 80.2,30.5 79.6,30.7 79.3,30.7 79.3,30.4 79.9,30 79.9,29.8 
					79.4,29.7 79.2,29.2 79.3,28.9 78.5,28.1 78.5,27.8 79.7,28.6 80.7,28.5 81.7,29.3 83.4,30.6 83.6,31 83.4,31.8 83,31.9 				"/>
				<polygon class="st21" points="83.4,29.8 83.6,30.9 83.9,31.2 85.3,30.9 86,30.4 86.1,29.8 86,29.1 85.7,28.4 84.7,28.3 83.2,29 
									"/>
				<polygon class="st8" points="86.4,30.4 87.1,30 88.2,30 89,30.5 89.1,31.8 88.6,32.8 87.6,32.5 				"/>
				<polygon class="st23" points="87.5,58.1 87.5,58.3 87.2,58.8 86.4,58.8 85.9,58 85.8,57.4 85.1,56.6 85,55.8 85,55.6 85.6,55.4 
									"/>
				<polygon class="st23" points="80.7,56.7 79.9,56.9 78.5,57.1 78.5,57.3 78.7,58 79.5,58.6 81.3,58.7 81.6,58.9 82.7,59 
					83.3,58.7 83.3,58.5 				"/>
				<polygon class="st31" points="87.4,57 87.5,58.1 87.2,58.6 86.4,58.6 85.9,57.8 85.8,57.2 85.1,56.4 85,55.6 85.1,55.3 
					85.6,55.2 				"/>
				<polygon class="st31" points="80.7,56.5 79.9,56.8 78.9,56.7 78.5,57.1 78.7,57.8 79.5,58.4 81.3,58.5 81.6,58.7 82.7,58.8 
					83.3,58.5 83.3,57 				"/>
				<polygon class="st28" points="87.4,42.6 87.2,49.2 87.8,51.1 87.8,56.4 87.2,57.1 86.1,57.1 85.5,56.3 84.9,50.3 83.9,45.7 
					83.7,43.8 				"/>
				<polygon class="st29" points="86.7,38.5 87.6,42.1 87.3,43.1 84.2,44.6 83,50 83.4,51.9 83.5,57 82.6,57.6 81,57.5 80.5,56.6 
					80.4,49.9 80.2,46.6 80.4,40.6 80.7,39.7 				"/>
				<polygon class="st5" points="86.3,37.6 86.7,38.5 86.1,39.2 83.7,40.2 81.3,40.2 80.7,39.7 80.7,38.3 				"/>
				<polygon class="st11" points="86.5,30.3 87.8,30.3 88.5,31.5 88.6,33 87.8,35.4 86.8,37 86.8,37.5 85.8,38.6 83.6,39.5 
					81.3,39.5 80.6,39 80.4,38.2 80.6,35.4 80.6,34 81,33.3 81.6,32.4 83,31.5 				"/>
				<polygon class="st21" points="78,33.2 77.3,33.2 77.3,32.4 76.2,29.3 76.7,28.9 76.9,28.4 77.4,28.1 77.7,27.7 77.5,27.6 
					77.1,27.8 76.6,27.9 75.8,27.7 75.1,29.1 75.2,33.4 75.8,34.5 76.4,35.2 77.7,35.4 78.4,34.8 				"/>
				<polygon class="st8" points="82.5,33.7 82.6,34.8 82.1,35.5 81.3,35.8 77.8,35.6 77.3,34.8 77.3,33.7 78,33 81.1,32.9 
					81.9,33.1 				"/>
				<polygon class="st8" points="86.5,30.3 85.7,31.2 84.3,31.5 83,31.5 83,30.5 84.1,30.7 85.5,30.3 86.2,29.8 				"/>
				<polygon class="st21" points="82.5,26 82.1,27.1 82.3,27.5 82.2,28.2 82.6,29.5 83,29.8 83.4,29.8 83.8,29.2 84.3,28.3 
					83.5,25.9 				"/>
				<polygon class="st32" points="84.4,24.9 83.1,25 83.2,25.1 82.4,25.7 82.3,26 82.5,25.9 82.5,27 82.8,27.5 82.8,28 82.9,28.2 
					83.2,28 83.7,28.5 84,29.5 84.3,29.7 85.1,29.7 85.5,29.5 85.7,29.2 85.7,29.4 86.2,29 86.5,27.9 86.5,26.6 86.2,25.9 
					86.5,25.9 86.1,25.8 86.3,25.5 86,25.7 85.4,25.2 				"/>
				<polygon class="st22" points="77.3,33.2 76.7,33.6 76.6,33.3 				"/>
			</g>
		</g>
	</g>
</g>
</svg>
