<?xml version="1.0" encoding="utf-8"?>
<!-- Generator: Adobe Illustrator 19.0.0, SVG Export Plug-In . SVG Version: 6.00 Build 0)  -->
<svg version="1.1" xmlns="http://www.w3.org/2000/svg" xmlns:xlink="http://www.w3.org/1999/xlink" x="0px" y="0px"
	 viewBox="0 0 1899 2210.8" style="enable-background:new 0 0 1899 2210.8;" xml:space="preserve">
<style type="text/css">
	.st0{opacity:0.1;}
	.st1{fill:#FBC3B1;}
	.st2{fill:#B35091;}
	.st3{fill:#52332D;}
	.st4{fill:#5F3D37;}
	.st5{fill:#C758A1;}
	.st6{fill:#1E1E1E;}
	.st7{fill:#E8B02A;}
	.st8{fill:#FEC131;}
	.st9{fill:#4D4C4D;}
	.st10{fill:#404040;}
	.st11{fill:#B8B8B8;}
	.st12{opacity:0.302;fill:#39C4F3;}
	.st13{opacity:0.5;fill:#66AEE0;}
	.st14{fill:#CFCFCE;}
	.st15{fill:#EAEAEA;}
	.st16{fill:#846EB1;}
	.st17{fill:#423761;}
	.st18{fill:#131E30;}
	.st19{fill:#1A2B44;}
	.st20{fill:#735EA9;}
	.st21{fill:#F79F8E;}
	.st22{fill:#FBC4B3;}
	.st23{fill:#333333;}
	.st24{fill:#2B3742;}
	.st25{fill:#405264;}
	.st26{fill:#4D6479;}
	.st27{fill:#4D312C;}
	.st28{fill:#577088;}
	.st29{fill:#B6B7B7;}
	.st30{enable-background:new    ;}
	.st31{fill:#505050;}
	.st32{fill:#717171;}
	.st33{clip-path:url(#SVGID_2_);enable-background:new    ;}
	.st34{fill:#4B4B4B;}
	.st35{fill:#494949;}
	.st36{fill:#464646;}
	.st37{clip-path:url(#SVGID_4_);enable-background:new    ;}
	.st38{fill:#3A3B3A;}
	.st39{fill:#3D3D3D;}
	.st40{fill:#424242;}
	.st41{fill:#444444;}
	.st42{fill:#636363;}
	.st43{clip-path:url(#SVGID_6_);enable-background:new    ;}
	.st44{clip-path:url(#SVGID_8_);enable-background:new    ;}
	.st45{clip-path:url(#SVGID_10_);enable-background:new    ;}
	.st46{clip-path:url(#SVGID_12_);enable-background:new    ;}
	.st47{clip-path:url(#SVGID_14_);enable-background:new    ;}
	.st48{clip-path:url(#SVGID_16_);enable-background:new    ;}
	.st49{fill:#FFFFFF;}
	.st50{fill:#E4E4E4;}
	.st51{fill:#F04D44;}
	.st52{fill:#F0EFEF;}
	.st53{fill:#D9453E;}
	.st54{fill:#B63A34;}
	.st55{fill:#5C5C5C;}
	.st56{fill:#65CCEB;}
	.st57{fill:#60C0DE;}
	.st58{fill:#59B8D6;}
	.st59{fill:#035468;}
	.st60{fill:#006684;}
	.st61{clip-path:url(#SVGID_18_);}
	.st62{fill:#F99F40;}
	.st63{fill:#E2E2E2;}
	.st64{fill:#8CC63F;}
	.st65{clip-path:url(#SVGID_20_);}
	.st66{clip-path:url(#SVGID_22_);}
	.st67{clip-path:url(#SVGID_24_);}
	.st68{fill:#ED1C24;}
	.st69{fill:#DEA736;}
	.st70{fill:#FEBE40;}
	.st71{opacity:0.1;fill:#1E1E1E;}
	.st72{fill:#D4D4D4;}
	.st73{fill:#C2C2C1;}
	.st74{clip-path:url(#SVGID_26_);}
	.st75{fill:#A09F9F;}
	.st76{clip-path:url(#SVGID_28_);}
	.st77{clip-path:url(#SVGID_30_);}
	.st78{fill:#D9D9D8;}
	.st79{fill:#553631;}
	.st80{fill:#9F2827;}
	.st81{fill:#EF3B3B;}
	.st82{fill:#E19D8A;}
	.st83{fill:#C17767;}
	.st84{fill:#F05050;}
	.st85{fill:#E8E8E8;}
	.st86{fill:#F4F4F5;}
	.st87{fill:#723823;}
	.st88{fill:#BA5D28;}
	.st89{fill:#D7782D;}
	.st90{fill:#88BB40;}
	.st91{opacity:0.2;fill:#FFFFFF;}
	.st92{fill:#F5DFAD;}
	.st93{fill:#9C4622;}
	.st94{fill:#D8925D;}
	.st95{fill:#103D5C;}
	.st96{fill:#7F381A;}
	.st97{fill:#0E4264;}
</style>
<g id="Layer_2">
</g>
<g id="Layer_3">
</g>
<g id="Objects">
	<g>
		<ellipse class="st0" cx="-378.8" cy="1537.1" rx="195.5" ry="92.6"/>
		<g>
			<g>
				<path class="st1" d="M286.5,629.8c0,0,15.5,24.6,38.2,14.5c22.6-10.1,114.2-78.3,136.8-111.8c7.6-11.3,12.3-35.5,15.3-63.1
					c5.9-54.2,5.4-121.4,8.1-128.9c4-11.3-5.7-55.8-14.1-74.3c-8.5-18.6-31.9-12.9-45.3-8.5c-13.3,4.5,14.6,56.2,14.6,56.2
					s-34-5.3-28.7,5.3c5.3,10.5,31.9,12.5,32.7,28.3c0.5,10.5-8.3,67.8-15.9,110c-3.8,21.5-7.3,39-9.1,44.6
					c-5.3,16.6-109.2,71.9-128,81.1C272.4,592.3,276.8,610.9,286.5,629.8z"/>
				<path class="st2" d="M286.5,629.8c0,0,15.5,24.6,38.2,14.5c22.6-10.1,114.2-78.3,136.8-111.8c7.6-11.3,12.3-35.5,15.3-63.1
					c-10.4-5.5-26.7-11.4-48.6-12c-3.8,21.5-7.3,39-9.1,44.6c-5.3,16.6-109.2,71.9-128,81.1C272.4,592.3,276.8,610.9,286.5,629.8z"
					/>
			</g>
			<path class="st3" d="M207.1,436.9c-27.9-10-72.5-18.4-87.6,0c-15.1,18.4-21.8,57.4,2.8,94.8c24.5,37.4-7.8,59.1-21.8,77
				c-13.9,17.8-19,109.3,71.9,96.5c90.9-12.8,64-87.6,64-87.6l28.6-139.1l-10-24.9L207.1,436.9z"/>
			<path class="st4" d="M309.1,423.8c-7.7-28.5-38.1-58.2-94.1-47.7c-56,10.5-91.9,140,0,207l35-75.7l32.8,15.8
				C282.8,523.2,329.6,500,309.1,423.8z"/>
			<path class="st5" d="M217.3,600c-50.8,18.1-92.6,26.7-106,48.4c-13.5,21.7,40.7,140.8,39,183.2c-1.7,42.4-12.7,134.9-12.7,134.9
				S236,1012.3,331,930c0,0-28-118.8-4.2-161.2c23.8-42.4,20.4-85.7,4.2-117.1c-16.1-31.4-39.9-68.6-39.9-68.6
				S242.4,591.1,217.3,600z"/>
			<path class="st2" d="M30.4,881.7c3.7,2.9,14.7,9.9,28.8,18.7c39,24.3,101.5,62.4,95.4,66.9c-8.3,6.1-9.4,11-16.6,8.3
				c-7.2-2.8-9.9,2.8-7.2,6.6c2.8,3.9,17.1,14.4,32.6,8.8c8.8-3.1,23-11,32.7-21.3c1.3-3.6,1.6-7.9,0.3-13
				c-5.5-22.1-9.8-15.4-40.7-35.8c-19.5-12.9-48.8-35.6-66.3-53.9c-10.3-10.8-16.5-20.1-14.3-25c6.1-13.2,66.2-108.2,76.2-128.6
				c9.9-20.4,13.1-50.4-7.9-61.5c-22.7-12-40.5-4.6-49.3,16.9c-8.8,21.5-70.9,159.1-75.8,170.9C13.3,851.7,16.6,870.7,30.4,881.7z"
				/>
			<path class="st1" d="M257.3,964.9c0,0,0.5,241-4.9,313.2s-18.6,114.2-21.2,131.5c-2.5,17.2-30.5,171.3-30.5,171.3
				s-18.6,15.1-50.4-3.2c0,0,31.7-224.1,28.7-265.1c-3-40.9-30-209-38.6-240.3c-8.6-31.2-2.7-105.9-2.7-105.9
				S205.1,993.3,257.3,964.9z"/>
			<path class="st1" d="M328.1,937.7c0,0,10.4,261.2,4.9,315.9c-5.5,54.7-29.5,299.3-29.5,299.3s-22.1,11.1-48.6,0
				c0,0,6.1-231.1,12.9-269.8c6.8-38.7,0.6-3.1,0.6-3.1s-35.2-244.6-37.3-294.4C231.2,985.6,290,981.3,328.1,937.7z"/>
			<path class="st4" d="M200.7,1580.9c0,0,8.6,23,21.9,35.6c13.2,12.5,51.8,40.7,41.4,56.5c-10.4,15.7-45.3,16.1-63.3,3.6
				c-18-12.5-22.9-38-35.1-43.7c-12.2-5.7-19.9-15.5-20.9-20.8c-1.1-5.4-3.1-14.4,5.6-34.3C150.3,1577.7,170.8,1594.2,200.7,1580.9z
				"/>
			<path class="st4" d="M255,1552.9c0,0-9,16.3-5,29.4c4,12.8,18.2,11.3,30.9,22.1c12.7,10.7,50.5,45.1,67.9,40.5
				c17.4-4.6,47.1-16.4,30.7-31.2c-16.4-14.8-38.4-24-50.6-36.1c-12.3-12-25.3-24.8-25.3-24.8S271.6,1563.1,255,1552.9z"/>
			<path class="st4" d="M331,930c0,0,23.3,140.9,8.3,278.5c0,0-44.4,69.6-173.6,48.8c0,0-14.8-78.8-27.7-122.4
				c-14.5-49-33.6-136.1-0.4-168.4C137.6,966.4,239.3,996.2,331,930z"/>
			<path class="st1" d="M165.7,616c0,0,20.3,60.2,70.8,61c50.5,0.8,39.6-44.6,39.6-44.6c-19.5-36.3-14.5-63.7-8.1-79
				c0.1-0.3,0.2-0.6,0.3-0.8c1-2.3,2-4.2,2.9-5.9c0.3-0.5,0.6-1,0.9-1.5c2.2-3.7,3.9-5.6,3.9-5.6l-72-37.5
				C211.8,597.9,165.7,616,165.7,616z"/>
			<path class="st1" d="M130.9,982.2c2.8,3.9,17.1,14.4,32.6,8.8c11.9-4.3,28.3-9.2,32.7-21.3c1.3-3.6,1.6-7.9,0.3-13
				c-5.5-22.1-9.8-15.4-40.7-35.8c-19.5-12.9-48.8-35.6-66.3-53.9c-8.2,4.8-20.4,14.6-30.2,33.4c39,24.3,101.5,62.4,95.4,66.9
				c-8.3,6.1-9.4,11-16.6,8.3C130.9,972.8,128.1,978.3,130.9,982.2z"/>
			<path class="st1" d="M197.4,480.5c4.3,20.8,12.4,35.2,21.9,45.1c0.1,0.1,0.3,0.3,0.4,0.4c16.6,17,37.7,20.4,51.5,20.6
				c1.9,0,3.6,0,5.2-0.1c5.9-0.3,9.7-1.1,9.7-1.1c30.9-46.3,0-129.9,0-129.9C241.2,380.9,180.7,400.2,197.4,480.5z"/>
			<path class="st0" d="M219.3,525.6c10.1,17,37.1,25.1,48.7,27.8c0.1-0.3,0.2-0.6,0.3-0.8c1-2.3,2-4.2,2.9-5.9
				c-13.9-0.1-34.9-3.6-51.5-20.6C219.6,525.9,219.5,525.7,219.3,525.6z"/>
			<path class="st4" d="M244.1,416.9c0,0,11.7,69.4-58.3,93.4c0,0-26.8-105.8,37.3-119.6c64.1-13.9,80.8,43.5,80.8,43.5
				S269.8,441.9,244.1,416.9z"/>
		</g>
	</g>
	<g>
		<g class="st0">
			<g>
				<path class="st6" d="M-1674.3,1534.7l-105-60.6c-9.9-5.7-26.1-5.7-35.9,0l-104.3,60.6c-9.8,5.7-9.8,15.1,0.1,20.8l105,60.6
					c9.9,5.7,26,5.7,35.9,0l104.3-60.6C-1664.3,1549.7-1664.3,1540.4-1674.3,1534.7L-1674.3,1534.7z"/>
			</g>
		</g>
		<g>
			<path class="st7" d="M-1727.8,1546l-98.9,57.5c3-1.8,4.9-5.5,4.9-10.8l98.9-57.5C-1722.9,1540.5-1724.7,1544.2-1727.8,1546z"/>
			<path class="st7" d="M-1930.2,929l98.9-57.5c3.1-1.8,7.3-1.5,12,1.1l-98.9,57.5C-1922.8,927.4-1927.1,927.2-1930.2,929z"/>
			<polygon class="st8" points="-1918.2,930.1 -1819.3,872.6 -1738.6,919.2 -1837.5,976.7 			"/>
			<polygon class="st7" points="-1820.1,1006.1 -1721.2,948.6 -1722.8,1535.2 -1821.8,1592.7 			"/>
			<path class="st7" d="M-1837.5,976.7l98.9-57.5c9.9,5.7,17.4,18.8,17.4,29.4l-98.9,57.5C-1820.1,995.5-1827.6,982.4-1837.5,976.7z
				"/>
			<path class="st8" d="M-1837.5,976.7c9.9,5.7,17.4,18.8,17.4,29.4l-1.7,586.6c0,10.6-7.6,15-16.9,9.6l-81.3-46.9
				c-9.2-5.3-16.8-18.4-16.8-29.1l1.7-586.6c0-10.6,7.6-15,16.9-9.6L-1837.5,976.7z"/>
			<path class="st9" d="M-1917.3,848.7l98.9-57.5c13.2,9.2,26.6,17.8,40,25.5c13.5,7.8,26.8,14.7,40,20.7l-98.9,57.5
				c-13.2-6-26.6-12.9-40-20.7C-1890.8,866.5-1904.1,858-1917.3,848.7z"/>
			<polygon class="st10" points="-1837.3,894.9 -1738.3,837.4 -1738.6,919.2 -1837.5,976.7 			"/>
			<path class="st9" d="M-1917.3,848.7c13.2,9.2,26.6,17.8,40,25.5c13.5,7.8,26.8,14.7,40,20.7l-0.2,81.8l-80.1-46.2L-1917.3,848.7z
				"/>
			<path class="st11" d="M-2098.5,200.7c-0.6,203.6,143.1,452.5,320.3,554.8l-98.9,57.5c-177.2-102.3-320.9-351.2-320.3-554.8
				c0.1-38.2,5.3-72.1,14.8-101.3c33-19.2,66-38.3,98.9-57.5C-2093.2,128.6-2098.4,162.5-2098.5,200.7z"/>
			<path class="st11" d="M-1778.2,755.4c89.1,51.5,170,56.2,228.5,22.2l-98.9,57.5c-58.5,34-139.4,29.3-228.5-22.2
				C-1847.4,795.7-1807.9,772.7-1778.2,755.4z"/>
			<path class="st11" d="M-2004.6-5.3c-35.9,20.9-63.4,56.4-79.1,104.6c-33,19.2-66,38.3-98.9,57.5c15.7-48.2,43.1-83.7,79.1-104.6
				C-2073.9,35-2034.3,12-2004.6-5.3z"/>
			<path class="st12" d="M-2103.6,52.3l98.9-57.5c58.5-34,139.4-29.3,228.6,22.2l-98.9,57.5C-1964.2,23-2045.1,18.3-2103.6,52.3z"/>
			<path class="st13" d="M-1827.3,57.2c176.9,102.2,320.5,350.7,319.9,554.1c-0.6,203.4-145,285.7-322,183.5
				c-177-102.2-320.5-350.8-319.9-554.2C-2148.8,37.4-2004.3-44.9-1827.3,57.2z"/>
			<path class="st12" d="M-1549.7,777.6l-98.9,57.5c57.7-33.5,93.6-104.8,93.9-205.9c0.6-203.6-143.1-452.4-320.3-554.7l98.9-57.5
				c177.1,102.3,320.8,351.1,320.3,554.7C-1456.1,672.8-1492,744.1-1549.7,777.6z"/>
			<path class="st14" d="M-1511.9,842.9l-98.9,57.5c33.9-19.7,60.7-49.9,79.5-89.8c19.7-41.8,29.8-92.5,29.9-150.6
				c0.2-58.1-9.6-120.2-29-184.6l98.9-57.5c19.4,64.4,29.1,126.5,29,184.6c-0.2,58.1-10.2,108.8-29.9,150.6
				C-1451.2,793-1477.9,823.2-1511.9,842.9z"/>
			<path class="st15" d="M-1530.4,475.4c19.4,64.4,29.1,126.5,29,184.6c-0.2,58.1-10.2,108.8-29.9,150.6
				c-19,40.4-46.2,70.8-80.7,90.5c-34.5,19.7-74.7,27.6-119.4,23.5c-34-3.1-69.4-13-105.9-29.6c-13.2-6-26.6-12.9-40-20.7
				c-13.5-7.8-26.8-16.3-40-25.5c-36.4-25.5-71.9-56.5-105.8-92.6c-44.6-47.4-84.5-101.6-118.8-161c-34.3-59.4-61.2-121-79.9-183.2
				c-19.4-64.4-29.1-126.5-29-184.6c0.2-58.1,10.2-108.8,29.9-150.6c19-40.4,46.2-70.8,80.7-90.5c34.5-19.7,74.7-27.6,119.4-23.5
				c46.3,4.2,95.4,21.2,146,50.4c50.6,29.2,99.6,68.9,145.7,118.1c44.6,47.5,84.6,101.6,118.8,161
				C-1576,351.6-1549.1,413.2-1530.4,475.4z M-1877.1,812.9c177.1,102.3,321.8,19.9,322.4-183.7c0.6-203.6-143.1-452.4-320.3-554.7
				c-177.2-102.3-321.8-19.9-322.4,183.7C-2198,461.7-2054.3,710.6-1877.1,812.9L-1877.1,812.9z"/>
			<path class="st14" d="M-2141.5-13l98.9-57.5c0.4-0.3,0.9-0.5,1.3-0.8c34.5-19.7,74.7-27.6,119.4-23.5
				c46.3,4.2,95.4,21.2,146,50.4c50.6,29.2,99.6,68.9,145.7,118.1c44.6,47.5,84.6,101.6,118.8,161c34.3,59.4,61.2,121,79.9,183.2
				l-98.9,57.5c-18.7-62.2-45.6-123.8-79.9-183.2c-34.3-59.4-74.3-113.6-118.8-161c-46.1-49.2-95.2-88.9-145.7-118.1
				c-50.6-29.2-99.7-46.1-146-50.4c-44.7-4.1-84.8,3.8-119.4,23.5C-2140.6-13.5-2141.1-13.2-2141.5-13z"/>
		</g>
	</g>
	<g>
		<g>
			<ellipse class="st0" cx="842.6" cy="1216.5" rx="197.2" ry="93.4"/>
			<g>
				<path class="st16" d="M891.4,238.6c-19.7,10.8-22.8,116.9,28.3,237.1c0,0,79.9,81.8,140.9,117.2c0,0-3-33.5,27.6-43.3
					c0,0-110.2-95.5-114.2-113.7c-3.9-18.2-21.7-139.2-44.3-178.6S891.4,238.6,891.4,238.6z"/>
				<g>
					<path class="st17" d="M846.3,1136c0,0-5.2,30.8-1.5,35.9c3.8,5.1,82.8,65.1,100.9,63.4c18.1-1.7,36.1-7.2,32.4-19.4
						c-3.8-12.3-65.9-89.3-65.9-89.3L846.3,1136z"/>
				</g>
				<g>
					<path class="st17" d="M719.7,1170.3c0,0-3.3,33,1.7,43.6c5,10.7,67.3,63.3,82,66c14.7,2.7,58-0.7,50.3-14
						c-7.7-13.3-59.4-95.6-59.4-95.6H719.7z"/>
				</g>
				<path class="st18" d="M901.4,584.1c0,0,14.2,187.1,15.5,254.7c1.3,67.6,0,288.3,0,288.3s-32.1,26-72.2,10.3l-20.1-247.9
					l-36.2-272L901.4,584.1z"/>
				<path class="st19" d="M835.4,620.7c0,0,4.6,218.5,0,269c-4.6,50.6-38.4,284.2-38.4,284.2s-38.8,28.7-83.7,0l17.7-289.5
					c0,0-42.9-182.8-49.5-266.9L835.4,620.7z"/>
				<path class="st20" d="M792,204.7c-15.2,0.6-90.5,42-112.8,71.8c0,0-21.3,43.3-13.4,141.4c7.9,98.1,15.8,199.8,15.8,199.8
					s105.4,24.4,175.4-3.7c0,0,32.3-15.8,44.5-29.8c0,0-11-100.5-3.1-127.3c7.9-26.8,30.4-179.1,10.6-222.3
					C909,234.5,869.5,201.6,792,204.7z"/>
				<path class="st21" d="M840.1,212.3c-4.9,10.7-11.9,15.9-11.6,36.8c0,0-37.4,21.5-69.6-24.5l2.8-52.4l63,4.9L840.1,212.3z"/>
				<path class="st22" d="M881.7,86.5c0.8,12.6,0,46-5,72c-5,26-19.3,64.5-32.6,66.1c-13.4,1.7-71.2-22.6-74.5-39.3
					c-3.3-16.7,7.5-104.6,7.5-104.6L881.7,86.5z"/>
				<path class="st22" d="M1088.2,549.6c0,0,54.5-8.5,51,4.2c-3.6,12.7-25.4,13.1-25.4,13.1s57.4,25.7,49.9,35.2
					c-7.5,9.5-29.3,34.4-61.3,19.8c-32-14.6-41.8-28.9-41.8-28.9S1055.9,561.6,1088.2,549.6z"/>
				<path class="st22" d="M764,632.4c0,0,66.6,6,50.9,18.2c-15.7,12.2-30.7,5.1-30.7,5.1s40.1,36.6,33.1,45.7
					c-7,9.1-42.7,29.4-66.5,0c-23.8-29.4-23.1-36.8-23.1-36.8S723.5,632.4,764,632.4z"/>
				<path class="st16" d="M684.8,269.8c-19.4,11-46.1,143.8-54.3,187.1c-1.7,8.9-1,18.1,2.1,26.7c13.2,37.2,53.3,142.4,95.3,181
					c0,0-3.1-30.3,36.3-32.2l-77.3-163.9c0,0,42.2-100.1,43.6-132.2C731.5,306.8,715,252.7,684.8,269.8z"/>
				<path class="st23" d="M878.2,95.3c0,0,32.6-11.2,3.8-26.6c-28.8-15.4-80.7-32-104.8-21.2c-24.1,10.8-18.3,24.5-18.3,24.5
					s-8.6-0.1-12.4,7.6c-9.9,19.9-8.9,87,22.4,96.6l34.3-55.6c0,0-7.7-18.7,0.6-26.6C812.1,86.2,857.8,103.6,878.2,95.3z"/>
				<path class="st22" d="M798.9,139.5c-3.5-6.2-12-23.4-22.8-17.7c-10.9,5.7-8.4,33.1,8.4,40.5L798.9,139.5z"/>
			</g>
		</g>
	</g>
	<g>
		<ellipse class="st0" cx="-827.9" cy="1537.1" rx="183.5" ry="87"/>
		<g>
			<path class="st24" d="M1556.8,1234c0,0-5.5,10.1-12.8,18.3c-7.3,8.2-47.9,35.4-44.9,48.4c3,13,20.7,35.4,51.8,22.5
				c31.1-13,30.7-32.9,49.3-46.3c18.6-13.4,22.2-16.1,23.5-24.7s-3.2-30-3.2-30L1556.8,1234z"/>
			<path class="st24" d="M1414.8,1157.8c0,0-41.6,32.4-60,40.3c-18.4,7.8-40.1,17.4-42.2,25.2c-2,7.8-6.1,29,36.3,23.5
				c42.4-5.6,61.1-33.3,82.3-34.6c21.2-1.3,39.9-5,43.9-16.9s-5.4-31.6-5.4-31.6L1414.8,1157.8z"/>
			<path class="st25" d="M1545.3,212.8c20.1-1.9,68.3-7.5,97.2,22.5c28.9,30,33.2,78.1-7.5,88.3c-40.7,10.2-95.3-34.2-105.5-59.9
				C1519.4,238,1529.4,214.3,1545.3,212.8z"/>
			<path class="st26" d="M1820.3,222.4c0,0-0.6,4.7-1.6,12.7c-5.2,39-21.4,154.9-32.1,162.4c-12.8,9.1-66.4,8.6-171.9-9.1
				c0,0-27.8-23.6-16.1-69.1c11.8-45.5,34.1-40.4,34.1-40.4c11.9,10.5,109.9,71.7,120.6,49.7c8.1-16.5,20.7-77.8,26.4-107.1
				c1.9-9.6,3-15.8,3-15.8S1789,220.1,1820.3,222.4z"/>
			<path class="st1" d="M1279.4,76.1c-22.2-0.3-37.9,19.6-37.9,19.6c-19.9-8.5-44.4-54-22.8-74.3c21.6-20.4,49.2-3.4,53.5,6.4
				C1276.5,37.4,1279.4,76.1,1279.4,76.1z"/>
			<path class="st26" d="M1475,208.6l-24.5,116.5c0,0-101.9-71.6-124-93.7c-17.4-17.4-60.3-91.9-77.6-122.5
				c18-17.1,32.2-21.5,38.7-22.7c19,23.5,65.9,81.2,87.3,102.4C1402.1,215.4,1475,208.6,1475,208.6z"/>
			<path class="st27" d="M1639.2,643.7c0,0,26,26.8,15,80.1s-43.1,184.4-39.8,243.7c3.4,59.2,5.9,254.7,5.9,254.7
				s-22.2,35.8-63.6,11.9c0,0-31.1-231-35.4-280.1c-4.2-49.1-0.7-186.6-0.7-186.6l-47.5,164.7c0,0,12.7,38.1,7.6,65.1
				c-5.1,27.1-13.5,128.6-11,166.7c0,0-36.4,16.9-55-5.9c0,0-14.4-195.4-14.4-262.3s39.4-288,39.4-288S1502.3,644,1639.2,643.7z"/>
			<path class="st26" d="M1546.4,214.3c39.7,11.1,90.2,69,110.5,85.6c20.3,16.6-1.5,107.3-6.3,135.1c-4.8,27.8,0.6,180.7-3,193.4
				c-3.6,12.7-22.2,57.4-150.7,15.1c-128.5-42.3-34.2-128.8-59-293.2S1482.9,196.6,1546.4,214.3z"/>
			<path class="st4" d="M1562.1,79.8c7.4,1.8,25,6.6,21.8,30.7c-3.3,24.1,0.7,79-45.4,78.1c-46.1-0.9-23.6-94.7-11.7-98.5
				C1538.8,86.4,1558.8,79,1562.1,79.8z"/>
			<path class="st1" d="M1453.2,103.4c0,0-18,94.4,13.5,115.8c31.5,21.4,94.4-6.5,82-93S1453.2,103.4,1453.2,103.4z"/>
			<path class="st4" d="M1554.2,145.6c-1.7,10.2-16.8,9.7-26.6-9.4c-9.7-19.2-18-33.3-32.5-26c-14.5,7.4-43.1,13.9-55.2-5.6
				s-34.8-12.4-25.1-37.2c9.7-24.8,31.6,2.1,56.9-5.6c25.4-7.7,59.3-22.4,86.7-2.4C1586.1,79.5,1554.5,143.8,1554.2,145.6z"/>
			<path class="st1" d="M1496.8,208.1l10.5,32.5c0,0,7.1,13.7,27.7,13.5s38.6-17.2,34.7-29.1c-0.6-1.8-20.3-67.8-20.3-67.8
				L1496.8,208.1z"/>
			
				<ellipse transform="matrix(0.7717 -0.636 0.636 0.7717 255.3198 1017.8724)" class="st1" cx="1545.3" cy="153.3" rx="18.9" ry="12.3"/>
			<path class="st1" d="M1826,212.1c-1.6,3.5-3.5,6.9-5.7,10.3c-31.4-2.3-37.5-16.7-37.5-16.7s-2.5-3.9-5.3-10
				c-7.7-16.1-18.4-47.5,5.3-61.5C1813.4,116.1,1848.5,163.4,1826,212.1z"/>
			<path class="st25" d="M1820.3,222.4c0,0-0.6,4.7-1.6,12.7c-17.5-0.9-31.8-8.7-38.9-13.6c1.9-9.6,3-15.8,3-15.8
				S1789,220.1,1820.3,222.4z"/>
			<path class="st25" d="M1287.6,86.3c-6.4,1.2-20.7,5.6-38.7,22.7c-4.5-7.9-7.2-12.9-7.4-13.2l0,0c0,0,15.7-19.9,37.9-19.6
				C1279.4,76.1,1282.5,79.9,1287.6,86.3z"/>
			<path class="st28" d="M1449.2,484.5c0,0,49.4,28.7,110.5,32.4c0,0-0.7,51.6,28.7,76.2c0,0-14,37.6-15.1,37.6
				c-1.1,0-104.2-9.9-135.5-51.6l-4.4-40.5C1433.3,538.6,1445.8,526.1,1449.2,484.5z"/>
		</g>
	</g>
	<g id="desk_5_">
		<g>
			<path class="st29" d="M256.6,1223.6c5.8,3.3,5.8,8.7,0.1,12c-5.7,3.3-15,3.3-20.7,0c-5.7-3.3-5.8-8.7-0.1-12
				C241.5,1220.3,250.8,1220.3,256.6,1223.6z"/>
		</g>
		<g>
			<g class="st30">
				<g>
					<path class="st31" d="M263.6,1793.7v8.7c0,2.8-1.9,5.6-5.5,7.7c-7.4,4.3-19.4,4.3-26.9,0c-3.8-2.2-5.6-5-5.6-7.8v-8.7
						c0,2.8,1.9,5.7,5.6,7.8c7.5,4.3,19.5,4.3,26.9,0C261.8,1799.3,263.6,1796.5,263.6,1793.7z"/>
				</g>
				<g>
					<path class="st32" d="M258,1785.9c7.5,4.3,7.5,11.3,0.1,15.6c-7.4,4.3-19.4,4.3-26.9,0c-7.5-4.3-7.5-11.3-0.1-15.6
						C238.5,1781.6,250.5,1781.6,258,1785.9z"/>
				</g>
			</g>
		</g>
		<g>
			<g class="st30">
				<g>
					<path class="st31" d="M1221.3,1240.3l0,8.7c0,2.8-1.9,5.6-5.5,7.7c-7.4,4.3-19.4,4.3-26.9,0c-3.8-2.2-5.6-5-5.6-7.8v-8.7
						c0,2.8,1.9,5.7,5.6,7.8c7.5,4.3,19.5,4.3,26.9,0C1219.4,1245.9,1221.3,1243.1,1221.3,1240.3z"/>
				</g>
				<g>
					<path class="st32" d="M1215.7,1232.5c7.5,4.3,7.5,11.3,0.1,15.6c-7.4,4.3-19.4,4.3-26.9,0c-7.5-4.3-7.5-11.3-0.1-15.6
						C1196.2,1228.2,1208.2,1228.2,1215.7,1232.5z"/>
				</g>
			</g>
		</g>
		<g>
			<g class="st30">
				<g class="st30">
					<defs>
						<path id="SVGID_1_" class="st30" d="M1217.9,1132.3l7.4,4c-2.7-1.4-5.8-2.1-9.2-1.6l-7.4-4
							C1212.1,1130.2,1215.2,1130.8,1217.9,1132.3z"/>
					</defs>
					<clipPath id="SVGID_2_">
						<use xlink:href="#SVGID_1_"  style="overflow:visible;"/>
					</clipPath>
					<g class="st33">
						<path class="st34" d="M1216.1,1134.7l-7.4-4c2.1-0.3,4.1-0.2,6,0.3l7.4,4C1220.2,1134.6,1218.2,1134.4,1216.1,1134.7
							L1216.1,1134.7z"/>
						<path class="st35" d="M1222.1,1135l-7.4-4c0.9,0.2,1.9,0.6,2.7,1l7.4,4C1223.9,1135.6,1223,1135.3,1222.1,1135L1222.1,1135z"
							/>
						<path class="st36" d="M1224.8,1136.1l-7.4-4c0.2,0.1,0.4,0.2,0.5,0.3l7.4,4C1225.1,1136.2,1225,1136.1,1224.8,1136.1
							L1224.8,1136.1z"/>
					</g>
				</g>
				<g class="st30">
					<defs>
						<path id="SVGID_3_" class="st30" d="M1206.8,1170.3l-7.4-4c-4.8-2.6-8-8-8-14.6c0-10.3,7.7-19.7,17.3-21l7.4,4
							c-9.5,1.3-17.2,10.7-17.3,21C1198.8,1162.4,1202,1167.7,1206.8,1170.3z"/>
					</defs>
					<clipPath id="SVGID_4_">
						<use xlink:href="#SVGID_3_"  style="overflow:visible;"/>
					</clipPath>
					<g class="st37">
						<path class="st38" d="M1206.8,1170.3l-7.4-4c-4.8-2.6-8-8-8-14.6c0-2.5,0.5-5,1.3-7.3l7.4,4c-0.9,2.3-1.3,4.8-1.3,7.3
							C1198.8,1162.4,1202,1167.7,1206.8,1170.3L1206.8,1170.3z"/>
						<path class="st39" d="M1200.2,1148.4l-7.4-4c0.4-1,0.8-2,1.3-2.9l7.4,4C1201,1146.5,1200.5,1147.4,1200.2,1148.4
							L1200.2,1148.4z"/>
						<path class="st10" d="M1201.5,1145.5l-7.4-4c0.4-0.8,0.9-1.5,1.4-2.3l7.4,4C1202.4,1144,1201.9,1144.7,1201.5,1145.5
							L1201.5,1145.5z"/>
						<path class="st40" d="M1202.9,1143.3l-7.4-4c0.5-0.7,1-1.3,1.5-2l7.4,4C1203.9,1141.9,1203.4,1142.6,1202.9,1143.3
							L1202.9,1143.3z"/>
						<path class="st41" d="M1204.4,1141.3l-7.4-4c0.6-0.6,1.1-1.2,1.8-1.8l7.4,4C1205.6,1140.1,1205,1140.7,1204.4,1141.3
							L1204.4,1141.3z"/>
						<path class="st36" d="M1206.2,1139.5l-7.4-4c0.7-0.6,1.4-1.1,2.1-1.6l7.4,4C1207.5,1138.4,1206.9,1138.9,1206.2,1139.5
							L1206.2,1139.5z"/>
						<path class="st35" d="M1208.3,1137.9l-7.4-4c0.9-0.6,1.8-1.2,2.8-1.6l7.4,4C1210.1,1136.7,1209.2,1137.3,1208.3,1137.9
							L1208.3,1137.9z"/>
						<path class="st34" d="M1211.1,1136.3l-7.4-4c1.6-0.7,3.3-1.3,5-1.5l7.4,4C1214.4,1135,1212.7,1135.5,1211.1,1136.3
							L1211.1,1136.3z"/>
					</g>
				</g>
				<g>
					<path class="st42" d="M1216.1,1134.7c9.5-1.3,17.2,5.9,17.2,16.2c0,10.3-7.7,19.7-17.3,21c-9.5,1.3-17.2-5.9-17.2-16.2
						C1198.9,1145.5,1206.6,1136.1,1216.1,1134.7z"/>
				</g>
			</g>
		</g>
		<g>
			<path class="st31" d="M1218.6,676.2l-1.5,563.3c0,2.2-1.4,4.3-4.3,6c-5.7,3.3-15,3.3-20.7,0c-2.9-1.7-4.3-3.9-4.3-6l1.5-563.3
				c0,2.2,1.4,4.4,4.3,6c5.8,3.3,15,3.3,20.7,0C1217.1,680.6,1218.6,678.4,1218.6,676.2z"/>
		</g>
		<g>
			<g class="st30">
				<g>
					<path class="st29" d="M1629.6,1402.8c-5.7,3.3-10.4,0.7-10.5-5.9c0-6.6,4.6-14.7,10.3-18c5.7-3.3,10.4-0.7,10.4,5.9
						C1640,1391.5,1635.4,1399.5,1629.6,1402.8z"/>
				</g>
				<g>
					<path class="st31" d="M1622.2,1403.6l-415.1-239c-1.9-1.1-3-3.4-3-6.7c0-6.6,4.6-14.7,10.3-18c2.9-1.7,5.5-1.8,7.4-0.7
						l415.1,239c-1.9-1.1-4.5-0.9-7.4,0.7c-5.7,3.3-10.4,11.4-10.3,18C1619.2,1400.2,1620.4,1402.5,1622.2,1403.6z"/>
				</g>
			</g>
		</g>
		<g>
			<g class="st30">
				<g>
					<path class="st31" d="M1652.9,1488.5v8.7c0,2.8-1.9,5.6-5.5,7.7c-7.4,4.3-19.4,4.3-26.9,0c-3.8-2.2-5.6-5-5.6-7.8v-8.7
						c0,2.8,1.9,5.7,5.6,7.8c7.5,4.3,19.5,4.3,26.9,0C1651.1,1494.1,1652.9,1491.3,1652.9,1488.5z"/>
				</g>
				<g>
					<path class="st32" d="M1647.3,1480.7c7.5,4.3,7.5,11.3,0.1,15.6c-7.4,4.3-19.4,4.3-26.9,0c-7.5-4.3-7.5-11.3-0.1-15.6
						C1627.8,1476.4,1639.9,1476.4,1647.3,1480.7z"/>
				</g>
			</g>
		</g>
		<g>
			<g class="st30">
				<g class="st30">
					<defs>
						<path id="SVGID_5_" class="st30" d="M1632,1370.2l7.4,4c-2.7-1.4-5.8-2.1-9.2-1.6l-7.4-4
							C1626.2,1368.1,1629.3,1368.7,1632,1370.2z"/>
					</defs>
					<clipPath id="SVGID_6_">
						<use xlink:href="#SVGID_5_"  style="overflow:visible;"/>
					</clipPath>
					<g class="st43">
						<path class="st34" d="M1630.2,1372.7l-7.4-4c2.1-0.3,4.1-0.2,6,0.3l7.4,4C1634.3,1372.5,1632.3,1372.4,1630.2,1372.7
							L1630.2,1372.7z"/>
						<path class="st35" d="M1636.2,1373l-7.4-4c0.9,0.2,1.9,0.6,2.7,1l7.4,4C1638,1373.5,1637.1,1373.2,1636.2,1373L1636.2,1373z"
							/>
						<path class="st36" d="M1638.9,1374l-7.4-4c0.2,0.1,0.4,0.2,0.5,0.3l7.4,4C1639.2,1374.1,1639.1,1374,1638.9,1374L1638.9,1374z
							"/>
					</g>
				</g>
				<g class="st30">
					<defs>
						<path id="SVGID_7_" class="st30" d="M1620.9,1408.2l-7.4-4c-4.8-2.6-8-8-8-14.6c0-10.3,7.7-19.7,17.3-21l7.4,4
							c-9.5,1.3-17.2,10.7-17.3,21C1612.9,1400.3,1616.1,1405.6,1620.9,1408.2z"/>
					</defs>
					<clipPath id="SVGID_8_">
						<use xlink:href="#SVGID_7_"  style="overflow:visible;"/>
					</clipPath>
					<g class="st44">
						<path class="st38" d="M1620.9,1408.2l-7.4-4c-4.8-2.6-8-8-8-14.6c0-2.5,0.5-5,1.3-7.3l7.4,4c-0.9,2.3-1.3,4.8-1.3,7.3
							C1612.9,1400.3,1616.1,1405.6,1620.9,1408.2L1620.9,1408.2z"/>
						<path class="st39" d="M1614.3,1386.3l-7.4-4c0.4-1,0.8-2,1.3-2.9l7.4,4C1615.1,1384.4,1614.7,1385.3,1614.3,1386.3
							L1614.3,1386.3z"/>
						<path class="st10" d="M1615.6,1383.4l-7.4-4c0.4-0.8,0.9-1.5,1.4-2.3l7.4,4C1616.5,1381.9,1616,1382.7,1615.6,1383.4
							L1615.6,1383.4z"/>
						<path class="st40" d="M1617,1381.2l-7.4-4c0.5-0.7,1-1.3,1.5-2l7.4,4C1618,1379.8,1617.5,1380.5,1617,1381.2L1617,1381.2z"/>
						<path class="st41" d="M1618.5,1379.2l-7.4-4c0.6-0.6,1.1-1.2,1.8-1.8l7.4,4C1619.7,1378,1619.1,1378.6,1618.5,1379.2
							L1618.5,1379.2z"/>
						<path class="st36" d="M1620.3,1377.4l-7.4-4c0.7-0.6,1.4-1.1,2.1-1.6l7.4,4C1621.6,1376.3,1621,1376.8,1620.3,1377.4
							L1620.3,1377.4z"/>
						<path class="st35" d="M1622.4,1375.8l-7.4-4c0.9-0.6,1.8-1.2,2.8-1.6l7.4,4C1624.2,1374.6,1623.3,1375.2,1622.4,1375.8
							L1622.4,1375.8z"/>
						<path class="st34" d="M1625.2,1374.2l-7.4-4c1.6-0.7,3.3-1.3,5-1.5l7.4,4C1628.5,1372.9,1626.8,1373.4,1625.2,1374.2
							L1625.2,1374.2z"/>
					</g>
				</g>
				<g>
					<path class="st42" d="M1630.2,1372.7c9.5-1.3,17.2,5.9,17.2,16.2c0,10.3-7.7,19.7-17.3,21c-9.5,1.3-17.2-5.9-17.2-16.2
						C1613,1383.4,1620.7,1374,1630.2,1372.7z"/>
				</g>
			</g>
		</g>
		<g>
			<g class="st30">
				<g>
					<path class="st31" d="M1649.3,925l-1.5,563.3c0,2.2-1.4,4.3-4.3,6c-5.7,3.3-15,3.3-20.7,0c-2.9-1.7-4.3-3.9-4.3-6l1.5-563.3
						c0,2.2,1.4,4.4,4.3,6c5.8,3.3,15,3.3,20.7,0C1647.9,929.3,1649.3,927.1,1649.3,925z"/>
				</g>
				<g>
					<path class="st29" d="M1645,918.9c5.8,3.3,5.8,8.7,0.1,12c-5.7,3.3-15,3.3-20.7,0c-5.7-3.3-5.8-8.7-0.1-12
						C1630,915.6,1639.3,915.6,1645,918.9z"/>
				</g>
			</g>
		</g>
		<g>
			<g class="st30">
				<g>
					<path class="st41" d="M1378.4,1253l14.4-8.4c2.7-1.6,6.4-1.3,10.6,1l-14.4,8.4C1384.8,1251.7,1381.1,1251.5,1378.4,1253z"/>
				</g>
				<g>
					<path class="st41" d="M1413.8,1280.8l-14.4,8.4c2.7-1.5,4.3-4.8,4.3-9.5c0-9.4-6.6-20.9-14.8-25.6l14.4-8.4
						c8.2,4.7,14.8,16.2,14.8,25.6C1418.1,1276,1416.4,1279.3,1413.8,1280.8z"/>
				</g>
				<g>
					<path class="st42" d="M1388.9,1254.1c8.2,4.7,14.8,16.2,14.8,25.6c0,9.4-6.7,13.2-14.9,8.5c-8.2-4.7-14.8-16.2-14.8-25.6
						C1374.1,1253.1,1380.7,1249.4,1388.9,1254.1z"/>
				</g>
			</g>
		</g>
		<g>
			<g class="st30">
				<g>
					<path class="st31" d="M970.7,1501.3c0-6.6,4.6-9.4,10.3-6.1c5.7,3.2,10.4,11.3,10.5,17.9c0,6.6-4.6,9.4-10.3,6.1
						C975.4,1515.9,970.7,1507.9,970.7,1501.3z"/>
				</g>
				<g>
					<path class="st31" d="M973.7,1494.5l408.7-235.8c1.9-1.1,4.4-1,7.3,0.7c5.7,3.2,10.4,11.3,10.5,17.9c0,3.3-1.1,5.7-3,6.8
						l-408.7,235.8c1.9-1.1,3.1-3.5,3-6.8c0-6.6-4.7-14.7-10.5-17.9C978.2,1493.5,975.6,1493.4,973.7,1494.5z"/>
				</g>
			</g>
		</g>
		<g>
			<g class="st30">
				<g>
					<path class="st41" d="M960.2,1494.8l14.4-8.4c2.7-1.6,6.4-1.3,10.6,1l-14.4,8.4C966.6,1493.4,962.8,1493.2,960.2,1494.8z"/>
				</g>
				<g>
					<path class="st41" d="M995.5,1522.6l-14.4,8.4c2.7-1.5,4.3-4.8,4.3-9.5c0-9.4-6.6-20.9-14.8-25.6l14.4-8.4
						c8.2,4.7,14.8,16.2,14.8,25.6C999.8,1517.8,998.2,1521,995.5,1522.6z"/>
				</g>
				<g>
					<path class="st42" d="M970.7,1495.8c8.2,4.7,14.8,16.2,14.8,25.6c0,9.4-6.7,13.2-14.9,8.5c-8.2-4.7-14.8-16.2-14.8-25.6
						C955.9,1494.9,962.5,1491.1,970.7,1495.8z"/>
				</g>
			</g>
		</g>
		<g>
			<g class="st30">
				<g>
					<path class="st31" d="M440,1808.9c0-6.6,4.6-9.4,10.3-6.1c5.7,3.2,10.4,11.3,10.5,17.9c0,6.6-4.6,9.4-10.3,6.1
						C444.7,1823.5,440.1,1815.5,440,1808.9z"/>
				</g>
				<g>
					<path class="st31" d="M443,1802.1l518.7-301.6c1.9-1.1,4.4-1,7.3,0.7c5.7,3.2,10.4,11.3,10.5,17.9c0,3.3-1.1,5.7-3,6.8
						l-518.7,301.6c1.9-1.1,3.1-3.5,3-6.8c0-6.6-4.7-14.7-10.5-17.9C447.5,1801.2,444.9,1801,443,1802.1z"/>
				</g>
			</g>
		</g>
		<g>
			<g class="st30">
				<g>
					<path class="st41" d="M439,1797.1l14.4-8.4c2.7-1.6,6.4-1.3,10.6,1l-14.4,8.4C445.4,1795.8,441.7,1795.6,439,1797.1z"/>
				</g>
				<g>
					<path class="st41" d="M474.4,1824.9l-14.4,8.4c2.7-1.5,4.3-4.8,4.3-9.5c0-9.4-6.6-20.9-14.8-25.6l14.4-8.4
						c8.2,4.7,14.8,16.2,14.8,25.6C478.7,1820.1,477,1823.4,474.4,1824.9z"/>
				</g>
				<g>
					<path class="st31" d="M449.5,1798.2c8.2,4.7,14.8,16.2,14.8,25.6c0,9.4-6.7,13.2-14.9,8.5c-8.2-4.7-14.8-16.2-14.8-25.6
						C434.7,1797.2,441.4,1793.5,449.5,1798.2z"/>
				</g>
			</g>
		</g>
		<g>
			<path class="st31" d="M260.9,1229.6l-1.5,563.3c0,2.2-1.4,4.3-4.3,6c-5.7,3.3-15,3.3-20.7,0c-2.9-1.7-4.3-3.9-4.3-6l1.5-563.3
				c0,2.2,1.4,4.4,4.3,6c5.8,3.3,15,3.3,20.7,0C259.5,1234,260.9,1231.8,260.9,1229.6z"/>
		</g>
		<g>
			<g class="st30">
				<g>
					<path class="st31" d="M695.2,2041.9v8.7c0,2.8-1.9,5.6-5.5,7.7c-7.4,4.3-19.4,4.3-26.9,0c-3.8-2.2-5.6-5-5.6-7.8v-8.7
						c0,2.8,1.9,5.7,5.6,7.8c7.5,4.3,19.5,4.3,26.9,0C693.4,2047.5,695.2,2044.7,695.2,2041.9z"/>
				</g>
				<g>
					<path class="st32" d="M689.6,2034.1c7.5,4.3,7.5,11.3,0.1,15.6c-7.4,4.3-19.4,4.3-26.9,0c-7.5-4.3-7.5-11.3-0.1-15.6
						C670.1,2029.8,682.2,2029.8,689.6,2034.1z"/>
				</g>
			</g>
		</g>
		<g>
			<g class="st30">
				<g class="st30">
					<defs>
						<path id="SVGID_9_" class="st30" d="M260.2,1685.7l7.4,4c-2.7-1.4-5.8-2.1-9.2-1.6l-7.4-4
							C254.4,1683.6,257.5,1684.2,260.2,1685.7z"/>
					</defs>
					<clipPath id="SVGID_10_">
						<use xlink:href="#SVGID_9_"  style="overflow:visible;"/>
					</clipPath>
					<g class="st45">
						<path class="st34" d="M258.4,1688.1l-7.4-4c2.1-0.3,4.1-0.2,6,0.3l7.4,4C262.5,1688,260.5,1687.8,258.4,1688.1L258.4,1688.1z"
							/>
						<path class="st35" d="M264.4,1688.4l-7.4-4c0.9,0.2,1.9,0.6,2.7,1l7.4,4C266.2,1689,265.3,1688.7,264.4,1688.4L264.4,1688.4z"
							/>
						<path class="st36" d="M267.1,1689.4l-7.4-4c0.2,0.1,0.4,0.2,0.5,0.3l7.4,4C267.4,1689.6,267.3,1689.5,267.1,1689.4
							L267.1,1689.4z"/>
					</g>
				</g>
				<g class="st30">
					<defs>
						<path id="SVGID_11_" class="st30" d="M249.2,1723.7l-7.4-4c-4.8-2.6-8-8-8-14.6c0-10.3,7.7-19.7,17.3-21l7.4,4
							c-9.5,1.3-17.2,10.7-17.3,21C241.2,1715.7,244.3,1721.1,249.2,1723.7z"/>
					</defs>
					<clipPath id="SVGID_12_">
						<use xlink:href="#SVGID_11_"  style="overflow:visible;"/>
					</clipPath>
					<g class="st46">
						<path class="st38" d="M249.2,1723.7l-7.4-4c-4.8-2.6-8-8-8-14.6c0-2.5,0.5-5,1.3-7.3l7.4,4c-0.9,2.3-1.3,4.8-1.3,7.3
							C241.2,1715.7,244.3,1721.1,249.2,1723.7L249.2,1723.7z"/>
						<path class="st39" d="M242.5,1701.8l-7.4-4c0.4-1,0.8-2,1.3-2.9l7.4,4C243.3,1699.8,242.9,1700.8,242.5,1701.8L242.5,1701.8z"
							/>
						<path class="st10" d="M243.8,1698.9l-7.4-4c0.4-0.8,0.9-1.5,1.4-2.3l7.4,4C244.7,1697.4,244.2,1698.1,243.8,1698.9
							L243.8,1698.9z"/>
						<path class="st40" d="M245.2,1696.6l-7.4-4c0.5-0.7,1-1.3,1.5-2l7.4,4C246.2,1695.3,245.7,1696,245.2,1696.6L245.2,1696.6z"/>
						<path class="st41" d="M246.8,1694.7l-7.4-4c0.6-0.6,1.1-1.2,1.8-1.8l7.4,4C247.9,1693.5,247.3,1694.1,246.8,1694.7
							L246.8,1694.7z"/>
						<path class="st36" d="M248.5,1692.9l-7.4-4c0.7-0.6,1.4-1.1,2.1-1.6l7.4,4C249.9,1691.8,249.2,1692.3,248.5,1692.9
							L248.5,1692.9z"/>
						<path class="st35" d="M250.6,1691.3l-7.4-4c0.9-0.6,1.8-1.2,2.8-1.6l7.4,4C252.4,1690.1,251.5,1690.6,250.6,1691.3
							L250.6,1691.3z"/>
						<path class="st34" d="M253.4,1689.6l-7.4-4c1.6-0.7,3.3-1.3,5-1.5l7.4,4C256.7,1688.4,255,1688.9,253.4,1689.6L253.4,1689.6z"
							/>
					</g>
				</g>
				<g>
					<path class="st42" d="M258.4,1688.1c9.5-1.3,17.2,5.9,17.2,16.2c0,10.3-7.7,19.7-17.3,21c-9.5,1.3-17.2-5.9-17.2-16.2
						C241.2,1698.9,248.9,1689.5,258.4,1688.1z"/>
				</g>
			</g>
		</g>
		<g>
			<g class="st30">
				<g>
					<path class="st29" d="M672,1956.2c-5.7,3.3-10.4,0.7-10.5-5.9c0-6.6,4.6-14.7,10.3-18c5.7-3.3,10.4-0.7,10.4,5.9
						C682.3,1944.8,677.7,1952.9,672,1956.2z"/>
				</g>
				<g>
					<path class="st31" d="M664.6,1957l-415.1-239c-1.9-1.1-3-3.4-3-6.7c0-6.6,4.6-14.7,10.3-18c2.9-1.7,5.5-1.8,7.4-0.7l415.1,239
						c-1.9-1.1-4.5-0.9-7.4,0.7c-5.7,3.3-10.4,11.4-10.3,18C661.5,1953.6,662.7,1955.9,664.6,1957z"/>
				</g>
			</g>
		</g>
		<g>
			<g class="st30">
				<g class="st30">
					<defs>
						<path id="SVGID_13_" class="st30" d="M674.3,1923.6l7.4,4c-2.7-1.4-5.8-2.1-9.2-1.6l-7.4-4
							C668.5,1921.5,671.6,1922.1,674.3,1923.6z"/>
					</defs>
					<clipPath id="SVGID_14_">
						<use xlink:href="#SVGID_13_"  style="overflow:visible;"/>
					</clipPath>
					<g class="st47">
						<path class="st34" d="M672.5,1926l-7.4-4c2.1-0.3,4.1-0.2,6,0.3l7.4,4C676.6,1925.9,674.6,1925.7,672.5,1926L672.5,1926z"/>
						<path class="st35" d="M678.5,1926.3l-7.4-4c0.9,0.2,1.9,0.6,2.7,1l7.4,4C680.3,1926.9,679.4,1926.6,678.5,1926.3L678.5,1926.3
							z"/>
						<path class="st36" d="M681.2,1927.4l-7.4-4c0.2,0.1,0.4,0.2,0.5,0.3l7.4,4C681.6,1927.5,681.4,1927.4,681.2,1927.4
							L681.2,1927.4z"/>
					</g>
				</g>
				<g class="st30">
					<defs>
						<path id="SVGID_15_" class="st30" d="M663.3,1961.6l-7.4-4c-4.8-2.6-8-8-8-14.6c0-10.3,7.7-19.7,17.3-21l7.4,4
							c-9.5,1.3-17.2,10.7-17.3,21C655.3,1953.7,658.4,1959,663.3,1961.6z"/>
					</defs>
					<clipPath id="SVGID_16_">
						<use xlink:href="#SVGID_15_"  style="overflow:visible;"/>
					</clipPath>
					<g class="st48">
						<path class="st38" d="M663.3,1961.6l-7.4-4c-4.8-2.6-8-8-8-14.6c0-2.5,0.5-5,1.3-7.3l7.4,4c-0.9,2.3-1.3,4.8-1.3,7.3
							C655.3,1953.7,658.4,1959,663.3,1961.6L663.3,1961.6z"/>
						<path class="st39" d="M656.6,1939.7l-7.4-4c0.4-1,0.8-2,1.3-2.9l7.4,4C657.4,1937.8,657,1938.7,656.6,1939.7L656.6,1939.7z"/>
						<path class="st10" d="M657.9,1936.8l-7.4-4c0.4-0.8,0.9-1.5,1.4-2.3l7.4,4C658.8,1935.3,658.3,1936,657.9,1936.8L657.9,1936.8
							z"/>
						<path class="st40" d="M659.3,1934.6l-7.4-4c0.5-0.7,1-1.3,1.5-2l7.4,4C660.3,1933.2,659.8,1933.9,659.3,1934.6L659.3,1934.6z"
							/>
						<path class="st41" d="M660.9,1932.6l-7.4-4c0.6-0.6,1.1-1.2,1.8-1.8l7.4,4C662,1931.4,661.4,1932,660.9,1932.6L660.9,1932.6z"
							/>
						<path class="st36" d="M662.6,1930.8l-7.4-4c0.7-0.6,1.4-1.1,2.1-1.6l7.4,4C664,1929.7,663.3,1930.2,662.6,1930.8L662.6,1930.8
							z"/>
						<path class="st35" d="M664.7,1929.2l-7.4-4c0.9-0.6,1.8-1.2,2.8-1.6l7.4,4C666.5,1928,665.6,1928.6,664.7,1929.2L664.7,1929.2
							z"/>
						<path class="st34" d="M667.5,1927.6l-7.4-4c1.6-0.7,3.3-1.3,5-1.5l7.4,4C670.8,1926.3,669.1,1926.8,667.5,1927.6L667.5,1927.6
							z"/>
					</g>
				</g>
				<g>
					<path class="st42" d="M672.5,1926c9.5-1.3,17.2,5.9,17.2,16.2c0,10.3-7.7,19.7-17.3,21c-9.5,1.3-17.2-5.9-17.2-16.2
						C655.3,1936.8,663,1927.4,672.5,1926z"/>
				</g>
			</g>
		</g>
		<g>
			<g class="st30">
				<g>
					<path class="st31" d="M691.7,1478.4l-1.5,563.3c0,2.2-1.4,4.3-4.3,6c-5.7,3.3-15,3.3-20.7,0c-2.9-1.7-4.3-3.9-4.3-6l1.5-563.3
						c0,2.2,1.4,4.4,4.3,6c5.8,3.3,15,3.3,20.7,0C690.2,1482.7,691.6,1480.5,691.7,1478.4z"/>
				</g>
				<g>
					<path class="st29" d="M687.3,1472.3c5.8,3.3,5.8,8.7,0.1,12c-5.7,3.3-15,3.3-20.7,0c-5.7-3.3-5.8-8.7-0.1-12
						C672.3,1469,681.6,1469,687.3,1472.3z"/>
				</g>
			</g>
		</g>
		<g>
			<g id="desk_4_">
				<polygon class="st49" points="149.7,1193.5 628.4,1469.8 1681.3,861.9 1202.7,585.5 				"/>
				<polygon class="st50" points="628.4,1469.8 628.1,1524.9 1681.3,917.1 1681.3,861.9 				"/>
			</g>
			<polygon class="st14" points="149.7,1193.5 628.4,1469.8 628.1,1524.9 149.7,1248.7 			"/>
		</g>
	</g>
	<g>
		<path class="st0" d="M1203.6,848.5l172.6,99.6l126.8-73.2l12.6-6.6l-176.8-92.7c-5.2-3-11.6-3-16.8,0L1203.6,837V848.5z"/>
		<g>
			<polygon class="st51" points="1194.6,840.7 1366.6,939.9 1494,866.4 1322,767.1 			"/>
			<polygon class="st52" points="1492,834.9 1492,866.4 1367.1,938.4 1367.1,907.2 			"/>
			<path class="st51" d="M1194.6,808.8l172,99.3l127.4-73.6l-166.9-96.4c-3.1-1.8-7-1.8-10.1,0L1194.6,808.8z"/>
			<polygon class="st53" points="1194.6,808.8 1366.6,908.1 1366.6,941.9 1194.6,842.6 			"/>
			<polygon class="st54" points="1366.6,908.1 1366.6,910.6 1494,836.9 1494,834.6 			"/>
			<polygon class="st54" points="1366.6,939.9 1366.6,941.9 1494,868.3 1494,866.4 			"/>
			<polygon class="st54" points="1366.6,909 1369,907.5 1369,938.4 1366.6,939.9 			"/>
			<path class="st55" d="M1378.1,919l7.9-4.6c0,0,3.8,6,6,7c2.1,0.9,11.2,3.3,13.1,3.4l-8,6c0,0-10.5-3.4-12.3-5
				C1382.2,923.6,1378.1,919,1378.1,919z"/>
			<g>
				<path class="st52" d="M1334.3,772.9l-68,39.3c-3.4,1.9-3.4,5.1,0,7.1l20.6,12c3.3,1.9,8.8,1.9,12.2,0l68-39.3
					c3.4-1.9,3.4-5.1,0-7.1l-20.6-12C1343.1,771,1337.6,771,1334.3,772.9L1334.3,772.9z"/>
			</g>
		</g>
		<g>
			<polygon class="st56" points="1194.6,800.9 1366.6,900.1 1494,826.6 1322,727.3 			"/>
			<polygon class="st52" points="1492,795.2 1492,826.6 1367.1,898.7 1367.1,867.4 			"/>
			<path class="st56" d="M1194.6,769.1l172,99.3l127.4-73.6l-163.8-94.6c-5.1-2.9-11.3-2.9-16.3,0L1194.6,769.1z"/>
			<polygon class="st57" points="1194.6,769.1 1366.6,868.4 1366.6,902.1 1194.6,802.8 			"/>
			<polygon class="st58" points="1366.6,868.4 1366.6,870.8 1494,797.1 1494,794.8 			"/>
			<polygon class="st58" points="1366.6,900.1 1366.6,902.1 1494,828.5 1494,826.6 			"/>
			<polygon class="st58" points="1366.6,869.2 1369,867.8 1369,898.7 1366.6,900.1 			"/>
			<path class="st55" d="M1378.1,879.2l7.9-4.6c0,0,3.8,6,6,7c2.1,0.9,11.2,3.3,13.1,3.4l-8,6c0,0-10.5-3.4-12.3-5
				C1382.2,883.8,1378.1,879.2,1378.1,879.2z"/>
			<g>
				<path class="st52" d="M1334.3,733.1l-68,39.3c-3.4,1.9-3.4,5.1,0,7.1l20.6,12c3.3,1.9,8.8,1.9,12.2,0l68-39.3
					c3.4-1.9,3.4-5.1,0-7.1l-20.6-12C1343.1,731.2,1337.6,731.2,1334.3,733.1L1334.3,733.1z"/>
			</g>
		</g>
	</g>
	<g>
		<path class="st0" d="M625,1149.2l-46.1-26.6l0.6-0.4c1.5-0.9,2.3-2,2.3-3.1l0,0v-1.8l0,0c0-1.2-0.8-2.3-2.4-3.2l-12.7-7.3
			c2.3-1.7,3.2-3.8,2.9-5.9c0.4-2.4-1-5-4.2-6.8c-5.7-3.3-15-3.3-20.7,0l-14-8.1c-3.1-1.8-8.3-1.8-11.4,0l-2,1.2l-3.9,2.3l3.9-2.3
			l-47.5-27.4c-2.7-1.6-7.2-1.6-9.9,0l-212.6,123.5c-2.7,1.6-2.7,4.1,0,5.7l155,89.5c2.7,1.6,7.2,1.6,9.9,0L625,1154.9
			C627.8,1153.3,627.7,1150.7,625,1149.2z M502.3,1096C502.3,1096,502.3,1096,502.3,1096C502.3,1096,502.3,1096,502.3,1096z"/>
		<g>
			<polygon class="st59" points="249.1,1179.3 249.1,1182.2 254,1185.4 257.2,1179.9 254.8,1177.9 			"/>
			<polygon class="st59" points="621.5,1146.2 621.5,1149.1 607.7,1157.9 610.3,1148.5 			"/>
			<path class="st59" d="M619.5,1146.3l-46.3-26.8l-8.2,4.8l43.1,24.9l-200,116.2l-144.8-83.6l200-116.2l43.1,24.9l8.2-4.8
				l-46.3-26.8c-2.7-1.5-7-1.5-9.6,0L251,1179.5c-2.6,1.5-2.6,4,0,5.6l151.3,87.4c2.7,1.5,7,1.5,9.6,0l207.5-120.6
				C622.2,1150.4,622.2,1147.9,619.5,1146.3L619.5,1146.3z"/>
			<path class="st60" d="M619.5,1149l-207.5,120.6c-2.6,1.5-7,1.5-9.6,0l-151.3-87.4c-2.7-1.5-2.7-4.1,0-5.6l207.5-120.6
				c2.6-1.5,7-1.5,9.6,0l46.3,26.8l-8.2,4.8l-6.4,3.7c-0.2,0.1-0.2,0.3,0,0.4l57.9,33.4c0.2,0.1,0.5,0.1,0.7,0l6.4-3.7l8.2-4.8
				l46.3,26.8C622.2,1145,622.2,1147.5,619.5,1149z"/>
			<g>
				<g id="Clipboard_3_">
					<g>
						<polygon class="st49" points="607.7,1146.3 465.1,1064 268.2,1178.4 410.8,1260.7 607.7,1146.3 						"/>
					</g>
				</g>
				<g>
					<g>
						<g class="st30">
							<defs>
								<polygon id="SVGID_17_" class="st30" points="433.4,1108.7 454,1096.8 548.3,1151.2 527.7,1163.2 								"/>
							</defs>
							<clipPath id="SVGID_18_">
								<use xlink:href="#SVGID_17_"  style="overflow:visible;"/>
							</clipPath>
							<g class="st61">
								<path class="st62" d="M443.7,1108.4c-1.4-0.8-1.4-2.2,0-3l7.8-4.5c1.4-0.8,3.7-0.8,5.2,0l7.8,4.5c1.4,0.8,1.4,2.2,0,3
									l-7.8,4.5c-1.4,0.8-3.7,0.8-5.2,0L443.7,1108.4L443.7,1108.4z M466.7,1104.1l-7.8-4.5c-2.7-1.6-7.1-1.6-9.7,0l-7.8,4.5
									c-2.7,1.6-2.7,4.1,0,5.6l7.8,4.5c2.7,1.6,7.1,1.6,9.7,0l7.8-4.5C469.4,1108.2,469.4,1105.7,466.7,1104.1L466.7,1104.1z"/>
								<path class="st63" d="M546.2,1150.4l-60.9-35.2c-1-0.6-2.6-0.6-3.5,0l-4.9,2.9c-1,0.6-1,1.5,0,2.1l60.9,35.2
									c1,0.6,2.6,0.6,3.6,0l4.9-2.9C547.2,1151.9,547.2,1150.9,546.2,1150.4L546.2,1150.4z"/>
								<path class="st63" d="M534.4,1157.2l-60.9-35.2c-1-0.6-2.6-0.6-3.5,0l-4.9,2.9c-1,0.6-1,1.5,0,2.1l60.9,35.2
									c1,0.6,2.6,0.6,3.6,0l4.9-2.9C535.4,1158.7,535.4,1157.8,534.4,1157.2L534.4,1157.2z"/>
							</g>
						</g>
					</g>
					<g>
						<g>
							<path class="st64" d="M490.2,1105.2c-0.5-0.3-1.1-0.4-1.8-0.4l-33.7,0.7l1.4-7.4c0.1-0.4-0.2-0.9-0.7-1.2
								c-0.4-0.2-0.9-0.4-1.5-0.4c-1.3-0.1-2.5,0.5-2.7,1.2l-1.7,9c-0.1,0.4,0.2,0.8,0.6,1.1l0.1,0c0.5,0.3,1.1,0.4,1.8,0.4
								l36.5-0.8c1.3,0,2.4-0.7,2.3-1.5C490.9,1105.8,490.6,1105.4,490.2,1105.2L490.2,1105.2z"/>
						</g>
					</g>
				</g>
				<g>
					<g>
						<g class="st30">
							<defs>
								<polygon id="SVGID_19_" class="st30" points="397.7,1129.2 418.3,1117.3 512.6,1171.7 492,1183.7 								"/>
							</defs>
							<clipPath id="SVGID_20_">
								<use xlink:href="#SVGID_19_"  style="overflow:visible;"/>
							</clipPath>
							<g class="st65">
								<path class="st62" d="M408,1128.9c-1.4-0.8-1.4-2.2,0-3l7.8-4.5c1.4-0.8,3.7-0.8,5.2,0l7.8,4.5c1.4,0.8,1.4,2.2,0,3
									l-7.8,4.5c-1.4,0.8-3.7,0.8-5.2,0L408,1128.9L408,1128.9z M431,1124.6l-7.8-4.5c-2.7-1.6-7.1-1.6-9.7,0l-7.8,4.5
									c-2.7,1.6-2.7,4.1,0,5.6l7.8,4.5c2.7,1.6,7.1,1.6,9.7,0l7.8-4.5C433.7,1128.7,433.7,1126.2,431,1124.6L431,1124.6z"/>
								<path class="st63" d="M510.5,1170.9l-60.9-35.2c-1-0.6-2.6-0.6-3.5,0l-4.9,2.9c-1,0.6-1,1.5,0,2.1l60.9,35.2
									c1,0.6,2.6,0.6,3.6,0l4.9-2.9C511.5,1172.4,511.5,1171.4,510.5,1170.9L510.5,1170.9z"/>
								<path class="st63" d="M498.7,1177.7l-60.9-35.2c-1-0.6-2.6-0.6-3.5,0l-4.9,2.9c-1,0.6-1,1.5,0,2.1l60.9,35.2
									c1,0.6,2.6,0.6,3.6,0l4.9-2.9C499.7,1179.2,499.7,1178.3,498.7,1177.7L498.7,1177.7z"/>
							</g>
						</g>
					</g>
					<g>
						<g>
							<path class="st64" d="M454.5,1125.7c-0.5-0.3-1.1-0.4-1.8-0.4L419,1126l1.4-7.4c0.1-0.4-0.2-0.9-0.7-1.2
								c-0.4-0.2-0.9-0.4-1.5-0.4c-1.3-0.1-2.5,0.5-2.7,1.2l-1.7,9c-0.1,0.4,0.2,0.8,0.6,1.1l0.1,0c0.5,0.3,1.1,0.4,1.8,0.4
								l36.5-0.8c1.3,0,2.4-0.7,2.3-1.5C455.2,1126.3,454.9,1125.9,454.5,1125.7L454.5,1125.7z"/>
						</g>
					</g>
				</g>
				<g>
					<g>
						<g class="st30">
							<defs>
								<polygon id="SVGID_21_" class="st30" points="362,1150.9 382.6,1139 476.9,1193.4 456.3,1205.4 								"/>
							</defs>
							<clipPath id="SVGID_22_">
								<use xlink:href="#SVGID_21_"  style="overflow:visible;"/>
							</clipPath>
							<g class="st66">
								<path class="st62" d="M372.3,1150.6c-1.4-0.8-1.4-2.2,0-3l7.8-4.5c1.4-0.8,3.7-0.8,5.2,0l7.8,4.5c1.4,0.8,1.4,2.2,0,3
									l-7.8,4.5c-1.4,0.8-3.7,0.8-5.2,0L372.3,1150.6L372.3,1150.6z M395.3,1146.3l-7.8-4.5c-2.7-1.6-7.1-1.6-9.7,0l-7.8,4.5
									c-2.7,1.6-2.7,4.1,0,5.6l7.8,4.5c2.7,1.6,7.1,1.6,9.7,0l7.8-4.5C398,1150.4,398,1147.9,395.3,1146.3L395.3,1146.3z"/>
								<path class="st63" d="M474.8,1192.6l-60.9-35.2c-1-0.6-2.6-0.6-3.5,0l-4.9,2.9c-1,0.6-1,1.5,0,2.1l60.9,35.2
									c1,0.6,2.6,0.6,3.6,0l4.9-2.9C475.8,1194.1,475.8,1193.1,474.8,1192.6L474.8,1192.6z"/>
								<path class="st63" d="M463,1199.4l-60.9-35.2c-1-0.6-2.6-0.6-3.5,0l-4.9,2.9c-1,0.6-1,1.5,0,2.1l60.9,35.2
									c1,0.6,2.6,0.6,3.6,0l4.9-2.9C464,1200.9,464,1200,463,1199.4L463,1199.4z"/>
							</g>
						</g>
					</g>
				</g>
				<g>
					<g>
						<g class="st30">
							<defs>
								<polygon id="SVGID_23_" class="st30" points="323.6,1173.7 344.2,1161.7 438.5,1216.2 417.9,1228.2 								"/>
							</defs>
							<clipPath id="SVGID_24_">
								<use xlink:href="#SVGID_23_"  style="overflow:visible;"/>
							</clipPath>
							<g class="st67">
								<path class="st62" d="M333.8,1173.4c-1.4-0.8-1.4-2.2,0-3l7.8-4.5c1.4-0.8,3.7-0.8,5.2,0l7.8,4.5c1.4,0.8,1.4,2.2,0,3
									l-7.8,4.5c-1.4,0.8-3.7,0.8-5.2,0L333.8,1173.4L333.8,1173.4z M356.9,1169.1l-7.8-4.5c-2.7-1.6-7.1-1.6-9.7,0l-7.8,4.5
									c-2.7,1.6-2.7,4.1,0,5.6l7.8,4.5c2.7,1.6,7.1,1.6,9.7,0l7.8-4.5C359.6,1173.2,359.6,1170.6,356.9,1169.1L356.9,1169.1z"/>
								<path class="st63" d="M436.4,1215.3l-60.9-35.2c-1-0.6-2.6-0.6-3.5,0l-4.9,2.9c-1,0.6-1,1.5,0,2.1l60.9,35.2
									c1,0.6,2.6,0.6,3.6,0l4.9-2.9C437.4,1216.8,437.4,1215.9,436.4,1215.3L436.4,1215.3z"/>
								<path class="st63" d="M424.6,1222.2l-60.9-35.2c-1-0.6-2.6-0.6-3.5,0l-4.9,2.9c-1,0.6-1,1.5,0,2.1l60.9,35.2
									c1,0.6,2.6,0.6,3.6,0l4.9-2.9C425.6,1223.7,425.6,1222.8,424.6,1222.2L424.6,1222.2z"/>
							</g>
						</g>
					</g>
					<g>
						<g>
							<path class="st64" d="M380.4,1170.2c-0.5-0.3-1.1-0.4-1.8-0.4l-33.7,0.7l1.4-7.4c0.1-0.4-0.2-0.9-0.7-1.2
								c-0.4-0.2-0.9-0.4-1.5-0.4c-1.3-0.1-2.5,0.5-2.7,1.2l-1.7,9c-0.1,0.4,0.2,0.8,0.6,1.1l0.1,0c0.5,0.3,1.1,0.4,1.8,0.4
								l36.5-0.8c1.3,0,2.4-0.7,2.3-1.5C381.1,1170.7,380.8,1170.4,380.4,1170.2L380.4,1170.2z"/>
						</g>
					</g>
				</g>
				<g>
					<g>
						<path class="st68" d="M380,1147.6h-14.9c-1.4,0-2.5,0.6-2.5,1.4c0,0.4,0.3,0.8,0.7,1c0.5,0.3,1.1,0.4,1.8,0.4l14.9,0
							L380,1147.6L380,1147.6z M401.7,1148c-0.5-0.3-1.1-0.4-1.8-0.4l-14.9,0l0,2.9l14.9,0c1.4,0,2.5-0.7,2.5-1.4
							C402.4,1148.7,402.1,1148.3,401.7,1148L401.7,1148z"/>
						<path class="st68" d="M384.2,1138c-0.5-0.3-1.1-0.4-1.8-0.4c-1.4,0-2.5,0.6-2.5,1.4l0,8.6l0,2.9l0,8.6c0,0.4,0.3,0.8,0.7,1
							c0.5,0.3,1.1,0.4,1.8,0.4c1.4,0,2.5-0.7,2.5-1.4l-0.1-8.6l0-2.9l-0.1-8.6C384.9,1138.6,384.7,1138.2,384.2,1138L384.2,1138z"
							/>
					</g>
				</g>
			</g>
			<path class="st69" d="M575.1,1110.7l-13.6-7.9c-5.5,3.2-14.6,3.2-20.2,0c-5.6-3.2-5.6-8.5-0.1-11.7l-13.6-7.9
				c-3.1-1.8-8.1-1.8-11.1,0l-2,1.2l-8.2,4.8l-6.4,3.7c-0.2,0.1-0.2,0.3,0,0.4l57.9,33.4c0.2,0.1,0.5,0.1,0.7,0l6.4-3.7l8.2-4.8
				l2-1.2C578.2,1115.3,578.2,1112.4,575.1,1110.7L575.1,1110.7z"/>
			<path class="st69" d="M561.4,1091.1c-5.6-3.2-14.6-3.2-20.2,0c-5.5,3.2-5.5,8.5,0.1,11.7c5.6,3.2,14.6,3.2,20.2,0
				C567,1099.6,567,1094.4,561.4,1091.1L561.4,1091.1z"/>
			<path class="st70" d="M561.4,1089.5c-5.6-3.2-14.6-3.2-20.2,0c-5.5,3.2-5.5,8.5,0.1,11.7c5.6,3.2,14.6,3.2,20.2,0
				C567,1098,567,1092.8,561.4,1089.5L561.4,1089.5z"/>
			<polygon class="st69" points="499.7,1093.1 499.7,1091.6 501.8,1091.4 501.3,1093.3 500.7,1093.5 			"/>
			<polygon class="st69" points="577.4,1114 577.4,1112.2 575.8,1112.4 574.8,1114.8 574.6,1116.6 			"/>
			<path class="st70" d="M575.1,1109.1l-13.6-7.9c-5.5,3.2-14.6,3.2-20.2,0c-5.6-3.2-5.6-8.5-0.1-11.7l-13.6-7.9
				c-3.1-1.8-8.1-1.8-11.1,0l-2,1.2l-8.2,4.8l-6.4,3.7c-0.2,0.1-0.2,0.3,0,0.4l57.9,33.4c0.2,0.1,0.5,0.1,0.7,0l6.4-3.7l8.2-4.8
				l2-1.2C578.2,1113.8,578.2,1110.9,575.1,1109.1L575.1,1109.1z"/>
		</g>
	</g>
	<g>
		<path class="st71" d="M927.1,1034.7l24.3-14l172.1-99.4l20.9-12c2.7-1.6,7.1-1.6,9.7,0l144.1,83.7c2.7,1.6,2.7,4.1,0,5.6
			l-217.6,125.6c-2.5,1.4-6.6,1.4-9.1,0L927,1040.3C924.3,1038.8,924.4,1036.2,927.1,1034.7z"/>
		<g>
			<g>
				<path class="st15" d="M883.7,842.9L1095,721c2.6-1.5,5.3-0.1,6,3.2l36.7,177.6c0.7,3.3-0.9,7.2-3.5,8.7l-211.6,122.2
					c-2.4,1.4-4.9,0-5.6-3l-36.8-178.1C879.5,848.4,881.1,844.5,883.7,842.9z"/>
				<path d="M884.6,843.3l211.3-122c2.6-1.5,5.3-0.1,6,3.2l36.7,177.6c0.7,3.3-0.9,7.2-3.5,8.7l-211.6,122.2c-2.4,1.4-4.9,0-5.6-3
					L881,852C880.4,848.7,882,844.8,884.6,843.3z"/>
				<g>
					<path class="st55" d="M889.8,851.8l204.1-117.8c0.5-0.3,1,0,1.1,0.6l34.4,166.7c0.1,0.6-0.2,1.3-0.6,1.6l-204.1,117.8
						c-0.5,0.3-1,0-1.1-0.6l-34.4-166.7C889,852.8,889.3,852,889.8,851.8L889.8,851.8z"/>
				</g>
				<g>
					<path class="st55" d="M994.2,783.7c0.7-0.4,1.5,0,1.7,0.9c0.2,0.9-0.3,2-1,2.5c-0.7,0.4-1.5,0-1.7-0.9
						C993,785.2,993.5,784.1,994.2,783.7L994.2,783.7z"/>
				</g>
			</g>
			<g>
				<g>
					<path class="st72" d="M924,1032.1v4.7h0c0,1,0.6,2,1.9,2.7l139.7,81.2c1.2,0.7,2.8,1,4.4,1c1.6,0,3.2-0.3,4.4-1l210.4-121.5
						c1.3-0.7,1.9-1.7,2-2.7l0,0v-4.7l-5.4-0.1l-135.9-79c-2.6-1.5-6.8-1.5-9.4,0l-20.2,11.6l-166.4,96.1l-16.9,9.8l-2.7,1.6
						L924,1032.1z"/>
					<path class="st73" d="M924,1032.1v4.7h0c0,1,0.6,2,1.9,2.7l139.7,81.2c1.2,0.7,2.8,1,4.4,1l0,0v-14l-137.5-77.4l-2.7,1.6
						L924,1032.1z"/>
				</g>
				<g>
					<g class="st30">
						<defs>
							<polygon id="SVGID_25_" class="st30" points="944.3,1049.7 944.3,1047.2 938.3,1043.7 938.3,1046.2 							"/>
						</defs>
						<clipPath id="SVGID_26_">
							<use xlink:href="#SVGID_25_"  style="overflow:visible;"/>
						</clipPath>
						<g class="st74">
							<path class="st75" d="M939.4,1044.4l3.8,2.2c0.6,0.3,1.1,1.2,1.1,1.9c0,0.7-0.5,1-1.1,0.6l-3.8-2.2c-0.6-0.3-1.1-1.2-1.1-1.9
								C938.3,1044.3,938.8,1044,939.4,1044.4L939.4,1044.4z"/>
						</g>
					</g>
				</g>
				<g>
					<g class="st30">
						<defs>
							<polygon id="SVGID_27_" class="st30" points="935.8,1044.5 935.8,1042 929.8,1038.6 929.8,1041.1 							"/>
						</defs>
						<clipPath id="SVGID_28_">
							<use xlink:href="#SVGID_27_"  style="overflow:visible;"/>
						</clipPath>
						<g class="st76">
							<path class="st75" d="M930.9,1039.2l3.8,2.2c0.6,0.3,1.1,1.2,1.1,1.9c0,0.7-0.5,1-1.1,0.6l-3.8-2.2c-0.6-0.3-1.1-1.2-1.1-1.9
								S930.3,1038.9,930.9,1039.2L930.9,1039.2z"/>
						</g>
					</g>
				</g>
				<g>
					<g class="st30">
						<defs>
							<polygon id="SVGID_29_" class="st30" points="1070,1118.8 921.3,1032.4 1140.8,905.7 1289.5,992.1 							"/>
						</defs>
						<clipPath id="SVGID_30_">
							<use xlink:href="#SVGID_29_"  style="overflow:visible;"/>
						</clipPath>
						<g class="st77">
							<path class="st15" d="M1126.8,1079.7c-0.7,0.4-1.9,0.4-2.6,0l-45.3-26.3c-0.7-0.4-0.7-1.1,0-1.5l92.8-53.6
								c0.7-0.4,1.9-0.4,2.6,0l45.3,26.3c0.7,0.4,0.7,1.1,0,1.5L1126.8,1079.7L1126.8,1079.7z M1027.6,1077c-1.4,0.8-3.6,0.8-4.9,0
								l-72.8-42.3c-1.3-0.8-1.3-2.1,0-2.8l187.6-108.3c1.4-0.8,3.6-0.8,4.9,0l72.8,42.3c1.3,0.8,1.3,2.1,0,2.8L1027.6,1077
								L1027.6,1077z M1136,908.4l-23.5,13.5l2.2,1.3l-166.4,96.1l-2.2-1.3l-20.2,11.6c-2.6,1.5-2.6,4,0,5.5l139.3,81
								c2.6,1.5,6.8,1.5,9.4,0l210.4-121.4c2.4-1.4,2.4-3.7,0-5.1l-139.6-81.2C1142.9,906.9,1138.6,906.9,1136,908.4L1136,908.4z"/>
							<path class="st78" d="M1175.3,987.4c-0.8,0.5-2.1,0.5-2.9,0l-2.6-1.5l11.1-6.4l2.6,1.5c0.8,0.5,0.8,1.2,0,1.7L1175.3,987.4
								L1175.3,987.4z M1188.4,979.8c-0.8,0.5-2.1,0.5-2.9,0l-2.6-1.5l11.1-6.4l2.6,1.5c0.8,0.5,0.8,1.2,0,1.7L1188.4,979.8
								L1188.4,979.8z M1201.5,972.3c-0.8,0.5-2.1,0.5-2.9,0l-2.6-1.5l11.1-6.4l2.6,1.5c0.8,0.5,0.8,1.2,0,1.7L1201.5,972.3
								L1201.5,972.3z M1025.1,1074.1c-0.5,0.3-1.3,0.3-1.8,0l-7.8-4.6c-0.5-0.3-0.5-0.8,0-1.1l9.1-5.2c0.5-0.3,1.3-0.3,1.8,0
								l7.8,4.6c0.5,0.3,0.5,0.8,0,1.1L1025.1,1074.1L1025.1,1074.1z M1037.7,1066.9c-0.5,0.3-1.3,0.3-1.8,0l-7.8-4.6
								c-0.5-0.3-0.5-0.8,0-1.1l9.1-5.2c0.5-0.3,1.3-0.3,1.8,0l7.8,4.6c0.5,0.3,0.5,0.8,0,1.1L1037.7,1066.9L1037.7,1066.9z
								 M1050.3,1059.6c-0.5,0.3-1.3,0.3-1.8,0l-7.8-4.6c-0.5-0.3-0.5-0.8,0-1.1l9.1-5.2c0.5-0.3,1.3-0.3,1.8,0l7.8,4.6
								c0.5,0.3,0.5,0.8,0,1.1L1050.3,1059.6L1050.3,1059.6z M1062.9,1052.3c-0.5,0.3-1.3,0.3-1.8,0l-7.8-4.6
								c-0.5-0.3-0.5-0.8,0-1.1l9.1-5.2c0.5-0.3,1.3-0.3,1.8,0l7.8,4.6c0.5,0.3,0.5,0.8,0,1.1L1062.9,1052.3L1062.9,1052.3z
								 M1074.4,1045.6l-9.7-5.6l58.9-34l9.7,5.6L1074.4,1045.6L1074.4,1045.6z M1136.8,1009.6c-0.5,0.3-1.3,0.3-1.8,0l-7.8-4.6
								c-0.5-0.3-0.5-0.8,0-1.1l9.1-5.2c0.5-0.3,1.3-0.3,1.8,0l7.8,4.6c0.5,0.3,0.5,0.8,0,1.1L1136.8,1009.6L1136.8,1009.6z
								 M1149.4,1002.4c-0.5,0.3-1.3,0.3-1.8,0l-7.8-4.6c-0.5-0.3-0.5-0.8,0-1.1l9.1-5.2c0.5-0.3,1.3-0.3,1.8,0l7.8,4.6
								c0.5,0.3,0.5,0.8,0,1.1L1149.4,1002.4L1149.4,1002.4z M1162,995.1c-0.5,0.3-1.3,0.3-1.8,0l-7.8-4.6c-0.5-0.3-0.5-0.8,0-1.1
								l9.1-5.2c0.5-0.3,1.3-0.3,1.8,0l7.8,4.6c0.5,0.3,0.5,0.8,0,1.1L1162,995.1L1162,995.1z M1168.2,985l-2.6-1.5
								c-0.8-0.5-0.8-1.2,0-1.7l8.2-4.7c0.8-0.5,2.1-0.5,2.9,0l2.6,1.5L1168.2,985L1168.2,985z M1181.3,977.4l-2.6-1.5
								c-0.8-0.5-0.8-1.2,0-1.7l8.2-4.7c0.8-0.5,2.1-0.5,2.9,0l2.6,1.5L1181.3,977.4L1181.3,977.4z M1194.4,969.8l-2.6-1.5
								c-0.8-0.5-0.8-1.2,0-1.7l8.2-4.7c0.8-0.5,2.1-0.5,2.9,0l2.6,1.5L1194.4,969.8L1194.4,969.8z M1164.1,979.8
								c-0.5,0.3-1.3,0.3-1.8,0l-7.8-4.6c-0.5-0.3-0.5-0.8,0-1.1l34-19.6c0.5-0.3,1.3-0.3,1.8,0l7.8,4.6c0.5,0.3,0.5,0.8,0,1.1
								L1164.1,979.8L1164.1,979.8z M1012.8,1067c-0.5,0.3-1.3,0.3-1.8,0l-7.9-4.6c-0.5-0.3-0.5-0.8,0-1.1l21.4-12.3
								c0.5-0.3,1.3-0.3,1.8,0l7.9,4.6c0.5,0.3,0.5,0.8,0,1L1012.8,1067L1012.8,1067z M1037.5,1052.8c-0.5,0.3-1.3,0.3-1.8,0
								l-7.8-4.6c-0.5-0.3-0.5-0.8,0-1.1l9.1-5.2c0.5-0.3,1.3-0.3,1.8,0l7.8,4.6c0.5,0.3,0.5,0.8,0,1.1L1037.5,1052.8L1037.5,1052.8
								z M1050.1,1045.5c-0.5,0.3-1.3,0.3-1.8,0l-7.8-4.6c-0.5-0.3-0.5-0.8,0-1.1l9.1-5.2c0.5-0.3,1.3-0.3,1.8,0l7.8,4.6
								c0.5,0.3,0.5,0.8,0,1.1L1050.1,1045.5L1050.1,1045.5z M1062.8,1038.2c-0.5,0.3-1.3,0.3-1.8,0l-7.8-4.6
								c-0.5-0.3-0.5-0.8,0-1.1l9.1-5.2c0.5-0.3,1.3-0.3,1.8,0l7.8,4.6c0.5,0.3,0.5,0.8,0,1.1L1062.8,1038.2L1062.8,1038.2z
								 M1075.4,1030.9c-0.5,0.3-1.3,0.3-1.8,0l-7.8-4.6c-0.5-0.3-0.5-0.8,0-1.1l9.1-5.2c0.5-0.3,1.3-0.3,1.8,0l7.8,4.6
								c0.5,0.3,0.5,0.8,0,1.1L1075.4,1030.9L1075.4,1030.9z M1087.9,1023.7c-0.5,0.3-1.3,0.3-1.8,0l-7.8-4.6
								c-0.5-0.3-0.5-0.8,0-1.1l9.1-5.2c0.5-0.3,1.3-0.3,1.8,0l7.8,4.6c0.5,0.3,0.5,0.8,0,1.1L1087.9,1023.7L1087.9,1023.7z
								 M1100.6,1016.4c-0.5,0.3-1.3,0.3-1.8,0l-7.8-4.6c-0.5-0.3-0.5-0.8,0-1.1l9.1-5.2c0.5-0.3,1.3-0.3,1.8,0l7.8,4.6
								c0.5,0.3,0.5,0.8,0,1.1L1100.6,1016.4L1100.6,1016.4z M1113.2,1009.1c-0.5,0.3-1.3,0.3-1.8,0l-7.8-4.6
								c-0.5-0.3-0.5-0.8,0-1.1l9.1-5.2c0.5-0.3,1.3-0.3,1.8,0l7.8,4.6c0.5,0.3,0.5,0.8,0,1.1L1113.2,1009.1L1113.2,1009.1z
								 M1125.7,1001.8c-0.5,0.3-1.3,0.3-1.8,0l-7.8-4.6c-0.5-0.3-0.5-0.8,0-1.1l9.1-5.2c0.5-0.3,1.3-0.3,1.8,0l7.8,4.6
								c0.5,0.3,0.5,0.8,0,1.1L1125.7,1001.8L1125.7,1001.8z M1138.4,994.6c-0.5,0.3-1.3,0.3-1.8,0l-7.8-4.6c-0.5-0.3-0.5-0.8,0-1.1
								l9.1-5.2c0.5-0.3,1.3-0.3,1.8,0l7.8,4.6c0.5,0.3,0.5,0.8,0,1.1L1138.4,994.6L1138.4,994.6z M1151,987.3
								c-0.5,0.3-1.3,0.3-1.8,0l-7.8-4.6c-0.5-0.3-0.5-0.8,0-1.1l9.1-5.2c0.5-0.3,1.3-0.3,1.8,0l7.8,4.6c0.5,0.3,0.5,0.8,0,1.1
								L1151,987.3L1151,987.3z M1000.6,1059.9c-0.5,0.3-1.3,0.3-1.8,0l-7.9-4.6c-0.5-0.3-0.5-0.8,0-1.1l15.9-9.2
								c0.5-0.3,1.3-0.3,1.8,0l7.9,4.6c0.5,0.3,0.5,0.8,0,1L1000.6,1059.9L1000.6,1059.9z M1019.9,1048.8c-0.5,0.3-1.3,0.3-1.8,0
								l-7.8-4.6c-0.5-0.3-0.5-0.8,0-1.1l9.1-5.2c0.5-0.3,1.3-0.3,1.8,0l7.8,4.6c0.5,0.3,0.5,0.8,0,1.1L1019.9,1048.8L1019.9,1048.8
								z M1032.4,1041.5c-0.5,0.3-1.3,0.3-1.8,0l-7.8-4.6c-0.5-0.3-0.5-0.8,0-1.1l9.1-5.2c0.5-0.3,1.3-0.3,1.8,0l7.8,4.6
								c0.5,0.3,0.5,0.8,0,1.1L1032.4,1041.5L1032.4,1041.5z M1045.1,1034.2c-0.5,0.3-1.3,0.3-1.8,0l-7.8-4.6
								c-0.5-0.3-0.5-0.8,0-1.1l9.1-5.2c0.5-0.3,1.3-0.3,1.8,0l7.8,4.6c0.5,0.3,0.5,0.8,0,1.1L1045.1,1034.2L1045.1,1034.2z
								 M1057.7,1027c-0.5,0.3-1.3,0.3-1.8,0l-7.8-4.6c-0.5-0.3-0.5-0.8,0-1.1l9.1-5.2c0.5-0.3,1.3-0.3,1.8,0l7.8,4.6
								c0.5,0.3,0.5,0.8,0,1.1L1057.7,1027L1057.7,1027z M1070.2,1019.7c-0.5,0.3-1.3,0.3-1.8,0l-7.8-4.6c-0.5-0.3-0.5-0.8,0-1.1
								l9.1-5.2c0.5-0.3,1.3-0.3,1.8,0l7.8,4.6c0.5,0.3,0.5,0.8,0,1.1L1070.2,1019.7L1070.2,1019.7z M1082.9,1012.4
								c-0.5,0.3-1.3,0.3-1.8,0l-7.8-4.6c-0.5-0.3-0.5-0.8,0-1.1l9.1-5.2c0.5-0.3,1.3-0.3,1.8,0l7.8,4.6c0.5,0.3,0.5,0.8,0,1.1
								L1082.9,1012.4L1082.9,1012.4z M1095.5,1005.1c-0.5,0.3-1.3,0.3-1.8,0l-7.8-4.6c-0.5-0.3-0.5-0.8,0-1.1l9.1-5.2
								c0.5-0.3,1.3-0.3,1.8,0l7.8,4.6c0.5,0.3,0.5,0.8,0,1.1L1095.5,1005.1L1095.5,1005.1z M1108,997.9c-0.5,0.3-1.3,0.3-1.8,0
								l-7.8-4.6c-0.5-0.3-0.5-0.8,0-1.1l9.1-5.2c0.5-0.3,1.3-0.3,1.8,0l7.8,4.6c0.5,0.3,0.5,0.8,0,1.1L1108,997.9L1108,997.9z
								 M1120.7,990.6c-0.5,0.3-1.3,0.3-1.8,0l-7.8-4.6c-0.5-0.3-0.5-0.8,0-1.1l9.1-5.2c0.5-0.3,1.3-0.3,1.8,0l7.8,4.6
								c0.5,0.3,0.5,0.8,0,1.1L1120.7,990.6L1120.7,990.6z M1133.3,983.3c-0.5,0.3-1.3,0.3-1.8,0l-7.8-4.6c-0.5-0.3-0.5-0.8,0-1.1
								l9.1-5.2c0.5-0.3,1.3-0.3,1.8,0l7.8,4.6c0.5,0.3,0.5,0.8,0,1.1L1133.3,983.3L1133.3,983.3z M1145.8,976
								c-0.5,0.3-1.3,0.3-1.8,0l-7.8-4.6c-0.5-0.3-0.5-0.8,0-1.1l9.1-5.2c0.5-0.3,1.3-0.3,1.8,0l7.8,4.6c0.5,0.3,0.5,0.8,0,1.1
								L1145.8,976L1145.8,976z M1158.5,968.7c-0.5,0.3-1.3,0.3-1.8,0l-7.9-4.6c-0.5-0.3-0.5-0.8,0-1l27.2-15.7
								c0.5-0.3,1.3-0.3,1.8,0l7.9,4.6c0.5,0.3,0.5,0.8,0,1.1L1158.5,968.7L1158.5,968.7z M988.4,1052.8c-0.5,0.3-1.3,0.3-1.8,0
								l-7.9-4.6c-0.5-0.3-0.5-0.8,0-1.1l11.8-6.8c0.5-0.3,1.3-0.3,1.8,0l7.9,4.6c0.5,0.3,0.5,0.8,0,1.1L988.4,1052.8L988.4,1052.8z
								 M1003.9,1043.8c-0.5,0.3-1.3,0.3-1.8,0l-7.8-4.6c-0.5-0.3-0.5-0.8,0-1.1l9.1-5.2c0.5-0.3,1.3-0.3,1.8,0l7.8,4.6
								c0.5,0.3,0.5,0.8,0,1.1L1003.9,1043.8L1003.9,1043.8z M1016.5,1036.5c-0.5,0.3-1.3,0.3-1.8,0l-7.8-4.6
								c-0.5-0.3-0.5-0.8,0-1.1l9.1-5.2c0.5-0.3,1.3-0.3,1.8,0l7.8,4.6c0.5,0.3,0.5,0.8,0,1.1L1016.5,1036.5L1016.5,1036.5z
								 M1029.1,1029.3c-0.5,0.3-1.3,0.3-1.8,0l-7.8-4.6c-0.5-0.3-0.5-0.8,0-1.1l9.1-5.2c0.5-0.3,1.3-0.3,1.8,0l7.8,4.6
								c0.5,0.3,0.5,0.8,0,1.1L1029.1,1029.3L1029.1,1029.3z M1041.7,1022c-0.5,0.3-1.3,0.3-1.8,0l-7.8-4.6c-0.5-0.3-0.5-0.8,0-1.1
								l9.1-5.2c0.5-0.3,1.3-0.3,1.8,0l7.8,4.6c0.5,0.3,0.5,0.8,0,1.1L1041.7,1022L1041.7,1022z M1054.3,1014.7
								c-0.5,0.3-1.3,0.3-1.8,0l-7.8-4.6c-0.5-0.3-0.5-0.8,0-1.1l9.1-5.2c0.5-0.3,1.3-0.3,1.8,0l7.8,4.6c0.5,0.3,0.5,0.8,0,1.1
								L1054.3,1014.7L1054.3,1014.7z M1066.9,1007.5c-0.5,0.3-1.3,0.3-1.8,0l-7.8-4.6c-0.5-0.3-0.5-0.8,0-1.1l9.1-5.2
								c0.5-0.3,1.3-0.3,1.8,0l7.8,4.6c0.5,0.3,0.5,0.8,0,1.1L1066.9,1007.5L1066.9,1007.5z M1079.5,1000.2c-0.5,0.3-1.3,0.3-1.8,0
								l-7.8-4.6c-0.5-0.3-0.5-0.8,0-1.1l9.1-5.2c0.5-0.3,1.3-0.3,1.8,0l7.8,4.6c0.5,0.3,0.5,0.8,0,1.1L1079.5,1000.2L1079.5,1000.2
								z M1092.1,992.9c-0.5,0.3-1.3,0.3-1.8,0l-7.8-4.6c-0.5-0.3-0.5-0.8,0-1.1l9.1-5.2c0.5-0.3,1.3-0.3,1.8,0l7.8,4.6
								c0.5,0.3,0.5,0.8,0,1.1L1092.1,992.9L1092.1,992.9z M1104.7,985.6c-0.5,0.3-1.3,0.3-1.8,0l-7.8-4.6c-0.5-0.3-0.5-0.8,0-1.1
								l9.1-5.2c0.5-0.3,1.3-0.3,1.8,0l7.8,4.6c0.5,0.3,0.5,0.8,0,1.1L1104.7,985.6L1104.7,985.6z M1117.3,978.4
								c-0.5,0.3-1.3,0.3-1.8,0l-7.8-4.6c-0.5-0.3-0.5-0.8,0-1.1l9.1-5.2c0.5-0.3,1.3-0.3,1.8,0l7.8,4.6c0.5,0.3,0.5,0.8,0,1.1
								L1117.3,978.4L1117.3,978.4z M1129.9,971.1c-0.5,0.3-1.3,0.3-1.8,0l-7.8-4.6c-0.5-0.3-0.5-0.8,0-1.1l9.1-5.2
								c0.5-0.3,1.3-0.3,1.8,0l7.8,4.6c0.5,0.3,0.5,0.8,0,1.1L1129.9,971.1L1129.9,971.1z M1142.5,963.8c-0.5,0.3-1.3,0.3-1.8,0
								l-7.8-4.6c-0.5-0.3-0.5-0.8,0-1.1l9.1-5.2c0.5-0.3,1.3-0.3,1.8,0l7.8,4.6c0.5,0.3,0.5,0.8,0,1.1L1142.5,963.8L1142.5,963.8z
								 M1155.2,956.5c-0.5,0.3-1.3,0.3-1.8,0l-7.9-4.6c-0.5-0.3-0.5-0.8,0-1.1l18.3-10.6c0.5-0.3,1.3-0.3,1.8,0l7.9,4.6
								c0.5,0.3,0.5,0.8,0,1.1L1155.2,956.5L1155.2,956.5z M976.1,1045.7c-0.5,0.3-1.3,0.3-1.8,0l-7.9-4.6c-0.5-0.3-0.5-0.8,0-1.1
								l5.5-3.2c0.5-0.3,1.3-0.3,1.8,0l7.9,4.6c0.5,0.3,0.5,0.8,0,1.1L976.1,1045.7L976.1,1045.7z M985.4,1040.4
								c-0.5,0.3-1.3,0.3-1.8,0l-7.9-4.6c-0.5-0.3-0.5-0.8,0-1l9.1-5.3c0.5-0.3,1.3-0.3,1.8,0l7.9,4.6c0.5,0.3,0.5,0.8,0,1.1
								L985.4,1040.4L985.4,1040.4z M998,1033.1c-0.5,0.3-1.3,0.3-1.8,0l-7.8-4.6c-0.5-0.3-0.5-0.8,0-1.1l9.1-5.2
								c0.5-0.3,1.3-0.3,1.8,0l7.8,4.6c0.5,0.3,0.5,0.8,0,1.1L998,1033.1L998,1033.1z M1010.6,1025.8c-0.5,0.3-1.3,0.3-1.8,0
								l-7.8-4.6c-0.5-0.3-0.5-0.8,0-1.1l9.1-5.2c0.5-0.3,1.3-0.3,1.8,0l7.8,4.6c0.5,0.3,0.5,0.8,0,1.1L1010.6,1025.8L1010.6,1025.8
								z M1023.2,1018.5c-0.5,0.3-1.3,0.3-1.8,0l-7.8-4.6c-0.5-0.3-0.5-0.8,0-1.1l9.1-5.2c0.5-0.3,1.3-0.3,1.8,0l7.8,4.6
								c0.5,0.3,0.5,0.8,0,1.1L1023.2,1018.5L1023.2,1018.5z M1035.8,1011.3c-0.5,0.3-1.3,0.3-1.8,0l-7.8-4.6
								c-0.5-0.3-0.5-0.8,0-1.1l9.1-5.2c0.5-0.3,1.3-0.3,1.8,0l7.8,4.6c0.5,0.3,0.5,0.8,0,1.1L1035.8,1011.3L1035.8,1011.3z
								 M1048.4,1004c-0.5,0.3-1.3,0.3-1.8,0l-7.8-4.6c-0.5-0.3-0.5-0.8,0-1.1l9.1-5.2c0.5-0.3,1.3-0.3,1.8,0l7.8,4.6
								c0.5,0.3,0.5,0.8,0,1.1L1048.4,1004L1048.4,1004z M1061,996.7c-0.5,0.3-1.3,0.3-1.8,0l-7.8-4.6c-0.5-0.3-0.5-0.8,0-1.1
								l9.1-5.2c0.5-0.3,1.3-0.3,1.8,0l7.8,4.6c0.5,0.3,0.5,0.8,0,1.1L1061,996.7L1061,996.7z M1073.6,989.4c-0.5,0.3-1.3,0.3-1.8,0
								l-7.8-4.6c-0.5-0.3-0.5-0.8,0-1.1l9.1-5.2c0.5-0.3,1.3-0.3,1.8,0l7.8,4.6c0.5,0.3,0.5,0.8,0,1.1L1073.6,989.4L1073.6,989.4z
								 M1086.2,982.2c-0.5,0.3-1.3,0.3-1.8,0l-7.8-4.6c-0.5-0.3-0.5-0.8,0-1.1l9.1-5.2c0.5-0.3,1.3-0.3,1.8,0l7.8,4.6
								c0.5,0.3,0.5,0.8,0,1.1L1086.2,982.2L1086.2,982.2z M1098.8,974.9c-0.5,0.3-1.3,0.3-1.8,0l-7.8-4.6c-0.5-0.3-0.5-0.8,0-1.1
								l9.1-5.2c0.5-0.3,1.3-0.3,1.8,0l7.8,4.6c0.5,0.3,0.5,0.8,0,1.1L1098.8,974.9L1098.8,974.9z M1111.4,967.6
								c-0.5,0.3-1.3,0.3-1.8,0l-7.8-4.6c-0.5-0.3-0.5-0.8,0-1.1l9.1-5.2c0.5-0.3,1.3-0.3,1.8,0l7.8,4.6c0.5,0.3,0.5,0.8,0,1.1
								L1111.4,967.6L1111.4,967.6z M1124,960.3c-0.5,0.3-1.3,0.3-1.8,0l-7.8-4.6c-0.5-0.3-0.5-0.8,0-1.1l9.1-5.2
								c0.5-0.3,1.3-0.3,1.8,0l7.8,4.6c0.5,0.3,0.5,0.8,0,1.1L1124,960.3L1124,960.3z M1136.7,953c-0.5,0.3-1.3,0.3-1.8,0l-7.9-4.6
								c-0.5-0.3-0.5-0.8,0-1.1l24.6-14.2c0.5-0.3,1.3-0.3,1.8,0l7.9,4.6c0.5,0.3,0.5,0.8,0,1.1L1136.7,953L1136.7,953z
								 M964.2,1038.4c-0.7,0.4-1.7,0.4-2.4,0l-7.3-4.2c-0.7-0.4-0.6-1,0-1.4l6.8-3.9c0.7-0.4,1.7-0.4,2.4,0l7.3,4.2
								c0.7,0.4,0.7,1,0,1.4L964.2,1038.4L964.2,1038.4z M975.3,1032c-0.7,0.4-1.8,0.4-2.4,0l-7.3-4.2c-0.7-0.4-0.6-1,0-1.4l6.8-3.9
								c0.7-0.4,1.7-0.4,2.4,0l7.3,4.2c0.7,0.4,0.7,1,0,1.4L975.3,1032L975.3,1032z M986.4,1025.6c-0.7,0.4-1.8,0.4-2.4,0l-7.3-4.2
								c-0.7-0.4-0.6-1,0-1.4l6.8-3.9c0.7-0.4,1.7-0.4,2.4,0l7.3,4.2c0.7,0.4,0.7,1,0,1.4L986.4,1025.6L986.4,1025.6z M997.5,1019.2
								c-0.7,0.4-1.8,0.4-2.4,0l-7.3-4.2c-0.7-0.4-0.6-1,0-1.4l6.8-3.9c0.7-0.4,1.7-0.4,2.4,0l7.3,4.2c0.7,0.4,0.7,1,0,1.4
								L997.5,1019.2L997.5,1019.2z M1008.6,1012.8c-0.7,0.4-1.8,0.4-2.4,0l-7.3-4.2c-0.7-0.4-0.6-1,0-1.4l6.8-3.9
								c0.7-0.4,1.7-0.4,2.4,0l7.3,4.2c0.7,0.4,0.7,1,0,1.4L1008.6,1012.8L1008.6,1012.8z M1019.7,1006.3c-0.7,0.4-1.8,0.4-2.4,0
								l-7.3-4.2c-0.7-0.4-0.7-1,0-1.4l6.8-3.9c0.7-0.4,1.7-0.4,2.4,0l7.3,4.2c0.7,0.4,0.7,1,0,1.4L1019.7,1006.3L1019.7,1006.3z
								 M1030.8,999.9c-0.7,0.4-1.7,0.4-2.4,0l-7.3-4.2c-0.7-0.4-0.7-1,0-1.4l6.8-3.9c0.7-0.4,1.7-0.4,2.4,0l7.3,4.2
								c0.7,0.4,0.7,1,0,1.4L1030.8,999.9L1030.8,999.9z M1041.9,993.5c-0.7,0.4-1.7,0.4-2.4,0l-7.3-4.2c-0.7-0.4-0.7-1,0-1.4
								l6.8-3.9c0.7-0.4,1.7-0.4,2.4,0l7.3,4.2c0.7,0.4,0.7,1,0,1.4L1041.9,993.5L1041.9,993.5z M1053,987.1c-0.7,0.4-1.7,0.4-2.4,0
								l-7.3-4.2c-0.7-0.4-0.7-1,0-1.4l6.8-3.9c0.7-0.4,1.7-0.4,2.4,0l7.3,4.2c0.7,0.4,0.7,1,0,1.4L1053,987.1L1053,987.1z
								 M1064.1,980.7c-0.7,0.4-1.7,0.4-2.4,0l-7.3-4.2c-0.7-0.4-0.7-1,0-1.4l6.8-3.9c0.7-0.4,1.7-0.4,2.4,0l7.3,4.2
								c0.7,0.4,0.7,1,0,1.4L1064.1,980.7L1064.1,980.7z M1075.3,974.3c-0.7,0.4-1.7,0.4-2.4,0l-7.3-4.2c-0.7-0.4-0.7-1,0-1.4
								l6.8-3.9c0.7-0.4,1.7-0.4,2.4,0l7.3,4.2c0.7,0.4,0.7,1,0,1.4L1075.3,974.3L1075.3,974.3z M1086.4,967.9
								c-0.7,0.4-1.7,0.4-2.4,0l-7.3-4.2c-0.7-0.4-0.6-1,0-1.4l6.8-3.9c0.7-0.4,1.7-0.4,2.4,0l7.3,4.2c0.7,0.4,0.7,1,0,1.4
								L1086.4,967.9L1086.4,967.9z M1097.5,961.5c-0.7,0.4-1.7,0.4-2.4,0l-7.3-4.2c-0.7-0.4-0.7-1,0-1.4l6.8-3.9
								c0.7-0.4,1.7-0.4,2.4,0l7.3,4.2c0.7,0.4,0.7,1,0,1.4L1097.5,961.5L1097.5,961.5z M1108.6,955c-0.7,0.4-1.7,0.4-2.4,0
								l-7.3-4.2c-0.7-0.4-0.6-1,0-1.4l6.8-3.9c0.7-0.4,1.7-0.4,2.4,0l7.3,4.2c0.7,0.4,0.7,1,0,1.4L1108.6,955L1108.6,955z
								 M1119.7,948.6c-0.7,0.4-1.7,0.4-2.4,0l-7.3-4.2c-0.7-0.4-0.6-1,0-1.4l6.8-3.9c0.7-0.4,1.7-0.4,2.4,0l7.3,4.2
								c0.7,0.4,0.7,1,0,1.4L1119.7,948.6L1119.7,948.6z M1130.8,942.2c-0.7,0.4-1.7,0.4-2.4,0l-7.3-4.2c-0.7-0.4-0.7-1,0-1.4
								l6.8-3.9c0.7-0.4,1.7-0.4,2.4,0l7.3,4.2c0.7,0.4,0.7,1,0,1.4L1130.8,942.2L1130.8,942.2z M1141.9,935.8
								c-0.7,0.4-1.7,0.4-2.4,0l-7.3-4.2c-0.7-0.4-0.6-1,0-1.4l6.8-3.9c0.7-0.4,1.7-0.4,2.4,0l7.3,4.2c0.7,0.4,0.7,1,0,1.4
								L1141.9,935.8L1141.9,935.8z M1137.5,923.6l-187.6,108.3c-1.4,0.8-1.4,2.1,0,2.8l72.8,42.3c1.3,0.8,3.5,0.8,4.9,0
								l187.6-108.3c1.4-0.8,1.4-2.1,0-2.8l-72.8-42.3C1141,922.8,1138.8,922.8,1137.5,923.6L1137.5,923.6z"/>
							<path d="M961.4,1028.9l-6.8,3.9c-0.7,0.4-0.7,1,0,1.4l7.3,4.2c0.7,0.4,1.7,0.4,2.4,0l6.8-3.9c0.7-0.4,0.7-1,0-1.4l-7.3-4.2
								C963.1,1028.5,962,1028.5,961.4,1028.9L961.4,1028.9z"/>
							<path d="M972.5,1022.4l-6.8,3.9c-0.7,0.4-0.7,1,0,1.4l7.3,4.2c0.7,0.4,1.7,0.4,2.4,0l6.8-3.9c0.7-0.4,0.7-1,0-1.4l-7.3-4.2
								C974.2,1022.1,973.1,1022.1,972.5,1022.4L972.5,1022.4z"/>
							<path d="M983.6,1016l-6.8,3.9c-0.7,0.4-0.7,1,0,1.4l7.3,4.2c0.7,0.4,1.7,0.4,2.4,0l6.8-3.9c0.7-0.4,0.7-1,0-1.4l-7.3-4.2
								C985.3,1015.6,984.2,1015.6,983.6,1016L983.6,1016z"/>
							<path d="M994.7,1009.6l-6.8,3.9c-0.7,0.4-0.7,1,0,1.4l7.3,4.2c0.7,0.4,1.7,0.4,2.4,0l6.8-3.9c0.7-0.4,0.7-1,0-1.4l-7.3-4.2
								C996.4,1009.2,995.3,1009.2,994.7,1009.6L994.7,1009.6z"/>
							<path d="M1005.8,1003.2l-6.8,3.9c-0.7,0.4-0.7,1,0,1.4l7.3,4.2c0.7,0.4,1.7,0.4,2.4,0l6.8-3.9c0.7-0.4,0.7-1,0-1.4l-7.3-4.2
								C1007.5,1002.8,1006.4,1002.8,1005.8,1003.2L1005.8,1003.2z"/>
							<path d="M1016.9,996.8l-6.8,3.9c-0.7,0.4-0.7,1,0,1.4l7.3,4.2c0.7,0.4,1.7,0.4,2.4,0l6.8-3.9c0.7-0.4,0.7-1,0-1.4l-7.3-4.2
								C1018.6,996.4,1017.5,996.4,1016.9,996.8L1016.9,996.8z"/>
							<path d="M1028,990.4l-6.8,3.9c-0.7,0.4-0.7,1,0,1.4l7.3,4.2c0.7,0.4,1.7,0.4,2.4,0l6.8-3.9c0.7-0.4,0.7-1,0-1.4l-7.3-4.2
								C1029.7,990,1028.7,990,1028,990.4L1028,990.4z"/>
							<path d="M1039.1,984l-6.8,3.9c-0.7,0.4-0.7,1,0,1.4l7.3,4.2c0.7,0.4,1.7,0.4,2.4,0l6.8-3.9c0.7-0.4,0.7-1,0-1.4l-7.3-4.2
								C1040.8,983.6,1039.8,983.6,1039.1,984L1039.1,984z"/>
							<path d="M1050.2,977.6l-6.8,3.9c-0.7,0.4-0.7,1,0,1.4l7.3,4.2c0.7,0.4,1.7,0.4,2.4,0l6.8-3.9c0.7-0.4,0.7-1,0-1.4l-7.3-4.2
								C1051.9,977.2,1050.9,977.2,1050.2,977.6L1050.2,977.6z"/>
							<path d="M1061.3,971.1l-6.8,3.9c-0.7,0.4-0.7,1,0,1.4l7.3,4.2c0.7,0.4,1.7,0.4,2.4,0l6.8-3.9c0.7-0.4,0.7-1,0-1.4l-7.3-4.2
								C1063,970.8,1062,970.8,1061.3,971.1L1061.3,971.1z"/>
							<path d="M1072.4,964.7l-6.8,3.9c-0.7,0.4-0.7,1,0,1.4l7.3,4.2c0.7,0.4,1.7,0.4,2.4,0l6.8-3.9c0.7-0.4,0.7-1,0-1.4l-7.3-4.2
								C1074.2,964.3,1073.1,964.3,1072.4,964.7L1072.4,964.7z"/>
							<path d="M1083.5,958.3l-6.8,3.9c-0.7,0.4-0.7,1,0,1.4l7.3,4.2c0.7,0.4,1.7,0.4,2.4,0l6.8-3.9c0.7-0.4,0.7-1,0-1.4l-7.3-4.2
								C1085.3,957.9,1084.2,957.9,1083.5,958.3L1083.5,958.3z"/>
							<path d="M1094.6,951.9l-6.8,3.9c-0.7,0.4-0.7,1,0,1.4l7.3,4.2c0.7,0.4,1.7,0.4,2.4,0l6.8-3.9c0.7-0.4,0.7-1,0-1.4l-7.3-4.2
								C1096.4,951.5,1095.3,951.5,1094.6,951.9L1094.6,951.9z"/>
							<path d="M1105.7,945.5l-6.8,3.9c-0.7,0.4-0.7,1,0,1.4l7.3,4.2c0.7,0.4,1.7,0.4,2.4,0l6.8-3.9c0.7-0.4,0.7-1,0-1.4l-7.3-4.2
								C1107.5,945.1,1106.4,945.1,1105.7,945.5L1105.7,945.5z"/>
							<path d="M1116.8,939.1l-6.8,3.9c-0.7,0.4-0.7,1,0,1.4l7.3,4.2c0.7,0.4,1.7,0.4,2.4,0l6.8-3.9c0.7-0.4,0.7-1,0-1.4l-7.3-4.2
								C1118.6,938.7,1117.5,938.7,1116.8,939.1L1116.8,939.1z"/>
							<path d="M1128,932.7l-6.8,3.9c-0.7,0.4-0.7,1,0,1.4l7.3,4.2c0.7,0.4,1.7,0.4,2.4,0l6.8-3.9c0.7-0.4,0.7-1,0-1.4l-7.3-4.2
								C1129.7,932.3,1128.6,932.3,1128,932.7L1128,932.7z"/>
							<path d="M1139.1,926.3l-6.8,3.9c-0.7,0.4-0.7,1,0,1.4l7.3,4.2c0.7,0.4,1.7,0.4,2.4,0l6.8-3.9c0.7-0.4,0.7-1,0-1.4l-7.3-4.2
								C1140.8,925.9,1139.7,925.9,1139.1,926.3L1139.1,926.3z"/>
							<path d="M1019.3,1037.9l-9.1,5.2c-0.5,0.3-0.5,0.8,0,1.1l7.8,4.6c0.5,0.3,1.3,0.3,1.8,0l9.1-5.2c0.5-0.3,0.5-0.8,0-1.1
								l-7.8-4.6C1020.6,1037.6,1019.8,1037.6,1019.3,1037.9L1019.3,1037.9z"/>
							<path d="M1031.9,1030.7l-9.1,5.2c-0.5,0.3-0.5,0.8,0,1.1l7.8,4.6c0.5,0.3,1.3,0.3,1.8,0l9.1-5.2c0.5-0.3,0.5-0.8,0-1.1
								l-7.8-4.6C1033.2,1030.4,1032.4,1030.4,1031.9,1030.7L1031.9,1030.7z"/>
							<path d="M1044.5,1023.4l-9.1,5.2c-0.5,0.3-0.5,0.8,0,1.1l7.8,4.6c0.5,0.3,1.3,0.3,1.8,0l9.1-5.2c0.5-0.3,0.5-0.8,0-1.1
								l-7.8-4.6C1045.8,1023.1,1045,1023.1,1044.5,1023.4L1044.5,1023.4z"/>
							<path d="M1057.1,1016.1l-9.1,5.2c-0.5,0.3-0.5,0.8,0,1.1l7.8,4.6c0.5,0.3,1.3,0.3,1.8,0l9.1-5.2c0.5-0.3,0.5-0.8,0-1.1
								l-7.8-4.6C1058.4,1015.8,1057.6,1015.8,1057.1,1016.1L1057.1,1016.1z"/>
							<path d="M1069.7,1008.8l-9.1,5.2c-0.5,0.3-0.5,0.8,0,1.1l7.8,4.6c0.5,0.3,1.3,0.3,1.8,0l9.1-5.2c0.5-0.3,0.5-0.8,0-1.1
								l-7.8-4.6C1071,1008.5,1070.2,1008.5,1069.7,1008.8L1069.7,1008.8z"/>
							<path d="M1082.3,1001.6l-9.1,5.2c-0.5,0.3-0.5,0.8,0,1.1l7.8,4.6c0.5,0.3,1.3,0.3,1.8,0l9.1-5.2c0.5-0.3,0.5-0.8,0-1.1
								l-7.8-4.6C1083.6,1001.3,1082.8,1001.3,1082.3,1001.6L1082.3,1001.6z"/>
							<path d="M1094.9,994.3l-9.1,5.2c-0.5,0.3-0.5,0.8,0,1.1l7.8,4.6c0.5,0.3,1.3,0.3,1.8,0l9.1-5.2c0.5-0.3,0.5-0.8,0-1.1
								l-7.8-4.6C1096.2,994,1095.4,994,1094.9,994.3L1094.9,994.3z"/>
							<path d="M1107.5,987l-9.1,5.2c-0.5,0.3-0.5,0.8,0,1.1l7.8,4.6c0.5,0.3,1.3,0.3,1.8,0l9.1-5.2c0.5-0.3,0.5-0.8,0-1.1l-7.8-4.6
								C1108.8,986.7,1108,986.7,1107.5,987L1107.5,987z"/>
							<path d="M1120.1,979.7l-9.1,5.2c-0.5,0.3-0.5,0.8,0,1.1l7.8,4.6c0.5,0.3,1.3,0.3,1.8,0l9.1-5.2c0.5-0.3,0.5-0.8,0-1.1
								l-7.8-4.6C1121.4,979.4,1120.6,979.4,1120.1,979.7L1120.1,979.7z"/>
							<path d="M1132.7,972.5l-9.1,5.2c-0.5,0.3-0.5,0.8,0,1.1l7.8,4.6c0.5,0.3,1.3,0.3,1.8,0l9.1-5.2c0.5-0.3,0.5-0.8,0-1.1
								l-7.8-4.6C1134,972.2,1133.2,972.2,1132.7,972.5L1132.7,972.5z"/>
							<path d="M1145.3,965.2l-9.1,5.2c-0.5,0.3-0.5,0.8,0,1.1l7.8,4.6c0.5,0.3,1.3,0.3,1.8,0l9.1-5.2c0.5-0.3,0.5-0.8,0-1.1
								l-7.8-4.6C1146.6,964.9,1145.8,964.9,1145.3,965.2L1145.3,965.2z"/>
							<path d="M1006.9,1045.1l-15.9,9.2c-0.5,0.3-0.5,0.8,0,1.1l7.9,4.6c0.5,0.3,1.3,0.3,1.8,0l15.9-9.2c0.5-0.3,0.5-0.8,0-1
								l-7.9-4.6C1008.2,1044.8,1007.4,1044.8,1006.9,1045.1L1006.9,1045.1z"/>
							<path d="M1176.1,947.4l-27.2,15.7c-0.5,0.3-0.5,0.8,0,1l7.9,4.6c0.5,0.3,1.3,0.3,1.8,0l27.2-15.7c0.5-0.3,0.5-0.8,0-1.1
								l-7.9-4.6C1177.4,947.1,1176.6,947.1,1176.1,947.4L1176.1,947.4z"/>
							<path d="M1003.3,1033l-9.1,5.2c-0.5,0.3-0.5,0.8,0,1.1l7.8,4.6c0.5,0.3,1.3,0.3,1.8,0l9.1-5.2c0.5-0.3,0.5-0.8,0-1.1
								l-7.8-4.6C1004.7,1032.7,1003.8,1032.7,1003.3,1033L1003.3,1033z"/>
							<path d="M1015.9,1025.7l-9.1,5.2c-0.5,0.3-0.5,0.8,0,1.1l7.8,4.6c0.5,0.3,1.3,0.3,1.8,0l9.1-5.2c0.5-0.3,0.5-0.8,0-1.1
								l-7.8-4.6C1017.3,1025.4,1016.4,1025.4,1015.9,1025.7L1015.9,1025.7z"/>
							<path d="M1028.5,1018.4l-9.1,5.2c-0.5,0.3-0.5,0.8,0,1.1l7.8,4.6c0.5,0.3,1.3,0.3,1.8,0l9.1-5.2c0.5-0.3,0.5-0.8,0-1.1
								l-7.8-4.6C1029.9,1018.1,1029,1018.1,1028.5,1018.4L1028.5,1018.4z"/>
							<path d="M1041.1,1011.1l-9.1,5.2c-0.5,0.3-0.5,0.8,0,1.1l7.8,4.6c0.5,0.3,1.3,0.3,1.8,0l9.1-5.2c0.5-0.3,0.5-0.8,0-1.1
								l-7.8-4.6C1042.5,1010.9,1041.6,1010.9,1041.1,1011.1L1041.1,1011.1z"/>
							<path d="M1053.7,1003.9l-9.1,5.2c-0.5,0.3-0.5,0.8,0,1.1l7.8,4.6c0.5,0.3,1.3,0.3,1.8,0l9.1-5.2c0.5-0.3,0.5-0.8,0-1.1
								l-7.8-4.6C1055.1,1003.6,1054.2,1003.6,1053.7,1003.9L1053.7,1003.9z"/>
							<path d="M1066.3,996.6l-9.1,5.2c-0.5,0.3-0.5,0.8,0,1.1l7.8,4.6c0.5,0.3,1.3,0.3,1.8,0l9.1-5.2c0.5-0.3,0.5-0.8,0-1.1
								l-7.8-4.6C1067.7,996.3,1066.8,996.3,1066.3,996.6L1066.3,996.6z"/>
							<path d="M1078.9,989.3l-9.1,5.2c-0.5,0.3-0.5,0.8,0,1.1l7.8,4.6c0.5,0.3,1.3,0.3,1.8,0l9.1-5.2c0.5-0.3,0.5-0.8,0-1.1
								l-7.8-4.6C1080.3,989,1079.4,989,1078.9,989.3L1078.9,989.3z"/>
							<path d="M1091.5,982l-9.1,5.2c-0.5,0.3-0.5,0.8,0,1.1l7.8,4.6c0.5,0.3,1.3,0.3,1.8,0l9.1-5.2c0.5-0.3,0.5-0.8,0-1.1l-7.8-4.6
								C1092.9,981.8,1092,981.8,1091.5,982L1091.5,982z"/>
							<path d="M1104.1,974.8l-9.1,5.2c-0.5,0.3-0.5,0.8,0,1.1l7.8,4.6c0.5,0.3,1.3,0.3,1.8,0l9.1-5.2c0.5-0.3,0.5-0.8,0-1.1
								l-7.8-4.6C1105.5,974.5,1104.6,974.5,1104.1,974.8L1104.1,974.8z"/>
							<path d="M1116.7,967.5l-9.1,5.2c-0.5,0.3-0.5,0.8,0,1.1l7.8,4.6c0.5,0.3,1.3,0.3,1.8,0l9.1-5.2c0.5-0.3,0.5-0.8,0-1.1
								l-7.8-4.6C1118.1,967.2,1117.2,967.2,1116.7,967.5L1116.7,967.5z"/>
							<path d="M1129.3,960.2l-9.1,5.2c-0.5,0.3-0.5,0.8,0,1.1l7.8,4.6c0.5,0.3,1.3,0.3,1.8,0l9.1-5.2c0.5-0.3,0.5-0.8,0-1.1
								l-7.8-4.6C1130.7,959.9,1129.8,959.9,1129.3,960.2L1129.3,960.2z"/>
							<path d="M1141.9,952.9l-9.1,5.2c-0.5,0.3-0.5,0.8,0,1.1l7.8,4.6c0.5,0.3,1.3,0.3,1.8,0l9.1-5.2c0.5-0.3,0.5-0.8,0-1.1
								l-7.8-4.6C1143.3,952.7,1142.4,952.7,1141.9,952.9L1141.9,952.9z"/>
							<path d="M990.6,1040.3l-11.8,6.8c-0.5,0.3-0.5,0.8,0,1.1l7.9,4.6c0.5,0.3,1.3,0.3,1.8,0l11.8-6.8c0.5-0.3,0.5-0.8,0-1.1
								l-7.9-4.6C991.9,1040,991.1,1040.1,990.6,1040.3L990.6,1040.3z"/>
							<path d="M1163.8,940.3l-18.3,10.6c-0.5,0.3-0.5,0.8,0,1.1l7.9,4.6c0.5,0.3,1.3,0.3,1.8,0l18.3-10.6c0.5-0.3,0.5-0.8,0-1.1
								l-7.9-4.6C1165.1,940,1164.3,940,1163.8,940.3L1163.8,940.3z"/>
							<path d="M984.8,1029.5l-9.1,5.3c-0.5,0.3-0.5,0.8,0,1l7.9,4.6c0.5,0.3,1.3,0.3,1.8,0l9.1-5.3c0.5-0.3,0.5-0.8,0-1.1l-7.9-4.6
								C986.1,1029.2,985.3,1029.2,984.8,1029.5L984.8,1029.5z"/>
							<path d="M997.4,1022.2l-9.1,5.2c-0.5,0.3-0.5,0.8,0,1.1l7.8,4.6c0.5,0.3,1.3,0.3,1.8,0l9.1-5.2c0.5-0.3,0.5-0.8,0-1.1
								l-7.8-4.6C998.7,1021.9,997.9,1021.9,997.4,1022.2L997.4,1022.2z"/>
							<path d="M1010,1014.9l-9.1,5.2c-0.5,0.3-0.5,0.8,0,1.1l7.8,4.6c0.5,0.3,1.3,0.3,1.8,0l9.1-5.2c0.5-0.3,0.5-0.8,0-1.1
								l-7.8-4.6C1011.3,1014.7,1010.5,1014.7,1010,1014.9L1010,1014.9z"/>
							<path d="M1022.6,1007.7l-9.1,5.2c-0.5,0.3-0.5,0.8,0,1.1l7.8,4.6c0.5,0.3,1.3,0.3,1.8,0l9.1-5.2c0.5-0.3,0.5-0.8,0-1.1
								l-7.8-4.6C1023.9,1007.4,1023.1,1007.4,1022.6,1007.7L1022.6,1007.7z"/>
							<path d="M1035.2,1000.4l-9.1,5.2c-0.5,0.3-0.5,0.8,0,1.1l7.8,4.6c0.5,0.3,1.3,0.3,1.8,0l9.1-5.2c0.5-0.3,0.5-0.8,0-1.1
								l-7.8-4.6C1036.5,1000.1,1035.7,1000.1,1035.2,1000.4L1035.2,1000.4z"/>
							<path d="M1047.8,993.1l-9.1,5.2c-0.5,0.3-0.5,0.8,0,1.1l7.8,4.6c0.5,0.3,1.3,0.3,1.8,0l9.1-5.2c0.5-0.3,0.5-0.8,0-1.1
								l-7.8-4.6C1049.1,992.8,1048.3,992.8,1047.8,993.1L1047.8,993.1z"/>
							<path d="M1060.4,985.8l-9.1,5.2c-0.5,0.3-0.5,0.8,0,1.1l7.8,4.6c0.5,0.3,1.3,0.3,1.8,0l9.1-5.2c0.5-0.3,0.5-0.8,0-1.1
								l-7.8-4.6C1061.7,985.6,1060.9,985.6,1060.4,985.8L1060.4,985.8z"/>
							<path d="M1073,978.6l-9.1,5.2c-0.5,0.3-0.5,0.8,0,1.1l7.8,4.6c0.5,0.3,1.3,0.3,1.8,0l9.1-5.2c0.5-0.3,0.5-0.8,0-1.1l-7.8-4.6
								C1074.3,978.3,1073.5,978.3,1073,978.6L1073,978.6z"/>
							<path d="M1085.6,971.3l-9.1,5.2c-0.5,0.3-0.5,0.8,0,1.1l7.8,4.6c0.5,0.3,1.3,0.3,1.8,0l9.1-5.2c0.5-0.3,0.5-0.8,0-1.1
								l-7.8-4.6C1086.9,971,1086.1,971,1085.6,971.3L1085.6,971.3z"/>
							<path d="M1098.2,964l-9.1,5.2c-0.5,0.3-0.5,0.8,0,1.1l7.8,4.6c0.5,0.3,1.3,0.3,1.8,0l9.1-5.2c0.5-0.3,0.5-0.8,0-1.1l-7.8-4.6
								C1099.5,963.7,1098.7,963.7,1098.2,964L1098.2,964z"/>
							<path d="M1110.8,956.7l-9.1,5.2c-0.5,0.3-0.5,0.8,0,1.1l7.8,4.6c0.5,0.3,1.3,0.3,1.8,0l9.1-5.2c0.5-0.3,0.5-0.8,0-1.1
								l-7.8-4.6C1112.1,956.5,1111.3,956.5,1110.8,956.7L1110.8,956.7z"/>
							<path d="M1123.4,949.5l-9.1,5.2c-0.5,0.3-0.5,0.8,0,1.1l7.8,4.6c0.5,0.3,1.3,0.3,1.8,0l9.1-5.2c0.5-0.3,0.5-0.8,0-1.1
								l-7.8-4.6C1124.7,949.2,1123.9,949.2,1123.4,949.5L1123.4,949.5z"/>
							<path d="M971.9,1036.9l-5.5,3.2c-0.5,0.3-0.5,0.8,0,1.1l7.9,4.6c0.5,0.3,1.3,0.3,1.8,0l5.5-3.2c0.5-0.3,0.5-0.8,0-1.1
								l-7.9-4.6C973.3,1036.6,972.4,1036.6,971.9,1036.9L971.9,1036.9z"/>
							<path d="M1151.6,933.2l-24.6,14.2c-0.5,0.3-0.5,0.8,0,1.1l7.9,4.6c0.5,0.3,1.3,0.3,1.8,0l24.6-14.2c0.5-0.3,0.5-0.8,0-1.1
								l-7.9-4.6C1152.9,932.9,1152.1,932.9,1151.6,933.2L1151.6,933.2z"/>
							<path d="M1037,1041.9l-9.1,5.2c-0.5,0.3-0.5,0.8,0,1.1l7.8,4.6c0.5,0.3,1.3,0.3,1.8,0l9.1-5.2c0.5-0.3,0.5-0.8,0-1.1
								l-7.8-4.6C1038.3,1041.6,1037.5,1041.6,1037,1041.9L1037,1041.9z"/>
							<path d="M1049.6,1034.6l-9.1,5.2c-0.5,0.3-0.5,0.8,0,1.1l7.8,4.6c0.5,0.3,1.3,0.3,1.8,0l9.1-5.2c0.5-0.3,0.5-0.8,0-1.1
								l-7.8-4.6C1050.9,1034.3,1050.1,1034.3,1049.6,1034.6L1049.6,1034.6z"/>
							<path d="M1062.2,1027.3l-9.1,5.2c-0.5,0.3-0.5,0.8,0,1.1l7.8,4.6c0.5,0.3,1.3,0.3,1.8,0l9.1-5.2c0.5-0.3,0.5-0.8,0-1.1
								l-7.8-4.6C1063.5,1027.1,1062.7,1027.1,1062.2,1027.3L1062.2,1027.3z"/>
							<path d="M1074.8,1020.1l-9.1,5.2c-0.5,0.3-0.5,0.8,0,1.1l7.8,4.6c0.5,0.3,1.3,0.3,1.8,0l9.1-5.2c0.5-0.3,0.5-0.8,0-1.1
								l-7.8-4.6C1076.1,1019.8,1075.3,1019.8,1074.8,1020.1L1074.8,1020.1z"/>
							<path d="M1087.4,1012.8l-9.1,5.2c-0.5,0.3-0.5,0.8,0,1.1l7.8,4.6c0.5,0.3,1.3,0.3,1.8,0l9.1-5.2c0.5-0.3,0.5-0.8,0-1.1
								l-7.8-4.6C1088.7,1012.5,1087.9,1012.5,1087.4,1012.8L1087.4,1012.8z"/>
							<path d="M1100,1005.5l-9.1,5.2c-0.5,0.3-0.5,0.8,0,1.1l7.8,4.6c0.5,0.3,1.3,0.3,1.8,0l9.1-5.2c0.5-0.3,0.5-0.8,0-1.1
								l-7.8-4.6C1101.3,1005.2,1100.5,1005.2,1100,1005.5L1100,1005.5z"/>
							<path d="M1112.6,998.2l-9.1,5.2c-0.5,0.3-0.5,0.8,0,1.1l7.8,4.6c0.5,0.3,1.3,0.3,1.8,0l9.1-5.2c0.5-0.3,0.5-0.8,0-1.1
								l-7.8-4.6C1113.9,998,1113.1,998,1112.6,998.2L1112.6,998.2z"/>
							<path d="M1125.2,991l-9.1,5.2c-0.5,0.3-0.5,0.8,0,1.1l7.8,4.6c0.5,0.3,1.3,0.3,1.8,0l9.1-5.2c0.5-0.3,0.5-0.8,0-1.1l-7.8-4.6
								C1126.5,990.7,1125.7,990.7,1125.2,991L1125.2,991z"/>
							<path d="M1137.8,983.7l-9.1,5.2c-0.5,0.3-0.5,0.8,0,1.1l7.8,4.6c0.5,0.3,1.3,0.3,1.8,0l9.1-5.2c0.5-0.3,0.5-0.8,0-1.1
								l-7.8-4.6C1139.1,983.4,1138.3,983.4,1137.8,983.7L1137.8,983.7z"/>
							<path d="M1150.4,976.4l-9.1,5.2c-0.5,0.3-0.5,0.8,0,1.1l7.8,4.6c0.5,0.3,1.3,0.3,1.8,0l9.1-5.2c0.5-0.3,0.5-0.8,0-1.1
								l-7.8-4.6C1151.7,976.1,1150.9,976.1,1150.4,976.4L1150.4,976.4z"/>
							<path d="M1188.4,954.6l-34,19.6c-0.5,0.3-0.5,0.8,0,1.1l7.8,4.6c0.5,0.3,1.3,0.3,1.8,0l34-19.6c0.5-0.3,0.5-0.8,0-1.1
								l-7.8-4.6C1189.7,954.3,1188.9,954.3,1188.4,954.6L1188.4,954.6z"/>
							<path d="M1024.5,1049.1l-21.4,12.3c-0.5,0.3-0.5,0.8,0,1.1l7.9,4.6c0.5,0.3,1.3,0.3,1.8,0l21.4-12.3c0.5-0.3,0.5-0.8,0-1
								l-7.9-4.6C1025.8,1048.8,1025,1048.8,1024.5,1049.1L1024.5,1049.1z"/>
							<path d="M1024.5,1063.3l-9.1,5.2c-0.5,0.3-0.5,0.8,0,1.1l7.8,4.6c0.5,0.3,1.3,0.3,1.8,0l9.1-5.2c0.5-0.3,0.5-0.8,0-1.1
								l-7.8-4.6C1025.8,1063,1025,1063,1024.5,1063.3L1024.5,1063.3z"/>
							<path d="M1037.1,1056l-9.1,5.2c-0.5,0.3-0.5,0.8,0,1.1l7.8,4.6c0.5,0.3,1.3,0.3,1.8,0l9.1-5.2c0.5-0.3,0.5-0.8,0-1.1
								l-7.8-4.6C1038.4,1055.7,1037.6,1055.7,1037.1,1056L1037.1,1056z"/>
							<path d="M1049.7,1048.7l-9.1,5.2c-0.5,0.3-0.5,0.8,0,1.1l7.8,4.6c0.5,0.3,1.3,0.3,1.8,0l9.1-5.2c0.5-0.3,0.5-0.8,0-1.1
								l-7.8-4.6C1051,1048.4,1050.2,1048.4,1049.7,1048.7L1049.7,1048.7z"/>
							<path d="M1062.3,1041.4l-9.1,5.2c-0.5,0.3-0.5,0.8,0,1.1l7.8,4.6c0.5,0.3,1.3,0.3,1.8,0l9.1-5.2c0.5-0.3,0.5-0.8,0-1.1
								l-7.8-4.6C1063.6,1041.2,1062.8,1041.2,1062.3,1041.4L1062.3,1041.4z"/>
							<path d="M1136.2,998.8l-9.1,5.2c-0.5,0.3-0.5,0.8,0,1.1l7.8,4.6c0.5,0.3,1.3,0.3,1.8,0l9.1-5.2c0.5-0.3,0.5-0.8,0-1.1
								l-7.8-4.6C1137.5,998.5,1136.7,998.5,1136.2,998.8L1136.2,998.8z"/>
							<path d="M1148.8,991.5l-9.1,5.2c-0.5,0.3-0.5,0.8,0,1.1l7.8,4.6c0.5,0.3,1.3,0.3,1.8,0l9.1-5.2c0.5-0.3,0.5-0.8,0-1.1
								l-7.8-4.6C1150.2,991.2,1149.3,991.2,1148.8,991.5L1148.8,991.5z"/>
							<path d="M1161.4,984.2l-9.1,5.2c-0.5,0.3-0.5,0.8,0,1.1l7.8,4.6c0.5,0.3,1.3,0.3,1.8,0l9.1-5.2c0.5-0.3,0.5-0.8,0-1.1
								l-7.8-4.6C1162.7,983.9,1161.9,983.9,1161.4,984.2L1161.4,984.2z"/>
							<path d="M1173.8,977.1l-8.2,4.7c-0.8,0.5-0.8,1.2,0,1.7l2.6,1.5l11.1-6.4l-2.6-1.5C1175.9,976.6,1174.6,976.6,1173.8,977.1
								L1173.8,977.1z"/>
							<path d="M1186.9,969.5l-8.2,4.7c-0.8,0.5-0.8,1.2,0,1.7l2.6,1.5l11.1-6.4l-2.6-1.5C1189,969,1187.7,969,1186.9,969.5
								L1186.9,969.5z"/>
							<path d="M1200,962l-8.2,4.7c-0.8,0.5-0.8,1.2,0,1.7l2.6,1.5l11.1-6.4l-2.6-1.5C1202.1,961.5,1200.8,961.5,1200,962L1200,962z
								"/>
							<path d="M1180.9,979.5l-11.1,6.4l2.6,1.5c0.8,0.5,2.1,0.5,2.9,0l8.2-4.7c0.8-0.5,0.8-1.2,0-1.7L1180.9,979.5L1180.9,979.5z"
								/>
							<path d="M1194,971.9l-11.1,6.4l2.6,1.5c0.8,0.5,2.1,0.5,2.9,0l8.2-4.7c0.8-0.5,0.8-1.2,0-1.7L1194,971.9L1194,971.9z"/>
							<path d="M1207.1,964.4l-11.1,6.4l2.6,1.5c0.8,0.5,2.1,0.5,2.9,0l8.2-4.7c0.8-0.5,0.8-1.2,0-1.7L1207.1,964.4L1207.1,964.4z"
								/>
							<polygon points="1123.7,1006 1064.8,1040 1074.4,1045.6 1133.4,1011.6 1123.7,1006 							"/>
							<path class="st78" d="M1171.6,998.3l-92.8,53.6c-0.7,0.4-0.7,1.1,0,1.5l45.3,26.3c0.7,0.4,1.9,0.4,2.6,0l92.8-53.6
								c0.7-0.4,0.7-1.1,0-1.5l-45.3-26.3C1173.5,997.9,1172.3,997.9,1171.6,998.3L1171.6,998.3z"/>
							<polygon class="st6" points="1112.6,922 946.2,1018 948.4,1019.3 1114.8,923.3 1112.6,922 							"/>
						</g>
					</g>
				</g>
			</g>
		</g>
	</g>
	<g>
		<ellipse class="st0" cx="-720.1" cy="1756.3" rx="195.5" ry="92.6"/>
		<g>
			<g>
				<path class="st79" d="M992.8,1559.7c0,0,19.4,42.4,11.4,84.4c-8,42-38.7,160.7-38,184.7s26.6,60.7,20,95.3
					c-6.6,34.7-14,155.3-9.3,164.7c0,0-39.3,26-65.3,0l-26.7-230.5l-7.3-265.8L992.8,1559.7z"/>
				<path class="st80" d="M976.8,2088.8c0,0,13.2,36.6,1.8,51.1s-60.6,8.4-79.8,3.2c-19.2-5.2-85-44.6-87.7-54.3
					c-2.6-9.7,4.1-12.4,16.9-9.7C840.9,2081.7,976.8,2088.8,976.8,2088.8z"/>
			</g>
			<g>
				<path class="st4" d="M789.1,1581.4l17.1,286.7c0,0-1.3,24,4,40.7c5.3,16.7,30.7,211.3,30.7,211.3s28.7,24,66,11.3
					c0,0-8-102,0-126c8-24,2.7-88-11.3-108c0,0-4.7-132,10.7-164c15.3-32,54.5-89.5,37.2-147.7L789.1,1581.4z"/>
				<path class="st80" d="M840.8,2120.1c0,0-80.9-1.8-85.2,3.2c-4.4,5,11.1,32,39,40.2c28,8.2,54.5,11.4,59.7,15.4
					c5.2,4.1,37.3,16.3,45.1,10.2c7.9-6.1,19.4-17.2,7.4-57.7L840.8,2120.1z"/>
			</g>
			<g>
				<path class="st81" d="M971.3,1181.7c-16.7,5.6-32.3,29.3-9,84c23.3,54.8,48.8,95.2,59.3,126c10.5,30.8,43.5,144.1,43.5,144.1
					s37.5,6.8,50.3-9.8c0,0-23.3-119-37.5-163.4s-55.9-141.1-67.3-157.7S991.6,1174.9,971.3,1181.7z"/>
				<path class="st82" d="M1115.4,1525.9c0,0,16.6,60.3-3.7,75.5c-20.3,15.2-46.1-1.6-47.7-20.1c-1.5-18.5,1.1-45.7,1.1-45.7
					L1115.4,1525.9z"/>
			</g>
			<g>
				<path class="st83" d="M833.7,1141.5c0,0,9.2,38.4,10.4,51.8c0,0,42.2,0,67.7-16.7l-7.9-66.4L833.7,1141.5z"/>
				<path class="st82" d="M844.4,1015.4c-26-2.4-56.7,3.1-55.9,36.3c0.8,33.2,4.7,102.8,14.3,106.7c0,0,50.2,2.9,78.3-20.3
					C881.1,1138.1,918.8,1022.1,844.4,1015.4z"/>
				<path class="st27" d="M908.1,1146c-17.2,4.2-68.6,26-83.6-107.2c0,0-38.4,9.2-51.4-6.3c-12.9-15.5,23-35.9,64.3-40.9
					c41.4-5,76,12.5,74.3,28.8c0,0,25.5,10.4,21.3,53C928.9,1116,917.5,1143.7,908.1,1146z"/>
				<path class="st82" d="M852,1073c-7.3-10.3-24.9,8.2-27,12c0,0-0.5,16,8.7,18.1S862.4,1087.6,852,1073z"/>
			</g>
			<path class="st84" d="M885.3,1175.2c-28,5.4-78.9,30-96.3,58.3c-17.4,28.2,0,347.9,0,347.9s149.6,34.9,203.7-21.6
				c0,0,4.2-117.8,14.4-161.3c10.2-43.6,19.2-197.4-24.6-223.2C982.5,1175.2,928.7,1166.8,885.3,1175.2z"/>
			<polygon class="st85" points="762,1354.9 674.8,1138.3 520.5,1208.6 605.5,1424.8 			"/>
			<path class="st82" d="M645.4,1398.4c0,0-20.6-38.1-25.5-60.6c-4.9-22.5-17.6,2.7-13.3,30.3c0,0-19.7,3.8-28.4-12.4
				c0,0-5.6,17.2,5.3,35.8c0,0,0.4,23.2,9.8,32c9.5,8.8,28.8,19.7,28.8,19.7S621.4,1416.9,645.4,1398.4z"/>
			<path class="st81" d="M825.4,1246.1c-24.2-18-38.3-9.6-43.1,4.2c-4.8,13.8-43.2,167-56.4,171.3s-65.5-9.6-80.5-23.1
				c0,0-28.2,9.9-23.4,44.8c0,0,97.3,85.9,131.6,51.7c34.2-34.2,96.7-180.3,99.1-195.9C855.1,1283.3,848.9,1263.6,825.4,1246.1z"/>
		</g>
	</g>
	<g>
		<path class="st0" d="M1253.2,689.5c0,12.2-18,22-40.1,22s-40.1-9.5-40.1-21.7s17.9-22.3,40.1-22.3S1253.2,677.4,1253.2,689.5z"/>
		<polygon class="st15" points="1172.5,684.9 1164.2,604 1244.2,604.2 1236.8,684.7 		"/>
		<ellipse class="st86" cx="1204.2" cy="603" rx="40" ry="22"/>
		<path class="st15" d="M1236.8,684.7c0,9.8-14.4,17.7-32.2,17.7s-32.1-7.6-32.1-17.4c0-9.8,14.4-17.9,32.1-17.9
			S1236.8,674.9,1236.8,684.7z"/>
		<ellipse class="st87" cx="1204.5" cy="602.2" rx="34.5" ry="17.7"/>
		<g>
			<path class="st88" d="M1207.6,550.2v51.9c0,2.7-2.2,5-5,5h0c-2.7,0-5-2.2-5-5v-51.9c0-2.7,2.2-5,5-5h0c1.4,0,2.6,0.6,3.5,1.5
				C1207.1,547.6,1207.6,548.8,1207.6,550.2z"/>
			<path class="st89" d="M1202.7,545.2V607h0c-2.7,0-5-2.2-5-5v-51.9C1197.7,547.4,1199.9,545.2,1202.7,545.2L1202.7,545.2z"/>
			<path class="st90" d="M1231.7,527.5c0,51.4-13,60-29,60c-12,0-22.3-4.8-26.7-28.8c-1.5-8-2.3-18.3-2.3-31.2
				c0-51.4,29-114.6,29-114.6s3.5,7.7,8.1,19.9C1219.4,455.5,1231.7,494,1231.7,527.5z"/>
			<path class="st91" d="M1210.8,432.7c-0.9,80.9-20.3,113.1-34.8,125.9c-1.5-8-2.3-18.3-2.3-31.2c0-51.4,29-114.6,29-114.6
				S1206.2,420.6,1210.8,432.7z"/>
		</g>
	</g>
	<g>
		<ellipse class="st0" cx="-720.1" cy="1623" rx="202.5" ry="96"/>
		<g>
			<g>
				<path class="st92" d="M1681.8,627.2c0,0-4.2,44.2-66.7,30.9c0,0-20.9-75.9-5-124.3c0,0,54.2-24.2,71.7,0
					C1699.3,558,1681.8,627.2,1681.8,627.2z"/>
				<path class="st92" d="M1752.3,678.8l-18.5-54.5l-58.5-2.4l-34.1,23.4c0,0,29.6,17.9,38.7,69.6L1752.3,678.8z"/>
				<path class="st4" d="M1739,641.5c0,0-42.6,12-62.4,0s-28.6-54.6-44.7-43.2c0,0-6.3-8.1,0-26.3c6.3-18.2,3.7-29.6-5.7-30.2
					c-9.4-0.7-28.3-3.6-28.3-29.6c0,0,20.7,4.8,47.6-7c13.2-5.8,54.1-16.7,67.4-5s15,25.4,14.3,33.5c0,0,13.3,4.2,15.9,22.1
					C1745.8,573.5,1742.9,615.5,1739,641.5z"/>
				<path class="st92" d="M1646.2,622.5c0,0,27-24.4,14-43.2c-1.2-1.8-3.2-3-5.4-3.2c-5.2-0.4-15.1,2.2-23.6,23.6L1646.2,622.5z"/>
			</g>
			<g>
				<path class="st93" d="M1774.7,689.1c-21.5,8.6-17.2,41.7-10.1,60.6c7.1,19,57.3,152.8,57.3,183.1s-19.6,149.7-19.6,149.7
					s28.5,17.8,46.9,6.5c0,0,36.2-110.5,26.7-169.9c-9.5-59.4-55.9-201.5-61.8-215.1C1808.4,690.9,1789.5,683.2,1774.7,689.1z"/>
				<path class="st92" d="M1849.2,1089.1c0,0,1.8,23.7-4.2,36.5c-8.4,17.9-27.4,31.2-49.6,27.7c-22.1-3.5,6.8-70.7,6.8-70.7
					L1849.2,1089.1z"/>
			</g>
			<g>
				<path class="st94" d="M1766.8,1617.4c0,0,9.8,49.9-25.3,50.7c0,0-20.2,8.8-56.9-17.8c0,0-34.1-0.1-59-9.1
					c0,0-13.8-11.7,4.1-16.6c18-4.8,70.6-19,70.6-19S1705.7,1607.8,1766.8,1617.4z"/>
				<path class="st95" d="M1793.9,1046.3c0,0-59,37.1-117.2,29.8c0,0,8.2,214.7,10,245.6c1.8,30.9,12.8,283.8,13.7,283.8
					c0.9,0,30.9,29.4,66.4,11.8c0.9-6.4,8.1-96.4,16.3-117.4c8.2-20.9,16.4-99.2-6.4-133.7c0,0-5.5-124.6,5.5-151.9
					C1793.1,1187.1,1822.8,1112,1793.9,1046.3z"/>
			</g>
			<g>
				<path class="st93" d="M1753,667.2c-12.1,2.3-25.5,5.7-39.7,10.4c-23.8,8-33.3,10.8-49.1,20.1c4.6,13.7,9.2,27.5,13.7,41.2
					l81.9-51.7L1753,667.2z"/>
				<path class="st96" d="M1733.9,686.6c-14.9,2.2-29.2,7.1-42.2,14.5c-35.7,20.2-82.7,56.9-87.6,66.2c-6,11.3-19.9,48.3-18.9,79.1
					c1,30.8,4.1,194.1-10.3,236.2c0,0,99.1,28.2,164.8-2.6c0,0,42.4-20,54.1-33.7c0,0,14.4-142.9,26.8-210.9s1.5-140.7-28.2-147.7
					C1772,682.8,1749.8,684.3,1733.9,686.6z"/>
			</g>
			<g>
				<path class="st92" d="M1313.4,798.1c0,0-29.9-14.1-35.2-34.4s3.1-40.3,17.6-56c0,0-26.3-33.8-19.2-44.2
					c7.1-10.4,54.2,44.5,58,52.9c3.8,8.4,15.6,44.3,15.6,44.3l-19.6,31.3L1313.4,798.1z"/>
				<path class="st93" d="M1648.1,797.4c-4.3-29.1-23.6-39.3-44-30.1c-20.4,9.2-135.9,86-154.3,75.8c-18.4-10.2-99.6-82.5-99.6-82.5
					s-33,9.5-36.8,37.4c0,0,76.8,107.2,119.3,111.7c42.5,4.4,187.2-45.7,196-56.5C1637.6,842.5,1651.7,821.5,1648.1,797.4z"/>
			</g>
			<g>
				<path class="st94" d="M1659.4,1678.4c0,0,23.3,39.1-6.1,53.7c-29.4,14.6-54.5-13.6-78.3-7.3c-23.9,6.4-61.2,18.2-91.2-0.9
					c0,0-2.7-1.8-5.6-4.8c-4.7-4.9-2.5-13,4-14.9c22.8-6.8,74-23.3,88.8-39.4C1571,1664.7,1571.9,1667.2,1659.4,1678.4z"/>
				<path class="st97" d="M1575,1082.6c0,0-14.8,222.8-12,275.5s15.5,101,16.4,143.7c0.9,42.8-8.5,162.8-8.4,162.8
					c0.2,0,47.5,31.8,88.4,13.6c0,0-4.5-108.3,4.5-151c9.1-42.8,8.6-122.8-17.1-153.7c0,0,41.4-134.6,58.4-156.5
					c16.9-21.8,50.4-78.6,34.6-137.1C1739.8,1080,1667.9,1105.5,1575,1082.6z"/>
			</g>
		</g>
	</g>
</g>
</svg>
