<?xml version="1.0" encoding="utf-8"?>
<!-- Generator: Adobe Illustrator 19.0.0, SVG Export Plug-In . SVG Version: 6.00 Build 0)  -->
<svg version="1.1" xmlns="http://www.w3.org/2000/svg" xmlns:xlink="http://www.w3.org/1999/xlink" x="0px" y="0px"
	 viewBox="0 0 234 281.3" style="enable-background:new 0 0 234 281.3;" xml:space="preserve">
<style type="text/css">
	.st0{fill:#789DFF;}
	.st1{opacity:0.9;fill:#FFFFFF;}
	.st2{opacity:0.75;fill:url(#SVGID_1_);}
	.st3{fill:#9A9A9A;}
	.st4{fill:#F2F2F2;}
	.st5{fill:#1A1A1A;}
	.st6{fill:#5A5A5A;}
	.st7{fill:#878787;}
	.st8{fill:#5E5E5E;}
	.st9{fill:#868686;}
	.st10{fill:#757575;}
	.st11{fill:#777777;}
	.st12{fill:#737373;}
	.st13{fill:#8A8A8A;}
	.st14{fill:#686868;}
	.st15{fill:#5D5D5D;}
	.st16{fill:#888888;}
	.st17{fill:#7F7F7F;}
	.st18{fill:#5C5C5C;}
	.st19{fill:#747474;}
	.st20{fill:#858585;}
	.st21{fill:#B3B3B3;}
	.st22{enable-background:new    ;}
	.st23{fill:#6D6D6D;}
	.st24{fill:#717171;}
	.st25{fill:#818181;}
	.st26{fill:#828282;}
	.st27{fill:#838383;}
	.st28{fill:#606060;}
	.st29{fill:#898989;}
	.st30{fill:#6A6A6A;}
	.st31{fill:#6C6C6C;}
	.st32{fill:#6F6F6F;}
	.st33{fill:#727272;}
	.st34{fill:#7C7C7C;}
	.st35{fill:#5B5B5B;}
	.st36{fill:#656565;}
	.st37{fill:#707070;}
	.st38{fill:#243D7D;}
	.st39{fill:#4771DE;}
	.st40{fill:#676767;}
	.st41{fill:#767676;}
	.st42{fill:#7D7D7D;}
	.st43{fill:#EDEDED;}
	.st44{fill:#3357B3;}
	.st45{fill:#DADADA;}
	.st46{fill:#FFFFFF;}
	.st47{fill:#B2B2B2;}
	.st48{fill:#315B84;}
	.st49{fill:#213E5A;}
	.st50{fill:#D1D1D1;}
	.st51{fill:#366693;}
	.st52{fill:#CF3149;}
	.st53{clip-path:url(#SVGID_3_);}
	.st54{fill:#C45A49;}
	.st55{fill:#8A1224;}
	.st56{fill:#008D36;}
	.st57{fill:#FFD89E;}
	.st58{fill:#1D1D1B;}
</style>
<g id="Layer_3">
	<path class="st0" d="M340-46.2"/>
	<path class="st0" d="M-110-46.2"/>
</g>
<g id="Layer_1">
	<g>
		<path class="st1" d="M28.5,188.6c49-28.3,128.4-28.3,177.4,0"/>
		<linearGradient id="SVGID_1_" gradientUnits="userSpaceOnUse" x1="117.2115" y1="233.8265" x2="117.2115" y2="233.8265">
			<stop  offset="0" style="stop-color:#000000"/>
			<stop  offset="1" style="stop-color:#FFFFFF"/>
		</linearGradient>
		<line class="st2" x1="-8.3" y1="233.8" x2="242.7" y2="233.8"/>
		<g>
			<g>
				<g>
					<path class="st3" d="M173.1,209.7l6.6,3.8l-2.4,4.1l-6.6-3.8c-0.3-0.2-0.5-0.6-0.5-1.1c0-1.1,0.8-2.4,1.7-2.9
						C172.4,209.5,172.8,209.5,173.1,209.7z"/>
					<path class="st4" d="M178.6,217.5c-0.9,0.5-1.7,0.1-1.7-1c0-1.1,0.8-2.4,1.7-2.9c0.9-0.5,1.7-0.1,1.7,1
						S179.5,216.9,178.6,217.5z"/>
				</g>
				<g>
					<path class="st5" d="M178.7,211.5l10.3,5.9l-3.7,6.4l-10.3-5.9c-0.5-0.3-0.8-0.9-0.8-1.7c0-1.7,1.2-3.7,2.6-4.5
						C177.6,211.3,178.2,211.2,178.7,211.5z"/>
					<path class="st4" d="M187.2,223.6c-1.4,0.8-2.6,0.2-2.6-1.5c0-1.7,1.2-3.7,2.6-4.5c1.4-0.8,2.6-0.2,2.6,1.5
						C189.8,220.8,188.6,222.8,187.2,223.6z"/>
				</g>
				<g>
					<polygon class="st6" points="192.7,229.3 188.8,227.1 190,228 193.8,230.2 					"/>
				</g>
				<g>
					<polygon class="st7" points="198.5,218.3 194.6,216 192.9,216.6 196.8,218.9 					"/>
				</g>
				<g>
					<polygon class="st8" points="189.4,230.8 185.5,228.6 185.6,230.5 189.5,232.7 					"/>
				</g>
				<g>
					<polygon class="st9" points="196.4,215.1 192.5,212.8 191,214.6 194.8,216.8 					"/>
				</g>
				<g>
					<polygon class="st6" points="186,231.8 182.1,229.6 183,230.2 186.8,232.4 					"/>
				</g>
				<g>
					<polygon class="st10" points="186.9,229.6 183,227.3 182.1,229.6 186,231.8 					"/>
				</g>
				<g>
					<polygon class="st11" points="194.8,216.8 191,214.6 190,214.5 193.9,216.7 					"/>
				</g>
				<g>
					<polygon class="st6" points="186.4,228.6 182.6,226.4 183,227.3 186.9,229.6 					"/>
				</g>
				<g>
					<polygon class="st9" points="193.7,214.8 189.9,212.6 188.6,213 192.5,215.2 					"/>
				</g>
				<g>
					<polygon class="st12" points="192.5,215.2 188.6,213 187.8,215.2 191.6,217.4 					"/>
				</g>
				<g>
					<polygon class="st13" points="191.6,217.4 187.8,215.2 186.7,216 190.5,218.2 					"/>
				</g>
				<g>
					<polygon class="st14" points="186.5,224.7 182.6,222.5 182.3,223.9 186.2,226.1 					"/>
				</g>
				<g>
					<polygon class="st15" points="184.6,227.8 180.7,225.6 180.9,227 184.7,229.2 					"/>
				</g>
				<g>
					<polygon class="st16" points="186.2,226.1 182.3,223.9 180.7,225.6 184.6,227.8 					"/>
				</g>
				<g>
					<polygon class="st17" points="188.4,220.5 184.6,218.2 183.7,219.6 187.6,221.8 					"/>
				</g>
				<g>
					<polygon class="st6" points="185.3,223.9 181.4,221.7 182.6,222.5 186.5,224.7 					"/>
				</g>
				<g>
					<polygon class="st18" points="188.2,218.6 184.4,216.4 184.6,218.2 188.4,220.5 					"/>
				</g>
				<g>
					<polygon class="st7" points="189.4,217.3 185.5,215.1 184.4,216.4 188.2,218.6 					"/>
				</g>
				<g>
					<polygon class="st19" points="185.9,222.3 182,220.1 181.4,221.7 185.3,223.9 					"/>
				</g>
				<g>
					<polygon class="st20" points="187.6,221.8 183.7,219.6 182,220.1 185.9,222.3 					"/>
				</g>
				<g>
					<polygon class="st3" points="198.6,219.7 198.5,218.3 196.8,218.9 196.3,217.9 197.3,215.7 196.4,215.1 194.8,216.8 
						193.9,216.7 193.7,214.8 192.5,215.2 191.6,217.4 190.5,218.2 189.4,217.3 188.2,218.6 188.4,220.5 187.6,221.8 185.9,222.3 
						185.3,223.9 186.5,224.7 186.2,226.1 184.6,227.8 184.7,229.2 186.4,228.6 186.9,229.6 186,231.8 186.8,232.4 188.4,230.7 
						189.4,230.8 189.5,232.7 190.7,232.3 191.6,230.1 192.7,229.3 193.8,230.2 195,228.9 194.8,227 195.6,225.7 197.3,225.2 
						198,223.6 196.8,222.8 197,221.4 					"/>
				</g>
				<g>
					<path class="st4" d="M193.9,220.3l10.3,5.9l-3.7,6.4l-10.3-5.9c-0.5-0.3-0.8-0.9-0.8-1.7c0-1.7,1.2-3.7,2.6-4.5
						C192.8,220.1,193.5,220,193.9,220.3z"/>
					<path class="st4" d="M202.4,232.4c-1.4,0.8-2.6,0.2-2.6-1.5c0-1.7,1.2-3.7,2.6-4.5c1.4-0.8,2.6-0.2,2.6,1.5
						C205,229.6,203.8,231.6,202.4,232.4z"/>
				</g>
				<g>
					<rect x="200" y="224.5" transform="matrix(-0.5 0.866 -0.866 -0.5 505.2078 168.873)" class="st5" width="7.7" height="11.6"/>
					<path class="st5" d="M198.8,230.5c-1.5,0.9-2.7,0.2-2.7-1.6c0-1.7,1.2-3.8,2.7-4.7c1.5-0.9,2.7-0.2,2.7,1.6
						C201.5,227.5,200.3,229.6,198.8,230.5z"/>
					<path class="st21" d="M208.9,236.3c-1.5,0.9-2.7,0.2-2.7-1.6c0-1.7,1.2-3.8,2.7-4.7c1.5-0.9,2.7-0.2,2.7,1.6
						C211.6,233.3,210.4,235.4,208.9,236.3z"/>
				</g>
				<g>
					<g class="st22">
						<g>
							<polygon class="st12" points="215.6,233.3 211.8,231.2 210.9,231 214.7,233.1 							"/>
						</g>
						<g>
							<polygon class="st6" points="210.7,238.8 206.9,236.6 207.2,237.6 211,239.8 							"/>
						</g>
						<g>
							<polygon class="st13" points="215.3,230.4 211.6,228.2 210.5,228.9 214.3,231 							"/>
						</g>
						<g>
							<polygon class="st23" points="208.9,238.6 205.2,236.4 204.8,237.8 208.6,240 							"/>
						</g>
						<g>
							<polygon class="st6" points="208.5,238.2 204.8,236 205.2,236.4 208.9,238.6 							"/>
						</g>
						<g>
							<polygon class="st24" points="214.2,229.3 210.5,227.1 209.8,226.9 213.6,229.1 							"/>
						</g>
						<g>
							<polygon class="st25" points="213.6,229.1 209.8,226.9 209,228.2 212.7,230.3 							"/>
						</g>
						<g>
							<polygon class="st26" points="212.7,230.3 209,228.2 208.3,228.3 212.1,230.4 							"/>
						</g>
						<g>
							<polygon class="st6" points="207.2,238.1 203.5,236 203.7,236.7 207.4,238.8 							"/>
						</g>
						<g>
							<polygon class="st27" points="208.1,236.9 204.3,234.7 203.5,236 207.2,238.1 							"/>
						</g>
						<g>
							<polygon class="st28" points="208.1,236.1 204.3,234 204.3,234.7 208.1,236.9 							"/>
						</g>
						<g>
							<polygon class="st29" points="210.7,231.2 206.9,229.1 206.3,229.7 210,231.9 							"/>
						</g>
						<g>
							<polygon class="st13" points="211.8,229.4 208,227.3 207.2,227.7 211,229.9 							"/>
						</g>
						<g>
							<polygon class="st30" points="211,229.9 207.2,227.7 206.9,229.1 210.7,231.2 							"/>
						</g>
						<g>
							<polygon class="st11" points="208.9,233.5 205.2,231.3 204.8,232.2 208.5,234.3 							"/>
						</g>
						<g>
							<polygon class="st13" points="208.5,234.3 204.8,232.2 203.7,232.8 207.4,234.9 							"/>
						</g>
						<g>
							<polygon class="st31" points="207.4,234.9 203.7,232.8 203.5,233.8 207.2,235.9 							"/>
						</g>
						<g>
							<polygon class="st32" points="210,231.9 206.3,229.7 205.4,229.4 209.2,231.6 							"/>
						</g>
						<g>
							<polygon class="st6" points="208.6,232.5 204.8,230.4 205.2,231.3 208.9,233.5 							"/>
						</g>
						<g>
							<polygon class="st26" points="209.2,231.6 205.4,229.4 204.8,230.4 208.6,232.5 							"/>
						</g>
						<g>
							<polygon class="st3" points="215.6,231.1 215.3,230.4 214.3,231 213.9,230.6 214.2,229.3 213.6,229.1 212.7,230.3 
								212.1,230.4 211.8,229.4 211,229.9 210.7,231.2 210,231.9 209.2,231.6 208.6,232.5 208.9,233.5 208.5,234.3 207.4,234.9 
								207.2,235.9 208.1,236.1 208.1,236.9 207.2,238.1 207.4,238.8 208.5,238.2 208.9,238.6 208.6,240 209.2,240.1 210,238.9 
								210.7,238.8 211,239.8 211.8,239.3 212.1,238 212.7,237.4 213.6,237.6 214.2,236.7 213.9,235.8 214.3,234.9 215.3,234.3 
								215.6,233.3 214.7,233.1 214.7,232.3 							"/>
						</g>
					</g>
				</g>
				<g>
					<rect x="213" y="232.5" transform="matrix(-0.5 0.866 -0.866 -0.5 530.089 168.8721)" class="st5" width="6.6" height="10"/>
					<path class="st5" d="M212,237.6c-1.3,0.7-2.3,0.1-2.3-1.3c0-1.5,1-3.3,2.3-4c1.3-0.7,2.3-0.1,2.3,1.3
						C214.3,235.1,213.3,236.9,212,237.6z"/>
					<path class="st4" d="M220.6,242.7c-1.3,0.7-2.3,0.1-2.3-1.3c0-1.5,1-3.3,2.3-4c1.3-0.7,2.3-0.1,2.3,1.3
						C223,240.1,221.9,241.9,220.6,242.7z"/>
				</g>
			</g>
			<g>
				<g class="st22">
					<g>
						<polygon class="st6" points="45.6,227.6 45.6,229.3 45.6,228.4 45.6,226.7 						"/>
					</g>
					<g>
						<polygon class="st30" points="40.9,226.8 40.9,228.5 40.9,229.3 40.9,227.6 						"/>
					</g>
					<g>
						<polygon class="st18" points="47.6,228.8 47.6,230.5 48.5,229.8 48.5,228.1 						"/>
					</g>
					<g>
						<polygon class="st29" points="38.1,228.2 38.1,229.9 39.1,230.6 39.1,228.9 						"/>
					</g>
					<g>
						<polygon class="st14" points="37.4,229.7 37.4,231.4 37.4,232 37.4,230.3 						"/>
					</g>
					<g>
						<polygon class="st33" points="47.9,230.4 47.9,232.1 49.3,231.9 49.3,230.2 						"/>
					</g>
					<g>
						<polygon class="st20" points="37.4,230.3 37.4,232 38.8,232.3 38.8,230.6 						"/>
					</g>
					<g>
						<polygon class="st6" points="47.6,231 47.6,232.7 47.9,232.1 47.9,230.4 						"/>
					</g>
					<g>
						<polygon class="st34" points="38.8,230.6 38.8,232.3 39.1,232.8 39.1,231.1 						"/>
					</g>
					<g>
						<polygon class="st35" points="47.9,232.2 47.9,233.9 48.6,233.3 48.6,231.6 						"/>
					</g>
					<g>
						<polygon class="st9" points="46.5,231.9 46.5,233.6 47.9,233.9 47.9,232.2 						"/>
					</g>
					<g>
						<polygon class="st36" points="45.8,232.2 45.8,233.9 46.5,233.6 46.5,231.9 						"/>
					</g>
					<g>
						<polygon class="st37" points="38.9,232.3 38.9,234 40.3,233.7 40.3,232 						"/>
					</g>
					<g>
						<polygon class="st16" points="38.2,231.8 38.2,233.5 38.9,234 38.9,232.3 						"/>
					</g>
					<g>
						<polygon class="st13" points="40.3,232 40.3,233.7 41.1,234 41.1,232.3 						"/>
					</g>
					<g>
						<polygon class="st34" points="43,232.6 43,234.3 43.9,234.3 43.9,232.6 						"/>
					</g>
					<g>
						<polygon class="st7" points="43.9,232.6 43.9,234.3 44.8,235 44.8,233.3 						"/>
					</g>
					<g>
						<polygon class="st24" points="44.8,233.3 44.8,235 45.8,234.8 45.8,233.1 						"/>
					</g>
					<g>
						<polygon class="st20" points="41.1,233.2 41.1,234.9 42.1,235 42.1,233.3 						"/>
					</g>
					<g>
						<polygon class="st3" points="38.8,227.7 38.1,228.2 39.1,228.9 38.8,229.4 37.4,229.7 37.4,230.3 38.8,230.6 39.1,231.1 
							38.2,231.8 38.9,232.3 40.3,232 41.1,232.3 41.1,233.2 42.1,233.3 43,232.6 43.9,232.6 44.8,233.3 45.8,233.1 45.8,232.2 
							46.5,231.9 47.9,232.2 48.6,231.6 47.6,231 47.9,230.4 49.3,230.2 49.3,229.5 47.9,229.3 47.6,228.8 48.5,228.1 47.8,227.6 
							46.4,227.9 45.6,227.6 45.6,226.7 44.6,226.5 43.7,227.2 42.8,227.3 41.9,226.6 40.9,226.8 40.9,227.6 40.2,228 						"/>
					</g>
					<g>
						<polygon class="st35" points="42.1,233.3 42.1,235 43,234.3 43,232.6 						"/>
					</g>
				</g>
				<path class="st5" d="M44.9,229.3c0.8,0.5,0.8,1.2,0,1.7c-0.8,0.5-2.1,0.5-2.9,0c-0.8-0.5-0.8-1.2,0-1.7
					C42.8,228.9,44.1,228.9,44.9,229.3z"/>
			</g>
			<g>
				<g class="st22">
					<g>
						<polygon class="st12" points="105.1,232.6 105.1,236.4 105.4,237.1 105.3,233.3 						"/>
					</g>
					<g>
						<polygon class="st6" points="111.4,233.9 111.4,237.7 112.1,237 112.1,233.2 						"/>
					</g>
					<g>
						<polygon class="st13" points="103,234 103,237.8 104,238.4 103.9,234.6 						"/>
					</g>
					<g>
						<polygon class="st23" points="112.1,235.3 112.1,239.1 113.3,238.8 113.3,235 						"/>
					</g>
					<g>
						<polygon class="st6" points="111.9,235.8 111.9,239.6 112.1,239.1 112.1,235.3 						"/>
					</g>
					<g>
						<polygon class="st24" points="102.6,235.4 102.6,239.2 102.8,239.7 102.8,235.9 						"/>
					</g>
					<g>
						<polygon class="st25" points="102.8,235.9 102.8,239.7 104.1,239.8 104.1,236 						"/>
					</g>
					<g>
						<polygon class="st26" points="104.1,236 104.1,239.8 104.5,240.3 104.5,236.5 						"/>
					</g>
					<g>
						<polygon class="st6" points="112.4,236.8 112.5,240.6 112.9,240.1 112.9,236.3 						"/>
					</g>
					<g>
						<polygon class="st27" points="111.1,236.7 111.2,240.5 112.5,240.6 112.4,236.8 						"/>
					</g>
					<g>
						<polygon class="st28" points="110.5,237 110.5,240.8 111.2,240.5 111.1,236.7 						"/>
					</g>
					<g>
						<polygon class="st29" points="105.7,237.2 105.7,241 106.4,241.2 106.4,237.4 						"/>
					</g>
					<g>
						<polygon class="st13" points="103.8,237.2 103.8,241 104.5,241.4 104.5,237.6 						"/>
					</g>
					<g>
						<polygon class="st30" points="104.5,237.6 104.5,241.4 105.7,241 105.7,237.2 						"/>
					</g>
					<g>
						<polygon class="st11" points="108.2,237.6 108.2,241.4 109,241.3 109,237.5 						"/>
					</g>
					<g>
						<polygon class="st13" points="109,237.5 109,241.3 109.9,241.9 109.9,238.1 						"/>
					</g>
					<g>
						<polygon class="st31" points="109.9,238.1 109.9,241.9 110.8,241.6 110.8,237.8 						"/>
					</g>
					<g>
						<polygon class="st32" points="106.4,237.4 106.4,241.2 106.6,242 106.6,238.2 						"/>
					</g>
					<g>
						<polygon class="st6" points="107.6,238.3 107.6,242.1 108.2,241.4 108.2,237.6 						"/>
					</g>
					<g>
						<polygon class="st26" points="106.6,238.2 106.6,242 107.6,242.1 107.6,238.3 						"/>
					</g>
					<g>
						<polygon class="st3" points="103.4,233.5 103,234 103.9,234.6 103.8,235 102.6,235.4 102.8,235.9 104.1,236 104.5,236.5 
							103.8,237.2 104.5,237.6 105.7,237.2 106.4,237.4 106.6,238.2 107.6,238.3 108.2,237.6 109,237.5 109.9,238.1 110.8,237.8 
							110.5,237 111.1,236.7 112.4,236.8 112.9,236.3 111.9,235.8 112.1,235.3 113.3,235 113.1,234.4 111.8,234.3 111.4,233.9 
							112.1,233.2 111.4,232.8 110.2,233.2 109.4,232.9 109.3,232.2 108.3,232.1 107.7,232.8 106.9,232.9 106,232.3 105.1,232.6 
							105.3,233.3 104.7,233.7 						"/>
					</g>
				</g>
				<path class="st5" d="M109.6,234.5c0.8,0.5,0.8,1.2,0,1.7c-0.8,0.5-2.1,0.5-2.9,0c-0.8-0.5-0.8-1.2,0-1.7
					C107.5,234,108.8,234,109.6,234.5z"/>
			</g>
			<g>
				<g class="st22">
					<g>
						<polygon class="st38" points="63.8,208.9 63.9,214.1 66,211.6 66,206.4 						"/>
					</g>
					<g>
						<polygon class="st38" points="46.1,207.2 46.2,212.4 48.9,214.7 48.8,209.5 						"/>
					</g>
					<g>
						<polygon class="st6" points="68.1,212.3 68.1,217.5 68.4,216.3 68.4,211.1 						"/>
					</g>
					<g>
						<polygon class="st38" points="63.4,212.9 63.4,218.1 68.1,217.5 68.1,212.3 						"/>
					</g>
					<g>
						<polygon class="st38" points="44.8,212.1 44.8,217.3 45.4,218.4 45.3,213.1 						"/>
					</g>
					<g>
						<polygon class="st38" points="45.3,213.1 45.4,218.4 50.2,218.6 50.2,213.4 						"/>
					</g>
					<g>
						<polygon class="st38" points="62.5,213.5 62.6,218.8 63.4,218.1 63.4,212.9 						"/>
					</g>
					<g>
						<polygon class="st38" points="50.2,213.4 50.2,218.6 51.2,219.2 51.2,214 						"/>
					</g>
					<g>
						<polygon class="st38" points="56.3,215.2 56.3,220.4 57.7,220.4 57.7,215.1 						"/>
					</g>
					<g>
						<polygon class="st38" points="57.7,215.1 57.7,220.4 61.5,222.1 61.5,216.9 						"/>
					</g>
					<g>
						<polygon class="st38" points="61.5,216.9 61.5,222.1 63.2,221.6 63.2,216.3 						"/>
					</g>
					<g>
						<polygon class="st38" points="51.1,216.8 51.1,222 53,222.5 52.9,217.2 						"/>
					</g>
					<g>
						<polygon class="st39" points="47.3,206.2 46.1,207.2 48.8,209.5 48.6,210.3 44.8,212.1 45.3,213.1 50.2,213.4 51.2,214 
							51.1,216.8 52.9,217.2 56.3,215.2 57.7,215.1 61.5,216.9 63.2,216.3 62.5,213.5 63.4,212.9 68.1,212.3 68.4,211.1 64.2,209.7 
							63.8,208.9 66,206.4 64.7,205.5 60.1,206.5 58.8,206.2 56.7,203.7 54.7,203.8 53.3,206.4 52,206.9 						"/>
					</g>
					<g>
						<polygon class="st38" points="52.9,217.2 53,222.5 56.3,220.4 56.3,215.2 						"/>
					</g>
				</g>
				<path class="st5" d="M59.3,208.9c1.5,0.9,1.5,2.3,0,3.1c-1.5,0.9-3.9,0.9-5.4,0c-1.5-0.9-1.5-2.3,0-3.1
					C55.4,208,57.8,208,59.3,208.9z"/>
			</g>
			<g>
				<g class="st22">
					<g>
						<polygon class="st19" points="27,246.2 27,250.3 27.3,251.3 27.3,247.2 						"/>
					</g>
					<g>
						<polygon class="st6" points="35.1,247.2 35.1,251.3 35.5,250.3 35.5,246.2 						"/>
					</g>
					<g>
						<polygon class="st7" points="24,247.6 24,251.6 25,252.4 25,248.4 						"/>
					</g>
					<g>
						<polygon class="st35" points="37.4,248.4 37.5,252.4 38.4,251.6 38.4,247.6 						"/>
					</g>
					<g>
						<polygon class="st13" points="22.1,249.4 22.1,253.5 23.6,254 23.6,250 						"/>
					</g>
					<g>
						<polygon class="st40" points="38.8,250 38.8,254 40.3,253.5 40.3,249.4 						"/>
					</g>
					<g>
						<polygon class="st6" points="40.8,251.6 40.8,255.6 40.8,254.9 40.8,250.9 						"/>
					</g>
					<g>
						<polygon class="st27" points="21.6,251.6 21.6,255.6 23.3,255.8 23.3,251.8 						"/>
					</g>
					<g>
						<polygon class="st41" points="39,251.8 39.1,255.8 40.8,255.6 40.8,251.6 						"/>
					</g>
					<g>
						<polygon class="st12" points="23.3,251.8 23.3,255.8 23.6,256.5 23.6,252.5 						"/>
					</g>
					<g>
						<polygon class="st6" points="38.8,252.5 38.8,256.5 39.1,255.8 39,251.8 						"/>
					</g>
					<g>
						<polygon class="st17" points="22.1,253 22.1,257.1 22.6,257.7 22.5,253.7 						"/>
					</g>
					<g>
						<polygon class="st41" points="22.5,253.7 22.6,257.7 24.3,257.5 24.3,253.5 						"/>
					</g>
					<g>
						<polygon class="st27" points="38.1,253.5 38.1,257.5 39.8,257.7 39.8,253.7 						"/>
					</g>
					<g>
						<polygon class="st6" points="39.8,253.7 39.8,257.7 40.3,257.1 40.3,253 						"/>
					</g>
					<g>
						<polygon class="st7" points="24.3,253.5 24.3,257.5 24.9,258.1 24.9,254.1 						"/>
					</g>
					<g>
						<polygon class="st35" points="37.4,254.1 37.4,258.1 38.1,257.5 38.1,253.5 						"/>
					</g>
					<g>
						<polygon class="st13" points="26.3,254.8 26.3,258.9 27.3,259.3 27.3,255.2 						"/>
					</g>
					<g>
						<polygon class="st40" points="35.1,255.2 35.1,259.3 36.1,258.9 36,254.8 						"/>
					</g>
					<g>
						<polygon class="st40" points="24.8,255.4 24.8,259.5 26.3,258.9 26.3,254.8 						"/>
					</g>
					<g>
						<polygon class="st13" points="23.9,254.9 24,258.9 24.8,259.5 24.8,255.4 						"/>
					</g>
					<g>
						<polygon class="st28" points="37.5,255.4 37.5,259.5 38.4,258.9 38.4,254.9 						"/>
					</g>
					<g>
						<polygon class="st13" points="36,254.8 36.1,258.9 37.5,259.5 37.5,255.4 						"/>
					</g>
					<g>
						<polygon class="st27" points="29,255.6 29.1,259.7 30.2,259.8 30.2,255.8 						"/>
					</g>
					<g>
						<polygon class="st41" points="32.1,255.8 32.1,259.8 33.3,259.7 33.3,255.6 						"/>
					</g>
					<g>
						<polygon class="st7" points="26.9,256.2 26.9,260.3 28.1,260.5 28.1,256.5 						"/>
					</g>
					<g>
						<polygon class="st35" points="28.1,256.5 28.1,260.5 29.1,259.7 29,255.6 						"/>
					</g>
					<g>
						<polygon class="st9" points="33.3,255.6 33.3,259.7 34.3,260.5 34.3,256.5 						"/>
					</g>
					<g>
						<polygon class="st32" points="34.3,256.5 34.3,260.5 35.4,260.3 35.4,256.2 						"/>
					</g>
					<g>
						<polygon class="st12" points="30.2,255.8 30.2,259.8 30.5,260.8 30.5,256.8 						"/>
					</g>
					<g>
						<polygon class="st6" points="31.8,256.8 31.8,260.8 32.1,259.8 32.1,255.8 						"/>
					</g>
					<g>
						<polygon class="st42" points="30.5,256.8 30.5,260.8 31.8,260.8 31.8,256.8 						"/>
					</g>
					<g>
						<polygon class="st3" points="24,247.6 25,248.4 24.3,249 22.6,248.8 22.1,249.4 23.6,250 23.3,250.7 21.6,250.9 21.6,251.6 
							23.3,251.8 23.6,252.5 22.1,253 22.5,253.7 24.3,253.5 24.9,254.1 23.9,254.9 24.8,255.4 26.3,254.8 27.3,255.2 26.9,256.2 
							28.1,256.5 29,255.6 30.2,255.8 30.5,256.8 31.8,256.8 32.1,255.8 33.3,255.6 34.3,256.5 35.4,256.2 35.1,255.2 36,254.8 
							37.5,255.4 38.4,254.9 37.4,254.1 38.1,253.5 39.8,253.7 40.3,253 38.8,252.5 39,251.8 40.8,251.6 40.8,250.9 39.1,250.7 
							38.8,250 40.3,249.4 39.8,248.8 38.1,249 37.4,248.4 38.4,247.6 37.6,247 36.1,247.6 35.1,247.2 35.5,246.2 34.3,246 
							33.3,246.8 32.2,246.7 31.8,245.7 30.6,245.7 30.3,246.7 29.1,246.8 28.1,246 27,246.2 27.3,247.2 26.3,247.6 24.9,247 						
							"/>
					</g>
				</g>
				<path class="st5" d="M33.8,249.8c1.4,0.8,1.4,2.2,0,3c-1.4,0.8-3.8,0.8-5.2,0c-1.4-0.8-1.4-2.2,0-3C30,249,32.3,249,33.8,249.8z
					"/>
			</g>
			<g>
				<polygon class="st43" points="92.6,274.6 92.6,269.2 90.9,268.2 90.1,269.6 87.5,268.2 86.8,265.8 83.4,263.8 82.6,265.3 
					80.1,263.9 79.3,261.5 77.5,260.5 69.3,270.7 84.3,278.9 				"/>
				<polygon class="st44" points="84.3,279.4 84.3,273.9 82.6,272.9 81.8,274.4 79.3,273 78.5,270.6 75.1,268.6 74.3,270.1 
					71.8,268.6 71,266.3 69.3,265.2 69.3,270.7 				"/>
				<polygon class="st38" points="86.8,265.8 87.5,268.2 79.3,273 78.5,270.6 				"/>
				<polygon class="st38" points="79.3,261.5 80.1,263.9 71.8,268.6 71,266.3 				"/>
				<polygon class="st38" points="92.6,269.2 92.6,274.6 84.3,279.4 84.3,273.9 				"/>
				<polygon class="st43" points="92.6,269.2 90.9,268.2 82.6,272.9 84.3,273.9 				"/>
				<polygon class="st43" points="79.3,261.5 77.5,260.5 69.3,265.2 71,266.3 				"/>
				<polygon class="st43" points="86.8,265.8 83.4,263.8 75.1,268.6 78.5,270.6 				"/>
				<path class="st5" d="M81.9,266.5c0.5,0.3,0.5,0.8,0,1.1c-0.5,0.3-1.4,0.3-2,0c-0.5-0.3-0.5-0.8,0-1.1
					C80.5,266.2,81.4,266.2,81.9,266.5z"/>
				<path class="st5" d="M84.1,265.4c0.3,0.2,0.3,0.4,0,0.6c-0.3,0.2-0.8,0.2-1.1,0c-0.3-0.2-0.3-0.4,0-0.6
					C83.3,265.2,83.8,265.2,84.1,265.4z"/>
				<path class="st5" d="M78.7,268.3c0.3,0.2,0.3,0.4,0,0.6s-0.8,0.2-1.1,0s-0.3-0.4,0-0.6C77.9,268.2,78.4,268.2,78.7,268.3z"/>
			</g>
			<g>
				<g>
					<path class="st3" d="M115.5,273.1h-13.4v2.5c0,1,0.7,2,2,2.7c2.6,1.5,6.8,1.5,9.4,0c1.3-0.8,2-1.7,2-2.7L115.5,273.1z"/>
					<path class="st43" d="M104.1,270.3c-2.6,1.5-2.6,3.9,0,5.5c2.6,1.5,6.8,1.5,9.4,0c2.6-1.5,2.6-3.9,0-5.5
						C110.9,268.8,106.7,268.8,104.1,270.3z"/>
				</g>
				<g>
					<path class="st5" d="M105.5,275c0.3,0.2,0.3,0.5,0,0.7c-0.3,0.2-0.8,0.2-1.1,0c-0.3-0.2-0.3-0.5,0-0.7
						C104.7,274.8,105.2,274.8,105.5,275z"/>
					<path class="st5" d="M113.2,270.5c0.3,0.2,0.3,0.5,0,0.7c-0.3,0.2-0.8,0.2-1.1,0c-0.3-0.2-0.3-0.5,0-0.7
						C112.4,270.3,112.9,270.3,113.2,270.5z"/>
					<path class="st5" d="M112.1,275c0.3-0.2,0.8-0.2,1.1,0c0.3,0.2,0.3,0.5,0,0.7c-0.3,0.2-0.8,0.2-1.1,0
						C111.8,275.4,111.8,275.2,112.1,275z"/>
					<path class="st5" d="M104.4,270.5c0.3-0.2,0.8-0.2,1.1,0s0.3,0.5,0,0.7c-0.3,0.2-0.8,0.2-1.1,0
						C104.1,271,104.1,270.7,104.4,270.5z"/>
					<ellipse class="st5" cx="108.8" cy="276.2" rx="0.8" ry="0.5"/>
					<ellipse class="st5" cx="108.8" cy="269.9" rx="0.8" ry="0.5"/>
					<ellipse class="st5" cx="114.3" cy="273.1" rx="0.8" ry="0.5"/>
					<ellipse class="st5" cx="103.4" cy="273.1" rx="0.8" ry="0.5"/>
				</g>
				<g>
					<rect x="104.9" y="269.2" class="st3" width="7.7" height="3.9"/>
					<path class="st3" d="M106.1,271.5c-1.5,0.9-1.5,2.3,0,3.2c1.5,0.9,4,0.9,5.5,0c1.5-0.9,1.5-2.3,0-3.2
						C110,270.6,107.6,270.6,106.1,271.5z"/>
					<path class="st43" d="M106.1,267.6c-1.5,0.9-1.5,2.3,0,3.2c1.5,0.9,4,0.9,5.5,0c1.5-0.9,1.5-2.3,0-3.2
						C110,266.7,107.6,266.7,106.1,267.6z"/>
				</g>
				<path class="st5" d="M107.4,268.4c-0.8,0.5-0.8,1.2,0,1.7c0.8,0.5,2.1,0.5,2.9,0c0.8-0.5,0.8-1.2,0-1.7
					C109.4,267.9,108.2,267.9,107.4,268.4z"/>
			</g>
			<g>
				<g>
					<rect x="120.8" y="244.5" transform="matrix(0.5 0.866 -0.866 0.5 277.963 16.5442)" class="st5" width="7.6" height="9.1"/>
					<path class="st5" d="M128.6,249.8c1.5,0.9,2.7,0.2,2.7-1.6c0-1.7-1.2-3.8-2.7-4.7c-1.5-0.9-2.7-0.2-2.7,1.6
						C125.9,246.9,127.1,249,128.6,249.8z"/>
					<path class="st45" d="M120.7,254.4c1.5,0.9,2.7,0.2,2.7-1.6c0-1.7-1.2-3.8-2.7-4.7c-1.5-0.9-2.7-0.2-2.7,1.6
						C118,251.4,119.2,253.5,120.7,254.4z"/>
				</g>
				<g>
					
						<rect x="113.8" y="249.8" transform="matrix(0.5 0.866 -0.866 0.5 277.9625 23.2338)" class="st46" width="10.1" height="5.1"/>
					<path class="st46" d="M121.1,255.2c2,1.1,3.6,0.2,3.6-2.1c0-2.3-1.6-5.1-3.6-6.2c-2-1.1-3.6-0.2-3.6,2.1
						C117.5,251.3,119.1,254.1,121.1,255.2z"/>
					<path class="st43" d="M116.6,257.8c2,1.1,3.6,0.2,3.6-2.1c0-2.3-1.6-5.1-3.6-6.2c-2-1.1-3.6-0.2-3.6,2.1
						C113.1,253.8,114.7,256.6,116.6,257.8z"/>
				</g>
				<g>
					<rect x="108.4" y="251.6" transform="matrix(0.5 0.866 -0.866 0.5 277.9632 30.8695)" class="st5" width="7.6" height="9.1"/>
					<path class="st5" d="M116.2,257c1.5,0.9,2.7,0.2,2.7-1.6c0-1.7-1.2-3.8-2.7-4.7c-1.5-0.9-2.7-0.2-2.7,1.6
						C113.5,254.1,114.7,256.1,116.2,257z"/>
					<path class="st43" d="M108.3,261.5c1.5,0.9,2.7,0.2,2.7-1.6c0-1.7-1.2-3.8-2.7-4.7c-1.5-0.9-2.7-0.2-2.7,1.6
						C105.6,258.6,106.8,260.7,108.3,261.5z"/>
				</g>
				<path class="st5" d="M108.3,260.4c0.9,0.5,1.7,0.1,1.7-1c0-1.1-0.8-2.4-1.7-3c-0.9-0.5-1.7-0.1-1.7,1
					C106.6,258.5,107.4,259.9,108.3,260.4z"/>
			</g>
			<g>
				<g>
					<polygon class="st38" points="2.4,219.8 2.4,223.4 31.2,223.4 31.2,219.8 21.5,219.8 16.8,222.6 12,219.8 					"/>
					<polygon class="st38" points="2.4,231.9 2.4,235.4 12,235.4 16.8,232.7 21.6,235.4 31.2,235.4 31.2,231.9 					"/>
					<path class="st38" d="M2.4,235.4c0,0.6,0.4,1.2,1.2,1.6c1.6,0.9,4.1,0.9,5.6,0l2.8-1.6l4.8-2.8l4.8,2.8l2.8,1.6
						c1.5,0.9,4,0.9,5.6,0c0.8-0.5,1.2-1.1,1.2-1.6c0-0.6-0.4-1.2-1.2-1.6l-3.3-1.9l-4.3-2.5L30,225c1.5-0.9,1.5-2.3,0-3.2
						c-1.6-0.9-4.1-0.9-5.6,0l-7.6,4.4l-7.6-4.4c-1.5-0.9-4-0.9-5.6,0C2,222.7,2,224.1,3.5,225l7.6,4.4l-4.3,2.5l-3.3,1.9
						C2.7,234.3,2.4,234.8,2.4,235.4z"/>
					<path class="st39" d="M3.5,233.5c1.6,0.9,4.1,0.9,5.6,0l7.6-4.4l7.6,4.4c1.5,0.9,4,0.9,5.6,0c1.6-0.9,1.6-2.4,0.1-3.3l-7.6-4.4
						l4.3-2.5l3.3-1.9c0.8-0.4,1.2-1,1.2-1.6c0-0.6-0.4-1.2-1.2-1.6c-1.6-0.9-4.1-0.9-5.6,0l-2.9,1.6l-4.8,2.8l-4.8-2.8l-2.9-1.6
						c-1.5-0.9-4-0.9-5.6,0c-0.8,0.5-1.2,1.1-1.2,1.6c0,0.6,0.4,1.2,1.2,1.6l3.3,1.9l4.3,2.5l-7.6,4.4C2,231.1,2,232.6,3.5,233.5z"
						/>
				</g>
				<path class="st5" d="M15.4,225c-0.8,0.4-0.8,1.2,0,1.6c0.8,0.4,2,0.4,2.8,0c0.8-0.4,0.8-1.2,0-1.6
					C17.4,224.6,16.1,224.6,15.4,225z"/>
				<g>
					<path class="st5" d="M25.9,230.8c-0.8,0.4-0.8,1.2,0,1.6c0.8,0.4,2,0.4,2.8,0c0.8-0.4,0.8-1.2,0-1.6
						C28,230.4,26.7,230.4,25.9,230.8z"/>
					<path class="st5" d="M5,219c-0.8,0.4-0.8,1.2,0,1.6c0.8,0.4,2,0.4,2.8,0c0.8-0.4,0.8-1.2,0-1.6C7.1,218.6,5.8,218.6,5,219z"/>
				</g>
				<g>
					<path class="st5" d="M7.9,230.8c0.8,0.4,0.8,1.2,0,1.6c-0.8,0.4-2,0.4-2.8,0c-0.8-0.4-0.8-1.2,0-1.6
						C5.8,230.4,7.1,230.4,7.9,230.8z"/>
					<path class="st5" d="M28.8,219c0.8,0.4,0.8,1.2,0,1.6c-0.8,0.4-2,0.4-2.8,0c-0.8-0.4-0.8-1.2,0-1.6
						C26.7,218.6,28,218.6,28.8,219z"/>
				</g>
			</g>
			<g>
				<g>
					<g class="st22">
						<g>
							<polygon class="st47" points="35.5,109.4 38.7,107.6 38.6,121.9 35.5,123.7 							"/>
						</g>
						<g>
							<polygon class="st48" points="38.7,100.9 41.8,99 41.8,106.5 38.7,108.3 							"/>
						</g>
						<g>
							<polygon class="st49" points="30.7,103.6 33.9,101.8 41.8,99 38.7,100.9 							"/>
						</g>
						<g>
							<polygon class="st5" points="38.7,100.9 38.7,108.3 35.5,109.4 35.5,123.7 33.1,122.3 30.7,111.1 30.7,103.6 							"/>
						</g>
					</g>
					<g>
						<g class="st22">
							<g>
								<polygon class="st50" points="29.5,105.3 38.1,100.4 38.1,92.1 29.5,97 								"/>
							</g>
						</g>
					</g>
					<path class="st44" d="M37.2,110.6c-2.7-2.3-4.9-6-5.5-9.5L29.3,97l7.7-4.4c1.3-0.8,3.1-0.6,5.1,0.5c4,2.3,7.2,7.9,7.2,12.5
						c0,2.3-0.8,3.9-2.1,4.7l-7.7,4.4L37.2,110.6z"/>
					<polygon class="st5" points="31.2,97.3 38.8,101.7 38.8,80 31.2,75.6 					"/>
					<polygon class="st47" points="38.8,101.7 46.3,97.3 46.3,75.6 38.8,80 					"/>
					<g>
						<g>
							<g class="st22">
								<g>
									<polygon class="st47" points="153.8,114.8 157.1,112.9 159.7,118.2 156.4,120.1 									"/>
								</g>
								<g>
									<polygon class="st51" points="147.1,111 150.4,109.1 157.1,112.9 153.8,114.8 									"/>
								</g>
								<g>
									<polygon class="st47" points="169.2,127.5 172.5,125.6 172.5,128.4 169.2,130.3 									"/>
								</g>
								<g>
									<polygon class="st47" points="156.4,120.1 159.7,118.2 172.5,125.6 169.2,127.5 									"/>
								</g>
								<g>
									<polygon class="st5" points="153.8,114.8 156.4,120.1 169.2,127.5 169.2,130.3 160.4,128.1 153.7,124.2 147.1,111 
																			"/>
								</g>
							</g>
						</g>
						<g>
							<g>
								<path class="st5" d="M122.7,51.5c0.5,2.7,2.1,5.6,4.2,7.3l1.8,3.1l2.5-1.4c1-0.6,1.6-1.8,1.6-3.6c0-3.5-2.5-7.8-5.5-9.6
									c-1.5-0.9-2.9-1-3.9-0.4l-2.5,1.4L122.7,51.5z"/>
								<path class="st39" d="M124.8,61.6c3.1,1.8,5.5,0.3,5.5-3.2c0-3.5-2.5-7.8-5.5-9.6c-3.1-1.8-5.5-0.3-5.5,3.2
									C119.2,55.5,121.7,59.8,124.8,61.6z"/>
							</g>
							<g>
								<path class="st5" d="M124,87.2c0.5,2.7,2.1,5.6,4.2,7.3l1.8,3.1l2.5-1.4c1-0.6,1.6-1.8,1.6-3.6c0-3.5-2.5-7.8-5.5-9.6
									c-1.5-0.9-2.9-1-3.9-0.4l-2.5,1.4L124,87.2z"/>
								<path class="st39" d="M126.1,97.2c3.1,1.8,5.5,0.3,5.5-3.2c0-3.5-2.5-7.8-5.5-9.6c-3.1-1.8-5.5-0.3-5.5,3.2
									C120.6,91.2,123,95.5,126.1,97.2z"/>
							</g>
							<g>
								<path class="st5" d="M153.2,104.4c0.5,2.7,2.1,5.6,4.2,7.3l1.8,3.1l2.5-1.4c1-0.6,1.6-1.8,1.6-3.6c0-3.5-2.5-7.8-5.5-9.6
									c-1.5-0.9-2.9-1-3.9-0.4l-2.5,1.4L153.2,104.4z"/>
								<path class="st39" d="M155.4,114.4c3.1,1.8,5.5,0.3,5.5-3.2c0-3.5-2.5-7.8-5.5-9.6c-3.1-1.8-5.5-0.3-5.5,3.2
									C149.8,108.4,152.3,112.6,155.4,114.4z"/>
							</g>
							<path class="st38" d="M115.1,90.8c0.6,3.5,2.8,7.3,5.5,9.5l2.4,4.1l7.7-4.4c1.3-0.8,2.1-2.4,2.1-4.7c0-4.6-3.2-10.2-7.2-12.5
								c-2-1.2-3.8-1.3-5.1-0.5l-7.7,4.4L115.1,90.8z"/>
							<polygon class="st47" points="129.1,86.1 121.6,90.5 121.6,68.8 129.1,64.4 							"/>
							<polygon class="st5" points="121.6,90.5 114,86.1 114,64.4 121.6,68.8 							"/>
							<g>
								<path class="st38" d="M113.8,55.1c0.6,3.5,2.8,7.3,5.5,9.5l2.4,4.1l7.7-4.4c1.3-0.8,2.1-2.4,2.1-4.7
									c0-4.6-3.2-10.2-7.2-12.5c-2-1.2-3.8-1.3-5.1-0.5l-7.7,4.4L113.8,55.1z"/>
								<path class="st39" d="M116.6,68.3c4,2.3,7.2,0.4,7.2-4.2c0-4.6-3.2-10.2-7.2-12.5c-4-2.3-7.2-0.4-7.2,4.2
									C109.3,60.4,112.6,66,116.6,68.3z"/>
							</g>
							<polygon class="st5" points="124,103.1 124,94.3 142.8,105.2 142.8,113.9 							"/>
							<polygon class="st47" points="124,94.3 131.5,90 150.3,100.8 142.8,105.2 							"/>
							<path class="st39" d="M117.9,103.9c4,2.3,7.2,0.4,7.2-4.2c0-4.6-3.2-10.2-7.2-12.5c-4-2.3-7.2-0.4-7.2,4.2
								C110.7,96,113.9,101.6,117.9,103.9z"/>
							<path class="st44" d="M144.4,108c0.6,3.5,2.8,7.3,5.5,9.5l2.4,4.1l7.7-4.4c1.3-0.8,2.1-2.4,2.1-4.7c0-4.6-3.2-10.2-7.2-12.5
								c-2-1.2-3.8-1.3-5.1-0.5l-7.7,4.4L144.4,108z"/>
							<path class="st39" d="M147.2,121.1c4,2.3,7.2,0.4,7.2-4.2c0-4.6-3.2-10.2-7.2-12.5c-4-2.3-7.2-0.4-7.2,4.2
								C139.9,113.2,143.2,118.8,147.2,121.1z"/>
						</g>
						<g>
							<g class="st22">
								<g>
									<polygon class="st38" points="156.4,104.5 159.7,102.6 157,104.8 153.8,106.7 									"/>
								</g>
								<g>
									<polygon class="st4" points="153.7,97.3 157,95.3 163.7,99.2 160.5,101.1 									"/>
								</g>
								<g>
									<polygon class="st47" points="169.2,109.1 172.5,107.2 172.5,110 169.2,111.9 									"/>
								</g>
								<g>
									<polygon class="st47" points="160.5,101.1 163.7,99.2 172.5,107.2 169.2,109.1 									"/>
								</g>
								<g>
									<path class="st5" d="M160.5,101.1l8.8,7.9l0,2.9l-12.8-7.4l-3.6,3c-1.3-2.2-3.4-3.7-5.7-4.7l6.7-5.6L160.5,101.1z"/>
								</g>
							</g>
						</g>
					</g>
					<g>
						<g>
							<path class="st5" d="M119,120.1c0.5,3.1,2.5,6.5,4.9,8.5l2.1,3.7l2.9-1.7c1.2-0.7,1.9-2.1,1.9-4.2c0-4.1-2.9-9.1-6.5-11.2
								c-1.8-1-3.4-1.1-4.6-0.5l-2.9,1.7L119,120.1z"/>
							<path class="st4" d="M121.5,131.8c3.6,2.1,6.5,0.4,6.5-3.7c0-4.1-2.9-9.1-6.5-11.2c-3.6-2.1-6.5-0.4-6.5,3.7
								C115,124.8,117.9,129.8,121.5,131.8z"/>
						</g>
						<g>
							<path class="st5" d="M120.6,161.8c0.5,3.1,2.5,6.5,4.9,8.5l2.1,3.7l2.9-1.7c1.2-0.7,1.9-2.1,1.9-4.2c0-4.1-2.9-9.1-6.5-11.2
								c-1.8-1-3.4-1.1-4.6-0.5l-2.9,1.7L120.6,161.8z"/>
							<path class="st39" d="M123,173.5c3.6,2.1,6.5,0.4,6.5-3.7c0-4.1-2.9-9.1-6.5-11.2c-3.6-2.1-6.5-0.4-6.5,3.7
								C116.6,166.4,119.5,171.4,123,173.5z"/>
						</g>
						<g>
							<path class="st5" d="M120.6,203.9c0.5,3.1,2.5,6.5,4.9,8.5l2.1,3.7l2.9-1.7c1.2-0.7,1.9-2.1,1.9-4.2c0-4.1-2.9-9.1-6.5-11.2
								c-1.8-1-3.4-1.1-4.6-0.5l-2.9,1.7L120.6,203.9z"/>
							<path class="st39" d="M123,215.6c3.6,2.1,6.5,0.4,6.5-3.7c0-4.1-2.9-9.1-6.5-11.2c-3.6-2.1-6.5-0.4-6.5,3.7
								C116.6,208.6,119.5,213.6,123,215.6z"/>
						</g>
						<g>
							<g class="st22">
								<g>
									<polygon class="st50" points="111.6,218.7 121.6,212.9 130,217.7 120,223.5 									"/>
								</g>
								<g>
									<polygon class="st38" points="131.8,237.1 141.8,231.3 141.8,234 131.8,239.8 									"/>
								</g>
								<g>
									<polygon class="st39" points="120,223.5 130,217.7 141.8,231.3 131.8,237.1 									"/>
								</g>
								<g>
									<polygon class="st44" points="120,223.5 131.8,237.1 131.8,239.8 109.3,226.9 111.6,218.7 									"/>
								</g>
							</g>
						</g>
						<path class="st38" d="M110.6,207.9c0.7,4.1,3.2,8.5,6.4,11.1l2.8,4.8l9-5.2c1.5-0.9,2.5-2.8,2.5-5.5c0-5.4-3.8-11.9-8.5-14.6
							c-2.3-1.3-4.4-1.5-6-0.6l-9,5.2L110.6,207.9z"/>
						<polygon class="st47" points="127,202.3 118.2,207.4 118.2,182.1 127,177 						"/>
						<polygon class="st5" points="118.2,207.4 109.3,202.3 109.3,177 118.2,182.1 						"/>
						<path class="st38" d="M110.6,165.7c0.7,4.1,3.2,8.5,6.4,11.1l2.8,4.8l9-5.2c1.5-0.9,2.5-2.8,2.5-5.5c0-5.4-3.8-11.9-8.5-14.6
							c-2.3-1.3-4.4-1.5-6-0.6l-9,5.2L110.6,165.7z"/>
						<polygon class="st47" points="127,160.3 118.2,165.4 118.2,140 127,134.9 						"/>
						<polygon class="st5" points="118.2,165.4 109.3,160.3 109.3,134.9 118.2,140 						"/>
						<g>
							<path class="st38" d="M109.1,124.1c0.7,4.1,3.2,8.5,6.4,11.1l2.8,4.8l9-5.2c1.5-0.9,2.5-2.8,2.5-5.5c0-5.4-3.8-11.9-8.5-14.6
								c-2.3-1.3-4.4-1.5-6-0.6l-9,5.2L109.1,124.1z"/>
							<path class="st44" d="M112.3,139.4c4.7,2.7,8.5,0.5,8.5-4.9c0-5.4-3.8-11.9-8.5-14.6c-4.7-2.7-8.5-0.5-8.5,4.9
								C103.8,130.2,107.6,136.7,112.3,139.4z"/>
						</g>
						<path class="st44" d="M113.9,181.1c4.7,2.7,8.5,0.5,8.5-4.9c0-5.4-3.8-11.9-8.5-14.6c-4.7-2.7-8.5-0.5-8.5,4.9
							C105.4,171.8,109.2,178.4,113.9,181.1z"/>
						<path class="st44" d="M113.9,223.2c4.7,2.7,8.5,0.5,8.5-4.9c0-5.4-3.8-11.9-8.5-14.6c-4.7-2.7-8.5-0.5-8.5,4.9
							C105.4,214,109.2,220.5,113.9,223.2z"/>
					</g>
					<g>
						<polygon class="st5" points="96.3,159.2 74.9,146.7 74.8,128.7 96.3,141.1 						"/>
						<g>
							<g>
								<g class="st22">
									<g>
										<polygon class="st50" points="75.1,238.9 85.1,233.1 93.5,237.9 83.5,243.7 										"/>
									</g>
									<g>
										<polygon class="st38" points="95.3,257.3 105.3,251.5 105.3,254.2 95.3,260 										"/>
									</g>
									<g>
										<polygon class="st39" points="83.5,243.7 93.5,237.9 105.3,251.5 95.3,257.3 										"/>
									</g>
									<g>
										<polygon class="st44" points="83.5,243.7 95.3,257.3 95.3,260 72.8,247 75.1,238.9 										"/>
									</g>
								</g>
							</g>
							<path class="st38" d="M74.2,228.1c0.7,4.1,3.2,8.5,6.4,11.1l2.8,4.8l9-5.2c1.5-0.9,2.5-2.8,2.5-5.5c0-5.4-3.8-11.9-8.5-14.6
								c-2.3-1.3-4.4-1.5-6-0.6l-9,5.2L74.2,228.1z"/>
							<polygon class="st47" points="90.5,222.5 81.7,227.6 81.7,202.3 90.5,197.2 							"/>
							<polygon class="st5" points="81.7,227.6 72.8,222.5 72.8,197.2 81.7,202.3 							"/>
							<path class="st38" d="M74.2,185.9c0.7,4.1,3.2,8.5,6.4,11.1l2.8,4.8l9-5.2c1.5-0.9,2.5-2.8,2.5-5.5c0-5.4-3.8-11.9-8.5-14.6
								c-2.3-1.3-4.4-1.5-6-0.6l-9,5.2L74.2,185.9z"/>
							<polygon class="st47" points="90.5,180.4 81.7,185.5 81.7,160.2 90.5,155.1 							"/>
							<polygon class="st5" points="81.7,185.5 72.8,180.4 72.8,155.1 81.7,160.2 							"/>
							<g>
								<g>
									<path class="st38" d="M72.6,144.3c0.7,4.1,3.2,8.5,6.4,11.1l2.8,4.8l9-5.2c1.5-0.9,2.5-2.8,2.5-5.5
										c0-5.4-3.8-11.9-8.5-14.6c-2.3-1.3-4.4-1.5-6-0.6l-9,5.2L72.6,144.3z"/>
									<path class="st4" d="M75.8,159.6c4.7,2.7,8.5,0.5,8.5-4.9c0-5.4-3.8-11.9-8.5-14.6c-4.7-2.7-8.5-0.5-8.5,4.9
										C67.4,150.4,71.2,156.9,75.8,159.6z"/>
								</g>
								<g>
									<path class="st5" d="M69.8,147.6c0.5,3.1,2.5,6.5,4.9,8.5l2.1,3.7l2.9-1.7c1.2-0.7,1.9-2.1,1.9-4.2c0-4.1-2.9-9.1-6.5-11.2
										c-1.8-1-3.4-1.1-4.6-0.5l-2.9,1.7L69.8,147.6z"/>
									<path class="st39" d="M72.3,159.4c3.6,2.1,6.5,0.4,6.5-3.7c0-4.1-2.9-9.1-6.5-11.2c-3.6-2.1-6.5-0.4-6.5,3.7
										C65.8,152.3,68.7,157.3,72.3,159.4z"/>
								</g>
							</g>
							<path class="st4" d="M77.4,201.3c4.7,2.7,8.5,0.5,8.5-4.9c0-5.4-3.8-11.9-8.5-14.6c-4.7-2.7-8.5-0.5-8.5,4.9
								C68.9,192,72.7,198.6,77.4,201.3z"/>
							<g>
								<path class="st5" d="M71.4,189.3c0.5,3.1,2.5,6.5,4.9,8.5l2.1,3.7l2.9-1.7c1.2-0.7,1.9-2.1,1.9-4.2c0-4.1-2.9-9.1-6.5-11.2
									c-1.8-1-3.4-1.1-4.6-0.5l-2.9,1.7L71.4,189.3z"/>
								<path class="st39" d="M73.8,201c3.6,2.1,6.5,0.4,6.5-3.7c0-4.1-2.9-9.1-6.5-11.2c-3.6-2.1-6.5-0.4-6.5,3.7
									C67.4,194,70.3,199,73.8,201z"/>
							</g>
							<path class="st4" d="M77.4,243.4c4.7,2.7,8.5,0.5,8.5-4.9c0-5.4-3.8-11.9-8.5-14.6c-4.7-2.7-8.5-0.5-8.5,4.9
								C68.9,234.2,72.7,240.7,77.4,243.4z"/>
							<g>
								<path class="st5" d="M71.4,231.4c0.5,3.1,2.5,6.5,4.9,8.5l2.1,3.7l2.9-1.7c1.2-0.7,1.9-2.1,1.9-4.2c0-4.1-2.9-9.1-6.5-11.2
									c-1.8-1-3.4-1.1-4.6-0.5l-2.9,1.7L71.4,231.4z"/>
								<path class="st39" d="M73.8,243.2c3.6,2.1,6.5,0.4,6.5-3.7c0-4.1-2.9-9.1-6.5-11.2c-3.6-2.1-6.5-0.4-6.5,3.7
									C67.4,236.1,70.3,241.1,73.8,243.2z"/>
							</g>
						</g>
					</g>
					<g>
						<polygon class="st44" points="119.3,58.8 97.9,46.3 110.5,44.2 131.9,56.7 						"/>
					</g>
					<g>
						<polygon class="st39" points="96.1,72.2 74.6,59.8 97.9,46.3 119.3,58.8 						"/>
					</g>
					<g>
						<polygon class="st44" points="83.5,84.7 62,72.2 74.6,59.8 96.1,72.2 						"/>
					</g>
					<g>
						<polygon class="st44" points="83.6,141.8 62.2,129.3 62,72.2 83.5,84.7 						"/>
					</g>
					<g>
						<polygon class="st38" points="119.3,58.8 131.9,56.7 132.1,113.8 119.5,127.7 119.6,145.8 96.3,159.2 96.3,141.1 83.6,141.8 
							83.5,84.7 96.1,72.2 						"/>
					</g>
					<g class="st22">
						<g>
							<polygon class="st47" points="51.2,123 54.4,121.2 52,129.6 48.8,131.4 							"/>
						</g>
						<g>
							<polygon class="st47" points="51.2,115.5 54.4,113.7 54.4,121.2 51.2,123 							"/>
						</g>
						<g>
							<polygon class="st4" points="43.3,103.5 46.5,101.7 54.4,113.7 51.2,115.5 							"/>
						</g>
						<g>
							<polygon class="st5" points="43.3,103.5 51.2,115.5 51.2,123 48.8,131.4 46.4,130 46.4,115.7 43.3,111 							"/>
						</g>
					</g>
					<path class="st38" d="M37.4,75.6c-2.7-2.3-4.9-6-5.5-9.5l-2.4-4.1l7.7-4.4c1.3-0.8,3.1-0.6,5.1,0.5c4,2.3,7.2,7.9,7.2,12.5
						c0,2.3-0.8,3.9-2.1,4.7l-7.7,4.4L37.4,75.6z"/>
					<polygon class="st47" points="48.5,65.8 40.9,70.2 59.7,81 67.2,76.6 					"/>
					<polygon class="st5" points="40.9,70.2 40.9,78.9 59.7,89.7 59.7,81 					"/>
					<g>
						<g>
							<path class="st38" d="M67.6,94.6c-2.7-2.3-4.9-6-5.5-9.5l-2.4-4.1l7.7-4.4c1.3-0.8,3.1-0.6,5.1,0.5c4,2.3,7.2,7.9,7.2,12.5
								c0,2.3-0.8,3.9-2.1,4.7L70,98.7L67.6,94.6z"/>
							<path class="st4" d="M57.6,85.6c0-4.6,3.2-6.5,7.2-4.2c4,2.3,7.2,7.9,7.2,12.5c0,4.6-3.2,6.5-7.2,4.2
								C60.9,95.8,57.6,90.2,57.6,85.6z"/>
						</g>
						<g>
							<path class="st5" d="M63.9,95.2c-2.1-1.7-3.8-4.6-4.2-7.3l-1.8-3.1l2.5-1.4c1-0.6,2.4-0.5,3.9,0.4c3.1,1.8,5.5,6.1,5.5,9.6
								c0,1.8-0.6,3-1.6,3.6l-2.5,1.4L63.9,95.2z"/>
							<path class="st39" d="M56.3,88.4c0-3.5,2.5-5,5.5-3.2c3.1,1.8,5.5,6.1,5.5,9.6c0,3.5-2.5,5-5.5,3.2
								C58.8,96.2,56.3,91.9,56.3,88.4z"/>
						</g>
					</g>
					<path class="st4" d="M27.4,66.6c0-4.6,3.2-6.5,7.2-4.2c4,2.3,7.2,7.9,7.2,12.5c0,4.6-3.2,6.5-7.2,4.2
						C30.6,76.8,27.4,71.2,27.4,66.6z"/>
					<g>
						<path class="st5" d="M33.7,76.2c-2.1-1.7-3.8-4.6-4.2-7.3l-1.8-3.1l2.5-1.4c1-0.6,2.4-0.5,3.9,0.4c3.1,1.8,5.5,6.1,5.5,9.6
							c0,1.8-0.6,3-1.6,3.6l-2.5,1.4L33.7,76.2z"/>
						<path class="st39" d="M26.1,69.4c0-3.5,2.5-5,5.5-3.2c3.1,1.8,5.5,6.1,5.5,9.6c0,3.5-2.5,5-5.5,3.2
							C28.5,77.2,26.1,72.9,26.1,69.4z"/>
					</g>
					<g>
						<g>
							<path class="st5" d="M102.5,50.6c-3.1-1.2-7.1-1.2-10.3,0h-4.4v8.2c0,1.4,0.9,2.8,2.8,3.9c3.7,2.1,9.8,2.1,13.5,0
								c1.9-1.1,2.8-2.5,2.8-3.9l0-8.2H102.5z"/>
							<path class="st4" d="M90.7,46.7c-3.7,2.1-3.7,5.6,0,7.8c3.7,2.1,9.8,2.1,13.5,0c3.7-2.1,3.7-5.6,0-7.8
								C100.4,44.5,94.4,44.5,90.7,46.7z"/>
						</g>
						<g>
							<path class="st5" d="M101,37.5c-2.2-0.8-5-0.8-7.3,0h-3.1v12.1c0,1,0.7,2,2,2.7c2.6,1.5,6.9,1.5,9.5,0c1.3-0.8,2-1.8,2-2.7
								l0-12.1H101z"/>
							<path class="st4" d="M92.6,34.8c-2.6,1.5-2.6,4,0,5.5c2.6,1.5,6.9,1.5,9.5,0c2.6-1.5,2.6-4,0-5.5
								C99.5,33.3,95.3,33.3,92.6,34.8z"/>
						</g>
					</g>
					<g>
						<g>
							<polygon class="st44" points="118.4,24.8 118.4,39.7 91.5,55.3 69.4,42.5 69.4,32.3 78.2,27.2 78.2,22.5 96.3,12 							"/>
							<g>
								<polygon class="st38" points="100.3,40 100.3,35.3 118.4,24.8 118.4,39.7 100.3,50.2 91.5,55.3 91.5,45.1 								"/>
								<path class="st52" d="M93.4,49.1c0,1.6,1.1,2.2,2.5,1.4c1.4-0.8,2.5-2.7,2.5-4.3c0-1.6-1.1-2.2-2.5-1.4
									C94.5,45.5,93.4,47.5,93.4,49.1z"/>
							</g>
							<polygon class="st39" points="78.2,27.2 69.4,32.3 91.5,45.1 100.3,40 							"/>
							<polygon class="st39" points="96.3,12 78.2,22.5 100.3,35.3 118.4,24.8 							"/>
							<g>
								<polygon class="st39" points="84,9.3 84,16.1 90.5,12.3 90.5,5.5 96.3,2.2 96.3,12 109.9,19.9 91.7,30.3 78.2,22.5 
									78.2,12.7 								"/>
								<polygon class="st38" points="97.5,17.1 97.5,23.9 104.1,20.1 104.1,13.3 109.9,10 109.9,19.9 91.7,30.3 91.7,20.5 								
									"/>
								<polygon class="st44" points="78.2,12.7 78.2,23.5 91.7,30.3 91.7,20.5 								"/>
								<polygon class="st39" points="78.2,12.7 84,9.3 97.5,17.1 91.7,20.5 								"/>
								<polygon class="st44" points="90.5,5.5 90.5,12.3 104.1,20.1 104.1,13.3 								"/>
								<polygon class="st39" points="90.5,5.5 96.3,2.2 109.9,10 104.1,13.3 								"/>
							</g>
						</g>
						<path class="st46" d="M93.1,24.6c0,1,0.7,1.5,1.6,0.9c0.9-0.5,1.6-1.8,1.6-2.8c0-1-0.7-1.5-1.6-0.9
							C93.9,22.3,93.1,23.6,93.1,24.6z"/>
						<path class="st46" d="M105.5,17.5c0,1,0.7,1.5,1.6,0.9c0.9-0.5,1.6-1.8,1.6-2.8c0-1-0.7-1.5-1.6-0.9
							C106.2,15.1,105.5,16.4,105.5,17.5z"/>
						<path class="st52" d="M90.1,38.8c-1.1,0.6-1.1,1.6,0,2.2c1.1,0.6,2.8,0.6,3.9,0c1.1-0.6,1.1-1.6,0-2.2
							C92.9,38.1,91.2,38.1,90.1,38.8z"/>
						<path class="st5" d="M83,34.7c-1.1,0.6-1.1,1.6,0,2.2c1.1,0.6,2.8,0.6,3.9,0c1.1-0.6,1.1-1.6,0-2.2
							C85.8,34.1,84.1,34.1,83,34.7z"/>
						<path class="st52" d="M75.9,30.7c-1.1,0.6-1.1,1.6,0,2.2c1.1,0.6,2.8,0.6,3.9,0c1.1-0.6,1.1-1.6,0-2.2
							C78.7,30,77,30,75.9,30.7z"/>
						<g>
							<polygon class="st5" points="116.1,29.1 102.7,36.9 102.7,38.3 116.1,30.5 							"/>
							<polygon class="st5" points="116.1,31.3 102.7,39.1 102.7,40.4 116.1,32.7 							"/>
							<polygon class="st5" points="116.1,33.4 102.7,41.2 102.7,42.6 116.1,34.8 							"/>
							<polygon class="st5" points="116.1,35.6 102.7,43.4 102.7,44.8 116.1,37 							"/>
						</g>
					</g>
					<polygon class="st44" points="122.7,72.2 122.7,106.9 96,122.3 96,87.6 117.2,75.4 					"/>
					<g>
						<defs>
							<polygon id="SVGID_2_" points="117.2,75.4 117.2,104 96,116.2 96,87.6 							"/>
						</defs>
						<use xlink:href="#SVGID_2_"  style="overflow:visible;fill:#1A1A1A;"/>
						<clipPath id="SVGID_3_">
							<use xlink:href="#SVGID_2_"  style="overflow:visible;"/>
						</clipPath>
						<g class="st53">
							<polygon class="st54" points="108.2,113.4 106.7,112.5 106.9,112.4 							"/>
							<g>
								<polygon class="st55" points="109.6,100.1 109.7,97.8 112.4,99.4 110.5,100.6 								"/>
								<path class="st55" d="M104.6,106.9c0.4-1.3,1.5-2.4,2.4-2.5c0.9-0.1,1.4,0.9,1,2.2c-0.4,1.3-1.5,2.4-2.4,2.5
									C104.6,109.2,104.2,108.2,104.6,106.9z"/>
								<polygon class="st55" points="101.1,109 101.1,110.4 98.1,108.6 98.1,107.4 99.6,108.2 								"/>
								<path class="st55" d="M100.8,100.3l2.2,1.3l0.1,2.2l-0.9,1.5l-2,1l-3-1.7l2-1l0.9-1.5l0-1
									C100.1,101,100.8,100.3,100.8,100.3z"/>
								<polygon class="st55" points="107.6,97.4 107.8,96.6 109.7,97.7 108.3,97.8 								"/>
								<polygon class="st55" points="107.1,99.3 107.6,97.4 108.3,97.8 107,100.3 106.2,99.9 								"/>
								<polygon class="st55" points="107,100.3 105.8,101 105.1,100.5 106.2,99.9 								"/>
								<polygon class="st55" points="99.6,108.2 98.1,107.4 96.7,106.5 97.3,104.5 100.2,106.3 								"/>
								<path class="st55" d="M99.6,112.7l0.6,1.3l2-1.2l0.8,0.5l-0.1,2.4l-3-1.7c0-0.1-2.7-1.6-2.7-1.6l-0.6-1.3l1.5-2.4l3,1.7
									L99.6,112.7z"/>
								<path class="st56" d="M99.2,90.8c0,0,0.6-2.1,0.6-2.1L99.2,90.8z"/>
								<path class="st47" d="M103.5,90.5c0-0.2,0-0.4,0.1-0.7c0.2-1.2,1-2.5,1.9-3.3c0.2-0.1,0.4-0.3,0.5-0.4
									c1.4-0.8,2.5-0.2,2.5,1.4s-1.1,3.5-2.5,4.3C104.7,92.8,103.5,92.1,103.5,90.5z"/>
								<polygon class="st47" points="104.1,82.3 102.6,83.9 99.6,82.2 101.1,80.6 102,77.2 105,78.9 								"/>
								<polygon class="st47" points="100.1,84 97.2,82.3 99.6,82.2 102.6,83.9 								"/>
								<polygon class="st47" points="107.5,78.8 107.1,77.7 105,78.9 102,77.2 104.1,75.9 107,77.6 109,75.5 110.5,76.3 
									111.9,77.2 109.5,79.9 								"/>
								<polygon class="st47" points="112.3,81.5 112.5,80.8 115.4,82.5 112.9,82.9 								"/>
								<path class="st47" d="M98.7,86.6l1.2,2.1l-0.6,2.1c0,0-2.5,2.5-2.5,2.5l-3-1.7l2.5-2.5l0.6-2.1l-1.2-2.1l1.5-2.6l3,1.7
									L98.7,86.6z"/>
								<polygon class="st47" points="96.7,95.7 97.8,95.5 99.2,95.3 99.8,96.7 98.7,100.2 95.7,98.5 96.6,95.7 93.7,94 93.7,91.6 
									96.7,93.3 								"/>
								<polygon class="st47" points="102.2,98.7 102.6,98.3 104.1,98.1 104.9,100.4 104.4,100 								"/>
								<polygon class="st55" points="102.1,98.9 102.2,98.7 104.4,100 103,101.5 100.8,100.3 								"/>
								<path class="st4" d="M107.6,97.4l0.2-0.8l0.2-0.7l1.5-1.6l2.4-0.1l1.5-2.6l-1.2-2.1l0.6-2.1l2.5-2.5v-2.4l-2.5,0.4l-0.6-1.4
									l0.2-0.7l0.9-2.8l-1.5-0.9l-2.4,2.7l-2-1.2l-0.4-1.1l-2.1,1.2l-0.9,3.4l-1.5,1.6l-2.4,0.1l-1.5,2.6l1.2,2.1l-0.6,2.1
									c0,0-2.5,2.5-2.5,2.5v2.4l1.2-0.2l1.4-0.2l0.6,1.4l-1.2,3.5l1.4,0.8c0.1,0,0.8-0.7,0.8-0.7l1.2-1.4l0.1-0.1l0.4-0.4l1.5-0.2
									l0.8,2.2l0.1,0.1l1.1-0.6l0.9-0.5L107.6,97.4z M106,92c-1.4,0.8-2.5,0.2-2.5-1.4c0-0.2,0-0.4,0.1-0.7c0.2-1.2,1-2.5,1.9-3.3
									c0.2-0.1,0.4-0.3,0.5-0.4c1.4-0.8,2.5-0.2,2.5,1.4S107.4,91.2,106,92z"/>
								<path class="st52" d="M108.2,113.4l1.4-1.5l-0.1-2.2l0.9-1.5l2-1l0.6-2l-1.5-0.7l0-1.4l1.5-2.4l-0.6-1.3l-2,1.2l-0.8-0.5
									l0.1-2.3c0-0.1-1.4,0.1-1.4,0.1l-1.3,2.5l-1.2,0.7l-0.7-0.5l-0.1-0.1l-0.5-0.4l-1.4,1.5l0.1,2.2l-0.9,1.5l-2,1l-0.6,2
									l1.5,0.7l0,1.4l-1.5,2.4l0.6,1.3l2-1.2l0.8,0.5l-0.1,2.4l1.4-0.1l1.3-2.5l1-0.6l0.2-0.1L108.2,113.4z M105.6,109.1
									c-0.9,0.1-1.4-0.9-1-2.2c0.4-1.3,1.5-2.4,2.4-2.5c0.9-0.1,1.4,0.9,1,2.2C107.6,107.9,106.5,109,105.6,109.1z"/>
							</g>
						</g>
					</g>
					<path class="st4" d="M27.2,101.7c0-4.6,3.2-6.5,7.2-4.2c4,2.3,7.2,7.9,7.2,12.5c0,4.6-3.2,6.5-7.2,4.2
						C30.4,111.9,27.2,106.3,27.2,101.7z"/>
					<g>
						<path class="st5" d="M33.5,111.3c-2.1-1.7-3.8-4.6-4.2-7.3l-1.8-3.1l2.5-1.4c1-0.6,2.4-0.5,3.9,0.4c3.1,1.8,5.5,6.1,5.5,9.6
							c0,1.8-0.6,3-1.6,3.6l-2.5,1.4L33.5,111.3z"/>
						<path class="st39" d="M25.8,104.4c0-3.5,2.5-5,5.5-3.2c3.1,1.8,5.5,6.1,5.5,9.6c0,3.5-2.5,5-5.5,3.2
							C28.3,112.2,25.8,108,25.8,104.4z"/>
					</g>
					<g>
						<polygon class="st5" points="80.9,109.1 65.8,100.4 65.8,102.4 80.9,111.1 						"/>
						<polygon class="st5" points="80.9,112.3 65.8,103.6 65.8,105.6 80.9,114.3 						"/>
						<polygon class="st5" points="80.9,115.5 65.8,106.8 65.8,108.8 80.9,117.5 						"/>
						<polygon class="st5" points="80.9,118.7 65.8,110 65.8,112 80.9,120.7 						"/>
					</g>
					<g>
						<polygon class="st5" points="80.9,122.3 65.8,113.6 65.8,115.6 80.9,124.3 						"/>
						<polygon class="st5" points="80.9,125.4 65.8,116.7 65.8,118.8 80.9,127.5 						"/>
						<polygon class="st5" points="80.9,128.6 65.8,119.9 65.8,122 80.9,130.7 						"/>
						<polygon class="st5" points="80.9,131.8 65.8,123.1 65.8,125.2 80.9,133.9 						"/>
					</g>
				</g>
				<g>
					<polygon class="st38" points="107.6,134.9 106.6,135.2 97,122 96,87.6 96.8,87.2 107.6,100.3 					"/>
					<polygon class="st39" points="106.6,135.2 96,122.3 96,87.7 106.6,100.6 					"/>
					<path class="st57" d="M116.3,126.6l-2,4.9l-0.1,0.3l-0.6-0.2c-0.5-0.2-7.5-4.2-7.7-4.4c-1.5-1.6-2.4-3.9-3.3-6.2l-0.3-2.4
						l0.1-0.4l0.9-3.9l2-0.7c1.3,0.1,1.2,0.8,0.6,1.2l-0.8,0.9l3.3,2.4l2.4,0.7l-1.5-2.2c-0.9-0.4-1.2-0.7-1.8-1c0-1,0-1.1,0-1.7
						l4,1.8l3,4.4L116.3,126.6z"/>
					<path class="st57" d="M205,135.5l1.4,0.7l0.4,2.5l-0.6,1.3c0.3,0.2,0.6,0.4,0.9,0.7c0.4,0.4,0.8,0.7,1.3,1.1l0.3-0.4l0.6,0.7
						l-0.1,0.3c0.7,0.5,1.5,1,2.2,1.5l0.2-0.6l-0.1,0.7c1.3,0.8,2.6,1.7,3.7,2.8l0.4-1.5l-0.3-3.8c0.4-4,0.6-7.7,0-9.9l0.1-2.7
						l-6-2.2l0.1,2.8l-6.1,3.6c-1.4,1.7-2.9,3.2-4.5,3.8c-0.5,0.7,0,1.4,1.1,1.4C201.6,138,203.3,137.1,205,135.5z"/>
					<g>
						<path class="st5" d="M195.3,128.9c0.6,0.3,1.4,0.9,2,1.6c0.6,0.7,1.2,1.4,1.6,2.2c0,0.1,0.1,0.1,0.1,0.2
							c0.4,0.6,0.8,1.1,1.3,1.4l2.2,1.3l16.1,9.3c0.4,0.2,0.7,0.3,1,0.2c0.1,0,0.3-0.1,0.4-0.2c0,0,0.1,0,0.1-0.1
							c1.3-1.1,3-0.7,4.7,1c0.2,0.2,0.4,0.4,0.5,0.6c0.2,0.2,0.4,0.4,0.6,0.7c0.1,0.1,0.1,0.1,0.1,0.2c0.1,0.2,0.3,0.4,0.4,0.5
							c0.1,0.2,0.2,0.4,0.1,0.5c0,0,0,0.1,0,0.1l1.2-0.7c0.1-0.2,0.1-0.4,0-0.6c-0.1-0.2-0.3-0.5-0.5-0.6c-2-2.6-4.1-3.5-5.6-2.5
							l-0.7,0.4c-0.3,0.1-0.7,0-1-0.2l-16.1-9.3l-2.2-1.3c-0.5-0.3-0.9-0.8-1.3-1.4c0-0.1-0.1-0.1-0.1-0.2c-0.8-1.6-2.4-3.2-3.6-3.8
							c-0.7-0.4-1.6-0.3-2.4,0.1l-1.3,0.7C193.7,128.6,194.6,128.6,195.3,128.9z"/>
						<path class="st5" d="M223.1,147.9c-0.1,1.2,0.2,2.6,0.8,3.9c0.1,0.1,0.2,0.3,0.3,0.3l2.9,0.7c0.2,0.1,0.5,0.5,0.4,0.8
							c-0.2,0.7-0.7,1.2-1.2,1.5c-0.1,0.1,1.2-0.7,1.2-0.7c0.1,0,0.2-0.1,0.2-0.1c0.5-0.3,0.9-0.8,1.1-1.5c0.1-0.2-0.2-0.7-0.4-0.8
							l-2.9-0.7c-0.1,0-0.2-0.2-0.3-0.3c-0.4-0.9-0.6-2.2-0.8-3l-1.1-0.3C223.2,147.7,223.1,147.8,223.1,147.9z"/>
						<path class="st5" d="M195.9,136.4c0.1,0,0.2-0.1,0.2-0.1c0-0.3,0-0.6,0-0.9l-1.8-0.4c-0.1,0-0.2,0-0.3,0l-1.3,0.7
							c0,0,0.1,0,0.1,0L195.9,136.4z"/>
						<path class="st47" d="M226.4,147.9c-0.1-0.2-0.2-0.4-0.4-0.5c0,0-0.1-0.1-0.1-0.1c-0.2-0.3-0.4-0.5-0.6-0.7
							c-0.2-0.2-0.4-0.4-0.5-0.6c-1.7-1.7-3.4-2.1-4.7-1c0,0,0,0-0.1,0.1c-0.1,0.1-0.2,0.1-0.4,0.2c-0.3,0.1-0.6,0-1-0.2l-16.1-9.3
							l-2.2-1.3c-0.5-0.3-0.9-0.8-1.3-1.4c0-0.1-0.1-0.1-0.1-0.2c-0.4-0.8-0.9-1.5-1.6-2.2c-0.7-0.7-1.4-1.3-2-1.6
							c-0.7-0.4-1.6-0.3-2.4,0.1c-0.2,0.1-0.3,0.2-0.4,0.3c-0.3,0.3-0.6,0.7-0.8,1.2c-0.1,0.2,0.2,0.7,0.4,0.8l2.6,0.7l0.3,0.1
							c0.1,0,0.2,0.2,0.3,0.3c0.3,0.8,0.6,1.5,0.7,2.3c0,0.3,0.1,0.5,0.1,0.8c0,0.3,0,0.6,0,0.9c0,0.1-0.1,0.1-0.2,0.1l-3-0.8
							c0,0-0.1,0-0.1,0c0,0-0.1,0.1-0.1,0.1c0,0.1,0,0.3,0.1,0.5c0,0,0.1,0.1,0.1,0.1c0.1,0.2,0.3,0.4,0.4,0.5
							c2.1,2.8,4.3,3.6,5.9,2.3c0.4-0.3,0.9-0.3,1.5,0l16.1,9.3l2.2,1.3c0.5,0.3,0.9,0.8,1.3,1.4l0.1,0.2c0.8,1.6,2.4,3.2,3.6,3.8
							c0.7,0.4,1.6,0.3,2.4-0.1c0.6-0.3,1-0.8,1.2-1.5c0.1-0.2-0.2-0.7-0.4-0.8l-2.9-0.7c-0.1,0-0.2-0.2-0.3-0.3
							c-0.6-1.3-0.9-2.7-0.8-3.9c0-0.1,0.1-0.2,0.2-0.1l1.1,0.3l0.4,0.1l0.6,0.1l0.9,0.2c0,0,0.1,0,0.1,0c0.1-0.1,0.1-0.1,0.1-0.1
							C226.6,148.3,226.5,148.1,226.4,147.9z"/>
					</g>
					<path class="st57" d="M215.3,131.5l0.1-2.7l-6-2.2l0.1,2.8l-6.1,3.6c-1.4,1.7-2.9,3.2-4.5,3.8c-0.5,0.7,0,1.4,1.1,1.4
						c1.7-0.3,3.5-1.1,5.2-2.6l1.3,0.8c3.1,0.8,6,1.8,9.1,2.6C215.8,135.9,215.8,133.2,215.3,131.5z"/>
					<path class="st57" d="M205.2,138.2l-0.8,1.7l-0.2,2.5c0.2,0.5,0.5,1,0.9,1.2h1c0.2,0.6,0.4,1.1,0.7,1.4
						c0.3,0.2,0.8,0.2,1.4,0.2c0.1,0.6,0.5,0.9,0.9,1.3c0.4,0.2,1,0,1.6-0.3c0.2,0.4,0.6,0.8,1.1,1c0.6,0.1,1.3-0.1,2-0.4l-2-1.2
						l0.1-3.3c-0.2-0.8-0.8-1.2-1.3-1.1l-0.3-1.5c-0.2-1-1.2-1.2-1.8-0.7c0-1.1-1.2-1.5-1.9-0.7
						C206.4,137.9,205.6,137.6,205.2,138.2z"/>
					<path class="st52" d="M191.3,85.4c0,1,0.2,2,0.4,3c2.2,9.4,12.6,19.5,12.6,19.5l4.9,21.1c0.1,0.2,0.2,0.5,0.4,0.7
						c1.3,2,3.3,2.5,6,1.7c2.3-10.6,2.4-20.8-0.6-30.6c-6.2-13.3-12.3-27.4-18.4-30.2C196.7,70.6,191,77.3,191.3,85.4z"/>
					<path class="st52" d="M196.1,81.1c0,1-4.6,6.3-4.4,7.3c2.2,9.4,12.6,19.5,12.6,19.5l4.9,21.1c0.1,0.2,0.2,0.5,0.4,0.7
						c0,0,0-0.6,0-0.6l-1.7-25.4C203.5,98.4,202.6,88.7,196.1,81.1z"/>
					<path class="st58" d="M128.6,258.7c0-3.7,2.9-5.1,7.1-5.6c3.7,0,8.7,1.7,15.2,3.2l7.5,4.1c1.4,3.8,1.4,7.2,0.5,10.4
						c-2.1,1.8-4.8,2.9-7.2,2.3l-8.4-3.6l-0.6-1.2C136.1,267.5,128.6,264.5,128.6,258.7z"/>
					<path class="st58" d="M178.8,240.3c0-3,2.7-3.6,6.8-3.9c7.3,0,7.6,3.7,14.3,3.5l6.6,4c1.4,3.9,1.1,8,0.3,11.1
						c-2,1.7-5.1,2.1-7.4,1.8l-6.8-4l-0.6-1.2C185.7,250.7,178.8,246,178.8,240.3z"/>
					<path class="st55" d="M193,139.1c0.8,12.8,4.5,23,5.5,42.3l2.6,8.5c7.4,15.6,8,32.7,6.3,54.4c-4.1,5-16.3,3.9-17.3-4.1
						l-3.9-37.5l-2.6-7.5l-14.3-33.7L193,139.1z"/>
					<path class="st52" d="M141.2,231.4c0.2,7.2,0.5,14.5,0.9,22.5c-0.7,8.5,12.6,12.3,17.3,6.2c2.7-20.3,4.2-39.8,2-56.8
						c6.6-13.4,12.2-29.8,12.9-40l6.2-3.6l2.9-1.5c7.1-3.6,11-11.4,9.6-19.2l-2.2-12.4l-37.6,12.1l-1.3,8.2c0,0-0.4,2.5-0.4,2.5
						c-3.9,14.7-8,29.4-8.7,43.9l-1.2,7.9C141,211.7,141,221.4,141.2,231.4z"/>
					<path class="st52" d="M202,90.1c-0.6,7.7-4.1,15.2-7.2,24.1c-1.5,4.2-2.8,8.7-3.8,13.7c-0.5,6.6-15.9,15.4-27.9,18.5
						c-4.6,1.2-8.7,1.6-11.3,0.6l-0.2-20.1l0-1.2l0-2.9l-0.2-24.9c0.1-1.4,0.8-2.9,1.9-4.4c0.4-0.5,0.8-1,1.2-1.5
						c0,0,0.1-0.1,0.1-0.1c1.4-1.6,3.2-3.2,5.4-4.9c1-0.7,2-1.5,3.1-2.2c1.9-1.3,3.9-2.6,6.1-3.9c0,0,2.7-1.8,8.2-4.8
						c2.8-1.4,5.2-2.5,7.1-3.4c2.2-1,3.9-1.7,5.5-2.1c2.6-0.7,4.5-0.7,6.7,0C203.8,72.9,203.5,82,202,90.1z"/>
					<path class="st52" d="M141.2,231.4c0.5,0.7,2.4-27.7,2.4-27.7l2.3-13c4.4-16.6,9.8-31.8,17.2-44.3c-4.6,1.2-8.7,1.6-11.3,0.7
						l-0.4,2.4c-3.9,14.7-8,29.4-8.7,43.9l-1.2,7.9C141,211.7,141,221.4,141.2,231.4z"/>
					<path class="st57" d="M166.9,70.5l1.2,11.6c7.5-0.1,19.2-5.2,17.7-9.2l-3.9-7.5L166.9,70.5z"/>
					<path class="st57" d="M163.4,72c3,3.4,7.4,2.9,12,1.7c6.7-3.1,11.5-7.6,10.8-16.3c0.5-6.3-2.3-12.9-13.1-12.5
						c-6.8,0.2-12.7,2.7-13.1,10C160.1,54.9,159.7,68.6,163.4,72z"/>
					<path class="st58" d="M160.1,53.1c0.5,2.5,2.1,4.4,4.4,6.1c0,0-0.5,5.7-0.2,5.8c0.3,0.1,3.3,2.7,3.3,2.7l1.5,4.3
						c5.1,3.7,12.7,0.9,15-2.4c1.4-1.7,2.8-8.7,2.4-15.3c-0.8-5.6-4.8-11-13.4-11.3C164.7,42.4,159.4,47.4,160.1,53.1z"/>
					<path class="st57" d="M165.2,65.7c-0.8-0.9,0.4-3,1.4-3.3c1.3-0.4,2,1.4,2.1,2.4c0.2,1.4,0,2.4-0.8,3.5c-0.9,1.3-2.2,0-2.7-1
						C164.9,66.6,165.7,66.3,165.2,65.7z"/>
					<path class="st52" d="M151.6,122.8l0.3,24.2c2.6,0.9,6.7,0.6,11.3-0.7c0.1-0.2,0.2-0.4,0.3-0.5c-4.2-8.7,4.9-21.7,3.4-35.7
						l-12.6,2.1L151.6,122.8z"/>
					<path class="st52" d="M166.7,112c-4,5.3-8.8,10.1-14.4,14.4c-0.2,0.2-0.4,0.4-0.7,0.5c-2.9,2.2-5.9,4.3-9.2,6.3
						c-8.6,3.9-18.9,2.3-27.5-0.9c-3.5-1.6-0.9-4,0.9-7.4l15.9-3l12.6-13.2l2.2-2.3c1-4.3,3.3-8.6,6.6-12.8c0.4-0.6,0.8-1,1.2-1.5
						c0,0,0.1-0.1,0.1-0.1C161,92.7,175.5,97.4,166.7,112z"/>
				</g>
			</g>
		</g>
	</g>
</g>
</svg>
