<?xml version="1.0" encoding="utf-8"?>
<!-- Generator: Adobe Illustrator 19.0.0, SVG Export Plug-In . SVG Version: 6.00 Build 0)  -->
<svg version="1.0" id="Layer_1" xmlns="http://www.w3.org/2000/svg" xmlns:xlink="http://www.w3.org/1999/xlink" x="0px" y="0px"
	 viewBox="0 0 147.3 112.7" style="enable-background:new 0 0 147.3 112.7;" xml:space="preserve">
<style type="text/css">
	.st0{fill:#110812;}
	.st1{display:none;fill:url(#SVGID_1_);}
	.st2{display:none;fill:url(#SVGID_2_);}
	.st3{fill:#673A71;}
	.st4{display:none;fill:url(#SVGID_3_);}
	.st5{display:none;opacity:0.25;}
	.st6{display:inline;fill:#CF3838;}
	.st7{display:none;fill:url(#SVGID_4_);}
	.st8{fill:#DF3128;}
	.st9{fill:url(#SVGID_5_);}
	.st10{fill:#FEC9C9;}
	.st11{display:none;fill:url(#SVGID_6_);}
	.st12{fill:#FA4F47;}
	.st13{display:none;fill:url(#SVGID_7_);}
	.st14{display:none;fill:url(#SVGID_8_);}
	.st15{display:none;fill:url(#SVGID_9_);}
	.st16{opacity:0.15;}
	.st17{fill:#CF3838;}
	.st18{display:none;fill:url(#SVGID_10_);}
	.st19{fill:#BD221E;}
	.st20{display:none;fill:url(#SVGID_11_);}
	.st21{fill:#784B86;}
	.st22{fill:#421D46;}
	.st23{fill:#FFFEFF;}
	.st24{fill:#26ADDB;}
	.st25{fill:#FDB569;}
	.st26{fill:#F99F27;}
	.st27{fill:#FFB037;}
	.st28{fill:#EF8B1B;}
	.st29{display:none;fill:url(#SVGID_12_);}
	.st30{display:none;fill:#110812;}
	.st31{display:none;fill:url(#SVGID_13_);}
	.st32{display:none;fill:url(#SVGID_14_);}
	.st33{display:none;fill:url(#SVGID_15_);}
	.st34{display:none;opacity:0.15;}
	.st35{display:none;fill:url(#SVGID_16_);}
	.st36{display:none;fill:url(#SVGID_17_);}
	.st37{display:none;fill:url(#SVGID_18_);}
</style>
<g>
	<g>
		<path class="st0" d="M23.6,83.9c-0.1,0-0.1,0.1-0.2,0.1c-0.6,0.2-1.4,0.3-2.5,0.3c-2.8-0.1-6.9-2.9-8.4-4C12.1,80,11.9,79.5,12,79
			c0.1-0.9,0.4-1.7,0.4-1.7h5.2c0,0,6.4,4.8,6.9,5.3C24.7,82.9,24.6,83.5,23.6,83.9z"/>
		<linearGradient id="SVGID_1_" gradientUnits="userSpaceOnUse" x1="11.9888" y1="80.7741" x2="23.638" y2="80.7741">
			<stop  offset="5.376340e-003" style="stop-color:#EBEAF0"/>
			<stop  offset="0.9892" style="stop-color:#E5E4EC"/>
		</linearGradient>
		<path class="st1" d="M23.6,83.9c-0.1,0-0.1,0.1-0.2,0.1c-0.6,0.2-1.4,0.3-2.5,0.3c-2.8-0.1-6.9-2.9-8.4-4C12.1,80,11.9,79.5,12,79
			c0.1-0.9,0.4-1.7,0.4-1.7h1.8l-0.1,2C14.1,79.3,18.4,83.8,23.6,83.9z"/>
		<path class="st0" d="M31.2,78.8c0,0-0.1,0.1-0.2,0.1c-0.8,0.4-4.9-2.3-6.2-3c-1.2-0.7-3.8-1.4-4-1.7c-0.2-0.4,0.6-2.1,0.6-2.1H26
			c0,0,5.2,3.3,5.6,4C32,76.8,31.8,78.3,31.2,78.8z"/>
		<linearGradient id="SVGID_2_" gradientUnits="userSpaceOnUse" x1="20.9136" y1="75.556" x2="31.246" y2="75.556">
			<stop  offset="5.376340e-003" style="stop-color:#EBEAF0"/>
			<stop  offset="0.9892" style="stop-color:#E5E4EC"/>
		</linearGradient>
		<path class="st2" d="M31.2,78.8c0,0-0.1,0.1-0.2,0.1c-0.8,0.4-4.9-2.3-6.2-3c-1.2-0.7-3.8-1.4-4-1.7c-0.2-0.4,0.6-2.1,0.6-2.1h0.9
			l1.7,1.2C24.1,73.3,29.8,77.1,31.2,78.8z"/>
		<path class="st3" d="M26.4,37.3l-2.1,0l-6,0.1c0,0,0,0.1,0,0.2L14,37.2L12.3,37c0,0-1,3.4-0.8,6.6c0.1,2,0.7,6.6,1.2,10.2
			c0.4,3,0.5,6.1,0.2,9.1c-0.4,4.2-0.9,10.4-0.8,14.8c0,0.4,0.3,0.9,0.9,1.2c0.4,0.2,0.8,0.4,1.3,0.4c0.8,0.1,1.7,0,2.5-0.3
			c0.1-0.1,0.2-0.1,0.4-0.2c0.6-0.3,0.9-0.8,0.9-1.2c0,0,1.6-16.8,2.2-19.5c0.2-0.6,0.3-1.8,0.5-3.1c0.3,1.3,0.5,2.2,0.5,2.2
			l-0.1,15c0,0.4,0.3,0.9,0.9,1.2c0.4,0.2,0.8,0.4,1.3,0.4c0.5,0.1,1,0.1,1.5,0c0.5-0.1,0.9-0.2,1.3-0.4c0.6-0.3,0.9-0.8,0.9-1.2
			c0,0,0.7-15.6,0.9-19.6C27.9,48.8,26.4,37.3,26.4,37.3z"/>
		<linearGradient id="SVGID_3_" gradientUnits="userSpaceOnUse" x1="23.5107" y1="59.9636" x2="20.6131" y2="60.0198">
			<stop  offset="5.376340e-003" style="stop-color:#EBEAF0"/>
			<stop  offset="0.9892" style="stop-color:#E5E4EC"/>
		</linearGradient>
		<path class="st4" d="M23.1,74c-0.5-0.1-1-0.2-1.3-0.4c-0.6-0.3-0.9-0.8-0.9-1.2l0.1-15c0,0-0.2-0.9-0.5-2.2
			c-0.4-1.8,0.9-9.1,0.9-9.1l1.5,11.4L23.1,74z"/>
		<g class="st5">
			<path class="st6" d="M16.1,32.1C16.1,32,16.1,32,16.1,32.1C16.1,32,16.1,32,16.1,32.1z"/>
		</g>
		<linearGradient id="SVGID_4_" gradientUnits="userSpaceOnUse" x1="15.6271" y1="58.1074" x2="11.5781" y2="58.186">
			<stop  offset="5.376340e-003" style="stop-color:#EBEAF0"/>
			<stop  offset="0.9892" style="stop-color:#E5E4EC"/>
		</linearGradient>
		<path class="st7" d="M14.1,79.3c-0.5-0.1-0.9-0.2-1.3-0.4c-0.6-0.3-0.9-0.8-0.9-1.2c-0.1-4.4,0.4-10.6,0.8-14.8
			c0.3-3,0.2-6.1-0.2-9.1c-0.5-3.6-1-8.2-1.2-10.2c-0.2-3.2,0.8-6.6,0.8-6.6l1.7,0.2l0.9,0.7c0,0-0.3,9.8,0.6,19.5
			C16.2,64.5,14.8,74.6,14.1,79.3z"/>
		<path class="st8" d="M22.6,20.4l-2.1,0.3c0,0,4.2,8.1,5,9.5c0.2,0.4,0.5,0.7,0.8,0.9c0,3.1,0.1,6.2,0.1,6.2L25,37.8l-1.6,0.6
			c-1.9,0.7-4.8,0.7-7.2,0.4c-2.5-0.3-4.5-0.7-4.5-0.7l-2-21.5c0,0,1.8-2.2,5-3.4c0.4-0.1,0.7-0.3,1.1-0.4c0.1,0,0.3-0.1,0.4-0.1
			c2.8-0.7,5.8-0.5,7.4-0.2c0.7,0.1,1.2,0.2,1.2,0.2c0.3,0.7,0.5,1.3,0.7,1.9c1.8,5.1,1.4,7.8,1.1,9.2l-2.2-3.5l-1.3,0.2L22.6,20.4z
			"/>
		<linearGradient id="SVGID_5_" gradientUnits="userSpaceOnUse" x1="27.0303" y1="25.595" x2="20.5811" y2="25.8605">
			<stop  offset="0" style="stop-color:#FDB569"/>
			<stop  offset="1" style="stop-color:#FF645F"/>
		</linearGradient>
		<path class="st9" d="M26.5,23.7c-0.1,0.2-0.1,0.4-0.1,0.6c-0.1,0.6-0.2,3.8-0.1,6.8c-0.3-0.2-0.6-0.5-0.8-0.9
			c-0.8-1.3-5-9.5-5-9.5l2.1-0.3l0.4-0.1l1.3-0.2L26.5,23.7z"/>
		<path class="st10" d="M21.4,11v4.6L20.9,19c-0.7-0.3-1.4-0.8-2-1.5c-1.3-1.3-2.6-2.9-3.3-3.8c-0.3-0.4-0.5-0.7-0.5-0.7l1.7-2.3
			l1,0.1l3,0.2L21.4,11z"/>
		<linearGradient id="SVGID_6_" gradientUnits="userSpaceOnUse" x1="18.096" y1="25.926" x2="12.1439" y2="25.5672">
			<stop  offset="5.376340e-003" style="stop-color:#EBEAF0"/>
			<stop  offset="0.9892" style="stop-color:#E5E4EC"/>
		</linearGradient>
		<path class="st11" d="M18.1,24.8c-0.7,0.2-1.5,0.4-1.6,0.9c-0.2,0.8-0.3,9.8-0.4,13.2c-2.5-0.3-4.5-0.7-4.5-0.7l-2-21.5
			c0,0,1.8-2.2,5-3.4c0.4-0.1,0.7-0.3,1.1-0.4l0.4,0.4l-0.5,0.5c0,0-3.4,1.7-4.4,2.9c0,0,3.3,3.2,4.2,6C16,24.5,16.9,24.9,18.1,24.8
			z"/>
		<path class="st12" d="M26.8,31.4c-0.5,0.8-5,3-8.4,4.1c-0.9,0.3-1.7,0.5-2.4,0.5c-0.4,0-0.7,0-0.9,0c-2.4-0.4-6.3-10.1-6.6-14
			c-0.3-4,0.4-5.4,1.8-5.6c0,0,0,0,0.1,0c0.1,0,0.2,0,0.3,0.1c0,0,0,0,0.1,0c0,0,0.1,0,0.1,0c0.2,0.1,0.4,0.1,0.6,0.2
			c1.5,0.7,4,2.3,3.7,6.2l1.4,8.3l8.5-3.2c0,0,0.5,0.5,1,1.1c0.3,0.4,0.7,0.9,0.8,1.4C26.9,30.8,26.9,31.1,26.8,31.4z"/>
		<linearGradient id="SVGID_7_" gradientUnits="userSpaceOnUse" x1="11.6639" y1="26.1252" x2="28.3664" y2="26.2935">
			<stop  offset="5.376340e-003" style="stop-color:#EBEAF0"/>
			<stop  offset="0.9892" style="stop-color:#E5E4EC"/>
		</linearGradient>
		<path class="st13" d="M18.4,35.4c-0.9,0.3-1.7,0.5-2.4,0.5c-0.4,0-0.7,0-0.9,0c-2.4-0.4-6.3-10.1-6.6-14c-0.3-4,0.4-5.4,1.8-5.6
			c0,0,0,0,0.1,0c0.1,0,0.2,0,0.3,0.1c0,0,0,0,0.1,0c0,0,0.1,0,0.1,0c0.2,0.1,0.4,0.1,0.6,0.2c0,0,1.7,16.3,3.7,17.9
			C15.8,35.1,17,35.4,18.4,35.4z"/>
		<linearGradient id="SVGID_8_" gradientUnits="userSpaceOnUse" x1="10.9465" y1="31.4812" x2="22.7215" y2="29.1803">
			<stop  offset="5.376340e-003" style="stop-color:#EBEAF0"/>
			<stop  offset="0.9892" style="stop-color:#E5E4EC"/>
		</linearGradient>
		<path class="st14" d="M26,29c-3.4,1.3-9.5,2.1-9.5,2.1l8.5-3.2C25,27.9,25.5,28.4,26,29z"/>
		<path class="st12" d="M28.3,31c-0.2,0.2-0.4,0.3-0.6,0.3c-0.2,0.1-0.4,0.1-0.5,0.1c-0.3,0-0.6-0.1-0.9-0.3
			c-0.3-0.2-0.6-0.5-0.8-0.9c-0.8-1.3-5-9.5-5-9.5l2.1-0.3l0.4-0.1l1.3-0.2l2.2,3.5c0.3-1.4,0.7-4.2-1.1-9.2
			c-0.2-0.6-0.5-1.2-0.7-1.9c0,0,3.3,3,4.1,9.6C29.6,28.9,29.2,30.3,28.3,31z"/>
		<linearGradient id="SVGID_9_" gradientUnits="userSpaceOnUse" x1="26.6697" y1="25.9804" x2="13.6232" y2="25.5821">
			<stop  offset="5.376340e-003" style="stop-color:#EBEAF0"/>
			<stop  offset="0.9892" style="stop-color:#E5E4EC"/>
		</linearGradient>
		<path class="st15" d="M27.7,31.3c-0.2,0.1-0.4,0.1-0.5,0.1c-0.6,0-1.3-0.4-1.8-1.2c-0.8-1.3-5-9.5-5-9.5l2.1-0.3
			C23.4,22.6,26,28.9,27.7,31.3z"/>
		<g class="st16">
			<path class="st17" d="M17.9,10.7l-2.3,3c-0.3-0.4-0.5-0.7-0.5-0.7l1.7-2.3L17.9,10.7z"/>
		</g>
		<g>
			<path class="st10" d="M24.9,10.3c0,0.1-0.1,0.3-0.1,0.4c-0.7,1.9-1.7,4-2.8,4.6c0,0-0.2,0-0.6-0.1c-0.3-0.1-0.6-0.1-0.9-0.2
				c-1-0.3-2.3-0.7-3-1.6c0,0,0,0,0,0c0,0-0.3-0.6-0.3-1.8c0,0-0.8,0.2-0.9-0.1c0-0.1,0.2-1,0.2-1c0,0,0-0.1,0-0.1
				c-0.1-0.5-0.5-3.4,0.2-3.5c0.8-0.1,2,0.1,2.6-0.3C19.2,6.4,19.7,6,19.9,6c0.2-0.1,0.7-0.3,0.8-0.3c1.1,0.1,2.4,1.7,3.2,2
				c0.1,0,0.1,0,0.2,0.1c0.3,0.1,0.6,0,0.8,0c0,0,0.1,0,0.1,0c0.1,0,0.1,0,0.1,0C26.1,7.7,24.9,10.3,24.9,10.3z"/>
			<g class="st16">
				<path class="st17" d="M22,15.3c0,0-0.2,0-0.6-0.1c-0.3-0.1-0.6-0.1-0.9-0.2c-1-0.3-2.3-0.7-3-1.6c0,0,0,0,0,0
					c0,0-0.3-0.6-0.3-1.8c0,0-0.8,0.2-0.9-0.1c0-0.1,0.2-1,0.2-1c0,0,0-0.1,0-0.1c-0.1-0.5-0.5-3.4,0.2-3.5c0.8-0.1,2,0.1,2.6-0.3
					C19.2,6.4,19.7,6,19.9,6c-0.3,2.1-1.2,6.9-0.9,7.7C19.4,14.6,22,15.3,22,15.3z"/>
			</g>
			<path class="st0" d="M26,8.1c-0.2,0.4-0.4,0.8-0.5,1.2c-0.2,0.5-0.3,1.3-0.7,1.3c0-0.1,0.1-0.3,0.1-0.4c0,0,1-2.6,0.1-2.5
				c0,0-0.1,0-0.1,0c-0.2,0.1-0.5,0.1-0.8,0c-1-0.2-1.7-0.5-2.1-0.7c-0.7-0.3-0.9-0.6-1.3-0.7c-0.7-0.2-1.6,1.5-1.8,2.2
				c-0.1,0.7-0.4,1.5-0.5,1.6c0,0-0.1,0-0.2,0c-0.1,0-0.3,0-0.4-0.3c-0.1-0.5,0.7-2.3-0.3-2.3c-0.7,0.1-1.3,0.7-1.3,2.8
				c0,0.1,0,0.1,0,0.1c0,0,0,0.1,0,0.1c0,0.4-0.2,1.3-0.2,1.3l-0.4-0.1c0,0,0.2-1.4-0.4-3c-0.4-1.1-0.6-2.4-0.4-3.6
				c0.1-0.9,0.4-1.8,0.7-2.2c0.3-0.4,1-1,1.7-1.4c0.6-0.3,1.4-0.6,2.4-0.7c0.7,0,1.4,0.1,2.2,0.4c0,0,3.3,0.8,4.3,2.8
				c0.1,0.1,0.1,0.3,0.2,0.4C27.3,6.4,26.4,7.3,26,8.1z"/>
			<linearGradient id="SVGID_10_" gradientUnits="userSpaceOnUse" x1="14.8764" y1="6.3677" x2="26.4972" y2="6.3677">
				<stop  offset="5.376340e-003" style="stop-color:#EBEAF0"/>
				<stop  offset="0.9892" style="stop-color:#E5E4EC"/>
			</linearGradient>
			<path class="st18" d="M26.5,4.5C25,4,21.7,3.2,20.4,4.7c-1.4,1.6-2,4.4-2.1,5.4c-0.1,0-0.3,0-0.4-0.3c-0.1-0.5,0.7-2.3-0.3-2.3
				c-0.7,0.1-1.3,0.7-1.3,2.8c0,0.1,0,0.1,0,0.1c0,0,0,0.1,0,0.1c0,0.4-0.2,1.3-0.2,1.3l-0.4-0.1c0,0,0.2-1.4-0.4-3
				c-0.4-1.1-0.6-2.4-0.4-3.6c0.1-0.9,0.4-1.8,0.7-2.2c0.3-0.4,1-1,1.7-1.4c0.6-0.3,1.4-0.6,2.4-0.7c0.7,0,1.4,0.1,2.2,0.4
				c0,0,3.3,0.8,4.3,2.8C26.4,4.2,26.4,4.4,26.5,4.5z"/>
		</g>
		<path class="st19" d="M20.9,21.1c0.1,0,0.2,0.1,0.3,0.1c0.8,0.3,1.9,0.2,2.6-0.1c0.2-0.1,0.4-0.3,0.5-0.4c0.2-0.3,0.1-0.6-0.3-0.8
			c-0.1,0-0.1-0.1-0.2-0.1c-0.8-0.4-2.1-0.4-2.9,0c-0.4,0.2-0.5,0.4-0.6,0.6C20.3,20.6,20.5,20.9,20.9,21.1z"/>
		<path class="st10" d="M24.2,20.7c-0.1,0.1-0.3,0.3-0.5,0.4c0,0,0,0-0.1,0c-0.1,0.1-0.3,0.1-0.5,0.2c-0.7,0.2-1.4,0.1-2-0.1
			l-0.4-0.6c-0.2-0.4-0.6-0.7-1-0.8c-0.2-0.2-0.4-0.5-0.4-0.9v-0.7c0-0.5,0.2-1,0.5-1.5l0.8-0.9c0,0-0.9-2.4-0.4-2.2
			c0.6,0.3,2,2.6,2,2.7c0,0-0.2-1.3-0.2-1.3l0.3-0.3l0.5-0.6c0.4,1.1,0.9,3.9,0.8,4.6c0,0.3,0,0.7,0.1,1.1
			C24.1,20.2,24.2,20.5,24.2,20.7z"/>
		<g class="st16">
			<path class="st17" d="M22.5,16.4l-0.2-1.3l0.3-0.3C22.7,15.7,22.5,16.4,22.5,16.4z"/>
		</g>
		<g class="st16">
			<path class="st17" d="M23.2,21.3c-0.7,0.2-1.4,0.1-2-0.1l-0.4-0.6c-0.2-0.4-0.6-0.7-1-0.8c-0.2-0.2-0.4-0.5-0.4-0.9v-0.7
				c0-0.5,0.2-1,0.5-1.5l0.8-0.9c0,0-0.9-2.4-0.4-2.2C20.5,13.9,22.2,18.9,23.2,21.3z"/>
		</g>
	</g>
	<path class="st3" d="M113.4,38.9v3.7c0,2.2-0.5,4.4-1.6,6.3l-3.2,6.1c-0.4,0.7-0.5,1.5-0.4,2.4l1.5,12.1c0.1,0.5,0.2,1,0.4,1.5
		c0.2,0.5-0.3,1.1-1.5,1.4c-0.5,0.1-1.1,0.2-1.7,0.1c-0.1,0-0.2,0-0.3-0.1c-1-0.2-1.6-0.7-1.6-1.2l-2.6-12.8c-0.1-0.6-0.1-1.3,0-1.9
		l2.3-12.3l-4.9,7.8c-0.4,0.7-0.6,1.4-0.6,2.2l0.2,11.9c0,0.5-0.5,1-1.4,1.2c-0.5,0.1-1.1,0.1-1.6,0c-0.1,0-0.1,0-0.2,0
		c-0.5-0.1-0.8-0.3-1.1-0.5c-0.2-0.2-0.4-0.5-0.4-0.7l-2-13.4c-0.2-1.1,0-2.1,0.5-3.1l6.1-13.8l2.8,0.2c0,0,10.1,0.8,10.1,0.8
		L113.4,38.9z"/>
	<linearGradient id="SVGID_11_" gradientUnits="userSpaceOnUse" x1="105.8668" y1="49.2361" x2="91.0739" y2="53.4851">
		<stop  offset="5.376340e-003" style="stop-color:#EBEAF0"/>
		<stop  offset="0.9892" style="stop-color:#E5E4EC"/>
	</linearGradient>
	<path class="st20" d="M100.8,37.3c0,0-6.3,12.5-6.3,15.2c0,2.3,1.4,12.1,1.9,14.8c-0.1,0-0.1,0-0.2,0c-0.5-0.1-0.8-0.3-1.1-0.5
		c-0.2-0.2-0.4-0.5-0.4-0.7l-2-13.4c-0.2-1.1,0-2.1,0.5-3.1l6.1-13.8l2.8,0.2C102.1,36,100.8,37.3,100.8,37.3z"/>
	<g>
		<path class="st21" d="M146.1,69.7v7.4c0,1.5-1,3-2.9,4.1l-49.5,28.6c-3.9,2.3-10.3,2.3-14.2,0c0,0-75.1-43.3-75.1-43.3
			c-2-1.1-2.9-2.6-2.9-4.1v-7.5l7.5,0.8l1.2-0.7l43.8-25.3c3.9-2.3,10.3-2.3,14.2,0l67.6,39L146.1,69.7z"/>
		<path class="st22" d="M79.4,85.8v23.9L4.3,66.4c-2-1.1-2.9-2.6-2.9-4.1v-7.5l7.5,0.8l1.2-0.7L79.4,85.8z"/>
		<path class="st3" d="M143.1,73.8l-49.5,28.6c-3.9,2.3-10.3,2.3-14.2,0L4.3,59c-3.9-2.3-3.9-5.9,0-8.2l49.5-28.6
			c3.9-2.3,10.3-2.3,14.2,0l75.1,43.3C147.1,67.9,147.1,71.5,143.1,73.8z"/>
		<path class="st23" d="M144.1,69.5c0,0.7-0.7,1.5-1.8,2.1l-26.6,15.3l-0.4,0.2l-22.6,13c-1.5,0.9-3.7,1.4-6,1.4
			c-2.3,0-4.4-0.5-6-1.4l-24.3-14l-8-4.6L42.2,78l-8.1-4.7L5.7,56.9c-1.1-0.7-1.8-1.4-1.8-2.1c0-0.7,0.7-1.5,1.8-2.1L55.2,24
			c0.7-0.4,1.4-0.7,2.3-0.9c1.1-0.3,2.4-0.5,3.7-0.5c1.2,0,2.4,0.2,3.5,0.4c0.9,0.2,1.8,0.6,2.5,1l75.1,43.3
			C143.4,68,144.1,68.8,144.1,69.5z"/>
		<path class="st24" d="M143.2,69.5c0,0.2-0.4,0.8-1.4,1.4l-26.6,15.3l-0.4,0.2l-5.7,3.3l-2.1,1.2l-14.8,8.6
			c-1.4,0.8-3.4,1.3-5.6,1.3c-2.1,0-4.1-0.5-5.6-1.3l-24.3-14l-8-4.6L6.1,56.1c-1-0.6-1.4-1.2-1.4-1.4c0-0.2,0.4-0.8,1.4-1.4
			l21.1-12.2l1.9-1.1l26.6-15.3c0.6-0.3,1.3-0.6,2.1-0.8c1.1-0.3,2.3-0.4,3.5-0.4c1.1,0,2.3,0.1,3.3,0.4c0.9,0.2,1.6,0.5,2.3,0.9
			l75.1,43.3C142.9,68.7,143.2,69.3,143.2,69.5z"/>
		<g>
			<polygon class="st23" points="109.2,89.7 107.1,90.9 86.5,78.5 87.7,60.7 41,55.6 27.2,41.2 29,40.1 42,53.6 89.9,58.8 
				88.7,77.4 			"/>
		</g>
		<path class="st23" d="M91.8,75.5c2.1,1.2,2.1,3.2,0,4.5c-2.1,1.2-5.6,1.2-7.7,0c-2.1-1.2-2.1-3.2,0-4.5
			C86.2,74.3,89.7,74.3,91.8,75.5z"/>
		<path class="st25" d="M92.7,57.6c2.1,1.2,2.1,3.2,0,4.5c-2.1,1.2-5.6,1.2-7.7,0c-2.1-1.2-2.1-3.2,0-4.5
			C87.1,56.4,90.6,56.4,92.7,57.6z"/>
		<path class="st23" d="M44.6,52.9c1.6,0.9,1.6,2.5,0,3.4c-1.6,0.9-4.3,0.9-5.9,0c-1.6-0.9-1.6-2.5,0-3.4
			C40.3,51.9,42.9,51.9,44.6,52.9z"/>
		<g>
			<path class="st12" d="M41.6,55.2c-0.3,0-0.6-0.3-0.6-0.6V23.2c0-0.3,0.3-0.6,0.6-0.6c0.3,0,0.6,0.3,0.6,0.6v31.4
				C42.2,54.9,42,55.2,41.6,55.2z"/>
		</g>
		<polygon class="st12" points="52.4,24 47,27.1 41.6,30.2 41.6,27.4 41.6,24.7 47,21.6 52.4,18.4 51.1,21.9 		"/>
		<polygon class="st23" points="91.3,91.3 84.4,95.3 70.2,87.1 77.1,83.1 		"/>
		<polygon class="st23" points="81.1,69.6 76.4,72.3 66.9,66.8 71.5,64.1 		"/>
		<polygon class="st23" points="67.2,48.3 60.5,52.1 47,44.3 53.7,40.4 		"/>
		<polygon class="st23" points="83.4,46.5 78.7,49.2 69.2,43.7 73.9,41 		"/>
		<polygon class="st23" points="71.1,74.4 77.6,78.2 69.2,83.1 62.7,79.3 		"/>
		<polygon class="st23" points="59.6,67.5 66.9,71.7 57.5,77.1 50.2,72.9 		"/>
		<polygon class="st23" points="65.4,32.8 72.7,37 63.4,42.4 56.1,38.2 		"/>
		<polygon class="st23" points="44.5,61.3 51,65.1 42.6,69.9 36.1,66.1 		"/>
		<g>
			<path class="st26" d="M97.8,50.8c0-1.3-0.3-2.3-0.9-3.1l0.1-0.3l-1.1-0.6c-1.5-0.9-3.6-0.7-6,0.7c-4.4,2.5-7.9,8.1-7.9,12.5
				s7.9,11,7.9,11l1,0.6l1.5-5.8C94.7,60.8,97.8,53.6,97.8,50.8z"/>
			<path class="st27" d="M98.8,51.4c0,4.4-7.9,20.1-7.9,20.1s-7.9-6.6-7.9-11c0-4.4,3.5-10,7.9-12.5C95.3,45.5,98.8,47,98.8,51.4z"
				/>
			<path class="st23" d="M90.9,61.8c-3.2,1.9-5.8,0.8-5.8-2.5c0-3.2,2.6-7.3,5.8-9.2c3.2-1.9,5.8-0.7,5.8,2.5
				C96.7,55.8,94.1,60,90.9,61.8z"/>
		</g>
	</g>
	<g>
		<path class="st28" d="M84.3,40.1c0,0.6-0.4,0.9-0.9,0.9c-0.2,0-0.4-0.1-0.7-0.2c-0.7-0.4-1.3-1.3-1.5-2.1c0-0.1-0.1-0.3-0.1-0.4
			c0-0.9,0.7-1.2,1.6-0.7c0.6,0.4,1.2,1,1.4,1.7C84.2,39.6,84.3,39.9,84.3,40.1z"/>
		<g>
			<path class="st27" d="M93.9,26.2c-0.2,1.6-2,5.7-2.5,6.4c-0.5,0.8-7.5,8.2-7.5,8.2l-1.5-1.8l-1.2-1.4c0,0,6.3-7.4,7-8.3
				c0.7-0.9,1.5-2.4,2-6.2c0.5-3.8,3.6-5.9,3.6-5.9s0,1,0,2.4C94,22,94,25.4,93.9,26.2z"/>
			<linearGradient id="SVGID_12_" gradientUnits="userSpaceOnUse" x1="92.1029" y1="28.9731" x2="83.4204" y2="27.2366">
				<stop  offset="5.376340e-003" style="stop-color:#EBEAF0"/>
				<stop  offset="0.9892" style="stop-color:#E5E4EC"/>
			</linearGradient>
			<path class="st29" d="M94,19.7c-0.5,0.9-1.4,3-2.7,7.3c-0.4,1.4-1.1,2.8-2.1,3.9l-6.7,8.2l-1.2-1.4c0,0,6.3-7.4,7-8.3
				c0.7-0.9,1.5-2.4,2-6.2c0.5-3.8,3.6-5.9,3.6-5.9S93.9,18.3,94,19.7z"/>
			<path class="st30" d="M107.1,73.2c-0.2,0.3-4.1,4-4.8,4.2c-0.3,0.1-1.2,0.2-2.1,0.3c-0.1,0-0.2,0-0.3,0c-1.1,0.1-2.2,0-2.4-0.3
				c-0.2-0.6,2.2-2.8,2.7-3.2c0.5-0.4,2.5-2.9,2.5-2.9l1.2,0.1l0.6,0.1l2.1,0.2C106.8,71.6,107.2,72.9,107.1,73.2z"/>
			<linearGradient id="SVGID_13_" gradientUnits="userSpaceOnUse" x1="104.6743" y1="73.5272" x2="97.0829" y2="75.7077">
				<stop  offset="5.376340e-003" style="stop-color:#EBEAF0"/>
				<stop  offset="0.9892" style="stop-color:#E5E4EC"/>
			</linearGradient>
			<path class="st31" d="M99.3,76.6c-0.4,0.6,0.5,0.9,1,1c-0.1,0-0.2,0-0.3,0c-1.1,0.1-2.2,0-2.4-0.3c-0.2-0.6,2.2-2.8,2.7-3.2
				c0.5-0.4,2.5-2.9,2.5-2.9l1.2,0.1l-0.2,1C103.8,72.4,99.8,75.8,99.3,76.6z"/>
			<path class="st30" d="M96.6,68.5c-0.1,0.4-2.5,0.6-2.9,1.2c-0.4,0.6-4.6,4-5,3.8c-0.1-0.1-0.3-0.3-0.4-0.7
				c-0.2-0.7-0.4-1.7-0.1-2.1c0.5-0.7,3.4-2.9,3.9-4.2c0.2-0.6,1.1-0.6,2-0.4c0.1,0,0.2,0.1,0.3,0.1c1,0.3,1.5-0.2,1.5-0.2
				S96.7,68.1,96.6,68.5z"/>
			<linearGradient id="SVGID_14_" gradientUnits="userSpaceOnUse" x1="105.5291" y1="57.475" x2="98.5955" y2="59.4665">
				<stop  offset="5.376340e-003" style="stop-color:#EBEAF0"/>
				<stop  offset="0.9892" style="stop-color:#E5E4EC"/>
			</linearGradient>
			<path class="st32" d="M103.8,72.4c-0.1,0-0.2,0-0.3-0.1c-1-0.2-1.6-0.7-1.6-1.2l-2.6-12.8c-0.1-0.6-0.1-1.3,0-1.9l2.3-12.3
				c0,0-0.9,11.3-0.5,14C101.6,60.2,103.3,69.2,103.8,72.4z"/>
			<path class="st26" d="M109.6,36.2c0,0-1.4,2.7-6.4,2.8c-3.1,0.1-5-1.2-6-2.1c-0.6-0.6-0.9-1.1-0.9-1.1s0.1-4.7-0.7-6.2
				c-0.7-1.5-1.4-1-2.7-2.5c-0.7-1.1,0.9-9.7,0.9-9.7c0.5-0.4,1.2-0.5,1.9-0.5c4-0.1,10.5,4.3,10.5,4.3L109.6,36.2z"/>
			<linearGradient id="SVGID_15_" gradientUnits="userSpaceOnUse" x1="100.335" y1="27.5621" x2="91.8305" y2="25.8612">
				<stop  offset="5.376340e-003" style="stop-color:#EBEAF0"/>
				<stop  offset="0.9892" style="stop-color:#E5E4EC"/>
			</linearGradient>
			<path class="st33" d="M96.4,29.4c0,0,1.4,3.4,0.8,7.4c-0.6-0.6-0.9-1.1-0.9-1.1s0.1-4.7-0.7-6.2c-0.7-1.5-1.4-1-2.7-2.5
				c-0.7-1.1,0.9-9.7,0.9-9.7c0.5-0.4,1.2-0.5,1.9-0.5l0,0.1C95.7,17,94.1,26,94.7,27c0.6,1,2.7,2.4,4.3,3.1L96.4,29.4z"/>
			<path class="st10" d="M113,49.8c0,0-1.5,1.4-2.3,1.5c0,0-0.1,0-0.1,0c-0.7,0-1-0.4-1-0.4l-0.3-1.8c0-0.1,0-0.2,0-0.3l1.1-2.5
				l0.7-0.1l1.5-0.2c0,0,0.5,1.4,0.7,1.8C113.5,48.2,113,49.8,113,49.8z"/>
			<g class="st34">
				<path class="st6" d="M110.2,49.3l0.4,2c-0.7,0-1-0.4-1-0.4l-0.3-1.8c0-0.1,0-0.2,0-0.3l1.1-2.5l0.7-0.1l0,0.1L110.2,49.3z"/>
			</g>
			<path class="st27" d="M113,46c0,0.3-0.2,0.5-0.5,0.7c-0.5,0.3-1.2,0.4-1.8,0.2c-0.2,0-0.4-0.1-0.6-0.2c-0.3-0.2-0.5-0.4-0.5-0.7
				L109.1,36c0,0-4.7-5.4-5.9-9.4c-0.7-2.5,0.3-4.2,1.4-5c0.7-0.5,1.4-0.7,1.7-0.4c2.4,1,4.9,10.9,5.7,12.5
				C112.7,35.1,113,46,113,46z"/>
			<path class="st0" d="M98.5,18.1c-0.4,0.1-0.8,0.5-1.1,0.9c-0.6,0.7-1,1.5-1,1.5c-1.4-1.3-3.5-5.9-4.1-7.2
				c-0.1-0.2-0.2-0.4-0.2-0.4l0.5-0.2l1-0.4l1.4-0.6c0,0,0.2,0.3,0.4,0.7c0.7,1.1,2,3.2,2.7,4.5c0.1,0.2,0.2,0.4,0.3,0.6
				C98.5,17.9,98.6,18.1,98.5,18.1z"/>
			<linearGradient id="SVGID_16_" gradientUnits="userSpaceOnUse" x1="92.0859" y1="16.1318" x2="98.5428" y2="16.1318">
				<stop  offset="5.376340e-003" style="stop-color:#EBEAF0"/>
				<stop  offset="0.9892" style="stop-color:#E5E4EC"/>
			</linearGradient>
			<path class="st35" d="M98.5,18.1c-0.4,0.1-0.8,0.5-1.1,0.9c-0.6,0.7-1,1.5-1,1.5c-1.4-1.3-3.5-5.9-4.1-7.2
				c-0.1-0.2-0.2-0.4-0.2-0.4l0.5-0.2l1-0.4l1.4-0.6c0,0,0.2,0.3,0.4,0.7c0.7,1.1,2,3.2,2.7,4.5c0.1,0.2,0.2,0.4,0.3,0.6
				C98.5,17.9,98.6,18.1,98.5,18.1z"/>
			<path class="st10" d="M101.8,17.2c0,0-0.5,1.4-1.2,2.7c-0.1,0.2-0.2,0.4-0.3,0.6c-0.5,0.9-1,1.8-1.4,2c-0.8,0.5-1.3-2.1-1.6-3.6
				c0,0,0-0.1,0-0.1c0-0.1,0-0.2,0-0.3c0-0.3-0.1-0.4-0.1-0.4l0.9-1.1l0.8-1l0.8-1.1l0.5-0.6l0.6-0.7L101.8,17.2z"/>
			<g class="st16">
				<path class="st17" d="M101.8,17.2c0,0-0.5,1.4-1.2,2.7c-0.1,0.2-0.2,0.4-0.3,0.6c-0.5,0.9-1,1.8-1.4,2c-0.8,0.5-1.3-2.1-1.6-3.6
					c0,0,0-0.1,0-0.1c0-0.1,0-0.2,0-0.3c0-0.3-0.1-0.4-0.1-0.4l0.9-1.1l0.8-1l0.8-1.1l0.5-0.6l0.6-0.7L101.8,17.2z"/>
			</g>
			<path class="st10" d="M100.4,15.5C100.4,15.5,100.4,15.5,100.4,15.5c-0.4,0.4-1.7,1.5-1.7,1.5c0,0-0.3,0.5-0.7,1
				c-0.4,0.5-0.8,1-1.1,1.1c-0.1,0-0.1,0-0.2,0.1c-0.4,0.1-0.7,0.1-0.7,0.1s-1.7-1.9-2.6-3.8c-0.8-1.9-1.2-3.5-1.2-3.5
				s0.8-0.3,1.7-0.6c0.9-0.3,1.8-0.7,2.4-0.9c0.3-0.1,0.4-0.1,0.4-0.1c0.1,0.1,2.2,1.9,2.2,1.9l1.2,2.2c0,0,0.1,0.4,0.1,0.8
				C100.4,15.4,100.4,15.5,100.4,15.5z"/>
			<g class="st16">
				<path class="st17" d="M98.1,18c-0.4,0.5-0.8,1-1.1,1.1c-0.1,0-0.1,0-0.2,0.1c-0.4,0.1-0.7,0.1-0.7,0.1s-1.7-1.9-2.6-3.8
					c-0.8-1.9-1.2-3.5-1.2-3.5s0.8-0.3,1.7-0.6c-1.7,2,2.1,7.4,2.4,7.5C96.6,19,97.6,18.4,98.1,18z"/>
			</g>
			<path class="st0" d="M104.1,19.7l-1.1-0.6c0,0-0.8,2.7-1.2,2.8c-0.1-0.1-0.8-0.5-1.4-1.3c-0.3-0.4-0.5-0.8-0.6-1.4
				c-0.2-0.6-0.4-1.5-0.6-2.5C99,16.4,99,16.2,98.9,16c-0.4-1.4-0.8-2.8-1.1-3.1c-0.1-0.1-0.3-0.3-0.4-0.4c-0.3-0.3-0.8-0.4-1.3-0.2
				c-0.2,0.1-0.5,0.2-0.8,0.2c-0.1,0-0.2,0-0.3,0.1c-0.4,0.1-0.8,0.1-1.2,0.1c-0.1,0-0.3,0-0.4,0.1c-0.3,0.1-0.6,0.3-0.9,0.6
				c-0.1,0.1-0.1,0.1-0.2,0.2c0,0,0,0-0.1,0.1c0,0-0.1-0.1-0.2-0.2c-0.3-0.3-0.7-0.9-0.8-1.8c-0.1-0.5,0.2-1.4,0.8-2.3
				c0.8-1.2,2-2.4,3.6-2.5c0.9-0.1,1.7,0,2.5,0.2c1.5,0.4,2.6,1.3,3.1,3C102.1,12.4,103.8,17.7,104.1,19.7z"/>
			<linearGradient id="SVGID_17_" gradientUnits="userSpaceOnUse" x1="110.1117" y1="33.5418" x2="104.6225" y2="35.1185">
				<stop  offset="5.376340e-003" style="stop-color:#EBEAF0"/>
				<stop  offset="0.9892" style="stop-color:#E5E4EC"/>
			</linearGradient>
			<path class="st36" d="M110.7,47c-0.2,0-0.4-0.1-0.6-0.2c-0.3-0.2-0.5-0.4-0.5-0.7L109.1,36c0,0-4.7-5.4-5.9-9.4
				c-0.7-2.5,0.3-4.2,1.4-5c0,0-1.8,2.6,0,5.8c1.8,3.2,5.8,7.8,5.8,7.8L110.7,47z"/>
			<linearGradient id="SVGID_18_" gradientUnits="userSpaceOnUse" x1="104.31" y1="15.2128" x2="90.5658" y2="12.464">
				<stop  offset="5.376340e-003" style="stop-color:#EBEAF0"/>
				<stop  offset="0.9892" style="stop-color:#E5E4EC"/>
			</linearGradient>
			<path class="st37" d="M101.7,21.8c-0.1-0.1-0.8-0.5-1.4-1.3c-0.3-0.4-0.5-0.8-0.6-1.4c-0.2-0.6-0.4-1.5-0.6-2.5
				C99,16.4,99,16.2,98.9,16c-0.4-1.4-0.8-2.8-1.1-3.1c-0.1-0.1-0.3-0.3-0.4-0.4c-0.3-0.3-0.8-0.4-1.3-0.2c-0.2,0.1-0.5,0.2-0.8,0.2
				c-0.1,0-0.2,0-0.3,0.1c-0.4,0.1-0.8,0.1-1.2,0.1c-0.1,0-0.3,0-0.4,0.1c-0.3,0.1-0.6,0.3-0.9,0.6c-0.1,0.1-0.1,0.1-0.2,0.2
				c0,0,0,0-0.1,0.1c0,0-0.1-0.1-0.2-0.2c-0.3-0.3-0.7-0.9-0.8-1.8c-0.1-0.5,0.2-1.4,0.8-2.3c0.8-1.2,2-2.4,3.6-2.5
				c0.9-0.1,1.7,0,2.5,0.2c-1.4,0.7-3.9,2-3.6,3.2c0.1,0.4,0.5,0.6,0.9,0.7c0.5,0.1,1.1,0,1.7,0c0.9,0,1.7,0.3,2,1.3
				c0.1,0.3,0.2,0.6,0.2,1c0.1,0.6,0.2,1.2,0.2,1.8c0,0.4,0.1,0.8,0.1,1.2c0.1,1.3,0.3,2.7,0.8,3.9
				C100.9,20.6,101.2,21.3,101.7,21.8z"/>
		</g>
		<g>
			<path class="st10" d="M84.1,39.3c-0.1,0.3-0.3,0.5-0.4,0.8c-0.1,0.3-0.2,0.6-0.4,0.9c-0.6,1.2-1.6,2.6-2.1,2.6
				c-0.5,0.1-1.5,0.7-2.1,1c-0.1,0-0.1,0.1-0.2,0c-0.1,0-0.3-0.2-0.2-0.3l0-0.3c0-0.3,0.3-0.6,0.5-0.7c0.8-0.5,1.2-1.2,1.2-1.2
				c-0.3,0.2-2.8,1.8-3.5,2.4c-0.4,0.3-0.7,0.3-1,0.3c-0.3-0.1-0.4-0.2-0.4-0.2s4.8-5.6,5.3-5.8c0.1,0,0.2-0.1,0.3-0.2
				c0.4-0.2,1-0.7,1.5-1.1c0.2,0.1,0.4,0.3,0.7,0.5C83.7,38.5,84,38.9,84.1,39.3z"/>
			<g class="st16">
				<path class="st17" d="M83.4,38.2c-0.9,0.6-2.3,1.6-2.8,1.9c-0.8,0.4-4.6,4.8-4.6,4.8c-0.3-0.1-0.4-0.2-0.4-0.2s4.8-5.6,5.3-5.8
					c0.1,0,0.2-0.1,0.3-0.2c0.4-0.2,1-0.7,1.5-1.1C83,37.8,83.2,38,83.4,38.2z"/>
			</g>
			<g class="st16">
				<path class="st17" d="M79.4,43.8c-0.5,0.5-0.4,0.9-0.4,0.9c-0.1,0-0.3-0.2-0.2-0.3l0-0.3c0-0.3,0.3-0.6,0.5-0.7
					c0.8-0.5,1.2-1.2,1.2-1.2C80.5,42.3,79.9,43.4,79.4,43.8z"/>
			</g>
		</g>
	</g>
</g>
</svg>
