<?xml version="1.0" encoding="utf-8"?>
<!-- Generator: Adobe Illustrator 19.0.0, SVG Export Plug-In . SVG Version: 6.00 Build 0)  -->
<svg version="1.1" id="Layer_2" xmlns="http://www.w3.org/2000/svg" xmlns:xlink="http://www.w3.org/1999/xlink" x="0px" y="0px"
	 viewBox="0 0 95 92.2" style="enable-background:new 0 0 95 92.2;" xml:space="preserve">
<style type="text/css">
	.st0{fill:#1E1E1E;}
	.st1{fill:#D3A590;}
	.st2{fill:#141B54;}
	.st3{fill:#234099;}
	.st4{fill:#CC885A;}
	.st5{fill:#EAC6B5;}
	.st6{fill:#76347F;}
	.st7{fill:#8FA4BC;}
	.st8{fill:#6A7B9B;}
	.st9{fill:#28292B;}
	.st10{fill:#3E9BF7;}
	.st11{fill:#9E5EA5;}
</style>
<g>
	<g>
		<g>
			<polygon points="60.9,60.5 54.2,56.1 54.4,50.9 62.2,54.5 			"/>
			<g>
				<polygon points="52.1,82.9 51.2,82.9 54.3,55.2 56,51.2 78.5,51.5 78.5,57.3 78.5,57.3 81.6,83.1 80.7,83.1 75.1,57.3 
					57.3,57.3 				"/>
				<path class="st0" d="M79.6,23.1c1.8-5.2,3-5.3,7.9-5.2c4.1,0.1,5.4,2.3,5.3,5.8l-3.3,26.5c-0.2,3.5-3.1,5.9-6.4,5.2
					c-3.4-0.7-8-3-7.8-6.5L79.6,23.1z"/>
				<polygon points="60.6,88.8 59.5,88.8 61.9,61.4 55.4,55.9 67.2,51.8 87.3,54.6 87.3,60.9 87.2,60.9 90.7,88.9 89.6,88.9 
					83.6,60.9 66.1,60.9 				"/>
				<path d="M85.1,54.6c1.2,0,1.3-0.4,0.2-0.9l-6.6-3c-1.1-0.5-2.9-0.9-4.1-0.9L56,49.9c-1.2,0-2.2,0.7-1.3,1.4l3.6,2.1
					c0.9,0.7,2.7,1.3,3.9,1.3L85.1,54.6z"/>
			</g>
		</g>
		<polygon class="st1" points="65,32 68.4,26.4 70.1,32.9 65.9,36.3 64.7,35 		"/>
		<path class="st2" d="M80,40.2c3.8,4.5,1.6,7,0.6,10.5c-1.6,5.2-28.1,4.9-28.1,4.9l-5.9-5.3l23.4-3.7l1.5-7.5L80,40.2z"/>
		<g>
			<g>
				<g>
					<path class="st3" d="M81.8,53.6C77,56.1,54.6,58,54.6,58l-1.4-3.1c2.1-1.7,23.3-3.4,25.2-6.2c1-1.5-0.2-6.2-1.8-8.4l4.2-0.1
						C84.6,44.6,83.6,52.6,81.8,53.6z"/>
				</g>
			</g>
		</g>
		<path class="st4" d="M75.8,9.9c2.1,1.2,6.9,8.6,6.6,13.8c-0.3,5.2-1,8.2-0.2,8.7c-1.3,0.3-2.7,0.6-3.5-3.2
			c-0.8-3.7-3.3-6.7-3.2-9.7c0.1-3-0.7-8.2-0.7-8.2L75.8,9.9z"/>
		<g>
			<path class="st5" d="M77.1,20.3c-0.8-1.6-3.9-4.9-5-12.8c-0.4-3.3-6.4,7.3-6.4,7.3c1.9,0.8,4,2.9,3.7,5.5c-0.9,5.2-2.5,9.2-2.3,9
				C66.4,32.2,77.8,20.7,77.1,20.3z"/>
		</g>
		<path d="M65.3,11.7L65.3,11.7L65.3,11.7L65.3,11.7C65.3,11.7,65.3,11.7,65.3,11.7L65.3,11.7z"/>
		<path class="st6" d="M74,19.7c-0.4,0.4-2.6,2.2-3.3,2.5c-1.4,0.6-2.2,0.5-2.2,0.5c-0.5,2-1.4,5-2,7.4c-0.4,1.4,0,3.3,0.7,4.3
			c0.7,0.9,2.8,5.1,2.9,6c0.6,6.4-0.7,4.9-0.7,4.9s10.1,0.1,12.9-1.6c3.3-2.1-1.8-4.4-1.8-14.9c0-2.6-0.1-4.6-1.5-7.1
			c-0.7-0.8-2.4-2.9-3.5-4.4C75.4,18.3,74.8,18.9,74,19.7z"/>
		<path class="st5" d="M62.2,12.8c0-0.3,0.3-0.5,0.6-2.1c-0.1-0.4-0.1-0.8-0.1-0.9c-0.4-4.6,1.4-7.6,5-7.9c3.6-0.3,6.5,1.2,6.9,5.8
			c0.4,4.6-2.2,7.2-4.2,8.5c-0.7,0.4-4.1,1.5-4.9,1.1c-1.1-0.5-1.7-2.1-2.1-3.7C62.9,13.5,62.2,13.4,62.2,12.8z"/>
		<path class="st4" d="M75.8,4.8c-1.7-4.1-7.2-4.3-11-2.2c-0.9,0.5-1.3,1.1-1.5,1.7C61.4,5.8,63,6.4,64,6.6c1.1,0.3,3,0.9,2.8,2.6
			c0.4-0.1,0.7-0.7,0.8-1.4c0.6,0.6,1.8,2.2,2,2.5c0.2,0.4,0.2-0.9,0.9-0.2c0.9,0.9,0.5,1.8,0.5,1.8l1.8,2.3
			C72.7,14.3,78.1,10.6,75.8,4.8z"/>
		<polygon class="st7" points="75,44.2 1.6,44.2 7.6,33.6 61,33.6 		"/>
		<g>
			<rect x="10.5" y="46.3" class="st7" width="48.9" height="44.5"/>
			<polygon class="st8" points="74.8,48.5 1.8,48.5 1.6,44.1 74.8,44.1 			"/>
		</g>
		<g>
			<path class="st9" d="M46.6,41c-0.2-0.1-0.9-0.1-0.8-0.8l1.5-5.3c0-0.4,0.4-0.5,0.6-0.5l8,0.6c0.2,0,0.4,0.1,0.8,0.5l3.6,4.1
				c1,1,1.5,1.7,1.4,1.8L46.6,41z"/>
			<g>
				<g>
					<path d="M47.7,39.6c-0.1,0-0.1-0.2-0.1-0.3l0,0l0.7-4.2c0-0.1,0-0.1,0.1-0.1l0,0c0,0,0,0.1,0,0.1l0,0l-0.6,4.2
						C47.9,39.5,47.8,39.6,47.7,39.6L47.7,39.6C47.7,39.6,47.7,39.6,47.7,39.6L47.7,39.6z"/>
					<path d="M48.8,39.7c-0.1,0-0.1-0.2-0.1-0.3l0,0l0.3-4.2c0-0.1,0-0.1,0.1-0.1l0,0c0,0,0.1,0.1,0,0.1l0,0l-0.2,4.2
						C48.9,39.6,48.8,39.7,48.8,39.7L48.8,39.7C48.8,39.7,48.8,39.7,48.8,39.7L48.8,39.7z"/>
					<path d="M49.8,39.7c-0.1,0-0.1-0.2-0.1-0.3l0,0l-0.1-4.2c0-0.1,0-0.1,0.1-0.1l0,0c0,0,0.1,0.1,0.1,0.1l0,0l0.1,4.2
						C49.9,39.6,49.8,39.7,49.8,39.7L49.8,39.7C49.8,39.7,49.8,39.7,49.8,39.7L49.8,39.7z"/>
					<path d="M50.8,39.8c-0.1,0-0.1-0.2-0.1-0.3l0,0l-0.4-4.2c0-0.1,0-0.1,0.1-0.1l0,0c0,0,0.1,0.1,0.1,0.1l0,0l0.5,4.2
						C50.9,39.7,50.8,39.8,50.8,39.8L50.8,39.8C50.8,39.8,50.8,39.8,50.8,39.8L50.8,39.8z"/>
					<path d="M51.8,39.8c-0.1,0-0.1-0.2-0.2-0.3l0,0l-0.8-4.2c0-0.1,0-0.1,0-0.1l0,0c0,0,0.1,0.1,0.1,0.1l0,0l0.8,4.2
						C51.8,39.7,51.8,39.8,51.8,39.8L51.8,39.8C51.8,39.8,51.8,39.8,51.8,39.8L51.8,39.8z"/>
					<path d="M52.8,39.9c-0.1,0-0.1-0.2-0.2-0.3l0,0l-1.1-4.2c0-0.1,0-0.1,0-0.1l0,0c0,0,0.1,0.1,0.1,0.1l0,0l1.2,4.2
						C52.8,39.8,52.8,39.9,52.8,39.9L52.8,39.9C52.8,39.9,52.8,39.9,52.8,39.9L52.8,39.9z"/>
					<path d="M53.7,39.9c-0.1,0-0.2-0.2-0.2-0.3l0,0l-1.4-4.2c0-0.1,0-0.1,0-0.1l0,0c0,0,0.1,0.1,0.1,0.1l0,0l1.5,4.2
						C53.8,39.8,53.8,39.9,53.7,39.9L53.7,39.9C53.7,39.9,53.7,39.9,53.7,39.9L53.7,39.9z"/>
					<path d="M54.7,39.9c-0.1,0-0.2-0.2-0.2-0.3l0,0l-1.7-4.2c0-0.1,0-0.1,0-0.1l0,0c0,0,0.1,0.1,0.1,0.1l0,0l1.8,4.2
						C54.7,39.9,54.8,40,54.7,39.9L54.7,39.9C54.7,40,54.7,40,54.7,39.9L54.7,39.9z"/>
					<path d="M55.7,40c-0.1,0-0.2-0.2-0.2-0.3l0,0l-2.1-4.2c0-0.1,0-0.1,0-0.1l0,0c0,0,0.1,0.1,0.1,0.1l0,0l2.2,4.2
						C55.7,39.9,55.7,40,55.7,40L55.7,40C55.7,40,55.7,40,55.7,40L55.7,40z"/>
					<path d="M56.6,40c-0.1,0-0.2-0.2-0.3-0.3l0,0l-2.4-4.2c0-0.1,0-0.1,0-0.1l0,0c0,0,0.1,0.1,0.1,0.1l0,0l2.5,4.2
						C56.6,39.9,56.7,40,56.6,40L56.6,40C56.6,40,56.6,40,56.6,40L56.6,40z"/>
					<path d="M57.5,40.1c-0.1,0-0.2-0.2-0.3-0.3l0,0l-2.7-4.2c0-0.1,0-0.1,0-0.1l0,0c0,0,0.1,0.1,0.1,0.1l0,0l2.8,4.2
						C57.6,40,57.6,40.1,57.5,40.1L57.5,40.1C57.6,40.1,57.6,40.1,57.5,40.1L57.5,40.1z"/>
					<path d="M58.5,40.1c-0.1,0-0.2-0.2-0.3-0.3l0,0l-3-4.2c0-0.1,0-0.1,0-0.1l0,0c0,0,0.1,0.1,0.2,0.1l0,0l3.1,4.2
						C58.5,40,58.5,40.1,58.5,40.1L58.5,40.1C58.5,40.1,58.5,40.1,58.5,40.1L58.5,40.1z"/>
					<path d="M59.4,40.2c-0.1,0-0.2-0.2-0.3-0.3l0,0l-3.3-4.2c-0.1-0.1-0.1-0.1,0-0.1l0,0c0,0,0.1,0.1,0.2,0.1l0,0l3.4,4.3
						C59.4,40.1,59.5,40.2,59.4,40.2L59.4,40.2C59.4,40.2,59.4,40.2,59.4,40.2L59.4,40.2z"/>
				</g>
				<path d="M47.8,39.7c0,0-0.1-0.1-0.1-0.3l0,0c0-0.1,0-0.2,0.1-0.2l0,0L59,39.8c0,0,0.2,0.1,0.3,0.3l0,0c0.1,0.1,0.3,0.3,0.3,0.3
					l-0.1,0L47.8,39.7L47.8,39.7z"/>
				<path d="M48,38.6c-0.1,0-0.1-0.1-0.1-0.2l0,0c0-0.1,0-0.2,0-0.2l0,0l10.4,0.6c-0.1,0,0.1,0.1,0.2,0.2l0,0
					c0.1,0.1,0.1,0.2,0.1,0.2l0,0L48,38.6L48,38.6z"/>
				<path d="M48.1,37.6c0,0,0-0.1,0-0.2l0.1,0c0-0.1,0-0.2,0-0.2l0,0l9.4,0.6c0,0,0.1,0.1,0.2,0.2l0,0c0.1,0.1,0.1,0.2,0.1,0.2l0,0
					l-9.6-0.6L48.1,37.6z"/>
				<path d="M48.2,36.7c0,0-0.1-0.1-0.1-0.1l0,0c0-0.1,0-0.1,0-0.1l0,0l8.8,0.6c0,0,0.1,0.1,0.1,0.1l0,0c0.1,0.1,0.1,0.1,0,0.1l0,0
					L48.2,36.7L48.2,36.7z"/>
				<path d="M48.3,36.1C48.3,36.1,48.3,36.1,48.3,36.1L48.3,36.1c-0.1-0.1-0.1-0.1,0-0.1l0,0l8.2,0.6c0,0,0.1,0,0.1,0.1l0,0
					c0,0,0.1,0.1,0,0.1l0,0L48.3,36.1L48.3,36.1z"/>
				<path d="M48.4,35.6C48.4,35.6,48.3,35.5,48.4,35.6L48.4,35.6c-0.1-0.1-0.1-0.1,0-0.1l0,0L56,36c0,0,0.1,0,0.1,0.1l0,0
					c0,0,0,0.1,0,0.1l0,0L48.4,35.6L48.4,35.6z"/>
				<path d="M48.4,35.2C48.4,35.2,48.3,35.1,48.4,35.2L48.4,35.2c-0.1-0.1-0.1-0.1,0-0.1l0,0l7.4,0.5c0,0,0.1,0,0.1,0.1l0,0
					c0,0,0,0.1,0,0.1l0,0L48.4,35.2L48.4,35.2z"/>
			</g>
			<g>
				<path d="M62,41.7c0,0.2-0.1,0.3-0.3,0.3l-15.2-0.4c-0.2,0-0.4-0.2-0.4-0.4l-0.1-0.6c0-0.2,0.2-0.3,0.4-0.3l15.2,1
					C61.6,41.2,61.9,41.4,62,41.7L62,41.7z"/>
			</g>
		</g>
		<path class="st1" d="M66.4,35.5c-2-2.1-0.7-4.7-0.7-4.7c-0.9,1.1-1.3,1.9-2,2c-0.7,0.1-5.3,0.9-7.7,1.1c-1.1-0.2-2.4-0.7-2.9-0.6
			c-0.7,0.1-1.6,0.1-2,0.4c-0.5,0.3-1.8,1.2-1.5,1.5c0.1,0.1,0.3,0,0.8-0.4c0.3-0.2,0.6-0.4,1-0.4c0.5,0,1.6,0.2,1.6,0.2
			s-1.8,0.4-1.6,0.8c0.1,0.2,0.2,0.2,1,0.1c0.8-0.1,1.3,0.6,2.2,0.5c0.6-0.1,0.8-0.1,1.4-0.2C58.1,36,67.7,36.9,66.4,35.5z"/>
		<g>
			<path class="st9" d="M40.9,40.7c-0.4,0.9-1.7,0.5-2.8,0.5l-4.9,0.1c-1.1,0-1.4-0.6-0.7-1.2l2.3-2.6c0.2-0.2,0.7-0.3,1.2-0.3l4,0
				c0.5,0,1,0.2,0.8,0.6L40.9,40.7z"/>
			<g>
				<path d="M37.4,18.8c-0.9,0-2.6-0.1-2.7,1.3c-0.4,6.6-0.6,10.7-0.4,11.5c0.4,2.2,1.8,7.7,1.8,7.7s0.5,0.1,1.6-0.2l-2-7.7
					l2.1-10.5L37.4,18.8z"/>
				<g>
					<g>
						<path class="st10" d="M34.5,7.3c0.4,0,2.9-0.2,2.9-0.2l6.3,23l-2.6,2.2L34.5,7.3z"/>
						<path class="st9" d="M37.1,6.5L34.7,7c-0.1,0-0.7,0.4-0.7,0.6l0.2,0.8c-0.1-0.2,0.1-0.1,0.2-0.1L37,7.6c0.1,0,0.2,0,0.3,0.3
							l5.7,21c0.1,0.2,0.1,0.4,0,0.4l-2.4,2c-0.1,0-0.2-0.1-0.3-0.3l0.5,1.5c0.1,0.3,0.6,0.3,0.7,0.2l2.7-2.1c0.3-0.2,0.3-0.8,0.2-1
							L37.9,6.8C37.9,6.6,37.5,6.4,37.1,6.5z"/>
					</g>
					<g>
						<path d="M41.6,32.3c0.1,0.4-0.3,0.6-0.6,0.6l-1.5,0.2c-0.4,0-0.5-0.1-0.7-0.4L32.7,8.5c-0.1-0.3,0-0.6,0.2-0.7l1.5-0.7
							c0.2-0.1,0.5-0.3,0.6-0.1L41.6,32.3z"/>
					</g>
				</g>
			</g>
		</g>
		<g>
			<path class="st5" d="M74.1,25.6c-0.5,0.4-2.8,5.9-5.5,9c-0.4,0.4-8.9,2.5-9,2.4c-0.7-0.4-1.1-0.7-1.5-0.8
				c-0.6-0.1-2.2-0.2-2.4-0.1c-0.5,0.4,0.9,0.4,0.9,0.4s-2,0.1-2.5,0.1c-0.6,0-1.1,0.5-1.4,0.7c-0.3,0.2-0.4,0.6,0.1,0.5
				c0.5-0.2,0.9-0.6,1.3-0.5c0.4,0.1,1,0,1,0s-0.8,0-1.3,0.1c-0.5,0.1-1.3,0.7-1.3,0.7s-0.3,0.5,0.1,0.5c0.8-0.2,1.7-0.6,1.7-0.6
				l1.2-0.2c0,0-2.7,0.5-2.6,1c0,0.2,0,0.2,1-0.1c1.2-0.4,1,0,1,0s-0.8,0.2-1.3,0.3c-0.3,0.1-0.6,0.3,0.1,0.4c0.7,0.1,1-0.1,1.7,0.1
				c2.3,0.6,4.6,0.2,4.6,0.2C66.8,40.1,70.7,39,72,38c1.3-1,8.4-10.4,6.6-13.7C78,23.2,74.7,25.1,74.1,25.6z"/>
			<path class="st11" d="M78.4,22c2.1,1.3,0.3,8-1,12.5c-3.5-1.7-6.5-3.7-6.5-3.7s1.9-5,2.4-6.6C74.1,21.8,76.6,20.8,78.4,22z"/>
		</g>
		<g>
			<path d="M67.6,7.3c3.5-0.5,4.6,4.7,0.6,5.6L67.6,7.3z"/>
			<path class="st0" d="M67.8,8c2.6-0.4,3.4,3.4,0.5,4.1L67.8,8z"/>
		</g>
		<path d="M64.7,14.1c0.6,0,3.9-0.8,4-1.3c0.1-0.5-0.2-5.1-1.1-5.5c-0.9-0.4-4.3,0.1-4.9,0.3c-0.6,0.1-3.2,1-3.2,1L64.7,14.1z"/>
		<g>
			<path class="st0" d="M58.5,9.5c0.1-0.3,0.2-0.7,0.9-1C60,8.2,64.2,7.6,65,7.9c0.8,0.4,1.2,5.4,0.8,5.8c-0.4,0.4-5.2,0.7-6.4,0.2
				C58.2,13.5,58.5,9.5,58.5,9.5z"/>
			<path d="M58.5,9.5c-0.5,0.5,0.3,4.2,0.7,4.5c0.6,0.4,4.7,0.2,5.5-0.5c0,0-0.3-4.4-0.8-4.6C63.1,8.5,58.9,9.1,58.5,9.5z"/>
		</g>
		<path d="M61.3,8c0.4-0.8,1.4-2.5,1.8-2.5c0.4,0,0.6,0.2,0.6,0.2s-1.2,0.6-0.6,2C63.2,7.8,61.3,8,61.3,8z"/>
		<path d="M65.1,4.3c2.3-2.4,7.1-2.6,8.9-2l-0.5-0.6c-0.9-0.7-6.1-1.7-9.7,1.9c-1.4,1.8-2.4,1.7-2.1,2.2c0.1,0.2,1.4,0.7,2,0.6
			C63.8,6.2,64,5.7,65.1,4.3z"/>
		<path d="M69.4,9c0.8-0.1,6.5-3.3,6.5-4.6C76.6,5.7,76.5,7,76.5,7s-6.3,3.7-6.7,3.7C69.4,10.7,69.4,9,69.4,9z"/>
		<path d="M42.5,44.2c-2.4-1.6-5.3-1.4-6.8-1.7l0,0c-0.4-0.1-0.9-0.2-1-0.8l0,0c0-0.3,0.2-0.6,0.4-0.9l0,0c0.9-1.1,3.1-1.3,5.4-1.3
			l0,0c3,0,6.3,0.5,6.4,0.5l0,0v0.6c-0.3,0-3.4-0.5-6.4-0.5l0,0c-2.2,0-4.3,0.3-4.9,1.1l0,0c-0.2,0.3-0.3,0.5-0.3,0.5l0,0
			c0,0,0,0,0,0l0,0c0.1,0,0.2,0.1,0.4,0.1l0,0c0.4,0.1,1.1,0.1,1.8,0.2l0,0c1.5,0.1,3.4,0.4,5.2,1.6l0,0c0.9,0.6,2.6,0.9,4.8,0.9
			l0,0c5.7,0,14.2-1.7,18.2-1.7l0,0c0.3,0,0.6,0,0.9,0l0,0c0.4,0,0.7,0.1,1.1,0.1l0,0c3.5,0,4.1-1.8,4.3-4l0,0c0-0.2,0-0.6,0-1l0,0
			c0-0.5,0-1,0-1.6l0,0c0-4.4,0.2-12.2,3.9-16.5l0,0c1.7-1.9,2.3-4.3,2.3-6.6l0,0c0-3.3-1.4-6.3-2.7-7l0,0L76,5.6c1.6,1,3,4.1,3,7.5
			l0,0c0,2.4-0.7,4.9-2.5,7l0,0c-3.5,4-3.8,11.8-3.8,16.1l0,0c0,0.6,0,1.2,0,1.6l0,0c0,0.4,0,0.8,0,1l0,0c-0.1,2.3-1.1,4.7-4.9,4.6
			l0,0c-0.4,0-0.7,0-1.1-0.1l0,0c-0.2,0-0.5,0-0.8,0l0,0c-3.9,0-12.4,1.7-18.2,1.7l0,0C45.4,45.1,43.6,44.9,42.5,44.2L42.5,44.2z"/>
	</g>
</g>
</svg>
