<?xml version="1.0" encoding="utf-8"?>
<!-- Generator: Adobe Illustrator 19.0.0, SVG Export Plug-In . SVG Version: 6.00 Build 0)  -->
<svg version="1.1" id="Layer_1_1_" xmlns="http://www.w3.org/2000/svg" xmlns:xlink="http://www.w3.org/1999/xlink" x="0px" y="0px"
	 viewBox="0 0 189 277.5" style="enable-background:new 0 0 189 277.5;" xml:space="preserve">
<style type="text/css">
	.st0{fill:#FFFFFF;}
	.st1{fill:url(#SVGID_1_);}
	.st2{fill:url(#SVGID_2_);}
	.st3{fill:#383838;}
	.st4{fill:#7C78F0;}
	.st5{fill:#484A90;}
	.st6{fill:#6461AE;}
	.st7{fill:#807A93;}
	.st8{fill:#46516E;}
	.st9{fill:#C7CDEB;}
	.st10{fill:#9790A8;}
	.st11{fill:#323142;}
	.st12{fill:#3D3C47;}
	.st13{fill:#EBEAF8;}
	.st14{fill:url(#SVGID_3_);}
	.st15{fill:url(#SVGID_4_);}
	.st16{fill:#FFDFD1;}
	.st17{fill:url(#SVGID_5_);}
	.st18{fill:url(#SVGID_6_);}
	.st19{fill:#FF7F00;}
	.st20{fill:#F1F3F3;}
	.st21{fill:url(#SVGID_7_);}
	.st22{fill:url(#SVGID_8_);}
	.st23{fill:#424C67;}
	.st24{fill:#454F6B;}
	.st25{fill:#FFA600;}
	.st26{fill:url(#SVGID_9_);}
	.st27{fill:#DEDDF5;}
	.st28{fill:#B2686B;}
	.st29{fill:url(#SVGID_10_);}
	.st30{fill:url(#SVGID_11_);}
	.st31{fill:#4F5A7A;}
	.st32{fill:#FFDDCE;}
	.st33{fill:url(#SVGID_12_);}
	.st34{fill:url(#SVGID_13_);}
	.st35{fill:url(#SVGID_14_);}
	.st36{fill:url(#SVGID_15_);}
	.st37{fill:url(#SVGID_16_);}
	.st38{fill:url(#SVGID_17_);}
	.st39{fill:url(#SVGID_18_);}
	.st40{fill:url(#SVGID_19_);}
	.st41{fill:url(#SVGID_20_);}
	.st42{fill:url(#SVGID_21_);}
	.st43{fill:url(#SVGID_22_);}
	.st44{fill:url(#SVGID_23_);}
	.st45{fill:url(#SVGID_24_);}
	.st46{fill:#E5BDA0;}
	.st47{fill:#E8BA9C;}
</style>
<g>
	<path class="st0" d="M302.6-29"/>
	<g>
		<g>
			<linearGradient id="SVGID_1_" gradientUnits="userSpaceOnUse" x1="2.7277" y1="133.516" x2="95.9932" y2="133.516">
				<stop  offset="0" style="stop-color:#A8A4B5"/>
				<stop  offset="4.279327e-003" style="stop-color:#ADA9B9"/>
				<stop  offset="2.611262e-002" style="stop-color:#C1BBCB"/>
				<stop  offset="5.078034e-002" style="stop-color:#D0C9D8"/>
				<stop  offset="8.040517e-002" style="stop-color:#D8D1E0"/>
				<stop  offset="0.1282" style="stop-color:#DBD3E2"/>
			</linearGradient>
			<path class="st1" d="M96,10.5c-0.7-4.6-8.8-9.3-14-7l0,0c-0.7,0.3-1.4,0.6-2.2,1L13.2,43C7.4,46.3,2.7,53.7,2.7,59.5v195.1
				c0,1,0.2,1.9,0.4,2.7l0,0c1,4.1,7.8,7.3,11.2,6.7l0.5-5.8L80,220.7c5.8-3.3,10.5-10.7,10.5-16.5V13.6L96,10.5z"/>
			<linearGradient id="SVGID_2_" gradientUnits="userSpaceOnUse" x1="99.1859" y1="216.2303" x2="5.6313" y2="54.1889">
				<stop  offset="0" style="stop-color:#A8A4B5"/>
				<stop  offset="4.279327e-003" style="stop-color:#ADA9B9"/>
				<stop  offset="2.611262e-002" style="stop-color:#C1BBCB"/>
				<stop  offset="5.078034e-002" style="stop-color:#D0C9D8"/>
				<stop  offset="8.040517e-002" style="stop-color:#D8D1E0"/>
				<stop  offset="0.1282" style="stop-color:#DBD3E2"/>
			</linearGradient>
			<path class="st2" d="M8.6,62.9V258c0,5.8,4.7,7.8,10.5,4.4L85.7,224c5.8-3.3,10.5-10.7,10.5-16.5V12.4c0-5.8-4.7-7.8-10.5-4.4
				L19.1,46.4C13.3,49.7,8.6,57.1,8.6,62.9z"/>
			<path class="st3" d="M9.3,64.3v193.2c0,5.7,4.6,7.7,10.4,4.4l65.9-38c5.7-3.3,10.4-10.6,10.4-16.4V14.3c0-5.7-4.6-7.7-10.4-4.4
				l-65.9,38C14,51.2,9.3,58.5,9.3,64.3z"/>
			<path class="st4" d="M11.2,63.9v192.8c0,5.4,4.4,7.2,9.8,4.1l64.9-37.5c5.4-3.1,9.8-10,9.8-15.4V15.2c0-5.4-4.4-7.2-9.8-4.1
				L21,48.5C15.6,51.6,11.2,58.5,11.2,63.9z"/>
			<path class="st4" d="M85.5,11.8l-58,33.5l-7,4c-5,2.9-9.1,9.4-9.1,14.4l0,14.9l0,41l0,60.5l0,76.5c0,5,4.1,6.8,9.1,3.9l54.1-31.2
				l10.9-6.3c5.1-2.9,9.1-9.4,9.1-14.4l0-28.2l0-41l0-42.6l0-81C94.7,10.6,90.6,8.9,85.5,11.8z"/>
			<path class="st4" d="M94,17v192.2c0,4.4-3.6,10-7.9,12.5l-65,37.5c-4.4,2.5-7.9,1-7.9-3.4V63.7c0-4.4,3.6-10,7.9-12.5l65-37.5
				C90.4,11.1,94,12.6,94,17z"/>
			<path class="st3" d="M54.7,38l1.2-0.7c1.1-0.7,2.1-2,2.3-3.2l0.7-4.7c0.2-1.4,0.6-3,1.8-3.7l1.5-0.9l-3.8,2l-7.7,4.4l-1.8,1.3
				l1-0.6c0.6-0.3,1.6,0.5,1.7,1.1l0.7,4.4C52.6,38.5,53.6,38.7,54.7,38z"/>
			<path class="st5" d="M53.6,34.9c0,1.1,0.8,1.6,1.7,1c1-0.6,1.7-1.9,1.7-3c0-1.1-0.8-1.6-1.7-1C54.3,32.5,53.6,33.8,53.6,34.9z"/>
			<path class="st6" d="M54.1,34.3c0,0.6,0.4,0.8,0.9,0.5c0.5-0.3,0.9-1,0.9-1.5s-0.4-0.8-0.9-0.5C54.5,33.1,54.1,33.8,54.1,34.3z"
				/>
			<g>
				<path class="st7" d="M9.1,250c-2.3,0-4.7-1.4-6-2.9c-0.4-0.5-1.1-1.4-1-2.2l0.7,0.1c0,0.3,0.2,0.9,0.9,1.6
					c1.2,1.3,3.4,2.7,5.5,2.7L9.1,250C9.2,250,9.1,250,9.1,250z"/>
			</g>
			<g>
				<path class="st7" d="M9.1,71.8c-2.3,0-4.7-1.4-6-2.9c-0.4-0.5-1.1-1.4-1-2.2l0.7,0.1c0,0.3,0.2,0.9,0.9,1.6
					c1.2,1.3,3.4,2.7,5.5,2.7c0,0,0,0,0.1,0L9.1,71.8C9.2,71.8,9.1,71.8,9.1,71.8z"/>
			</g>
			<g>
				<g>
					<path class="st8" d="M73.8,228.8l-60.7-47.7v-60.5L94,179.9v29.2c0,4.4-3.6,10-7.9,12.5L73.8,228.8z"/>
					<path class="st8" d="M29.4,46.4l64.6,50V139L13.1,79.6V63.7c0-4.4,3.6-10,7.9-12.5L29.4,46.4z"/>
				</g>
			</g>
			<g>
				<path class="st0" d="M89.2,18.2l-0.5,0.3V19c0,0.5-0.4,1.1-0.8,1.4l-5.5,3.2c-0.5,0.3-0.8,0.1-0.8-0.4v-2.4
					c0-0.5,0.4-1.1,0.8-1.4l5.5-3.2c0.5-0.3,0.8-0.1,0.8,0.4v0.5l0.5-0.3c0.2-0.1,0.3,0,0.3,0.2v0.6C89.5,17.8,89.4,18.1,89.2,18.2z
					"/>
			</g>
			<g>
				<g>
					<path class="st0" d="M24.7,56L24.7,56c-0.4,0.2-0.7,0.1-0.7-0.2v-3.4c0-0.3,0.3-0.8,0.6-0.9l0.1,0c0.3-0.2,0.6-0.1,0.6,0.3V55
						C25.3,55.3,25.1,55.8,24.7,56z"/>
					<path class="st0" d="M26.7,54.9L26.7,54.9C26.2,55.1,26,55,26,54.7v-2.5c0-0.3,0.3-0.8,0.6-0.9l0.1,0c0.3-0.2,0.6-0.1,0.6,0.3
						v2.5C27.3,54.2,27,54.7,26.7,54.9z"/>
					<path class="st0" d="M28.5,53.8L28.5,53.8c-0.4,0.2-0.7,0.1-0.7-0.2v-1.4c0-0.3,0.3-0.8,0.6-0.9l0.1,0c0.3-0.2,0.6-0.1,0.6,0.3
						v1.4C29.1,53.2,28.8,53.6,28.5,53.8z"/>
					<g>
						<polygon class="st0" points="20.8,54.6 21.5,54.2 21.5,58 20.8,58.5 						"/>
						<g>
							<path class="st0" d="M19.3,57.2v-2.1l2.1-1.2v2.7L19.3,57.2z M19.9,55.4v0.9l0.9-0.3v-1.2L19.9,55.4z"/>
						</g>
						<g>
							<path class="st0" d="M20.8,57v-2.8L23,53v2.2L20.8,57z M21.4,54.6v1.1l0.9-0.8v-0.8L21.4,54.6z"/>
						</g>
					</g>
				</g>
			</g>
		</g>
		<g>
			<g>
				<polygon class="st9" points="20.8,137.1 20.8,76 87.5,37.4 87.5,98.6 				"/>
			</g>
		</g>
		<g>
			<g>
				<polygon class="st9" points="20.8,200.6 20.8,146.9 87.5,108.4 87.5,162.1 				"/>
			</g>
		</g>
		<g>
			<g>
				<polygon class="st9" points="20.8,254.4 20.8,212.3 87.5,173.8 87.5,215.8 				"/>
			</g>
		</g>
		<g>
			<polygon class="st10" points="40.3,163 26.8,170.8 26.8,168.6 40.3,160.7 			"/>
			<polygon class="st10" points="50.3,157.3 44.2,160.8 44.2,158.5 50.3,155 			"/>
			<polygon class="st10" points="53.4,153.2 59.1,149.9 59.1,152.2 53.4,155.5 			"/>
			<polygon class="st10" points="47.9,163.3 58.2,157.4 58.2,159.7 47.9,165.6 			"/>
			<polygon class="st10" points="31.2,175.2 26.8,177.8 26.8,175.5 31.2,173 			"/>
			<polygon class="st10" points="44.5,167.5 34.7,173.2 34.7,170.9 44.5,165.3 			"/>
			<polygon class="st10" points="45.9,145.9 26.8,156.9 26.8,154.7 45.9,143.7 			"/>
			<polygon class="st10" points="36.9,158.1 26.8,163.9 26.8,161.6 36.9,155.8 			"/>
			<polygon class="st10" points="46.3,152.6 40.6,155.9 40.6,153.6 46.3,150.3 			"/>
		</g>
		<g>
			<polygon class="st10" points="40.3,226.8 26.8,234.6 26.8,232.3 40.3,224.5 			"/>
			<polygon class="st10" points="50.3,221 44.2,224.5 44.2,222.3 50.3,218.7 			"/>
			<polygon class="st10" points="53.4,217 59.1,213.7 59.1,216 53.4,219.2 			"/>
			<polygon class="st10" points="47.9,227.1 58.2,221.1 58.2,223.4 47.9,229.3 			"/>
			<polygon class="st10" points="31.2,239 26.8,241.5 26.8,239.3 31.2,236.7 			"/>
			<polygon class="st10" points="44.5,231.3 34.7,236.9 34.7,234.7 44.5,229 			"/>
			<polygon class="st10" points="45.9,209.7 26.8,220.7 26.8,218.4 45.9,207.4 			"/>
			<polygon class="st10" points="36.9,221.8 26.8,227.6 26.8,225.4 36.9,219.6 			"/>
			<polygon class="st10" points="46.3,216.4 40.6,219.6 40.6,217.4 46.3,214.1 			"/>
		</g>
		<g>
			<path class="st11" d="M60.6,252.3c-1.7-0.6-2.1-0.7-2.6,0c-0.5,0.7-1,1.3-0.9,3.3c0.1,2.1,0.3,2.6,1.1,3.6
				c0.8,1.1,1.8,2.3,3.8,3.3c2,0.9,3,1.8,3,1.8s3.9,3.9,7.2,3.9c3.2,0,3.8-1.4,4.2-1.9c0.3-0.5,0.2-1.5,0.1-2.1
				c-0.2-0.6-2.1-2.3-2.4-2.8C73.7,261.1,60.6,252.3,60.6,252.3z"/>
			<path class="st11" d="M81.4,255.9c-1.2,0-1.4-0.1-1.8,0.6c-0.3,0.6-0.7,1.1-0.7,1.9c0,0.8,0.1,2.7,0.7,3.8
				c0.6,1.1,2.5,2.8,2.7,3.1c0.2,0.3,1.8,3.8,2.2,5.3c0.4,1.5,1.4,3.3,3.4,4c2,0.7,4.9,0,5.3-1.2c0.3-1.3,0.5-2.5,0.3-3
				c-0.2-0.5-0.9-3-1.2-3.4C92,266.6,81.4,255.9,81.4,255.9z"/>
			<g>
				<g>
					<g>
						<polygon class="st3" points="38.2,107.5 38.2,76.7 71.8,57.3 71.8,88.1 						"/>
					</g>
				</g>
				<g>
					<g>
						<polygon class="st3" points="39.4,77.4 38.2,76.7 71.8,57.3 73,58 						"/>
						<g>
							<g>
								<polygon class="st3" points="38.2,107.5 38.2,76.7 39.4,77.4 39.4,108.2 								"/>
							</g>
						</g>
					</g>
				</g>
				<g>
					<g>
						<polygon class="st12" points="39.4,108.2 39.4,77.4 73,58 73,88.8 						"/>
					</g>
				</g>
				<g>
					<g>
						<path class="st13" d="M50.8,90.6L50,92L46.4,90l3.6-6.2l0.8,0.5L48.1,89L50.8,90.6z"/>
						<path class="st13" d="M58.4,75.9l1.1,0L54,91.5l-1.1,0L58.4,75.9z"/>
						<path class="st13" d="M64.3,79.7l-2.8-1.6l0.8-1.5l3.6,2.1l-3.6,6.2l-0.8-0.5L64.3,79.7z"/>
					</g>
				</g>
			</g>
			<linearGradient id="SVGID_3_" gradientUnits="userSpaceOnUse" x1="71.9988" y1="107.0695" x2="88.7895" y2="107.0695">
				<stop  offset="0" style="stop-color:#FFDBA7"/>
				<stop  offset="1" style="stop-color:#FFC5A4"/>
			</linearGradient>
			<path class="st14" d="M88.8,133.6c0,1.7-0.3,2-1.1,3c0,0-6.2-2.7-6.9-3.9c-0.5-0.8-1.3-6.6-1.8-11.7c-0.3-2.8-0.6-5.3-0.6-6.6
				c-0.2-3.6-4.3-20.9-4.3-20.9S74,93,73.3,92.6c-0.7-0.4-1.2-1.8-1.3-2.3c0-0.4-0.2-1.3,0-2.5c0-0.3,0.1-0.5,0.2-0.8
				c0.4-1.7,0.8-5.1,0.8-5.1l-0.2-2.9l-0.1-1.4c0,0,1.1,1.1,1.2,1.3c0.1,0.2,1,2.8,1.7,4.6c0.7,1.8,1.2,5.6,1.4,5.9
				c0.2,0.3,6.7,15.4,7.1,17.4c0.5,2,1.4,7.1,2,9.4C86.8,118.4,88.8,131.9,88.8,133.6z"/>
			<linearGradient id="SVGID_4_" gradientUnits="userSpaceOnUse" x1="70.8834" y1="85.2428" x2="75.9062" y2="85.2428">
				<stop  offset="0" style="stop-color:#FFDBA7"/>
				<stop  offset="1" style="stop-color:#FFC5A4"/>
			</linearGradient>
			<path class="st15" d="M75.3,85.3c-0.5-0.7-1.3-1.5-1.7-2.3c-0.3-0.7-1.3-2-1.3-2s-0.4-1.2-0.8-1.2c-0.4,0.1-0.7,0.3-0.7,0.9
				c0,0.6,0,1.4,0.3,1.9c0.2,0.4,1.2,2.1,1.2,2.1l0.1,1c0,0-0.3,1.2-0.2,2.2c0.1,1,0.4,2.1,1.1,2.5c0.7,0.5,2.3,0.1,2.5-1.6
				C76,87.2,75.9,86.4,75.3,85.3z"/>
			<path class="st16" d="M80.9,115.6c-1.4,1.1-1.6,3.1-1.8,4.9c0,0.2,0,0.4,0,0.5c-0.3-2.8-0.6-5.3-0.6-6.6
				c-0.2-3.6-4.3-20.9-4.3-20.9S74,93,73.3,92.6c-0.7-0.4-1.2-1.8-1.3-2.3c0-0.4-0.2-1.3,0-2.5c0.1,0.3,0.1,0.9,0.1,1.1
				c0.1,0.5,0.2,0.9,0.4,1.4c0.4,1.1,1.2,2,1.8,3c0.5,0.9,0.7,1.9,1,2.8c1.2,4.6,2.4,9.2,2.8,13.9c0.1,1.1,0.2,2.3,0.5,3.3
				C79.1,114.3,79.8,115.3,80.9,115.6z"/>
			<linearGradient id="SVGID_5_" gradientUnits="userSpaceOnUse" x1="75.6565" y1="103.0246" x2="84.6464" y2="103.0246">
				<stop  offset="0" style="stop-color:#FFDFB0"/>
				<stop  offset="1" style="stop-color:#FFCBAD"/>
			</linearGradient>
			<path class="st17" d="M77.3,91.3c-0.2-0.3-0.5-0.5-0.7-0.5c-0.3,0-0.6,0.3-0.7,0.7c-0.5,1.3-0.2,2.9,0.2,4.2
				c1.2,4.9,2.5,9.8,3.7,14.8c0.3,1,0.5,2,1,3c0.9,1.6,3.7,3.1,3.8,0.2c0.1-2.9-0.7-5.8-1.7-8.6c-0.9-2.6-1.9-5.1-2.9-7.6
				c-0.5-1.2-1-2.5-1.6-3.7C78.2,93.3,77.9,92,77.3,91.3z"/>
			<linearGradient id="SVGID_6_" gradientUnits="userSpaceOnUse" x1="80.7644" y1="122.7249" x2="87.8107" y2="122.7249">
				<stop  offset="0" style="stop-color:#FFDFB0"/>
				<stop  offset="1" style="stop-color:#FFCBAD"/>
			</linearGradient>
			<path class="st18" d="M84,112.3c-0.3-0.5-0.7-1.1-1.2-1.3c-0.8-0.2-1.6,0.5-1.9,1.2c-0.3,0.8-0.1,1.6,0,2.4c0.3,2.6,0,5.3,0.2,8
				c0.2,3.2,1.1,6.3,2.1,9.3c0.1,0.3,0.2,0.7,0.5,1c0.2,0.3,0.5,0.4,0.8,0.6c0.9,0.5,1.9,0.8,3,1c0.4-0.8,0.4-1.8,0.4-2.7
				c-0.1-2.7-0.4-5.4-0.8-8c-0.4-2.5-0.8-5.1-1.4-7.6C85.2,114.8,84.7,113.5,84,112.3z"/>
			<path class="st19" d="M87.7,133.6c-2.1-1.7-3.4-2.8-5.8-1.7c-2.4,1.2-4,5.8-4.1,7.8c-0.1,2,7.3,14.2,8.1,11
				c0.9-3.1,2.7-6.6,3.1-10c0.4-3.5,0.1-5.2-0.2-5.7C88.5,134.5,87.7,133.6,87.7,133.6z"/>
			<path class="st20" d="M86.2,256.3c-1.1-1-4.1-1.7-5.7-0.6c-1.7,1.1-1.6,2.8-0.6,5.1c1.1,2.3,3.7,5.4,4.1,6.5
				c0.4,1.1,1.6,4.7,4.1,5.4c2.5,0.7,4.8-0.1,4.8-1.9c0.1-1.9-0.4-6.5-0.4-6.5s-0.9-3.3-2-4.9C89.5,257.8,86.2,256.3,86.2,256.3z"/>
			<path class="st20" d="M66.9,253.6c-1-0.9-6.6-2.3-6.6-2.3s-1.9-0.2-2.5,2c-0.5,2.2-0.4,3,0.3,4.1c0.7,1.1,2,2.7,4,3.4
				c2,0.8,4.2,2.6,4.8,2.9c0.6,0.3,2.8,3.3,6.3,3.2c3.5-0.1,2.8-3.1,2.8-3.1s0.1-3.9-0.5-4.7c-0.6-0.8-4-3.5-4-3.5L66.9,253.6z"/>
			<linearGradient id="SVGID_7_" gradientUnits="userSpaceOnUse" x1="82.5254" y1="260.7704" x2="92.2924" y2="260.7704">
				<stop  offset="0" style="stop-color:#FFDBA7"/>
				<stop  offset="1" style="stop-color:#FFC5A4"/>
			</linearGradient>
			<path class="st21" d="M85.2,256.1c-0.7,3.6-2,2.4-2,2.4s-1.4-0.1-0.3,2.7c1.1,2.8,2.3,4.6,4.8,5c2.5,0.4,4.5,0.3,4.5-1.3
				c0-1.6-0.5-4.9-0.5-4.9l0.1-4.9L85.2,256.1z"/>
			<linearGradient id="SVGID_8_" gradientUnits="userSpaceOnUse" x1="64.6437" y1="257.6077" x2="73.5064" y2="257.6077">
				<stop  offset="0" style="stop-color:#FFDBA7"/>
				<stop  offset="1" style="stop-color:#FFC5A4"/>
			</linearGradient>
			<path class="st22" d="M66.7,253.8c0,0,0.2,1.2-1.1,1.8s-1.1,1.4-0.1,3c1.1,1.6,4,2.5,4.8,2.7c0.7,0.2,2.8,0.2,3.1-1.2
				c0.3-1.4-0.3-3.8-0.3-3.8L66.7,253.8z"/>
			<path class="st23" d="M64.7,173.7c4.7-3,14.3-6,16.6-0.3c2.3,5.7,6.2,16.1,6.6,19.9c0.4,3.8,0,6.3-0.1,7.3
				c-0.2,1.1-0.2,12.1,0.2,15.2c0.4,3.2,1.8,10,2,11c0.1,1,1.8,7.8,2.5,13.6c0.7,5.8,1.9,14.3,1.3,17.2c-0.6,2.9-3.6,3-5.7,2.1
				c-2.2-0.9-3.2-1.5-3.3-2.3c-0.1-0.8-3.8-16.7-5.2-21c-1.3-3.8-1.3-5.3-1.4-6c-0.1-0.6-7-21.3-7-21.7c-0.1-0.3-3.1-18.4-3.1-18.4
				L64.7,173.7z"/>
			<path class="st24" d="M85.1,198c0.6-0.7,0.8-1.6,0.9-2.5c0.7-4.1-0.4-8.4-2.1-12.2c-0.8-1.7-1.9-3.6-3.8-3.9c-1-0.2-2,0.1-3,0.6
				c-0.5,0.2-1.1,0.5-1.5,1c-0.4,0.5-0.5,1-0.6,1.6c-0.4,3,1.2,5.8,1.7,8.8c0.3,1.7,0.3,3.5,0.2,5.2c0,0.9-0.1,1.8-0.1,2.6
				c0,1-0.1,1.5,0.9,1.6c1.3,0.2,2.3-0.5,3.5-0.9C82.8,199.6,84.2,199.2,85.1,198z"/>
			<path class="st23" d="M54.2,171.8c-0.4,1.5-1.4,7.4-1.9,11c-0.5,3.6,0.4,15.7,2,22.7c1.6,7,7.3,25.1,7.6,26.6
				c0.3,1.5,3.8,23,4.1,23.6s0.5,2.5,3.5,3.3c3,0.8,5.2-0.1,5.5-1.1c0.3-1.1-0.2-27.3-0.3-30c-0.1-2.7-3.2-19.7-2.9-22
				c0.3-2.3,3.8-5.7,4.1-10.3c0.3-4.6-1.6-18.3-4-20.8c-2.4-2.6-11.4-6.1-12-6.6C59.4,167.8,54.2,171.8,54.2,171.8z"/>
			<path class="st24" d="M73.6,227.3c-0.1-0.9-0.3-1.8-0.8-2.6c-0.6-0.8-1.6-1.2-2.6-1.3c-1,0-2,0.3-2.9,0.7c-0.6,0.3-1.1,0.6-1.5,1
				c-1.4,1.3-1.9,3.3-1.8,5.2c0.1,1.9,0.6,3.7,1.1,5.6c1.5,6.2,1.6,12.6,2.5,18.9c0.1,0.5,0.1,1,0.4,1.4c0.6,1,1.9,1.3,3.1,1.4
				c0.8,0.1,1.6,0.1,2.4,0.1c0.2,0,0.4,0,0.6-0.2c0.2-0.2,0.2-0.5,0.2-0.8c-0.1-5.1-0.2-10.1-0.2-15.2
				C73.9,236.9,74.2,232,73.6,227.3z"/>
			<path class="st24" d="M70.5,203.9c-0.1-1.1-0.2-2.3-1-3.1c-0.8-0.8-2.1-0.9-3.2-1c-0.9-0.1-1.7-0.1-2.6-0.2
				c-1.6-0.1-3.3-0.2-4.6,0.7c-1,0.7-1.7,1.9-1.9,3.1c-0.2,1.2,0,2.5,0.2,3.7c0.5,2.2,1.4,4.3,2.1,6.5c1.7,5.3,2.4,10.9,4.1,16.2
				c0.4,1.2,0.8,2.4,1.8,3.1c0.5,0.4,1.2,0.6,1.8,0.8c1,0.2,2,0.2,2.9-0.3c0.6-0.3,1.1-0.9,1.6-1.4c0.7-0.8,1.4-1.6,1.7-2.6
				c0.6-1.7-0.2-3.5-0.5-5.2c-0.4-1.6-0.5-3.2-0.7-4.8c-0.2-3-0.7-5.9-1-8.9C70.9,208.2,70.7,206.1,70.5,203.9z"/>
			<path class="st24" d="M73.6,186.7c-0.2-1-0.5-2-0.9-3c-0.1-0.4-0.3-0.9-0.6-1.2c-0.4-0.3-0.9-0.5-1.4-0.5
				c-4.2-0.6-8.5,0.8-12.7,0.5c-0.9-0.1-2-0.2-2.6,0.5c-0.5,0.5-0.6,1.2-0.6,1.9c-0.3,3.9,0.1,7.9,0.5,11.8c0.1,1.5,0.3,2.9,0.6,4.3
				c0.3,1.3,0.9,2.6,1.9,3.6c0.7,0.6,1.5,1.1,2.3,1.6c0.7,0.4,1.5,0.8,2.3,0.9c0.8,0.1,1.7-0.1,2.4-0.4c2.6-0.8,5.6-2.3,6.7-4.9
				c1.2-2.9,2.2-6,2.4-9.2C74.1,190.5,74,188.6,73.6,186.7z"/>
			<path class="st11" d="M53.2,177.5c0,0-0.9,1.7,9,2.1c9.9,0.4,14.3-1.7,16.4-3.5s2.8-2.7,2.8-2.7l-0.3-3.7l-27,3L53.2,177.5z"/>
			<g>
				<path class="st23" d="M55.1,180.6c-0.5-1.9-0.5-3.9,0-5.8l1.7,0.5c-0.4,1.5-0.5,3.2,0,4.8L55.1,180.6z"/>
			</g>
			<g>
				
					<rect x="69" y="175.3" transform="matrix(0.1709 0.9853 -0.9853 0.1709 233.6911 74.6415)" class="st23" width="6.9" height="1.8"/>
			</g>
			<path class="st25" d="M85.5,153c-1.6,5-3.1,5.6-3.9,10.3c-0.8,4.7-1.1,7.6-1.5,8.3c-0.4,0.7-3.3,3.3-9,4.3
				c-5.3,0.9-12.7,0.2-16.1-1.4c-0.3-0.1-0.6-0.3-0.8-0.5c-0.5-0.8,0.3-12.3-0.2-14.4c-0.4-2.1-1.4-3.3-0.4-7.4
				c0.5-2.2,2.3-5.1,4.2-7.4c1.6-2,3.2-3.5,4.1-3.7c1.9-0.4,2.9-1.1,3.8-1.3c0.9-0.2,7.8-1.9,10.1-1.5c2.3,0.5,5,0.8,7.2,3
				C85.1,143.5,87.1,148,85.5,153z"/>
			<linearGradient id="SVGID_9_" gradientUnits="userSpaceOnUse" x1="63.3894" y1="128.6664" x2="77.7036" y2="128.6664">
				<stop  offset="0" style="stop-color:#FFDBA7"/>
				<stop  offset="1" style="stop-color:#FFC5A4"/>
			</linearGradient>
			<path class="st26" d="M66,134c0.2,1.1,0.2,2-0.3,3.6c-0.5,1.6-0.6,2.2-0.7,2.5c0,0.2,4.2,0.5,5.5,0.9c1.3,0.4,4.6,0.6,5.1,0.2
				c0.5-0.5,1.9-1.5,2-2.1c0.1-0.6-0.3-4.5-0.3-4.5s-1-18.8-4.3-18.5c-3.3,0.4-6.3,3.3-6.8,4.2c-0.5,0.8-0.5,2.6-0.8,2.8
				c-0.3,0.3-1.4,1.3-1.7,2.3c-0.3,1-0.4,5.5-0.1,6.5C63.9,132.9,65.9,133.4,66,134z"/>
			<path class="st27" d="M73.5,141.9c0.4,0.6,0.9,1.1,1.1,1.7c0.2,0.5,0.1,1,0.1,1.5c-0.2,5.3-0.9,10.6-1.1,16
				c-0.2,5.1-0.1,10.1,0.4,15.2c0,0.2,0,0.3,0.1,0.4c0.2,0.3,0.7,0.3,1,0c0.3-0.3,0.4-0.7,0.4-1c0.8-4.7,0.5-9.5,1-14.2
				c0.3-3.3,1-6.6,1.1-9.9c0-2.3-0.2-4.5-0.3-6.8c-0.1-1.5-0.1-3.1-0.5-4.6c-0.4-1.3-1.8-3.7-3.5-3.2
				C71.3,137.7,72.8,140.9,73.5,141.9z"/>
			<path class="st28" d="M68.6,118.5c0,0.2-2.1,3.5-2.2,5.9c-0.1,2.3-0.4,4.6-0.4,4.6l0.4,1.3c0,0,0.9,0,1.4,1.5
				c0.5,1.5,0.9,3.3,1.5,4.7c0.6,1.4,2.7,2.4,3.5,3.1c0.8,0.7,2.9,1,3.6,1.6c0.7,0.6,2.1-0.3,2.1-0.3s1-2,3-4.4
				c2.1-2.4,4.2-6.1,3.6-10.5c-0.6-4.4-4.8-9.2-8.1-10.5c-3.5-0.8-4.5,0.3-4.5,0.3S70.1,115.4,68.6,118.5z"/>
			<linearGradient id="SVGID_10_" gradientUnits="userSpaceOnUse" x1="65.236" y1="131.5951" x2="67.3942" y2="131.5951">
				<stop  offset="0" style="stop-color:#FFDFB0"/>
				<stop  offset="1" style="stop-color:#FFCBAD"/>
			</linearGradient>
			<path class="st29" d="M65.3,133.2c0,0,0.6,0.5,1.3-0.3c0.7-0.8,0.9-1.7,0.6-2.7c-0.3-1-0.9,0.1-1.3,0.6
				C65.7,131.3,65,132.4,65.3,133.2z"/>
			<linearGradient id="SVGID_11_" gradientUnits="userSpaceOnUse" x1="36.47" y1="111.8302" x2="57.0417" y2="111.8302">
				<stop  offset="0" style="stop-color:#FFDBA7"/>
				<stop  offset="1" style="stop-color:#FFC5A4"/>
			</linearGradient>
			<path class="st30" d="M56.9,145.1l-4.7,1.5l-0.7,0.2c-2.4-2.8-5.7-10.2-7.4-14.4c-1.7-4.2-3.7-11.7-4.1-12.9
				c-0.4-1.2-1.9-9-2.3-14c-0.4-4.9-0.8-9.5-0.9-11c-0.1-1.5-0.3-5.1-0.3-5.7c0-0.7,0.7-1.4,0.7-1.4s0-2.8,0-3.4
				c0-0.5,0.4-1,0.4-1.2c0-0.1,0-0.8,0-1.7c0-1.1,0-2.4-0.1-2.6c-0.1-0.4-0.6-1.3-0.4-1.7c0.1-0.3,1,0,1.1,0.1
				c0.1,0.1,0.2,0.3,0.2,0.4c0,0,0,0,0,0c0,0.1,0.1,0.2,0.1,0.2s0,0,0,0c0.1,0,0.6,0.2,1,0.7c0.2,0.3,0.6,1.1,0.9,1.8
				c0.3,0.7,0.5,1.3,0.5,1.3s0.8,3.9,1,4.6c0.2,0.7,0.5,2,0.5,2l0.5,0.2l0.1-0.2l0.9-2.8c0,0,0.9-1.5,1.5-1.8
				c0.6-0.3,1.2,0.1,0.9,0.9c-0.2,0.8-1,2.5-1,2.5l-0.6,2.5c0,0-0.3,1.2-0.8,2.1c-0.5,0.9-1.5,1.9-1.5,1.9l-0.5,1.7
				c0,0,0.6,3.7,0.9,4.9c0.3,1.2,2.1,7.6,2.7,9c0.6,1.4,2,8.9,2.4,9.8c0.4,0.8,3.3,8.9,3.9,10.1c0.6,1.3,4.6,5.9,5.1,6.7
				C57.3,136.3,56.9,145.1,56.9,145.1z"/>
			<g>
				<path class="st31" d="M64.1,201.3l-7.4-2.7l-0.9-11.7l14.3-1.1l0.2,12.5L64.1,201.3z M57.5,197.9l6.5,2.4l5.3-2.5l-0.2-11
					l-12.4,1L57.5,197.9z"/>
			</g>
			<g>
				<path class="st31" d="M82.9,195.9l-5.2-12.4l0.4-0.2c1.9-0.7,4.9-2.2,5.3-3.3l0.8,0.3c-0.6,1.5-4.1,3.1-5.4,3.6l4.5,10.9
					l2.9-0.6l0.9-2.2l0.8,0.3l-1.1,2.7L82.9,195.9z"/>
			</g>
			<path class="st27" d="M72.7,177.3c-0.2,0.1,0.6,4.2,0.6,4.2s1.7,8.6,2.3,11.1c0.5,2.5-0.4,6.7-0.4,6.7L72.7,177.3z"/>
			<g>
				<path class="st31" d="M65.3,183.1c-0.4,0-0.8,0-1.2,0c-9.4-0.2-11.7-1.3-11.8-1.4l0.4-0.8c0,0,2.4,1.1,11.4,1.3
					c8.7,0.2,11-1.4,13.1-2.8l0.7-0.5c2-1.3,2.8-1.8,3.5-4.1l0.9,0.3c-0.8,2.6-1.9,3.2-3.9,4.6l-0.7,0.5
					C75.7,181.5,73.3,183.1,65.3,183.1z"/>
			</g>
			<g>
				<path class="st31" d="M66.7,257.8c0-0.2-3.3-19.5-4.1-24.3c-0.9-4.7-1.5-7.6-5.2-17.7c-2.8-7.6-4.4-16.6-4.7-26.8
					c-0.2-6.3,1.1-12.2,1.2-12.2l0.9,0.2c0,0.1-1.3,5.9-1.1,12c0.3,10.1,1.9,19,4.6,26.5c3.8,10.1,4.4,13.1,5.2,17.8
					c0.9,4.8,4.1,24.1,4.1,24.3L66.7,257.8z"/>
			</g>
			<path class="st24" d="M86.3,200.2c-0.7-0.7-1.6-1.1-2.6-1.2c-1.8-0.3-3.6,0.1-5.3,0.8c-0.4,0.2-0.8,0.3-1.1,0.7
				c-0.3,0.3-0.5,0.7-0.6,1.1c-0.6,1.8-0.5,3.8-0.2,5.7s1,3.7,1.5,5.5c1.8,6.2,2.8,12.7,6.2,18.2c0.3,0.4,0.6,0.9,1,1.2
				c0.4,0.3,1,0.5,1.5,0.3c0.6-0.2,0.9-0.9,1.1-1.5c0.7-2.2,0.6-4.6,0.3-6.9c-0.3-2.3-1.2-4.7-1.3-7c-0.1-2.6-0.2-5.1-0.3-7.7
				c-0.1-1.8,0.1-3.5,0.2-5.3C86.9,202.6,87.5,201.4,86.3,200.2z"/>
			<path class="st24" d="M87.9,224.1c-0.2-0.7-0.6-1.5-1.3-1.8c-0.3-0.1-0.7-0.1-1,0c-1.9,0.4-3.3,2.3-3.6,4.2
				c-0.3,2,0.2,3.9,0.6,5.9c1.2,4.8,2,9.9,2.7,14.9c0.3,2,0.5,4.1,0.8,6.1c0.2,1.8,0.1,3.5,0.4,5.3c1.7,0.9,3.8,0.9,5.5,0.2
				c0.2-0.1,0.5-0.2,0.6-0.4c0.2-0.2,0.3-0.5,0.3-0.8c0.3-1.8,0-3.7-0.3-5.5c-0.3-1.9-0.4-3.8-0.7-5.7
				C90.9,239,90.4,231.4,87.9,224.1z"/>
			<path class="st32" d="M55.2,154.5c-0.6,1.5-0.4,3.1-0.2,4.6c0.5,3.9,1.1,7.8,0.6,11.7c-0.2,1.2-0.4,2.4-0.7,3.6
				c-0.3-0.1-0.6-0.3-0.8-0.5c-0.5-0.8,0.3-12.3-0.2-14.4c-0.4-2.1-1.4-3.3-0.4-7.4c0.5-2.2,2.3-5.1,4.2-7.4
				c0.2,0.1,0.4,0.3,0.5,0.5c1.4,1.6,0.3,4.2-0.6,5.7C56.8,152.1,55.7,153.1,55.2,154.5z"/>
			<linearGradient id="SVGID_12_" gradientUnits="userSpaceOnUse" x1="38.1001" y1="108.1223" x2="45.9231" y2="108.1223">
				<stop  offset="0" style="stop-color:#FFDFB0"/>
				<stop  offset="1" style="stop-color:#FFCBAD"/>
			</linearGradient>
			<path class="st33" d="M40.2,95.8c-0.4-0.5-0.9-0.7-1.6,0c-1,1-0.4,3.4-0.2,4.6c0.8,5.4,1.2,10.8,2.2,16.1c0.2,1,0.4,2,0.9,2.9
				c0.5,0.9,1.4,1.6,2.5,1.6c0.6,0,1.2-0.2,1.5-0.7c0.2-0.3,0.2-0.6,0.2-1c0.2-1.8,0-3.6-0.3-5.4c-0.3-2-1.3-3.8-1.8-5.7
				c-0.6-2.1-1.3-4.2-1.8-6.4C41.5,99.8,41.5,97.4,40.2,95.8z"/>
			<linearGradient id="SVGID_13_" gradientUnits="userSpaceOnUse" x1="42.735" y1="131.1982" x2="56.7215" y2="131.1982">
				<stop  offset="0" style="stop-color:#FFDFB0"/>
				<stop  offset="1" style="stop-color:#FFCBAD"/>
			</linearGradient>
			<path class="st34" d="M52.5,143.2c0.1,0.1,0.2,0.1,0.4,0.1c0.2,0,0.4-0.5,0.6-0.6c0.3-0.3,0.7-0.4,1-0.6c0.7-0.5,1.3-1.1,1.7-1.8
				c0.3-0.4,0.5-0.9,0.5-1.4c0.1-1.3-1-2.4-1.9-3.4c-1.8-2-3-4.4-4.2-6.8c-1.1-2.3-2.6-4.3-3.3-6.8c-0.2-0.7-0.5-1.4-0.9-2.1
				c-0.1-0.2-0.2-0.4-0.4-0.5c-0.3-0.2-0.7-0.2-1-0.2c-1.1,0.2-1.8,1.2-2.1,2.2c-0.5,1.9,0.8,4,1.5,5.8c0.8,2.1,1.7,4.2,2.6,6.3
				c0.4,0.9,0.8,1.8,1.2,2.7c0.9,1.8,2,3.6,3.1,5.3C51.5,141.8,52,142.9,52.5,143.2z"/>
			<path class="st16" d="M38.1,78.7c-0.1-0.5,0.1-0.8,0.2-1.2c0,0.1,0.1,0.2,0.1,0.2s0,0,0,0c-0.1,0.4-0.2,0.7-0.1,1.1
				c0,0.3,0.2,0.6,0.3,1c0.8,2.1,0.8,4.4,0.7,6.6c-0.1-0.5-0.2-1.1-0.2-1.6c-0.1-0.8,0-1.6-0.1-2.3c-0.1-0.4-0.2-0.9-0.3-1.3
				C38.5,80.3,38.3,79.5,38.1,78.7z"/>
			<path class="st16" d="M42.3,88.5C42.3,88.6,42.3,88.6,42.3,88.5C42.3,88.6,42.3,88.6,42.3,88.5z"/>
			<path class="st16" d="M41.1,84.3c-0.4-1.2-0.8-2.6-0.8-3.9c0-0.1,0-0.1,0-0.2c0.3,0.7,0.5,1.3,0.5,1.3s0.8,3.9,1,4.6
				c0.2,0.7,0.5,2,0.5,2l0.5,0.2l0.1-0.2c0,0.2-0.1,0.4-0.1,0.5c0,0.1-0.1,0.2-0.2,0.3c-0.1,0.1-0.2,0-0.2-0.1c0,0,0-0.1,0-0.1
				c0,0,0,0-0.1,0c-0.3-1-0.5-2-0.8-3C41.4,85.1,41.3,84.7,41.1,84.3z"/>
			<path class="st16" d="M52.2,146.6l-0.7,0.2c-2.4-2.8-5.7-10.2-7.4-14.4c-1.7-4.2-3.7-11.7-4.1-12.9c-0.4-1.2-1.9-9-2.3-14
				c-0.4-4.9-0.8-9.5-0.9-11c-0.1-1.5-0.3-5.1-0.3-5.7c0-0.7,0.7-1.4,0.7-1.4s0-2.8,0-3.4c0-0.5,0.4-1,0.4-1.2c0-0.1,0-0.8,0-1.7
				c0.1,1,0.2,2,0.2,3c0.1,1.2,0.2,2.6,0.1,3.8c-0.1,1-0.1,2.1-0.7,3c-0.3,0.5-0.3,0.6-0.3,1.2c0,0.5-0.2,1.1-0.1,1.6
				c0.1,0.9,0.2,1.7,0.3,2.6c0.1,0.7,0.1,1.5,0.3,2.1c0.3,1.2,0.3,2.4,0.4,3.7c0.1,1.4,0.3,2.8,0.5,4.2c0.6,3.9,1.9,7.3,1.9,11.3
				c0,2.2,0.5,4.4,1.4,6.4c0.3,0.6,0.6,1.2,0.8,1.8c0.3,0.8,0.4,1.6,0.6,2.5c0.2,0.9,0.6,1.8,0.9,2.7c1.7,4.5,3.6,8.9,6.3,12.9
				C50.8,144.8,51.5,145.7,52.2,146.6z"/>
			<path class="st28" d="M76.1,140.7c-0.8,0.8-1.3,3.2-1.1,5.8c0.3,2.5-1.3,9.6-1.1,13.2c0.2,3.6-0.9,16.8-0.9,16.8s1,4.6,3.6,6.3
				c2.6,1.6,4.7-9.4,4.7-9.4s1.1-6.8-0.3-13c-1.4-6.2-1.1-13.2-1.7-15c-0.6-1.8-0.5-4-0.5-4L76.1,140.7z"/>
			<path class="st19" d="M63.2,141.9c0,0-0.5,3.3-3.2,6.4c-2.6,3.1-6.7,4.3-6.7,4.3s-0.2-3.8-2.2-5.3c-0.4-4.1,5.8-11.7,6.2-11.8
				C57.7,135.3,63.2,141.9,63.2,141.9z"/>
		</g>
		<g>
			<g>
				<path class="st11" d="M154.8,218.2c0,0,1.5,1,1.7,1.7c0.2,0.6,0.3,2,0.1,2.3c-0.1,0.3-1.9,1.6-2.9,1.9c-1,0.4-2.1,0.8-2.5,1.2
					c-0.4,0.4-2.4,2.5-3.5,3.1c-1.2,0.6-3.8,2.7-6.1,2.6c-2.4,0-3.2-1.9-3.6-2.4c-0.3-0.5-0.3-1.9,0.2-2.8
					C138.8,225,154.8,218.2,154.8,218.2z"/>
				<path class="st11" d="M174.4,226c1.1,0.3,1.6,0.9,1.6,0.9s0.1,1.4,0.1,2c0,0.6-1.3,3.3-1.5,4.4c-0.1,1.1-0.6,4.5-2.8,6.1
					c-2.2,1.6-4.9,1.4-6.8,1.2c-1.9-0.2-2.2-1.2-2.3-1.5c-0.1-0.3,0.1-1.7,0.3-2.2c0.2-0.5,2.1-4.5,2.1-4.5L174.4,226z"/>
				<path class="st20" d="M155.2,217.2c0.6,0.3,1.1,2.1,1.1,3c0,0.9-2,2-2.6,2.3c-0.6,0.3-4,2.6-5.3,3.8c-1.3,1.2-4.8,4.1-7.5,3.4
					s-2.9-1.7-2.7-3.2c0.2-1.4,0.8-2.6,1.7-3.2c0.9-0.6,5.3-3.9,5.8-4.3c0.6-0.4,2.1-1,2.4-2.1c0.3-1.1,4.9-1.5,4.9-1.5L155.2,217.2
					z"/>
				<path class="st20" d="M175.6,223.7c0.2,1.3,0.2,2.6,0.2,3.5c0,0.9-1.1,3.3-1.4,4.6c-0.3,1.4-0.7,4.4-3.1,6
					c-2.5,1.6-5.2,1.5-6.5,1.1c-1.3-0.4-1.5-0.9-1.4-1.8c0-0.8,0.2-1.9,0.9-3.1s2.2-4.8,2.3-5.1c0.1-0.3,1-2.7,1.4-3.5
					c0.5-0.7,5-3.8,5-3.8L175.6,223.7z"/>
				<linearGradient id="SVGID_14_" gradientUnits="userSpaceOnUse" x1="121.24" y1="143.1617" x2="147.7547" y2="143.1617">
					<stop  offset="0" style="stop-color:#FFDBA7"/>
					<stop  offset="1" style="stop-color:#FFC5A4"/>
				</linearGradient>
				<path class="st35" d="M147.8,127.1c-0.5,1.9-1,3.2-2.8,5c-1.8,1.7-3.4,4.4-3.8,5.3c-0.4,0.9-3,4.8-5.8,8.2
					c-2.9,3.5-7.4,9.2-7.9,9.7c-0.5,0.5,0.2,1.3,0.3,1.9c0.1,0.6,0.8,3.8,0.9,4.2c0.1,0.4,0.2,0.6,0.2,0.6l1.8,1.9l0.9,0.9
					c0,0,0.2,0.5,0.2,0.8c0,0,0,0,0,0.1c-0.1,0.2-0.5,0.3-0.5,0.3l-0.1,0l-0.2-0.1c0,0-0.3,0.2-0.7-0.1c-0.2-0.2-0.6-0.4-0.9-0.5
					c-0.2-0.1-0.4-0.2-0.4-0.2s-0.2,0.1-0.4,0.2c-0.2,0-0.3,0.1-0.5,0c-0.4-0.2-2.7-0.9-3.1-1.1c-0.4-0.2-2.3-1.2-2.9-2.1
					c0,0,0-0.1-0.1-0.1c-0.5-0.9-0.5-2.7-0.5-2.7s0.1-0.6,0.1-1.3c0.1-1.1,0.3-2.5,0.4-2.7c0.1-0.3,0.5-1.4,0.5-1.4s0.4-1.1,0.6-1.4
					c0.2-0.3,8.1-14.8,8.8-15.9c0.7-1.1,4.2-5.6,4.9-6.3c0.7-0.7,2.9-3.9,3.2-4.3c0.4-0.4,5.5-6.4,6.5-5.2
					C147.6,121.8,147.8,127.1,147.8,127.1z"/>
				<path class="st16" d="M125.8,157c-0.2,0.9-1,1.4-1.9,1.3c-0.2,0-0.4,0-0.6,0c-0.2,0.1-0.4,0.3-0.6,0.5c-0.2,0.2-0.6,0.4-0.8,0.7
					c-0.2,0.3-0.2,0.7-0.2,1.1c0,0.4,0,0.8,0.1,1.1c0,0.1,0,0.2,0,0.2c0,0,0-0.1-0.1-0.1c-0.5-0.9-0.5-2.7-0.5-2.7s0.1-0.6,0.1-1.3
					c0.4-0.6,0.9-1.1,1.5-1.4c0.3-0.1,0.7-0.2,1-0.3C124.5,156,126,155.9,125.8,157z"/>
				
					<linearGradient id="SVGID_15_" gradientUnits="userSpaceOnUse" x1="2791.4458" y1="199.1863" x2="2799.5549" y2="199.1863" gradientTransform="matrix(-0.9995 -3.030000e-002 -3.030000e-002 0.9995 2922.3032 42.6901)">
					<stop  offset="0" style="stop-color:#FFDFB0"/>
					<stop  offset="1" style="stop-color:#FFCBAD"/>
				</linearGradient>
				<path class="st36" d="M122.9,157.8c-0.3,0-1.5,1.6-1.8,1.8c-0.3,0.2-0.7,0.4-1.1,0.5c-0.4,0-1.8,0-1.9-0.9
					c0.1-0.4,0.5-0.7,0.7-0.7c0.2,0,1.1-0.1,1.2-0.2c0.1-0.1,1.6-2.4,1.6-2.4s0.6-1.5,1-1.7c0.4-0.3,1.5-0.1,2.4,0.2
					c1,0.3,1.3,1.1,1.3,1.8c-0.1,0.8-0.6,1.5-1.2,1.6C124.5,158,123.5,158.2,122.9,157.8z"/>
				<path class="st16" d="M129,164.7c0,0.2,0.1,0.4,0.2,0.5c-0.2-0.1-0.4-0.2-0.4-0.2s-0.2,0.1-0.4,0.2c0,0,0,0,0.1-0.1
					c0.1-0.1,0.2-0.2,0.2-0.3c0-0.2-0.1-0.3-0.2-0.4c-0.3-0.3-0.8-0.4-1.2-0.5c-0.9-0.3-1.8-0.8-2.5-1.5c0.5,0,0.9,0.3,1.3,0.6
					c0.8,0.4,1.6,0.7,2.5,1c0.1,0.1,0.3,0.1,0.4,0.3C128.9,164.4,129,164.5,129,164.7z"/>
				<path class="st16" d="M131.6,165.5C131.6,165.5,131.6,165.6,131.6,165.5c-0.2,0.2-0.5,0.4-0.5,0.4l-0.1,0c0-0.1,0.1-0.2,0-0.3
					c0-0.4-0.3-0.7-0.6-1c-0.3-0.2-0.6-0.4-0.9-0.6c-0.4-0.2-0.7-0.4-1.1-0.6c-0.2-0.1-0.5-0.3-0.6-0.5c-0.1-0.1-0.2-0.6,0.1-0.6
					c0.1,0,0.4,0.5,0.5,0.6c0.4,0.4,0.9,0.6,1.4,0.9c0.4,0.2,0.8,0.5,1.1,0.7c0.2,0.2,0.4,0.3,0.5,0.5
					C131.6,165.2,131.6,165.4,131.6,165.5z"/>
				<path class="st16" d="M126.4,154.5c0.3-0.1,0.7,0.1,1.1,0c0.1-0.1,0.2-0.2,0.3-0.3c2.1-2.2,3.9-4.8,5.8-7.2
					c1.1-1.5,2.3-3,3.4-4.5c0.6-0.8,1-1.6,1.6-2.4c0.5-0.6,1.2-0.9,1-1.9c-0.2-0.8-1-1.2-1.2-2c0,0,0-0.1,0-0.1c0,0,0,0,0.1-0.1
					c0.3-0.1,0.6,0,0.9,0.1c0.3,0.1,0.6,0.3,0.9,0.4c0.9,0.1,1.6-1.8,1.9-2.5c0.6-1.1,1.2-2.3,1.7-3.4c0.1-0.2,0.2-0.4,0.2-0.7
					c0-0.3-0.3-0.5-0.5-0.6c-1-0.9-1.7-2.1-2.1-3.4c-0.1-0.2-0.1-0.4-0.1-0.6c0.1-0.5,0.6-0.8,1-0.9c1.7-0.5,3.5,0,5.1,0.5
					c0.5,0.2,1.1,0.4,1.5,0.7c0.4,0.3,0.7,0.7,0.9,1.2c0.9,1.6,1.5,3.5,1.6,5.3c0.2,2.2-0.3,4.4-0.8,6.5c-0.5,2-1.2,3.9-2.2,5.7
					c-0.9,1.7-2.1,3.2-3.3,4.7c-1.2,1.6-2.4,3.3-3.8,4.6c-1.1,1-2.4,1.8-3.7,2.6c-1.8,1.1-3.7,2.2-5.8,2.6c-1.2,0.2-2.8,0.1-3.7-0.9
					c-0.3-0.4-0.4-0.9-0.6-1.4C127.3,155.9,126.8,155.2,126.4,154.5z"/>
				
					<linearGradient id="SVGID_16_" gradientUnits="userSpaceOnUse" x1="2776.6365" y1="172.1355" x2="2783.136" y2="172.1355" gradientTransform="matrix(-0.9995 -3.030000e-002 -3.030000e-002 0.9995 2922.3032 42.6901)">
					<stop  offset="0" style="stop-color:#FFDFB0"/>
					<stop  offset="1" style="stop-color:#FFCBAD"/>
				</linearGradient>
				<path class="st37" d="M141.2,133.1c-0.2,0.4-0.4,0.8-0.8,1.1c-0.4,0.3-0.9,0.4-1.4,0.5c-1.2,0.2-2.5,0.4-3.7,0.5
					c-0.2-0.3-0.1-0.6,0-0.9c1.2-2.9,3.3-5.9,5.3-8.3c0.1,1.1,0.9,2.1,1.1,3.2C142,130.4,141.8,131.8,141.2,133.1z"/>
				
					<linearGradient id="SVGID_17_" gradientUnits="userSpaceOnUse" x1="2780.6252" y1="185.6247" x2="2795.0798" y2="185.6247" gradientTransform="matrix(-0.9995 -3.030000e-002 -3.030000e-002 0.9995 2922.3032 42.6901)">
					<stop  offset="0" style="stop-color:#FFDFB0"/>
					<stop  offset="1" style="stop-color:#FFCBAD"/>
				</linearGradient>
				<path class="st38" d="M135.2,133.7c0.6-0.2,1.3-0.2,1.6,0.3c0.1,0.2,0.2,0.4,0.3,0.7c0.2,0.8,0.3,1.5,0.5,2.3
					c0.1,0.3,0.1,0.7,0.1,1c-0.1,0.3-0.2,0.6-0.4,0.8c-2.6,3.8-5.2,7.6-8.4,11c-0.8,0.9-1.7,1.7-2.4,2.7c-0.3,0.4-0.5,0.8-1,1.1
					c-0.6,0.4-1.4,0.3-2.1,0.3c-0.1,0-0.3,0-0.4-0.1c-0.2-0.2-0.2-0.5-0.1-0.7c0.2-0.8,0.7-1.5,1.2-2.1c1.7-2.5,3.3-5,4.8-7.6
					c1.2-2.1,2.2-4.4,3.4-6.5C132.8,135.4,133.8,134.2,135.2,133.7z"/>
				<path class="st19" d="M149.8,109.3c-2.5,0.5-3.8,3.6-4.8,5.6c-0.9,2-4.9,9.2-5.3,10c-0.4,0.9,7,7,8.3,4.9
					C149.3,127.6,153.3,109.5,149.8,109.3z"/>
				<path class="st23" d="M161,170.2c-0.2,2.6-1.9,14-1.9,14s-1.7,10.7-1.7,11.8c0,1.1-0.8,21.1-1.2,22.5c-0.4,1.3-3.9,2-5.8,1.5
					c-1.9-0.5-3-1.2-3-2c0-0.8-1-19.3-0.9-21.2c0.1-2-2.2-30.8-1.9-33.4c0.3-2.6,1.2-8.6,3.9-12.7c2.6-4.2,12-0.2,13.2,3.3
					C162.8,157.4,161,170.2,161,170.2z"/>
				<path class="st23" d="M176.6,151.2c0.6,1.9,2.2,13.2,2.4,17c0.2,3.8-0.9,13.2-1.5,16.3s-1,7.3-0.9,8c0.1,0.7,1,5,1.2,11.9
					c0.2,6.8-1.6,20.7-1.6,20.7s-0.8,1.8-4.9,2c-4,0.2-4.3-0.7-4.5-1.1c-0.2-0.4-0.5-7.2-0.4-9.7c0.2-2.5-0.9-16.4-1.7-21.9
					c-0.8-5.5-4.3-20.5-5.1-21.5c-0.8-0.9-2.4-1-3.1-2.5c-0.6-1.5-0.4-8.2-0.3-8.9s-0.5-6,2.1-7.8c2.6-1.7,10.7-4.3,10.7-4.3
					L176.6,151.2z"/>
				<g>
					<path class="st31" d="M175.7,225.8l-0.7-0.1c0-0.2,1.7-17.7,1.7-21.1c0-2.4-0.5-7.3-0.9-10.6c-0.1-1.3-0.2-2.3-0.3-2.7
						c0-0.5,0.2-2,0.7-4.9c0.8-4.5,1.9-11.3,1.9-14.9c-0.1-6-1.2-12.7-1.5-14.1l0.7-0.1c0.3,1.4,1.4,8.2,1.5,14.2
						c0.1,3.7-1.1,10.5-1.9,15c-0.4,2.3-0.7,4.3-0.7,4.7c0,0.4,0.1,1.4,0.3,2.7c0.3,3.2,0.9,8.2,0.9,10.6
						C177.4,208.1,175.8,225.1,175.7,225.8z"/>
				</g>
				<path class="st11" d="M177.8,157.9c-0.7,1.4-4.7,3-11.9,3.8c-2.2,0.3-4.1,0.4-5.7,0.4c-3.6,0-6.7-1.3-8.8-2.6
					c-4.2-2.5-4.6-3.7-4.9-4.6c-0.3-0.8,1-4.4,1.3-4.3c0.4,0.1,29.3,2.8,29.3,2.8S178.1,157.2,177.8,157.9z"/>
				<g>
					<path class="st31" d="M155.2,219.7l-0.7,0c0-0.8,0.7-18.8,1.2-22.7c0.1-0.9,0.3-1.9,0.4-3c0.5-3.6,1.1-8,1.9-11.8l0.2-1.2
						c0.9-4.5,1.6-8,1.6-12.5l0.7,0c0,4.5-0.7,8.1-1.6,12.6l-0.2,1.2c-0.8,3.8-1.4,8.2-1.9,11.8c-0.1,1.1-0.3,2.1-0.4,3
						C155.9,200.9,155.2,219.5,155.2,219.7z"/>
				</g>
				<path class="st24" d="M148.1,195.7c-0.2-0.1-0.4-0.2-0.5-0.3c-0.8-0.8-0.8-2.1-0.8-3.2c0-5.7-1-11.4-1.2-17
					c-0.1-2.2-0.1-4.4-0.2-6.6c0-1.3-0.1-2.6,0.1-3.9c0.1-1.3,0.5-5.3,2.1-5.8c1.6-0.4,4.2,1.6,5.2,2.5c0.3,0.3,0.5,0.5,0.7,0.8
					c0.2,0.4,0.3,0.9,0.4,1.3c0.7,3.6,1,7.2,1.1,10.9c0.1,1.9,0,3.8,0,5.7c0,1.3,0,2.5-0.1,3.8c-0.3,3-1.1,5.9-2,8.8
					c-0.3,0.9-0.6,2.9-1.4,3.3C150.8,196.3,149.1,196.1,148.1,195.7z"/>
				<path class="st24" d="M171.3,198.2c-4,1.2-5.4-4-6.1-6.8c-1.2-4.5-2.3-9.1-3.5-13.6c-0.3-1.4-0.7-2.7-1.2-4
					c-0.3-0.9-0.7-1.7-1.2-2.5c-0.4-0.5-0.9-1-1.3-1.6c-0.4-0.7-0.7-1.4-1-2.2c-0.6-1.9-0.9-4-1-6c1.5,0.4,3.2,1,4.8,1.1
					c1.6,0.1,3.4-0.3,5-0.7c2.9-0.6,5.8-1.1,8.8-1.7c0.5-0.1,0.7,7.2,0.7,7.9c-0.1,2.3-0.7,4.6-0.6,6.9c0,2.2,0.1,4.4,0,6.7
					c0,2.2-0.1,4.5-0.2,6.7c-0.1,2.1,0.1,4.5-0.3,6.5C173.9,196.6,172.7,197.8,171.3,198.2z"/>
				<g>
					<path class="st31" d="M172.2,166.1c-0.4,0-0.8,0-1.2-0.1c-1.3-0.3-3-1.3-3.4-4.4l0.7-0.1c0.3,2.1,1.2,3.4,2.8,3.8
						c2.8,0.7,6.5-1.5,6.7-1.8l0.6,0.4C178,164.4,174.9,166.1,172.2,166.1z"/>
				</g>
				<path class="st24" d="M170.2,190.6c1.1,0.1,2.3,0.5,3.1,1.3c0.4,0.4,0.7,1,0.9,1.6c1.2,2.8,1,6.1,0.9,9.1
					c-0.2,4.6-0.1,9.3-0.4,13.9c-0.2,2.8-0.4,5.5-0.7,8.3c0,0.3-0.1,0.6-0.3,0.8c-0.1,0.1-0.3,0.2-0.5,0.2c-1,0.3-5.4,1.3-5.3-0.8
					c0,0.1,0,0.3,0,0.4c-0.7-5.5-1-10.9-1.1-16.4c-0.1-2.5-0.6-4.8-0.8-7.3c-0.3-3.1-0.5-6.3-0.8-9.4c0,0.2,0.1,0.4,0.1,0.7
					c-0.1-0.5-0.2-1.2,0.2-1.5c0.2-0.1,0.4-0.1,0.5-0.2c0.6-0.2,1.1-0.6,1.7-0.7C168.6,190.5,169.5,190.5,170.2,190.6z"/>
				<path class="st24" d="M146.8,196.7c0-1.4,0-2.8,0.1-4.2c0-0.9,0-1.8,0.3-2.6c0.3-0.8,0.9-1.6,1.7-1.9c1.2-0.4,2.6,0.3,3.3,1.4
					c0.7,1.1,0.9,2.4,1,3.7c0.6,5.6,0.6,11.3,0.5,17c0,2.7,0,5.4,0,8c0,0.3,0,0.7-0.2,0.9c-0.3,0.5-0.9,0.7-1.5,0.6
					c-0.6-0.1-1.1-0.3-1.7-0.4c-0.5-0.1-1.6,0-1.9-0.4c-0.4-0.4-0.2-2.3-0.2-2.9c-0.1-2.1-0.3-4.1-0.4-6.2
					c-0.3-4.1-0.6-8.2-0.9-12.4L146.8,196.7z"/>
				<path class="st25" d="M171.7,106.8c2.2,2.1,11,9.6,11.5,10.7c0.5,1.1-0.1,5.8-1.2,9.8c-1,4-3.4,12.5-4.2,14.1
					c-0.8,1.7-1.2,13.5-1.7,15.2c-0.5,1.7-12.2,2.7-19.3,1.2c-7.1-1.5-9.2-4.1-9.2-6.3c0-2.3,0.8-15.7,0-21.3
					c-0.9-5.6-0.9-18,1-20.4c2.2-1.5,10.8-3.2,12.3-3.4C162.5,106.3,171.7,106.8,171.7,106.8z"/>
				
					<linearGradient id="SVGID_18_" gradientUnits="userSpaceOnUse" x1="2745.136" y1="142.6933" x2="2760.5554" y2="142.6933" gradientTransform="matrix(-0.9995 -3.030000e-002 -3.030000e-002 0.9995 2922.3032 42.6901)">
					<stop  offset="0" style="stop-color:#FFDBA7"/>
					<stop  offset="1" style="stop-color:#FFC5A4"/>
				</linearGradient>
				<path class="st39" d="M174.4,95.1c-2,4.4-2.7,7.8-2.7,8.9c0,1.2,1.1,4.3,1.2,4.7c0.1,0.5-4.1,5.2-10,4.4
					c-3.2-0.8-3.8-1.6-4.2-2.8c-0.4-1.2-0.2-2.3,0.3-2.9c0.5-0.6,1.2-1,1.4-1.2c0.3-0.2,0.3-1.5,0.3-1.5l1.9-6.3l7.5-7.8l3.9,2.3
					L174.4,95.1z"/>
				<path class="st16" d="M166.9,107c-0.5,0.4-1.1,0.6-1.7,0.7c-0.7,0.2-1.4,0.3-2,0.3c-0.2,0-0.4,0-0.6-0.1
					c-0.3-0.1-0.4-0.5-0.5-0.8c-0.3-1-0.4-2-0.4-3c0-0.4,0-0.7,0.2-1.1c0.3-0.7,1.1-0.9,1.8-1.2c1.3-0.4,5.1-1.5,5.8,0.4
					c0.3,0.8-0.5,1.7-0.9,2.3C168.1,105.6,167.7,106.4,166.9,107z"/>
				<linearGradient id="SVGID_19_" gradientUnits="userSpaceOnUse" x1="158.5195" y1="94.5124" x2="175.1353" y2="94.5124">
					<stop  offset="0" style="stop-color:#FFDBA7"/>
					<stop  offset="1" style="stop-color:#FFC5A4"/>
				</linearGradient>
				<path class="st40" d="M175.1,91.8c-0.2,0.9-3.3,9.9-3.9,10.6c-0.6,0.7-6.1,4.2-8.2,4c-0.7-0.1-1.2-0.2-1.6-0.3
					c-0.9-0.2-1.3-0.5-1.4-0.7c-0.2-0.2-1.5-5.5-1.5-6.1c0-0.4,0.4-4.8,0.8-7.3c0.1-0.6,0.2-1.2,0.2-1.4c0.4-1.3,1.9-6,1.9-6
					s1.1-2.1,2.4-2c1.4,0.1,7.1,0.5,8,1.6c0.9,1.1,2.9,3.2,2.9,3.2L175.1,91.8z"/>
				<path class="st28" d="M172,93.4c-0.3-0.2-0.5-0.9-0.5-0.9s0.3-2.6,0.3-3.1c0-0.4-0.2-0.6-0.4-0.8c-0.2-0.2-2.4-0.4-4.7-1.2
					c-2.4-0.8-4.2-1.8-4.8-2.2c-0.5-0.4-2.6,6.7-2.6,6.7s-0.1-1.8-0.1-2.2c0-0.4,1-4.5,1.4-5.2c0.4-0.7,0.8-2.8,5.2-3.7
					c4.4-1,6.4,0,8.2,1.1c1.8,1.1,3.2,3,4,5c0.8,2-0.4,4.7-0.5,4.8c-0.1,0.2-1,3.9-1.4,4.6c-0.4,0.7-2.2,1.1-2.2,1.1
					s0.5-2.4,0.1-2.4c-0.4,0-1,1.6-1,1.6l-0.7-0.1C172.3,96.7,172.6,94.3,172,93.4z"/>
				
					<linearGradient id="SVGID_20_" gradientUnits="userSpaceOnUse" x1="2743.1023" y1="138.0219" x2="2746.8059" y2="138.0219" gradientTransform="matrix(-0.9995 -3.030000e-002 -3.030000e-002 0.9995 2922.3032 42.6901)">
					<stop  offset="0" style="stop-color:#FFDFB0"/>
					<stop  offset="1" style="stop-color:#FFCBAD"/>
				</linearGradient>
				<path class="st41" d="M173.2,97.6c0.2-0.5,0.5-1.3,0.6-1.6c0.1-0.3,1.5-1.5,2.2-1.4c0.7,0.1,0.6,1.4,0.2,2.4
					c-0.4,1-2.2,3.3-2.9,3.4c-0.6,0-0.7-0.5-0.7-0.7C172.7,99.4,173.2,97.6,173.2,97.6z"/>
				<linearGradient id="SVGID_21_" gradientUnits="userSpaceOnUse" x1="159.1569" y1="155.453" x2="187.2156" y2="155.453">
					<stop  offset="0" style="stop-color:#FFDBA7"/>
					<stop  offset="1" style="stop-color:#FFC5A4"/>
				</linearGradient>
				<path class="st42" d="M186.8,151.9c-0.2,0.7-0.7,3.8-3,8.6c-2.3,4.8-5.2,11.3-5.6,12c-0.5,0.7-3.3,2.3-3.3,2.3s-5.3,2.6-6.6,2.8
					c-1.3,0.2-4.2,1.1-6.1,1.1c-0.1,0-0.2,0-0.3,0c-1.6,0-1.9-0.2-1.9-0.5c0-0.4,1-1.1,1-1.1s-1.4-0.2-1.7-0.4c-0.3-0.2-0.3-1,0-1.1
					c0.3-0.2,1.1-0.2,1.1-0.2s-0.5-0.6-0.3-0.9c0.1-0.3,1.1-0.6,1.1-0.6l1.8,0.6l0.3-0.2l0.9-0.1c0,0,1.6,0.3,2.5,0.1
					c0.9-0.2,2.4-1.3,2.4-1.3l5.3-3.6c0,0,0.4-0.6,0.7-1.7c0.3-1.1,4.4-17.7,4.8-18.5c0.3-0.7-0.7-5.5-0.8-5.9
					c-0.1-0.4-1.5-4.2-1.4-5.4c0.1-1.2,1-5.2,1-5.2l2.9-0.5l3.4,1.5l0.6,0.3c0,0.9,0.3,2.9,0.5,4.3c0.2,1.4,0.8,7.7,0.9,9.4
					C187.3,149.5,187,151.2,186.8,151.9z"/>
				
					<linearGradient id="SVGID_22_" gradientUnits="userSpaceOnUse" x1="2732.3528" y1="181.734" x2="2739.8677" y2="181.734" gradientTransform="matrix(-0.9995 -3.030000e-002 -3.030000e-002 0.9995 2922.3032 42.6901)">
					<stop  offset="0" style="stop-color:#FFDFB0"/>
					<stop  offset="1" style="stop-color:#FFCBAD"/>
				</linearGradient>
				<path class="st43" d="M185.6,144.6c0.1,1.2,0.2,2.6-0.4,3.7c-0.3,0.6-0.9,1.1-1.6,1.1c-0.4,0-0.7-0.3-1-0.5
					c-0.5-0.5-1-1-1.4-1.6c-0.7-1.2-1.1-2.7-1.4-4.1c-0.4-2-0.8-3.9-1.2-5.9c-0.1-0.7-0.3-1.4,0.1-2c0.3-0.5,0.8-0.7,1.2-1
					c0.6-0.3,1.2-0.6,1.9-0.6c2.3,0.1,2.5,2.5,2.8,4.2C185,140.1,185.4,142.3,185.6,144.6z"/>
				
					<linearGradient id="SVGID_23_" gradientUnits="userSpaceOnUse" x1="2732.5613" y1="199.3622" x2="2742.4302" y2="199.3622" gradientTransform="matrix(-0.9995 -3.030000e-002 -3.030000e-002 0.9995 2922.3032 42.6901)">
					<stop  offset="0" style="stop-color:#FFDFB0"/>
					<stop  offset="1" style="stop-color:#FFCBAD"/>
				</linearGradient>
				<path class="st44" d="M181,148.1c0.3-0.8,0.7-1.8,1.5-2.1c0.3-0.1,0.7-0.2,1.1-0.2c0.2,0,0.5,0,0.7,0.1c0.4,0.2,0.5,0.6,0.6,1
					c0.7,2.5,0.7,5.2,0.1,7.8c-0.9,4.1-3.4,7.7-4.8,11.7c-0.3,0.7-0.5,1.4-0.8,2.1c-0.2,0.6-0.5,1.1-0.8,1.7
					c-0.3,0.6-0.6,1.1-1.1,1.5c-0.5,0.4-1.1,0.6-1.8,0.5c-0.1,0-0.2,0-0.3-0.1c-0.1-0.1-0.1-0.2-0.2-0.3c-0.5-1.3-0.1-2.7,0.3-4.1
					c0.8-2.7,1.8-5.2,2.8-7.9C179.5,156,179.7,151.9,181,148.1z"/>
				<path class="st16" d="M186.8,151.9c-0.2,0.7-0.7,3.8-3,8.6c-2.3,4.8-5.2,11.3-5.6,12c-0.5,0.7-3.3,2.3-3.3,2.3s-5.3,2.6-6.6,2.8
					c-1.3,0.2-4.2,1.1-6.1,1.1c-0.1,0-0.2,0-0.3,0c4.6-0.9,9.2-2,13.1-4.6c1-0.7,2.1-1.4,2.9-2.3c1.6-2,1.9-4.8,3.1-7.1
					c0.4-0.7,0.8-1.3,1.2-2c0.3-0.6,0.6-1.3,0.8-1.9c1.2-3.2,2.9-6.5,3.5-10c0.2-1,0.3-2.1,0.3-3.1c0-1.1-0.2-2.2-0.3-3.3
					c-0.4-2.7-0.8-5.4-1.2-8c-0.1-0.8-0.3-1.8-0.2-2.6l0.6,0.3c0,0.9,0.3,2.9,0.5,4.3c0.2,1.4,0.8,7.7,0.9,9.4
					C187.3,149.5,187,151.2,186.8,151.9z"/>
				<path class="st16" d="M169.3,174.8c-0.1,0.3-0.2,0.6-0.4,0.9c-0.3,0.5-0.9,0.7-1.5,0.9c-0.2-0.4-0.1-0.8,0-1.2
					c0.1-0.4,0.3-0.8,0.4-1.2c0.1-0.3,0.1-0.7,0.3-1c0.2-0.3,0.4-0.4,0.7-0.5c0.5-0.2,1.1-0.3,1.6-0.4c0.3-0.1,1-0.2,1.2,0.2
					c0.2,0.4-0.4,0.5-0.6,0.7C170.3,173.6,169.6,174.1,169.3,174.8z"/>
				<path class="st16" d="M157.1,175.9c-0.1,0.4,0,0.8,0,1.3c0.1,1,0.2,2.1,0.9,2.8c0,0.1,0.1,0.1,0.2,0.1c0.1,0,0.2,0,0.2,0
					c0.4-0.1,0.8-0.4,0.9-0.8c0.1-0.2,0-0.4,0.1-0.6c0.2-0.5,0.8-0.8,1.3-1c0.2-0.1,0.4-0.1,0.5-0.1c0.7,0,1.5-0.1,2.2-0.1
					c0,0-0.1,0-0.1,0.1c0.9-0.5,1.8-1,2.8-1.3c-0.7,0-1.3,0.2-2,0.5c-0.2,0.1-0.5,0.2-0.8,0.3c-0.6,0.2-1.3,0.2-1.9,0.1
					c-0.3-0.1-0.5-0.1-0.8-0.1c-0.4,0-0.7,0.2-1,0.5c-0.3,0.2-0.3,0.2-0.7,0.1c-0.4-0.1-0.7-0.2-1.1-0.3c0.1-0.1,0-0.3,0-0.4
					c-0.1-0.4,0-0.8,0.3-1.1c0.2-0.2,0.7-0.4,0.6-0.7c0,0,0.1,0.1,0.1,0.1c0,0,1.2-0.1,1.3-0.1c0.1,0,0.2,0.1,0.2,0.1
					c0.4,0.2,0.7,0.5,1.1,0.6c0.5,0.1,0.9,0.1,1.4,0.1c0.9,0,1.9-0.1,2.8-0.2c-1-0.1-2.1-0.2-3.1-0.3c-0.6-0.1-1.1-0.2-1.7-0.4
					c-0.5-0.2-1-0.6-1.3-1.1c-0.1-0.1-0.1-0.2-0.2-0.3c-0.2-0.1-0.4-0.1-0.6-0.1c-0.5,0.1-0.8,0.5-1,0.9
					C157.6,175,157.2,175.3,157.1,175.9z"/>
				<path class="st16" d="M161.2,97.3c-0.1,0.6,0.2,1.2,0.8,1.4c0.2,0.1,0.4,0.2,0.4,0.4c0,0.1-0.1,0.1-0.1,0.2
					c-0.3,0.3-0.7,0.7-0.7,1.1c-0.1,0.4,0.1,1,0.6,1.1c-0.3-0.1-0.5,0.3-0.5,0.6c0,0.3,0.2,0.6,0.2,0.9c0,0.2-0.1,0.4-0.1,0.6
					c-0.2,0.6-0.4,1.3-0.3,2c0,0.2,0.1,0.4,0.2,0.6c-0.9-0.2-1.3-0.5-1.4-0.7c-0.2-0.2-1.5-5.5-1.5-6.1c0-0.4,0.4-4.8,0.8-7.3
					c1,0.4,3.8,1.4,3.6,2.1c-0.3,0.7-0.6,1.5-1.1,2.1C161.5,96.6,161.3,96.9,161.2,97.3z"/>
				<g>
					<path class="st31" d="M147.3,162c-0.8,0-1.7-0.5-2.5-1.4l0.5-0.4c0.8,0.9,1.5,1.3,2.2,1.1c1.5-0.2,2.5-2.5,2.5-2.5l0.6,0.3
						c0,0.1-1.1,2.6-3,2.9C147.5,162,147.4,162,147.3,162z"/>
				</g>
				<g>
					<path class="st31" d="M158.4,172.2c-1.1-2.2-1-9.4-0.7-11.2l0.7,0.1c-0.3,1.9-0.4,8.9,0.7,10.8L158.4,172.2z"/>
				</g>
				<g>
					<path class="st31" d="M158.3,170.9c-0.1,0-2.6-0.3-3.2-1.7c-0.6-1.5,0.1-8,0.1-8.1l0.7,0.1c-0.3,2.1-0.6,6.7-0.2,7.7
						c0.4,0.9,2.1,1.2,2.7,1.3L158.3,170.9z"/>
				</g>
				
					<linearGradient id="SVGID_24_" gradientUnits="userSpaceOnUse" x1="2742.1755" y1="212.6849" x2="2750.7686" y2="212.6849" gradientTransform="matrix(-0.9995 -3.030000e-002 -3.030000e-002 0.9995 2922.3032 42.6901)">
					<stop  offset="0" style="stop-color:#FFDFB0"/>
					<stop  offset="1" style="stop-color:#FFCBAD"/>
				</linearGradient>
				<path class="st45" d="M171.3,173.4c0,0-2,0.1-2.2,0.1c-0.2,0.1-1.3,1.6-2.1,1c-0.8-0.6-0.6-1.4-0.3-1.8c0.3-0.4,1-1,1.4-1
					c0.3,0,0.9-0.4,0.9-0.4s1.1-0.9,2.2-1.4c1-0.4,2.3-0.5,2.7-0.5c0.4,0,0.7-0.2,1,0.3c0.2,0.5,0.6,1.1-0.1,1.9
					C174,172.4,171.9,173.3,171.3,173.4z"/>
				<path class="st19" d="M183.2,117.5c-1.5-0.7-3.8,2.7-4.8,4.7c-1,2-2.5,4.9-2.7,6.4c-0.2,1.5,1.5,10.3,1.5,10.3l9-0.6l0.3-0.6
					C186.5,137.7,185.4,119.8,183.2,117.5z"/>
			</g>
			<g>
				<polygon class="st16" points="145.7,134.3 125.5,146 124.6,145.5 144.8,133.8 				"/>
				<polygon class="st46" points="145.7,150.1 125.5,161.8 125.5,146 145.7,134.3 				"/>
			</g>
			<g>
				<polygon class="st47" points="177.1,168.3 144.8,149.6 144.8,133.8 177.1,152.4 				"/>
				<polygon class="st16" points="144.8,133.8 177.1,152.4 178,151.9 145.7,133.2 				"/>
			</g>
			<g>
				<g>
					<g>
						<polygon class="st3" points="172.5,168.5 172.5,137.7 138.9,118.3 138.9,149.1 						"/>
					</g>
				</g>
				<g>
					<g>
						<polygon class="st3" points="171.3,138.4 172.5,137.7 138.9,118.3 137.7,119 						"/>
						<g>
							<g>
								<polygon class="st3" points="172.5,168.5 172.5,137.7 171.3,138.4 171.3,169.2 								"/>
							</g>
						</g>
					</g>
				</g>
				<g>
					<g>
						<polygon class="st12" points="171.3,169.2 171.3,138.4 137.7,119 137.7,149.8 						"/>
					</g>
				</g>
				<g>
					<g>
						<path class="st13" d="M149.2,145.5l-0.8,0.5l-3.6-6.2l3.6-2.1l0.8,1.5l-2.8,1.6L149.2,145.5z"/>
						<path class="st13" d="M156.7,139.5l1.1,1.2l-5.4,9.4l-1.1-1.2L156.7,139.5z"/>
						<path class="st13" d="M162.6,150l-2.8-4.8l0.8-0.5l3.6,6.2l-3.6,2.1l-0.8-1.5L162.6,150z"/>
					</g>
				</g>
			</g>
			<g>
				<g>
					<g>
						<polygon class="st3" points="170.7,169.6 170.7,138.8 137.1,119.4 137.1,150.2 						"/>
					</g>
				</g>
				<g>
					<g>
						<polygon class="st3" points="169.5,139.5 170.7,138.8 137.1,119.4 135.9,120.1 						"/>
						<g>
							<g>
								<polygon class="st3" points="170.7,169.6 170.7,138.8 169.5,139.5 169.5,170.3 								"/>
							</g>
						</g>
					</g>
				</g>
				<g>
					<g>
						<polygon class="st12" points="169.5,170.3 169.5,139.5 135.9,120.1 135.9,150.9 						"/>
					</g>
				</g>
				<g>
					<g>
						<path class="st13" d="M147.4,146.5l-0.8,0.5l-3.6-6.2l3.6-2.1l0.8,1.5l-2.8,1.6L147.4,146.5z"/>
						<path class="st13" d="M154.9,140.5l1.1,1.2l-5.4,9.4l-1.1-1.2L154.9,140.5z"/>
						<path class="st13" d="M160.8,151.1l-2.8-4.8l0.8-0.5l3.6,6.2l-3.6,2.1l-0.8-1.5L160.8,151.1z"/>
					</g>
				</g>
			</g>
			<g>
				<g>
					<g>
						<polygon class="st3" points="168.9,170.6 168.9,139.8 135.3,120.4 135.3,151.2 						"/>
					</g>
				</g>
				<g>
					<g>
						<polygon class="st3" points="167.7,140.5 168.9,139.8 135.3,120.4 134.1,121.1 						"/>
						<g>
							<g>
								<polygon class="st3" points="168.9,170.6 168.9,139.8 167.7,140.5 167.7,171.3 								"/>
							</g>
						</g>
					</g>
				</g>
				<g>
					<g>
						<polygon class="st12" points="167.7,171.3 167.7,140.5 134.1,121.1 134.1,151.9 						"/>
					</g>
				</g>
				<g>
					<g>
						<path class="st13" d="M145.6,147.5l-0.8,0.5l-3.6-6.2l3.6-2.1l0.8,1.5l-2.8,1.6L145.6,147.5z"/>
						<path class="st13" d="M153.1,141.5l1.1,1.2l-5.4,9.4l-1.1-1.2L153.1,141.5z"/>
						<path class="st13" d="M159,152.1l-2.8-4.8l0.8-0.5l3.6,6.2l-3.6,2.1l-0.8-1.5L159,152.1z"/>
					</g>
				</g>
			</g>
			<g>
				<g>
					<g>
						<polygon class="st3" points="167.1,171.6 167.1,140.8 133.5,121.4 133.5,152.2 						"/>
					</g>
				</g>
				<g>
					<g>
						<polygon class="st3" points="165.9,141.5 167.1,140.8 133.5,121.4 132.3,122.1 						"/>
						<g>
							<g>
								<polygon class="st3" points="167.1,171.6 167.1,140.8 165.9,141.5 165.9,172.3 								"/>
							</g>
						</g>
					</g>
				</g>
				<g>
					<g>
						<polygon class="st12" points="165.9,172.3 165.9,141.5 132.3,122.1 132.3,152.9 						"/>
					</g>
				</g>
				<g>
					<g>
						<path class="st13" d="M143.8,148.6l-0.8,0.5l-3.6-6.2l3.6-2.1l0.8,1.5l-2.8,1.6L143.8,148.6z"/>
						<path class="st13" d="M151.3,142.6l1.1,1.2l-5.4,9.4l-1.1-1.2L151.3,142.6z"/>
						<path class="st13" d="M157.2,153.2l-2.8-4.8l0.8-0.5l3.6,6.2l-3.6,2.1l-0.8-1.5L157.2,153.2z"/>
					</g>
				</g>
			</g>
			<g>
				<g>
					<g>
						<polygon class="st3" points="161.8,175.9 165.8,144.8 132.2,125.4 128.2,156.5 						"/>
					</g>
				</g>
				<g>
					<g>
						<polygon class="st3" points="164.7,145 165.8,144.8 132.2,125.4 131.1,125.6 						"/>
						<g>
							<g>
								<polygon class="st3" points="161.8,175.9 165.8,144.8 164.7,145 160.6,176.6 								"/>
							</g>
						</g>
					</g>
				</g>
				<g>
					<g>
						<polygon class="st12" points="160.6,176.6 164.7,145 131.1,125.6 127,157.2 						"/>
					</g>
				</g>
				<g>
					<g>
						<path class="st13" d="M142.5,152l-0.8,0.5l-3.6-6.2l3.6-2.1l0.8,1.5l-2.8,1.6L142.5,152z"/>
						<path class="st13" d="M150.1,146l1.1,1.2l-5.4,9.4l-1.1-1.2L150.1,146z"/>
						<path class="st13" d="M156,156.6l-2.8-4.8l0.8-0.5l3.6,6.2l-3.6,2.1l-0.8-1.5L156,156.6z"/>
					</g>
				</g>
			</g>
			<g>
				<polygon class="st16" points="177.1,152.4 156.9,164.1 156,163.6 176.2,151.9 				"/>
				<polygon class="st46" points="178,167.7 156,180.5 156,164.6 178,151.9 				"/>
			</g>
			<g>
				<polygon class="st16" points="156,180.5 123.7,161.8 123.7,146 156,164.6 				"/>
				<polygon class="st16" points="123.7,146 156,164.6 156.9,164.1 124.6,145.5 				"/>
			</g>
		</g>
	</g>
</g>
</svg>
