<?xml version="1.0" encoding="utf-8"?>
<!-- Generator: Adobe Illustrator 19.0.0, SVG Export Plug-In . SVG Version: 6.00 Build 0)  -->
<svg version="1.1" id="Layer_1" xmlns="http://www.w3.org/2000/svg" xmlns:xlink="http://www.w3.org/1999/xlink" x="0px" y="0px"
	 viewBox="0 0 97.8 129.8" style="enable-background:new 0 0 97.8 129.8;" xml:space="preserve">
<style type="text/css">
	.st0{fill:#754985;}
	.st1{fill:#FFAA83;}
	.st2{fill:#E84CBE;}
	.st3{fill:#615A8E;}
	.st4{fill:#484475;}
	.st5{fill:#16D2D6;}
	.st6{fill:#22ECFA;}
	.st7{fill:#FA5FC8;}
	.st8{fill:#F98CDA;}
	.st9{fill:#855599;}
	.st10{fill:#D8D1EC;}
	.st11{fill:#ADAEB9;}
	.st12{fill:#F79F7C;}
	.st13{fill:#723E24;}
	.st14{fill:#144FF2;}
	.st15{fill:#85A9FF;}
	.st16{fill:#6684FF;}
	.st17{fill:#C0CCFF;}
	.st18{opacity:0.7;}
	.st19{fill:#EFEBFC;}
	.st20{display:none;opacity:0.3;}
	.st21{display:inline;}
	.st22{fill:#5FFBFF;}
	.st23{opacity:0.8333;fill:#5FFBFF;}
	.st24{opacity:0.6667;fill:#5FFBFF;}
	.st25{opacity:0.5;fill:#5FFBFF;}
	.st26{opacity:0.3333;fill:#5FFBFF;}
	.st27{opacity:0.1667;fill:#5FFBFF;}
	.st28{opacity:0;fill:#5FFBFF;}
</style>
<g>
	<g>
		<g>
			<path class="st0" d="M45.8,47.3c0.6,0.2,3.2,1.4,1.5,2.1c-1.7,0.8-3.7,0.5-3.7,1.6c0,1.1,0,8.7,0,8.7s-1.5,0.7-1.9,0
				c-0.4-0.7-0.3-7.8,0-10.3C41.9,48.2,42.4,46.4,45.8,47.3z"/>
			<path class="st1" d="M30.1,45.9c0,0,3.4-1,3.4-3.1c0-2.2-0.8-2.7-1.5-1.9c-0.7,0.8-1.8,1.4-2.2,1.7c-0.5,0.4-1.5,1.8-1.5,1.8
				l0.5,2.2L30.1,45.9z"/>
			<g>
				<path class="st2" d="M10,54.3c0,0-3.4,0.8-2.5,4.3c1,3.7,7.9,0.3,7.9,0.3s6.1-2.4,7.8-3.7c2.3-1.8,7.4-9,7.4-9s-1.1-2-2.7-2.1
					c0,0-5.1,6-7.3,7.2C18.1,52.6,10.5,54,10,54.3z"/>
			</g>
			<path class="st1" d="M42.7,59.1c0,0,3.5-3.9,1.4-6.3c-0.3-0.3-0.5-0.2-1,1c-0.3,0.8-0.3,1.4-0.9,1.6c-0.7,0.2-0.5-1.8-1-1.7
				c-0.5,0.2-1.2,3.7-1.2,3.7l-0.2,0.9l2.1,1.9L42.7,59.1z"/>
			<path class="st3" d="M8.4,121.1c0.1,0,7.8,0.1,6.3,2.4c-1,1.5-2.3,1.8-3.4,1.8c-1,0-2.9-0.5-3.3-0.2c-0.5,0.3-2.8,1.8-4.1,0.3
				c-0.3-0.3-0.4-1.2-0.3-1.7C3.8,123.1,7.6,121,8.4,121.1z"/>
			<path class="st4" d="M14.7,123.6c-1,1.5-2.3,1.8-3.4,1.8c-1,0-2.9-0.5-3.3-0.2c-0.5,0.3-2.8,1.8-4.1,0.3
				c-0.1-0.2-0.3-0.5-0.3-0.9c0.9,1.3,3.2,0.9,3.8,0.5c0.7-0.5,1.7-0.7,2.6-0.5c0.9,0.2,2.8,0,3.8-0.9c0.6-0.5,0.4-1.2,0.2-1.6
				C14.6,122.4,15.2,122.8,14.7,123.6z"/>
			<g>
				<path class="st3" d="M26.6,123.4c0.1,0,8.4-0.2,6.8,2.2c-1,1.5-2.3,1.8-3.4,1.8c-1,0-2.9-0.5-3.3-0.2c-0.5,0.3-2.8,1.8-4.1,0.3
					c-0.3-0.3-0.4-1.2-0.3-1.7C22.6,125.2,25.9,123.3,26.6,123.4z"/>
				<path class="st4" d="M33.6,125.6c-1,1.5-2.4,1.8-3.5,1.8c-1,0-2.9-0.5-3.3-0.2c-0.5,0.3-2.8,1.8-4.1,0.3
					c-0.1-0.2-0.3-0.5-0.3-0.9c0.9,1.3,3.2,0.9,3.8,0.5c0.7-0.5,1.7-0.7,2.6-0.5c0.9,0.2,2.8,0,3.8-0.9c0.6-0.5,0.4-1.1,0.2-1.5
					C33.4,124.5,34.1,124.9,33.6,125.6z"/>
			</g>
			<path class="st5" d="M6,77.8c0,0-5,6.1-1.7,14.6c0,0,2.5,7.2,2,9.6c-0.7,2.9-1.6,2.1-2.3,11.6c-0.6,8.4-0.6,8-0.7,10.6
				c0,1.1,5,1,5.8-1.4c2.6-7,5.7-18.5,5-26.1c-0.7-7.6-2.3-15.4-2.3-15.4S8.5,80,6,77.8z"/>
			<path class="st6" d="M8.4,79.4c0,0-3.4,7.7,7.1,15.5c0,0,5.7,5.7,6.3,8.2c0.6,2.5-0.9,4.4-0.6,9.2c0.4,4.8,0.3,10.3,0.6,13.9
				c0.1,1.2,5.1,1.1,5.6-0.7c0.5-1.8,2.6-22.2,1.3-26.2c-1.3-4.1-9.3-18.9-9.3-18.9S13.3,83.1,8.4,79.4z"/>
			<path class="st7" d="M24.1,64.7c0,0,1.6-3.8-5-7.4c-6.6-3.6-11-4.2-11.7-0.5c-0.7,3.7,0.3,9,0.2,10.7c0,1.4,0.4,5.7-2,9.3
				c-2.3,3.5-4,6,7,8.5c1.9,0.4,9.2,1.6,8.9-2.8C21.1,76.9,22.5,69,24.1,64.7z"/>
			<path class="st8" d="M19,63.6c-0.3-1-0.5-3.6,2.2-3.6c2.7,0,12.2,4.4,13.4,4.1c0.6-0.1,5.4-6.6,5.4-6.6s0.2,1.7,3,1.9
				c0,0-3.9,10.2-6.7,10.2C31.5,69.6,20.2,67.3,19,63.6z"/>
			
				<ellipse transform="matrix(-0.9978 -6.694574e-002 6.694574e-002 -0.9978 86.3213 99.1095)" class="st9" cx="44.8" cy="48.1" rx="2" ry="0.8"/>
			<path class="st0" d="M34.7,35.8c0.6,0.2,3.2,1.4,1.5,2.1c-1.7,0.8-3.7,0.5-3.7,1.6c0,1.1,0,8.7,0,8.7s-1.5,0.7-1.9,0
				c-0.4-0.7-0.3-7.8,0-10.3C30.7,36.8,31.3,35,34.7,35.8z"/>
			<path class="st1" d="M28.6,43.9c0,0,1.7-2.5,2.9-2.2c1.3,0.3-0.6,1.2-0.6,1.2l-1.2,1.8L28.6,43.9z"/>
			<g>
				<g>
					<path class="st0" d="M22.6,41.1c-1-0.9-2-0.5-2.2,0.7c-0.3,1.3,0.3,3,1.3,3.9l4.7,4.2c1,0.9,2,0.5,2.2-0.7
						c0.3-1.3-0.3-3-1.3-3.8L22.6,41.1z"/>
				</g>
				<path class="st10" d="M19,42c0,0-0.1-0.1-0.1-0.1c0,0-0.1,0-0.1,0c0,0-0.1,0-0.1,0c0,0-0.1,0-0.1,0c0,0,0,0-0.1,0
					c0,0-0.1,0-0.1,0c0,0,0,0,0,0c-0.1,0-0.1,0-0.2,0c0,0,0,0,0,0c0,0-0.1,0-0.1,0c0,0,0,0,0,0c0,0-0.1,0-0.1,0l2.7-0.9c0,0,0,0,0,0
					c0,0,0.1,0,0.1,0c0,0,0,0,0,0c0,0,0,0,0,0c0,0,0,0,0.1,0c0,0,0,0,0.1,0c0,0,0,0,0,0c0,0,0,0,0,0c0,0,0.1,0,0.1,0c0,0,0,0,0,0
					c0,0,0,0,0,0c0,0,0.1,0,0.1,0c0,0,0,0,0,0c0,0,0,0,0.1,0c0,0,0,0,0,0c0,0,0,0,0,0c0,0,0.1,0,0.1,0c0,0,0,0,0,0c0,0,0,0,0,0
					c0,0,0.1,0.1,0.1,0.1c0,0,0,0,0,0c0,0,0,0,0,0c0.1,0.1,0.2,0.1,0.2,0.2l4.7,4.2c0.1,0.1,0.2,0.2,0.3,0.3c0,0,0.1,0.1,0.1,0.1
					c0,0.1,0.1,0.1,0.1,0.2c0,0,0,0.1,0.1,0.1c0,0,0,0.1,0,0.1c0,0,0,0.1,0.1,0.1c0,0.1,0.1,0.2,0.1,0.2c0,0,0,0.1,0,0.1
					c0,0,0,0,0,0c0,0,0,0.1,0,0.1c0,0.1,0.1,0.1,0.1,0.2c0,0.1,0,0.1,0.1,0.2c0,0,0,0,0,0c0,0,0,0,0,0c0,0.1,0,0.1,0,0.2
					c0,0.1,0,0.1,0.1,0.2c0,0.1,0,0.1,0,0.2c0,0,0,0,0,0c0,0,0,0,0,0c0,0.1,0,0.1,0,0.2c0,0.1,0,0.1,0,0.2c0,0,0,0.1,0,0.1
					c0,0,0,0,0,0c0,0,0,0,0,0.1c0,0.1,0,0.2,0,0.2c0,0,0,0.1,0,0.1c0,0,0,0.1,0,0.1c0,0,0,0,0,0.1c0,0.1,0,0.3-0.1,0.4
					c-0.1,0.6-0.4,1-0.8,1.2l-2.7,0.9c0.4-0.1,0.7-0.5,0.8-1.2c0-0.1,0.1-0.3,0.1-0.5c0,0,0,0,0-0.1c0-0.1,0-0.3,0-0.5c0,0,0,0,0,0
					c0-0.2,0-0.3-0.1-0.5c0,0,0,0,0,0c0-0.2-0.1-0.3-0.1-0.5c0,0,0,0,0,0C25,48,25,47.9,24.9,47.7c0,0,0,0,0-0.1
					c-0.1-0.1-0.1-0.3-0.2-0.4c0,0,0-0.1-0.1-0.1c-0.1-0.1-0.1-0.2-0.2-0.3c0,0-0.1-0.1-0.1-0.1c-0.1-0.1-0.2-0.2-0.3-0.3l-4.7-4.2
					C19.2,42.2,19.1,42.1,19,42C19,42,19,42,19,42z"/>
				<g>
					<path class="st11" d="M19.3,42.2c-1-0.9-2-0.5-2.2,0.7c-0.3,1.3,0.3,3,1.3,3.9L23,51c1,0.9,2,0.5,2.2-0.7
						c0.3-1.3-0.3-3-1.3-3.8L19.3,42.2z"/>
				</g>
			</g>
			<g>
				<path class="st1" d="M19.1,52.8c0,0-1.4,2.6-0.2,4.7c0.6,1.1-2.9,1.3-5.4-0.4c0,0,0.8-4.8-0.9-6.9L19.1,52.8z"/>
				<path class="st12" d="M18.5,54.8c0,0-1.8-0.7-2.9-1.4l-0.1,0l-0.7,0.1l-0.3,0.1c0,0,0,3,4.1,3.3C18.6,56.8,18.3,56,18.5,54.8z"
					/>
				<path class="st1" d="M20.7,41.4c0,0,1,2.1,2.2,5.5c1.1,3,0.9,5.6-0.6,7.3c-0.8,0.9-8.2,1.3-10.2-6C11,43.6,15,38.2,20.7,41.4z"
					/>
			</g>
			<path class="st13" d="M22,41.8c0.7,0.7,1.5,2-0.2,3.4c-0.9,0.7-1.2,3.1-1.2,3.8c0,0.7-0.4,1.1-2.2-0.4c-0.6-0.5-1.9-0.1-2.2,1.3
				c-0.3,1.4,1.8,3.9,1,4.3c-0.8,0.4-3.5,1.2-5.4-2c-1.9-3.2-3.8-8.5,1-12C16.6,37.5,20.8,40.5,22,41.8z"/>
			<path class="st10" d="M26.2,47.2c0,0-12.6,1.9-16.3-0.4c0,0-0.2,1.5,0.3,2.1c0,0,5.7,3,16.5,0.3l0-0.9L26.2,47.2z"/>
			
				<ellipse transform="matrix(-0.9978 -6.697750e-002 6.697750e-002 -0.9978 64.8343 75.5487)" class="st9" cx="33.7" cy="36.7" rx="2" ry="0.8"/>
		</g>
		<g>
			<g>
				<g>
					<polygon class="st14" points="87.9,67.8 89.7,66.7 89.8,31 88,32.1 					"/>
				</g>
				<g>
					<g>
						<polygon class="st15" points="88,32 89.8,31 43,3.9 41.1,5 						"/>
					</g>
					<g>
						<polygon class="st16" points="41.1,5 41,40.8 87.9,67.8 88,32 						"/>
					</g>
					<g>
						<polygon class="st17" points="43.8,8.6 43.7,40.3 85.2,64.2 85.3,32.6 						"/>
					</g>
				</g>
			</g>
			
				<rect x="61.8" y="31.6" transform="matrix(-0.9725 -0.233 0.233 -0.9725 115.1677 83.4764)" class="st17" width="1.3" height="6.6"/>
			
				<rect x="64.1" y="22.7" transform="matrix(-0.9726 -0.2323 0.2323 -0.9726 121.7323 66.2947)" class="st17" width="1.3" height="6.6"/>
			
				<rect x="59.6" y="40.7" transform="matrix(-0.9726 -0.2323 0.2323 -0.9726 108.5881 100.8872)" class="st17" width="1.3" height="6.6"/>
			<g class="st18">
				<path class="st19" d="M43.5,12.2c-1.1-0.6-2.1-0.4-2.5,0.5c-0.2-0.2-0.4-0.3-0.6-0.5c-0.7-0.4-1.4-0.4-1.8-0.1
					c-0.3-0.4-0.7-0.8-1.1-1c-1.1-0.6-2-0.1-2,1.2c0,0.7,0.3,1.5,0.7,2.1l14.1,8.1c0.2-0.3,0.3-0.6,0.3-1.1c0-1.4-1-3.1-2.2-3.8
					c-0.1-0.1-0.3-0.1-0.4-0.2c-0.2-1.1-1-2.3-1.9-2.8c-0.1-0.1-0.3-0.1-0.4-0.2C45,13.5,44.3,12.7,43.5,12.2z"/>
			</g>
			<g class="st18">
				<path class="st19" d="M62.2,4.2c-1.1-0.6-2.1-0.4-2.5,0.5c-0.2-0.2-0.4-0.3-0.6-0.5c-0.7-0.4-1.4-0.4-1.8-0.1
					c-0.3-0.4-0.7-0.8-1.1-1c-1.1-0.6-2-0.1-2,1.2c0,0.7,0.3,1.5,0.7,2.1l14.1,8.1c0.2-0.3,0.3-0.6,0.3-1.1c0-1.4-1-3.1-2.2-3.8
					c-0.1-0.1-0.3-0.1-0.4-0.2c-0.2-1.1-1-2.3-1.9-2.8c-0.1-0.1-0.3-0.1-0.4-0.2C63.7,5.4,63,4.6,62.2,4.2z"/>
			</g>
			<g class="st18">
				<path class="st19" d="M88.5,36.2c-1.1-0.6-2.1-0.4-2.5,0.5c-0.2-0.2-0.4-0.3-0.6-0.5c-0.7-0.4-1.4-0.4-1.8-0.1
					c-0.3-0.4-0.7-0.8-1.1-1c-1.1-0.6-2-0.1-2,1.2c0,0.7,0.3,1.5,0.7,2.1l14.1,8.1c0.2-0.3,0.3-0.6,0.3-1.1c0-1.4-1-3.1-2.2-3.8
					c-0.1-0.1-0.3-0.1-0.4-0.2c-0.2-1.1-1-2.3-1.9-2.8c-0.1-0.1-0.3-0.1-0.4-0.2C90,37.5,89.3,36.7,88.5,36.2z"/>
			</g>
			<g class="st18">
				<path class="st19" d="M79.1,17.4c-0.8-0.5-1.5-0.3-1.8,0.3c-0.1-0.1-0.3-0.2-0.4-0.3c-0.5-0.3-1-0.3-1.3-0.1
					c-0.2-0.3-0.5-0.6-0.8-0.7c-0.8-0.5-1.4-0.1-1.4,0.8c0,0.5,0.2,1,0.5,1.5l10,5.8c0.1-0.2,0.2-0.4,0.2-0.7c0-1-0.7-2.2-1.6-2.7
					c-0.1-0.1-0.2-0.1-0.3-0.1c-0.2-0.8-0.7-1.6-1.4-2c-0.1-0.1-0.2-0.1-0.3-0.1C80.1,18.3,79.6,17.7,79.1,17.4z"/>
			</g>
			<g class="st20">
				<g class="st21">
					<g>
						<polygon class="st22" points="42.4,7.9 42.3,39.8 84,63.8 84.1,32 						"/>
					</g>
					<polygon class="st23" points="39.6,9.7 39.5,41.5 81.2,65.6 81.3,33.8 					"/>
					<polygon class="st24" points="36.7,11.4 36.6,43.3 78.4,67.3 78.5,35.5 					"/>
					<polygon class="st25" points="33.9,13.2 33.8,45 75.5,69.1 75.6,37.3 					"/>
					<polygon class="st26" points="31.1,14.9 31,46.8 72.7,70.9 72.8,39 					"/>
					<polygon class="st27" points="28.2,16.7 28.1,48.5 69.9,72.6 69.9,40.8 					"/>
					<polygon class="st28" points="25.4,18.4 25.3,50.3 67,74.4 67.1,42.5 					"/>
				</g>
			</g>
		</g>
	</g>
</g>
</svg>
